<?xml version="1.0" encoding="UTF-8"?>
<svg width="100px" height="12px" viewBox="0 0 100 12" version="1.1" xmlns="http://www.w3.org/2000/svg" xmlns:xlink="http://www.w3.org/1999/xlink">
    <!-- Generator: Sketch 60.1 (88133) - https://sketch.com -->
    <title>LeadCareerS.L.</title>
    <desc>Created with Sketch.</desc>
    <g id="UI-INTERFACE" stroke="none" stroke-width="1" fill="none" fill-rule="evenodd">
        <path d="M6.19140625,11 L6.19140625,9.92675781 L1.47460938,9.92675781 L1.47460938,1.046875 L0.155273438,1.046875 L0.155273438,11 L6.19140625,11 Z M10.5595703,11.1367188 C11.7991536,11.1367188 12.7288411,10.6604818 13.3486328,9.70800781 L13.3486328,9.70800781 L12.5761719,9.10644531 C12.34375,9.40722656 12.0725911,9.64876302 11.7626953,9.83105469 C11.4527995,10.0133464 11.0745443,10.1044922 10.6279297,10.1044922 C9.99902344,10.1044922 9.48063151,9.88004557 9.07275391,9.43115234 C8.6648763,8.98225911 8.45182292,8.39322917 8.43359375,7.6640625 L8.43359375,7.6640625 L13.4443359,7.6640625 L13.4443359,7.13769531 C13.4443359,5.95735677 13.1777344,5.05045573 12.6445312,4.41699219 C12.1113281,3.78352865 11.3639323,3.46679688 10.4023438,3.46679688 C9.81445312,3.46679688 9.26871745,3.62972005 8.76513672,3.95556641 C8.26155599,4.28141276 7.86962891,4.73258464 7.58935547,5.30908203 C7.30908203,5.88557943 7.16894531,6.5406901 7.16894531,7.27441406 L7.16894531,7.27441406 L7.16894531,7.50683594 C7.16894531,8.60970052 7.48339844,9.49039714 8.11230469,10.1489258 C8.74121094,10.8074544 9.55696615,11.1367188 10.5595703,11.1367188 Z M12.1796875,6.625 L8.47460938,6.625 C8.55664062,5.95507812 8.77083333,5.43440755 9.1171875,5.06298828 C9.46354167,4.69156901 9.89192708,4.50585938 10.4023438,4.50585938 C10.9309896,4.50585938 11.3502604,4.68245443 11.6601562,5.03564453 C11.9700521,5.38883464 12.1432292,5.88671875 12.1796875,6.52929688 L12.1796875,6.52929688 L12.1796875,6.625 Z M17.1904297,11.1367188 C18.0061849,11.1367188 18.7080078,10.8313802 19.2958984,10.2207031 C19.3414714,10.594401 19.4007161,10.8541667 19.4736328,11 L19.4736328,11 L20.7998047,11 L20.7998047,10.890625 C20.6266276,10.4895833 20.5400391,9.94954427 20.5400391,9.27050781 L20.5400391,9.27050781 L20.5400391,5.86621094 C20.5218099,5.1188151 20.2711589,4.5320638 19.7880859,4.10595703 C19.305013,3.67985026 18.6373698,3.46679688 17.7851562,3.46679688 C17.2473958,3.46679688 16.754069,3.56705729 16.3051758,3.76757812 C15.8562826,3.96809896 15.5008138,4.24039714 15.2387695,4.58447266 C14.9767253,4.92854818 14.8457031,5.28515625 14.8457031,5.65429688 L14.8457031,5.65429688 L16.1171875,5.65429688 C16.1171875,5.33072917 16.2698568,5.05501302 16.5751953,4.82714844 C16.8805339,4.59928385 17.2587891,4.48535156 17.7099609,4.48535156 C18.2249349,4.48535156 18.6145833,4.6163737 18.8789062,4.87841797 C19.1432292,5.14046224 19.2753906,5.49251302 19.2753906,5.93457031 L19.2753906,5.93457031 L19.2753906,6.515625 L18.0449219,6.515625 C16.9830729,6.515625 16.1593424,6.72867839 15.5737305,7.15478516 C14.9881185,7.58089193 14.6953125,8.17903646 14.6953125,8.94921875 C14.6953125,9.58268229 14.9288737,10.1056315 15.3959961,10.5180664 C15.8631185,10.9305013 16.461263,11.1367188 17.1904297,11.1367188 Z M17.375,10.0361328 C16.9602865,10.0361328 16.6207682,9.92447917 16.3564453,9.70117188 C16.0921224,9.47786458 15.9599609,9.16796875 15.9599609,8.77148438 C15.9599609,7.86458333 16.7347005,7.41113281 18.2841797,7.41113281 L18.2841797,7.41113281 L19.2753906,7.41113281 L19.2753906,8.92871094 C19.1158854,9.25683594 18.8583984,9.5234375 18.5029297,9.72851562 C18.1474609,9.93359375 17.7714844,10.0361328 17.375,10.0361328 Z M25.1201172,11.1367188 C26.0224609,11.1367188 26.7265625,10.8268229 27.2324219,10.2070312 L27.2324219,10.2070312 L27.2939453,11 L28.4560547,11 L28.4560547,0.5 L27.1914062,0.5 L27.1914062,4.35546875 C26.6855469,3.76302083 25.9996745,3.46679688 25.1337891,3.46679688 C24.2633464,3.46679688 23.5592448,3.81201172 23.0214844,4.50244141 C22.483724,5.19287109 22.2148438,6.10546875 22.2148438,7.24023438 L22.2148438,7.24023438 L22.2148438,7.3359375 C22.2148438,8.46614583 22.4848633,9.38216146 23.0249023,10.0839844 C23.5649414,10.7858073 24.2633464,11.1367188 25.1201172,11.1367188 Z M25.4345703,10.0634766 C24.8238932,10.0634766 24.3453776,9.8264974 23.9990234,9.35253906 C23.6526693,8.87858073 23.4794922,8.22233073 23.4794922,7.38378906 C23.4794922,6.44498698 23.6526693,5.73632812 23.9990234,5.2578125 C24.3453776,4.77929688 24.8284505,4.54003906 25.4482422,4.54003906 C26.2320964,4.54003906 26.813151,4.88867188 27.1914062,5.5859375 L27.1914062,5.5859375 L27.1914062,8.98339844 C26.8222656,9.70345052 26.2366536,10.0634766 25.4345703,10.0634766 Z M37.6298828,11.1367188 C38.7145182,11.1367188 39.5838216,10.8507487 40.237793,10.2788086 C40.8917643,9.70686849 41.2802734,8.89453125 41.4033203,7.84179688 L41.4033203,7.84179688 L40.0839844,7.84179688 C39.9563802,8.66210938 39.6977539,9.23746745 39.3081055,9.56787109 C38.918457,9.89827474 38.3590495,10.0634766 37.6298828,10.0634766 C36.8186849,10.0634766 36.1875,9.74446615 35.7363281,9.10644531 C35.2851562,8.46842448 35.0595703,7.609375 35.0595703,6.52929688 L35.0595703,6.52929688 L35.0595703,5.56542969 C35.0595703,4.42154948 35.2976888,3.53971354 35.7739258,2.91992188 C36.2501628,2.30013021 36.9075521,1.99023438 37.7460938,1.99023438 C38.4296875,1.99023438 38.9617513,2.16796875 39.3422852,2.5234375 C39.722819,2.87890625 39.9700521,3.453125 40.0839844,4.24609375 L40.0839844,4.24609375 L41.4033203,4.24609375 C41.2985026,3.20247396 40.9270833,2.38557943 40.2890625,1.79541016 C39.6510417,1.20524089 38.8033854,0.91015625 37.7460938,0.91015625 C36.9485677,0.91015625 36.2467448,1.09814453 35.640625,1.47412109 C35.0345052,1.85009766 34.5662435,2.3889974 34.2358398,3.09082031 C33.9054362,3.79264323 33.7402344,4.60611979 33.7402344,5.53125 L33.7402344,5.53125 L33.7402344,6.48828125 C33.7402344,7.90104167 34.0945638,9.02897135 34.8032227,9.87207031 C35.5118815,10.7151693 36.4541016,11.1367188 37.6298828,11.1367188 Z M45.2792969,11.1367188 C46.0950521,11.1367188 46.796875,10.8313802 47.3847656,10.2207031 C47.4303385,10.594401 47.4895833,10.8541667 47.5625,11 L47.5625,11 L48.8886719,11 L48.8886719,10.890625 C48.7154948,10.4895833 48.6289062,9.94954427 48.6289062,9.27050781 L48.6289062,9.27050781 L48.6289062,5.86621094 C48.6106771,5.1188151 48.360026,4.5320638 47.8769531,4.10595703 C47.3938802,3.67985026 46.726237,3.46679688 45.8740234,3.46679688 C45.336263,3.46679688 44.8429362,3.56705729 44.394043,3.76757812 C43.9451497,3.96809896 43.589681,4.24039714 43.3276367,4.58447266 C43.0655924,4.92854818 42.9345703,5.28515625 42.9345703,5.65429688 L42.9345703,5.65429688 L44.2060547,5.65429688 C44.2060547,5.33072917 44.358724,5.05501302 44.6640625,4.82714844 C44.969401,4.59928385 45.3476562,4.48535156 45.7988281,4.48535156 C46.3138021,4.48535156 46.7034505,4.6163737 46.9677734,4.87841797 C47.2320964,5.14046224 47.3642578,5.49251302 47.3642578,5.93457031 L47.3642578,5.93457031 L47.3642578,6.515625 L46.1337891,6.515625 C45.0719401,6.515625 44.2482096,6.72867839 43.6625977,7.15478516 C43.0769857,7.58089193 42.7841797,8.17903646 42.7841797,8.94921875 C42.7841797,9.58268229 43.0177409,10.1056315 43.4848633,10.5180664 C43.9519857,10.9305013 44.5501302,11.1367188 45.2792969,11.1367188 Z M45.4638672,10.0361328 C45.0491536,10.0361328 44.7096354,9.92447917 44.4453125,9.70117188 C44.1809896,9.47786458 44.0488281,9.16796875 44.0488281,8.77148438 C44.0488281,7.86458333 44.8235677,7.41113281 46.3730469,7.41113281 L46.3730469,7.41113281 L47.3642578,7.41113281 L47.3642578,8.92871094 C47.2047526,9.25683594 46.9472656,9.5234375 46.5917969,9.72851562 C46.2363281,9.93359375 45.8603516,10.0361328 45.4638672,10.0361328 Z M51.8759766,11 L51.8759766,5.75 C52.1722005,5.04361979 52.735026,4.69042969 53.5644531,4.69042969 C53.7877604,4.69042969 53.9951172,4.70638021 54.1865234,4.73828125 L54.1865234,4.73828125 L54.1865234,3.5625 C54.0589193,3.49869792 53.8720703,3.46679688 53.6259766,3.46679688 C52.8649089,3.46679688 52.2770182,3.79720052 51.8623047,4.45800781 L51.8623047,4.45800781 L51.8417969,3.60351562 L50.6113281,3.60351562 L50.6113281,11 L51.8759766,11 Z M58.2880859,11.1367188 C59.5276693,11.1367188 60.4573568,10.6604818 61.0771484,9.70800781 L61.0771484,9.70800781 L60.3046875,9.10644531 C60.0722656,9.40722656 59.8011068,9.64876302 59.4912109,9.83105469 C59.1813151,10.0133464 58.8030599,10.1044922 58.3564453,10.1044922 C57.7275391,10.1044922 57.2091471,9.88004557 56.8012695,9.43115234 C56.3933919,8.98225911 56.1803385,8.39322917 56.1621094,7.6640625 L56.1621094,7.6640625 L61.1728516,7.6640625 L61.1728516,7.13769531 C61.1728516,5.95735677 60.90625,5.05045573 60.3730469,4.41699219 C59.8398438,3.78352865 59.0924479,3.46679688 58.1308594,3.46679688 C57.5429688,3.46679688 56.9972331,3.62972005 56.4936523,3.95556641 C55.9900716,4.28141276 55.5981445,4.73258464 55.3178711,5.30908203 C55.0375977,5.88557943 54.8974609,6.5406901 54.8974609,7.27441406 L54.8974609,7.27441406 L54.8974609,7.50683594 C54.8974609,8.60970052 55.2119141,9.49039714 55.8408203,10.1489258 C56.4697266,10.8074544 57.2854818,11.1367188 58.2880859,11.1367188 Z M59.9082031,6.625 L56.203125,6.625 C56.2851562,5.95507812 56.499349,5.43440755 56.8457031,5.06298828 C57.1920573,4.69156901 57.6204427,4.50585938 58.1308594,4.50585938 C58.6595052,4.50585938 59.078776,4.68245443 59.3886719,5.03564453 C59.6985677,5.38883464 59.8717448,5.88671875 59.9082031,6.52929688 L59.9082031,6.52929688 L59.9082031,6.625 Z M65.7050781,11.1367188 C66.9446615,11.1367188 67.874349,10.6604818 68.4941406,9.70800781 L68.4941406,9.70800781 L67.7216797,9.10644531 C67.4892578,9.40722656 67.218099,9.64876302 66.9082031,9.83105469 C66.5983073,10.0133464 66.2200521,10.1044922 65.7734375,10.1044922 C65.1445312,10.1044922 64.6261393,9.88004557 64.2182617,9.43115234 C63.8103841,8.98225911 63.5973307,8.39322917 63.5791016,7.6640625 L63.5791016,7.6640625 L68.5898438,7.6640625 L68.5898438,7.13769531 C68.5898438,5.95735677 68.3232422,5.05045573 67.7900391,4.41699219 C67.2568359,3.78352865 66.5094401,3.46679688 65.5478516,3.46679688 C64.9599609,3.46679688 64.4142253,3.62972005 63.9106445,3.95556641 C63.4070638,4.28141276 63.0151367,4.73258464 62.7348633,5.30908203 C62.4545898,5.88557943 62.3144531,6.5406901 62.3144531,7.27441406 L62.3144531,7.27441406 L62.3144531,7.50683594 C62.3144531,8.60970052 62.6289062,9.49039714 63.2578125,10.1489258 C63.8867188,10.8074544 64.702474,11.1367188 65.7050781,11.1367188 Z M67.3251953,6.625 L63.6201172,6.625 C63.7021484,5.95507812 63.9163411,5.43440755 64.2626953,5.06298828 C64.6090495,4.69156901 65.0374349,4.50585938 65.5478516,4.50585938 C66.0764974,4.50585938 66.4957682,4.68245443 66.8056641,5.03564453 C67.1155599,5.38883464 67.288737,5.88671875 67.3251953,6.52929688 L67.3251953,6.52929688 L67.3251953,6.625 Z M71.3173828,11 L71.3173828,5.75 C71.6136068,5.04361979 72.1764323,4.69042969 73.0058594,4.69042969 C73.2291667,4.69042969 73.4365234,4.70638021 73.6279297,4.73828125 L73.6279297,4.73828125 L73.6279297,3.5625 C73.5003255,3.49869792 73.3134766,3.46679688 73.0673828,3.46679688 C72.3063151,3.46679688 71.7184245,3.79720052 71.3037109,4.45800781 L71.3037109,4.45800781 L71.2832031,3.60351562 L70.0527344,3.60351562 L70.0527344,11 L71.3173828,11 Z M81.6123047,11.1367188 C82.6650391,11.1367188 83.5058594,10.894043 84.1347656,10.4086914 C84.7636719,9.92333984 85.078125,9.27734375 85.078125,8.47070312 C85.078125,7.96484375 84.965332,7.5250651 84.7397461,7.15136719 C84.5141602,6.77766927 84.167806,6.45068359 83.7006836,6.17041016 C83.2335612,5.89013672 82.5864258,5.63378906 81.7592773,5.40136719 C80.9321289,5.16894531 80.3465169,4.91259766 80.0024414,4.63232422 C79.6583659,4.35205078 79.4863281,4.00911458 79.4863281,3.60351562 C79.4863281,3.09765625 79.6674805,2.7023112 80.0297852,2.41748047 C80.3920898,2.13264974 80.8968099,1.99023438 81.5439453,1.99023438 C82.2412109,1.99023438 82.78125,2.16227214 83.1640625,2.50634766 C83.546875,2.85042318 83.7382812,3.32324219 83.7382812,3.92480469 L83.7382812,3.92480469 L85.0576172,3.92480469 C85.0576172,3.3733724 84.9106445,2.86523438 84.6166992,2.40039062 C84.3227539,1.93554688 83.9080404,1.57096354 83.3725586,1.30664062 C82.8370768,1.04231771 82.2275391,0.91015625 81.5439453,0.91015625 C80.5413411,0.91015625 79.7267253,1.16650391 79.1000977,1.67919922 C78.4734701,2.19189453 78.1601562,2.84016927 78.1601562,3.62402344 C78.1601562,4.31673177 78.4165039,4.89892578 78.9291992,5.37060547 C79.4418945,5.84228516 80.2610677,6.23990885 81.3867188,6.56347656 C82.2845052,6.82324219 82.9042969,7.08642578 83.2460938,7.35302734 C83.5878906,7.61962891 83.7587891,7.99674479 83.7587891,8.484375 C83.7587891,8.97200521 83.5742188,9.35709635 83.2050781,9.63964844 C82.8359375,9.92220052 82.305013,10.0634766 81.6123047,10.0634766 C80.8694661,10.0634766 80.2758789,9.88916016 79.831543,9.54052734 C79.387207,9.19189453 79.1650391,8.71679688 79.1650391,8.11523438 L79.1650391,8.11523438 L77.8457031,8.11523438 C77.8457031,8.69401042 78.0063477,9.21126302 78.3276367,9.66699219 C78.6489258,10.1227214 79.1057943,10.4816081 79.6982422,10.7436523 C80.2906901,11.0056966 80.9287109,11.1367188 81.6123047,11.1367188 Z M87.3681641,11.0751953 C87.6279297,11.0751953 87.8250326,11.0045573 87.9594727,10.8632812 C88.0939128,10.7220052 88.1611328,10.5465495 88.1611328,10.3369141 C88.1611328,10.1181641 88.0939128,9.9358724 87.9594727,9.79003906 C87.8250326,9.64420573 87.6279297,9.57128906 87.3681641,9.57128906 C87.1083984,9.57128906 86.9135742,9.64420573 86.7836914,9.79003906 C86.6538086,9.9358724 86.5888672,10.1181641 86.5888672,10.3369141 C86.5888672,10.5465495 86.6538086,10.7220052 86.7836914,10.8632812 C86.9135742,11.0045573 87.1083984,11.0751953 87.3681641,11.0751953 Z M96.4804688,11 L96.4804688,9.92675781 L91.7636719,9.92675781 L91.7636719,1.046875 L90.4443359,1.046875 L90.4443359,11 L96.4804688,11 Z M98.5859375,11.0751953 C98.8457031,11.0751953 99.042806,11.0045573 99.1772461,10.8632812 C99.3116862,10.7220052 99.3789062,10.5465495 99.3789062,10.3369141 C99.3789062,10.1181641 99.3116862,9.9358724 99.1772461,9.79003906 C99.042806,9.64420573 98.8457031,9.57128906 98.5859375,9.57128906 C98.3261719,9.57128906 98.1313477,9.64420573 98.0014648,9.79003906 C97.871582,9.9358724 97.8066406,10.1181641 97.8066406,10.3369141 C97.8066406,10.5465495 97.871582,10.7220052 98.0014648,10.8632812 C98.1313477,11.0045573 98.3261719,11.0751953 98.5859375,11.0751953 Z" id="LeadCareerS.L." fill="#AEB6C7" fill-rule="nonzero"></path>
    </g>
</svg>