<svg width="149" height="176" viewBox="0 0 149 176" fill="none" xmlns="http://www.w3.org/2000/svg">
<mask id="mask0_1150_6576" style="mask-type:alpha" maskUnits="userSpaceOnUse" x="2" y="0" width="147" height="176">
<path d="M2 9.15527e-05H125C138.255 9.15527e-05 149 10.7453 149 24.0001V152C149 165.255 138.255 176 125 176H2V9.15527e-05Z" fill="#80AAC5"/>
</mask>
<g mask="url(#mask0_1150_6576)">
<g opacity="0.6" filter="url(#filter0_d_1150_6576)">
<g filter="url(#filter1_d_1150_6576)">
<rect x="95.6248" y="95.6224" width="72.5486" height="102.585" rx="1.84837" fill="white"/>
</g>
<g opacity="0.75">
<rect x="127.125" y="119.684" width="11.375" height="0.875001" rx="0.4375" fill="#D9D9D9"/>
<rect x="127.125" y="157.748" width="11.375" height="0.875001" rx="0.4375" fill="#D9D9D9"/>
<rect x="127.125" y="162.119" width="11.375" height="0.875001" rx="0.4375" fill="#D9D9D9"/>
<rect x="127.125" y="121.874" width="32.375" height="0.875001" rx="0.4375" fill="#D9D9D9"/>
<rect x="127.125" y="126.246" width="27.5625" height="0.875001" rx="0.4375" fill="#D9D9D9"/>
<rect x="127.125" y="129.749" width="27.5625" height="0.875001" rx="0.4375" fill="#D9D9D9"/>
<rect x="127.125" y="134.119" width="27.5625" height="0.875001" rx="0.4375" fill="#D9D9D9"/>
<rect x="127.125" y="138.497" width="27.5625" height="0.875001" rx="0.4375" fill="#D9D9D9"/>
<rect x="127.125" y="142.876" width="27.5625" height="0.875001" rx="0.4375" fill="#D9D9D9"/>
<rect x="127.125" y="147.247" width="27.5625" height="0.875001" rx="0.4375" fill="#D9D9D9"/>
<rect x="127.125" y="153.371" width="27.5625" height="0.875001" rx="0.4375" fill="#D9D9D9"/>
<rect x="127.125" y="131.936" width="35" height="0.875001" rx="0.4375" fill="#D9D9D9"/>
<rect x="127.125" y="124.061" width="35" height="0.875001" rx="0.4375" fill="#D9D9D9"/>
<rect x="127.125" y="140.687" width="35" height="0.875001" rx="0.4375" fill="#D9D9D9"/>
<rect x="127.125" y="145.059" width="35" height="0.875001" rx="0.4375" fill="#D9D9D9"/>
<rect x="127.125" y="136.307" width="35" height="0.875001" rx="0.4375" fill="#D9D9D9"/>
<rect x="127.125" y="149.437" width="35" height="0.875001" rx="0.4375" fill="#D9D9D9"/>
<rect x="127.125" y="155.56" width="35" height="0.875001" rx="0.4375" fill="#D9D9D9"/>
<rect x="127.125" y="164.309" width="10.9375" height="0.875001" rx="0.4375" fill="#D9D9D9"/>
<rect x="127.125" y="166.499" width="12.6875" height="0.875001" rx="0.4375" fill="#D9D9D9"/>
<rect x="127.125" y="168.686" width="10.9375" height="0.875001" rx="0.4375" fill="#D9D9D9"/>
<rect x="101.75" y="119.684" width="12.6875" height="0.875001" rx="0.4375" fill="#D9D9D9"/>
<rect x="101.75" y="124.501" width="10.9375" height="0.875001" rx="0.4375" fill="#D9D9D9"/>
<rect x="101.75" y="126.684" width="12.6875" height="0.875001" rx="0.4375" fill="#D9D9D9"/>
<rect x="101.75" y="131.062" width="12.6875" height="0.875001" rx="0.4375" fill="#D9D9D9"/>
<rect x="101.75" y="128.871" width="10.9375" height="0.875001" rx="0.4375" fill="#D9D9D9"/>
<rect x="101.75" y="139.812" width="10.9375" height="0.875001" rx="0.4375" fill="#D9D9D9"/>
<rect x="122.75" y="115.314" width="0.4375" height="77.0001" fill="#D9D9D9"/>
<rect x="162.125" y="115.314" width="0.437503" height="60.375" transform="rotate(90 162.125 115.314)" fill="#D9D9D9"/>
<rect x="120.562" y="135.871" width="0.437501" height="18.8125" transform="rotate(90 120.562 135.871)" fill="#D9D9D9"/>
</g>
<path d="M126.19 107.344C126.19 107.374 126.152 107.387 126.077 107.384L125.977 107.38H125.896C125.847 107.38 125.819 107.389 125.81 107.407C125.801 107.422 125.796 107.472 125.796 107.556V110.163C125.796 110.323 125.795 110.416 125.792 110.443C125.789 110.471 125.78 110.484 125.765 110.484C125.746 110.484 125.725 110.468 125.701 110.434L125.122 109.588C124.787 109.096 124.38 108.483 123.9 107.746L123.905 110.272C123.908 110.311 123.93 110.336 123.973 110.348C124.015 110.357 124.116 110.364 124.276 110.367C124.315 110.367 124.335 110.379 124.335 110.403C124.335 110.433 124.295 110.448 124.217 110.448C124.19 110.448 124.104 110.443 123.959 110.434C123.911 110.431 123.864 110.43 123.819 110.43C123.822 110.43 123.795 110.433 123.737 110.439C123.683 110.445 123.598 110.448 123.484 110.448H123.439C123.369 110.448 123.334 110.434 123.334 110.407C123.334 110.38 123.365 110.367 123.425 110.367C123.603 110.364 123.706 110.353 123.733 110.335C123.763 110.314 123.778 110.249 123.778 110.14V107.909C123.778 107.659 123.727 107.502 123.624 107.439C123.576 107.409 123.49 107.393 123.366 107.393C123.288 107.393 123.248 107.378 123.248 107.348C123.248 107.321 123.271 107.307 123.316 107.307C123.377 107.307 123.454 107.309 123.547 107.312C123.641 107.315 123.69 107.317 123.696 107.317C123.706 107.317 123.748 107.315 123.823 107.312C123.923 107.312 124.019 107.31 124.113 107.307L125.674 109.629V107.615C125.674 107.522 125.673 107.466 125.669 107.448C125.666 107.427 125.654 107.412 125.633 107.402C125.612 107.39 125.54 107.384 125.416 107.384C125.307 107.384 125.253 107.371 125.253 107.344C125.253 107.313 125.289 107.298 125.362 107.298H125.52C125.559 107.298 125.602 107.298 125.647 107.298C125.695 107.301 125.724 107.303 125.733 107.303C125.736 107.303 125.763 107.301 125.814 107.298C125.863 107.298 125.908 107.298 125.95 107.298H126.09C126.157 107.298 126.19 107.313 126.19 107.344Z" fill="#3D4042"/>
<path d="M122.735 108.892C122.735 109.341 122.6 109.722 122.328 110.032C122.06 110.343 121.729 110.498 121.337 110.498C120.921 110.498 120.571 110.341 120.287 110.028C120.004 109.711 119.862 109.322 119.862 108.86C119.862 108.39 119.998 108.005 120.269 107.706C120.544 107.405 120.894 107.254 121.319 107.254C121.72 107.254 122.057 107.411 122.328 107.724C122.6 108.038 122.735 108.427 122.735 108.892ZM122.228 108.915C122.228 108.362 122.115 107.933 121.889 107.625C121.747 107.432 121.55 107.335 121.296 107.335C121.055 107.335 120.868 107.409 120.735 107.557C120.491 107.828 120.369 108.27 120.369 108.883C120.369 109.369 120.453 109.746 120.622 110.014C120.794 110.283 121.034 110.417 121.342 110.417C121.628 110.417 121.844 110.29 121.989 110.037C122.149 109.756 122.228 109.382 122.228 108.915Z" fill="#3D4042"/>
<path d="M119.228 108.102C119.228 108.141 119.21 108.161 119.173 108.161C119.137 108.161 119.112 108.121 119.097 108.043C119.09 107.989 119.084 107.934 119.078 107.88C119.057 107.771 119.023 107.679 118.974 107.604C118.911 107.504 118.807 107.441 118.662 107.414C118.569 107.396 118.493 107.388 118.436 107.391C118.294 107.397 118.208 107.402 118.178 107.405V110.134C118.178 110.242 118.207 110.31 118.264 110.337C118.294 110.352 118.379 110.361 118.517 110.364C118.553 110.367 118.572 110.381 118.572 110.405C118.572 110.432 118.547 110.446 118.499 110.446C118.475 110.446 118.454 110.444 118.436 110.441C118.255 110.435 118.127 110.432 118.051 110.432C117.952 110.432 117.858 110.434 117.771 110.437C117.683 110.44 117.572 110.441 117.436 110.441C117.366 110.441 117.332 110.429 117.332 110.405C117.332 110.378 117.397 110.363 117.526 110.36C117.62 110.36 117.68 110.34 117.707 110.301C117.722 110.277 117.73 110.215 117.73 110.115V107.405C117.431 107.408 117.246 107.423 117.173 107.45C116.983 107.519 116.872 107.705 116.838 108.007C116.829 108.097 116.808 108.142 116.775 108.142C116.739 108.142 116.721 108.111 116.721 108.047C116.721 108.014 116.722 107.981 116.725 107.948L116.734 107.844C116.743 107.705 116.757 107.522 116.775 107.296H116.979L117.902 107.31C118.01 107.313 118.179 107.311 118.409 107.305L119.16 107.292C119.166 107.461 119.186 107.711 119.219 108.043C119.219 108.052 119.22 108.064 119.223 108.079C119.226 108.091 119.228 108.099 119.228 108.102Z" fill="#3D4042"/>
<path d="M116.417 110.086C116.417 110.164 116.412 110.294 116.403 110.475H116.353C116.335 110.475 116.291 110.472 116.222 110.466C116.153 110.46 116.074 110.457 115.987 110.457L114.104 110.443C114.053 110.443 114.027 110.43 114.027 110.403C114.027 110.382 114.068 110.368 114.149 110.362C114.264 110.356 114.332 110.344 114.353 110.326C114.377 110.305 114.389 110.247 114.389 110.154V107.611C114.389 107.499 114.377 107.434 114.353 107.416C114.332 107.398 114.252 107.389 114.113 107.389C114.056 107.389 114.027 107.372 114.027 107.339C114.027 107.312 114.045 107.298 114.082 107.298H114.122C114.222 107.307 114.419 107.312 114.715 107.312C114.742 107.312 114.795 107.31 114.874 107.307C114.952 107.301 115.017 107.298 115.068 107.298H115.118C115.172 107.298 115.199 107.313 115.199 107.344C115.199 107.362 115.19 107.374 115.172 107.38C115.157 107.383 115.106 107.386 115.018 107.389C114.931 107.392 114.878 107.407 114.86 107.434C114.845 107.458 114.837 107.537 114.837 107.669V110.339C114.919 110.342 115.032 110.344 115.177 110.344C115.53 110.344 115.779 110.326 115.923 110.29C116.068 110.253 116.166 110.186 116.218 110.086C116.269 109.986 116.299 109.852 116.308 109.683C116.311 109.644 116.329 109.624 116.362 109.624C116.402 109.624 116.42 109.647 116.417 109.692L116.412 109.805C116.412 109.811 116.412 109.825 116.412 109.846C116.415 109.867 116.417 109.888 116.417 109.909V110.086Z" fill="#3D4042"/>
<path d="M113.424 110.407C113.424 110.431 113.406 110.443 113.37 110.443H113.325C113.306 110.434 113.101 110.43 112.709 110.43C112.634 110.43 112.558 110.433 112.483 110.439C112.444 110.442 112.383 110.443 112.302 110.443C112.263 110.443 112.243 110.43 112.243 110.403C112.243 110.379 112.282 110.365 112.361 110.362C112.481 110.359 112.552 110.345 112.573 110.321C112.594 110.294 112.605 110.207 112.605 110.059V107.679C112.605 107.531 112.597 107.448 112.582 107.43C112.564 107.399 112.481 107.381 112.333 107.375C112.276 107.372 112.248 107.36 112.248 107.339C112.248 107.312 112.266 107.298 112.302 107.298L112.913 107.307C112.958 107.307 113.045 107.306 113.175 107.303L113.347 107.298C113.395 107.298 113.42 107.312 113.42 107.339C113.42 107.363 113.353 107.378 113.22 107.384C113.145 107.387 113.098 107.401 113.08 107.425C113.065 107.449 113.058 107.513 113.058 107.615V110.032C113.058 110.204 113.065 110.297 113.08 110.312C113.113 110.345 113.211 110.365 113.374 110.371C113.407 110.371 113.424 110.383 113.424 110.407Z" fill="#3D4042"/>
<path d="M111.721 110.406C111.721 110.436 111.689 110.451 111.626 110.451H111.576C111.534 110.451 111.457 110.45 111.345 110.447C111.233 110.444 111.148 110.442 111.087 110.442C110.997 110.442 110.891 110.444 110.77 110.447C110.647 110.447 110.565 110.447 110.526 110.447H110.494C110.431 110.447 110.399 110.433 110.399 110.406C110.399 110.376 110.443 110.361 110.531 110.361C110.684 110.361 110.778 110.344 110.811 110.311C110.826 110.296 110.834 110.195 110.834 110.008V107.664C110.834 107.667 110.817 107.719 110.784 107.822C110.663 108.187 110.488 108.736 110.259 109.469L110.046 110.189C110.004 110.331 109.974 110.401 109.956 110.401C109.935 110.401 109.912 110.365 109.888 110.293C109.8 110.018 109.553 109.333 109.146 108.238L108.965 107.754C108.968 107.811 108.969 107.89 108.969 107.989V109.46C108.969 110.012 108.974 110.291 108.983 110.297C109.004 110.337 109.076 110.356 109.2 110.356C109.3 110.356 109.349 110.37 109.349 110.397C109.349 110.427 109.318 110.442 109.254 110.442C109.215 110.442 109.179 110.441 109.146 110.438C109.104 110.435 109.066 110.433 109.033 110.433L108.512 110.447C108.458 110.447 108.431 110.433 108.431 110.406C108.431 110.376 108.517 110.359 108.689 110.356C108.761 110.356 108.803 110.344 108.815 110.32C108.828 110.296 108.834 110.217 108.834 110.085V107.917C108.834 107.667 108.831 107.531 108.825 107.51C108.812 107.468 108.787 107.439 108.748 107.424C108.708 107.409 108.624 107.397 108.494 107.388C108.446 107.385 108.422 107.371 108.422 107.347C108.422 107.314 108.466 107.297 108.553 107.297C108.565 107.297 108.591 107.299 108.63 107.302H108.865C109.043 107.302 109.168 107.3 109.241 107.297C109.256 107.336 109.345 107.573 109.508 108.008C109.577 108.189 109.772 108.717 110.092 109.591C110.149 109.395 110.208 109.202 110.268 109.012L110.748 107.514C110.775 107.427 110.799 107.354 110.82 107.297L111.499 107.293C111.599 107.293 111.656 107.297 111.671 107.306C111.686 107.315 111.694 107.329 111.694 107.347C111.694 107.377 111.668 107.392 111.617 107.392C111.532 107.392 111.475 107.395 111.445 107.401C111.372 107.413 111.322 107.437 111.295 107.474C111.28 107.495 111.273 107.671 111.273 108.003V110.107C111.273 110.228 111.285 110.299 111.309 110.32C111.348 110.347 111.446 110.361 111.603 110.361H111.63C111.691 110.361 111.721 110.376 111.721 110.406Z" fill="#3D4042"/>
<path d="M108.184 110.414C108.184 110.441 108.161 110.455 108.116 110.455C108.086 110.455 108.059 110.453 108.035 110.45L107.46 110.441L106.885 110.45C106.864 110.453 106.841 110.455 106.817 110.455C106.757 110.455 106.727 110.44 106.727 110.409C106.727 110.376 106.767 110.36 106.849 110.36C107.114 110.357 107.247 110.33 107.247 110.278C107.247 110.275 107.244 110.263 107.238 110.242L107.202 110.12L107.179 110.056C107.152 109.963 107.086 109.756 106.98 109.437H106.012C105.831 109.919 105.74 110.197 105.74 110.269C105.74 110.311 105.758 110.337 105.795 110.346C105.804 110.349 105.879 110.355 106.021 110.364C106.108 110.367 106.152 110.382 106.152 110.409C106.152 110.44 106.113 110.455 106.034 110.455C105.896 110.455 105.734 110.449 105.55 110.437C105.505 110.434 105.458 110.432 105.41 110.432C105.362 110.432 105.315 110.435 105.27 110.441C105.245 110.444 105.226 110.446 105.211 110.446C105.169 110.446 105.147 110.432 105.147 110.405C105.147 110.378 105.194 110.363 105.288 110.36C105.384 110.357 105.454 110.343 105.496 110.319C105.538 110.292 105.571 110.242 105.595 110.17C105.985 109.059 106.301 108.168 106.546 107.495C106.552 107.459 106.564 107.418 106.582 107.373L106.605 107.292C106.614 107.258 106.626 107.242 106.641 107.242C106.65 107.242 106.657 107.251 106.663 107.269C106.703 107.387 106.792 107.632 106.93 108.007C107.039 108.299 107.309 109.034 107.74 110.21C107.765 110.277 107.795 110.319 107.831 110.337C107.87 110.355 107.949 110.366 108.066 110.369C108.145 110.372 108.184 110.387 108.184 110.414ZM106.953 109.332C106.905 109.197 106.825 108.972 106.713 108.658L106.496 108.038C106.369 108.37 106.217 108.801 106.039 109.332H106.953Z" fill="#3D4042"/>
<path d="M104.766 110.403C104.766 110.43 104.738 110.443 104.68 110.443L104.056 110.439C104.014 110.439 103.952 110.44 103.87 110.443C103.789 110.446 103.728 110.448 103.689 110.448C103.629 110.448 103.599 110.436 103.599 110.412C103.599 110.388 103.67 110.371 103.811 110.362C103.887 110.356 103.931 110.344 103.943 110.326C103.955 110.305 103.961 110.234 103.961 110.113V108.792H102.599V110.072C102.599 110.208 102.609 110.288 102.63 110.312C102.651 110.336 102.722 110.353 102.843 110.362C102.921 110.368 102.961 110.382 102.961 110.403C102.961 110.43 102.93 110.443 102.87 110.443H102.829C102.757 110.443 102.68 110.442 102.599 110.439C102.52 110.436 102.473 110.434 102.458 110.434C102.416 110.434 102.353 110.436 102.268 110.439C102.184 110.442 102.057 110.443 101.888 110.443C101.828 110.443 101.798 110.431 101.798 110.407C101.798 110.383 101.828 110.368 101.888 110.362C101.927 110.359 101.968 110.356 102.01 110.353C102.077 110.347 102.119 110.332 102.137 110.308C102.146 110.293 102.151 110.208 102.151 110.054V107.665C102.151 107.529 102.143 107.449 102.128 107.425C102.116 107.401 102.069 107.387 101.988 107.384C101.894 107.378 101.838 107.374 101.82 107.371C101.805 107.368 101.798 107.356 101.798 107.335C101.798 107.31 101.817 107.298 101.856 107.298C101.869 107.298 101.894 107.3 101.933 107.303C102.009 107.309 102.187 107.312 102.467 107.312C102.621 107.312 102.728 107.31 102.789 107.307C102.81 107.304 102.837 107.303 102.87 107.303C102.924 107.303 102.952 107.318 102.952 107.348C102.952 107.375 102.902 107.389 102.802 107.389C102.706 107.389 102.647 107.401 102.626 107.425C102.608 107.446 102.599 107.517 102.599 107.638V108.679H103.961V107.706C103.961 107.546 103.949 107.452 103.925 107.425C103.9 107.395 103.816 107.381 103.671 107.384C103.626 107.384 103.603 107.371 103.603 107.344C103.603 107.317 103.629 107.303 103.68 107.303H103.703C103.745 107.303 103.819 107.303 103.925 107.303C104.033 107.306 104.115 107.307 104.169 107.307C104.353 107.307 104.477 107.306 104.54 107.303C104.606 107.3 104.649 107.298 104.667 107.298C104.73 107.298 104.762 107.312 104.762 107.339C104.762 107.366 104.695 107.381 104.563 107.384C104.523 107.384 104.495 107.387 104.477 107.393C104.446 107.402 104.427 107.419 104.418 107.443C104.412 107.467 104.409 107.538 104.409 107.656V110.063C104.409 110.208 104.416 110.293 104.431 110.317C104.462 110.35 104.549 110.367 104.694 110.367C104.742 110.361 104.766 110.373 104.766 110.403Z" fill="#3D4042"/>
<path d="M120.874 104.08C120.874 104.34 120.774 104.562 120.575 104.746C120.379 104.927 120.142 105.017 119.865 105.017C119.702 105.017 119.507 104.967 119.281 104.868C119.221 104.841 119.175 104.827 119.145 104.827C119.109 104.827 119.086 104.871 119.077 104.958C119.074 105.004 119.055 105.026 119.018 105.026C118.988 105.026 118.973 105.008 118.973 104.972C118.973 104.948 118.975 104.93 118.978 104.918C119.002 104.734 119.014 104.563 119.014 104.406C119.014 104.376 119.011 104.292 119.005 104.153C119.002 104.135 119 104.111 119 104.08C119 104.035 119.018 104.013 119.055 104.013C119.085 104.013 119.106 104.049 119.118 104.121C119.196 104.658 119.451 104.927 119.883 104.927C120.067 104.927 120.209 104.875 120.308 104.773C120.411 104.667 120.462 104.519 120.462 104.329C120.462 104.16 120.412 104.017 120.313 103.899C120.216 103.779 120.049 103.66 119.81 103.542C119.524 103.4 119.325 103.263 119.213 103.13C119.101 102.997 119.046 102.833 119.046 102.637C119.046 102.386 119.126 102.18 119.285 102.017C119.448 101.854 119.653 101.773 119.901 101.773C120.003 101.773 120.145 101.807 120.326 101.877C120.39 101.901 120.436 101.913 120.467 101.913C120.5 101.913 120.521 101.907 120.53 101.895C120.542 101.883 120.552 101.851 120.562 101.8C120.568 101.77 120.584 101.754 120.611 101.754C120.641 101.754 120.657 101.773 120.657 101.809C120.657 101.833 120.655 101.851 120.652 101.863C120.643 101.935 120.638 102.023 120.638 102.126C120.638 102.27 120.646 102.385 120.661 102.469L120.666 102.542C120.669 102.575 120.655 102.592 120.625 102.592C120.592 102.592 120.569 102.557 120.557 102.488C120.524 102.31 120.445 102.162 120.322 102.044C120.198 101.923 120.059 101.863 119.905 101.863C119.755 101.863 119.634 101.911 119.543 102.008C119.456 102.104 119.412 102.236 119.412 102.402C119.412 102.595 119.477 102.75 119.607 102.868C119.679 102.934 119.836 103.028 120.077 103.148C120.361 103.29 120.565 103.435 120.688 103.583C120.812 103.727 120.874 103.893 120.874 104.08Z" fill="#3D4042"/>
<path d="M118.592 104.934C118.592 104.961 118.569 104.974 118.524 104.974C118.494 104.974 118.466 104.973 118.442 104.97L117.868 104.961L117.293 104.97C117.272 104.973 117.249 104.974 117.225 104.974C117.165 104.974 117.134 104.959 117.134 104.929C117.134 104.896 117.175 104.879 117.257 104.879C117.522 104.876 117.655 104.849 117.655 104.798C117.655 104.795 117.652 104.783 117.646 104.762L117.61 104.639L117.587 104.576C117.56 104.482 117.493 104.276 117.388 103.956H116.419C116.238 104.439 116.148 104.716 116.148 104.789C116.148 104.831 116.166 104.857 116.202 104.866C116.211 104.869 116.287 104.875 116.428 104.884C116.516 104.887 116.56 104.902 116.56 104.929C116.56 104.959 116.521 104.974 116.442 104.974C116.303 104.974 116.142 104.968 115.958 104.956C115.913 104.953 115.866 104.952 115.818 104.952C115.769 104.952 115.723 104.955 115.677 104.961C115.653 104.964 115.634 104.965 115.618 104.965C115.576 104.965 115.555 104.952 115.555 104.924C115.555 104.897 115.602 104.882 115.695 104.879C115.792 104.876 115.861 104.863 115.904 104.838C115.946 104.811 115.979 104.762 116.003 104.689C116.392 103.579 116.709 102.687 116.953 102.015C116.959 101.979 116.972 101.938 116.99 101.893L117.012 101.811C117.021 101.778 117.033 101.761 117.048 101.761C117.058 101.761 117.065 101.77 117.071 101.788C117.11 101.906 117.199 102.152 117.338 102.526C117.447 102.819 117.717 103.553 118.148 104.73C118.172 104.796 118.202 104.838 118.239 104.857C118.278 104.875 118.356 104.885 118.474 104.888C118.552 104.891 118.592 104.906 118.592 104.934ZM117.361 103.852C117.312 103.716 117.232 103.491 117.121 103.178L116.904 102.558C116.777 102.89 116.625 103.321 116.447 103.852H117.361Z" fill="#3D4042"/>
<path d="M115.268 104.929C115.268 104.959 115.237 104.974 115.173 104.974H115.124C115.081 104.974 115.004 104.972 114.893 104.969C114.781 104.966 114.695 104.965 114.635 104.965C114.544 104.965 114.439 104.966 114.318 104.969C114.194 104.969 114.113 104.969 114.074 104.969H114.042C113.979 104.969 113.947 104.956 113.947 104.929C113.947 104.898 113.991 104.883 114.078 104.883C114.232 104.883 114.326 104.867 114.359 104.834C114.374 104.818 114.381 104.717 114.381 104.53V102.186C114.381 102.189 114.365 102.242 114.332 102.345C114.211 102.71 114.036 103.259 113.807 103.992L113.594 104.711C113.552 104.853 113.522 104.924 113.504 104.924C113.482 104.924 113.46 104.888 113.436 104.815C113.348 104.541 113.101 103.856 112.694 102.761L112.513 102.277C112.516 102.334 112.517 102.413 112.517 102.512V103.983C112.517 104.535 112.522 104.814 112.531 104.82C112.552 104.859 112.624 104.879 112.748 104.879C112.847 104.879 112.897 104.892 112.897 104.92C112.897 104.95 112.865 104.965 112.802 104.965C112.763 104.965 112.727 104.963 112.694 104.96C112.651 104.957 112.614 104.956 112.58 104.956L112.06 104.969C112.006 104.969 111.979 104.956 111.979 104.929C111.979 104.898 112.064 104.882 112.236 104.879C112.309 104.879 112.351 104.867 112.363 104.843C112.375 104.818 112.381 104.74 112.381 104.607V102.44C112.381 102.189 112.378 102.054 112.372 102.032C112.36 101.99 112.335 101.962 112.295 101.946C112.256 101.931 112.172 101.919 112.042 101.91C111.994 101.907 111.969 101.894 111.969 101.869C111.969 101.836 112.013 101.82 112.101 101.82C112.113 101.82 112.138 101.821 112.178 101.824H112.413C112.591 101.824 112.716 101.823 112.789 101.82C112.804 101.859 112.893 102.096 113.056 102.53C113.125 102.711 113.32 103.239 113.639 104.114C113.697 103.918 113.755 103.725 113.816 103.535L114.295 102.037C114.323 101.949 114.347 101.877 114.368 101.82L115.047 101.815C115.146 101.815 115.204 101.82 115.219 101.829C115.234 101.838 115.241 101.851 115.241 101.869C115.241 101.9 115.216 101.915 115.164 101.915C115.08 101.915 115.023 101.918 114.992 101.924C114.92 101.936 114.87 101.96 114.843 101.996C114.828 102.017 114.82 102.194 114.82 102.526V104.63C114.82 104.751 114.832 104.821 114.857 104.843C114.896 104.87 114.994 104.883 115.151 104.883H115.178C115.238 104.883 115.268 104.898 115.268 104.929Z" fill="#3D4042"/>
<path d="M111.34 103.411C111.34 103.861 111.204 104.241 110.933 104.551C110.664 104.862 110.334 105.017 109.942 105.017C109.525 105.017 109.175 104.861 108.892 104.547C108.608 104.23 108.466 103.841 108.466 103.379C108.466 102.909 108.602 102.524 108.874 102.225C109.148 101.924 109.498 101.773 109.924 101.773C110.325 101.773 110.661 101.93 110.933 102.243C111.204 102.557 111.34 102.946 111.34 103.411ZM110.833 103.434C110.833 102.882 110.72 102.452 110.494 102.144C110.352 101.951 110.154 101.854 109.901 101.854C109.66 101.854 109.473 101.928 109.34 102.076C109.095 102.348 108.973 102.79 108.973 103.402C108.973 103.888 109.058 104.265 109.227 104.533C109.399 104.802 109.638 104.936 109.946 104.936C110.233 104.936 110.448 104.809 110.593 104.556C110.753 104.275 110.833 103.901 110.833 103.434Z" fill="#3D4042"/>
<path d="M107.785 104.921C107.785 104.949 107.756 104.962 107.699 104.962L107.074 104.958C107.032 104.958 106.97 104.959 106.889 104.962C106.807 104.965 106.747 104.967 106.708 104.967C106.647 104.967 106.617 104.955 106.617 104.93C106.617 104.906 106.688 104.89 106.83 104.881C106.905 104.875 106.949 104.863 106.961 104.844C106.973 104.823 106.979 104.752 106.979 104.632V103.31H105.617V104.591C105.617 104.727 105.628 104.807 105.649 104.831C105.67 104.855 105.741 104.872 105.861 104.881C105.94 104.887 105.979 104.9 105.979 104.921C105.979 104.949 105.949 104.962 105.888 104.962H105.848C105.775 104.962 105.698 104.961 105.617 104.958C105.539 104.955 105.492 104.953 105.477 104.953C105.434 104.953 105.371 104.955 105.287 104.958C105.202 104.961 105.075 104.962 104.907 104.962C104.846 104.962 104.816 104.95 104.816 104.926C104.816 104.902 104.846 104.887 104.907 104.881C104.946 104.878 104.986 104.875 105.029 104.872C105.095 104.866 105.137 104.85 105.155 104.826C105.164 104.811 105.169 104.727 105.169 104.573V102.184C105.169 102.048 105.161 101.968 105.146 101.944C105.134 101.92 105.088 101.906 105.006 101.903C104.913 101.897 104.857 101.892 104.839 101.889C104.824 101.886 104.816 101.874 104.816 101.853C104.816 101.829 104.836 101.817 104.875 101.817C104.887 101.817 104.913 101.819 104.952 101.822C105.027 101.828 105.205 101.831 105.486 101.831C105.64 101.831 105.747 101.829 105.807 101.826C105.828 101.823 105.855 101.822 105.888 101.822C105.943 101.822 105.97 101.837 105.97 101.867C105.97 101.894 105.92 101.908 105.821 101.908C105.724 101.908 105.665 101.92 105.644 101.944C105.626 101.965 105.617 102.036 105.617 102.156V103.197H106.979V102.224C106.979 102.064 106.967 101.971 106.943 101.944C106.919 101.914 106.834 101.9 106.689 101.903C106.644 101.903 106.622 101.889 106.622 101.862C106.622 101.835 106.647 101.822 106.699 101.822H106.721C106.763 101.822 106.837 101.822 106.943 101.822C107.051 101.825 107.133 101.826 107.187 101.826C107.371 101.826 107.495 101.825 107.558 101.822C107.625 101.819 107.667 101.817 107.685 101.817C107.748 101.817 107.78 101.831 107.78 101.858C107.78 101.885 107.714 101.9 107.581 101.903C107.542 101.903 107.513 101.906 107.495 101.912C107.465 101.921 107.445 101.938 107.436 101.962C107.43 101.986 107.427 102.057 107.427 102.175V104.582C107.427 104.727 107.435 104.811 107.45 104.835C107.48 104.869 107.567 104.885 107.712 104.885C107.76 104.879 107.785 104.891 107.785 104.921Z" fill="#3D4042"/>
<path d="M104.257 102.625C104.257 102.664 104.239 102.684 104.203 102.684C104.166 102.684 104.141 102.645 104.126 102.566C104.12 102.512 104.114 102.458 104.108 102.403C104.086 102.295 104.052 102.203 104.004 102.127C103.94 102.028 103.836 101.965 103.691 101.937C103.598 101.919 103.522 101.912 103.465 101.915C103.323 101.921 103.237 101.925 103.207 101.928V104.657C103.207 104.766 103.236 104.834 103.293 104.861C103.323 104.876 103.408 104.885 103.546 104.888C103.583 104.891 103.601 104.904 103.601 104.929C103.601 104.956 103.577 104.969 103.528 104.969C103.504 104.969 103.483 104.968 103.465 104.965C103.284 104.959 103.156 104.956 103.08 104.956C102.981 104.956 102.887 104.957 102.8 104.96C102.712 104.963 102.601 104.965 102.465 104.965C102.396 104.965 102.361 104.953 102.361 104.929C102.361 104.901 102.426 104.886 102.555 104.883C102.649 104.883 102.709 104.864 102.736 104.824C102.752 104.8 102.759 104.739 102.759 104.639V101.928C102.46 101.931 102.275 101.946 102.202 101.974C102.012 102.043 101.901 102.228 101.868 102.53C101.859 102.621 101.837 102.666 101.804 102.666C101.768 102.666 101.75 102.634 101.75 102.571C101.75 102.538 101.751 102.505 101.754 102.471L101.764 102.367C101.773 102.228 101.786 102.046 101.804 101.82H102.008L102.931 101.833C103.04 101.836 103.209 101.835 103.438 101.829L104.189 101.815C104.195 101.984 104.215 102.235 104.248 102.566C104.248 102.575 104.249 102.588 104.252 102.603C104.255 102.615 104.257 102.622 104.257 102.625Z" fill="#3D4042"/>
</g>
<g opacity="0.6" filter="url(#filter2_d_1150_6576)">
<g filter="url(#filter3_d_1150_6576)">
<rect x="12.5001" y="129.309" width="72.5486" height="102.585" rx="1.84837" fill="white"/>
</g>
<path d="M85.125 131.059C85.125 130.092 84.3415 129.309 83.375 129.309H82.0625V232.121H83.375C84.3415 232.121 85.125 231.338 85.125 230.371V131.059Z" fill="#99A298"/>
<g opacity="0.75">
<rect x="20.8124" y="141.122" width="6.125" height="0.875001" rx="0.4375" fill="#D9D9D9"/>
<rect x="20.812" y="152.493" width="8.75" height="0.875001" rx="0.4375" fill="#D9D9D9"/>
<rect x="20.8123" y="159.062" width="52.5" height="0.875001" rx="0.4375" fill="#D9D9D9"/>
<rect x="20.8124" y="168.684" width="52.5" height="0.875001" rx="0.4375" fill="#D9D9D9"/>
<rect x="20.8125" y="174.806" width="48.125" height="0.875001" rx="0.4375" fill="#D9D9D9"/>
<rect x="20.8122" y="161.25" width="48.125" height="0.875001" rx="0.4375" fill="#D9D9D9"/>
<rect x="20.8124" y="154.681" width="52.5" height="0.875001" rx="0.4375" fill="#D9D9D9"/>
<rect x="20.812" y="170.868" width="48.125" height="0.4375" rx="0.21875" fill="#D9D9D9"/>
<rect x="20.8124" y="172.62" width="52.5" height="0.875001" rx="0.4375" fill="#D9D9D9"/>
<rect x="20.8124" y="163.431" width="52.5" height="0.875001" rx="0.4375" fill="#D9D9D9"/>
<rect x="20.8126" y="156.872" width="48.125" height="0.875001" rx="0.4375" fill="#D9D9D9"/>
<rect x="20.812" y="143.305" width="11.375" height="0.875001" rx="0.4375" fill="#DDDDDD"/>
<rect x="20.8126" y="147.684" width="11.375" height="0.875001" rx="0.4375" fill="#D9D9D9"/>
<rect x="20.8124" y="145.494" width="14" height="0.875001" rx="0.4375" fill="#D9D9D9"/>
<rect x="61.5005" y="134.994" width="10.9375" height="0.875001" rx="0.4375" fill="#D9D9D9"/>
<rect x="61.4998" y="137.184" width="12.6875" height="0.875001" rx="0.4375" fill="#D9D9D9"/>
<rect x="61.5001" y="141.559" width="12.6875" height="0.875001" rx="0.4375" fill="#D9D9D9"/>
<rect x="61.4997" y="139.372" width="10.9375" height="0.875001" rx="0.4375" fill="#D9D9D9"/>
<rect x="18.6252" y="129.309" width="0.4375" height="102.813" fill="#D9D9D9"/>
<rect x="18.6249" y="141.122" width="0.4375" height="5.25" rx="0.21875" fill="#8A8E90"/>
<rect x="18.6249" y="152.493" width="0.4375" height="5.25" rx="0.21875" fill="#8A8E90"/>
</g>
<path d="M53.6263 135.124C53.5889 135.132 53.5515 135.163 53.5141 135.216C53.4793 135.267 53.462 135.358 53.462 135.489V137.993L51.4105 135.601V137.52C51.4105 137.648 51.4332 137.739 51.4786 137.793C51.5241 137.843 51.5681 137.873 51.6109 137.881H51.0459C51.0833 137.873 51.1207 137.843 51.1581 137.793C51.1982 137.739 51.2182 137.647 51.2182 137.516V135.513C51.2182 135.422 51.1875 135.339 51.126 135.264C51.0646 135.19 50.9871 135.143 50.8937 135.124H51.3905L53.2697 137.316V135.489C53.2697 135.283 53.2002 135.162 53.0613 135.124H53.6263Z" fill="#3D4042"/>
<path d="M47.8484 136.533C47.8484 136.25 47.9085 135.997 48.0287 135.776C48.1516 135.554 48.3225 135.382 48.5416 135.259C48.7633 135.136 49.0184 135.075 49.3069 135.075C49.5473 135.075 49.7717 135.128 49.98 135.235C50.191 135.339 50.3593 135.497 50.4849 135.708C50.6131 135.919 50.6772 136.172 50.6772 136.469C50.6772 136.752 50.6157 137.004 50.4929 137.226C50.3727 137.448 50.2017 137.62 49.98 137.743C49.761 137.866 49.5072 137.927 49.2187 137.927C48.9783 137.927 48.7526 137.875 48.5416 137.771C48.3332 137.664 48.1649 137.505 48.0367 137.294C47.9112 137.083 47.8484 136.83 47.8484 136.533ZM50.3566 136.529C50.3566 136.286 50.3059 136.067 50.2044 135.872C50.1056 135.674 49.968 135.521 49.7917 135.411C49.6181 135.299 49.4217 135.243 49.2027 135.243C49.0024 135.243 48.8234 135.294 48.6658 135.395C48.5109 135.497 48.3893 135.641 48.3012 135.828C48.213 136.012 48.169 136.227 48.169 136.473C48.169 136.716 48.2184 136.936 48.3172 137.134C48.4187 137.329 48.5563 137.483 48.7299 137.595C48.9062 137.704 49.1039 137.759 49.3229 137.759C49.5232 137.759 49.7009 137.708 49.8558 137.607C50.0134 137.505 50.1363 137.362 50.2244 137.178C50.3126 136.991 50.3566 136.775 50.3566 136.529Z" fill="#3D4042"/>
<path d="M46.7107 137.927C46.5718 137.927 46.4382 137.909 46.31 137.871C46.1818 137.831 46.0669 137.776 45.9654 137.707V137.222C46.0349 137.401 46.1404 137.537 46.2819 137.631C46.4262 137.722 46.5758 137.767 46.7307 137.767C46.8856 137.767 47.0152 137.716 47.1193 137.615C47.2235 137.511 47.2756 137.382 47.2756 137.23C47.2756 137.129 47.2542 137.042 47.2115 136.97C47.1714 136.898 47.106 136.831 47.0152 136.769C46.9244 136.705 46.7961 136.635 46.6305 136.557C46.3981 136.45 46.2285 136.339 46.1217 136.225C46.0175 136.107 45.9654 135.965 45.9654 135.8C45.9654 135.658 45.9988 135.533 46.0656 135.423C46.135 135.311 46.2272 135.226 46.342 135.167C46.4596 135.105 46.5878 135.075 46.7267 135.075C46.8469 135.075 46.9644 135.092 47.0793 135.127C47.1941 135.159 47.301 135.205 47.3998 135.267V135.7C47.3357 135.553 47.2382 135.439 47.1073 135.359C46.9791 135.276 46.8482 135.235 46.7147 135.235C46.5624 135.235 46.4395 135.284 46.346 135.383C46.2526 135.482 46.2058 135.599 46.2058 135.736C46.2058 135.835 46.2339 135.92 46.2899 135.992C46.346 136.062 46.4142 136.12 46.4943 136.168C46.5771 136.216 46.692 136.275 46.8389 136.345C46.9885 136.417 47.1113 136.484 47.2075 136.545C47.3037 136.606 47.3838 136.687 47.4479 136.785C47.512 136.884 47.5441 137.004 47.5441 137.146C47.5441 137.306 47.5053 137.445 47.4279 137.563C47.3531 137.68 47.2516 137.771 47.1234 137.835C46.9978 137.897 46.8602 137.927 46.7107 137.927Z" fill="#3D4042"/>
<path d="M44.47 136.495C44.5929 136.495 44.6997 136.467 44.7905 136.411C44.8813 136.352 44.9495 136.277 44.9949 136.187C45.0429 136.093 45.067 135.996 45.067 135.894C45.067 135.79 45.0443 135.692 44.9989 135.602C44.9561 135.508 44.8894 135.432 44.7985 135.373C44.7077 135.314 44.5969 135.285 44.466 135.285H44.1254V137.513C44.1254 137.62 44.1388 137.701 44.1655 137.757C44.1922 137.811 44.2216 137.847 44.2536 137.865C44.2857 137.881 44.3017 137.887 44.3017 137.881H43.6646C43.6646 137.887 43.6806 137.88 43.7127 137.861C43.7448 137.843 43.7728 137.807 43.7968 137.753C43.8236 137.7 43.8369 137.62 43.8369 137.513V135.509C43.8369 135.4 43.8236 135.317 43.7968 135.261C43.7728 135.202 43.7448 135.164 43.7127 135.145C43.6806 135.123 43.6646 135.117 43.6646 135.125H44.458C44.6663 135.125 44.8373 135.16 44.9708 135.229C45.1071 135.296 45.2046 135.384 45.2633 135.493C45.3248 135.6 45.3555 135.718 45.3555 135.846C45.3555 135.953 45.3301 136.058 45.2793 136.163C45.2286 136.264 45.1551 136.354 45.059 136.431C44.9655 136.506 44.856 136.558 44.7304 136.587L44.6663 136.599L45.3715 137.497C45.465 137.601 45.5425 137.681 45.6039 137.737C45.6653 137.793 45.7094 137.831 45.7361 137.849C45.7655 137.868 45.7829 137.879 45.7882 137.881H45.3194L44.2296 136.495H44.47Z" fill="#3D4042"/>
<path d="M41.7164 137.881C41.7164 137.889 41.7324 137.884 41.7645 137.865C41.7965 137.844 41.8246 137.804 41.8486 137.745C41.8753 137.684 41.8887 137.596 41.8887 137.481V135.513C41.8887 135.404 41.8753 135.321 41.8486 135.265C41.8246 135.206 41.7965 135.166 41.7645 135.145C41.7324 135.123 41.7164 135.117 41.7164 135.125H43.1668V135.525C43.1188 135.365 42.9745 135.285 42.7341 135.285H42.1772V136.423H42.8663C42.9198 136.423 42.9652 136.415 43.0026 136.399C43.04 136.38 43.068 136.362 43.0867 136.343C43.1054 136.324 43.1161 136.312 43.1188 136.307V136.695C43.1161 136.69 43.1054 136.678 43.0867 136.659C43.068 136.641 43.04 136.623 43.0026 136.607C42.9678 136.591 42.9238 136.583 42.8703 136.583H42.1772V137.721H42.8022C42.9224 137.721 43.0253 137.697 43.1107 137.649C43.1989 137.598 43.2617 137.534 43.2991 137.457L43.2269 137.881H41.7164Z" fill="#3D4042"/>
<path d="M40.6916 137.656C40.4405 137.806 40.1053 137.881 39.6859 137.881H38.8966C38.8966 137.889 38.9126 137.882 38.9447 137.861C38.9767 137.837 39.0048 137.794 39.0288 137.733C39.0555 137.671 39.0689 137.582 39.0689 137.464V135.493C39.0689 135.389 39.0555 135.31 39.0288 135.256C39.0048 135.2 38.9767 135.163 38.9447 135.144C38.9126 135.125 38.8966 135.119 38.8966 135.124H39.6819C40.0906 135.124 40.4138 135.191 40.6516 135.324C40.8626 135.442 41.0255 135.601 41.1404 135.801C41.2552 136.002 41.3127 136.227 41.3127 136.478C41.3127 136.751 41.2579 136.987 41.1484 137.188C41.0415 137.385 40.8893 137.542 40.6916 137.656ZM40.5354 135.505C40.4178 135.427 40.2923 135.371 40.1587 135.337C40.0252 135.302 39.8662 135.284 39.6819 135.284H39.3574V137.721H39.6819C39.901 137.721 40.0799 137.702 40.2188 137.664C40.3604 137.627 40.4819 137.57 40.5834 137.492C40.7143 137.391 40.8145 137.258 40.884 137.095C40.9561 136.93 40.9921 136.738 40.9921 136.518C40.9921 136.286 40.9507 136.083 40.8679 135.909C40.7878 135.733 40.6769 135.598 40.5354 135.505Z" fill="#3D4042"/>
<path d="M38.4401 135.124C38.4027 135.132 38.3653 135.163 38.3279 135.216C38.2932 135.267 38.2758 135.358 38.2758 135.489V137.993L36.2243 135.601V137.52C36.2243 137.648 36.247 137.739 36.2924 137.793C36.3379 137.843 36.3819 137.873 36.4247 137.881H35.8597C35.8971 137.873 35.9345 137.843 35.9719 137.793C36.012 137.739 36.032 137.647 36.032 137.516V135.513C36.032 135.422 36.0013 135.339 35.9398 135.264C35.8784 135.19 35.8009 135.143 35.7075 135.124H36.2043L38.0835 137.316V135.489C38.0835 135.283 38.014 135.162 37.8751 135.124H38.4401Z" fill="#3D4042"/>
<path d="M33.7735 136.811L33.5171 137.448C33.477 137.547 33.457 137.629 33.457 137.693C33.457 137.781 33.497 137.844 33.5772 137.881H33.0042C33.0309 137.881 33.0696 137.854 33.1204 137.801C33.1711 137.748 33.2299 137.642 33.2967 137.484L34.3424 134.996L35.3802 137.496C35.439 137.641 35.4951 137.74 35.5485 137.793C35.6046 137.846 35.6486 137.876 35.6807 137.881H35.0156C35.0824 137.849 35.1157 137.8 35.1157 137.733C35.1157 137.677 35.0944 137.597 35.0516 137.492L34.7712 136.811H33.7735ZM34.7071 136.647L34.2703 135.577L33.8416 136.647H34.7071Z" fill="#3D4042"/>
<path d="M30.4612 137.881C30.4612 137.889 30.4772 137.884 30.5092 137.865C30.5413 137.844 30.5693 137.804 30.5934 137.745C30.6201 137.684 30.6334 137.596 30.6334 137.481V135.513C30.6334 135.404 30.6201 135.321 30.5934 135.265C30.5693 135.206 30.5413 135.166 30.5092 135.145C30.4772 135.123 30.4612 135.117 30.4612 135.125H31.9116V135.525C31.8635 135.365 31.7193 135.285 31.4789 135.285H30.9219V136.423H31.6111C31.6645 136.423 31.7099 136.415 31.7473 136.399C31.7847 136.38 31.8128 136.362 31.8315 136.343C31.8502 136.324 31.8608 136.312 31.8635 136.307V136.695C31.8608 136.69 31.8502 136.678 31.8315 136.659C31.8128 136.641 31.7847 136.623 31.7473 136.607C31.7126 136.591 31.6685 136.583 31.6151 136.583H30.9219V137.721H31.547C31.6672 137.721 31.77 137.697 31.8555 137.649C31.9437 137.598 32.0064 137.534 32.0438 137.457L31.9717 137.881H30.4612Z" fill="#3D4042"/>
<path d="M27.2686 136.533C27.2686 136.25 27.3287 135.997 27.4489 135.776C27.5717 135.554 27.7427 135.382 27.9617 135.259C28.1834 135.136 28.4385 135.075 28.727 135.075C28.9674 135.075 29.1918 135.128 29.4002 135.235C29.6112 135.339 29.7795 135.497 29.905 135.708C30.0332 135.919 30.0973 136.172 30.0973 136.469C30.0973 136.752 30.0359 137.004 29.913 137.226C29.7928 137.448 29.6219 137.62 29.4002 137.743C29.1811 137.866 28.9274 137.927 28.6389 137.927C28.3985 137.927 28.1727 137.875 27.9617 137.771C27.7534 137.664 27.5851 137.505 27.4569 137.294C27.3313 137.083 27.2686 136.83 27.2686 136.533ZM29.7768 136.529C29.7768 136.286 29.726 136.067 29.6245 135.872C29.5257 135.674 29.3881 135.521 29.2118 135.411C29.0382 135.299 28.8419 135.243 28.6228 135.243C28.4225 135.243 28.2435 135.294 28.0859 135.395C27.931 135.497 27.8095 135.641 27.7213 135.828C27.6332 136.012 27.5891 136.227 27.5891 136.473C27.5891 136.716 27.6385 136.936 27.7373 137.134C27.8389 137.329 27.9764 137.483 28.15 137.595C28.3263 137.704 28.524 137.759 28.743 137.759C28.9434 137.759 29.121 137.708 29.2759 137.607C29.4335 137.505 29.5564 137.362 29.6446 137.178C29.7327 136.991 29.7768 136.775 29.7768 136.529Z" fill="#3D4042"/>
<path d="M25.725 135.497C25.725 135.39 25.7116 135.31 25.6849 135.256C25.6609 135.2 25.6328 135.163 25.6008 135.144C25.5687 135.125 25.5527 135.119 25.5527 135.124H26.1898C26.1898 135.119 26.1737 135.125 26.1417 135.144C26.1096 135.163 26.0802 135.2 26.0535 135.256C26.0268 135.31 26.0135 135.39 26.0135 135.497V137.721H26.6706C26.7908 137.721 26.8936 137.696 26.9791 137.648C27.0672 137.598 27.13 137.534 27.1674 137.456L27.0953 137.881H25.5527C25.5527 137.889 25.5687 137.883 25.6008 137.865C25.6328 137.843 25.6609 137.803 25.6849 137.745C25.7116 137.683 25.725 137.595 25.725 137.48V135.497Z" fill="#3D4042"/>
<path d="M24.4694 137.881C24.4694 137.889 24.4854 137.884 24.5175 137.865C24.5495 137.844 24.5789 137.807 24.6056 137.753C24.6323 137.697 24.6457 137.616 24.6457 137.509V136.599H23.1392V137.509C23.1392 137.616 23.1525 137.697 23.1792 137.753C23.2059 137.807 23.2353 137.843 23.2674 137.861C23.2994 137.88 23.3154 137.887 23.3154 137.881H22.6784C22.6784 137.889 22.6944 137.884 22.7265 137.865C22.7585 137.844 22.7866 137.807 22.8106 137.753C22.8373 137.697 22.8507 137.616 22.8507 137.509V135.497C22.8507 135.391 22.8373 135.31 22.8106 135.257C22.7866 135.201 22.7585 135.164 22.7265 135.145C22.6944 135.126 22.6784 135.119 22.6784 135.125H23.3154C23.3154 135.119 23.2994 135.126 23.2674 135.145C23.2353 135.164 23.2059 135.201 23.1792 135.257C23.1525 135.31 23.1392 135.391 23.1392 135.497V136.423H24.6457V135.497C24.6457 135.391 24.6323 135.31 24.6056 135.257C24.5789 135.201 24.5495 135.164 24.5175 135.145C24.4854 135.126 24.4694 135.119 24.4694 135.125H25.1065C25.1065 135.117 25.0904 135.123 25.0584 135.145C25.0263 135.164 24.997 135.201 24.9702 135.257C24.9462 135.31 24.9342 135.391 24.9342 135.497V137.509C24.9342 137.616 24.9475 137.697 24.9742 137.753C25.001 137.807 25.0303 137.843 25.0624 137.861C25.0945 137.88 25.1105 137.887 25.1105 137.881H24.4694Z" fill="#3D4042"/>
<path d="M22.2291 137.635C22.1276 137.718 21.9954 137.787 21.8325 137.843C21.6695 137.899 21.5052 137.927 21.3396 137.927C21.0912 137.927 20.8601 137.87 20.6465 137.755C20.4328 137.64 20.2605 137.475 20.1296 137.258C20.0014 137.042 19.9373 136.788 19.9373 136.497C19.9373 136.225 19.996 135.98 20.1136 135.764C20.2338 135.547 20.4034 135.379 20.6224 135.259C20.8441 135.136 21.1019 135.075 21.3957 135.075C21.7082 135.075 21.986 135.143 22.2291 135.279V135.724C22.1463 135.577 22.0261 135.461 21.8685 135.375C21.7109 135.287 21.5426 135.243 21.3637 135.243C21.1366 135.243 20.9389 135.296 20.7707 135.403C20.6051 135.51 20.4782 135.657 20.39 135.844C20.3019 136.028 20.2578 136.235 20.2578 136.465C20.2578 136.724 20.3072 136.95 20.4061 137.142C20.5076 137.334 20.6438 137.483 20.8147 137.587C20.9857 137.688 21.1767 137.739 21.3877 137.739C21.7269 137.739 22.0074 137.64 22.2291 137.443V137.635Z" fill="#3D4042"/>
</g>
<g opacity="0.6" filter="url(#filter4_d_1150_6576)">
<rect x="95.6253" y="-17.6931" width="72.625" height="102.813" rx="1.75" fill="white"/>
<path d="M95.6249 -15.9382C95.6249 -16.9047 96.4084 -17.6882 97.3749 -17.6882H98.6874V85.1244H97.3749C96.4084 85.1244 95.6249 84.3409 95.6249 83.3744V-15.9382Z" fill="#4177D9"/>
<g opacity="0.64">
<rect x="103.5" y="1.99835" width="12.6875" height="0.875001" rx="0.4375" fill="#D9D9D9"/>
<rect x="122.75" y="1.99835" width="6.125" height="0.875001" rx="0.4375" fill="#D9D9D9"/>
<rect x="122.749" y="6.80988" width="11.375" height="0.875001" rx="0.4375" fill="#D9D9D9"/>
<rect x="122.749" y="44.8704" width="11.375" height="0.875001" rx="0.4375" fill="#D9D9D9"/>
<rect x="122.75" y="49.2493" width="11.375" height="0.875001" rx="0.4375" fill="#D9D9D9"/>
<rect x="122.75" y="8.9964" width="36.75" height="0.875001" rx="0.4375" fill="#D9D9D9"/>
<rect x="122.749" y="13.3754" width="31.5" height="0.875001" rx="0.4375" fill="#D9D9D9"/>
<rect x="122.749" y="16.8704" width="31.5" height="0.875001" rx="0.4375" fill="#D9D9D9"/>
<rect x="122.75" y="21.2484" width="31.5" height="0.875001" rx="0.4375" fill="#D9D9D9"/>
<rect x="122.749" y="25.6214" width="31.5" height="0.875001" rx="0.4375" fill="#D9D9D9"/>
<rect x="122.749" y="29.9984" width="31.5" height="0.875001" rx="0.4375" fill="#D9D9D9"/>
<rect x="122.749" y="34.3721" width="31.5" height="0.875001" rx="0.4375" fill="#D9D9D9"/>
<rect x="122.749" y="40.5003" width="31.5" height="0.875001" rx="0.4375" fill="#D9D9D9"/>
<rect x="122.749" y="19.0587" width="39.8125" height="0.875001" rx="0.4375" fill="#D9D9D9"/>
<rect x="122.749" y="11.1849" width="39.8125" height="0.875001" rx="0.4375" fill="#D9D9D9"/>
<rect x="122.75" y="27.8091" width="39.8125" height="0.875001" rx="0.4375" fill="#D9D9D9"/>
<rect x="122.749" y="32.1859" width="39.8125" height="0.875001" rx="0.4375" fill="#D9D9D9"/>
<rect x="122.749" y="23.438" width="39.8125" height="0.875001" rx="0.4375" fill="#D9D9D9"/>
<rect x="122.75" y="36.5589" width="39.8125" height="0.875001" rx="0.4375" fill="#D9D9D9"/>
<rect x="122.749" y="42.6878" width="39.8125" height="0.875001" rx="0.4375" fill="#D9D9D9"/>
<rect x="103.5" y="4.18793" width="7.4375" height="0.875001" rx="0.4375" fill="#DDDDDD"/>
<rect x="103.5" y="6.80988" width="12.6875" height="0.875001" rx="0.4375" fill="#D9D9D9"/>
<rect x="103.5" y="8.9964" width="7.4375" height="0.875001" rx="0.4375" fill="#DDDDDD"/>
<rect x="103.5" y="13.3754" width="12.6875" height="0.875001" rx="0.4375" fill="#D9D9D9"/>
<rect x="103.5" y="15.56" width="10.9375" height="0.875001" rx="0.4375" fill="#D9D9D9"/>
<rect x="122.749" y="51.4377" width="10.9375" height="0.875001" rx="0.4375" fill="#D9D9D9"/>
<rect x="103.5" y="17.7464" width="12.6875" height="0.875001" rx="0.4375" fill="#D9D9D9"/>
<rect x="122.749" y="53.6205" width="12.6875" height="0.875001" rx="0.4375" fill="#D9D9D9"/>
<rect x="103.5" y="19.9348" width="10.9375" height="0.875001" rx="0.4375" fill="#D9D9D9"/>
<rect x="122.749" y="55.8087" width="10.9375" height="0.875001" rx="0.4375" fill="#D9D9D9"/>
<rect x="119.25" y="1.55988" width="0.4375" height="77.8751" rx="0.21875" fill="#D9D9D9"/>
</g>
</g>
</g>
<g filter="url(#filter5_d_1150_6576)">
<rect x="12.4996" y="16.002" width="72.625" height="102.813" rx="1.75" fill="white"/>
<path d="M12.4996 17.752C12.4996 16.7855 13.2831 16.002 14.2496 16.002H83.3746C84.3411 16.002 85.1246 16.7855 85.1246 17.752V37.4395H12.4996V17.752Z" fill="#F3E4DD"/>
<g opacity="0.5">
<rect x="17.7502" y="41.8184" width="6.125" height="0.875001" rx="0.4375" fill="#D9D9D9"/>
<rect x="64.5622" y="111.379" width="15.3125" height="0.875001" rx="0.4375" fill="#DDDDDD"/>
<rect x="17.7501" y="55.8153" width="9.1875" height="0.875001" rx="0.4375" fill="#D9D9D9"/>
<rect x="17.7502" y="62.3779" width="62.125" height="0.875001" rx="0.4375" fill="#D9D9D9"/>
<rect x="17.7499" y="72.001" width="62.125" height="0.875001" rx="0.4375" fill="#D9D9D9"/>
<rect x="17.7502" y="78.5684" width="56.875" height="0.875001" rx="0.4375" fill="#D9D9D9"/>
<rect x="17.7497" y="87.3174" width="56.875" height="0.875001" rx="0.4375" fill="#D9D9D9"/>
<rect x="17.7499" y="64.5635" width="56.875" height="0.875001" rx="0.4375" fill="#D9D9D9"/>
<rect x="17.7499" y="58.0088" width="62.125" height="0.875001" rx="0.4375" fill="#D9D9D9"/>
<rect x="17.7501" y="74.1903" width="56.875" height="0.875001" rx="0.4375" fill="#D9D9D9"/>
<rect x="17.7499" y="76.3838" width="62.125" height="0.875001" rx="0.4375" fill="#D9D9D9"/>
<rect x="17.7502" y="80.7529" width="62.125" height="0.875001" rx="0.4375" fill="#D9D9D9"/>
<rect x="17.7499" y="66.7539" width="62.125" height="0.875001" rx="0.4375" fill="#D9D9D9"/>
<rect x="17.7499" y="82.9385" width="56.875" height="0.875001" rx="0.4375" fill="#D9D9D9"/>
<rect x="17.7499" y="85.1289" width="62.125" height="0.875001" rx="0.4375" fill="#D9D9D9"/>
<rect x="17.7501" y="89.5067" width="62.125" height="0.875001" rx="0.4375" fill="#D9D9D9"/>
<rect x="17.7502" y="60.1934" width="56.875" height="0.875001" rx="0.4375" fill="#D9D9D9"/>
<rect x="17.7502" y="91.6924" width="56.875" height="0.875001" rx="0.4375" fill="#D9D9D9"/>
<rect x="17.7502" y="44.0029" width="11.375" height="0.875001" rx="0.4375" fill="#DDDDDD"/>
<rect x="39.6248" y="32.1924" width="15.3125" height="0.875001" rx="0.4375" fill="#DBCDC6"/>
<rect x="39.6249" y="30.0039" width="11.375" height="0.875001" rx="0.4375" fill="#DBCDC6"/>
<rect x="17.7499" y="48.3789" width="11.375" height="0.875001" rx="0.4375" fill="#D9D9D9"/>
<rect x="61.0624" y="109.191" width="18.8125" height="0.875001" rx="0.4375" fill="#D9D9D9"/>
<rect x="17.7499" y="46.1885" width="14" height="0.875001" rx="0.4375" fill="#D9D9D9"/>
<rect x="61.4998" y="30.0039" width="14" height="0.875001" rx="0.4375" fill="#DBCDC6"/>
<rect x="61.4999" y="32.1924" width="10.0625" height="0.875001" rx="0.4375" fill="#DBCDC6"/>
</g>
<path opacity="0.75" d="M18.4635 23.4228C18.3701 23.4228 18.2799 23.4119 18.1931 23.3902C18.1062 23.3684 18.0247 23.3337 17.9487 23.2859C17.9357 23.275 17.9226 23.2631 17.9096 23.2501C17.8966 23.237 17.8868 23.2229 17.8803 23.2077C17.8586 23.1491 17.8433 23.0774 17.8347 22.9927C17.8281 22.908 17.826 22.8222 17.8281 22.7353C17.8281 22.7201 17.8347 22.7092 17.8477 22.7027C17.8607 22.6962 17.8759 22.6929 17.8933 22.6929C17.915 22.6929 17.9291 22.6962 17.9357 22.7027C17.9443 22.707 17.953 22.7168 17.9617 22.732C18.0095 22.8949 18.0801 23.0263 18.1735 23.1263C18.2691 23.2262 18.3799 23.2761 18.5058 23.2761C18.5753 23.2761 18.6318 23.2609 18.6753 23.2305C18.7209 23.1979 18.7556 23.1578 18.7795 23.11C18.8034 23.06 18.8154 23.0101 18.8154 22.9601C18.8154 22.8906 18.8012 22.8319 18.773 22.7842C18.7469 22.7364 18.7068 22.6929 18.6525 22.6538C18.5981 22.6147 18.5286 22.5724 18.4439 22.5268C18.3527 22.4746 18.2647 22.4203 18.18 22.3639C18.0953 22.3052 18.0258 22.2346 17.9715 22.1521C17.9172 22.0695 17.89 21.9664 17.89 21.8426C17.89 21.7144 17.9226 21.6036 17.9878 21.5102C18.0551 21.4168 18.1464 21.3441 18.2615 21.2919C18.3766 21.2398 18.5058 21.2137 18.6492 21.2137C18.7317 21.2137 18.8099 21.2224 18.8838 21.2398C18.9598 21.2572 19.0206 21.2745 19.0662 21.2919C19.0923 21.3028 19.1108 21.3147 19.1216 21.3278C19.1347 21.3408 19.1455 21.3636 19.1542 21.3962C19.1651 21.4418 19.1738 21.4972 19.1803 21.5624C19.189 21.6275 19.1933 21.6992 19.1933 21.7774C19.1933 21.8056 19.1738 21.8197 19.1347 21.8197C19.1151 21.8197 19.0966 21.8154 19.0793 21.8067C19.0641 21.7959 19.0543 21.7828 19.0499 21.7676C19.013 21.6373 18.9587 21.5385 18.887 21.4711C18.8154 21.4038 18.7274 21.3701 18.6231 21.3701C18.558 21.3701 18.5026 21.381 18.457 21.4027C18.4113 21.4244 18.3766 21.457 18.3527 21.5004C18.331 21.5439 18.3201 21.5982 18.3201 21.6634C18.3201 21.7155 18.3375 21.7644 18.3723 21.81C18.4092 21.8534 18.4613 21.8979 18.5286 21.9436C18.596 21.9892 18.6731 22.038 18.76 22.0902C18.8773 22.1597 18.9707 22.2281 19.0402 22.2954C19.1097 22.3628 19.1596 22.4344 19.19 22.5105C19.2226 22.5843 19.2389 22.6701 19.2389 22.7679C19.2389 22.9156 19.2063 23.0383 19.1412 23.136C19.0782 23.2338 18.988 23.3065 18.8707 23.3543C18.7556 23.3999 18.6199 23.4228 18.4635 23.4228ZM19.7362 23.3934C19.7123 23.3934 19.6917 23.3891 19.6743 23.3804C19.6591 23.3739 19.6515 23.3608 19.6515 23.3413C19.6515 23.3196 19.658 23.3044 19.671 23.2957C19.6863 23.2848 19.7058 23.2761 19.7297 23.2696C19.7927 23.2522 19.847 23.2251 19.8926 23.1882C19.9404 23.1512 19.9762 23.1056 20.0001 23.0513C20.0544 22.9297 20.1055 22.8102 20.1533 22.6929C20.201 22.5735 20.2477 22.4562 20.2934 22.341C20.339 22.2238 20.3846 22.1054 20.4302 21.9859C20.4758 21.8643 20.5214 21.7415 20.567 21.6177C20.5996 21.5287 20.6203 21.4646 20.6289 21.4255C20.6376 21.3842 20.6441 21.3603 20.6485 21.3538C20.6876 21.343 20.7245 21.3332 20.7593 21.3245C20.794 21.3158 20.8309 21.3039 20.87 21.2887C20.9091 21.2735 20.9417 21.2539 20.9678 21.23C20.996 21.2061 21.0167 21.1877 21.0297 21.1746C21.0384 21.1681 21.0471 21.1649 21.0558 21.1649C21.0644 21.1627 21.0731 21.1692 21.0818 21.1844C21.0883 21.1974 21.0938 21.2116 21.0981 21.2268C21.1046 21.2398 21.1101 21.255 21.1144 21.2724C21.16 21.4179 21.2067 21.5667 21.2545 21.7187C21.3023 21.8686 21.3501 22.0185 21.3979 22.1684C21.4478 22.3182 21.4967 22.467 21.5445 22.6147C21.5923 22.7603 21.639 22.9025 21.6846 23.0415C21.6976 23.085 21.7172 23.1219 21.7432 23.1523C21.7715 23.1827 21.803 23.2066 21.8377 23.224C21.8725 23.2414 21.9116 23.2566 21.955 23.2696C21.9789 23.2761 21.9974 23.2848 22.0104 23.2957C22.0256 23.3044 22.0332 23.3185 22.0332 23.338C22.0332 23.3532 22.0267 23.3652 22.0137 23.3739C22.0006 23.3826 21.9854 23.3869 21.968 23.3869C21.9246 23.3869 21.8703 23.3847 21.8051 23.3804C21.7421 23.3782 21.6781 23.3761 21.6129 23.3739C21.5477 23.3717 21.4902 23.3706 21.4402 23.3706C21.3989 23.3706 21.3479 23.3717 21.2871 23.3739C21.2284 23.3761 21.1687 23.3782 21.1079 23.3804C21.0471 23.3826 20.9949 23.3837 20.9515 23.3837C20.9319 23.3837 20.9146 23.3804 20.8994 23.3739C20.8863 23.3652 20.8798 23.3532 20.8798 23.338C20.8798 23.3185 20.8874 23.3033 20.9026 23.2924C20.9178 23.2816 20.9363 23.274 20.958 23.2696C21.0384 23.2522 21.097 23.2294 21.134 23.2012C21.1709 23.173 21.1828 23.1306 21.1698 23.0741C21.1611 23.0329 21.1502 22.9894 21.1372 22.9438C21.1242 22.8982 21.1111 22.8526 21.0981 22.807C21.0873 22.7592 21.0753 22.7136 21.0623 22.6701C21.0579 22.6527 21.0525 22.6397 21.046 22.631C21.0395 22.6223 21.0264 22.618 21.0069 22.618H20.4302C20.415 22.618 20.403 22.6223 20.3944 22.631C20.3857 22.6397 20.3791 22.6538 20.3748 22.6734C20.3661 22.7038 20.3563 22.7342 20.3455 22.7646C20.3346 22.795 20.3238 22.8254 20.3129 22.8558C20.3042 22.8862 20.2955 22.9167 20.2868 22.9471C20.2781 22.9775 20.2695 23.0068 20.2608 23.035C20.2456 23.1002 20.2521 23.1502 20.2803 23.1849C20.3086 23.2197 20.3694 23.2479 20.4628 23.2696C20.5149 23.2805 20.541 23.3033 20.541 23.338C20.541 23.3532 20.5345 23.3652 20.5214 23.3739C20.5106 23.3804 20.4921 23.3837 20.466 23.3837C20.403 23.3837 20.3444 23.3815 20.2901 23.3771C20.2358 23.375 20.1761 23.3739 20.1109 23.3739C20.0457 23.3739 19.9838 23.3771 19.9252 23.3837C19.8665 23.3902 19.8035 23.3934 19.7362 23.3934ZM20.5214 22.442H20.945C20.9776 22.442 20.9939 22.4344 20.9939 22.4192C20.9939 22.4127 20.9928 22.4073 20.9906 22.403C20.9906 22.3986 20.9895 22.3932 20.9873 22.3867L20.769 21.6503C20.7625 21.6264 20.756 21.6145 20.7495 21.6145C20.7451 21.6145 20.7375 21.6264 20.7267 21.6503L20.4693 22.3867C20.4649 22.3953 20.4628 22.404 20.4628 22.4127C20.4628 22.4236 20.4682 22.4312 20.4791 22.4355C20.4921 22.4399 20.5062 22.442 20.5214 22.442ZM24.4883 23.439C24.46 23.439 24.4144 23.4217 24.3514 23.3869C24.2884 23.3543 24.2233 23.2957 24.1559 23.211C24.1038 23.1567 24.0495 23.098 23.993 23.035C23.9366 22.972 23.8768 22.9069 23.8138 22.8395C23.7509 22.7722 23.6868 22.7038 23.6216 22.6343C23.5586 22.5648 23.4956 22.4964 23.4326 22.429C23.3696 22.3595 23.3067 22.2911 23.2437 22.2238C23.1807 22.1564 23.1209 22.0913 23.0645 22.0283C23.008 21.9653 22.9537 21.9066 22.9016 21.8523C22.8972 21.8436 22.8896 21.836 22.8788 21.8295C22.8701 21.8208 22.8636 21.8165 22.8592 21.8165C22.8505 21.8165 22.844 21.8241 22.8397 21.8393C22.8375 21.8545 22.8364 21.8675 22.8364 21.8784C22.8342 21.9783 22.8342 22.0956 22.8364 22.2303C22.8386 22.3649 22.8407 22.5018 22.8429 22.6408C22.8473 22.7776 22.8494 22.9025 22.8494 23.0155C22.8494 23.085 22.8712 23.1404 22.9146 23.1816C22.958 23.2207 23.0221 23.2512 23.1068 23.2729C23.1307 23.2772 23.1514 23.2848 23.1687 23.2957C23.1883 23.3044 23.1981 23.3185 23.1981 23.338C23.1981 23.3532 23.1894 23.3652 23.172 23.3739C23.1546 23.3826 23.1361 23.3869 23.1166 23.3869C23.058 23.3869 23.0102 23.3847 22.9732 23.3804C22.9363 23.3782 22.9016 23.3771 22.869 23.3771C22.8386 23.375 22.8006 23.3739 22.7549 23.3739C22.7072 23.3739 22.6615 23.375 22.6181 23.3771C22.5768 23.3793 22.541 23.3815 22.5106 23.3837C22.4823 23.3858 22.4628 23.3869 22.4519 23.3869C22.4367 23.3869 22.4194 23.3837 22.3998 23.3771C22.3824 23.3684 22.3737 23.3565 22.3737 23.3413C22.3737 23.3217 22.3824 23.3076 22.3998 23.2989C22.4172 23.2903 22.4367 23.2816 22.4585 23.2729C22.5106 23.2533 22.5497 23.2207 22.5757 23.1751C22.604 23.1295 22.6203 23.073 22.6246 23.0057C22.6333 22.9253 22.642 22.8189 22.6507 22.6864C22.6615 22.5539 22.6713 22.4051 22.68 22.24C22.6887 22.0728 22.693 21.9001 22.693 21.722C22.693 21.6091 22.6637 21.5276 22.6051 21.4776C22.5486 21.4277 22.4791 21.3875 22.3966 21.3571C22.3792 21.3527 22.3596 21.3451 22.3379 21.3343C22.3162 21.3212 22.3053 21.305 22.3053 21.2854C22.3053 21.2659 22.314 21.2528 22.3314 21.2463C22.3488 21.2376 22.3683 21.2333 22.39 21.2333C22.4291 21.2333 22.4726 21.2344 22.5204 21.2365C22.5703 21.2387 22.6224 21.2409 22.6768 21.2431C22.7311 21.2431 22.7875 21.2441 22.8462 21.2463C22.9048 21.2485 22.9635 21.2496 23.0221 21.2496C23.0395 21.2496 23.0525 21.2528 23.0612 21.2593C23.0721 21.2659 23.0818 21.2745 23.0905 21.2854C23.1383 21.3397 23.1894 21.3984 23.2437 21.4613C23.3001 21.5243 23.3588 21.5906 23.4196 21.6601C23.4804 21.7274 23.5423 21.7969 23.6053 21.8686C23.6683 21.9381 23.7302 22.0087 23.791 22.0804C23.854 22.1521 23.9148 22.2216 23.9735 22.2889C24.0343 22.3563 24.093 22.4214 24.1494 22.4844C24.2059 22.5474 24.258 22.606 24.3058 22.6603C24.3123 22.669 24.3199 22.6788 24.3286 22.6897C24.3395 22.6984 24.3493 22.7027 24.358 22.7027C24.3753 22.7027 24.384 22.6864 24.384 22.6538C24.384 22.5865 24.384 22.5083 24.384 22.4192C24.3862 22.3302 24.3873 22.2357 24.3873 22.1358C24.3873 22.0359 24.3862 21.937 24.384 21.8393C24.384 21.7415 24.3818 21.6514 24.3775 21.5689C24.3753 21.5102 24.3525 21.4668 24.3091 21.4385C24.2678 21.4081 24.2103 21.3832 24.1364 21.3636C24.1125 21.3593 24.0919 21.3517 24.0745 21.3408C24.0571 21.3299 24.0484 21.3147 24.0484 21.2952C24.0484 21.28 24.0571 21.2691 24.0745 21.2626C24.0919 21.2539 24.1103 21.2496 24.1299 21.2496C24.1798 21.2496 24.2222 21.2507 24.257 21.2528C24.2917 21.2528 24.3232 21.2528 24.3514 21.2528C24.3797 21.2528 24.4112 21.2528 24.4459 21.2528C24.4894 21.2528 24.5263 21.2528 24.5567 21.2528C24.5871 21.2507 24.6197 21.2485 24.6544 21.2463C24.6914 21.2441 24.7381 21.2431 24.7945 21.2431C24.8206 21.2431 24.8402 21.2474 24.8532 21.2561C24.8684 21.2648 24.876 21.2767 24.876 21.2919C24.876 21.3245 24.8478 21.3462 24.7913 21.3571C24.7153 21.3723 24.661 21.394 24.6284 21.4223C24.5958 21.4505 24.5784 21.4961 24.5762 21.5591C24.5762 21.6373 24.5752 21.7209 24.573 21.81C24.573 21.899 24.5708 21.9903 24.5665 22.0837C24.5621 22.1771 24.5578 22.2705 24.5534 22.3639C24.5513 22.4551 24.5491 22.5431 24.5469 22.6278C24.5448 22.7125 24.5437 22.7907 24.5437 22.8623C24.5437 22.9123 24.5469 22.9677 24.5534 23.0285C24.56 23.0872 24.5654 23.1415 24.5697 23.1914C24.5762 23.2392 24.5795 23.2729 24.5795 23.2924C24.5795 23.3467 24.5708 23.3847 24.5534 23.4065C24.5382 23.4282 24.5165 23.439 24.4883 23.439ZM26.4565 23.3999C26.3826 23.3999 26.3012 23.3978 26.2121 23.3934C26.1252 23.3891 26.0438 23.3847 25.9677 23.3804C25.8917 23.3782 25.8342 23.3771 25.7951 23.3771C25.7516 23.3771 25.7038 23.3771 25.6517 23.3771C25.5996 23.3793 25.5453 23.3815 25.4888 23.3837C25.4345 23.3858 25.3824 23.3869 25.3324 23.3869C25.3172 23.3869 25.3031 23.3837 25.2901 23.3771C25.277 23.3684 25.2705 23.3565 25.2705 23.3413C25.2705 23.3217 25.2759 23.3065 25.2868 23.2957C25.2998 23.2848 25.3172 23.2772 25.3389 23.2729C25.4215 23.2555 25.4779 23.2338 25.5083 23.2077C25.5388 23.1795 25.554 23.1306 25.554 23.0611V21.5819C25.554 21.5124 25.5398 21.4635 25.5116 21.4353C25.4834 21.4049 25.4258 21.3799 25.3389 21.3603C25.3172 21.356 25.2998 21.3484 25.2868 21.3375C25.2759 21.3267 25.2705 21.3115 25.2705 21.2919C25.2705 21.2767 25.277 21.2648 25.2901 21.2561C25.3031 21.2474 25.3172 21.2431 25.3324 21.2431C25.3824 21.2431 25.4345 21.2441 25.4888 21.2463C25.5453 21.2485 25.5996 21.2517 25.6517 21.2561C25.706 21.2583 25.7549 21.2593 25.7983 21.2593C25.8331 21.2593 25.8787 21.2583 25.9352 21.2561C25.9916 21.2517 26.0525 21.2485 26.1176 21.2463C26.185 21.242 26.249 21.2387 26.3099 21.2365C26.3728 21.2322 26.4239 21.23 26.463 21.23C26.6281 21.23 26.7801 21.2561 26.9191 21.3082C27.0603 21.3582 27.183 21.4309 27.2873 21.5265C27.3937 21.6199 27.4763 21.7307 27.5349 21.8588C27.5936 21.987 27.6229 22.1282 27.6229 22.2824C27.6229 22.4279 27.5968 22.568 27.5447 22.7027C27.4926 22.8352 27.4165 22.9547 27.3166 23.0611C27.2167 23.1654 27.0951 23.2479 26.9517 23.3087C26.8083 23.3695 26.6433 23.3999 26.4565 23.3999ZM26.4076 23.2338C26.5553 23.2338 26.6791 23.1979 26.779 23.1263C26.8789 23.0524 26.9528 22.9514 27.0006 22.8233C27.0505 22.6929 27.0755 22.542 27.0755 22.3704C27.0755 22.2248 27.0592 22.0934 27.0266 21.9761C26.9962 21.8567 26.9506 21.7546 26.8898 21.6699C26.8312 21.5852 26.7573 21.52 26.6682 21.4744C26.5814 21.4266 26.4825 21.4027 26.3718 21.4027C26.3022 21.4027 26.2436 21.4049 26.1958 21.4092C26.1502 21.4136 26.1154 21.4244 26.0916 21.4418C26.0677 21.4592 26.0557 21.4874 26.0557 21.5265V22.9471C26.0557 23.0187 26.0687 23.0752 26.0948 23.1165C26.1231 23.1578 26.1632 23.1882 26.2154 23.2077C26.2697 23.2251 26.3337 23.2338 26.4076 23.2338ZM30.1125 23.4456C30.0017 23.4456 29.9083 23.4314 29.8323 23.4032C29.7563 23.3771 29.6911 23.3424 29.6368 23.2989C29.5847 23.2533 29.538 23.2023 29.4967 23.1458C29.4489 23.0828 29.4022 23.0198 29.3566 22.9568C29.3131 22.8938 29.2697 22.8254 29.2263 22.7516C29.1828 22.6777 29.1372 22.593 29.0894 22.4974C29.0677 22.4497 29.0384 22.416 29.0015 22.3964C28.9819 22.3834 28.9624 22.3747 28.9428 22.3704C28.9233 22.366 28.9059 22.3639 28.8907 22.3639C28.8798 22.3639 28.8711 22.3704 28.8646 22.3834C28.8581 22.3943 28.8548 22.4095 28.8548 22.429V23.0513C28.8548 23.1187 28.8733 23.1675 28.9102 23.1979C28.9471 23.2283 29.0112 23.2533 29.1025 23.2729C29.1263 23.2772 29.1437 23.2848 29.1546 23.2957C29.1676 23.3044 29.1741 23.3185 29.1741 23.338C29.1741 23.3532 29.1687 23.3652 29.1578 23.3739C29.147 23.3826 29.1318 23.3869 29.1122 23.3869C29.0644 23.3869 29.0091 23.3847 28.9461 23.3804C28.8852 23.3782 28.8244 23.3761 28.7636 23.3739C28.7028 23.3717 28.6507 23.3706 28.6072 23.3706C28.5616 23.3706 28.5116 23.3717 28.4573 23.3739C28.403 23.3761 28.3466 23.3782 28.2879 23.3804C28.2314 23.3847 28.1793 23.3869 28.1315 23.3869C28.1142 23.3869 28.0989 23.3837 28.0859 23.3771C28.0729 23.3684 28.0664 23.3565 28.0664 23.3413C28.0664 23.3065 28.0892 23.2837 28.1348 23.2729C28.2173 23.2555 28.2738 23.2338 28.3042 23.2077C28.3368 23.1795 28.3531 23.1295 28.3531 23.0578V21.5949C28.3531 21.5428 28.3477 21.5015 28.3368 21.4711C28.3281 21.4407 28.3096 21.4179 28.2814 21.4027C28.2532 21.3853 28.2119 21.3712 28.1576 21.3603C28.1294 21.3538 28.1098 21.3451 28.0989 21.3343C28.0881 21.3212 28.0827 21.3071 28.0827 21.2919C28.0827 21.2789 28.0892 21.268 28.1022 21.2593C28.1152 21.2485 28.1326 21.2431 28.1543 21.2431C28.2238 21.2431 28.2803 21.2452 28.3238 21.2496C28.3694 21.2539 28.4117 21.2583 28.4508 21.2626C28.4921 21.2648 28.5399 21.2659 28.5942 21.2659C28.6441 21.2659 28.6876 21.2637 28.7245 21.2593C28.7636 21.2528 28.807 21.2474 28.8548 21.2431C28.9048 21.2387 28.9678 21.2365 29.0438 21.2365C29.2979 21.2365 29.4934 21.28 29.6303 21.3669C29.7671 21.4537 29.8355 21.5852 29.8355 21.7611C29.8355 21.8588 29.8138 21.9414 29.7704 22.0087C29.7291 22.0739 29.6759 22.1282 29.6107 22.1716C29.5477 22.2129 29.4837 22.2444 29.4185 22.2661C29.4098 22.2683 29.4055 22.2737 29.4055 22.2824C29.4076 22.2889 29.4109 22.2965 29.4152 22.3052C29.4804 22.4008 29.5434 22.4942 29.6042 22.5854C29.6672 22.6745 29.7313 22.7581 29.7964 22.8363C29.8616 22.9123 29.9289 22.9829 29.9984 23.0481C30.0723 23.1176 30.1472 23.1588 30.2233 23.1719C30.3015 23.1827 30.3786 23.1882 30.4546 23.1882C30.4872 23.1882 30.5035 23.2077 30.5035 23.2468C30.5035 23.2946 30.4861 23.3337 30.4513 23.3641C30.4187 23.3923 30.3731 23.413 30.3145 23.426C30.2558 23.439 30.1885 23.4456 30.1125 23.4456ZM28.9786 22.2596C29.0612 22.2596 29.1296 22.2411 29.1839 22.2042C29.2382 22.1673 29.2795 22.1173 29.3077 22.0543C29.336 21.9892 29.3501 21.9153 29.3501 21.8328C29.3501 21.7329 29.337 21.6492 29.311 21.5819C29.2849 21.5146 29.2458 21.4646 29.1937 21.432C29.1416 21.3973 29.0742 21.3799 28.9917 21.3799C28.9439 21.3799 28.9091 21.3994 28.8874 21.4385C28.8679 21.4755 28.8581 21.5558 28.8581 21.6796C28.8559 21.7296 28.8548 21.7926 28.8548 21.8686C28.8548 21.9446 28.8548 22.0348 28.8548 22.139C28.8548 22.1825 28.8657 22.214 28.8874 22.2335C28.9113 22.2509 28.9417 22.2596 28.9786 22.2596ZM30.885 23.3934C30.8611 23.3934 30.8404 23.3891 30.823 23.3804C30.8078 23.3739 30.8002 23.3608 30.8002 23.3413C30.8002 23.3196 30.8068 23.3044 30.8198 23.2957C30.835 23.2848 30.8545 23.2761 30.8784 23.2696C30.9414 23.2522 30.9957 23.2251 31.0413 23.1882C31.0891 23.1512 31.125 23.1056 31.1489 23.0513C31.2032 22.9297 31.2542 22.8102 31.302 22.6929C31.3498 22.5735 31.3965 22.4562 31.4421 22.341C31.4877 22.2238 31.5333 22.1054 31.5789 21.9859C31.6246 21.8643 31.6702 21.7415 31.7158 21.6177C31.7484 21.5287 31.769 21.4646 31.7777 21.4255C31.7864 21.3842 31.7929 21.3603 31.7972 21.3538C31.8363 21.343 31.8733 21.3332 31.908 21.3245C31.9428 21.3158 31.9797 21.3039 32.0188 21.2887C32.0579 21.2735 32.0905 21.2539 32.1165 21.23C32.1448 21.2061 32.1654 21.1877 32.1784 21.1746C32.1871 21.1681 32.1958 21.1649 32.2045 21.1649C32.2132 21.1627 32.2219 21.1692 32.2306 21.1844C32.2371 21.1974 32.2425 21.2116 32.2469 21.2268C32.2534 21.2398 32.2588 21.255 32.2631 21.2724C32.3088 21.4179 32.3555 21.5667 32.4032 21.7187C32.451 21.8686 32.4988 22.0185 32.5466 22.1684C32.5966 22.3182 32.6454 22.467 32.6932 22.6147C32.741 22.7603 32.7877 22.9025 32.8333 23.0415C32.8464 23.085 32.8659 23.1219 32.892 23.1523C32.9202 23.1827 32.9517 23.2066 32.9865 23.224C33.0212 23.2414 33.0603 23.2566 33.1038 23.2696C33.1276 23.2761 33.1461 23.2848 33.1591 23.2957C33.1743 23.3044 33.1819 23.3185 33.1819 23.338C33.1819 23.3532 33.1754 23.3652 33.1624 23.3739C33.1494 23.3826 33.1342 23.3869 33.1168 23.3869C33.0733 23.3869 33.019 23.3847 32.9539 23.3804C32.8909 23.3782 32.8268 23.3761 32.7616 23.3739C32.6965 23.3717 32.6389 23.3706 32.589 23.3706C32.5477 23.3706 32.4966 23.3717 32.4358 23.3739C32.3772 23.3761 32.3175 23.3782 32.2566 23.3804C32.1958 23.3826 32.1437 23.3837 32.1002 23.3837C32.0807 23.3837 32.0633 23.3804 32.0481 23.3739C32.0351 23.3652 32.0286 23.3532 32.0286 23.338C32.0286 23.3185 32.0362 23.3033 32.0514 23.2924C32.0666 23.2816 32.085 23.274 32.1068 23.2696C32.1871 23.2522 32.2458 23.2294 32.2827 23.2012C32.3196 23.173 32.3316 23.1306 32.3185 23.0741C32.3098 23.0329 32.299 22.9894 32.286 22.9438C32.2729 22.8982 32.2599 22.8526 32.2469 22.807C32.236 22.7592 32.2241 22.7136 32.211 22.6701C32.2067 22.6527 32.2012 22.6397 32.1947 22.631C32.1882 22.6223 32.1752 22.618 32.1556 22.618H31.5789C31.5637 22.618 31.5518 22.6223 31.5431 22.631C31.5344 22.6397 31.5279 22.6538 31.5236 22.6734C31.5149 22.7038 31.5051 22.7342 31.4942 22.7646C31.4834 22.795 31.4725 22.8254 31.4616 22.8558C31.453 22.8862 31.4443 22.9167 31.4356 22.9471C31.4269 22.9775 31.4182 23.0068 31.4095 23.035C31.3943 23.1002 31.4008 23.1502 31.4291 23.1849C31.4573 23.2197 31.5181 23.2479 31.6115 23.2696C31.6637 23.2805 31.6897 23.3033 31.6897 23.338C31.6897 23.3532 31.6832 23.3652 31.6702 23.3739C31.6593 23.3804 31.6408 23.3837 31.6148 23.3837C31.5518 23.3837 31.4931 23.3815 31.4388 23.3771C31.3845 23.375 31.3248 23.3739 31.2596 23.3739C31.1945 23.3739 31.1326 23.3771 31.0739 23.3837C31.0153 23.3902 30.9523 23.3934 30.885 23.3934ZM31.6702 22.442H32.0937C32.1263 22.442 32.1426 22.4344 32.1426 22.4192C32.1426 22.4127 32.1415 22.4073 32.1393 22.403C32.1393 22.3986 32.1383 22.3932 32.1361 22.3867L31.9178 21.6503C31.9113 21.6264 31.9048 21.6145 31.8982 21.6145C31.8939 21.6145 31.8863 21.6264 31.8754 21.6503L31.618 22.3867C31.6137 22.3953 31.6115 22.404 31.6115 22.4127C31.6115 22.4236 31.617 22.4312 31.6278 22.4355C31.6408 22.4399 31.655 22.442 31.6702 22.442ZM34.684 23.3869C34.6579 23.3869 34.6384 23.3837 34.6253 23.3771C34.6123 23.3684 34.6058 23.3565 34.6058 23.3413C34.6058 23.3217 34.6145 23.3098 34.6319 23.3055C34.6514 23.2989 34.6731 23.2913 34.697 23.2827C34.747 23.2653 34.7904 23.2349 34.8273 23.1914C34.8664 23.148 34.8903 23.0926 34.899 23.0253C34.9121 22.9253 34.9251 22.8026 34.9381 22.6571C34.9533 22.5094 34.9685 22.3519 34.9837 22.1847C34.9989 22.0174 35.012 21.8523 35.0228 21.6894C35.025 21.6764 35.0261 21.6601 35.0261 21.6405C35.0261 21.621 35.0261 21.6004 35.0261 21.5786C35.0261 21.5395 35.0196 21.5091 35.0065 21.4874C34.9957 21.4635 34.9761 21.444 34.9479 21.4288C34.9218 21.4114 34.8936 21.3973 34.8632 21.3864C34.8328 21.3734 34.8002 21.3625 34.7654 21.3538C34.7394 21.3473 34.7187 21.3386 34.7035 21.3278C34.6883 21.3169 34.6807 21.3028 34.6807 21.2854C34.6807 21.2659 34.6894 21.2528 34.7068 21.2463C34.7242 21.2398 34.7448 21.2365 34.7687 21.2365C34.8013 21.2365 34.8415 21.2376 34.8892 21.2398C34.937 21.242 34.9892 21.2441 35.0456 21.2463C35.1043 21.2463 35.1629 21.2474 35.2216 21.2496C35.2824 21.2517 35.3378 21.2528 35.3877 21.2528C35.4051 21.2528 35.4214 21.2593 35.4366 21.2724C35.4518 21.2832 35.4616 21.2963 35.4659 21.3115C35.4811 21.3527 35.4953 21.3929 35.5083 21.432C35.5213 21.469 35.5354 21.508 35.5506 21.5493L36.0296 22.6929C36.0339 22.7016 36.0394 22.707 36.0459 22.7092C36.0546 22.7092 36.0611 22.7038 36.0654 22.6929L36.5314 21.6112C36.5466 21.5352 36.5585 21.4733 36.5672 21.4255C36.5781 21.3777 36.5878 21.3397 36.5965 21.3115C36.6052 21.2832 36.6226 21.2691 36.6486 21.2691H36.7887C36.88 21.2648 36.9745 21.2583 37.0722 21.2496C37.1721 21.2387 37.2503 21.2333 37.3068 21.2333C37.3285 21.2333 37.347 21.2376 37.3622 21.2463C37.3796 21.2528 37.3882 21.2648 37.3882 21.2821C37.3882 21.3017 37.3806 21.3158 37.3654 21.3245C37.3524 21.3332 37.335 21.3408 37.3133 21.3473C37.3003 21.3517 37.2851 21.3582 37.2677 21.3669C37.2503 21.3734 37.2351 21.3799 37.2221 21.3864C37.1656 21.4125 37.1232 21.4429 37.095 21.4776C37.0689 21.5102 37.0581 21.5634 37.0624 21.6373C37.0668 21.7937 37.0722 21.9305 37.0787 22.0478C37.0852 22.1651 37.0907 22.2737 37.095 22.3736C37.1015 22.4735 37.108 22.5778 37.1146 22.6864C37.1232 22.7928 37.1319 22.9177 37.1406 23.0611C37.145 23.1176 37.1678 23.1632 37.209 23.1979C37.2525 23.2305 37.309 23.2555 37.3785 23.2729C37.4002 23.2794 37.4187 23.287 37.4339 23.2957C37.4491 23.3044 37.4567 23.3185 37.4567 23.338C37.4567 23.3532 37.4501 23.3652 37.4371 23.3739C37.4241 23.3826 37.4078 23.3869 37.3882 23.3869C37.3405 23.3869 37.2851 23.3847 37.2221 23.3804C37.1613 23.3782 37.1004 23.3761 37.0396 23.3739C36.981 23.3717 36.9299 23.3706 36.8865 23.3706C36.843 23.3706 36.7942 23.3717 36.7399 23.3739C36.6877 23.3761 36.6345 23.3782 36.5802 23.3804C36.5259 23.3847 36.4738 23.3869 36.4238 23.3869C36.4043 23.3869 36.3869 23.3837 36.3717 23.3771C36.3565 23.3684 36.3489 23.3565 36.3489 23.3413C36.3489 23.3217 36.3565 23.3065 36.3717 23.2957C36.3869 23.2848 36.4054 23.2772 36.4271 23.2729C36.5075 23.2577 36.5628 23.236 36.5933 23.2077C36.6237 23.1773 36.6378 23.1284 36.6356 23.0611C36.6291 22.9264 36.6237 22.7928 36.6193 22.6603C36.615 22.5257 36.6106 22.3943 36.6063 22.2661C36.6041 22.1358 36.5998 22.0098 36.5933 21.8882C36.5933 21.873 36.5889 21.8664 36.5802 21.8686C36.5737 21.8686 36.5672 21.8762 36.5607 21.8914L35.9384 23.3706C35.9275 23.401 35.9112 23.4141 35.8895 23.4097C35.8678 23.4054 35.8526 23.3945 35.8439 23.3771C35.7374 23.1252 35.6256 22.8765 35.5083 22.631C35.3932 22.3856 35.2867 22.1423 35.189 21.9012C35.1825 21.8816 35.1716 21.8751 35.1564 21.8816C35.1434 21.886 35.1358 21.9001 35.1336 21.924C35.1271 22.0326 35.1217 22.1521 35.1173 22.2824C35.113 22.4106 35.1108 22.5409 35.1108 22.6734C35.1108 22.8037 35.1108 22.9253 35.1108 23.0383C35.1108 23.0991 35.1303 23.1491 35.1694 23.1882C35.2085 23.2251 35.2704 23.2533 35.3552 23.2729C35.3769 23.2772 35.3975 23.2848 35.4171 23.2957C35.4366 23.3044 35.4464 23.3185 35.4464 23.338C35.4464 23.3532 35.4377 23.3652 35.4203 23.3739C35.4029 23.3826 35.3845 23.3869 35.3649 23.3869C35.3063 23.3869 35.2607 23.3847 35.2281 23.3804C35.1955 23.3782 35.1662 23.3771 35.1401 23.3771C35.1141 23.375 35.0782 23.3739 35.0326 23.3739C34.9848 23.3739 34.9359 23.375 34.886 23.3771C34.836 23.3793 34.7926 23.3815 34.7557 23.3837C34.7187 23.3858 34.6948 23.3869 34.684 23.3869ZM37.9046 23.3934C37.8807 23.3934 37.8601 23.3891 37.8427 23.3804C37.8275 23.3739 37.8199 23.3608 37.8199 23.3413C37.8199 23.3196 37.8264 23.3044 37.8394 23.2957C37.8546 23.2848 37.8742 23.2761 37.8981 23.2696C37.9611 23.2522 38.0154 23.2251 38.061 23.1882C38.1088 23.1512 38.1446 23.1056 38.1685 23.0513C38.2228 22.9297 38.2739 22.8102 38.3216 22.6929C38.3694 22.5735 38.4161 22.4562 38.4617 22.341C38.5074 22.2238 38.553 22.1054 38.5986 21.9859C38.6442 21.8643 38.6898 21.7415 38.7354 21.6177C38.768 21.5287 38.7886 21.4646 38.7973 21.4255C38.806 21.3842 38.8125 21.3603 38.8169 21.3538C38.856 21.343 38.8929 21.3332 38.9277 21.3245C38.9624 21.3158 38.9993 21.3039 39.0384 21.2887C39.0775 21.2735 39.1101 21.2539 39.1362 21.23C39.1644 21.2061 39.185 21.1877 39.1981 21.1746C39.2068 21.1681 39.2155 21.1649 39.2241 21.1649C39.2328 21.1627 39.2415 21.1692 39.2502 21.1844C39.2567 21.1974 39.2622 21.2116 39.2665 21.2268C39.273 21.2398 39.2784 21.255 39.2828 21.2724C39.3284 21.4179 39.3751 21.5667 39.4229 21.7187C39.4707 21.8686 39.5185 22.0185 39.5663 22.1684C39.6162 22.3182 39.6651 22.467 39.7129 22.6147C39.7607 22.7603 39.8074 22.9025 39.853 23.0415C39.866 23.085 39.8856 23.1219 39.9116 23.1523C39.9399 23.1827 39.9713 23.2066 40.0061 23.224C40.0409 23.2414 40.08 23.2566 40.1234 23.2696C40.1473 23.2761 40.1658 23.2848 40.1788 23.2957C40.194 23.3044 40.2016 23.3185 40.2016 23.338C40.2016 23.3532 40.1951 23.3652 40.182 23.3739C40.169 23.3826 40.1538 23.3869 40.1364 23.3869C40.093 23.3869 40.0387 23.3847 39.9735 23.3804C39.9105 23.3782 39.8465 23.3761 39.7813 23.3739C39.7161 23.3717 39.6586 23.3706 39.6086 23.3706C39.5673 23.3706 39.5163 23.3717 39.4555 23.3739C39.3968 23.3761 39.3371 23.3782 39.2763 23.3804C39.2155 23.3826 39.1633 23.3837 39.1199 23.3837C39.1003 23.3837 39.083 23.3804 39.0678 23.3739C39.0547 23.3652 39.0482 23.3532 39.0482 23.338C39.0482 23.3185 39.0558 23.3033 39.071 23.2924C39.0862 23.2816 39.1047 23.274 39.1264 23.2696C39.2068 23.2522 39.2654 23.2294 39.3023 23.2012C39.3393 23.173 39.3512 23.1306 39.3382 23.0741C39.3295 23.0329 39.3186 22.9894 39.3056 22.9438C39.2926 22.8982 39.2795 22.8526 39.2665 22.807C39.2556 22.7592 39.2437 22.7136 39.2307 22.6701C39.2263 22.6527 39.2209 22.6397 39.2144 22.631C39.2079 22.6223 39.1948 22.618 39.1753 22.618H38.5986C38.5834 22.618 38.5714 22.6223 38.5627 22.631C38.5541 22.6397 38.5475 22.6538 38.5432 22.6734C38.5345 22.7038 38.5247 22.7342 38.5139 22.7646C38.503 22.795 38.4922 22.8254 38.4813 22.8558C38.4726 22.8862 38.4639 22.9167 38.4552 22.9471C38.4465 22.9775 38.4378 23.0068 38.4292 23.035C38.414 23.1002 38.4205 23.1502 38.4487 23.1849C38.4769 23.2197 38.5378 23.2479 38.6312 23.2696C38.6833 23.2805 38.7094 23.3033 38.7094 23.338C38.7094 23.3532 38.7028 23.3652 38.6898 23.3739C38.679 23.3804 38.6605 23.3837 38.6344 23.3837C38.5714 23.3837 38.5128 23.3815 38.4585 23.3771C38.4042 23.375 38.3444 23.3739 38.2793 23.3739C38.2141 23.3739 38.1522 23.3771 38.0936 23.3837C38.0349 23.3902 37.9719 23.3934 37.9046 23.3934ZM38.6898 22.442H39.1134C39.146 22.442 39.1622 22.4344 39.1622 22.4192C39.1622 22.4127 39.1612 22.4073 39.159 22.403C39.159 22.3986 39.1579 22.3932 39.1557 22.3867L38.9374 21.6503C38.9309 21.6264 38.9244 21.6145 38.9179 21.6145C38.9135 21.6145 38.9059 21.6264 38.8951 21.6503L38.6377 22.3867C38.6333 22.3953 38.6312 22.404 38.6312 22.4127C38.6312 22.4236 38.6366 22.4312 38.6475 22.4355C38.6605 22.4399 38.6746 22.442 38.6898 22.442ZM40.5639 23.3999C40.5379 23.3999 40.5151 23.3956 40.4955 23.3869C40.476 23.3804 40.4662 23.3674 40.4662 23.3478C40.4662 23.3261 40.4749 23.312 40.4923 23.3055C40.5118 23.2968 40.5325 23.2881 40.5542 23.2794C40.5976 23.2685 40.64 23.2512 40.6812 23.2273C40.7247 23.2034 40.7692 23.1708 40.8148 23.1295C40.8604 23.0882 40.9082 23.0361 40.9582 22.9731L41.3524 22.4616C41.3807 22.4268 41.3948 22.391 41.3948 22.3541C41.3969 22.3172 41.3828 22.2781 41.3524 22.2368L40.8898 21.5852C40.8637 21.5482 40.8376 21.5157 40.8116 21.4874C40.7877 21.457 40.7594 21.4309 40.7269 21.4092C40.6964 21.3875 40.6606 21.3712 40.6193 21.3603C40.5976 21.3538 40.5792 21.3462 40.5639 21.3375C40.5487 21.3288 40.5411 21.3136 40.5411 21.2919C40.5411 21.2745 40.5477 21.2626 40.5607 21.2561C40.5759 21.2496 40.5922 21.2463 40.6096 21.2463C40.7073 21.2463 40.8083 21.2496 40.9126 21.2561C41.019 21.2626 41.1233 21.2659 41.2254 21.2659C41.2949 21.2659 41.3633 21.2626 41.4306 21.2561C41.5001 21.2496 41.5696 21.2463 41.6391 21.2463C41.6587 21.2463 41.6782 21.2507 41.6978 21.2593C41.7195 21.2659 41.7304 21.2767 41.7304 21.2919C41.7304 21.3093 41.7195 21.3245 41.6978 21.3375C41.6782 21.3484 41.6576 21.356 41.6359 21.3603C41.5707 21.3755 41.5218 21.3929 41.4893 21.4125C41.4589 21.4299 41.4436 21.4559 41.4436 21.4907C41.4436 21.5167 41.461 21.5547 41.4958 21.6047L41.8053 22.0283C41.827 22.0565 41.8455 22.0717 41.8607 22.0739C41.8781 22.0761 41.8965 22.063 41.9161 22.0348L42.1865 21.6634C42.2169 21.6243 42.2375 21.5906 42.2484 21.5624C42.2593 21.5319 42.2647 21.5059 42.2647 21.4842C42.2647 21.4559 42.2538 21.432 42.2321 21.4125C42.2104 21.3929 42.1735 21.3766 42.1213 21.3636C42.0996 21.3571 42.0779 21.3484 42.0562 21.3375C42.0345 21.3267 42.0236 21.3115 42.0236 21.2919C42.0236 21.2767 42.0334 21.2659 42.0529 21.2593C42.0725 21.2528 42.0964 21.2496 42.1246 21.2496C42.168 21.2496 42.2039 21.2507 42.2321 21.2528C42.2604 21.2528 42.2886 21.2539 42.3168 21.2561C42.3451 21.2583 42.3798 21.2593 42.4211 21.2593C42.4841 21.2593 42.5395 21.2561 42.5873 21.2496C42.635 21.2409 42.6904 21.2365 42.7534 21.2365C42.7773 21.2365 42.8001 21.2409 42.8218 21.2496C42.8457 21.2561 42.8577 21.2691 42.8577 21.2887C42.8577 21.3104 42.8468 21.3256 42.8251 21.3343C42.8056 21.3408 42.7838 21.3473 42.7599 21.3538C42.7122 21.369 42.6611 21.3973 42.6068 21.4385C42.5525 21.4776 42.5047 21.5222 42.4634 21.5721L42.0171 22.1228C41.9932 22.1532 41.9802 22.1803 41.978 22.2042C41.9758 22.2281 41.9878 22.2585 42.0138 22.2954L42.5579 23.0676C42.5927 23.1154 42.6296 23.1578 42.6687 23.1947C42.71 23.2294 42.7512 23.2533 42.7925 23.2664C42.8164 23.2707 42.8414 23.2805 42.8675 23.2957C42.8957 23.3087 42.9098 23.3261 42.9098 23.3478C42.9098 23.363 42.9022 23.3739 42.887 23.3804C42.8718 23.3891 42.8512 23.3934 42.8251 23.3934C42.7447 23.3934 42.6687 23.3913 42.597 23.3869C42.5254 23.3847 42.4558 23.3815 42.3885 23.3771C42.3233 23.3728 42.256 23.3717 42.1865 23.3739C42.1213 23.3739 42.0562 23.375 41.991 23.3771C41.928 23.3815 41.8639 23.3837 41.7988 23.3837C41.7792 23.3837 41.7597 23.3793 41.7401 23.3706C41.7206 23.3619 41.7108 23.35 41.7108 23.3348C41.7108 23.3174 41.7217 23.3033 41.7434 23.2924C41.7651 23.2794 41.7858 23.2707 41.8053 23.2664C41.8466 23.2555 41.8878 23.2403 41.9291 23.2207C41.9704 23.2012 41.991 23.173 41.991 23.136C41.991 23.1252 41.9888 23.1132 41.9845 23.1002C41.9802 23.0872 41.9726 23.0741 41.9617 23.0611L41.6066 22.5593C41.5805 22.5202 41.5566 22.4985 41.5349 22.4942C41.5153 22.4877 41.4914 22.5061 41.4632 22.5496L41.1569 22.9894C41.1287 23.0307 41.1113 23.0654 41.1048 23.0937C41.1005 23.1219 41.0994 23.1425 41.1015 23.1556C41.1059 23.186 41.12 23.2121 41.1439 23.2338C41.17 23.2533 41.2058 23.2664 41.2514 23.2729C41.2753 23.2772 41.297 23.2859 41.3166 23.2989C41.3383 23.3098 41.3492 23.325 41.3492 23.3446C41.3492 23.3598 41.3394 23.3706 41.3198 23.3771C41.3025 23.3837 41.2807 23.3869 41.2547 23.3869C41.1917 23.3869 41.1298 23.3858 41.069 23.3837C41.0103 23.3815 40.9614 23.3804 40.9223 23.3804C40.8572 23.3804 40.7974 23.3837 40.7431 23.3902C40.691 23.3967 40.6313 23.3999 40.5639 23.3999ZM44.4362 23.4325C44.4188 23.4325 44.4058 23.4238 44.3971 23.4065C44.3884 23.3891 44.3787 23.3695 44.3678 23.3478L43.5467 21.5721C43.5229 21.52 43.4957 21.4766 43.4653 21.4418C43.4349 21.4049 43.3882 21.3788 43.3252 21.3636C43.3035 21.3549 43.2817 21.3462 43.26 21.3375C43.2405 21.3288 43.2307 21.3136 43.2307 21.2919C43.2307 21.2767 43.2405 21.2659 43.26 21.2593C43.2796 21.2507 43.298 21.2463 43.3154 21.2463C43.3806 21.2463 43.4533 21.2485 43.5337 21.2528C43.6163 21.2572 43.6879 21.2593 43.7487 21.2593C43.8139 21.2593 43.8802 21.2572 43.9475 21.2528C44.0148 21.2485 44.0811 21.2463 44.1462 21.2463C44.1745 21.2463 44.1973 21.2507 44.2147 21.2593C44.2342 21.2659 44.244 21.2767 44.244 21.2919C44.244 21.3115 44.2353 21.3267 44.2179 21.3375C44.2005 21.3462 44.1745 21.3538 44.1397 21.3603C44.105 21.369 44.0843 21.3821 44.0778 21.3994C44.0713 21.4168 44.068 21.4375 44.068 21.4613C44.068 21.4744 44.0702 21.4918 44.0746 21.5135C44.0789 21.5352 44.0822 21.5493 44.0843 21.5558C44.1278 21.6579 44.1712 21.7589 44.2147 21.8588C44.2581 21.9566 44.3005 22.0554 44.3417 22.1553C44.383 22.2531 44.4254 22.3519 44.4688 22.4518C44.5122 22.5496 44.5546 22.6506 44.5959 22.7548C44.6067 22.7787 44.6154 22.7918 44.6219 22.7939C44.6284 22.7961 44.6382 22.7842 44.6513 22.7581L44.8305 22.4192C44.837 22.4062 44.8413 22.3953 44.8435 22.3867C44.8478 22.3758 44.85 22.366 44.85 22.3573C44.85 22.3486 44.8478 22.34 44.8435 22.3313C44.8413 22.3204 44.8381 22.3085 44.8337 22.2954L44.4981 21.5819C44.4764 21.5276 44.4438 21.482 44.4004 21.4451C44.3569 21.406 44.3026 21.3788 44.2375 21.3636C44.2157 21.3549 44.1973 21.3462 44.1821 21.3375C44.169 21.3288 44.1625 21.3136 44.1625 21.2919C44.1625 21.2767 44.169 21.2659 44.1821 21.2593C44.1951 21.2507 44.2103 21.2463 44.2277 21.2463C44.2711 21.2463 44.3211 21.2474 44.3776 21.2496C44.434 21.2517 44.4894 21.2539 44.5437 21.2561C44.6002 21.2583 44.6491 21.2593 44.6904 21.2593C44.7533 21.2593 44.8174 21.2572 44.8826 21.2528C44.9499 21.2485 45.0162 21.2463 45.0813 21.2463C45.1139 21.2463 45.14 21.2507 45.1595 21.2593C45.1791 21.2659 45.1888 21.2767 45.1888 21.2919C45.1888 21.305 45.1834 21.3169 45.1726 21.3278C45.1617 21.3365 45.1465 21.3441 45.1269 21.3506C45.1096 21.3571 45.0911 21.3647 45.0716 21.3734C45.0325 21.3821 45.0096 21.3973 45.0031 21.419C44.9988 21.4407 45.001 21.4646 45.0096 21.4907C45.0183 21.5102 45.0281 21.5385 45.039 21.5754C45.052 21.6101 45.0661 21.6481 45.0813 21.6894C45.0987 21.7285 45.1139 21.7665 45.1269 21.8035C45.1421 21.8404 45.1541 21.8697 45.1628 21.8914C45.178 21.924 45.1888 21.937 45.1954 21.9305C45.2041 21.924 45.2127 21.911 45.2214 21.8914C45.2366 21.861 45.254 21.8219 45.2736 21.7741C45.2931 21.7242 45.3116 21.6753 45.3289 21.6275C45.3463 21.5797 45.3594 21.5439 45.368 21.52C45.3789 21.5026 45.3843 21.482 45.3843 21.4581C45.3843 21.4255 45.3702 21.4027 45.342 21.3897C45.3159 21.3745 45.2899 21.3614 45.2638 21.3506C45.2377 21.3375 45.2247 21.3191 45.2247 21.2952C45.2247 21.2821 45.2279 21.2713 45.2345 21.2626C45.2431 21.2539 45.2649 21.2496 45.2996 21.2496C45.3583 21.2496 45.3963 21.2517 45.4137 21.2561C45.4332 21.2583 45.4582 21.2593 45.4886 21.2593C45.5234 21.2572 45.5559 21.2539 45.5863 21.2496C45.6168 21.2452 45.6635 21.2431 45.7264 21.2431C45.7525 21.2431 45.7753 21.2474 45.7949 21.2561C45.8144 21.2626 45.8242 21.2756 45.8242 21.2952C45.8242 21.3169 45.8144 21.3321 45.7949 21.3408C45.7775 21.3473 45.7579 21.3538 45.7362 21.3603C45.6689 21.3777 45.62 21.4038 45.5896 21.4385C45.5592 21.4733 45.531 21.5157 45.5049 21.5656C45.4832 21.6069 45.4593 21.6536 45.4332 21.7057C45.4071 21.7578 45.3811 21.8111 45.355 21.8654C45.3311 21.9197 45.3072 21.9707 45.2833 22.0185C45.2725 22.0446 45.2681 22.0717 45.2703 22.0999C45.2725 22.126 45.279 22.1532 45.2899 22.1814L45.5407 22.7581C45.5472 22.7776 45.5538 22.7852 45.5603 22.7809C45.569 22.7744 45.5755 22.7646 45.5798 22.7516C45.6624 22.5669 45.7438 22.3747 45.8242 22.1749C45.9046 21.975 45.9762 21.7904 46.0392 21.621C46.0609 21.5667 46.0729 21.5298 46.0751 21.5102C46.0794 21.4885 46.0805 21.4722 46.0783 21.4613C46.0761 21.4375 46.0675 21.4168 46.0523 21.3994C46.0371 21.3821 46.0153 21.3701 45.9871 21.3636C45.9654 21.3571 45.9426 21.3484 45.9187 21.3375C45.897 21.3267 45.8861 21.3115 45.8861 21.2919C45.8861 21.2767 45.8959 21.2659 45.9154 21.2593C45.935 21.2528 45.9567 21.2496 45.9806 21.2496C46.0457 21.2496 46.0914 21.2517 46.1174 21.2561C46.1457 21.2583 46.1761 21.2583 46.2086 21.2561C46.2434 21.2539 46.2792 21.2507 46.3162 21.2463C46.3531 21.242 46.402 21.2398 46.4628 21.2398C46.4932 21.2398 46.5193 21.2431 46.541 21.2496C46.5627 21.2561 46.5736 21.2702 46.5736 21.2919C46.5736 21.3115 46.5616 21.3256 46.5377 21.3343C46.516 21.3408 46.4943 21.3484 46.4726 21.3571C46.4269 21.3679 46.3889 21.3853 46.3585 21.4092C46.3281 21.4331 46.3031 21.4603 46.2836 21.4907C46.264 21.5189 46.2467 21.5504 46.2315 21.5852L45.4723 23.3641C45.4658 23.3815 45.4571 23.3956 45.4462 23.4065C45.4354 23.4173 45.4223 23.4228 45.4071 23.4228C45.3898 23.4228 45.3746 23.4173 45.3615 23.4065C45.3507 23.3978 45.3398 23.3826 45.3289 23.3608C45.3051 23.3065 45.2757 23.2436 45.241 23.1719C45.2062 23.1002 45.166 23.0155 45.1204 22.9177C45.0748 22.8178 45.0216 22.7005 44.9608 22.5659C44.9543 22.5507 44.9467 22.5441 44.938 22.5463C44.9293 22.5485 44.9217 22.5561 44.9152 22.5691C44.8717 22.656 44.8272 22.7429 44.7816 22.8298C44.736 22.9167 44.6904 23.0046 44.6447 23.0937C44.5991 23.1806 44.5535 23.2674 44.5079 23.3543C44.4992 23.3761 44.4894 23.3945 44.4786 23.4097C44.4699 23.4249 44.4558 23.4325 44.4362 23.4325ZM46.9907 23.3934C46.9689 23.3934 46.9516 23.388 46.9385 23.3771C46.9277 23.3684 46.9222 23.3576 46.9222 23.3446C46.9222 23.312 46.9461 23.2892 46.9939 23.2761C47.0678 23.2566 47.1199 23.2338 47.1503 23.2077C47.1829 23.1816 47.1992 23.1339 47.1992 23.0644V21.5819C47.1992 21.5124 47.1851 21.4624 47.1568 21.432C47.1286 21.4016 47.0754 21.3777 46.9972 21.3603C46.9689 21.3538 46.9494 21.3451 46.9385 21.3343C46.9277 21.3212 46.9222 21.3071 46.9222 21.2919C46.9222 21.2789 46.9288 21.268 46.9418 21.2593C46.9548 21.2485 46.9722 21.2431 46.9939 21.2431C47.0482 21.2431 47.1036 21.2441 47.1601 21.2463C47.2166 21.2485 47.272 21.2517 47.3263 21.2561C47.3806 21.2583 47.4327 21.2593 47.4826 21.2593C47.5956 21.2593 47.7161 21.2583 47.8443 21.2561C47.9725 21.2539 48.0865 21.2517 48.1864 21.2496C48.2559 21.2496 48.3135 21.2463 48.3591 21.2398C48.4047 21.2311 48.4319 21.2268 48.4405 21.2268C48.4557 21.2268 48.472 21.2322 48.4894 21.2431C48.509 21.2517 48.5198 21.2669 48.522 21.2887C48.5307 21.3669 48.5415 21.4429 48.5546 21.5167C48.5676 21.5906 48.5741 21.6558 48.5741 21.7122C48.5741 21.7318 48.5698 21.747 48.5611 21.7578C48.5524 21.7687 48.5426 21.7741 48.5318 21.7741C48.5209 21.7741 48.509 21.7698 48.4959 21.7611C48.4851 21.7524 48.4764 21.7394 48.4699 21.722C48.4481 21.6677 48.4286 21.621 48.4112 21.5819C48.3938 21.5428 48.3743 21.5113 48.3526 21.4874C48.3265 21.4635 48.295 21.4407 48.2581 21.419C48.2212 21.3973 48.1745 21.3864 48.118 21.3864H47.8736C47.8258 21.3864 47.7846 21.3994 47.7498 21.4255C47.7151 21.4494 47.6977 21.4842 47.6977 21.5298V22.1456C47.6977 22.1716 47.7053 22.1912 47.7205 22.2042C47.7357 22.2172 47.7552 22.2238 47.7791 22.2238H48.0659C48.1223 22.2238 48.1625 22.2053 48.1864 22.1684C48.2125 22.1293 48.2353 22.0826 48.2548 22.0283C48.27 21.987 48.2918 21.9664 48.32 21.9664C48.3309 21.9664 48.3406 21.9729 48.3493 21.9859C48.358 21.9968 48.3613 22.0141 48.3591 22.038C48.3569 22.0641 48.3547 22.0923 48.3526 22.1228C48.3504 22.1532 48.3482 22.1836 48.3461 22.214C48.3461 22.2444 48.3461 22.2737 48.3461 22.3019C48.3461 22.328 48.3461 22.3563 48.3461 22.3867C48.3482 22.4171 48.3493 22.4475 48.3493 22.4779C48.3515 22.5083 48.3537 22.5376 48.3558 22.5659C48.3602 22.5963 48.3591 22.6191 48.3526 22.6343C48.3461 22.6473 48.3363 22.6538 48.3232 22.6538C48.2885 22.6538 48.2635 22.6256 48.2483 22.5691C48.2288 22.504 48.207 22.454 48.1831 22.4192C48.1593 22.3845 48.1256 22.3671 48.0821 22.3671H47.7791C47.7531 22.3671 47.7324 22.3736 47.7172 22.3867C47.7042 22.3975 47.6977 22.416 47.6977 22.442V23.0611C47.6977 23.1263 47.7118 23.1719 47.74 23.1979C47.7683 23.224 47.8117 23.237 47.8704 23.237H48.1506C48.1984 23.237 48.244 23.2316 48.2874 23.2207C48.3309 23.2099 48.3678 23.1914 48.3982 23.1654C48.4351 23.1349 48.4688 23.0969 48.4992 23.0513C48.5296 23.0057 48.5578 22.9568 48.5839 22.9047C48.5926 22.8895 48.6013 22.8797 48.61 22.8754C48.6208 22.8689 48.6328 22.8656 48.6458 22.8656C48.6567 22.8656 48.6643 22.8721 48.6686 22.8852C48.6751 22.8982 48.6784 22.9123 48.6784 22.9275C48.6784 22.9644 48.673 23.0057 48.6621 23.0513C48.6512 23.0969 48.6371 23.1458 48.6197 23.1979C48.6045 23.2479 48.5893 23.2979 48.5741 23.3478C48.5698 23.363 48.56 23.3739 48.5448 23.3804C48.5318 23.3869 48.5177 23.3902 48.5024 23.3902C48.4742 23.3902 48.421 23.3891 48.3428 23.3869C48.2668 23.3869 48.1766 23.3858 48.0724 23.3837C47.9681 23.3815 47.8606 23.3793 47.7498 23.3771C47.639 23.3771 47.5359 23.3771 47.4403 23.3771C47.3969 23.3771 47.3491 23.3782 47.2969 23.3804C47.2448 23.3826 47.1916 23.3847 47.1373 23.3869C47.0852 23.3913 47.0363 23.3934 46.9907 23.3934ZM49.1726 23.3934C49.1509 23.3934 49.1335 23.388 49.1205 23.3771C49.1096 23.3684 49.1042 23.3576 49.1042 23.3446C49.1042 23.3294 49.1107 23.3163 49.1237 23.3055C49.1368 23.2924 49.153 23.2827 49.1726 23.2761C49.2464 23.2566 49.2986 23.2338 49.329 23.2077C49.3616 23.1816 49.3779 23.1349 49.3779 23.0676V21.5754C49.3779 21.5276 49.3724 21.4907 49.3616 21.4646C49.3507 21.4385 49.3301 21.4179 49.2997 21.4027C49.2693 21.3875 49.2247 21.3734 49.1661 21.3603C49.1205 21.3495 49.0977 21.3267 49.0977 21.2919C49.0977 21.2767 49.1042 21.2648 49.1172 21.2561C49.1302 21.2474 49.1454 21.2431 49.1628 21.2431C49.2128 21.2431 49.2649 21.2441 49.3192 21.2463C49.3757 21.2485 49.43 21.2517 49.4821 21.2561C49.5364 21.2583 49.5853 21.2593 49.6287 21.2593C49.6744 21.2593 49.7254 21.2583 49.7819 21.2561C49.8383 21.2539 49.8959 21.2517 49.9546 21.2496C50.0154 21.2474 50.0697 21.2463 50.1175 21.2463C50.137 21.2463 50.1511 21.2507 50.1598 21.2593C50.1707 21.2659 50.1761 21.2767 50.1761 21.2919C50.1761 21.3136 50.1696 21.3288 50.1566 21.3375C50.1457 21.3462 50.1294 21.3538 50.1077 21.3603C50.0186 21.3842 49.9578 21.4103 49.9252 21.4385C49.8948 21.4646 49.8796 21.5102 49.8796 21.5754V23.0415C49.8796 23.1024 49.8926 23.1458 49.9187 23.1719C49.9469 23.1979 49.9926 23.211 50.0556 23.211H50.3879C50.4357 23.211 50.478 23.2034 50.515 23.1882C50.5541 23.1708 50.5888 23.1491 50.6192 23.123C50.6561 23.0882 50.6887 23.0491 50.717 23.0057C50.7452 22.9601 50.7702 22.9134 50.7919 22.8656C50.8136 22.8222 50.8299 22.7939 50.8408 22.7809C50.8538 22.7679 50.8668 22.7613 50.8799 22.7613C50.8972 22.7613 50.9092 22.7689 50.9157 22.7842C50.9222 22.7994 50.9255 22.8135 50.9255 22.8265C50.9255 22.8309 50.9233 22.8406 50.919 22.8558C50.9146 22.871 50.9124 22.883 50.9124 22.8917C50.8972 22.9547 50.8831 23.0101 50.8701 23.0578C50.8571 23.1035 50.8462 23.148 50.8375 23.1914C50.831 23.2327 50.8245 23.2794 50.818 23.3315C50.8158 23.3467 50.8104 23.3608 50.8017 23.3739C50.7952 23.3869 50.7832 23.3934 50.7658 23.3934C50.7202 23.3934 50.654 23.3923 50.5671 23.3902C50.4802 23.388 50.3825 23.3858 50.2738 23.3837C50.1674 23.3837 50.0577 23.3826 49.9448 23.3804C49.834 23.3782 49.7308 23.3771 49.6353 23.3771C49.5896 23.3771 49.5375 23.3782 49.4789 23.3804C49.4202 23.3826 49.3627 23.3847 49.3062 23.3869C49.2519 23.3913 49.2074 23.3934 49.1726 23.3934ZM51.3863 23.3934C51.3645 23.3934 51.3472 23.388 51.3341 23.3771C51.3233 23.3684 51.3178 23.3576 51.3178 23.3446C51.3178 23.3294 51.3244 23.3163 51.3374 23.3055C51.3504 23.2924 51.3667 23.2827 51.3863 23.2761C51.4601 23.2566 51.5123 23.2338 51.5427 23.2077C51.5752 23.1816 51.5915 23.1349 51.5915 23.0676V21.5754C51.5915 21.5276 51.5861 21.4907 51.5752 21.4646C51.5644 21.4385 51.5437 21.4179 51.5133 21.4027C51.4829 21.3875 51.4384 21.3734 51.3798 21.3603C51.3341 21.3495 51.3113 21.3267 51.3113 21.2919C51.3113 21.2767 51.3178 21.2648 51.3309 21.2561C51.3439 21.2474 51.3591 21.2431 51.3765 21.2431C51.4265 21.2431 51.4786 21.2441 51.5329 21.2463C51.5894 21.2485 51.6437 21.2517 51.6958 21.2561C51.7501 21.2583 51.799 21.2593 51.8424 21.2593C51.888 21.2593 51.9391 21.2583 51.9955 21.2561C52.052 21.2539 52.1096 21.2517 52.1682 21.2496C52.229 21.2474 52.2833 21.2463 52.3311 21.2463C52.3507 21.2463 52.3648 21.2507 52.3735 21.2593C52.3843 21.2659 52.3898 21.2767 52.3898 21.2919C52.3898 21.3136 52.3833 21.3288 52.3702 21.3375C52.3594 21.3462 52.3431 21.3538 52.3214 21.3603C52.2323 21.3842 52.1715 21.4103 52.1389 21.4385C52.1085 21.4646 52.0933 21.5102 52.0933 21.5754V23.0415C52.0933 23.1024 52.1063 23.1458 52.1324 23.1719C52.1606 23.1979 52.2062 23.211 52.2692 23.211H52.6016C52.6493 23.211 52.6917 23.2034 52.7286 23.1882C52.7677 23.1708 52.8025 23.1491 52.8329 23.123C52.8698 23.0882 52.9024 23.0491 52.9306 23.0057C52.9589 22.9601 52.9838 22.9134 53.0056 22.8656C53.0273 22.8222 53.0436 22.7939 53.0544 22.7809C53.0675 22.7679 53.0805 22.7613 53.0935 22.7613C53.1109 22.7613 53.1229 22.7689 53.1294 22.7842C53.1359 22.7994 53.1392 22.8135 53.1392 22.8265C53.1392 22.8309 53.137 22.8406 53.1326 22.8558C53.1283 22.871 53.1261 22.883 53.1261 22.8917C53.1109 22.9547 53.0968 23.0101 53.0838 23.0578C53.0707 23.1035 53.0599 23.148 53.0512 23.1914C53.0447 23.2327 53.0381 23.2794 53.0316 23.3315C53.0295 23.3467 53.024 23.3608 53.0153 23.3739C53.0088 23.3869 52.9969 23.3934 52.9795 23.3934C52.9339 23.3934 52.8676 23.3923 52.7808 23.3902C52.6939 23.388 52.5961 23.3858 52.4875 23.3837C52.3811 23.3837 52.2714 23.3826 52.1584 23.3804C52.0477 23.3782 51.9445 23.3771 51.8489 23.3771C51.8033 23.3771 51.7512 23.3782 51.6925 23.3804C51.6339 23.3826 51.5763 23.3847 51.5199 23.3869C51.4656 23.3913 51.421 23.3934 51.3863 23.3934Z" fill="#3B3634"/>
</g>
<defs>
<filter id="filter0_d_1150_6576" x="83.3748" y="90.3724" width="93.5486" height="123.585" filterUnits="userSpaceOnUse" color-interpolation-filters="sRGB">
<feFlood flood-opacity="0" result="BackgroundImageFix"/>
<feColorMatrix in="SourceAlpha" type="matrix" values="0 0 0 0 0 0 0 0 0 0 0 0 0 0 0 0 0 0 127 0" result="hardAlpha"/>
<feOffset dx="-1.75" dy="5.25"/>
<feGaussianBlur stdDeviation="5.25"/>
<feComposite in2="hardAlpha" operator="out"/>
<feColorMatrix type="matrix" values="0 0 0 0 0 0 0 0 0 0 0 0 0 0 0 0 0 0 0.08 0"/>
<feBlend mode="normal" in2="BackgroundImageFix" result="effect1_dropShadow_1150_6576"/>
<feBlend mode="normal" in="SourceGraphic" in2="effect1_dropShadow_1150_6576" result="shape"/>
</filter>
<filter id="filter1_d_1150_6576" x="82.6862" y="89.6152" width="94.7291" height="124.765" filterUnits="userSpaceOnUse" color-interpolation-filters="sRGB">
<feFlood flood-opacity="0" result="BackgroundImageFix"/>
<feColorMatrix in="SourceAlpha" type="matrix" values="0 0 0 0 0 0 0 0 0 0 0 0 0 0 0 0 0 0 127 0" result="hardAlpha"/>
<feOffset dx="-1.84837" dy="5.08303"/>
<feGaussianBlur stdDeviation="5.54512"/>
<feComposite in2="hardAlpha" operator="out"/>
<feColorMatrix type="matrix" values="0 0 0 0 0 0 0 0 0 0 0 0 0 0 0 0 0 0 0.08 0"/>
<feBlend mode="normal" in2="BackgroundImageFix" result="effect1_dropShadow_1150_6576"/>
<feBlend mode="normal" in="SourceGraphic" in2="effect1_dropShadow_1150_6576" result="shape"/>
</filter>
<filter id="filter2_d_1150_6576" x="0.250076" y="124.059" width="93.625" height="123.813" filterUnits="userSpaceOnUse" color-interpolation-filters="sRGB">
<feFlood flood-opacity="0" result="BackgroundImageFix"/>
<feColorMatrix in="SourceAlpha" type="matrix" values="0 0 0 0 0 0 0 0 0 0 0 0 0 0 0 0 0 0 127 0" result="hardAlpha"/>
<feOffset dx="-1.75" dy="5.25"/>
<feGaussianBlur stdDeviation="5.25"/>
<feComposite in2="hardAlpha" operator="out"/>
<feColorMatrix type="matrix" values="0 0 0 0 0 0 0 0 0 0 0 0 0 0 0 0 0 0 0.08 0"/>
<feBlend mode="normal" in2="BackgroundImageFix" result="effect1_dropShadow_1150_6576"/>
<feBlend mode="normal" in="SourceGraphic" in2="effect1_dropShadow_1150_6576" result="shape"/>
</filter>
<filter id="filter3_d_1150_6576" x="-0.438536" y="123.302" width="94.7291" height="124.765" filterUnits="userSpaceOnUse" color-interpolation-filters="sRGB">
<feFlood flood-opacity="0" result="BackgroundImageFix"/>
<feColorMatrix in="SourceAlpha" type="matrix" values="0 0 0 0 0 0 0 0 0 0 0 0 0 0 0 0 0 0 127 0" result="hardAlpha"/>
<feOffset dx="-1.84837" dy="5.08303"/>
<feGaussianBlur stdDeviation="5.54512"/>
<feComposite in2="hardAlpha" operator="out"/>
<feColorMatrix type="matrix" values="0 0 0 0 0 0 0 0 0 0 0 0 0 0 0 0 0 0 0.08 0"/>
<feBlend mode="normal" in2="BackgroundImageFix" result="effect1_dropShadow_1150_6576"/>
<feBlend mode="normal" in="SourceGraphic" in2="effect1_dropShadow_1150_6576" result="shape"/>
</filter>
<filter id="filter4_d_1150_6576" x="83.3749" y="-22.9431" width="93.6254" height="123.817" filterUnits="userSpaceOnUse" color-interpolation-filters="sRGB">
<feFlood flood-opacity="0" result="BackgroundImageFix"/>
<feColorMatrix in="SourceAlpha" type="matrix" values="0 0 0 0 0 0 0 0 0 0 0 0 0 0 0 0 0 0 127 0" result="hardAlpha"/>
<feOffset dx="-1.75" dy="5.25"/>
<feGaussianBlur stdDeviation="5.25"/>
<feComposite in2="hardAlpha" operator="out"/>
<feColorMatrix type="matrix" values="0 0 0 0 0 0 0 0 0 0 0 0 0 0 0 0 0 0 0.08 0"/>
<feBlend mode="normal" in2="BackgroundImageFix" result="effect1_dropShadow_1150_6576"/>
<feBlend mode="normal" in="SourceGraphic" in2="effect1_dropShadow_1150_6576" result="shape"/>
</filter>
<filter id="filter5_d_1150_6576" x="0.249622" y="10.752" width="93.625" height="123.813" filterUnits="userSpaceOnUse" color-interpolation-filters="sRGB">
<feFlood flood-opacity="0" result="BackgroundImageFix"/>
<feColorMatrix in="SourceAlpha" type="matrix" values="0 0 0 0 0 0 0 0 0 0 0 0 0 0 0 0 0 0 127 0" result="hardAlpha"/>
<feOffset dx="-1.75" dy="5.25"/>
<feGaussianBlur stdDeviation="5.25"/>
<feComposite in2="hardAlpha" operator="out"/>
<feColorMatrix type="matrix" values="0 0 0 0 0 0 0 0 0 0 0 0 0 0 0 0 0 0 0.08 0"/>
<feBlend mode="normal" in2="BackgroundImageFix" result="effect1_dropShadow_1150_6576"/>
<feBlend mode="normal" in="SourceGraphic" in2="effect1_dropShadow_1150_6576" result="shape"/>
</filter>
</defs>
</svg>
