
<svg xmlns="http://www.w3.org/2000/svg" width="180" height="137" viewBox="0 0 180 137">
    <g fill="none" fill-rule="evenodd">
        <path fill="#B7DCFA" d="M38.919 131.351V4.865C38.919 2.178 41.097 0 43.784 0h92.236c2.687 0 4.865 2.178 4.865 4.865V131.35c0 2.687-2.178 4.865-4.865 4.865H43.784c-2.687 0-4.865-2.178-4.865-4.865"/>
        <g fill="#FFF">
            <path d="M70.54 97.297H2.433C1.09 97.297 0 96.207 0 94.865c0-1.343 1.09-2.433 2.432-2.433h68.109c1.342 0 2.432 1.09 2.432 2.433 0 1.343-1.09 2.432-2.432 2.432M55.946 107.027H2.432c-1.342 0-2.432-1.09-2.432-2.432 0-1.343 1.09-2.433 2.432-2.433h53.514c1.343 0 2.432 1.09 2.432 2.433 0 1.342-1.09 2.432-2.432 2.432M70.54 4.865H36.487c-1.342 0-2.432-1.09-2.432-2.433C34.054 1.09 35.144 0 36.486 0h34.055c1.342 0 2.432 1.09 2.432 2.432 0 1.343-1.09 2.433-2.432 2.433M65.676 14.595h-29.19c-1.342 0-2.432-1.09-2.432-2.433 0-1.343 1.09-2.432 2.432-2.432h29.19c1.342 0 2.432 1.09 2.432 2.432 0 1.343-1.09 2.433-2.432 2.433M70.54 24.324H36.487c-1.342 0-2.432-1.09-2.432-2.432 0-1.343 1.09-2.433 2.432-2.433h34.055c1.342 0 2.432 1.09 2.432 2.433 0 1.343-1.09 2.432-2.432 2.432M24.324 12.162c0 6.717-5.445 12.162-12.162 12.162C5.445 24.324 0 18.88 0 12.162 0 5.445 5.445 0 12.162 0c6.717 0 12.162 5.445 12.162 12.162" transform="translate(53.514 14.595)"/>
        </g>
        <path fill="#E1F1FD" d="M175.135 92.76H4.865C2.178 92.76 0 90.582 0 87.895V53.513c0-2.687 2.178-4.865 4.865-4.865h170.27c2.687 0 4.865 2.178 4.865 4.865v34.382c0 2.687-2.178 4.865-4.865 4.865"/>
        <g fill="#002C6B">
            <path d="M26.757 5.193c0 2.686-2.178 4.864-4.865 4.864-2.687 0-4.865-2.178-4.865-4.864 0-2.687 2.178-4.865 4.865-4.865 2.687 0 4.865 2.178 4.865 4.865M9.73 5.193c0 2.686-2.179 4.864-4.865 4.864C2.178 10.057 0 7.88 0 5.193 0 2.506 2.178.328 4.865.328 7.55.328 9.73 2.506 9.73 5.193M43.784 5.193c0 2.686-2.178 4.864-4.865 4.864-2.687 0-4.865-2.178-4.865-4.864 0-2.687 2.178-4.865 4.865-4.865 2.687 0 4.865 2.178 4.865 4.865M60.81 5.193c0 2.686-2.177 4.864-4.864 4.864S51.08 7.88 51.08 5.193c0-2.687 2.178-4.865 4.865-4.865 2.687 0 4.865 2.178 4.865 4.865M77.838 5.193c0 2.686-2.178 4.864-4.865 4.864-2.687 0-4.865-2.178-4.865-4.864 0-2.687 2.178-4.865 4.865-4.865 2.687 0 4.865 2.178 4.865 4.865M97.297 5.193c0 2.686-2.178 4.864-4.865 4.864-2.686 0-4.864-2.178-4.864-4.864 0-2.687 2.178-4.865 4.864-4.865 2.687 0 4.865 2.178 4.865 4.865M114.324 5.193c0 2.686-2.178 4.864-4.865 4.864-2.686 0-4.864-2.178-4.864-4.864 0-2.687 2.178-4.865 4.864-4.865 2.687 0 4.865 2.178 4.865 4.865" transform="translate(48.649 65.676)"/>
        </g>
        <g>
            <path fill="#FF514E" d="M14.595 24.652h-9.73C2.178 24.652 0 22.474 0 19.787V12.49c0-1.343 1.09-2.433 2.432-2.433h14.595c1.343 0 2.432 1.09 2.432 2.433v7.297c0 2.687-2.178 4.865-4.864 4.865" transform="translate(17.027 55.946)"/>
            <path stroke="#FF514E" stroke-linecap="round" stroke-width="2.432" d="M4.865 12.49V5.193C4.865 2.505 7.042.328 9.73.328s4.865 2.177 4.865 4.865v1.216" transform="translate(17.027 55.946)"/>
            <path fill="#88C7F8" d="M21.892 41.351L124.054 41.351 124.054 36.486 21.892 36.486z" transform="translate(17.027 55.946)"/>
        </g>
    </g>
</svg>
