<?xml version="1.0" encoding="utf-8"?>
<!-- Generator: Adobe Illustrator 19.2.1, SVG Export Plug-In . SVG Version: 6.00 Build 0)  -->
<svg version="1.1" id="Capa_1" xmlns="http://www.w3.org/2000/svg" xmlns:xlink="http://www.w3.org/1999/xlink" x="0px" y="0px"
	 viewBox="0 0 182 39" style="enable-background:new 0 0 182 39;" xml:space="preserve">
<style type="text/css">
	.st0{fill:#FF514E;}
	.st1{fill:#17324E;}
</style>
<g id="Group-6" transform="translate(613.000000, 14.000000)">
	<polygon id="Rectangle-3-Copy" class="st0" points="-611,-14 -585.1,-11.1 -582.3,21 -613,24.3 	"/>
	<g>
		<path id="ResumeCoach" class="st1" d="M-594.8-4.8c2.1,0,3.7,0.5,4.9,1.4c1.2,0.9,1.8,2.3,1.8,3.9c0,0.9-0.2,1.7-0.7,2.4
			c-0.5,0.7-1.2,1.2-2.2,1.6c1.1,0.3,1.9,0.8,2.3,1.6c0.5,0.7,0.7,1.7,0.7,2.7v0.9c0,0.4,0.1,0.7,0.2,0.9s0.4,0.4,0.8,0.4l0.5,0.1
			v2.2h-1.9c-1.2,0-2-0.3-2.5-1c-0.5-0.6-0.7-1.5-0.7-2.5v-1c0-0.9-0.2-1.6-0.7-2.1c-0.5-0.5-1.1-0.8-2-0.8h-3v4.8l2,0.4v2.2h-7.6
			v-2.2l1.9-0.4V-2.3l-1.9-0.4v-2.2H-594.8z M-597.4,3.2h2.5c1,0,1.8-0.2,2.3-0.7c0.5-0.4,0.8-1.1,0.8-1.9s-0.3-1.5-0.8-2
			c-0.5-0.5-1.3-0.7-2.2-0.7h-2.6V3.2z M-578.8,13.7c-2,0-3.5-0.6-4.7-1.9s-1.8-2.8-1.8-4.8V6.5c0-2,0.6-3.7,1.7-5s2.6-1.9,4.5-1.9
			c1.8,0,3.2,0.6,4.3,1.7c1,1.1,1.5,2.6,1.5,4.5v2h-8.1l0,0.1c0.1,0.9,0.4,1.6,0.9,2.2c0.5,0.6,1.3,0.9,2.2,0.9c0.8,0,1.5-0.1,2-0.2
			s1.1-0.4,1.8-0.8l1,2.3c-0.6,0.4-1.3,0.8-2.2,1.1S-577.7,13.7-578.8,13.7z M-579.1,2.4c-0.7,0-1.2,0.3-1.6,0.8s-0.6,1.2-0.7,2
			l0,0.1h4.5V5c0-0.8-0.2-1.4-0.5-1.9C-577.9,2.6-578.4,2.4-579.1,2.4z M-560.6,4.5h-2.5l-0.4-1.7c-0.3-0.2-0.6-0.4-0.9-0.5
			c-0.4-0.1-0.8-0.2-1.3-0.2c-0.6,0-1.2,0.1-1.5,0.4c-0.4,0.3-0.6,0.6-0.6,1.1c0,0.4,0.2,0.7,0.5,1c0.4,0.3,1.1,0.5,2.2,0.7
			c1.7,0.3,2.9,0.8,3.7,1.5s1.2,1.5,1.2,2.7c0,1.2-0.5,2.2-1.6,3c-1,0.8-2.4,1.2-4.1,1.2c-1,0-2-0.2-2.9-0.5
			c-0.9-0.3-1.6-0.7-2.3-1.3l0-3h2.6l0.5,1.8c0.2,0.2,0.5,0.3,0.9,0.4c0.4,0.1,0.8,0.1,1.2,0.1c0.7,0,1.3-0.1,1.7-0.4
			s0.6-0.6,0.6-1.1c0-0.4-0.2-0.7-0.6-1c-0.4-0.3-1.1-0.6-2.2-0.8c-1.6-0.3-2.8-0.8-3.6-1.4c-0.8-0.6-1.2-1.5-1.2-2.6
			c0-1.1,0.5-2.1,1.4-2.9s2.3-1.2,4-1.2c1.1,0,2,0.1,3,0.4s1.7,0.6,2.2,1.1L-560.6,4.5z M-549,11.7c-0.4,0.6-1,1.1-1.6,1.5
			s-1.4,0.5-2.2,0.5c-1.4,0-2.5-0.5-3.4-1.4c-0.8-0.9-1.2-2.3-1.2-4.3V2.4l-1.5-0.4v-2.2h5.1V8c0,1,0.2,1.7,0.5,2.1s0.8,0.6,1.5,0.6
			c0.6,0,1.1-0.1,1.5-0.3s0.8-0.5,1-0.8V2.4l-1.6-0.4v-2.2h5.3v11l1.6,0.4v2.2h-4.8L-549,11.7z M-542.9,2v-2.2h5.3l0.2,1.8
			c0.4-0.7,1-1.2,1.6-1.5c0.7-0.4,1.4-0.5,2.3-0.5c0.9,0,1.6,0.2,2.2,0.6c0.6,0.4,1.1,1,1.4,1.7c0.4-0.7,1-1.3,1.6-1.7
			c0.7-0.4,1.5-0.6,2.4-0.6c1.3,0,2.4,0.5,3.2,1.4c0.8,0.9,1.2,2.3,1.2,4.2v5.6l1.8,0.4v2.2h-7v-2.2l1.6-0.4V5.2
			c0-1-0.2-1.7-0.5-2.1c-0.3-0.4-0.8-0.6-1.5-0.6c-0.5,0-1,0.1-1.3,0.3c-0.4,0.2-0.7,0.5-0.9,1c0,0.2,0,0.3,0,0.4c0,0.1,0,0.2,0,0.3
			v6.3l1.5,0.4v2.2h-6.6v-2.2l1.5-0.4V5.2c0-1-0.2-1.7-0.5-2.1c-0.3-0.4-0.8-0.6-1.5-0.6c-0.5,0-0.9,0.1-1.3,0.3
			c-0.4,0.2-0.7,0.5-0.9,0.8v7.3l1.6,0.4v2.2h-7v-2.2l1.8-0.4V2.4L-542.9,2z M-512.1,13.7c-2,0-3.5-0.6-4.7-1.9s-1.8-2.8-1.8-4.8
			V6.5c0-2,0.6-3.7,1.7-5s2.6-1.9,4.5-1.9c1.8,0,3.2,0.6,4.3,1.7c1,1.1,1.5,2.6,1.5,4.5v2h-8.1l0,0.1c0.1,0.9,0.4,1.6,0.9,2.2
			c0.5,0.6,1.3,0.9,2.2,0.9c0.8,0,1.5-0.1,2-0.2c0.5-0.2,1.1-0.4,1.8-0.8l1,2.3c-0.6,0.4-1.3,0.8-2.2,1.1S-511,13.7-512.1,13.7z
			 M-512.4,2.4c-0.7,0-1.2,0.3-1.6,0.8s-0.6,1.2-0.7,2l0,0.1h4.5V5c0-0.8-0.2-1.4-0.5-1.9C-511.1,2.6-511.7,2.4-512.4,2.4z"/>
		<path id="ResumeCoach_1_" class="st0" d="M-597.4,3.2h2.5c1,0,1.8-0.2,2.3-0.7c0.5-0.4,0.8-1.1,0.8-1.9s-0.3-1.5-0.8-2
			c-0.5-0.5-1.3-0.7-2.2-0.7h-2.6V3.2z M-490.3,0.9h-1.2l-0.2-2.8c-0.5-0.6-1.1-1-1.9-1.4c-0.8-0.4-1.7-0.5-2.7-0.5
			c-2,0-3.7,0.7-4.9,2.2c-1.2,1.5-1.8,3.4-1.8,5.7v0.3c0,2.3,0.6,4.3,1.8,5.8c1.2,1.5,2.8,2.2,4.7,2.2c1,0,2-0.2,2.8-0.5
			c0.8-0.4,1.5-0.8,2-1.4l0.2-2.8h1.2v3.2c-0.6,0.8-1.4,1.4-2.5,2s-2.3,0.8-3.7,0.8c-2.3,0-4.3-0.9-5.7-2.6c-1.5-1.7-2.2-4-2.2-6.7
			V4.2c0-2.7,0.7-4.9,2.2-6.7c1.5-1.7,3.4-2.6,5.8-2.6c1.4,0,2.6,0.3,3.6,0.8c1.1,0.5,1.9,1.2,2.4,2V0.9z M-487.6,6.4
			c0-2,0.5-3.6,1.6-4.9c1.1-1.3,2.5-1.9,4.3-1.9c1.8,0,3.3,0.6,4.4,1.9c1.1,1.3,1.6,2.9,1.6,4.9v0.4c0,2-0.5,3.6-1.6,4.9
			c-1.1,1.3-2.5,1.9-4.3,1.9c-1.8,0-3.3-0.6-4.4-1.9c-1.1-1.3-1.6-2.9-1.6-4.9V6.4z M-486.1,6.8c0,1.6,0.4,2.9,1.2,4
			c0.8,1.1,1.9,1.6,3.3,1.6c1.4,0,2.5-0.5,3.3-1.6c0.8-1.1,1.2-2.4,1.2-4V6.4c0-1.5-0.4-2.9-1.2-3.9s-1.9-1.6-3.3-1.6
			c-1.4,0-2.5,0.5-3.3,1.6c-0.8,1.1-1.2,2.4-1.2,3.9V6.8z M-463.8,13.4c-0.1-0.5-0.2-0.9-0.2-1.2c0-0.3-0.1-0.7-0.1-1
			c-0.5,0.7-1.2,1.3-2,1.8c-0.8,0.5-1.8,0.7-2.8,0.7c-1.3,0-2.4-0.3-3.1-1s-1.1-1.6-1.1-2.8c0-1.3,0.5-2.2,1.6-3s2.5-1.1,4.4-1.1h3
			V4c0-1-0.3-1.7-0.9-2.3s-1.5-0.8-2.6-0.8c-0.8,0-1.4,0.1-2.1,0.3c-0.6,0.2-1.1,0.5-1.6,0.8l-0.1,1.8h-1.2l0-2.6
			c0.6-0.5,1.4-0.9,2.2-1.2c0.9-0.3,1.8-0.5,2.8-0.5c1.5,0,2.7,0.4,3.6,1.1c0.9,0.8,1.4,1.8,1.4,3.3v6.7c0,0.3,0,0.5,0,0.8
			c0,0.3,0,0.5,0.1,0.7l1.4,0.1v1.1H-463.8z M-468.7,12.3c1.1,0,2-0.3,2.9-0.8c0.8-0.5,1.4-1.1,1.8-1.9V6.9h-3
			c-1.4,0-2.4,0.3-3.3,0.8s-1.2,1.3-1.2,2.1c0,0.7,0.3,1.3,0.8,1.8C-470.3,12.1-469.6,12.3-468.7,12.3z M-453.2,12.4
			c1,0,1.9-0.3,2.6-0.9c0.8-0.6,1.1-1.4,1.1-2.4h1.3l0,0.1c0,1.3-0.5,2.3-1.5,3.1c-1,0.8-2.2,1.3-3.6,1.3c-1.8,0-3.3-0.6-4.3-1.9
			c-1-1.3-1.5-2.9-1.5-4.9V6.4c0-2,0.5-3.6,1.5-4.9c1-1.3,2.4-1.9,4.3-1.9c1,0,2,0.2,2.9,0.6s1.6,0.9,2.1,1.6l0.1,3h-1.3l-0.2-2.4
			c-0.4-0.5-0.9-0.8-1.5-1.1c-0.6-0.3-1.3-0.4-2-0.4c-1.5,0-2.5,0.5-3.2,1.6s-1,2.3-1,3.9v0.5c0,1.6,0.3,2.9,1,4
			C-455.8,11.9-454.7,12.4-453.2,12.4z M-445.7-5v-1.1h3.5v8.3c0.5-0.8,1.1-1.4,1.8-1.9c0.8-0.5,1.6-0.7,2.6-0.7
			c1.4,0,2.5,0.4,3.3,1.3s1.1,2.3,1.1,4.1v7.1l2,0.2v1.1h-5.6v-1.1l2-0.2V5c0-1.5-0.3-2.5-0.9-3.2c-0.6-0.6-1.4-1-2.4-1
			c-1,0-1.9,0.3-2.6,0.8c-0.7,0.5-1.2,1.3-1.5,2.1v8.3l2,0.2v1.1h-5.6v-1.1l2-0.2v-17L-445.7-5z"/>
	</g>
</g>
<g id="Capa_2">
</g>
</svg>
