<svg xmlns="http://www.w3.org/2000/svg" width="180" height="107" viewBox="0 0 180 107">
    <g fill="none" fill-rule="evenodd">
        <path fill="#88C7F8" fill-rule="nonzero" d="M143.312 0c4.349 0 7.89 3.459 8.022 7.776l.004.25v89.426h-6.88V8.025c0-.59-.447-1.077-1.021-1.14l-.125-.006H8.025c-.59 0-1.077.447-1.14 1.022l-.006.124v89.427H0V8.025C0 3.677 3.459.135 7.776.004L8.026 0h135.286z"/>
        <path fill="#B7DCFA" d="M179.518 97c-1.49 5.775-6.351 10-12.13 10H42.42V97h137.098z"/>
        <path fill="#88C7F8" d="M57.99 97c-1.49 5.775-6.352 10-12.13 10H4.586C2.053 107 0 104.761 0 102v-5h57.99z"/>
        <path fill="#B7DCFA" d="M126.275 67.643H27.356c-4.327 0-7.866-3.539-7.866-7.865V43.406c0-4.325 3.54-7.865 7.866-7.865h98.919c4.325 0 7.865 3.54 7.865 7.865v16.372c0 4.326-3.54 7.865-7.865 7.865"/>
        <path fill="#FF514E" d="M126.064 51.592c0 5.066-4.106 9.172-9.172 9.172-5.066 0-9.172-4.106-9.172-9.172 0-5.065 4.106-9.172 9.172-9.172 5.066 0 9.172 4.107 9.172 9.172"/>
        <path fill="#FFF" fill-rule="nonzero" d="M120.532 48.085c.448-.448 1.174-.448 1.622 0 .415.415.445 1.07.089 1.52l-.09.1-5.732 5.733c-.416.416-1.071.446-1.521.09l-.1-.09-3.44-3.44c-.448-.447-.448-1.173 0-1.62.416-.416 1.072-.446 1.522-.09l.1.09 2.628 2.628 4.922-4.921z"/>
        <path fill="#002C6B" d="M102.038 51.592c0 2.533-2.053 4.586-4.586 4.586-2.532 0-4.586-2.053-4.586-4.586 0-2.532 2.054-4.586 4.586-4.586 2.533 0 4.586 2.054 4.586 4.586M85.987 51.592c0 2.533-2.053 4.586-4.586 4.586-2.532 0-4.586-2.053-4.586-4.586 0-2.532 2.054-4.586 4.586-4.586 2.533 0 4.586 2.054 4.586 4.586M69.936 51.592c0 2.533-2.053 4.586-4.586 4.586-2.532 0-4.586-2.053-4.586-4.586 0-2.532 2.054-4.586 4.586-4.586 2.533 0 4.586 2.054 4.586 4.586M53.885 51.592c0 2.533-2.053 4.586-4.586 4.586-2.532 0-4.586-2.053-4.586-4.586 0-2.532 2.054-4.586 4.586-4.586 2.533 0 4.586 2.054 4.586 4.586M37.834 51.592c0 2.533-2.053 4.586-4.586 4.586-2.532 0-4.586-2.053-4.586-4.586 0-2.532 2.054-4.586 4.586-4.586 2.533 0 4.586 2.054 4.586 4.586"/>
    </g>
</svg>
