<svg width="309" height="301" viewBox="0 0 309 301" fill="none" xmlns="http://www.w3.org/2000/svg">
<path fill-rule="evenodd" clip-rule="evenodd" d="M7.21024 2H301.009C303.826 2 306.109 4.28373 306.109 7.10086V30.9551L2.10938 30.9551V7.10086C2.10938 4.28373 4.39311 2 7.21024 2ZM308.109 7.10086V31.4884C308.183 31.6277 308.225 31.7865 308.225 31.9551C308.225 32.1237 308.183 32.2825 308.109 32.4219V300.899L274.382 300.899H35.6152L0.109375 300.899V32.4103C0.0394501 32.2737 0 32.119 0 31.9551C0 31.7911 0.0394501 31.6364 0.109375 31.4999V7.10086C0.109375 3.17916 3.28854 0 7.21024 0H301.009C304.93 0 308.109 3.17917 308.109 7.10086ZM2.10938 32.9551L306.109 32.9551V298.899H274.382V142.131H274.383C274.935 142.131 275.383 141.683 275.383 141.131C275.383 140.579 274.935 140.131 274.383 140.131H274.382V66.5706C274.382 62.6489 271.203 59.4697 267.281 59.4697H42.7161C38.7944 59.4697 35.6152 62.6489 35.6152 66.5706V140.672C35.5441 140.809 35.5039 140.965 35.5039 141.131C35.5039 141.296 35.5441 141.452 35.6152 141.59V298.899H2.10938V32.9551ZM37.6152 142.131V298.899H272.382V142.131L37.6152 142.131ZM272.382 140.131V66.5706C272.382 63.7535 270.098 61.4697 267.281 61.4697H42.7161C39.899 61.4697 37.6152 63.7535 37.6152 66.5706V140.131L272.382 140.131ZM144.788 160.883H73.7789C72.9227 160.883 72.2285 161.577 72.2285 162.433C72.2285 163.29 72.9227 163.984 73.7789 163.984H144.788C145.644 163.984 146.338 163.29 146.338 162.433C146.338 161.577 145.644 160.883 144.788 160.883ZM73.7789 158.883C71.8181 158.883 70.2285 160.472 70.2285 162.433C70.2285 164.394 71.8181 165.984 73.7789 165.984H144.788C146.748 165.984 148.338 164.394 148.338 162.433C148.338 160.472 146.748 158.883 144.788 158.883H73.7789ZM113.727 93.4229H202.488C203.834 93.4229 204.926 94.5144 204.926 95.8609C204.926 97.2074 203.834 98.2989 202.488 98.2989H113.727C112.381 98.2989 111.289 97.2074 111.289 95.8609C111.289 94.5144 112.381 93.4229 113.727 93.4229ZM109.289 95.8609C109.289 93.4098 111.276 91.4229 113.727 91.4229H202.488C204.939 91.4229 206.926 93.4098 206.926 95.8609C206.926 98.312 204.939 100.299 202.488 100.299H113.727C111.276 100.299 109.289 98.312 109.289 95.8609ZM118.159 242.541H73.7789C72.9227 242.541 72.2285 243.235 72.2285 244.091C72.2285 244.948 72.9227 245.642 73.7789 245.642H118.159C119.016 245.642 119.71 244.948 119.71 244.091C119.71 243.235 119.016 242.541 118.159 242.541ZM73.7789 240.541C71.8181 240.541 70.2285 242.131 70.2285 244.091C70.2285 246.052 71.8181 247.642 73.7789 247.642H118.159C120.12 247.642 121.71 246.052 121.71 244.091C121.71 242.131 120.12 240.541 118.159 240.541H73.7789ZM61.1263 162.433C61.1263 163.29 60.4321 163.984 59.5758 163.984C58.7195 163.984 58.0254 163.29 58.0254 162.433C58.0254 161.577 58.7195 160.883 59.5758 160.883C60.4321 160.883 61.1263 161.577 61.1263 162.433ZM63.1263 162.433C63.1263 164.394 61.5367 165.984 59.5758 165.984C57.615 165.984 56.0254 164.394 56.0254 162.433C56.0254 160.472 57.615 158.883 59.5758 158.883C61.5367 158.883 63.1263 160.472 63.1263 162.433ZM91.5297 81.8848H63.1263C60.3091 81.8848 58.0254 84.1685 58.0254 86.9856V115.389C58.0254 118.206 60.3091 120.49 63.1262 120.49H91.5297C94.3468 120.49 96.6306 118.206 96.6306 115.389V86.9856C96.6306 84.1685 94.3468 81.8848 91.5297 81.8848ZM63.1263 79.8848C59.2046 79.8848 56.0254 83.0639 56.0254 86.9856V115.389C56.0254 119.311 59.2045 122.49 63.1262 122.49H91.5297C95.4514 122.49 98.6306 119.311 98.6306 115.389V86.9856C98.6306 83.0639 95.4514 79.8848 91.5297 79.8848H63.1263ZM61.1263 244.091C61.1263 244.948 60.4321 245.642 59.5758 245.642C58.7195 245.642 58.0254 244.948 58.0254 244.091C58.0254 243.235 58.7195 242.541 59.5758 242.541C60.4321 242.541 61.1263 243.235 61.1263 244.091ZM63.1263 244.091C63.1263 246.052 61.5367 247.642 59.5758 247.642C57.615 247.642 56.0254 246.052 56.0254 244.091C56.0254 242.131 57.615 240.541 59.5758 240.541C61.5367 240.541 63.1263 242.131 63.1263 244.091ZM48.0416 19.3019C49.3881 19.3019 50.4796 18.2103 50.4796 16.8638C50.4796 15.5173 49.3881 14.4258 48.0416 14.4258C46.6951 14.4258 45.6035 15.5173 45.6035 16.8638C45.6035 18.2103 46.6951 19.3019 48.0416 19.3019ZM48.0416 21.3019C50.4926 21.3019 52.4796 19.3149 52.4796 16.8638C52.4796 14.4128 50.4926 12.4258 48.0416 12.4258C45.5905 12.4258 43.6035 14.4128 43.6035 16.8638C43.6035 19.3149 45.5905 21.3019 48.0416 21.3019ZM56.0254 175.635C55.4731 175.635 55.0254 176.082 55.0254 176.635C55.0254 177.187 55.4731 177.635 56.0254 177.635H148.337C148.889 177.635 149.337 177.187 149.337 176.635C149.337 176.082 148.889 175.635 148.337 175.635H56.0254ZM55.0254 187.287C55.0254 186.735 55.4731 186.287 56.0254 186.287H135.022C135.575 186.287 136.022 186.735 136.022 187.287C136.022 187.839 135.575 188.287 135.022 188.287H56.0254C55.4731 188.287 55.0254 187.839 55.0254 187.287ZM56.0254 196.936C55.4731 196.936 55.0254 197.383 55.0254 197.936C55.0254 198.488 55.4731 198.936 56.0254 198.936H148.337C148.889 198.936 149.337 198.488 149.337 197.936C149.337 197.383 148.889 196.936 148.337 196.936H56.0254ZM55.0254 208.588C55.0254 208.036 55.4731 207.588 56.0254 207.588H135.022C135.575 207.588 136.022 208.036 136.022 208.588C136.022 209.14 135.575 209.588 135.022 209.588H56.0254C55.4731 209.588 55.0254 209.14 55.0254 208.588ZM56.0254 218.237C55.4731 218.237 55.0254 218.685 55.0254 219.237C55.0254 219.79 55.4731 220.237 56.0254 220.237H148.337C148.889 220.237 149.337 219.79 149.337 219.237C149.337 218.685 148.889 218.237 148.337 218.237H56.0254ZM32.9517 19.3019C34.2982 19.3019 35.3898 18.2103 35.3898 16.8638C35.3898 15.5173 34.2982 14.4258 32.9517 14.4258C31.6052 14.4258 30.5137 15.5173 30.5137 16.8638C30.5137 18.2103 31.6052 19.3019 32.9517 19.3019ZM32.9517 21.3019C35.4028 21.3019 37.3898 19.3149 37.3898 16.8638C37.3898 14.4128 35.4028 12.4258 32.9517 12.4258C30.5007 12.4258 28.5137 14.4128 28.5137 16.8638C28.5137 19.3149 30.5007 21.3019 32.9517 21.3019ZM20.298 16.8638C20.298 18.2103 19.2064 19.3019 17.8599 19.3019C16.5134 19.3019 15.4219 18.2103 15.4219 16.8638C15.4219 15.5173 16.5134 14.4258 17.8599 14.4258C19.2064 14.4258 20.298 15.5173 20.298 16.8638ZM22.298 16.8638C22.298 19.3149 20.311 21.3019 17.8599 21.3019C15.4089 21.3019 13.4219 19.3149 13.4219 16.8638C13.4219 14.4128 15.4089 12.4258 17.8599 12.4258C20.311 12.4258 22.298 14.4128 22.298 16.8638ZM157.992 176.635C157.992 176.082 158.44 175.635 158.992 175.635H239.765C240.317 175.635 240.765 176.082 240.765 176.635C240.765 177.187 240.317 177.635 239.765 177.635H158.992C158.44 177.635 157.992 177.187 157.992 176.635ZM109.289 106.4C108.737 106.4 108.289 106.848 108.289 107.4C108.289 107.953 108.737 108.4 109.289 108.4L226.453 108.4C227.006 108.4 227.453 107.953 227.453 107.4C227.453 106.848 227.006 106.4 226.453 106.4L109.289 106.4ZM157.994 187.287C157.994 186.735 158.442 186.287 158.994 186.287H251.305C251.858 186.287 252.305 186.735 252.305 187.287C252.305 187.839 251.858 188.287 251.305 188.287H158.994C158.442 188.287 157.994 187.839 157.994 187.287ZM158.994 196.936C158.442 196.936 157.994 197.383 157.994 197.936C157.994 198.488 158.442 198.936 158.994 198.936H239.766C240.319 198.936 240.766 198.488 240.766 197.936C240.766 197.383 240.319 196.936 239.766 196.936H158.994ZM157.992 208.588C157.992 208.036 158.44 207.588 158.992 207.588H251.303C251.856 207.588 252.303 208.036 252.303 208.588C252.303 209.14 251.856 209.588 251.303 209.588H158.992C158.44 209.588 157.992 209.14 157.992 208.588ZM158.994 218.237C158.442 218.237 157.994 218.685 157.994 219.237C157.994 219.79 158.442 220.237 158.994 220.237H239.766C240.319 220.237 240.766 219.79 240.766 219.237C240.766 218.685 240.319 218.237 239.766 218.237H158.994ZM55.0254 258.293C55.0254 257.741 55.4731 257.293 56.0254 257.293H148.337C148.889 257.293 149.337 257.741 149.337 258.293C149.337 258.845 148.889 259.293 148.337 259.293H56.0254C55.4731 259.293 55.0254 258.845 55.0254 258.293ZM56.0254 267.944C55.4731 267.944 55.0254 268.392 55.0254 268.944C55.0254 269.497 55.4731 269.944 56.0254 269.944H135.022C135.575 269.944 136.022 269.497 136.022 268.944C136.022 268.392 135.575 267.944 135.022 267.944H56.0254ZM55.0254 279.597C55.0254 279.044 55.4731 278.597 56.0254 278.597H148.337C148.889 278.597 149.337 279.044 149.337 279.597C149.337 280.149 148.889 280.597 148.337 280.597H56.0254C55.4731 280.597 55.0254 280.149 55.0254 279.597ZM56.0254 289.247C55.4731 289.247 55.0254 289.695 55.0254 290.247C55.0254 290.799 55.4731 291.247 56.0254 291.247H135.022C135.575 291.247 136.022 290.799 136.022 290.247C136.022 289.695 135.575 289.247 135.022 289.247H56.0254ZM157.994 258.293C157.994 257.741 158.442 257.293 158.994 257.293H239.766C240.319 257.293 240.766 257.741 240.766 258.293C240.766 258.845 240.319 259.293 239.766 259.293H158.994C158.442 259.293 157.994 258.845 157.994 258.293ZM158.992 267.944C158.44 267.944 157.992 268.392 157.992 268.944C157.992 269.497 158.44 269.944 158.992 269.944H251.303C251.856 269.944 252.303 269.497 252.303 268.944C252.303 268.392 251.856 267.944 251.303 267.944H158.992ZM157.994 279.597C157.994 279.044 158.442 278.597 158.994 278.597H239.766C240.319 278.597 240.766 279.044 240.766 279.597C240.766 280.149 240.319 280.597 239.766 280.597H158.994C158.442 280.597 157.994 280.149 157.994 279.597ZM158.994 289.247C158.442 289.247 157.994 289.695 157.994 290.247C157.994 290.799 158.442 291.247 158.994 291.247H251.305C251.858 291.247 252.305 290.799 252.305 290.247C252.305 289.695 251.858 289.247 251.305 289.247H158.994Z" fill="url(#paint0_linear_2408_28760)"/>
<defs>
<linearGradient id="paint0_linear_2408_28760" x1="-31.0226" y1="300.899" x2="451.672" y2="185.314" gradientUnits="userSpaceOnUse">
<stop offset="0.10884" stop-color="#26A0F4"/>
<stop offset="1" stop-color="#D800FF"/>
</linearGradient>
</defs>
</svg>
