<?xml version="1.0" encoding="UTF-8" standalone="no"?>
<svg width="44px" height="27px" viewBox="0 0 44 27" version="1.1" xmlns="http://www.w3.org/2000/svg" xmlns:xlink="http://www.w3.org/1999/xlink">
    <!-- Generator: Sketch 42 (36781) - http://www.bohemiancoding.com/sketch -->
    <title>mastercard</title>
    <desc>Created with Sketch.</desc>
    <defs></defs>
    <g id="Page-1" stroke="none" stroke-width="1" fill="none" fill-rule="evenodd">
        <g id="Mobile-Portrait-Copy-30" transform="translate(-73.000000, -162.000000)">
            <g id="mastercard" transform="translate(73.000000, 162.000000)">
                <rect id="Rectangle-1" fill="#000000" x="0" y="0" width="43.3821138" height="27" rx="2.3226831"></rect>
                <path d="M25.1042653,13.5 C25.1042653,19.1832803 20.4553897,23.7900479 14.7209972,23.7900479 C8.98660476,23.7900479 4.33821123,19.1832803 4.33821123,13.5 C4.33821123,7.81719741 8.98660476,3.20995218 14.7209972,3.20995218 C20.4553897,3.20995218 25.1042653,7.81719741 25.1042653,13.5" id="Fill-1" fill="#D9222A"></path>
                <path d="M28.6606345,3.20995218 C25.9779328,3.20995218 23.5333507,4.21863052 21.6905748,5.87364644 C21.3153196,6.21090762 20.9648885,6.57515924 20.6421738,6.9625796 L22.73994,6.9625796 C23.026744,7.30820064 23.2908928,7.67173563 23.5314226,8.05246813 L19.8506912,8.05246813 C19.6301655,8.40238854 19.4298847,8.76592353 19.2525001,9.14211785 L24.1293727,9.14211785 C24.2959118,9.49514331 24.442929,9.85843949 24.5689782,10.2315286 L18.8128946,10.2315286 C18.6928708,10.586465 18.5918869,10.9497611 18.5111479,11.3211784 L24.8704838,11.3211784 C25.0230443,12.0234077 25.1042653,12.7523886 25.1042653,13.5 C25.1042653,14.6426752 24.9160351,15.7421179 24.5689782,16.7687102 L18.8128946,16.7687102 C18.9387028,17.1420383 19.0857199,17.5055733 19.252259,17.8583599 L24.1293727,17.8583599 C23.9515061,18.2345542 23.7517073,18.5980893 23.5309405,18.9482485 L19.8506912,18.9482485 C20.0909799,19.3282644 20.3556108,19.6922772 20.6421738,20.0371816 L22.739458,20.0371816 C22.4172253,20.4253186 22.0665532,20.7900479 21.6908159,21.1270702 C23.5335917,22.7818472 25.9779328,23.7900479 28.6606345,23.7900479 C34.395027,23.7900479 39.0439026,19.1832803 39.0439026,13.5 C39.0439026,7.81743629 34.395027,3.20995218 28.6606345,3.20995218" id="Fill-2" fill="#EE9F2D"></path>
                <path d="M37.6600131,19.2358281 C37.6600131,19.0523886 37.8099224,18.903344 37.9952604,18.903344 C38.1805985,18.903344 38.3305078,19.0523886 38.3305078,19.2358281 C38.3305078,19.4192676 38.1805985,19.5683122 37.9952604,19.5683122 C37.8099224,19.5683122 37.6600131,19.4192676 37.6600131,19.2358281 L37.6600131,19.2358281 L37.6600131,19.2358281 L37.6600131,19.2358281 Z M37.9952604,19.4885351 C38.1360113,19.4885351 38.2502509,19.3753185 38.2502509,19.2358281 C38.2502509,19.0960988 38.1360113,18.9833599 37.9952604,18.9833599 C37.8542686,18.9833599 37.7405111,19.0960988 37.7405111,19.2358281 C37.7405111,19.3753185 37.8542686,19.4885351 37.9952604,19.4885351 L37.9952604,19.4885351 L37.9952604,19.4885351 L37.9952604,19.4885351 Z M37.9499503,19.3820065 L37.8812619,19.3820065 L37.8812619,19.0898886 L38.005624,19.0898886 C38.0316532,19.0898886 38.0581645,19.0898886 38.0810607,19.1044587 C38.1049208,19.1204619 38.1184175,19.1486466 38.1184175,19.1777867 C38.1184175,19.2105096 38.0988955,19.2410829 38.067323,19.2530256 L38.1215506,19.3820065 L38.0453909,19.3820065 L38.0003217,19.2664014 L37.9499503,19.2664014 L37.9499503,19.3820065 L37.9499503,19.3820065 L37.9499503,19.3820065 Z M37.9499503,19.241453 L37.9891562,19.241453 C38.0037964,19.241453 38.019181,19.2430504 38.0323323,19.2337854 C38.0439949,19.2242009 38.0499503,19.2063099 38.0499503,19.1890579 C38.0499503,19.1740422 38.0427542,19.1567901 38.0328287,19.149442 C38.0204217,19.139538 38.0008187,19.1417745 37.9876673,19.1417745 L37.9499503,19.1417745 L37.9499503,19.241453 L37.9499503,19.241453 L37.9499503,19.241453 Z" id="Fill-3" fill="#000000"></path>
                <path d="M12.29666,14.626672 C12.1783233,14.6130573 12.1262648,14.6094745 12.0450438,14.6094745 C11.4061217,14.6094745 11.0826839,14.8265924 11.0826839,15.2553344 C11.0826839,15.5197453 11.2405466,15.6878981 11.4868606,15.6878981 C11.945988,15.6878981 12.2768971,15.2546179 12.29666,14.626672 L12.29666,14.626672 L12.29666,14.626672 L12.29666,14.626672 Z M13.116341,16.5181529 L12.1824205,16.5181529 L12.2038706,16.0781848 C11.9189947,16.4259555 11.5389191,16.5912421 11.022431,16.5912421 C10.4114662,16.5912421 9.9925878,16.1183122 9.9925878,15.4316083 C9.9925878,14.3983281 10.7211663,13.7954618 11.9717763,13.7954618 C12.0995125,13.7954618 12.2634004,13.8069268 12.4311446,13.8281848 C12.4660913,13.6882166 12.4752497,13.6282643 12.4752497,13.5530255 C12.4752497,13.2716561 12.2788252,13.1667994 11.7522145,13.1667994 C11.2007797,13.1605892 10.7459905,13.2969746 10.5592064,13.3578822 C10.571016,13.2874204 10.715382,12.4029459 10.715382,12.4029459 C11.2771804,12.2398089 11.6476154,12.1784236 12.0645657,12.1784236 C13.0324689,12.1784236 13.5451009,12.6090765 13.5441369,13.4230892 C13.546065,13.6411624 13.5096722,13.9103504 13.4527934,14.2640924 C13.3549427,14.8791402 13.1450214,16.1968949 13.116341,16.5181529 L13.116341,16.5181529 L13.116341,16.5181529 L13.116341,16.5181529 Z" id="Fill-4" fill="#000000"></path>
                <polyline id="Fill-5" fill="#000000" points="9.5209278 16.5181529 8.39371587 16.5181529 9.03938633 12.5056529 7.59765408 16.5181529 6.82954964 16.5181529 6.73459099 12.5285828 6.05590194 16.5181529 5.00075252 16.5181529 5.88213246 11.2984872 7.50293647 11.2984872 7.60126926 14.2201434 8.58989945 11.2984872 10.3926673 11.2984872 9.5209278 16.5181529"></polyline>
                <path d="M30.0536824,14.626672 C29.9358277,14.6130573 29.8835281,14.6094745 29.8025482,14.6094745 C29.163867,14.6094745 28.8404293,14.8265924 28.8404293,15.2553344 C28.8404293,15.5197453 28.998051,15.6878981 29.244365,15.6878981 C29.7034924,15.6878981 30.0346425,15.2546179 30.0536824,14.626672 L30.0536824,14.626672 L30.0536824,14.626672 L30.0536824,14.626672 Z M30.8740864,16.5181529 L29.9401659,16.5181529 L29.961375,16.0781848 C29.6764991,16.4259555 29.2961825,16.5912421 28.7801764,16.5912421 C28.1689706,16.5912421 27.7505742,16.1183122 27.7505742,15.4316083 C27.7505742,14.3983281 28.4786707,13.7954618 29.7295216,13.7954618 C29.8572579,13.7954618 30.0209048,13.8069268 30.188408,13.8281848 C30.2233547,13.6882166 30.2325132,13.6282643 30.2325132,13.5530255 C30.2325132,13.2716561 30.0363296,13.1667994 29.5097189,13.1667994 C28.9582841,13.1605892 28.5039769,13.2969746 28.3164698,13.3578822 C28.3282794,13.2874204 28.4731274,12.4029459 28.4731274,12.4029459 C29.0349258,12.2398089 29.4051198,12.1784236 29.8215881,12.1784236 C30.7899733,12.1784236 31.3026053,12.6090765 31.3016413,13.4230892 C31.3035693,13.6411624 31.2671766,13.9103504 31.2102978,14.2640924 C31.1129291,14.8791402 30.9025258,16.1968949 30.8740864,16.5181529 L30.8740864,16.5181529 L30.8740864,16.5181529 L30.8740864,16.5181529 Z" id="Fill-6" fill="#000000"></path>
                <path d="M18.1260112,16.4536625 C17.8175162,16.5499205 17.5769864,16.5912421 17.3162117,16.5912421 C16.7399526,16.5912421 16.4254323,16.2630574 16.4254323,15.658758 C16.4172379,15.471258 16.5083403,14.9777866 16.5799208,14.527309 C16.644994,14.1308121 17.0686926,11.6307325 17.0686926,11.6307325 L18.1891563,11.6307325 L18.0582869,12.2732484 L18.7350479,12.2732484 L18.5822464,13.2933918 L17.9030753,13.2933918 C17.7729289,14.1007166 17.5875909,15.1062898 17.5854218,15.2395701 C17.5854218,15.4583599 17.7032766,15.5539013 17.9712816,15.5539013 C18.0997409,15.5539013 18.1992788,15.5410032 18.2751975,15.5137739 L18.1260112,16.4536625" id="Fill-7" fill="#000000"></path>
                <path d="M21.5613926,16.4192676 C21.1764968,16.5358281 20.8050977,16.5921975 20.4115255,16.5912421 C19.1573004,16.5900478 18.5034356,15.940844 18.5034356,14.6976115 C18.5034356,13.2465765 19.3351671,12.1784236 20.4643071,12.1784236 C21.3881051,12.1784236 21.9781019,12.7765128 21.9781019,13.7144905 C21.9781019,14.0257166 21.9376119,14.3295383 21.8400022,14.7585191 L19.6087154,14.7585191 C19.5332788,15.3742835 19.9309481,15.6308121 20.5826439,15.6308121 C20.9836874,15.6308121 21.3454461,15.5488854 21.7476946,15.3635351 L21.5613926,16.4192676 L21.5613926,16.4192676 L21.5613926,16.4192676 Z M20.9316289,13.9027071 C20.9378952,13.8143312 21.0504477,13.1450637 20.4103205,13.1450637 C20.0533821,13.1450637 19.7981506,13.4147293 19.6942746,13.9027071 L20.9316289,13.9027071 L20.9316289,13.9027071 L20.9316289,13.9027071 Z" id="Fill-8" fill="#000000"></path>
                <path d="M13.792379,13.6151274 C13.792379,14.1520701 14.0550818,14.522293 14.6508628,14.8003185 C15.1073391,15.0128981 15.1779555,15.0759554 15.1779555,15.2687102 C15.1779555,15.5333599 14.9767107,15.6527866 14.5305979,15.6527866 C14.1943866,15.6527866 13.8815533,15.6007166 13.5207587,15.4853504 C13.5207587,15.4853504 13.3725365,16.4209396 13.3657882,16.4656051 C13.6219837,16.5210192 13.8504628,16.5723726 14.5387924,16.5912421 C15.7281853,16.5912421 16.2774511,16.1424363 16.2774511,15.1724523 C16.2774511,14.589172 16.0475258,14.2468949 15.4828353,13.9896497 C15.0102113,13.7746815 14.9559837,13.726672 14.9559837,13.5284236 C14.9559837,13.2988854 15.1432498,13.1818471 15.5076596,13.1818471 C15.7289083,13.1818471 16.0311371,13.2052548 16.317459,13.245621 L16.4779728,12.2610669 C16.1861076,12.215207 15.7436101,12.1784236 15.4859685,12.1784236 C14.2249951,12.1784236 13.7885228,12.8312102 13.792379,13.6151274" id="Fill-9" fill="#000000"></path>
                <path d="M27.0434457,12.2899682 C27.35652,12.2899682 27.6483852,12.3714172 28.0506338,12.5720541 L28.2350078,11.439172 C28.0699147,11.3749204 27.4885944,10.9977707 26.9962074,10.9977707 C26.2418407,10.9977707 25.6041236,11.3687102 25.1556008,11.9808917 C24.5014949,11.7661624 24.2325257,12.2001592 23.9028217,12.6324841 L23.6099924,12.7000797 C23.6321655,12.5577229 23.6521695,12.4163217 23.6454211,12.2732484 L22.6102757,12.2732484 C22.4688018,13.5869427 22.2181496,14.9175956 22.021966,16.2329618 L21.9708715,16.5181529 L23.0985655,16.5181529 C23.2867957,15.3062102 23.3899487,14.5301752 23.4526118,14.0049363 L23.8772744,13.7708599 C23.9406605,13.5370223 24.1392542,13.4579618 24.5376466,13.467516 C24.4855881,13.744586 24.4576307,14.0359873 24.4576307,14.3378981 C24.4576307,15.7265924 25.2136846,16.5912421 26.4271787,16.5912421 C26.739771,16.5912421 27.008017,16.5503981 27.4232803,16.4388536 L27.6216329,15.2488854 C27.2480647,15.4311306 26.9414978,15.516879 26.6638523,15.516879 C26.0085413,15.516879 25.612077,15.0375 25.612077,14.245223 C25.612077,13.0958599 26.2018327,12.2899682 27.0434457,12.2899682" id="Fill-10" fill="#000000"></path>
                <polyline id="Fill-12" fill="#FFFFFF" points="9.84532958 16.2081211 8.71787669 16.2081211 9.36402915 12.1960987 7.9222969 16.2081211 7.15395143 16.2081211 7.05899284 12.2190287 6.38030373 16.2081211 5.32515433 16.2081211 6.2065343 10.989172 7.82733826 10.989172 7.87288948 14.2201434 8.96635978 10.989172 10.7170691 10.989172 9.84532958 16.2081211"></polyline>
                <path d="M36.5867878,11.2984872 L36.3368587,12.8066083 C36.0286046,12.4046179 35.6974545,12.1136943 35.2602592,12.1136943 C34.6914714,12.1136943 34.1737782,12.5410032 33.8349157,13.1699045 C33.3630147,13.0729299 32.8749659,12.9083599 32.8749659,12.9083599 L32.8747249,12.9121816 C32.9128048,12.5605892 32.9279885,12.3460988 32.9246144,12.2732484 L31.8892279,12.2732484 C31.748236,13.5869427 31.4975838,14.9175956 31.3016413,16.2329618 L31.2500647,16.5181529 L32.3775177,16.5181529 C32.5298371,15.538137 32.6464868,14.7243631 32.732287,14.0789809 C33.1174237,13.7340765 33.3102331,13.4331211 33.6994671,13.4531848 C33.5271437,13.8661625 33.4261598,14.3419587 33.4261598,14.8299364 C33.4261598,15.8911625 33.9679542,16.5912421 34.7873942,16.5912421 C35.2004882,16.5912421 35.5174187,16.4500797 35.8266368,16.1228504 L35.7738552,16.5174364 L36.8400912,16.5174364 L37.698575,11.2984872 L36.5867878,11.2984872 L36.5867878,11.2984872 L36.5867878,11.2984872 Z M35.1771101,15.5371816 C34.7934194,15.5371816 34.599646,15.2558121 34.599646,14.7004777 C34.599646,13.8661625 34.9623687,13.2745223 35.4737956,13.2745223 C35.8611015,13.2745223 36.0707817,13.5671179 36.0707817,14.1062102 C36.0707817,14.9476911 35.7022747,15.5371816 35.1771101,15.5371816 L35.1771101,15.5371816 L35.1771101,15.5371816 L35.1771101,15.5371816 Z" id="Fill-11" fill="#000000"></path>
                <path d="M12.6208209,14.3173567 C12.5027251,14.3037421 12.4504256,14.3001593 12.3694456,14.3001593 C11.7305235,14.3001593 11.4073267,14.5172771 11.4073267,14.9460192 C11.4073267,15.2099522 11.5651894,15.3785828 11.8110214,15.3785828 C12.2706308,15.3785828 12.6015399,14.9453026 12.6208209,14.3173567 L12.6208209,14.3173567 L12.6208209,14.3173567 L12.6208209,14.3173567 Z M13.4409838,16.2081211 L12.5070633,16.2081211 L12.5282724,15.7688694 C12.2436375,16.1159236 11.8630799,16.2819268 11.3470738,16.2819268 C10.735868,16.2819268 10.3172306,15.8089968 10.3172306,15.1222931 C10.3172306,14.0885351 11.0455681,13.4861465 12.2964191,13.4861465 C12.4241553,13.4861465 12.5880432,13.4976115 12.7555464,13.5188694 C12.7904932,13.3789013 12.7996516,13.3189491 12.7996516,13.2432325 C12.7996516,12.9618631 12.603468,12.8574841 12.0768573,12.8574841 C11.5251815,12.8512739 11.0706333,12.9876592 10.8836082,13.0478503 C10.8954178,12.9776274 11.0397838,12.0941083 11.0397838,12.0941083 C11.6013412,11.9302548 11.9722583,11.8688695 12.3887266,11.8688695 C13.3568707,11.8688695 13.8697437,12.2997611 13.8687797,13.1130573 C13.8704668,13.332086 13.833833,13.601035 13.7771952,13.9542994 C13.6795855,14.5691083 13.4694232,15.8875797 13.4409838,16.2081211 L13.4409838,16.2081211 L13.4409838,16.2081211 L13.4409838,16.2081211 Z" id="Fill-13" fill="#FFFFFF"></path>
                <path d="M28.5596506,11.1296178 L28.3750356,12.2627389 C27.973028,12.0623408 27.6809218,11.9806529 27.3680886,11.9806529 C26.5264756,11.9806529 25.9364788,12.7865446 25.9364788,13.9359077 C25.9364788,14.7281848 26.3331841,15.2073249 26.988254,15.2073249 C27.2658996,15.2073249 27.5722255,15.1218153 27.9457937,14.9393312 L27.7479231,16.1288217 C27.3324188,16.2410829 27.0644138,16.2819268 26.7515805,16.2819268 C25.5383274,16.2819268 24.7820325,15.4172771 24.7820325,14.0285828 C24.7820325,12.1626593 25.8265775,10.8585191 27.3206093,10.8585191 C27.8127552,10.8585191 28.3943166,11.0653663 28.5596506,11.1296178" id="Fill-14" fill="#FFFFFF"></path>
                <path d="M30.3783253,14.3173567 C30.2602295,14.3037421 30.208171,14.3001593 30.12695,14.3001593 C29.4882689,14.3001593 29.1648311,14.5172771 29.1648311,14.9460192 C29.1648311,15.2099522 29.3226938,15.3785828 29.5687668,15.3785828 C30.0278942,15.3785828 30.3590443,14.9453026 30.3783253,14.3173567 L30.3783253,14.3173567 L30.3783253,14.3173567 L30.3783253,14.3173567 Z M31.1984882,16.2081211 L30.2643267,16.2081211 L30.2857768,15.7688694 C30.0009009,16.1159236 29.6205843,16.2819268 29.1045782,16.2819268 C28.4936134,16.2819268 28.074735,15.8089968 28.074735,15.1222931 C28.074735,14.0885351 28.8033135,13.4861465 30.0536824,13.4861465 C30.1816597,13.4861465 30.3453067,13.4976115 30.5130508,13.5188694 C30.5477565,13.3789013 30.557156,13.3189491 30.557156,13.2432325 C30.557156,12.9618631 30.3609724,12.8574841 29.8343617,12.8574841 C29.2829269,12.8512739 28.8281377,12.9876592 28.6411126,13.0478503 C28.6529222,12.9776274 28.7975292,12.0941083 28.7975292,12.0941083 C29.3590866,11.9302548 29.7297627,11.8688695 30.146231,11.8688695 C31.1146162,11.8688695 31.6272481,12.2997611 31.626043,13.1130573 C31.6279712,13.332086 31.5915784,13.601035 31.5346996,13.9542994 C31.4373308,14.5691083 31.2266866,15.8875797 31.1984882,16.2081211 L31.1984882,16.2081211 L31.1984882,16.2081211 L31.1984882,16.2081211 Z" id="Fill-15" fill="#FFFFFF"></path>
                <path d="M18.450413,16.1438695 C18.1416769,16.2401274 17.9011472,16.2819268 17.6406135,16.2819268 C17.0643544,16.2819268 16.7498341,15.9537421 16.7498341,15.3494427 C16.7418807,15.161465 16.8329831,14.6684714 16.9045636,14.2179937 C16.9693958,13.8210192 17.3930944,11.3211784 17.3930944,11.3211784 L18.513317,11.3211784 L18.3826887,11.9639331 L18.9577427,11.9639331 L18.8047002,12.9835987 L18.2277181,12.9835987 C18.0975718,13.7914013 17.9117517,14.796258 17.9098236,14.9297771 C17.9098236,15.1492835 18.0279194,15.2441083 18.2956834,15.2441083 C18.4241427,15.2441083 18.5234395,15.2316879 18.5995992,15.2044586 L18.450413,16.1438695" id="Fill-16" fill="#FFFFFF"></path>
                <path d="M21.8857944,16.1099522 C21.5011396,16.2265128 21.1292585,16.2826434 20.7359274,16.2819268 C19.4817022,16.2807325 18.8278373,15.6315287 18.8278373,14.3882962 C18.8278373,12.9367834 19.6595689,11.8688695 20.7887089,11.8688695 C21.7125069,11.8688695 22.3025037,12.4667197 22.3025037,13.4051752 C22.3025037,13.7166401 22.2620137,14.0204618 22.164645,14.4492039 L19.9333583,14.4492039 C19.8579216,15.0649682 20.2555909,15.3217357 20.9072867,15.3217357 C21.3080892,15.3217357 21.6700889,15.2395701 22.0720965,15.0537421 L21.8857944,16.1099522 L21.8857944,16.1099522 L21.8857944,16.1099522 Z M21.2557897,13.5926752 C21.262538,13.5045382 21.3748495,12.8350318 20.7344813,12.8350318 C20.3777839,12.8350318 20.1225525,13.105414 20.0186764,13.5926752 L21.2557897,13.5926752 L21.2557897,13.5926752 L21.2557897,13.5926752 Z" id="Fill-17" fill="#FFFFFF"></path>
                <path d="M14.1167808,13.3058121 C14.1167808,13.8427548 14.3794836,14.2125 14.9752646,14.4910032 C15.4317409,14.7035828 15.5023573,14.766879 15.5023573,14.9593949 C15.5023573,15.2240446 15.3008715,15.3434714 14.8552408,15.3434714 C14.5187883,15.3434714 14.2059551,15.2914013 13.8449195,15.1760351 C13.8449195,15.1760351 13.6971793,16.1116242 13.690431,16.1562899 C13.9461444,16.2117039 14.1748646,16.2623408 14.8631941,16.2819268 C16.0528281,16.2819268 16.6018529,15.8331211 16.6018529,14.8633758 C16.6018529,14.2798567 16.3721687,13.9375797 15.8072372,13.6803344 C15.3348541,13.4648885 15.2801445,13.4175955 15.2801445,13.2191083 C15.2801445,12.9898089 15.4678926,12.8718153 15.8320614,12.8718153 C16.0530692,12.8718153 16.3552979,12.8959395 16.6421018,12.9363058 L16.8023746,11.9515127 C16.5107505,11.9056529 16.0682529,11.8688695 15.8106113,11.8688695 C14.5493969,11.8688695 14.1131656,12.5211783 14.1167808,13.3058121" id="Fill-18" fill="#FFFFFF"></path>
                <path d="M37.164493,16.2081211 L36.098016,16.2081211 L36.1510386,15.8130574 C35.8418205,16.1407644 35.5248901,16.2819268 35.1117959,16.2819268 C34.292356,16.2819268 33.7508026,15.5818472 33.7508026,14.520621 C33.7508026,13.108758 34.5907286,11.918551 35.584902,11.918551 C36.0220973,11.918551 36.3530064,12.0955414 36.6610194,12.497293 L36.9111897,10.989172 L38.0229768,10.989172 L37.164493,16.2081211 L37.164493,16.2081211 L37.164493,16.2081211 Z M35.501753,15.2273886 C36.0266765,15.2273886 36.3954245,14.6378981 36.3954245,13.7968949 C36.3954245,13.2578025 36.1855033,12.965207 35.7981974,12.965207 C35.2870115,12.965207 34.9238068,13.5566083 34.9238068,14.3911625 C34.9238068,14.9464969 35.1180622,15.2273886 35.501753,15.2273886 L35.501753,15.2273886 L35.501753,15.2273886 L35.501753,15.2273886 Z" id="Fill-19" fill="#FFFFFF"></path>
                <path d="M32.2138707,11.9639331 C32.0726378,13.2776274 31.8219856,14.6082803 31.626043,15.92293 L31.5744666,16.2081211 L32.7019195,16.2081211 C33.1051321,13.6127389 33.2027419,13.1058917 33.8349157,13.1694268 C33.9356586,12.6382166 34.1231658,12.1729299 34.2629526,11.938137 C33.7908106,11.8406847 33.5271437,12.1050956 33.1820149,12.6074045 C33.2092492,12.3902866 33.2591386,12.179379 33.2492572,11.9639331 L32.2138707,11.9639331" id="Fill-20" fill="#FFFFFF"></path>
                <path d="M22.9346775,11.9639331 C22.7932036,13.2776274 22.5425514,14.6082803 22.3466088,15.92293 L22.2952733,16.2081211 L23.4232083,16.2081211 C23.8259389,13.6127389 23.9233077,13.1058917 24.5552405,13.1694268 C24.6564654,12.6382166 24.8439726,12.1729299 24.9832773,11.938137 C24.5116173,11.8406847 24.2477095,12.1050956 23.9028217,12.6074045 C23.930056,12.3902866 23.9794634,12.179379 23.970064,11.9639331 L22.9346775,11.9639331" id="Fill-21" fill="#FFFFFF"></path>
            </g>
        </g>
    </g>
</svg>