<?xml version="1.0" encoding="UTF-8" standalone="no"?>
<svg width="45px" height="27px" viewBox="0 0 45 27" version="1.1" xmlns="http://www.w3.org/2000/svg" xmlns:xlink="http://www.w3.org/1999/xlink">
    <!-- Generator: Sketch 42 (36781) - http://www.bohemiancoding.com/sketch -->
    <title>visa</title>
    <desc>Created with Sketch.</desc>
    <defs></defs>
    <g id="Page-1" stroke="none" stroke-width="1" fill="none" fill-rule="evenodd">
        <g id="Mobile-Portrait-Copy-30" transform="translate(-25.000000, -162.000000)">
            <g id="visa" transform="translate(25.000000, 162.000000)">
                <rect id="Rectangle-1" fill="#0E4595" x="0" y="0" width="44.3252033" height="27" rx="2.34425087"></rect>
                <polygon id="Shape" fill="#FFFFFF" points="16.4415476 19.1595382 18.4131918 7.93751274 21.5667231 7.93751274 19.5937197 19.1595382 16.4415476 19.1595382"></polygon>
                <path d="M30.9867153,8.17953822 C30.3619073,7.9521879 29.3829704,7.70821338 28.1603631,7.70821338 C25.0443604,7.70821338 22.8493763,9.23024522 22.8307006,11.4116274 C22.8131479,13.0241178 24.3976852,13.9236592 25.5938747,14.460449 C26.8213282,15.0104809 27.2340254,15.3613089 27.2281745,15.8524682 C27.2203733,16.6046847 26.2479374,16.9483471 25.3415166,16.9483471 C24.0793121,16.9483471 23.4087604,16.7782643 22.3731463,16.3592771 L21.9667729,16.1808822 L21.5241709,18.693086 C22.2607376,19.0063089 23.6227625,19.277742 25.0369729,19.2917866 C28.351848,19.2917866 30.503807,17.7871815 30.5282745,15.4577866 C30.5401537,14.1812197 29.6999842,13.2096783 27.8806415,12.408793 C26.7783623,11.8896592 26.103319,11.5432452 26.1104702,11.0175764 C26.1104702,10.5511242 26.6818516,10.0523408 27.9163972,10.0523408 C28.9476378,10.0368057 29.6946061,10.2549268 30.2766256,10.4822771 L30.5592431,10.6117739 L30.9867153,8.17953822" id="path13" fill="#FFFFFF"></path>
                <path d="M39.1015962,7.93751274 L36.664833,7.93751274 C35.9099452,7.93751274 35.3450648,8.13734713 35.0135123,8.8681242 L30.3301113,19.1523726 L33.6415586,19.1523726 C33.6415586,19.1523726 34.1830353,17.7695828 34.3054911,17.4659904 C34.667362,17.4659904 37.8842489,17.4708057 38.3441672,17.4708057 C38.4384912,17.8636529 38.7278461,19.1523726 38.7278461,19.1523726 L41.6540188,19.1523726 L39.1015962,7.93751274 L39.1015962,7.93751274 L39.1015962,7.93751274 Z M35.2354338,15.1837739 C35.4962433,14.537207 36.4918465,12.0467866 36.4918465,12.0467866 C36.4732299,12.0766529 36.7507057,11.3970669 36.9099809,10.9757293 L37.1231556,11.943258 C37.1231556,11.943258 37.726983,14.6219904 37.8531621,15.1837166 L35.2354338,15.1837166 L35.2354338,15.1837739 L35.2354338,15.1837739 L35.2354338,15.1837739 Z" id="Path" fill="#FFFFFF"></path>
                <path d="M13.7646009,7.93751274 L10.6772027,15.5900924 L10.3482506,14.0349268 C9.77350047,12.2421497 7.98276225,10.2998694 5.98079967,9.32746815 L8.80384232,19.1416529 L12.1403481,19.1379268 L17.1050073,7.93751274 L13.7646009,7.93751274" id="path16" fill="#FFFFFF"></path>
                <path d="M7.7964782,7.93751274 L2.71143178,7.93751274 L2.6711845,8.17099682 C6.62729754,9.09988854 9.24502584,11.344672 10.3316434,14.0418631 L9.22593646,8.88492038 C9.03504258,8.17432166 8.48139124,7.96227707 7.7964782,7.93751274" id="path18" fill="#F2AE14"></path>
            </g>
        </g>
    </g>
</svg>