<?xml version="1.0" encoding="UTF-8"?>
<svg width="15px" height="15px" viewBox="0 0 15 15" version="1.1" xmlns="http://www.w3.org/2000/svg" xmlns:xlink="http://www.w3.org/1999/xlink">
    <!-- Generator: Sketch 43.2 (39069) - http://www.bohemiancoding.com/sketch -->
    <title>google-plus copy</title>
    <desc>Created with Sketch.</desc>
    <defs></defs>
    <g id="Page-1" stroke="none" stroke-width="1" fill="none" fill-rule="evenodd">
        <g id="Create-account-D_5-Copy-4" transform="translate(-691.000000, -494.000000)" fill-rule="nonzero" fill="#FFFFFF">
            <g id="Group-3" transform="translate(564.000000, 485.000000)">
                <g id="google-plus-copy" transform="translate(127.000000, 9.000000)">
                    <path d="M7.92852003,8.49435864 L11.4590901,8.49435864 C10.8393639,10.1959314 9.16092046,11.4159107 7.19591466,11.4018307 C4.81164319,11.3847336 2.84017728,9.53239946 2.74761533,7.21858612 C2.64839603,4.73835102 4.69733387,2.68985469 7.22959597,2.68985469 C8.38743398,2.68985469 9.44403082,3.11828898 10.2405961,3.82032544 C10.4292706,3.98665143 10.716474,3.98770503 10.9020417,3.81807456 L12.1987966,2.63281633 C12.4015749,2.44742966 12.4023146,2.13436517 12.2001281,1.94835592 C10.9368573,0.786085442 9.24223887,0.0616359184 7.37349355,0.0261964626 C3.38765876,-0.0493757823 0.0279609077,3.12432327 0.000197255081,6.99584435 C-0.0278129664,10.8964354 3.21964674,14.0669257 7.22959597,14.0669257 C11.0858835,14.0669257 14.2361457,11.1345981 14.4471594,7.44080109 C14.4527811,7.39449034 14.4564797,5.82935946 14.4564797,5.82935946 L7.92852003,5.82935946 C7.66094351,5.82935946 7.44406155,6.03998476 7.44406155,6.29984218 L7.44406155,8.02387592 C7.44406155,8.28373333 7.66099283,8.49435864 7.92852003,8.49435864 Z" id="Shape"></path>
                </g>
            </g>
        </g>
    </g>
</svg>