<?xml version="1.0" encoding="UTF-8"?>
<svg width="17px" height="16px" viewBox="0 0 17 16" version="1.1" xmlns="http://www.w3.org/2000/svg" xmlns:xlink="http://www.w3.org/1999/xlink">
    <!-- Generator: Sketch 43.2 (39069) - http://www.bohemiancoding.com/sketch -->
    <title>linkedin-logo copy</title>
    <desc>Created with Sketch.</desc>
    <defs></defs>
    <g id="Page-1" stroke="none" stroke-width="1" fill="none" fill-rule="evenodd">
        <g id="Create-account-D_5-Copy-4" transform="translate(-788.000000, -492.000000)" fill-rule="nonzero" fill="#FFFFFF">
            <g id="Group-3" transform="translate(564.000000, 485.000000)">
                <g id="linkedin-logo-copy" transform="translate(224.000000, 7.000000)">
                    <path d="M16.6364348,9.80749515 L16.6364348,15.9829126 L13.0707081,15.9829126 L13.0707081,10.2210874 C13.0707081,8.7736699 12.5549642,7.78586408 11.2642894,7.78586408 C10.2790228,7.78586408 9.69269,8.45157282 9.43474069,9.09553398 C9.3406737,9.32574757 9.31646073,9.64617476 9.31646073,9.96842718 L9.31646073,15.9829126 L5.74953503,15.9829126 C5.74953503,15.9829126 5.79757418,6.22427184 5.74953503,5.21320388 L9.31611262,5.21320388 L9.31611262,6.73976699 C9.30887968,6.75118447 9.29948072,6.76349515 9.29267324,6.77456311 L9.31611262,6.77456311 L9.31611262,6.73976699 C9.78996733,6.00699029 10.6362221,4.96019417 12.5304032,4.96019417 C14.8771656,4.96015534 16.6364348,6.49945631 16.6364348,9.80749515 Z M2.0183789,0.0216699029 C0.798138256,0.0216699029 0,0.825281553 0,1.88205825 C0,2.91580583 0.775046977,3.74380583 1.97103598,3.74380583 L1.99486215,3.74380583 C3.23873558,3.74380583 4.01231276,2.91596117 4.01231276,1.88205825 C3.98887337,0.825281553 3.23873558,0.0216699029 2.0183789,0.0216699029 Z M0.211844111,15.9829126 L3.77741605,15.9829126 L3.77741605,5.21320388 L0.211844111,5.21320388 L0.211844111,15.9829126 Z" id="LinkedIn"></path>
                </g>
            </g>
        </g>
    </g>
</svg>