<?xml version="1.0" encoding="UTF-8"?>
<svg width="207px" height="42px" viewBox="0 0 207 42" version="1.1" xmlns="http://www.w3.org/2000/svg" xmlns:xlink="http://www.w3.org/1999/xlink">
    <!-- Generator: Sketch 55.1 (78136) - https://sketchapp.com -->
    <title>Group 19</title>
    <desc>Created with Sketch.</desc>
    <g id="Page-1" stroke="none" stroke-width="1" fill="none" fill-rule="evenodd">
        <g id="RC-3243-CV-WINNER-LOGO-APP" transform="translate(-16.000000, -9.000000)">
            <g id="Group-19" transform="translate(16.000000, 9.000000)">
                <path d="M8.31325301e-05,38.2146539 L8.31325301e-05,2.88414756 C8.31325301e-05,1.29128348 1.29196265,4.15457507e-05 2.88561325,4.15457507e-05 L55.4889687,4.15457507e-05 C57.0830349,4.15457507e-05 58.3744988,1.29128348 58.3744988,2.88414756 L58.3744988,38.2146539 C58.3744988,39.807518 57.0830349,41.0987599 55.4889687,41.0987599 L2.88561325,41.0987599 C1.29196265,41.0987599 8.31325301e-05,39.807518 8.31325301e-05,38.2146539" id="Fill-1" fill="#17324E"></path>
                <path d="M13.042912,30.1408189 C11.4309723,29.2592181 10.1632012,27.9924882 9.24084578,26.3410446 C8.3180747,24.689601 7.85710482,22.7585545 7.85710482,20.5495669 C7.85710482,18.3409948 8.3180747,16.4103638 9.24084578,14.7580893 C10.1632012,13.1066457 11.4309723,11.8395003 13.042912,10.9583149 C14.6548518,10.0762986 16.4746229,9.63591368 18.502641,9.63591368 C19.8809783,9.63591368 21.1130024,9.79794211 22.1978819,10.121999 C23.2823458,10.4468867 24.3622373,10.9126146 25.437141,11.5208444 C25.8827313,11.763887 26.1063578,12.1490161 26.1063578,12.6754008 C26.1063578,12.9799312 25.9945446,13.2483167 25.7717494,13.4813884 C25.5481229,13.71446 25.2546651,13.8307881 24.8897133,13.8307881 C24.6868699,13.8307881 24.504394,13.7904887 24.3422855,13.7094745 C23.4498578,13.2433312 22.5782133,12.888946 21.7265205,12.6450724 C20.8748277,12.4020298 19.8913699,12.2807162 18.776147,12.2807162 C17.0320265,12.2807162 15.5468639,12.6405024 14.3202434,13.3596593 C13.0932072,14.0792317 12.1708518,15.0622042 11.5523458,16.3085767 C10.9338398,17.5549492 10.6245867,18.9683357 10.6245867,20.5495669 C10.6245867,22.1303827 10.9338398,23.5441846 11.5523458,24.7901417 C12.1708518,26.0369297 13.0932072,27.0199021 14.3202434,27.7394745 C15.5468639,28.4586315 17.0320265,28.8184177 18.776147,28.8184177 C19.8913699,28.8184177 20.8748277,28.6966886 21.7265205,28.453646 C22.5782133,28.2106033 23.4498578,27.8558026 24.3422855,27.3892439 C24.504394,27.3090606 24.6868699,27.2679303 24.8897133,27.2679303 C25.2546651,27.2679303 25.5481229,27.3796883 25.7717494,27.602789 C25.9945446,27.8254742 26.1063578,28.0996762 26.1063578,28.4233176 C26.1063578,28.9505332 25.8827313,29.3352468 25.437141,29.5782895 C24.3622373,30.1865192 23.2823458,30.6526626 22.1978819,30.9771349 C21.1130024,31.3011917 19.8809783,31.4632202 18.502641,31.4632202 C16.4746229,31.4632202 14.6548518,31.0224198 13.042912,30.1408189" id="Fill-3" fill="#FFFFFF"></path>
                <path d="M35.6565398,29.9128158 L28.143853,11.7028979 C28.0831663,11.5408694 28.0528229,11.3684546 28.0528229,11.1864842 C28.0528229,10.7606402 28.1741964,10.4212115 28.417359,10.1677824 C28.6609373,9.91476876 28.9955458,9.78763876 29.4211843,9.78763876 C29.7050819,9.78763876 29.9636241,9.87446938 30.1968108,10.0460533 C30.4299976,10.2188837 30.6074855,10.4469698 30.7292747,10.7303118 L37.876594,28.5447143 L45.0247446,10.7303118 C45.1461181,10.4469698 45.323606,10.2188837 45.5567928,10.0460533 C45.7895639,9.87446938 46.048106,9.78763876 46.3324193,9.78763876 C46.7580578,9.78763876 47.0926663,9.91476876 47.3362446,10.1677824 C47.5794072,10.4212115 47.7011964,10.7606402 47.7011964,11.1864842 C47.7011964,11.3684546 47.670853,11.5408694 47.6097506,11.7028979 L40.0970639,29.9128158 C39.6714253,30.8451025 39.0425277,31.3112458 38.2112024,31.3112458 L37.5424012,31.3112458 C36.7106602,31.3112458 36.0821783,30.8451025 35.6565398,29.9128158" id="Fill-5" fill="#FFFFFF"></path>
                <path d="M76.0052458,31.7588597 C75.5417819,31.4111218 75.2233843,30.9769687 75.0492217,30.4555695 L68.879541,12.3889844 C68.7922518,12.128908 68.7490229,11.8829572 68.7490229,11.6511319 C68.7490229,11.1010661 68.9373181,10.637831 69.3139084,10.261011 C69.6900831,9.88543746 70.153547,9.69640429 70.7047157,9.69640429 C71.1095711,9.69640429 71.4790952,9.8048387 71.8124566,10.022123 C72.1449867,10.2394073 72.3694446,10.5219184 72.4858301,10.8692408 L77.5698,27.5897436 L82.6101253,11.2601863 C82.7543602,10.7973667 83.0224627,10.4205467 83.4136012,10.1305574 C83.8051554,9.84181442 84.2461735,9.69640429 84.7391494,9.69640429 C85.231294,9.69640429 85.6731434,9.84181442 86.0642819,10.1305574 C86.4554205,10.4205467 86.7226916,10.7973667 86.8681735,11.2601863 L91.9084988,27.5897436 L96.992053,10.8692408 C97.1076072,10.5219184 97.3320651,10.2394073 97.6654265,10.022123 C97.9983723,9.8048387 98.3674807,9.69640429 98.7735831,9.69640429 C99.3235048,9.69640429 99.7873843,9.88543746 100.163975,10.261011 C100.540149,10.637831 100.72886,11.1010661 100.72886,11.6511319 C100.72886,11.8829572 100.685631,12.128908 100.598758,12.3889844 L94.4286614,30.4555695 C94.2549145,30.9769687 93.9356855,31.4111218 93.4726373,31.7588597 C93.0087578,32.1061822 92.4875169,32.2798434 91.9084988,32.2798434 C91.3286494,32.2798434 90.8074084,32.1061822 90.3443602,31.7588597 C89.8804807,31.4111218 89.5471193,30.9628431 89.3446916,30.4123619 L84.7391494,16.0371168 L80.1331916,30.4123619 C79.9303482,30.9628431 79.5969867,31.4111218 79.1339386,31.7588597 C78.6704747,32.1061822 78.1488181,32.2798434 77.5698,32.2798434 C76.9899506,32.2798434 76.468294,32.1061822 76.0052458,31.7588597" id="Fill-7" fill="#FFFFFF"></path>
                <path d="M105.942683,31.715029 C105.566093,31.3394554 105.377798,30.8758048 105.377798,30.3253236 L105.377798,11.6945472 C105.377798,11.1444814 105.566093,10.6737681 105.942683,10.2828226 C106.318858,9.89229251 106.782737,9.69661202 107.333075,9.69661202 C107.912093,9.69661202 108.390105,9.88522973 108.767111,10.2608033 C109.143286,10.6380387 109.331996,11.1158149 109.331996,11.6945472 L109.331996,30.3253236 C109.331996,30.8758048 109.136219,31.3394554 108.745496,31.715029 C108.354358,32.091018 107.882996,32.2796357 107.333075,32.2796357 C106.782737,32.2796357 106.318858,32.091018 105.942683,31.715029 M105.682063,4.74560492 C105.247695,4.31145182 105.030304,3.79005265 105.030304,3.18182286 L105.030304,3.00816162 C105.030304,2.40034729 105.247695,1.87977903 105.682063,1.44521048 C106.11643,1.01105739 106.638087,0.793357655 107.246201,0.793357655 L107.507237,0.793357655 C108.115352,0.793357655 108.636593,1.01105739 109.071376,1.44521048 C109.505743,1.87977903 109.722719,2.40034729 109.722719,3.00816162 L109.722719,3.18182286 C109.722719,3.79005265 109.505743,4.31145182 109.071376,4.74560492 C108.636593,5.18017347 108.115352,5.39704229 107.507237,5.39704229 L107.246201,5.39704229 C106.638087,5.39704229 106.11643,5.18017347 105.682063,4.74560492" id="Fill-9" fill="#FFFFFF"></path>
                <path d="M116.761717,31.715029 C116.384711,31.3394554 116.196831,30.8758048 116.196831,30.3253236 L116.196831,11.6945472 C116.196831,11.1444814 116.384711,10.6737681 116.761717,10.2828226 C117.137892,9.89229251 117.601355,9.69661202 118.152108,9.69661202 C118.70203,9.69661202 119.173392,9.89229251 119.56453,10.2828226 C119.955253,10.6737681 120.15103,11.1444814 120.15103,11.6945472 L120.15103,13.475198 C121.251289,12.2587385 122.438837,11.2890606 123.713675,10.5653337 C124.988096,9.84202215 126.494873,9.47932775 128.232759,9.47932775 C129.825578,9.47932775 131.208904,9.85614771 132.382319,10.6085412 C133.555319,11.3621812 134.453151,12.3887767 135.076229,13.6920669 C135.698892,14.9949416 136.010639,16.4278545 136.010639,17.9916366 L136.010639,30.3253236 C136.010639,30.8758048 135.814861,31.3394554 135.423723,31.715029 C135.032584,32.091018 134.561639,32.2796357 134.011717,32.2796357 C133.460964,32.2796357 132.9975,32.091018 132.621325,31.715029 C132.244735,31.3394554 132.05644,30.8758048 132.05644,30.3253236 L132.05644,18.4262052 C132.05644,14.8939854 130.462789,13.1274601 127.276735,13.1274601 C125.828151,13.1274601 124.532114,13.5038646 123.387795,14.2570891 C122.243476,15.0098981 121.164416,16.0227835 120.15103,17.2965762 L120.15103,30.3253236 C120.15103,30.8758048 119.955253,31.3394554 119.56453,31.715029 C119.173392,32.091018 118.70203,32.2796357 118.152108,32.2796357 C117.601355,32.2796357 117.137892,32.091018 116.761717,31.715029" id="Fill-11" fill="#FFFFFF"></path>
                <path d="M143.222843,31.715029 C142.845837,31.3394554 142.657957,30.8758048 142.657957,30.3253236 L142.657957,11.6945472 C142.657957,11.1444814 142.845837,10.6737681 143.222843,10.2828226 C143.599017,9.89229251 144.062481,9.69661202 144.613234,9.69661202 C145.163156,9.69661202 145.634517,9.89229251 146.025656,10.2828226 C146.416379,10.6737681 146.612156,11.1444814 146.612156,11.6945472 L146.612156,13.475198 C147.712415,12.2587385 148.899963,11.2890606 150.174801,10.5653337 C151.449222,9.84202215 152.955999,9.47932775 154.693885,9.47932775 C156.286704,9.47932775 157.67003,9.85614771 158.843445,10.6085412 C160.016445,11.3621812 160.914277,12.3887767 161.537355,13.6920669 C162.160017,14.9949416 162.471764,16.4278545 162.471764,17.9916366 L162.471764,30.3253236 C162.471764,30.8758048 162.275987,31.3394554 161.884849,31.715029 C161.49371,32.091018 161.022764,32.2796357 160.472843,32.2796357 C159.92209,32.2796357 159.458626,32.091018 159.082451,31.715029 C158.705861,31.3394554 158.517566,30.8758048 158.517566,30.3253236 L158.517566,18.4262052 C158.517566,14.8939854 156.923915,13.1274601 153.737861,13.1274601 C152.289277,13.1274601 150.99324,13.5038646 149.848921,14.2570891 C148.704602,15.0098981 147.625542,16.0227835 146.612156,17.2965762 L146.612156,30.3253236 C146.612156,30.8758048 146.416379,31.3394554 146.025656,31.715029 C145.634517,32.091018 145.163156,32.2796357 144.613234,32.2796357 C144.062481,32.2796357 143.599017,32.091018 143.222843,31.715029" id="Fill-13" fill="#FFFFFF"></path>
                <path d="M184.587761,19.1644731 C184.500887,17.7461012 184.131779,16.5587237 183.479604,15.6031714 C182.828261,14.6476191 182.024369,13.9459114 181.068345,13.4963864 C180.112321,13.0476923 179.141333,12.8233452 178.157044,12.8233452 C177.171923,12.8233452 176.201767,13.0476923 175.245743,13.4963864 C174.290134,13.9459114 173.492893,14.6476191 172.856098,15.6031714 C172.218472,16.5587237 171.856845,17.7461012 171.769972,19.1644731 L184.587761,19.1644731 Z M170.748689,29.4786212 C168.764315,27.4665605 167.772128,24.636464 167.772128,20.9883316 C167.772128,18.9322324 168.148303,17.0364998 168.902315,15.2990565 C169.65508,13.5620287 170.813948,12.1577823 172.378086,11.0863174 C173.94264,10.0156834 175.868405,9.47932775 178.157044,9.47932775 C180.300616,9.47932775 182.154472,9.97912313 183.719026,10.9774675 C185.282749,11.9766428 186.470297,13.3085996 187.28167,14.9733378 C188.092628,16.6384915 188.498315,18.4552872 188.498315,20.4237248 C188.498315,20.9737906 188.317086,21.4374412 187.95546,21.8134302 C187.592586,22.1898347 187.107923,22.378037 186.499809,22.378037 L171.769972,22.378037 C172.001496,24.4046387 172.754261,25.9825463 174.029514,27.1117598 C175.30352,28.2409733 177.08505,28.8051646 179.373689,28.8051646 C180.590333,28.8051646 181.654845,28.6904983 182.567225,28.4582576 C183.479604,28.2264323 184.370369,27.8936508 185.23952,27.4590823 C185.471044,27.3435851 185.731664,27.2858365 186.021797,27.2858365 C186.484845,27.2858365 186.890948,27.4453722 187.238442,27.7627817 C187.585936,28.0822685 187.759683,28.4869241 187.759683,28.9792413 C187.759683,29.6161376 187.383092,30.1516624 186.629911,30.5862309 C185.50014,31.2231273 184.384917,31.7013189 183.284243,32.0187284 C182.183152,32.3373843 180.76408,32.49692 179.026195,32.49692 C175.491815,32.49692 172.732646,31.4910974 170.748689,29.4786212 L170.748689,29.4786212 Z" id="Fill-15" fill="#FFFFFF"></path>
                <path d="M194.277107,31.715029 C193.900516,31.3394554 193.712637,30.8758048 193.712637,30.3253236 L193.712637,11.6945472 C193.712637,11.1444814 193.900516,10.6737681 194.277107,10.2828226 C194.653281,9.89229251 195.117161,9.69661202 195.667498,9.69661202 C196.21742,9.69661202 196.688781,9.89229251 197.07992,10.2828226 C197.470643,10.6737681 197.66642,11.1444814 197.66642,11.6945472 L197.66642,13.5620287 C199.693607,10.840782 201.967697,9.47932775 204.48786,9.47932775 L204.705251,9.47932775 C205.255589,9.47932775 205.71157,9.66836091 206.074028,10.0439345 C206.43607,10.420339 206.616884,10.8839896 206.616884,11.4340553 C206.616884,11.9841211 206.428589,12.4328152 206.052414,12.7797222 C205.675408,13.1274601 205.197396,13.3015368 204.618378,13.3015368 L204.401402,13.3015368 C203.01101,13.3015368 201.735757,13.6417965 200.577721,14.3219004 C199.418854,15.0020044 198.448697,15.9359529 197.66642,17.122915 L197.66642,30.3253236 C197.66642,30.8758048 197.470643,31.3394554 197.07992,31.715029 C196.688781,32.091018 196.21742,32.2796357 195.667498,32.2796357 C195.117161,32.2796357 194.653281,32.091018 194.277107,31.715029" id="Fill-17" fill="#FFFFFF"></path>
            </g>
        </g>
    </g>
</svg>