<svg width="24" height="24" viewBox="0 0 24 24" fill="none" xmlns="http://www.w3.org/2000/svg">
<path d="M24 12C24 18.6274 18.6274 24 12 24C5.37258 24 0 18.6274 0 12C0 5.37258 5.37258 0 12 0C18.6274 0 24 5.37258 24 12Z" fill="#FB5810"/>
<path d="M7.89889 18.2609C7.69493 18.2609 7.53296 18.2012 7.41299 18.082C7.29301 17.9627 7.22102 17.8256 7.19703 17.6706L5.23541 6.24001C5.22341 6.21615 5.21741 6.1923 5.21741 6.16845C5.21741 6.1446 5.21741 6.12671 5.21741 6.11479C5.21741 6.01938 5.2534 5.93591 5.32539 5.86435C5.40937 5.78088 5.49936 5.73914 5.59534 5.73914H7.82691C8.16284 5.73914 8.3488 5.87032 8.3848 6.13268L9.55457 13.127L10.8503 8.99479C10.8863 8.89938 10.9463 8.79802 11.0303 8.69069C11.1143 8.57143 11.2522 8.51181 11.4442 8.51181H12.74C12.9439 8.51181 13.0879 8.57143 13.1719 8.69069C13.2559 8.79802 13.3099 8.89938 13.3338 8.99479L14.6296 13.1091L15.7994 6.13268C15.8354 5.87032 16.0213 5.73914 16.3573 5.73914H18.5888C18.6968 5.73914 18.7868 5.78088 18.8588 5.86435C18.9308 5.93591 18.9668 6.01938 18.9668 6.11479C18.9668 6.12671 18.9668 6.1446 18.9668 6.16845C18.9668 6.1923 18.9668 6.21615 18.9668 6.24001L17.0051 17.6706C16.9811 17.8256 16.9092 17.9627 16.7892 18.082C16.6692 18.2012 16.5072 18.2609 16.3033 18.2609H14.5936C14.3896 18.2609 14.2337 18.2072 14.1257 18.0999C14.0177 17.9926 13.9457 17.8912 13.9097 17.7958L12.0921 12.6798L10.2744 17.7958C10.2384 17.8912 10.1665 17.9926 10.0585 18.0999C9.9625 18.2072 9.81252 18.2609 9.60856 18.2609H7.89889Z" fill="white"/>
</svg>
