<?xml version="1.0" encoding="UTF-8" standalone="no"?>
<svg width="15px" height="15px" viewBox="0 0 15 15" version="1.1" xmlns="http://www.w3.org/2000/svg" xmlns:xlink="http://www.w3.org/1999/xlink">
    <!-- Generator: Sketch 42 (36781) - http://www.bohemiancoding.com/sketch -->
    <title>Info</title>
    <desc>Created with Sketch.</desc>
    <defs></defs>
    <g id="Page-1" stroke="none" stroke-width="1" fill="none" fill-rule="evenodd">
        <g id="Mobile-Portrait-Copy-39" transform="translate(-321.000000, -538.000000)" fill="#A9A9A9">
            <path d="M328.5,553 C324.357864,553 321,549.642136 321,545.5 C321,541.357864 324.357864,538 328.5,538 C332.642136,538 336,541.357864 336,545.5 C336,549.642136 332.642136,553 328.5,553 Z M325.500003,543.484009 L327.006045,543.484009 C327.057315,542.702148 327.589236,542.202271 328.415957,542.202271 C329.223453,542.202271 329.761783,542.682922 329.761783,543.349426 C329.761783,543.983887 329.492618,544.323547 328.69794,544.804199 C327.81354,545.323303 327.441836,545.900085 327.499515,546.861389 L327.505923,547.29718 L328.99274,547.29718 L328.99274,546.931885 C328.99274,546.297424 329.229861,545.970581 330.0694,545.477112 C330.940982,544.958008 331.428042,544.272278 331.428042,543.291748 C331.428042,541.875427 330.255252,540.862854 328.49927,540.862854 C326.595889,540.862854 325.551272,541.965149 325.500003,543.484009 Z M328.319827,550.354126 C328.973514,550.354126 329.38367,549.950378 329.38367,549.335144 C329.38367,548.713501 328.973514,548.309753 328.319827,548.309753 C327.678958,548.309753 327.255984,548.713501 327.255984,549.335144 C327.255984,549.950378 327.678958,550.354126 328.319827,550.354126 Z" id="Info"></path>
        </g>
    </g>
</svg>