<?xml version="1.0" encoding="UTF-8"?>
<svg width="17px" height="16px" viewBox="0 0 17 16" version="1.1" xmlns="http://www.w3.org/2000/svg" xmlns:xlink="http://www.w3.org/1999/xlink">
    <!-- Generator: sketchtool 57.1 (101010) - https://sketch.com -->
    <title>D6B34336-5338-4E7C-9696-D9CA727996CA</title>
    <desc>Created with sketchtool.</desc>
    <g id="UI" stroke="none" stroke-width="1" fill="none" fill-rule="evenodd">
        <g id="Sign-up-(skip-version-01)-—-Desktop" transform="translate(-554.000000, -213.000000)" fill="#007EBB" fill-rule="nonzero">
            <g id="Sign-Up" transform="translate(289.000000, 84.000000)">
                <g id="Button/Linkedin/Desktop" transform="translate(227.000000, 116.000000)">
                    <g id="BTN-Linkedin">
                        <g id="Group-12">
                            <g id="linkedin-color" transform="translate(38.000000, 13.000000)">
                                <path d="M17,16 L13.2427682,16 L13.2427682,10.37536 C13.2427682,8.9031184 12.6550446,7.89806 11.3626528,7.89806 C10.3741182,7.89806 9.82437689,8.5762952 9.56849714,9.2299416 C9.47254218,9.464558 9.48753541,9.7913812 9.48753541,10.1182044 L9.48753541,16 L5.76528689,16 C5.76528689,16 5.81326436,6.0364988 5.76528689,5.1308188 L9.48753541,5.1308188 L9.48753541,6.8366524 C9.70743195,6.0907984 10.8968721,5.0263176 12.7949789,5.0263176 C15.1498707,5.0263176 17,6.589742 17,9.9563296 L17,16 L17,16 Z M2.00105841,3.7712748 L1.97706948,3.7712748 C0.777634091,3.7712748 0,2.9403856 0,1.8871744 C0,0.8134724 0.800623114,0 2.02404743,0 C3.24647223,0 3.99811834,0.8114236 4.02210727,1.8841008 C4.02210727,2.937312 3.24647223,3.7712748 2.00105841,3.7712748 L2.00105841,3.7712748 L2.00105841,3.7712748 Z M0.428798341,5.1308188 L3.74223898,5.1308188 L3.74223898,16 L0.428798341,16 L0.428798341,5.1308188 L0.428798341,5.1308188 Z" id="LinkedIn"></path>
                            </g>
                        </g>
                    </g>
                </g>
            </g>
        </g>
    </g>
</svg>