<svg width="44" height="40" viewBox="0 0 44 40" fill="none" xmlns="http://www.w3.org/2000/svg">
<path fill-rule="evenodd" clip-rule="evenodd" d="M2.76526 39.0788H22.0754H41.3856C42.5991 39.0788 43.5103 38.0176 43.206 36.8428C41.8428 31.5793 37.0065 18.7692 22.0754 17.7104C7.14436 18.7692 2.30803 31.5793 0.944799 36.8428C0.640531 38.0176 1.5517 39.0788 2.76526 39.0788Z" fill="#92CFF9"/>
<rect x="9.84766" y="0.157715" width="24.3048" height="24.4211" rx="12.1524" fill="#26A0F4"/>
<path fill-rule="evenodd" clip-rule="evenodd" d="M31.5075 19.9762C28.6383 18.5266 25.4308 17.7104 22.0003 17.7104C18.5801 17.7104 15.3486 18.5217 12.4857 19.9631C12.4455 19.9833 15.7251 24.5781 22.0115 24.5789C28.2978 24.5796 31.5252 19.9851 31.5075 19.9762Z" fill="#D4ECFD"/>
</svg>
