<?xml version="1.0" encoding="UTF-8"?>
<svg width="133px" height="19px" viewBox="0 0 133 19" version="1.1" xmlns="http://www.w3.org/2000/svg" xmlns:xlink="http://www.w3.org/1999/xlink">
    <title>Logo--Color Copy</title>
    <g id="Page-1" stroke="none" stroke-width="1" fill="none" fill-rule="evenodd">
        <g id="Fundamentals-—-Branding" transform="translate(-101.000000, -489.000000)">
            <g id="Logo--Color-Copy" transform="translate(101.000000, 489.000000)">
                <path d="M4.41827235,0 C5.66279876,0 6.7146068,0.148972102 7.57233929,0.447599663 C8.43007178,0.745543867 9.08287135,1.25396242 9.53141659,1.97217195 C9.97860465,2.69106485 10.2032166,3.66963388 10.2032166,4.90787906 C10.2032166,5.65752307 10.1346794,6.3299476 9.99828364,6.92651937 C9.8612093,7.52309113 9.62981153,8.03150968 9.30341175,8.45177501 C8.97701196,8.87272371 8.5250738,9.19731888 7.94827584,9.42692726 L10.5221519,18.5777778 L7.15093749,18.5777778 L4.91906869,10.0686007 L3.37053582,10.0686007 L3.37053582,18.5777778 L0,18.5777778 L0,0 L4.41827235,0 Z M4.60013335,2.31658452 L3.37053582,2.31658452 L3.37053582,7.93583953 L4.41827235,7.93583953 C5.07107192,7.93583953 5.59086866,7.84016937 5.97834117,7.64882905 C6.36581368,7.4581721 6.64199812,7.15271095 6.80960882,6.73176226 C6.97654093,6.31149693 7.06000699,5.77232726 7.06000699,5.11493661 C7.06000699,4.18215258 6.88968194,3.48239372 6.54767469,3.01634338 C6.20634601,2.54960968 5.55693937,2.31658452 4.60013335,2.31658452 Z" id="Combined-Shape" fill="#1E3D90"></path>
                <polygon id="Fill-3" fill="#1E3D90" points="12.2056962 18.5777778 12.2056962 0 20.1551595 0 20.1551595 2.38619929 15.6659525 2.38619929 15.6659525 7.72986436 19.1965703 7.72986436 19.1965703 10.0914636 15.6659525 10.0914636 15.6659525 16.2380451 20.2025316 16.2380451 20.2025316 18.5777778"></polygon>
                <path d="M26.2278694,18.9998643 C25.1281782,18.9998643 24.2082896,18.7834 23.4702238,18.3504714 C22.732158,17.9175429 22.1745681,17.2844357 21.7981276,16.4491143 C21.4210137,15.6144714 21.2102339,14.58915 21.1651149,13.3745071 L24.0358947,12.8051857 C24.0655251,13.5190429 24.1517225,14.1487571 24.2951605,14.6950071 C24.4385985,15.2419357 24.6567858,15.6633286 24.9510694,15.9598643 C25.2446795,16.2550429 25.6325681,16.40365 26.1154086,16.40365 C26.6575099,16.40365 27.041358,16.2407929 27.2676263,15.9137214 C27.4932213,15.5873286 27.6063554,15.1734 27.6063554,14.6726143 C27.6063554,13.8685071 27.4258795,13.2075786 27.0642542,12.6911857 C26.7026289,12.1747929 26.2204618,11.6590786 25.6177529,11.1426857 L23.3119706,9.09272143 C22.6641428,8.53086429 22.1483048,7.90454286 21.7644567,7.21375714 C21.3799352,6.52297143 21.1880111,5.66865 21.1880111,4.65147143 C21.1880111,3.1939 21.6095706,2.07086429 22.453363,1.28100714 C23.2971554,0.491828571 24.4500466,0.0969 25.911363,0.0969 C26.7706441,0.0969 27.4858137,0.2299 28.0588922,0.495221429 C28.6312972,0.761221429 29.087201,1.12900714 29.4259301,1.59925714 C29.7646592,2.07086429 30.0171909,2.60625714 30.1835251,3.20543571 C30.3491858,3.80529286 30.454239,4.43907857 30.499358,5.10679286 L27.6521478,5.60825714 C27.6211706,5.03147143 27.5578694,4.51507857 27.4595504,4.05907857 C27.3619048,3.60443571 27.1888365,3.24750714 26.9396719,2.98897143 C26.6911808,2.73111429 26.3261884,2.60218571 25.8440213,2.60218571 C25.3463656,2.60218571 24.9658846,2.76504286 24.7019048,3.09211429 C24.4385985,3.41850714 24.3066086,3.82429286 24.3066086,4.31015 C24.3066086,4.93307857 24.434558,5.44472143 24.6911301,5.84711429 C24.9470289,6.24950714 25.3160618,6.66343571 25.7982289,7.08822143 L28.0811149,9.11579286 C28.8346694,9.75297143 29.4784567,10.5014357 30.0138238,11.3584714 C30.5485175,12.2168643 30.8158643,13.2530429 30.8158643,14.4676857 C30.8158643,15.3484714 30.6239403,16.1301857 30.2400922,16.8128286 C29.8555706,17.49615 29.3202035,18.0315429 28.6353377,18.4190071 C27.9491251,18.8064714 27.1470846,18.9998643 26.2278694,18.9998643" id="Fill-5" fill="#1E3D90"></path>
                <path d="M37.6693038,19 C36.284593,19 35.2079013,18.7455727 34.4385411,18.236718 C33.669181,17.7271738 33.1383981,17.002504 32.84688,16.0606402 C32.5539869,15.1201553 32.4082278,13.9935041 32.4082278,12.6820656 L32.4082278,0 L35.7311212,0 L35.7311212,13.075773 C35.7311212,13.6625417 35.7689361,14.2134562 35.8466284,14.730585 C35.9229456,15.2477137 36.1037693,15.6634853 36.3890995,15.9799681 C36.6730546,16.2964509 37.1007061,16.4543475 37.6693038,16.4543475 C38.2695285,16.4543475 38.7040554,16.2964509 38.9728846,15.9799681 C39.2424013,15.6634853 39.4190997,15.2477137 39.504355,14.730585 C39.5882352,14.2134562 39.6315504,13.6625417 39.6315504,13.075773 L39.6315504,0 L42.9303797,0 L42.9303797,12.6820656 C42.9303797,13.9935041 42.7839332,15.1201553 42.4924151,16.0606402 C42.2002095,17.002504 41.6728643,17.7271738 40.9117547,18.236718 C40.1499575,18.7455727 39.0691405,19 37.6693038,19" id="Fill-8" fill="#1E3D90"></path>
                <polygon id="Fill-10" fill="#1E3D90" points="45.0348101 18.5777778 45.358193 0 48.8906353 0 51.5471915 12.8671628 54.3179638 0 57.7355019 0 58.0822785 18.5777778 55.5420025 18.5777778 55.2647189 5.66551497 52.6095388 18.5777778 50.5536491 18.5777778 47.8523697 5.61973165 47.5984798 18.5777778"></polygon>
                <polygon id="Fill-12" fill="#1E3D90" points="60.1867089 18.5777778 60.1867089 0 68.1368688 0 68.1368688 2.38619929 63.6476618 2.38619929 63.6476618 7.72986436 67.1782796 7.72986436 67.1782796 10.0914636 63.6476618 10.0914636 63.6476618 16.2380451 68.1835443 16.2380451 68.1835443 18.5777778"></polygon>
                <path d="M77.389475,18.9998643 C76.1652226,18.9998643 75.193344,18.7413286 74.4738393,18.2249357 C73.7550185,17.7099 73.2386439,16.9770429 72.9253994,16.0277214 C72.611471,15.0790786 72.4541648,13.9587571 72.4541648,12.6681143 L72.4541648,6.47343571 C72.4541648,5.15293571 72.6073674,4.01361429 72.9130885,3.05750714 C73.2188096,2.1014 73.7584382,1.36854286 74.5312902,0.859614286 C75.3041423,0.351364286 76.3717724,0.0969 77.7341807,0.0969 C79.0035731,0.0969 80.0137523,0.309292857 80.7640343,0.734078571 C81.5136324,1.15954286 82.052577,1.77025714 82.382236,2.56757857 C82.7112111,3.3649 82.8753567,4.33322143 82.8753567,5.47118571 L82.8753567,6.42797143 L79.6389532,6.42797143 L79.6389532,5.38093571 C79.6389532,4.78854286 79.5972329,4.28029286 79.5124243,3.85482857 C79.4282997,3.43004286 79.2600505,3.10704286 79.0076767,2.88650714 C78.7553029,2.66665 78.3456229,2.55672143 77.7793207,2.55672143 C77.1829251,2.55672143 76.7499912,2.70057857 76.4832546,2.98897143 C76.2151502,3.27736429 76.046901,3.65736429 75.978507,4.12761429 C75.9087451,4.59854286 75.8745481,5.11493571 75.8745481,5.67611429 L75.8745481,13.3969 C75.8745481,14.0354357 75.9278955,14.58915 76.035958,15.0594 C76.1426526,15.5310071 76.3416791,15.8913286 76.6323535,16.1417214 C76.922344,16.3921143 77.3361277,16.51765 77.8716526,16.51765 C78.4229081,16.51765 78.8435311,16.3805786 79.1342056,16.1071143 C79.42488,15.8343286 79.6273262,15.4543286 79.7422281,14.96915 C79.85713,14.4832929 79.914581,13.9058286 79.914581,13.2381143 L79.914581,11.5070786 L77.9174765,11.5070786 L77.9174765,9.38857857 L82.9676886,9.38857857 L82.9676886,18.7494714 L80.7872883,18.7494714 L80.5349144,16.9268286 C80.28938,17.5348286 79.9180007,18.0315429 79.4214603,18.4190071 C78.9235521,18.8064714 78.2464516,18.9998643 77.389475,18.9998643" id="Fill-14" fill="#E30728"></path>
                <polygon id="Fill-17" fill="#E30728" points="85.0189873 18.5777778 88.3860759 18.5777778 88.3860759 0 85.0189873 0"></polygon>
                <polygon id="Fill-19" fill="#E30728" points="102.275316 18.5777778 102.275316 0 104.638002 0 109.15697 10.5964468 109.15697 0 111.955696 0 111.955696 18.5777778 109.707831 18.5777778 105.165625 7.4770311 105.165625 18.5777778"></polygon>
                <polygon id="Fill-20" fill="#E30728" points="116.174645 18.5777778 116.174645 2.50099925 113.218354 2.50099925 113.218354 0 122.477848 0 122.477848 2.50099925 119.567312 2.50099925 119.567312 18.5777778"></polygon>
                <path d="M125.632482,18.3472736 C124.89215,17.9121226 124.332173,17.2757655 123.954576,16.4361561 C123.576305,15.5972287 123.365553,14.5666439 123.31962,13.3457659 L126.199214,12.7735219 C126.229611,13.4910435 126.316073,14.1239904 126.459951,14.6730445 C126.60383,15.2227806 126.822687,15.6463366 127.117874,15.9443946 C127.412386,16.2410884 127.80079,16.3904584 128.285113,16.3904584 C128.829554,16.3904584 129.21458,16.2267653 129.441543,15.8980149 C129.667831,15.5699465 129.781313,15.1538931 129.781313,14.6505367 C129.781313,13.8423018 129.599607,13.1779804 129.236871,12.6589367 C128.874136,12.139893 128.390488,11.6215314 127.786605,11.1024877 L125.473743,9.04200022 C124.823926,8.47725886 124.305829,7.8477223 123.920802,7.15339053 C123.535776,6.45905876 123.342587,5.6003518 123.342587,4.57795168 C123.342587,3.11289801 123.766116,1.98409735 124.612499,1.19018559 C125.458207,0.396955882 126.614638,0 128.080441,0 C128.94236,0 129.659725,0.133682737 130.234563,0.400366156 C130.808726,0.667731629 131.266029,1.03740532 131.606474,1.51006928 C131.946243,1.98409735 132.19955,2.52223858 132.365719,3.12449295 C132.531889,3.72742937 132.637264,4.36446854 132.683197,5.03561044 L129.82657,5.53964892 C129.796173,4.95990236 129.732002,4.44085867 129.634057,3.98251786 C129.535436,3.52554116 129.361836,3.16678034 129.112582,2.90691747 C128.862653,2.64773666 128.49654,2.51814625 128.012892,2.51814625 C127.513708,2.51814625 127.132059,2.68183939 126.867945,3.0105898 C126.60383,3.33865815 126.470759,3.74652691 126.470759,4.23487813 C126.470759,4.86100442 126.599777,5.37527372 126.857137,5.7797322 C127.113821,6.18419069 127.483987,6.6002441 127.967635,7.0272104 L130.25753,9.06519008 C131.012722,9.70563952 131.659162,10.4579459 132.195497,11.3193811 C132.731832,12.1821804 133,13.2236781 133,14.4445561 C133,15.3298632 132.807487,16.1155903 132.42246,16.8017374 C132.037433,17.4885666 131.500423,18.0267078 130.812779,18.4161611 C130.125135,18.8056144 129.319956,19 128.398594,19 C127.294851,19 126.372814,18.7824245 125.632482,18.3472736 Z" id="Fill-21" fill="#E30728"></path>
                <polygon id="Fill-22" fill="#E30728" points="90.0696203 18.5777778 93.7475146 0 97.3340874 0 101.012658 18.5777778 97.9023109 18.5777778 97.1757965 14.2891791 93.9741276 14.2891791 93.2252902 18.5777778"></polygon>
                <polygon id="Fill-23" fill="#FFFFFF" points="95.5414761 5.91111111 96.3365065 8.3302499 98.9082278 8.3302499 96.8269999 9.82530565 97.6227041 12.2444444 95.5414761 10.7493887 93.4602482 12.2444444 94.2552786 9.82530565 92.1740506 8.3302499 94.7464457 8.3302499"></polygon>
            </g>
        </g>
    </g>
</svg>