<?xml version="1.0" encoding="utf-8"?>
<!-- Generator: Adobe Illustrator 19.2.1, SVG Export Plug-In . SVG Version: 6.00 Build 0)  -->
<svg version="1.1" id="Capa_1" xmlns="http://www.w3.org/2000/svg" xmlns:xlink="http://www.w3.org/1999/xlink" x="0px" y="0px"
	 viewBox="0 0 85.7 11.2" style="enable-background:new 0 0 85.7 11.2;" xml:space="preserve">
<style type="text/css">
	.st0{fill:#9E9E9E;}
</style>
<title>-</title>
<desc>Created with Sketch.</desc>
<g id="Page-1">
	<g>
		<path class="st0" d="M1.2,9.9h4.2V11H0V0.6h1.2V9.9z M9.3,11.2c-0.9,0-1.6-0.3-2.2-1C6.5,9.4,6.2,8.5,6.2,7.3V7.1
			c0-0.8,0.1-1.5,0.4-2.1c0.2-0.6,0.6-1.1,1-1.4c0.4-0.3,0.9-0.5,1.5-0.5c0.9,0,1.5,0.3,2,1s0.7,1.6,0.7,2.9v0.6H7.4
			c0,0.8,0.2,1.4,0.6,1.9c0.4,0.5,0.8,0.7,1.4,0.7c0.4,0,0.7-0.1,1-0.3C10.6,9.6,10.8,9.3,11,9l0.7,0.6
			C11.2,10.7,10.4,11.2,9.3,11.2z M9.1,4.2C8.7,4.2,8.3,4.4,8,4.8C7.7,5.2,7.5,5.7,7.4,6.4h3.3V6.3c0-0.7-0.2-1.2-0.5-1.6
			S9.6,4.2,9.1,4.2z M17.2,11c-0.1-0.2-0.1-0.4-0.2-0.8c-0.5,0.6-1.1,1-1.9,1c-0.6,0-1.2-0.2-1.6-0.6s-0.6-1-0.6-1.6
			c0-0.8,0.3-1.4,0.8-1.9s1.3-0.7,2.2-0.7H17V5.7c0-0.5-0.1-0.8-0.4-1.1c-0.2-0.3-0.6-0.4-1-0.4c-0.4,0-0.7,0.1-1,0.4
			c-0.3,0.2-0.4,0.5-0.4,0.9h-1.1c0-0.4,0.1-0.8,0.3-1.1c0.2-0.4,0.5-0.6,0.9-0.9c0.4-0.2,0.8-0.3,1.3-0.3c0.8,0,1.4,0.2,1.8,0.7
			c0.4,0.4,0.7,1.1,0.7,1.8v3.6c0,0.7,0.1,1.3,0.2,1.7V11H17.2z M15.3,10c0.4,0,0.7-0.1,1-0.3s0.5-0.5,0.7-0.8V7.2h-0.9
			c-1.4,0-2.1,0.5-2.1,1.4c0,0.4,0.1,0.7,0.4,1C14.6,9.9,14.9,10,15.3,10z M19.6,7.1c0-1.2,0.2-2.1,0.7-2.9s1.1-1.1,1.9-1.1
			C23,3.1,23.6,3.4,24,4V0h1.1v11h-1l-0.1-0.8c-0.4,0.6-1.1,1-1.9,1c-0.8,0-1.4-0.4-1.9-1.1c-0.5-0.7-0.7-1.7-0.7-2.9V7.1z
			 M20.7,7.2c0,0.9,0.2,1.6,0.5,2.1c0.3,0.5,0.7,0.7,1.3,0.7c0.7,0,1.2-0.4,1.6-1.1V5.3c-0.3-0.7-0.9-1.1-1.6-1.1
			c-0.6,0-1,0.3-1.3,0.8C20.9,5.5,20.7,6.2,20.7,7.2z M36.7,7.7c-0.1,1.1-0.5,2-1,2.6s-1.4,0.9-2.3,0.9c-1,0-1.9-0.4-2.5-1.3
			c-0.6-0.9-0.9-2.1-0.9-3.5v-1c0-1,0.1-1.8,0.4-2.6S31,1.4,31.6,1c0.5-0.4,1.2-0.6,1.9-0.6c0.9,0,1.7,0.3,2.3,0.9
			c0.6,0.6,0.9,1.5,1,2.6h-1.2c-0.1-0.8-0.3-1.4-0.7-1.8c-0.3-0.4-0.8-0.6-1.4-0.6c-0.7,0-1.3,0.3-1.8,1C31.3,3.2,31,4.1,31,5.3v1
			c0,1.1,0.2,2,0.6,2.7c0.4,0.7,1,1,1.7,1c0.6,0,1.1-0.2,1.5-0.5c0.3-0.3,0.6-0.9,0.7-1.8H36.7z M42.2,11c-0.1-0.2-0.1-0.4-0.2-0.8
			c-0.5,0.6-1.1,1-1.9,1c-0.6,0-1.2-0.2-1.6-0.6s-0.6-1-0.6-1.6c0-0.8,0.3-1.4,0.8-1.9s1.3-0.7,2.2-0.7H42V5.7
			c0-0.5-0.1-0.8-0.4-1.1c-0.2-0.3-0.6-0.4-1-0.4c-0.4,0-0.7,0.1-1,0.4c-0.3,0.2-0.4,0.5-0.4,0.9H38c0-0.4,0.1-0.8,0.3-1.1
			c0.2-0.4,0.5-0.6,0.9-0.9c0.4-0.2,0.8-0.3,1.3-0.3c0.8,0,1.4,0.2,1.8,0.7c0.4,0.4,0.7,1.1,0.7,1.8v3.6c0,0.7,0.1,1.3,0.2,1.7V11
			H42.2z M40.3,10c0.4,0,0.7-0.1,1-0.3s0.5-0.5,0.7-0.8V7.2h-0.9c-1.4,0-2.1,0.5-2.1,1.4c0,0.4,0.1,0.7,0.4,1
			C39.6,9.9,39.9,10,40.3,10z M48.1,4.4c-0.2,0-0.4-0.1-0.6-0.1c-0.7,0-1.2,0.4-1.5,1.1V11h-1.1V3.3H46l0,0.9c0.4-0.7,0.9-1,1.6-1
			c0.2,0,0.4,0,0.5,0.1V4.4z M51.7,11.2c-0.9,0-1.6-0.3-2.2-1c-0.6-0.7-0.8-1.6-0.8-2.8V7.1c0-0.8,0.1-1.5,0.4-2.1s0.6-1.1,1-1.4
			c0.4-0.3,0.9-0.5,1.5-0.5c0.9,0,1.5,0.3,2,1C54,4.8,54.3,5.7,54.3,7v0.6h-4.5c0,0.8,0.2,1.4,0.6,1.9c0.4,0.5,0.8,0.7,1.4,0.7
			c0.4,0,0.7-0.1,1-0.3C53,9.6,53.3,9.3,53.5,9l0.7,0.6C53.6,10.7,52.8,11.2,51.7,11.2z M51.6,4.2c-0.5,0-0.8,0.2-1.1,0.6
			s-0.5,0.9-0.6,1.6h3.3V6.3c0-0.7-0.2-1.2-0.5-1.6C52.4,4.4,52,4.2,51.6,4.2z M58.3,11.2c-0.9,0-1.6-0.3-2.2-1
			c-0.6-0.7-0.8-1.6-0.8-2.8V7.1c0-0.8,0.1-1.5,0.4-2.1s0.6-1.1,1-1.4c0.4-0.3,0.9-0.5,1.5-0.5c0.9,0,1.5,0.3,2,1
			c0.5,0.7,0.7,1.6,0.7,2.9v0.6h-4.5c0,0.8,0.2,1.4,0.6,1.9c0.4,0.5,0.8,0.7,1.4,0.7c0.4,0,0.7-0.1,1-0.3c0.3-0.2,0.5-0.4,0.7-0.8
			l0.7,0.6C60.2,10.7,59.4,11.2,58.3,11.2z M58.2,4.2c-0.5,0-0.8,0.2-1.1,0.6s-0.5,0.9-0.6,1.6h3.3V6.3c0-0.7-0.2-1.2-0.5-1.6
			C59,4.4,58.6,4.2,58.2,4.2z M65.3,4.4c-0.2,0-0.4-0.1-0.6-0.1c-0.7,0-1.2,0.4-1.5,1.1V11h-1.1V3.3h1.1l0,0.9c0.4-0.7,0.9-1,1.6-1
			c0.2,0,0.4,0,0.5,0.1V4.4z M72.2,6.4c-1-0.3-1.7-0.8-2.2-1.3S69.4,4,69.4,3.3c0-0.8,0.3-1.5,0.8-2c0.6-0.5,1.3-0.8,2.2-0.8
			c0.6,0,1.2,0.1,1.6,0.4c0.5,0.3,0.8,0.7,1.1,1.1c0.3,0.5,0.4,1,0.4,1.6h-1.2c0-0.6-0.2-1.1-0.5-1.5c-0.3-0.4-0.8-0.5-1.4-0.5
			c-0.6,0-1,0.1-1.3,0.4s-0.5,0.7-0.5,1.2c0,0.4,0.2,0.8,0.5,1.1c0.3,0.3,0.8,0.6,1.6,0.8c0.7,0.2,1.3,0.5,1.7,0.8
			c0.4,0.3,0.7,0.6,0.9,1s0.3,0.9,0.3,1.4c0,0.8-0.3,1.5-0.8,2c-0.6,0.5-1.3,0.8-2.2,0.8c-0.6,0-1.2-0.1-1.7-0.4
			c-0.5-0.3-0.9-0.7-1.2-1.1c-0.3-0.5-0.4-1-0.4-1.6h1.2c0,0.6,0.2,1.1,0.6,1.5c0.4,0.4,0.9,0.5,1.6,0.5c0.6,0,1.1-0.1,1.4-0.4
			c0.3-0.3,0.5-0.7,0.5-1.2s-0.2-0.9-0.5-1.2C73.6,6.9,73,6.6,72.2,6.4z M76.9,10.3c0-0.2,0.1-0.4,0.2-0.6c0.1-0.2,0.3-0.2,0.5-0.2
			c0.2,0,0.4,0.1,0.5,0.2c0.1,0.2,0.2,0.3,0.2,0.6c0,0.2-0.1,0.4-0.2,0.6c-0.1,0.1-0.3,0.2-0.5,0.2c-0.2,0-0.4-0.1-0.5-0.2
			S76.9,10.5,76.9,10.3z M81.5,9.9h4.2V11h-5.4V0.6h1.2V9.9z"/>
	</g>
</g>
</svg>
