<?xml version="1.0" encoding="UTF-8"?>
<svg width="162px" height="27px" viewBox="0 0 162 27" version="1.1" xmlns="http://www.w3.org/2000/svg" xmlns:xlink="http://www.w3.org/1999/xlink">
    <!-- Generator: Sketch 42 (36781) - http://www.bohemiancoding.com/sketch -->
    <title>Group</title>
    <desc>Created with Sketch.</desc>
    <defs></defs>
    <g id="Page-1" stroke="none" stroke-width="1" fill="none" fill-rule="evenodd">
        <g id="Mobile-Portrait-Copy-39" transform="translate(-101.000000, -155.000000)" fill="#FF453F">
            <g id="Group" transform="translate(101.000000, 155.000000)">
                <path d="M16.9392268,8.17194923 L23.7560134,5.94722387 L25.9807388,12.7354884 L19.1069079,14.9316917 L23.3567038,20.7787262 L17.5667134,25 L13.3454396,19.1244433 L9.15268802,25 L3.39121979,20.7787262 L7.61249354,14.9316917 L0.738662631,12.7354884 L2.96338799,5.94722387 L9.80869678,8.17194923 L9.80869678,0.984375 L16.9392268,0.984375 L16.9392268,8.17194923 Z M48.0909594,8.17194923 L54.9077461,5.94722387 L57.1324715,12.7354884 L50.2586406,14.9316917 L54.5084364,20.7787262 L48.7184461,25 L44.4971723,19.1244433 L40.3044207,25 L34.5429525,20.7787262 L38.7642262,14.9316917 L31.8903953,12.7354884 L34.1151207,5.94722387 L40.9604295,8.17194923 L40.9604295,0.984375 L48.0909594,0.984375 L48.0909594,8.17194923 Z M79.2426921,8.17194923 L86.0594788,5.94722387 L88.2842041,12.7354884 L81.4103732,14.9316917 L85.6601691,20.7787262 L79.8701788,25 L75.648905,19.1244433 L71.4561534,25 L65.6946851,20.7787262 L69.9159589,14.9316917 L63.042128,12.7354884 L65.2668533,5.94722387 L72.1121621,8.17194923 L72.1121621,0.984375 L79.2426921,0.984375 L79.2426921,8.17194923 Z M152.68094,8.17194923 L159.497726,5.94722387 L161.722452,12.7354884 L154.848621,14.9316917 L159.098417,20.7787262 L153.308426,25 L149.087153,19.1244433 L144.894401,25 L139.132933,20.7787262 L143.354206,14.9316917 L136.480376,12.7354884 L138.705101,5.94722387 L145.55041,8.17194923 L145.55041,0.984375 L152.68094,0.984375 L152.68094,8.17194923 Z" id="***-*"></path>
                <path d="M118.837079,12.4119203 C117.569367,12.4119203 116.540775,11.3873344 116.540775,10.1211326 C116.540775,8.85642523 117.569367,7.83030454 118.837079,7.83030454 C120.104872,7.83030454 121.133383,8.85642523 121.133383,10.1211326 C121.133383,11.3873344 120.104872,12.4119203 118.837079,12.4119203 M105.824636,10.1211326 C105.824636,8.85642523 106.853228,7.83030454 108.12094,7.83030454 C109.388733,7.83030454 110.417244,8.85642523 110.417244,10.1211326 C110.417244,11.3873344 109.388733,12.4119203 108.12094,12.4119203 C106.853228,12.4119203 105.824636,11.3873344 105.824636,10.1211326 M113.478281,0 C101.99668,0 102,10.6903963 102,10.6903963 L102,27 L104.871676,23.1860461 L107.738371,27 L110.605391,23.1860461 L113.472572,27 L116.339794,23.1860461 L119.207097,27 L122.076626,23.1860461 L124.956561,27 L124.956561,10.6903963 C124.956561,10.6903963 124.959841,0 113.478281,0" id="Ghost"></path>
            </g>
        </g>
    </g>
</svg>