<?xml version="1.0" encoding="UTF-8" standalone="no"?>
<svg width="202px" height="44px" viewBox="0 0 202 44" version="1.1" xmlns="http://www.w3.org/2000/svg" xmlns:xlink="http://www.w3.org/1999/xlink">
    <!-- Generator: Sketch 43.2 (39069) - http://www.bohemiancoding.com/sketch -->
    <title>Rectangle 3 Copy 2</title>
    <desc>Created with Sketch.</desc>
    <defs></defs>
    <g id="Page-1" stroke="none" stroke-width="1" fill="none" fill-rule="evenodd">
        <g id="Desktop-HD-Copy-43" transform="translate(-38.000000, -15.000000)">
            <g id="Rectangle-3-Copy-2" transform="translate(17.000000, 15.000000)">
                <polygon fill="#FFFFFF" points="23.8262872 0 52.65211 3.32086374 55.6816644 39.5957272 21.5625 43.2824427"></polygon>
                <path d="M39.3200586,10.6629236 C41.6392577,10.6629236 43.4581184,11.1936195 44.7766953,12.2550271 C46.0952722,13.3164348 46.7545508,14.7822776 46.7545508,16.6525994 C46.7545508,17.6812764 46.4786824,18.5743417 45.9269375,19.3318221 C45.3751926,20.0893024 44.5662905,20.7018236 43.500207,21.1694041 C44.7065646,21.5247652 45.5739134,22.1162457 46.1022793,22.9438631 C46.6306452,23.7714805 46.8948242,24.7978042 46.8948242,26.022865 L46.8948242,27.0608885 C46.8948242,27.5097657 46.9836632,27.8581079 47.1613438,28.1059256 C47.3390243,28.3537432 47.6335956,28.5010289 48.0450664,28.5477869 L48.5500508,28.6179236 L48.5500508,31.0867361 L46.4319219,31.0867361 C45.0946418,31.0867361 44.1548191,30.7267046 43.6124258,30.0066307 C43.0700324,29.2865567 42.7988398,28.3560856 42.7988398,27.2151892 L42.7988398,26.0509197 C42.7988398,25.0596491 42.5346608,24.2811393 42.0062949,23.715367 C41.477929,23.1495946 40.7321493,22.8526855 39.7689336,22.8246307 L36.4163984,22.8246307 L36.4163984,28.2111307 L38.6046641,28.631951 L38.6046641,31.0867361 L30.1461758,31.0867361 L30.1461758,28.631951 L32.3204141,28.2111307 L32.3204141,13.5525564 L30.1461758,13.1317361 L30.1461758,10.6629236 L39.3200586,10.6629236 Z M36.4163984,19.6684783 L39.2499219,19.6684783 C40.3908182,19.6684783 41.2464776,19.4253401 41.8169258,18.9390564 C42.3873739,18.4527728 42.6725938,17.7514126 42.6725938,16.8349549 C42.6725938,15.9184972 42.3897118,15.1867447 41.8239395,14.6396756 C41.2581671,14.0926064 40.4235485,13.819076 39.3200586,13.819076 L36.4163984,13.819076 L36.4163984,19.6684783 Z M57.2610313,31.3813103 C55.0727547,31.3813103 53.32403,30.6799502 52.0148047,29.2772088 C50.7055794,27.8744674 50.0509766,26.0930125 50.0509766,23.9327908 L50.0509766,23.3716971 C50.0509766,21.1179592 50.6705114,19.2616926 51.9095996,17.8028416 C53.1486878,16.3439905 54.8109114,15.6192517 56.8963203,15.6286033 C58.9443227,15.6286033 60.5340725,16.2458003 61.6656172,17.4802127 C62.7971619,18.7146251 63.3629258,20.3838623 63.3629258,22.4879744 L63.3629258,24.7183221 L54.3012617,24.7183221 L54.273207,24.8024861 C54.3480199,25.8031083 54.6823349,26.6260376 55.2761621,27.2712986 C55.8699893,27.9165597 56.6765535,28.2391853 57.6958789,28.2391853 C58.602985,28.2391853 59.3557783,28.1480085 59.9542813,27.9656521 C60.5527842,27.7832958 61.2073871,27.4957381 61.9181094,27.1029705 L63.0262695,29.6278924 C62.3997117,30.1235277 61.5884718,30.539668 60.5925254,30.876326 C59.596579,31.2129839 58.4860921,31.3813103 57.2610313,31.3813103 Z M56.8963203,18.7847557 C56.13884,18.7847557 55.5403459,19.0746512 55.1008203,19.654451 C54.6612947,20.2342507 54.3901021,20.9963955 54.2872344,21.940908 L54.3293164,22.0110447 L59.3511055,22.0110447 L59.3511055,21.6463338 C59.3511055,20.7766341 59.147711,20.0822875 58.740916,19.5632732 C58.334121,19.0442589 57.7192619,18.7847557 56.8963203,18.7847557 Z M77.6848438,21.1273221 L74.9354844,21.1273221 L74.5006367,19.2336307 C74.2200884,19.009192 73.8670705,18.8221627 73.4415723,18.6725369 C73.016074,18.5229112 72.5461627,18.4480994 72.0318242,18.4480994 C71.3117503,18.4480994 70.7413107,18.6094122 70.3204883,18.9320428 C69.8996659,19.2546733 69.6892578,19.6591243 69.6892578,20.145408 C69.6892578,20.6036369 69.8903144,20.9847092 70.2924336,21.2886365 C70.6945528,21.5925638 71.4987791,21.8614185 72.7051367,22.0952088 C74.5848102,22.4692731 75.9781791,23.018672 76.8852852,23.7434217 C77.7923913,24.4681714 78.2459375,25.4664407 78.2459375,26.7382596 C78.2459375,28.1035945 77.6591328,29.2187572 76.4855059,30.083781 C75.3118789,30.9488049 73.7665486,31.3813103 71.8494688,31.3813103 C70.6805176,31.3813103 69.6074365,31.210646 68.6301934,30.8693123 C67.6529502,30.5279786 66.7856014,30.0393643 66.0281211,29.4034549 L65.9860391,25.9948103 L68.8476172,25.9948103 L69.4087109,27.9726658 C69.6518528,28.1784012 69.9838299,28.3303626 70.4046523,28.4285545 C70.8254748,28.5267464 71.2649938,28.5758416 71.7232227,28.5758416 C72.5555159,28.5758416 73.1890779,28.4262181 73.6239277,28.1269666 C74.0587776,27.8277151 74.2761992,27.4209262 74.2761992,26.9065877 C74.2761992,26.4577104 74.0564397,26.0696245 73.6169141,25.7423182 C73.1773884,25.4150118 72.3684864,25.1251163 71.1901836,24.8726228 C69.4040262,24.5079101 68.0550768,23.9678627 67.1432949,23.2524646 C66.231513,22.5370665 65.7756289,21.5621759 65.7756289,20.3277635 C65.7756289,19.0559446 66.2993112,17.9594849 67.3466914,17.0383514 C68.3940716,16.1172178 69.8856309,15.656658 71.8214141,15.656658 C72.9997168,15.656658 74.1148795,15.815633 75.1669355,16.1335877 C76.2189916,16.4515424 77.0442587,16.8583313 77.6427617,17.3539666 L77.6848438,21.1273221 Z M90.7022188,29.16499 C90.2159351,29.8757123 89.6151032,30.4227733 88.8997051,30.8061892 C88.184307,31.1896052 87.3683913,31.3813103 86.4519336,31.3813103 C84.8528084,31.3813103 83.5997116,30.8693174 82.6926055,29.8453162 C81.7854994,28.821315 81.3319531,27.2292274 81.3319531,25.0690057 L81.3319531,18.798783 L79.6626992,18.3779627 L79.6626992,15.9091502 L85.4279375,15.9091502 L85.4279375,25.0970603 C85.4279375,26.2005502 85.612629,26.9930872 85.9820176,27.4746951 C86.3514061,27.956303 86.9008049,28.1971033 87.6302305,28.1971033 C88.2754915,28.1971033 88.8342418,28.0918993 89.306498,27.8814881 C89.7787543,27.6710769 90.1645024,27.369492 90.4637539,26.9767244 L90.4637539,18.798783 L88.6682539,18.3779627 L88.6682539,15.9091502 L94.5597383,15.9091502 L94.5597383,28.2111307 L96.3973203,28.631951 L96.3973203,31.0867361 L90.9687383,31.0867361 L90.7022188,29.16499 Z M97.5335352,18.3779627 L97.5335352,15.9091502 L103.523211,15.9091502 L103.691539,17.9150603 C104.177823,17.1856348 104.788006,16.6222088 105.522107,16.2247654 C106.256209,15.827322 107.104855,15.6286033 108.06807,15.6286033 C109.040638,15.6286033 109.872918,15.8436871 110.564938,16.2738611 C111.256957,16.7040351 111.780639,17.3539622 112.136,18.2236619 C112.60358,17.4100719 113.211426,16.774172 113.959555,16.3159432 C114.707683,15.8577143 115.586722,15.6286033 116.596695,15.6286033 C118.092953,15.6286033 119.273576,16.145272 120.1386,17.1786248 C121.003623,18.2119776 121.436129,19.7853623 121.436129,21.898826 L121.436129,28.2111307 L123.413984,28.631951 L123.413984,31.0867361 L115.572699,31.0867361 L115.572699,28.631951 L117.340145,28.2111307 L117.340145,21.8847986 C117.340145,20.7345507 117.153115,19.9350001 116.779051,19.4861228 C116.404986,19.0372456 115.848574,18.8128103 115.109797,18.8128103 C114.529997,18.8128103 114.027356,18.941393 113.601857,19.1985623 C113.176359,19.4557315 112.837368,19.8134252 112.584875,20.2716541 C112.584875,20.4493347 112.589551,20.601296 112.598902,20.7275428 C112.608254,20.8537895 112.61293,20.9823722 112.61293,21.1132947 L112.61293,28.2111307 L114.268156,28.631951 L114.268156,31.0867361 L106.875746,31.0867361 L106.875746,28.631951 L108.530973,28.2111307 L108.530973,21.8847986 C108.530973,20.7626055 108.343943,19.9700685 107.969879,19.5071639 C107.595815,19.0442592 107.034726,18.8128103 106.286598,18.8128103 C105.734853,18.8128103 105.250914,18.9180144 104.834768,19.1284256 C104.418621,19.3388368 104.074954,19.6357459 103.803758,20.0191619 L103.803758,28.2111307 L105.571203,28.631951 L105.571203,31.0867361 L97.7439453,31.0867361 L97.7439453,28.631951 L99.7218008,28.2111307 L99.7218008,18.798783 L97.5335352,18.3779627 Z M131.998719,31.3813103 C129.810442,31.3813103 128.061717,30.6799502 126.752492,29.2772088 C125.443267,27.8744674 124.788664,26.0930125 124.788664,23.9327908 L124.788664,23.3716971 C124.788664,21.1179592 125.408199,19.2616926 126.647287,17.8028416 C127.886375,16.3439905 129.548599,15.6192517 131.634008,15.6286033 C133.68201,15.6286033 135.27176,16.2458003 136.403305,17.4802127 C137.534849,18.7146251 138.100613,20.3838623 138.100613,22.4879744 L138.100613,24.7183221 L129.038949,24.7183221 L129.010895,24.8024861 C129.085707,25.8031083 129.420022,26.6260376 130.01385,27.2712986 C130.607677,27.9165597 131.414241,28.2391853 132.433566,28.2391853 C133.340673,28.2391853 134.093466,28.1480085 134.691969,27.9656521 C135.290472,27.7832958 135.945075,27.4957381 136.655797,27.1029705 L137.763957,29.6278924 C137.137399,30.1235277 136.326159,30.539668 135.330213,30.876326 C134.334267,31.2129839 133.22378,31.3813103 131.998719,31.3813103 Z M131.634008,18.7847557 C130.876527,18.7847557 130.278033,19.0746512 129.838508,19.654451 C129.398982,20.2342507 129.12779,20.9963955 129.024922,21.940908 L129.067004,22.0110447 L134.088793,22.0110447 L134.088793,21.6463338 C134.088793,20.7766341 133.885399,20.0822875 133.478604,19.5632732 C133.071809,19.0442589 132.456949,18.7847557 131.634008,18.7847557 Z" id="ResumeCoach" fill="#17324E"></path>
                <path d="M156.808816,16.8553125 L155.504273,16.8553125 L155.265809,13.7552695 C154.723415,13.1100085 154.017379,12.5886641 153.14768,12.1912207 C152.27798,11.7937773 151.272697,11.5950586 150.131801,11.5950586 C147.850008,11.5950586 146.035823,12.4250015 144.689191,14.0849121 C143.34256,15.7448228 142.669254,17.888647 142.669254,20.5164492 L142.669254,20.8110234 C142.669254,23.4388256 143.335546,25.5873256 144.66815,27.2565879 C146.000755,28.9258501 147.751817,29.7604687 149.921391,29.7604687 C151.071639,29.7604687 152.116665,29.5594122 153.056502,29.157293 C153.996339,28.7551738 154.732767,28.2361672 155.265809,27.6002578 L155.504273,24.5002148 L156.808816,24.5002148 L156.808816,28.0912148 C156.172907,28.9702661 155.244774,29.7043564 154.024389,30.2935078 C152.804004,30.8826592 151.436351,31.1772305 149.921391,31.1772305 C147.30294,31.1772305 145.161454,30.2070156 143.496867,28.2665566 C141.832281,26.3260977 141,23.8409448 141,20.8110234 L141,20.5445039 C141,17.5052309 141.829943,15.0154023 143.489854,13.0749434 C145.149764,11.1344844 147.321643,10.1642695 150.005555,10.1642695 C151.520515,10.1642695 152.874141,10.4611787 154.066471,11.0550059 C155.258801,11.648833 156.172907,12.3852612 156.808816,13.2643125 L156.808816,16.8553125 Z M159.838723,23.0694258 C159.838723,20.8343912 160.451244,19.0015032 161.676305,17.570707 C162.901366,16.1399108 164.523845,15.4245234 166.543793,15.4245234 C168.573092,15.4245234 170.200248,16.1399108 171.425309,17.570707 C172.650369,19.0015032 173.262891,20.8343912 173.262891,23.0694258 L173.262891,23.5323281 C173.262891,25.7767143 172.652707,27.6119401 171.432322,29.0380605 C170.211937,30.464181 168.591795,31.1772305 166.571848,31.1772305 C164.533197,31.1772305 162.901366,30.464181 161.676305,29.0380605 C160.451244,27.6119401 159.838723,25.7767143 159.838723,23.5323281 L159.838723,23.0694258 Z M161.522004,23.5323281 C161.522004,25.2904307 161.966199,26.7679628 162.854602,27.9649688 C163.743004,29.1619747 164.982074,29.7604687 166.571848,29.7604687 C168.133566,29.7604687 169.358609,29.1619747 170.247012,27.9649688 C171.135415,26.7679628 171.579609,25.2904307 171.579609,23.5323281 L171.579609,23.0694258 C171.579609,21.3393781 171.133077,19.8711974 170.239998,18.6648398 C169.346919,17.4584822 168.114863,16.8553125 166.543793,16.8553125 C164.972723,16.8553125 163.743004,17.4584822 162.854602,18.6648398 C161.966199,19.8711974 161.522004,21.3393781 161.522004,23.0694258 L161.522004,23.5323281 Z M186.476648,30.8826563 C186.364429,30.3683177 186.284942,29.924123 186.238184,29.5500586 C186.191426,29.1759942 186.168047,28.7972597 186.168047,28.4138438 C185.60695,29.2087305 184.858833,29.8680091 183.923672,30.3916992 C182.988511,30.9153893 181.936471,31.1772305 180.76752,31.1772305 C179.280614,31.1772305 178.130383,30.7938202 177.316793,30.0269883 C176.503203,29.2601563 176.096414,28.2221433 176.096414,26.912918 C176.096414,25.5101766 176.699584,24.3973518 177.905941,23.5744102 C179.112299,22.7514685 180.748806,22.3400039 182.815512,22.3400039 L186.168047,22.3400039 L186.168047,20.3340937 C186.168047,19.2493071 185.819705,18.3983234 185.12301,17.7811172 C184.426315,17.163911 183.451424,16.8553125 182.198309,16.8553125 C181.356664,16.8553125 180.587505,16.969868 179.890811,17.1989824 C179.194116,17.4280968 178.611987,17.7390332 178.144406,18.1318008 L178.004133,20.1657656 L176.615426,20.1657656 L176.629453,17.2480781 C177.330824,16.7056848 178.170118,16.2661657 179.147361,15.9295078 C180.124604,15.5928499 181.164955,15.4245234 182.268445,15.4245234 C183.942383,15.4245234 185.288995,15.8500153 186.30832,16.7010117 C187.327646,17.5520082 187.837301,18.7723749 187.837301,20.3621484 L187.837301,27.8246953 C187.837301,28.1332984 187.844314,28.4302076 187.858342,28.7154316 C187.872369,29.0006557 187.902761,29.2788619 187.94952,29.5500586 L189.464473,29.64825 L189.464473,30.8826563 L186.476648,30.8826563 Z M180.949875,29.690332 C182.165584,29.690332 183.236327,29.409788 184.162137,28.8486914 C185.087946,28.2875949 185.756576,27.562856 186.168047,26.6744531 L186.168047,23.6305195 L182.787457,23.6305195 C181.263145,23.6305195 180.045116,23.9461316 179.133334,24.5773652 C178.221552,25.2085989 177.765668,26.0058116 177.765668,26.9690273 C177.765668,27.7826173 178.04855,28.439558 178.614322,28.9398691 C179.180095,29.4401802 179.958604,29.690332 180.949875,29.690332 Z M198.329754,29.7604688 C199.442595,29.7604688 200.4245,29.4425188 201.275496,28.8066094 C202.126493,28.1706999 202.551984,27.2869861 202.551984,26.1554414 L204.038883,26.1554414 L204.066938,26.2396055 C204.113696,27.6423469 203.554945,28.8159562 202.39067,29.7604688 C201.226395,30.7049813 199.872769,31.1772305 198.329754,31.1772305 C196.2724,31.1772305 194.677974,30.4688567 193.54643,29.0520879 C192.414885,27.6353191 191.849121,25.8141205 191.849121,23.5884375 L191.849121,22.9992891 C191.849121,20.7923093 192.414885,18.9781243 193.54643,17.5566797 C194.677974,16.1352351 196.267724,15.4245234 198.315727,15.4245234 C199.484678,15.4245234 200.555421,15.644283 201.527988,16.0838086 C202.500556,16.5233342 203.290755,17.1218282 203.898609,17.8793086 L203.968746,21.1897617 L202.537957,21.1897617 L202.271438,18.4965117 C201.82256,17.9915248 201.26381,17.5917495 200.59517,17.2971738 C199.92653,17.0025981 199.166723,16.8553125 198.315727,16.8553125 C196.688547,16.8553125 195.484545,17.4374414 194.703686,18.6017168 C193.922826,19.7659921 193.532402,21.2318349 193.532402,22.9992891 L193.532402,23.5884375 C193.532402,25.3839465 193.920488,26.8614786 194.696672,28.0210781 C195.472855,29.1806777 196.683871,29.7604688 198.329754,29.7604688 Z M206.704078,10.2484336 L206.704078,9 L210.659789,9 L210.659789,18.3001289 C211.164776,17.3930228 211.838082,16.6869869 212.679727,16.182 C213.521371,15.6770131 214.503276,15.4245234 215.625469,15.4245234 C217.224594,15.4245234 218.451974,15.9201513 219.307646,16.9114219 C220.163319,17.9026925 220.591148,19.4410091 220.591148,21.526418 L220.591148,29.4658945 L222.877605,29.64825 L222.877605,30.8826563 L216.62141,30.8826563 L216.62141,29.64825 L218.907867,29.4658945 L218.907867,21.4983633 C218.907867,19.8524801 218.582904,18.6718571 217.932967,17.956459 C217.28303,17.2410609 216.387627,16.8833672 215.24673,16.8833672 C214.096483,16.8833672 213.135619,17.1849521 212.364111,17.7881309 C211.592604,18.3913097 211.024502,19.1931981 210.659789,20.1938203 L210.659789,29.4658945 L212.946246,29.64825 L212.946246,30.8826563 L206.704078,30.8826563 L206.704078,29.64825 L208.990535,29.4658945 L208.990535,10.4307891 L206.704078,10.2484336 Z" id="ResumeCoach" fill="#FFFFFF"></path>
            </g>
        </g>
    </g>
</svg>