<svg width="166" height="235" viewBox="0 0 166 235" fill="none" xmlns="http://www.w3.org/2000/svg">
<g opacity="0.6">
<path d="M0 4.22485C0 1.89153 1.89153 0 4.22485 0H161.601C163.934 0 165.825 1.89153 165.825 4.22485V230.254C165.825 232.588 163.934 234.479 161.601 234.479H4.22486C1.89154 234.479 0 232.588 0 230.254V4.22485Z" fill="white"/>
<path d="M166 4.00001C166 1.79087 164.209 0 162 0H159V235H162C164.209 235 166 233.209 166 231V4.00001Z" fill="#99A298"/>
<path d="M19 165C19 164.448 19.4477 164 20 164H53C53.5523 164 54 164.448 54 165C54 165.552 53.5523 166 53 166H20C19.4477 166 19 165.552 19 165Z" fill="#DDDDDD"/>
<path d="M19 170C19 169.448 19.4477 169 20 169H61C61.5523 169 62 169.448 62 170C62 170.552 61.5523 171 61 171H20C19.4477 171 19 170.552 19 170Z" fill="#D9D9D9"/>
<path d="M19 28C19 27.4477 19.4477 27 20 27H32C32.5523 27 33 27.4477 33 28C33 28.5523 32.5523 29 32 29H20C19.4477 29 19 28.5523 19 28Z" fill="#D9D9D9"/>
<path d="M19 54C19 53.4477 19.4477 53 20 53H38C38.5523 53 39 53.4477 39 54C39 54.5523 38.5523 55 38 55H20C19.4477 55 19 54.5523 19 54Z" fill="#D9D9D9"/>
<path d="M19 69C19 68.4477 19.4477 68 20 68H138C138.552 68 139 68.4477 139 69C139 69.5523 138.552 70 138 70H20C19.4477 70 19 69.5523 19 69Z" fill="#D9D9D9"/>
<path d="M19 91C19 90.4477 19.4477 90 20 90H138C138.552 90 139 90.4477 139 91C139 91.5523 138.552 92 138 92H20C19.4477 92 19 91.5523 19 91Z" fill="#D9D9D9"/>
<path d="M19 105C19 104.448 19.4477 104 20 104H128C128.552 104 129 104.448 129 105C129 105.552 128.552 106 128 106H20C19.4477 106 19 105.552 19 105Z" fill="#D9D9D9"/>
<path d="M19 125C19 124.448 19.4477 124 20 124H128C128.552 124 129 124.448 129 125C129 125.552 128.552 126 128 126H20C19.4477 126 19 125.552 19 125Z" fill="#D9D9D9"/>
<path d="M19 74C19 73.4477 19.4477 73 20 73H128C128.552 73 129 73.4477 129 74C129 74.5523 128.552 75 128 75H20C19.4477 75 19 74.5523 19 74Z" fill="#D9D9D9"/>
<path d="M19 59C19 58.4477 19.4477 58 20 58H138C138.552 58 139 58.4477 139 59C139 59.5523 138.552 60 138 60H20C19.4477 60 19 59.5523 19 59Z" fill="#D9D9D9"/>
<path d="M19 95.5C19 95.2239 19.2239 95 19.5 95H128.5C128.776 95 129 95.2239 129 95.5C129 95.7761 128.776 96 128.5 96H19.5C19.2239 96 19 95.7761 19 95.5Z" fill="#D9D9D9"/>
<path d="M19 100C19 99.4477 19.4477 99 20 99H138C138.552 99 139 99.4477 139 100C139 100.552 138.552 101 138 101H20C19.4477 101 19 100.552 19 100Z" fill="#D9D9D9"/>
<path d="M19 110C19 109.448 19.4477 109 20 109H138C138.552 109 139 109.448 139 110C139 110.552 138.552 111 138 111H20C19.4477 111 19 110.552 19 110Z" fill="#D9D9D9"/>
<path d="M19 79C19 78.4477 19.4477 78 20 78H138C138.552 78 139 78.4477 139 79C139 79.5523 138.552 80 138 80H20C19.4477 80 19 79.5523 19 79Z" fill="#D9D9D9"/>
<path d="M19 115C19 114.448 19.4477 114 20 114H128C128.552 114 129 114.448 129 115C129 115.552 128.552 116 128 116H20C19.4477 116 19 115.552 19 115Z" fill="#D9D9D9"/>
<path d="M19 120C19 119.448 19.4477 119 20 119H138C138.552 119 139 119.448 139 120C139 120.552 138.552 121 138 121H20C19.4477 121 19 120.552 19 120Z" fill="#D9D9D9"/>
<path d="M19 130C19 129.448 19.4477 129 20 129H138C138.552 129 139 129.448 139 130C139 130.552 138.552 131 138 131H20C19.4477 131 19 130.552 19 130Z" fill="#D9D9D9"/>
<path d="M19 64C19 63.4477 19.4477 63 20 63H128C128.552 63 129 63.4477 129 64C129 64.5523 128.552 65 128 65H20C19.4477 65 19 64.5523 19 64Z" fill="#D9D9D9"/>
<path d="M19 135C19 134.448 19.4477 134 20 134H128C128.552 134 129 134.448 129 135C129 135.552 128.552 136 128 136H20C19.4477 136 19 135.552 19 135Z" fill="#D9D9D9"/>
<path d="M19 33C19 32.4477 19.4477 32 20 32H44C44.5523 32 45 32.4477 45 33C45 33.5523 44.5523 34 44 34H20C19.4477 34 19 33.5523 19 33Z" fill="#DDDDDD"/>
<path d="M19 43C19 42.4477 19.4477 42 20 42H44C44.5523 42 45 42.4477 45 43C45 43.5523 44.5523 44 44 44H20C19.4477 44 19 43.5523 19 43Z" fill="#D9D9D9"/>
<path d="M19 38C19 37.4477 19.4477 37 20 37H50C50.5523 37 51 37.4477 51 38C51 38.5523 50.5523 39 50 39H20C19.4477 39 19 38.5523 19 38Z" fill="#D9D9D9"/>
<path d="M112 14C112 13.4477 112.448 13 113 13H136C136.552 13 137 13.4477 137 14C137 14.5523 136.552 15 136 15H113C112.448 15 112 14.5523 112 14Z" fill="#D9D9D9"/>
<path d="M112 19C112 18.4477 112.448 18 113 18H140C140.552 18 141 18.4477 141 19C141 19.5523 140.552 20 140 20H113C112.448 20 112 19.5523 112 19Z" fill="#D9D9D9"/>
<path d="M112 29C112 28.4477 112.448 28 113 28H140C140.552 28 141 28.4477 141 29C141 29.5523 140.552 30 140 30H113C112.448 30 112 29.5523 112 29Z" fill="#D9D9D9"/>
<path d="M112 24C112 23.4477 112.448 23 113 23H136C136.552 23 137 23.4477 137 24C137 24.5523 136.552 25 136 25H113C112.448 25 112 24.5523 112 24Z" fill="#D9D9D9"/>
<path d="M14 0H15V235H14V0Z" fill="#D9D9D9"/>
<path d="M14 27.5C14 27.2239 14.2239 27 14.5 27C14.7761 27 15 27.2239 15 27.5V38.5C15 38.7761 14.7761 39 14.5 39C14.2239 39 14 38.7761 14 38.5V27.5Z" fill="#8A8E90"/>
<path d="M14 53.5C14 53.2239 14.2239 53 14.5 53C14.7761 53 15 53.2239 15 53.5V64.5C15 64.7761 14.7761 65 14.5 65C14.2239 65 14 64.7761 14 64.5V53.5Z" fill="#8A8E90"/>
<path d="M94.0038 13.2934C93.9183 13.3117 93.8328 13.3819 93.7473 13.504C93.668 13.62 93.6283 13.8276 93.6283 14.1267V19.8506L88.9392 14.3832V18.77C88.9392 19.063 88.9911 19.2706 89.0949 19.3927C89.1987 19.5087 89.2995 19.5759 89.3971 19.5942H88.1058C88.1913 19.5759 88.2768 19.5087 88.3623 19.3927C88.4538 19.2706 88.4996 19.06 88.4996 18.7608V14.1817C88.4996 13.9741 88.4294 13.7848 88.289 13.6139C88.1486 13.4429 87.9715 13.3361 87.7578 13.2934H88.8934L93.1887 18.3029V14.1267C93.1887 13.6566 93.0299 13.3788 92.7125 13.2934H94.0038Z" fill="#3D4042"/>
<path d="M80.7969 16.5172C80.7969 15.87 80.9343 15.293 81.209 14.7863C81.4899 14.2795 81.8806 13.8857 82.3813 13.6049C82.888 13.324 83.4711 13.1836 84.1305 13.1836C84.68 13.1836 85.1929 13.3057 85.6691 13.5499C86.1514 13.788 86.5361 14.1483 86.823 14.6306C87.1161 15.1129 87.2626 15.6929 87.2626 16.3706C87.2626 17.0178 87.1222 17.5948 86.8414 18.1015C86.5666 18.6083 86.1759 19.0021 85.6691 19.283C85.1684 19.5638 84.5884 19.7042 83.929 19.7042C83.3795 19.7042 82.8636 19.5852 82.3813 19.3471C81.905 19.1028 81.5204 18.7396 81.2273 18.2572C80.9403 17.7749 80.7969 17.1949 80.7969 16.5172ZM86.53 16.508C86.53 15.9524 86.414 15.4518 86.182 15.0061C85.9561 14.5543 85.6416 14.2032 85.2386 13.9529C84.8418 13.6965 84.393 13.5682 83.8924 13.5682C83.4345 13.5682 83.0254 13.6842 82.6652 13.9163C82.311 14.1483 82.0332 14.478 81.8318 14.9053C81.6303 15.3266 81.5295 15.8181 81.5295 16.3798C81.5295 16.9354 81.6425 17.4391 81.8684 17.8909C82.1004 18.3366 82.4148 18.6877 82.8117 18.9441C83.2147 19.1944 83.6665 19.3196 84.1671 19.3196C84.625 19.3196 85.0311 19.2036 85.3852 18.9716C85.7454 18.7396 86.0263 18.4129 86.2278 17.9916C86.4292 17.5643 86.53 17.0697 86.53 16.508Z" fill="#3D4042"/>
<path d="M78.1956 19.7042C77.8781 19.7042 77.5729 19.6615 77.2798 19.576C76.9867 19.4844 76.7242 19.3593 76.4922 19.2005V18.0924C76.6509 18.5015 76.8921 18.8128 77.2157 19.0265C77.5454 19.2341 77.8873 19.3379 78.2414 19.3379C78.5955 19.3379 78.8917 19.2219 79.1298 18.9899C79.3679 18.7518 79.4869 18.4587 79.4869 18.1107C79.4869 17.8787 79.4381 17.6803 79.3404 17.5154C79.2488 17.3506 79.0993 17.1979 78.8917 17.0575C78.6841 16.911 78.391 16.7492 78.0125 16.5721C77.4813 16.3279 77.0936 16.0745 76.8494 15.812C76.6112 15.5434 76.4922 15.2198 76.4922 14.8412C76.4922 14.5176 76.5685 14.2307 76.7211 13.9804C76.8799 13.7239 77.0905 13.5286 77.3531 13.3942C77.6217 13.2538 77.9148 13.1836 78.2323 13.1836C78.507 13.1836 78.7757 13.2233 79.0382 13.3027C79.3007 13.3759 79.545 13.4828 79.7709 13.6232V14.6123C79.6243 14.2765 79.4015 14.017 79.1023 13.8338C78.8092 13.6446 78.5101 13.5499 78.2048 13.5499C77.8568 13.5499 77.5759 13.6629 77.3622 13.8888C77.1485 14.1147 77.0417 14.3833 77.0417 14.6947C77.0417 14.9206 77.1058 15.116 77.234 15.2808C77.3622 15.4396 77.5179 15.5739 77.7011 15.6838C77.8904 15.7937 78.1529 15.928 78.4887 16.0867C78.8306 16.2516 79.1115 16.4042 79.3313 16.5447C79.5511 16.6851 79.7342 16.8682 79.8808 17.0941C80.0273 17.32 80.1006 17.5948 80.1006 17.9184C80.1006 18.2847 80.012 18.6022 79.835 18.8708C79.664 19.1395 79.432 19.3471 79.1389 19.4936C78.852 19.634 78.5375 19.7042 78.1956 19.7042Z" fill="#3D4042"/>
<path d="M73.0752 16.4248C73.3561 16.4248 73.6003 16.3606 73.8079 16.2324C74.0154 16.0981 74.1711 15.9272 74.2749 15.7196C74.3848 15.5059 74.4398 15.283 74.4398 15.051C74.4398 14.8129 74.3879 14.5901 74.2841 14.3825C74.1864 14.1688 74.0338 13.9948 73.8262 13.8605C73.6186 13.7261 73.3652 13.659 73.066 13.659H72.2876V18.7509C72.2876 18.9952 72.3181 19.1814 72.3792 19.3096C72.4402 19.4317 72.5074 19.5141 72.5806 19.5569C72.6539 19.5935 72.6905 19.6057 72.6905 19.5935H71.2344C71.2344 19.6057 71.271 19.5904 71.3443 19.5477C71.4175 19.505 71.4816 19.4225 71.5366 19.3004C71.5977 19.1783 71.6282 18.9952 71.6282 18.7509V14.1718C71.6282 13.9215 71.5977 13.7322 71.5366 13.604C71.4816 13.4697 71.4175 13.3812 71.3443 13.3384C71.271 13.2896 71.2344 13.2743 71.2344 13.2926H73.0477C73.524 13.2926 73.9147 13.372 74.22 13.5308C74.5314 13.6834 74.7542 13.8849 74.8885 14.1352C75.029 14.3794 75.0992 14.6481 75.0992 14.9411C75.0992 15.1853 75.0412 15.4265 74.9252 15.6646C74.8092 15.8966 74.6413 16.1012 74.4215 16.2782C74.2078 16.4492 73.9574 16.5682 73.6705 16.6354L73.524 16.6629L75.1358 18.7143C75.3495 18.9524 75.5266 19.1356 75.667 19.2638C75.8074 19.392 75.9082 19.4775 75.9692 19.5202C76.0364 19.563 76.0761 19.5874 76.0883 19.5935H75.0168L72.5257 16.4248H73.0752Z" fill="#3D4042"/>
<path d="M66.7812 19.5935C66.7812 19.6118 66.8179 19.5996 66.8912 19.5569C66.9644 19.508 67.0285 19.4164 67.0835 19.2821C67.1445 19.1417 67.1751 18.9402 67.1751 18.6777V14.181C67.1751 13.9307 67.1445 13.7414 67.0835 13.6132C67.0285 13.4789 66.9644 13.3873 66.8912 13.3384C66.8179 13.2896 66.7812 13.2743 66.7812 13.2926H70.0966V14.2085C69.9867 13.8421 69.657 13.659 69.1075 13.659H67.8345V16.2599H69.4097C69.5318 16.2599 69.6356 16.2416 69.7211 16.205C69.8065 16.1622 69.8707 16.1195 69.9134 16.0767C69.9561 16.034 69.9806 16.0065 69.9867 15.9943V16.8827C69.9806 16.8705 69.9561 16.843 69.9134 16.8002C69.8707 16.7575 69.8065 16.7178 69.7211 16.6812C69.6417 16.6446 69.5409 16.6262 69.4188 16.6262H67.8345V19.2272H69.2632C69.5379 19.2272 69.773 19.1722 69.9683 19.0623C70.1698 18.9463 70.3133 18.7998 70.3988 18.6227L70.2339 19.5935H66.7812Z" fill="#3D4042"/>
<path d="M64.4389 19.081C63.8649 19.4229 63.0987 19.5938 62.1401 19.5938H60.3359C60.3359 19.6121 60.3726 19.5969 60.4458 19.548C60.5191 19.4931 60.5832 19.3954 60.6382 19.255C60.6992 19.1145 60.7297 18.91 60.7297 18.6414V14.1355C60.7297 13.8974 60.6992 13.7173 60.6382 13.5952C60.5832 13.467 60.5191 13.3815 60.4458 13.3388C60.3726 13.296 60.3359 13.2808 60.3359 13.293H62.131C63.0651 13.293 63.8039 13.4456 64.3473 13.7509C64.8296 14.0195 65.202 14.3828 65.4646 14.8407C65.7271 15.2986 65.8584 15.8145 65.8584 16.3885C65.8584 17.0112 65.7332 17.5515 65.4829 18.0095C65.2387 18.4613 64.8907 18.8184 64.4389 19.081ZM64.0817 14.163C63.813 13.986 63.5261 13.8577 63.2208 13.7784C62.9155 13.699 62.5522 13.6593 62.131 13.6593H61.3891V19.2275H62.131C62.6316 19.2275 63.0407 19.1848 63.3582 19.0993C63.6818 19.0138 63.9596 18.8825 64.1916 18.7055C64.4908 18.4735 64.7197 18.1712 64.8785 17.7988C65.0433 17.4203 65.1257 16.9807 65.1257 16.48C65.1257 15.9489 65.0311 15.4848 64.8418 15.088C64.6587 14.685 64.4053 14.3767 64.0817 14.163Z" fill="#3D4042"/>
<path d="M59.2928 13.2935C59.2074 13.3118 59.1219 13.382 59.0364 13.5041C58.957 13.6201 58.9173 13.8277 58.9173 14.1269V19.8507L54.2283 14.3833V18.7701C54.2283 19.0631 54.2802 19.2707 54.384 19.3928C54.4878 19.5088 54.5885 19.576 54.6862 19.5943H53.3949C53.4804 19.576 53.5658 19.5088 53.6513 19.3928C53.7429 19.2707 53.7887 19.0601 53.7887 18.7609V14.1818C53.7887 13.9742 53.7185 13.7849 53.5781 13.614C53.4376 13.443 53.2606 13.3362 53.0469 13.2935H54.1825L58.4777 18.303V14.1269C58.4777 13.6567 58.319 13.3789 58.0015 13.2935H59.2928Z" fill="#3D4042"/>
<path d="M48.6256 17.1487L48.0394 18.6048C47.9479 18.8307 47.9021 19.0169 47.9021 19.1635C47.9021 19.3649 47.9937 19.5084 48.1768 19.5939H46.8672C46.9282 19.5939 47.0168 19.5328 47.1328 19.4107C47.2488 19.2886 47.3831 19.0475 47.5357 18.6872L49.9261 13L52.2981 18.7147C52.4324 19.0444 52.5606 19.2703 52.6827 19.3924C52.8109 19.5145 52.9117 19.5817 52.9849 19.5939H51.4647C51.6173 19.5206 51.6936 19.4077 51.6936 19.2551C51.6936 19.1268 51.6448 18.9437 51.5471 18.7056L50.906 17.1487H48.6256ZM50.7595 16.7732L49.7612 14.3279L48.7813 16.7732H50.7595Z" fill="#3D4042"/>
<path d="M41.0547 19.5935C41.0547 19.6118 41.0913 19.5996 41.1646 19.5569C41.2379 19.508 41.302 19.4164 41.3569 19.2821C41.418 19.1417 41.4485 18.9402 41.4485 18.6777V14.181C41.4485 13.9307 41.418 13.7414 41.3569 13.6132C41.302 13.4789 41.2379 13.3873 41.1646 13.3384C41.0913 13.2896 41.0547 13.2743 41.0547 13.2926H44.37V14.2085C44.2601 13.8421 43.9304 13.659 43.3809 13.659H42.1079V16.2599H43.6831C43.8052 16.2599 43.909 16.2416 43.9945 16.205C44.08 16.1622 44.1441 16.1195 44.1868 16.0767C44.2296 16.034 44.254 16.0065 44.2601 15.9943V16.8827C44.254 16.8705 44.2296 16.843 44.1868 16.8002C44.1441 16.7575 44.08 16.7178 43.9945 16.6812C43.9151 16.6446 43.8144 16.6262 43.6923 16.6262H42.1079V19.2272H43.5366C43.8113 19.2272 44.0464 19.1722 44.2418 19.0623C44.4433 18.9463 44.5867 18.7998 44.6722 18.6227L44.5074 19.5935H41.0547Z" fill="#3D4042"/>
<path d="M33.7578 16.5172C33.7578 15.87 33.8952 15.293 34.1699 14.7863C34.4508 14.2795 34.8415 13.8857 35.3422 13.6049C35.849 13.324 36.432 13.1836 37.0914 13.1836C37.6409 13.1836 38.1538 13.3057 38.63 13.5499C39.1124 13.788 39.497 14.1483 39.784 14.6306C40.077 15.1129 40.2236 15.6929 40.2236 16.3706C40.2236 17.0178 40.0831 17.5948 39.8023 18.1015C39.5275 18.6083 39.1368 19.0021 38.63 19.283C38.1294 19.5638 37.5494 19.7042 36.89 19.7042C36.3405 19.7042 35.8245 19.5852 35.3422 19.3471C34.866 19.1028 34.4813 18.7396 34.1883 18.2572C33.9013 17.7749 33.7578 17.1949 33.7578 16.5172ZM39.4909 16.508C39.4909 15.9524 39.3749 15.4518 39.1429 15.0061C38.917 14.5543 38.6026 14.2032 38.1996 13.9529C37.8027 13.6965 37.354 13.5682 36.8533 13.5682C36.3954 13.5682 35.9863 13.6842 35.6261 13.9163C35.272 14.1483 34.9942 14.478 34.7927 14.9053C34.5912 15.3266 34.4905 15.8181 34.4905 16.3798C34.4905 16.9354 34.6034 17.4391 34.8293 17.8909C35.0613 18.3366 35.3758 18.6877 35.7726 18.9441C36.1756 19.1944 36.6274 19.3196 37.1281 19.3196C37.586 19.3196 37.992 19.2036 38.3461 18.9716C38.7063 18.7396 38.9872 18.4129 39.1887 17.9916C39.3902 17.5643 39.4909 17.0697 39.4909 16.508Z" fill="#3D4042"/>
<path d="M30.2297 14.1448C30.2297 13.9006 30.1992 13.7175 30.1382 13.5954C30.0832 13.4671 30.0191 13.3817 29.9458 13.3389C29.8726 13.2962 29.8359 13.2809 29.8359 13.2931H31.2921C31.2921 13.2809 31.2555 13.2962 31.1822 13.3389C31.1089 13.3817 31.0418 13.4671 30.9807 13.5954C30.9197 13.7175 30.8891 13.9006 30.8891 14.1448V19.2276H32.3911C32.6659 19.2276 32.9009 19.1727 33.0963 19.0628C33.2978 18.9468 33.4413 18.8003 33.5267 18.6232L33.3619 19.594H29.8359C29.8359 19.6123 29.8726 19.6001 29.9458 19.5573C30.0191 19.5085 30.0832 19.4169 30.1382 19.2826C30.1992 19.1422 30.2297 18.9407 30.2297 18.6782V14.1448Z" fill="#3D4042"/>
<path d="M27.3594 19.5935C27.3594 19.6118 27.396 19.5996 27.4693 19.5569C27.5426 19.508 27.6097 19.4225 27.6708 19.3004C27.7318 19.1722 27.7624 18.986 27.7624 18.7418V16.6629H24.3188V18.7418C24.3188 18.986 24.3494 19.1722 24.4104 19.3004C24.4715 19.4225 24.5386 19.505 24.6119 19.5477C24.6852 19.5904 24.7218 19.6057 24.7218 19.5935H23.2656C23.2656 19.6118 23.3023 19.5996 23.3755 19.5569C23.4488 19.508 23.5129 19.4225 23.5678 19.3004C23.6289 19.1722 23.6594 18.986 23.6594 18.7418V14.1444C23.6594 13.9001 23.6289 13.717 23.5678 13.5949C23.5129 13.4667 23.4488 13.3812 23.3755 13.3384C23.3023 13.2957 23.2656 13.2804 23.2656 13.2926H24.7218C24.7218 13.2804 24.6852 13.2957 24.6119 13.3384C24.5386 13.3812 24.4715 13.4667 24.4104 13.5949C24.3494 13.717 24.3188 13.9001 24.3188 14.1444V16.2599H27.7624V14.1444C27.7624 13.9001 27.7318 13.717 27.6708 13.5949C27.6097 13.4667 27.5426 13.3812 27.4693 13.3384C27.396 13.2957 27.3594 13.2804 27.3594 13.2926H28.8156C28.8156 13.2743 28.7789 13.2896 28.7057 13.3384C28.6324 13.3812 28.5652 13.4667 28.5042 13.5949C28.4492 13.717 28.4217 13.9001 28.4217 14.1444V18.7418C28.4217 18.986 28.4523 19.1722 28.5133 19.3004C28.5744 19.4225 28.6415 19.505 28.7148 19.5477C28.7881 19.5904 28.8247 19.6057 28.8247 19.5935H27.3594Z" fill="#3D4042"/>
<path d="M22.2386 19.0352C22.0065 19.2245 21.7043 19.3832 21.3319 19.5114C20.9594 19.6397 20.5839 19.7038 20.2054 19.7038C19.6376 19.7038 19.1095 19.5725 18.621 19.31C18.1326 19.0474 17.7388 18.6689 17.4396 18.1743C17.1465 17.6798 17 17.0998 17 16.4343C17 15.8115 17.1343 15.2529 17.403 14.7583C17.6777 14.2638 18.0654 13.8792 18.5661 13.6044C19.0728 13.3236 19.662 13.1831 20.3336 13.1831C21.048 13.1831 21.6829 13.3388 22.2386 13.6502V14.6668C22.0493 14.331 21.7745 14.0654 21.4143 13.87C21.0541 13.6685 20.6694 13.5678 20.2604 13.5678C19.7414 13.5678 19.2896 13.6899 18.9049 13.9341C18.5264 14.1783 18.2364 14.5141 18.0349 14.9415C17.8334 15.3628 17.7327 15.836 17.7327 16.361C17.7327 16.9533 17.8456 17.4692 18.0715 17.9088C18.3035 18.3484 18.6149 18.6872 19.0057 18.9253C19.3964 19.1573 19.833 19.2733 20.3153 19.2733C21.0907 19.2733 21.7318 19.0474 22.2386 18.5956V19.0352Z" fill="#3D4042"/>
</g>
</svg>
