<svg width="166" height="235" viewBox="0 0 166 235" fill="none" xmlns="http://www.w3.org/2000/svg">
<g opacity="0.6">
<path d="M0 4.00001C0 1.79087 1.79086 0 4 0H162C164.209 0 166 1.79086 166 4V231C166 233.209 164.209 235 162 235H4C1.79086 235 0 233.209 0 231V4.00001Z" fill="white"/>
<path d="M0 4.00001C0 1.79087 1.79086 0 4 0H7V235H4C1.79086 235 0 233.209 0 231V4.00001Z" fill="#4177D9"/>
<path d="M18 46C18 45.4477 18.4477 45 19 45H46C46.5523 45 47 45.4477 47 46C47 46.5523 46.5523 47 46 47H19C18.4477 47 18 46.5523 18 46Z" fill="#D9D9D9"/>
<path d="M62 46C62 45.4477 62.4477 45 63 45H75C75.5523 45 76 45.4477 76 46C76 46.5523 75.5523 47 75 47H63C62.4477 47 62 46.5523 62 46Z" fill="#D9D9D9"/>
<path d="M62 57C62 56.4477 62.4477 56 63 56H87C87.5523 56 88 56.4477 88 57C88 57.5523 87.5523 58 87 58H63C62.4477 58 62 57.5523 62 57Z" fill="#D9D9D9"/>
<path d="M62 144C62 143.448 62.4477 143 63 143H87C87.5523 143 88 143.448 88 144C88 144.552 87.5523 145 87 145H63C62.4477 145 62 144.552 62 144Z" fill="#D9D9D9"/>
<path d="M62 154C62 153.448 62.4477 153 63 153H87C87.5523 153 88 153.448 88 154C88 154.552 87.5523 155 87 155H63C62.4477 155 62 154.552 62 154Z" fill="#D9D9D9"/>
<path d="M62 62C62 61.4477 62.4477 61 63 61H145C145.552 61 146 61.4477 146 62C146 62.5523 145.552 63 145 63H63C62.4477 63 62 62.5523 62 62Z" fill="#D9D9D9"/>
<path d="M62 72C62 71.4477 62.4477 71 63 71H133C133.552 71 134 71.4477 134 72C134 72.5523 133.552 73 133 73H63C62.4477 73 62 72.5523 62 72Z" fill="#D9D9D9"/>
<path d="M62 80C62 79.4477 62.4477 79 63 79H133C133.552 79 134 79.4477 134 80C134 80.5523 133.552 81 133 81H63C62.4477 81 62 80.5523 62 80Z" fill="#D9D9D9"/>
<path d="M62 90C62 89.4477 62.4477 89 63 89H133C133.552 89 134 89.4477 134 90C134 90.5523 133.552 91 133 91H63C62.4477 91 62 90.5523 62 90Z" fill="#D9D9D9"/>
<path d="M62 100C62 99.4477 62.4477 99 63 99H133C133.552 99 134 99.4477 134 100C134 100.552 133.552 101 133 101H63C62.4477 101 62 100.552 62 100Z" fill="#D9D9D9"/>
<path d="M62 110C62 109.448 62.4477 109 63 109H133C133.552 109 134 109.448 134 110C134 110.552 133.552 111 133 111H63C62.4477 111 62 110.552 62 110Z" fill="#D9D9D9"/>
<path d="M62 120C62 119.448 62.4477 119 63 119H133C133.552 119 134 119.448 134 120C134 120.552 133.552 121 133 121H63C62.4477 121 62 120.552 62 120Z" fill="#D9D9D9"/>
<path d="M62 134C62 133.448 62.4477 133 63 133H133C133.552 133 134 133.448 134 134C134 134.552 133.552 135 133 135H63C62.4477 135 62 134.552 62 134Z" fill="#D9D9D9"/>
<path d="M62 85C62 84.4477 62.4477 84 63 84H152C152.552 84 153 84.4477 153 85C153 85.5523 152.552 86 152 86H63C62.4477 86 62 85.5523 62 85Z" fill="#D9D9D9"/>
<path d="M62 67C62 66.4477 62.4477 66 63 66H152C152.552 66 153 66.4477 153 67C153 67.5523 152.552 68 152 68H63C62.4477 68 62 67.5523 62 67Z" fill="#D9D9D9"/>
<path d="M62 105C62 104.448 62.4477 104 63 104H152C152.552 104 153 104.448 153 105C153 105.552 152.552 106 152 106H63C62.4477 106 62 105.552 62 105Z" fill="#D9D9D9"/>
<path d="M62 115C62 114.448 62.4477 114 63 114H152C152.552 114 153 114.448 153 115C153 115.552 152.552 116 152 116H63C62.4477 116 62 115.552 62 115Z" fill="#D9D9D9"/>
<path d="M62 95C62 94.4477 62.4477 94 63 94H152C152.552 94 153 94.4477 153 95C153 95.5523 152.552 96 152 96H63C62.4477 96 62 95.5523 62 95Z" fill="#D9D9D9"/>
<path d="M62 125C62 124.448 62.4477 124 63 124H152C152.552 124 153 124.448 153 125C153 125.552 152.552 126 152 126H63C62.4477 126 62 125.552 62 125Z" fill="#D9D9D9"/>
<path d="M62 139C62 138.448 62.4477 138 63 138H152C152.552 138 153 138.448 153 139C153 139.552 152.552 140 152 140H63C62.4477 140 62 139.552 62 139Z" fill="#D9D9D9"/>
<path d="M18 51C18 50.4477 18.4477 50 19 50H34C34.5523 50 35 50.4477 35 51C35 51.5523 34.5523 52 34 52H19C18.4477 52 18 51.5523 18 51Z" fill="#DDDDDD"/>
<path d="M18 57C18 56.4477 18.4477 56 19 56H46C46.5523 56 47 56.4477 47 57C47 57.5523 46.5523 58 46 58H19C18.4477 58 18 57.5523 18 57Z" fill="#D9D9D9"/>
<path d="M18 62C18 61.4477 18.4477 61 19 61H34C34.5523 61 35 61.4477 35 62C35 62.5523 34.5523 63 34 63H19C18.4477 63 18 62.5523 18 62Z" fill="#DDDDDD"/>
<path d="M18 72C18 71.4477 18.4477 71 19 71H46C46.5523 71 47 71.4477 47 72C47 72.5523 46.5523 73 46 73H19C18.4477 73 18 72.5523 18 72Z" fill="#D9D9D9"/>
<path d="M18 77C18 76.4477 18.4477 76 19 76H42C42.5523 76 43 76.4477 43 77C43 77.5523 42.5523 78 42 78H19C18.4477 78 18 77.5523 18 77Z" fill="#D9D9D9"/>
<path d="M62 159C62 158.448 62.4477 158 63 158H86C86.5523 158 87 158.448 87 159C87 159.552 86.5523 160 86 160H63C62.4477 160 62 159.552 62 159Z" fill="#D9D9D9"/>
<path d="M18 82C18 81.4477 18.4477 81 19 81H46C46.5523 81 47 81.4477 47 82C47 82.5523 46.5523 83 46 83H19C18.4477 83 18 82.5523 18 82Z" fill="#D9D9D9"/>
<path d="M62 164C62 163.448 62.4477 163 63 163H90C90.5523 163 91 163.448 91 164C91 164.552 90.5523 165 90 165H63C62.4477 165 62 164.552 62 164Z" fill="#D9D9D9"/>
<path d="M18 87C18 86.4477 18.4477 86 19 86H42C42.5523 86 43 86.4477 43 87C43 87.5523 42.5523 88 42 88H19C18.4477 88 18 87.5523 18 87Z" fill="#D9D9D9"/>
<path d="M62 169C62 168.448 62.4477 168 63 168H86C86.5523 168 87 168.448 87 169C87 169.552 86.5523 170 86 170H63C62.4477 170 62 169.552 62 169Z" fill="#D9D9D9"/>
<path d="M54 44.5C54 44.2239 54.2239 44 54.5 44C54.7761 44 55 44.2239 55 44.5V221.5C55 221.776 54.7761 222 54.5 222C54.2239 222 54 221.776 54 221.5V44.5Z" fill="#D9D9D9"/>
<path d="M21.1538 22.0393V17.6134H22.4653V22.0393C22.4653 22.4662 22.3718 22.8332 22.1846 23.1403C21.9975 23.4444 21.7416 23.6783 21.417 23.8421C21.0953 24.0058 20.7327 24.0877 20.3292 24.0877C19.911 24.0877 19.5411 24.0175 19.2194 23.8772C18.8977 23.7368 18.6448 23.5219 18.4606 23.2324C18.2763 22.94 18.1842 22.57 18.1842 22.1226H19.5045C19.5045 22.3566 19.5367 22.5423 19.601 22.6797C19.6683 22.8171 19.7633 22.9151 19.8861 22.9736C20.009 23.0321 20.1566 23.0613 20.3292 23.0613C20.4959 23.0613 20.6406 23.0218 20.7634 22.9429C20.8862 22.8639 20.9813 22.7484 21.0485 22.5964C21.1187 22.4443 21.1538 22.2586 21.1538 22.0393Z" fill="#3D4042"/>
<path d="M26.4243 18.7056L24.6873 24H23.2881L25.6611 17.6134H26.5515L26.4243 18.7056ZM27.8675 24L26.1261 18.7056L25.9857 17.6134H26.8849L29.2711 24H27.8675ZM27.7885 21.6226V22.6534H24.4154V21.6226H27.7885Z" fill="#3D4042"/>
<path d="M30.8 17.6134H31.9142L33.5547 22.3025L35.1952 17.6134H36.3093L34.0021 24H33.1073L30.8 17.6134ZM30.1991 17.6134H31.3088L31.5106 22.184V24H30.1991V17.6134ZM35.8005 17.6134H36.9147V24H35.5987V22.184L35.8005 17.6134Z" fill="#3D4042"/>
<path d="M42.6896 22.9736V24H39.2902V22.9736H42.6896ZM39.72 17.6134V24H38.4041V17.6134H39.72ZM42.2466 20.2145V21.2146H39.2902V20.2145H42.2466ZM42.6852 17.6134V18.6442H39.2902V17.6134H42.6852Z" fill="#3D4042"/>
<path d="M47.1179 22.3288C47.1179 22.2147 47.1004 22.1124 47.0653 22.0217C47.0331 21.9282 46.9717 21.8434 46.8811 21.7673C46.7904 21.6884 46.6632 21.6109 46.4995 21.5348C46.3357 21.4588 46.1237 21.3799 45.8634 21.298C45.5739 21.2044 45.2991 21.0991 45.0388 20.9822C44.7815 20.8652 44.5534 20.7292 44.3545 20.5742C44.1586 20.4163 44.0036 20.2336 43.8896 20.0259C43.7784 19.8183 43.7229 19.5771 43.7229 19.3022C43.7229 19.0361 43.7814 18.7948 43.8983 18.5784C44.0153 18.3591 44.1791 18.1719 44.3896 18.017C44.6002 17.8591 44.8487 17.7377 45.1353 17.6529C45.4248 17.5681 45.7421 17.5257 46.0871 17.5257C46.5579 17.5257 46.9688 17.6105 47.3197 17.7801C47.6706 17.9497 47.9426 18.1822 48.1356 18.4775C48.3315 18.7729 48.4295 19.1106 48.4295 19.4908H47.1223C47.1223 19.3036 47.0828 19.1399 47.0039 18.9995C46.9279 18.8562 46.8109 18.7436 46.653 18.6618C46.498 18.5799 46.3021 18.5389 46.0652 18.5389C45.8371 18.5389 45.647 18.574 45.495 18.6442C45.3429 18.7115 45.2289 18.8036 45.1528 18.9206C45.0768 19.0346 45.0388 19.1633 45.0388 19.3066C45.0388 19.4148 45.0651 19.5127 45.1177 19.6004C45.1733 19.6882 45.2552 19.7701 45.3634 19.8461C45.4716 19.9221 45.6046 19.9938 45.7625 20.061C45.9205 20.1283 46.1032 20.1941 46.3108 20.2584C46.6588 20.3637 46.9644 20.4821 47.2276 20.6137C47.4937 20.7453 47.716 20.893 47.8943 21.0567C48.0727 21.2205 48.2072 21.4062 48.2979 21.6138C48.3885 21.8214 48.4339 22.0568 48.4339 22.32C48.4339 22.5978 48.3798 22.8464 48.2716 23.0657C48.1634 23.285 48.0069 23.4707 47.8022 23.6228C47.5975 23.7748 47.3533 23.8903 47.0697 23.9693C46.786 24.0483 46.4688 24.0877 46.1178 24.0877C45.802 24.0877 45.4906 24.0468 45.1835 23.9649C44.8765 23.8801 44.5972 23.7529 44.3457 23.5833C44.0972 23.4137 43.8983 23.1973 43.7492 22.9341C43.6001 22.6709 43.5255 22.3595 43.5255 21.9998H44.8458C44.8458 22.1987 44.8765 22.3668 44.9379 22.5042C44.9993 22.6417 45.0856 22.7528 45.1967 22.8376C45.3107 22.9224 45.4453 22.9838 45.6003 23.0218C45.7582 23.0599 45.9307 23.0789 46.1178 23.0789C46.3459 23.0789 46.5331 23.0467 46.6793 22.9824C46.8284 22.918 46.9381 22.8288 47.0083 22.7148C47.0814 22.6007 47.1179 22.4721 47.1179 22.3288Z" fill="#3D4042"/>
<path d="M55.5623 22.3288C55.5623 22.2147 55.5447 22.1124 55.5096 22.0217C55.4775 21.9282 55.4161 21.8434 55.3254 21.7673C55.2348 21.6884 55.1076 21.6109 54.9438 21.5348C54.78 21.4588 54.568 21.3799 54.3078 21.298C54.0183 21.2044 53.7434 21.0991 53.4831 20.9822C53.2258 20.8652 52.9977 20.7292 52.7989 20.5742C52.6029 20.4163 52.4479 20.2336 52.3339 20.0259C52.2228 19.8183 52.1672 19.5771 52.1672 19.3022C52.1672 19.0361 52.2257 18.7948 52.3427 18.5784C52.4596 18.3591 52.6234 18.1719 52.8339 18.017C53.0445 17.8591 53.2931 17.7377 53.5796 17.6529C53.8691 17.5681 54.1864 17.5257 54.5315 17.5257C55.0023 17.5257 55.4131 17.6105 55.7641 17.7801C56.115 17.9497 56.3869 18.1822 56.5799 18.4775C56.7759 18.7729 56.8738 19.1106 56.8738 19.4908H55.5667C55.5667 19.3036 55.5272 19.1399 55.4482 18.9995C55.3722 18.8562 55.2552 18.7436 55.0973 18.6618C54.9423 18.5799 54.7464 18.5389 54.5095 18.5389C54.2815 18.5389 54.0914 18.574 53.9393 18.6442C53.7873 18.7115 53.6732 18.8036 53.5972 18.9206C53.5211 19.0346 53.4831 19.1633 53.4831 19.3066C53.4831 19.4148 53.5094 19.5127 53.5621 19.6004C53.6176 19.6882 53.6995 19.7701 53.8077 19.8461C53.9159 19.9221 54.049 19.9938 54.2069 20.061C54.3648 20.1283 54.5476 20.1941 54.7552 20.2584C55.1032 20.3637 55.4088 20.4821 55.6719 20.6137C55.938 20.7453 56.1603 20.893 56.3387 21.0567C56.5171 21.2205 56.6516 21.4062 56.7422 21.6138C56.8329 21.8214 56.8782 22.0568 56.8782 22.32C56.8782 22.5978 56.8241 22.8464 56.7159 23.0657C56.6077 23.285 56.4513 23.4707 56.2466 23.6228C56.0419 23.7748 55.7977 23.8903 55.514 23.9693C55.2304 24.0483 54.9131 24.0877 54.5622 24.0877C54.2464 24.0877 53.9349 24.0468 53.6279 23.9649C53.3208 23.8801 53.0416 23.7529 52.7901 23.5833C52.5415 23.4137 52.3427 23.1973 52.1935 22.9341C52.0444 22.6709 51.9698 22.3595 51.9698 21.9998H53.2901C53.2901 22.1987 53.3208 22.3668 53.3822 22.5042C53.4437 22.6417 53.5299 22.7528 53.641 22.8376C53.7551 22.9224 53.8896 22.9838 54.0446 23.0218C54.2025 23.0599 54.375 23.0789 54.5622 23.0789C54.7903 23.0789 54.9774 23.0467 55.1236 22.9824C55.2728 22.918 55.3824 22.8288 55.4526 22.7148C55.5257 22.6007 55.5623 22.4721 55.5623 22.3288Z" fill="#3D4042"/>
<path d="M58.7098 17.6134H59.8239L61.4644 22.3025L63.1049 17.6134H64.2191L61.9118 24H61.017L58.7098 17.6134ZM58.1088 17.6134H59.2186L59.4204 22.184V24H58.1088V17.6134ZM63.7103 17.6134H64.8244V24H63.5085V22.184L63.7103 17.6134Z" fill="#3D4042"/>
<path d="M67.7131 17.6134V24H66.4016V17.6134H67.7131Z" fill="#3D4042"/>
<path d="M72.0055 17.6134V24H70.6939V17.6134H72.0055ZM73.9706 17.6134V18.6442H68.7595V17.6134H73.9706Z" fill="#3D4042"/>
<path d="M79.3157 20.2145V21.241H75.982V20.2145H79.3157ZM76.3724 17.6134V24H75.0565V17.6134H76.3724ZM80.2543 17.6134V24H78.9428V17.6134H80.2543Z" fill="#3D4042"/>
</g>
</svg>
