<svg width="166" height="235" viewBox="0 0 166 235" fill="none" xmlns="http://www.w3.org/2000/svg">
<path d="M0 4.00001C0 1.79087 1.79086 0 4 0H162C164.209 0 166 1.79086 166 4V231C166 233.209 164.209 235 162 235H4C1.79086 235 0 233.209 0 231V4.00001Z" fill="white"/>
<path d="M0 4.00001C0 1.79087 1.79086 0 4 0H162C164.209 0 166 1.79086 166 4V49H0V4.00001Z" fill="#F3E4DD"/>
<path d="M12 60C12 59.4477 12.4477 59 13 59H25C25.5523 59 26 59.4477 26 60C26 60.5523 25.5523 61 25 61H13C12.4477 61 12 60.5523 12 60Z" fill="#D9D9D9"/>
<path d="M119 219C119 218.448 119.448 218 120 218H153C153.552 218 154 218.448 154 219C154 219.552 153.552 220 153 220H120C119.448 220 119 219.552 119 219Z" fill="#DDDDDD"/>
<path d="M12 92C12 91.4477 12.4477 91 13 91H32C32.5523 91 33 91.4477 33 92C33 92.5523 32.5523 93 32 93H13C12.4477 93 12 92.5523 12 92Z" fill="#D9D9D9"/>
<path d="M12 107C12 106.448 12.4477 106 13 106H153C153.552 106 154 106.448 154 107C154 107.552 153.552 108 153 108H13C12.4477 108 12 107.552 12 107Z" fill="#D9D9D9"/>
<path d="M12 129C12 128.448 12.4477 128 13 128H153C153.552 128 154 128.448 154 129C154 129.552 153.552 130 153 130H13C12.4477 130 12 129.552 12 129Z" fill="#D9D9D9"/>
<path d="M12 144C12 143.448 12.4477 143 13 143H141C141.552 143 142 143.448 142 144C142 144.552 141.552 145 141 145H13C12.4477 145 12 144.552 12 144Z" fill="#D9D9D9"/>
<path d="M12 164C12 163.448 12.4477 163 13 163H141C141.552 163 142 163.448 142 164C142 164.552 141.552 165 141 165H13C12.4477 165 12 164.552 12 164Z" fill="#D9D9D9"/>
<path d="M12 112C12 111.448 12.4477 111 13 111H141C141.552 111 142 111.448 142 112C142 112.552 141.552 113 141 113H13C12.4477 113 12 112.552 12 112Z" fill="#D9D9D9"/>
<path d="M12 97C12 96.4477 12.4477 96 13 96H153C153.552 96 154 96.4477 154 97C154 97.5523 153.552 98 153 98H13C12.4477 98 12 97.5523 12 97Z" fill="#D9D9D9"/>
<path d="M12 134C12 133.448 12.4477 133 13 133H141C141.552 133 142 133.448 142 134C142 134.552 141.552 135 141 135H13C12.4477 135 12 134.552 12 134Z" fill="#D9D9D9"/>
<path d="M12 139C12 138.448 12.4477 138 13 138H153C153.552 138 154 138.448 154 139C154 139.552 153.552 140 153 140H13C12.4477 140 12 139.552 12 139Z" fill="#D9D9D9"/>
<path d="M12 149C12 148.448 12.4477 148 13 148H153C153.552 148 154 148.448 154 149C154 149.552 153.552 150 153 150H13C12.4477 150 12 149.552 12 149Z" fill="#D9D9D9"/>
<path d="M12 117C12 116.448 12.4477 116 13 116H153C153.552 116 154 116.448 154 117C154 117.552 153.552 118 153 118H13C12.4477 118 12 117.552 12 117Z" fill="#D9D9D9"/>
<path d="M12 154C12 153.448 12.4477 153 13 153H141C141.552 153 142 153.448 142 154C142 154.552 141.552 155 141 155H13C12.4477 155 12 154.552 12 154Z" fill="#D9D9D9"/>
<path d="M12 159C12 158.448 12.4477 158 13 158H153C153.552 158 154 158.448 154 159C154 159.552 153.552 160 153 160H13C12.4477 160 12 159.552 12 159Z" fill="#D9D9D9"/>
<path d="M12 169C12 168.448 12.4477 168 13 168H153C153.552 168 154 168.448 154 169C154 169.552 153.552 170 153 170H13C12.4477 170 12 169.552 12 169Z" fill="#D9D9D9"/>
<path d="M12 102C12 101.448 12.4477 101 13 101H141C141.552 101 142 101.448 142 102C142 102.552 141.552 103 141 103H13C12.4477 103 12 102.552 12 102Z" fill="#D9D9D9"/>
<path d="M12 174C12 173.448 12.4477 173 13 173H141C141.552 173 142 173.448 142 174C142 174.552 141.552 175 141 175H13C12.4477 175 12 174.552 12 174Z" fill="#D9D9D9"/>
<path d="M12 65C12 64.4477 12.4477 64 13 64H37C37.5523 64 38 64.4477 38 65C38 65.5523 37.5523 66 37 66H13C12.4477 66 12 65.5523 12 65Z" fill="#DDDDDD"/>
<path d="M62 38C62 37.4477 62.4477 37 63 37H96C96.5523 37 97 37.4477 97 38C97 38.5523 96.5523 39 96 39H63C62.4477 39 62 38.5523 62 38Z" fill="#DBCDC6"/>
<path d="M62 33C62 32.4477 62.4477 32 63 32H87C87.5523 32 88 32.4477 88 33C88 33.5523 87.5523 34 87 34H63C62.4477 34 62 33.5523 62 33Z" fill="#DBCDC6"/>
<path d="M12 75C12 74.4477 12.4477 74 13 74H37C37.5523 74 38 74.4477 38 75C38 75.5523 37.5523 76 37 76H13C12.4477 76 12 75.5523 12 75Z" fill="#D9D9D9"/>
<path d="M111 214C111 213.448 111.448 213 112 213H153C153.552 213 154 213.448 154 214C154 214.552 153.552 215 153 215H112C111.448 215 111 214.552 111 214Z" fill="#D9D9D9"/>
<path d="M12 70C12 69.4477 12.4477 69 13 69H43C43.5523 69 44 69.4477 44 70C44 70.5523 43.5523 71 43 71H13C12.4477 71 12 70.5523 12 70Z" fill="#D9D9D9"/>
<path d="M112 33C112 32.4477 112.448 32 113 32H143C143.552 32 144 32.4477 144 33C144 33.5523 143.552 34 143 34H113C112.448 34 112 33.5523 112 33Z" fill="#DBCDC6"/>
<path d="M112 38C112 37.4477 112.448 37 113 37H134C134.552 37 135 37.4477 135 38C135 38.5523 134.552 39 134 39H113C112.448 39 112 38.5523 112 38Z" fill="#DBCDC6"/>
<path d="M13.6309 18.1043C13.4174 18.1043 13.2114 18.0794 13.0128 18.0298C12.8142 17.9801 12.628 17.9007 12.4543 17.7915C12.4245 17.7667 12.3947 17.7393 12.3649 17.7096C12.3351 17.6798 12.3128 17.6475 12.2979 17.6127C12.2482 17.4787 12.2135 17.3149 12.1936 17.1212C12.1787 16.9276 12.1738 16.7315 12.1787 16.5329C12.1787 16.4982 12.1936 16.4733 12.2234 16.4584C12.2532 16.4435 12.288 16.4361 12.3277 16.4361C12.3773 16.4361 12.4096 16.4435 12.4245 16.4584C12.4443 16.4684 12.4642 16.4907 12.4841 16.5255C12.5933 16.8978 12.7546 17.1982 12.9681 17.4266C13.1866 17.6549 13.4398 17.7691 13.7277 17.7691C13.8866 17.7691 14.0157 17.7344 14.115 17.6649C14.2193 17.5904 14.2987 17.4986 14.3533 17.3893C14.4079 17.2751 14.4352 17.161 14.4352 17.0468C14.4352 16.8879 14.403 16.7538 14.3384 16.6446C14.2788 16.5354 14.187 16.4361 14.0629 16.3467C13.9387 16.2574 13.7799 16.1605 13.5862 16.0563C13.3777 15.9371 13.1767 15.813 12.983 15.6839C12.7894 15.5499 12.6305 15.3885 12.5064 15.1999C12.3823 15.0112 12.3202 14.7754 12.3202 14.4924C12.3202 14.1995 12.3947 13.9463 12.5436 13.7328C12.6976 13.5193 12.9061 13.353 13.1692 13.2338C13.4323 13.1146 13.7277 13.0551 14.0554 13.0551C14.2441 13.0551 14.4228 13.0749 14.5916 13.1146C14.7654 13.1544 14.9044 13.1941 15.0087 13.2338C15.0682 13.2586 15.1104 13.2859 15.1353 13.3157C15.1651 13.3455 15.1899 13.3976 15.2097 13.4721C15.2346 13.5764 15.2544 13.703 15.2693 13.8519C15.2892 14.0009 15.2991 14.1647 15.2991 14.3434C15.2991 14.408 15.2544 14.4402 15.1651 14.4402C15.1204 14.4402 15.0782 14.4303 15.0385 14.4105C15.0037 14.3856 14.9814 14.3558 14.9714 14.3211C14.887 14.0232 14.7629 13.7973 14.5991 13.6434C14.4352 13.4895 14.2342 13.4125 13.9958 13.4125C13.8469 13.4125 13.7203 13.4374 13.616 13.487C13.5118 13.5367 13.4323 13.6111 13.3777 13.7104C13.3281 13.8097 13.3033 13.9338 13.3033 14.0828C13.3033 14.2019 13.343 14.3136 13.4224 14.4179C13.5068 14.5172 13.626 14.619 13.7799 14.7232C13.9338 14.8275 14.11 14.9392 14.3086 15.0584C14.5767 15.2172 14.7902 15.3736 14.9491 15.5275C15.108 15.6814 15.2221 15.8453 15.2917 16.0191C15.3661 16.1879 15.4034 16.384 15.4034 16.6074C15.4034 16.945 15.3289 17.2255 15.1799 17.4489C15.036 17.6723 14.8299 17.8386 14.5618 17.9479C14.2987 18.0521 13.9884 18.1043 13.6309 18.1043Z" fill="#3B3634"/>
<path d="M16.54 18.0372C16.4854 18.0372 16.4382 18.0273 16.3985 18.0074C16.3638 17.9926 16.3464 17.9628 16.3464 17.9181C16.3464 17.8684 16.3613 17.8337 16.3911 17.8138C16.4258 17.789 16.4705 17.7691 16.5251 17.7542C16.6691 17.7145 16.7932 17.6525 16.8975 17.5681C17.0067 17.4837 17.0886 17.3794 17.1432 17.2553C17.2674 16.9773 17.384 16.7042 17.4933 16.4361C17.6025 16.163 17.7092 15.8949 17.8135 15.6318C17.9178 15.3637 18.022 15.0931 18.1263 14.8201C18.2305 14.542 18.3348 14.2615 18.4391 13.9785C18.5135 13.775 18.5607 13.6285 18.5806 13.5391C18.6004 13.4448 18.6153 13.3902 18.6252 13.3753C18.7146 13.3505 18.799 13.3281 18.8784 13.3083C18.9579 13.2884 19.0423 13.2611 19.1316 13.2264C19.221 13.1916 19.2955 13.1469 19.3551 13.0923C19.4196 13.0377 19.4668 12.9955 19.4966 12.9657C19.5164 12.9508 19.5363 12.9434 19.5561 12.9434C19.576 12.9384 19.5959 12.9533 19.6157 12.988C19.6306 13.0178 19.643 13.0501 19.6529 13.0849C19.6678 13.1146 19.6803 13.1494 19.6902 13.1891C19.7944 13.5218 19.9012 13.8618 20.0104 14.2094C20.1196 14.552 20.2289 14.8945 20.3381 15.2371C20.4523 15.5797 20.564 15.9198 20.6732 16.2574C20.7824 16.59 20.8892 16.9152 20.9934 17.2329C21.0232 17.3322 21.0679 17.4166 21.1275 17.4861C21.192 17.5557 21.264 17.6103 21.3435 17.65C21.4229 17.6897 21.5123 17.7245 21.6116 17.7542C21.6662 17.7691 21.7084 17.789 21.7382 17.8138C21.7729 17.8337 21.7903 17.8659 21.7903 17.9106C21.7903 17.9454 21.7754 17.9727 21.7456 17.9926C21.7158 18.0124 21.6811 18.0223 21.6413 18.0223C21.5421 18.0223 21.4179 18.0174 21.269 18.0074C21.125 18.0025 20.9785 17.9975 20.8296 17.9926C20.6807 17.9876 20.5491 17.9851 20.4349 17.9851C20.3406 17.9851 20.2239 17.9876 20.0849 17.9926C19.9508 17.9975 19.8143 18.0025 19.6753 18.0074C19.5363 18.0124 19.4171 18.0149 19.3178 18.0149C19.2731 18.0149 19.2334 18.0074 19.1987 17.9926C19.1689 17.9727 19.154 17.9454 19.154 17.9106C19.154 17.8659 19.1714 17.8312 19.2061 17.8064C19.2409 17.7815 19.2831 17.7642 19.3327 17.7542C19.5164 17.7145 19.6505 17.6624 19.7349 17.5979C19.8193 17.5333 19.8466 17.4365 19.8168 17.3074C19.7969 17.2131 19.7721 17.1138 19.7423 17.0095C19.7125 16.9053 19.6827 16.801 19.6529 16.6967C19.6281 16.5875 19.6008 16.4833 19.571 16.384C19.5611 16.3442 19.5487 16.3145 19.5338 16.2946C19.5189 16.2747 19.4891 16.2648 19.4444 16.2648H18.1263C18.0915 16.2648 18.0642 16.2747 18.0444 16.2946C18.0245 16.3145 18.0096 16.3467 17.9997 16.3914C17.9798 16.4609 17.9575 16.5304 17.9326 16.5999C17.9078 16.6694 17.883 16.7389 17.8582 16.8085C17.8383 16.878 17.8185 16.9475 17.7986 17.017C17.7787 17.0865 17.7589 17.1535 17.739 17.218C17.7043 17.367 17.7192 17.4812 17.7837 17.5606C17.8482 17.6401 17.9873 17.7046 18.2007 17.7542C18.3199 17.7791 18.3795 17.8312 18.3795 17.9106C18.3795 17.9454 18.3646 17.9727 18.3348 17.9926C18.31 18.0074 18.2678 18.0149 18.2082 18.0149C18.0642 18.0149 17.9302 18.0099 17.806 18C17.6819 17.995 17.5454 17.9926 17.3965 17.9926C17.2475 17.9926 17.106 18 16.972 18.0149C16.8379 18.0298 16.6939 18.0372 16.54 18.0372ZM18.3348 15.8627H19.3029C19.3774 15.8627 19.4146 15.8453 19.4146 15.8105C19.4146 15.7956 19.4122 15.7832 19.4072 15.7733C19.4072 15.7634 19.4047 15.751 19.3997 15.7361L18.9008 14.053C18.8859 13.9984 18.871 13.9711 18.8561 13.9711C18.8462 13.9711 18.8288 13.9984 18.804 14.053L18.2156 15.7361C18.2057 15.7559 18.2007 15.7758 18.2007 15.7956C18.2007 15.8205 18.2132 15.8378 18.238 15.8478C18.2678 15.8577 18.3 15.8627 18.3348 15.8627Z" fill="#3B3634"/>
<path d="M27.4019 18.1415C27.3374 18.1415 27.2331 18.1018 27.0891 18.0223C26.9451 17.9479 26.7962 17.8138 26.6423 17.6202C26.5231 17.4961 26.399 17.362 26.2699 17.218C26.1408 17.0741 26.0043 16.9251 25.8603 16.7712C25.7163 16.6173 25.5699 16.4609 25.4209 16.302C25.277 16.1432 25.133 15.9868 24.989 15.8329C24.845 15.674 24.7011 15.5176 24.5571 15.3637C24.4131 15.2098 24.2766 15.0608 24.1475 14.9169C24.0184 14.7729 23.8943 14.6388 23.7751 14.5147C23.7652 14.4949 23.7478 14.4775 23.723 14.4626C23.7031 14.4427 23.6882 14.4328 23.6783 14.4328C23.6584 14.4328 23.6436 14.4502 23.6336 14.4849C23.6287 14.5197 23.6262 14.5495 23.6262 14.5743C23.6212 14.8027 23.6212 15.0708 23.6262 15.3786C23.6311 15.6864 23.6361 15.9992 23.6411 16.3169C23.651 16.6297 23.656 16.9152 23.656 17.1734C23.656 17.3322 23.7056 17.4588 23.8049 17.5532C23.9042 17.6425 24.0507 17.712 24.2443 17.7617C24.2989 17.7716 24.3461 17.789 24.3858 17.8138C24.4305 17.8337 24.4528 17.8659 24.4528 17.9106C24.4528 17.9454 24.433 17.9727 24.3932 17.9926C24.3535 18.0124 24.3113 18.0223 24.2666 18.0223C24.1326 18.0223 24.0234 18.0174 23.939 18.0074C23.8546 18.0025 23.7751 18 23.7006 18C23.6311 17.995 23.5443 17.9926 23.44 17.9926C23.3308 17.9926 23.2265 17.995 23.1272 18C23.0329 18.005 22.951 18.0099 22.8815 18.0149C22.8169 18.0199 22.7722 18.0223 22.7474 18.0223C22.7127 18.0223 22.6729 18.0149 22.6283 18C22.5885 17.9801 22.5687 17.9528 22.5687 17.9181C22.5687 17.8734 22.5885 17.8411 22.6283 17.8213C22.668 17.8014 22.7127 17.7815 22.7623 17.7617C22.8815 17.717 22.9708 17.6425 23.0304 17.5383C23.0949 17.434 23.1322 17.3049 23.1421 17.151C23.162 16.9673 23.1818 16.724 23.2017 16.4212C23.2265 16.1183 23.2489 15.7783 23.2687 15.4009C23.2886 15.0186 23.2985 14.6239 23.2985 14.2168C23.2985 13.9587 23.2315 13.7725 23.0974 13.6583C22.9683 13.5441 22.8095 13.4523 22.6208 13.3827C22.5811 13.3728 22.5364 13.3554 22.4868 13.3306C22.4371 13.3008 22.4123 13.2636 22.4123 13.2189C22.4123 13.1742 22.4321 13.1444 22.4719 13.1295C22.5116 13.1097 22.5563 13.0998 22.6059 13.0998C22.6953 13.0998 22.7946 13.1022 22.9038 13.1072C23.018 13.1122 23.1371 13.1171 23.2613 13.1221C23.3854 13.1221 23.5145 13.1246 23.6485 13.1295C23.7826 13.1345 23.9166 13.137 24.0507 13.137C24.0904 13.137 24.1202 13.1444 24.14 13.1593C24.1649 13.1742 24.1872 13.1941 24.2071 13.2189C24.3163 13.343 24.433 13.4771 24.5571 13.6211C24.6862 13.765 24.8202 13.9165 24.9592 14.0753C25.0982 14.2292 25.2397 14.3881 25.3837 14.552C25.5277 14.7108 25.6692 14.8722 25.8082 15.036C25.9522 15.1999 26.0912 15.3587 26.2252 15.5126C26.3643 15.6665 26.4983 15.8155 26.6274 15.9595C26.7565 16.1035 26.8756 16.2375 26.9849 16.3616C26.9997 16.3815 27.0171 16.4038 27.037 16.4286C27.0618 16.4485 27.0841 16.4584 27.104 16.4584C27.1437 16.4584 27.1636 16.4212 27.1636 16.3467C27.1636 16.1928 27.1636 16.0141 27.1636 15.8105C27.1686 15.607 27.171 15.391 27.171 15.1626C27.171 14.9342 27.1686 14.7083 27.1636 14.4849C27.1636 14.2615 27.1586 14.0555 27.1487 13.8668C27.1437 13.7328 27.0916 13.6335 26.9923 13.5689C26.898 13.4994 26.7664 13.4423 26.5976 13.3976C26.543 13.3877 26.4958 13.3703 26.4561 13.3455C26.4164 13.3207 26.3965 13.2859 26.3965 13.2413C26.3965 13.2065 26.4164 13.1817 26.4561 13.1668C26.4958 13.1469 26.538 13.137 26.5827 13.137C26.6969 13.137 26.7937 13.1395 26.8731 13.1444C26.9526 13.1444 27.0246 13.1444 27.0891 13.1444C27.1537 13.1444 27.2256 13.1444 27.3051 13.1444C27.4044 13.1444 27.4888 13.1444 27.5583 13.1444C27.6278 13.1395 27.7023 13.1345 27.7817 13.1295C27.8661 13.1246 27.9728 13.1221 28.1019 13.1221C28.1615 13.1221 28.2062 13.132 28.236 13.1519C28.2707 13.1717 28.2881 13.1991 28.2881 13.2338C28.2881 13.3083 28.2236 13.3579 28.0945 13.3827C27.9207 13.4175 27.7966 13.4671 27.7221 13.5317C27.6477 13.5962 27.6079 13.7005 27.603 13.8445C27.603 14.0232 27.6005 14.2143 27.5955 14.4179C27.5955 14.6215 27.5906 14.83 27.5806 15.0435C27.5707 15.257 27.5608 15.4704 27.5508 15.6839C27.5459 15.8924 27.5409 16.0935 27.5359 16.2871C27.531 16.4808 27.5285 16.6595 27.5285 16.8233C27.5285 16.9375 27.5359 17.0641 27.5508 17.2032C27.5657 17.3372 27.5781 17.4613 27.5881 17.5755C27.603 17.6847 27.6104 17.7617 27.6104 17.8064C27.6104 17.9305 27.5906 18.0174 27.5508 18.067C27.5161 18.1167 27.4664 18.1415 27.4019 18.1415Z" fill="#3B3634"/>
<path d="M31.9006 18.0521C31.7318 18.0521 31.5456 18.0472 31.3421 18.0372C31.1435 18.0273 30.9573 18.0174 30.7835 18.0074C30.6098 18.0025 30.4782 18 30.3888 18C30.2895 18 30.1803 18 30.0612 18C29.942 18.005 29.8179 18.0099 29.6888 18.0149C29.5647 18.0199 29.4455 18.0223 29.3313 18.0223C29.2966 18.0223 29.2643 18.0149 29.2345 18C29.2047 17.9801 29.1898 17.9528 29.1898 17.9181C29.1898 17.8734 29.2023 17.8386 29.2271 17.8138C29.2569 17.789 29.2966 17.7716 29.3462 17.7617C29.5349 17.722 29.664 17.6723 29.7335 17.6127C29.803 17.5482 29.8377 17.4365 29.8377 17.2776V13.8966C29.8377 13.7377 29.8055 13.626 29.7409 13.5615C29.6764 13.492 29.5448 13.4349 29.3462 13.3902C29.2966 13.3803 29.2569 13.3629 29.2271 13.3381C29.2023 13.3132 29.1898 13.2785 29.1898 13.2338C29.1898 13.1991 29.2047 13.1717 29.2345 13.1519C29.2643 13.132 29.2966 13.1221 29.3313 13.1221C29.4455 13.1221 29.5647 13.1246 29.6888 13.1295C29.8179 13.1345 29.942 13.142 30.0612 13.1519C30.1853 13.1568 30.297 13.1593 30.3963 13.1593C30.4757 13.1593 30.58 13.1568 30.7091 13.1519C30.8381 13.142 30.9772 13.1345 31.1261 13.1295C31.28 13.1196 31.4265 13.1122 31.5655 13.1072C31.7095 13.0973 31.8261 13.0923 31.9155 13.0923C32.2928 13.0923 32.6404 13.1519 32.9581 13.271C33.2808 13.3852 33.5613 13.5515 33.7996 13.77C34.0429 13.9835 34.2316 14.2367 34.3656 14.5296C34.4997 14.8225 34.5667 15.1452 34.5667 15.4977C34.5667 15.8304 34.5071 16.1506 34.388 16.4584C34.2688 16.7613 34.095 17.0343 33.8667 17.2776C33.6383 17.5159 33.3603 17.7046 33.0326 17.8436C32.7049 17.9826 32.3276 18.0521 31.9006 18.0521ZM31.7889 17.6723C32.1265 17.6723 32.4095 17.5904 32.6379 17.4266C32.8663 17.2578 33.0351 17.0269 33.1443 16.734C33.2585 16.4361 33.3156 16.091 33.3156 15.6988C33.3156 15.3662 33.2783 15.0658 33.2039 14.7977C33.1344 14.5246 33.0301 14.2913 32.8911 14.0977C32.757 13.904 32.5882 13.7551 32.3847 13.6508C32.1861 13.5416 31.9602 13.487 31.707 13.487C31.5481 13.487 31.4141 13.492 31.3048 13.5019C31.2006 13.5118 31.1211 13.5367 31.0665 13.5764C31.0119 13.6161 30.9846 13.6806 30.9846 13.77V17.017C30.9846 17.1808 31.0144 17.3099 31.074 17.4042C31.1385 17.4986 31.2304 17.5681 31.3495 17.6127C31.4736 17.6525 31.6201 17.6723 31.7889 17.6723Z" fill="#3B3634"/>
<path d="M40.2572 18.1564C40.004 18.1564 39.7905 18.1241 39.6167 18.0596C39.443 18 39.294 17.9206 39.1699 17.8213C39.0508 17.717 38.944 17.6003 38.8497 17.4713C38.7405 17.3273 38.6337 17.1833 38.5295 17.0393C38.4302 16.8953 38.3309 16.7389 38.2316 16.5701C38.1323 16.4013 38.028 16.2077 37.9188 15.9893C37.8691 15.88 37.8021 15.8031 37.7177 15.7584C37.673 15.7286 37.6283 15.7088 37.5837 15.6988C37.539 15.6889 37.4993 15.6839 37.4645 15.6839C37.4397 15.6839 37.4198 15.6988 37.4049 15.7286C37.39 15.7534 37.3826 15.7882 37.3826 15.8329V17.2553C37.3826 17.4092 37.4248 17.5209 37.5092 17.5904C37.5936 17.6599 37.7401 17.717 37.9486 17.7617C38.0032 17.7716 38.0429 17.789 38.0677 17.8138C38.0975 17.8337 38.1124 17.8659 38.1124 17.9106C38.1124 17.9454 38.1 17.9727 38.0752 17.9926C38.0504 18.0124 38.0156 18.0223 37.9709 18.0223C37.8617 18.0223 37.7351 18.0174 37.5911 18.0074C37.4521 18.0025 37.3131 17.9975 37.1741 17.9926C37.0351 17.9876 36.9159 17.9851 36.8166 17.9851C36.7123 17.9851 36.5982 17.9876 36.474 17.9926C36.3499 17.9975 36.2208 18.0025 36.0868 18.0074C35.9577 18.0174 35.8385 18.0223 35.7293 18.0223C35.6896 18.0223 35.6548 18.0149 35.6251 18C35.5953 17.9801 35.5804 17.9528 35.5804 17.9181C35.5804 17.8386 35.6325 17.7865 35.7368 17.7617C35.9254 17.722 36.0545 17.6723 36.124 17.6127C36.1985 17.5482 36.2357 17.434 36.2357 17.2702V13.9264C36.2357 13.8072 36.2233 13.7129 36.1985 13.6434C36.1786 13.5739 36.1364 13.5218 36.0719 13.487C36.0073 13.4473 35.913 13.415 35.7889 13.3902C35.7244 13.3753 35.6797 13.3554 35.6548 13.3306C35.63 13.3008 35.6176 13.2686 35.6176 13.2338C35.6176 13.204 35.6325 13.1792 35.6623 13.1593C35.6921 13.1345 35.7318 13.1221 35.7814 13.1221C35.9403 13.1221 36.0694 13.1271 36.1687 13.137C36.273 13.1469 36.3698 13.1568 36.4591 13.1668C36.5535 13.1717 36.6627 13.1742 36.7868 13.1742C36.901 13.1742 37.0003 13.1693 37.0847 13.1593C37.1741 13.1444 37.2734 13.132 37.3826 13.1221C37.4968 13.1122 37.6408 13.1072 37.8145 13.1072C38.3954 13.1072 38.8422 13.2065 39.155 13.4051C39.4678 13.6037 39.6242 13.9041 39.6242 14.3062C39.6242 14.5296 39.5745 14.7183 39.4753 14.8722C39.3809 15.0211 39.2593 15.1452 39.1103 15.2445C38.9664 15.3389 38.8199 15.4109 38.671 15.4605C38.6511 15.4655 38.6412 15.4779 38.6412 15.4977C38.6461 15.5126 38.6536 15.53 38.6635 15.5499C38.8124 15.7683 38.9564 15.9818 39.0954 16.1903C39.2394 16.3939 39.3859 16.585 39.5348 16.7638C39.6838 16.9375 39.8377 17.0989 39.9966 17.2478C40.1654 17.4067 40.3366 17.501 40.5104 17.5308C40.6891 17.5557 40.8654 17.5681 41.0392 17.5681C41.1136 17.5681 41.1509 17.6127 41.1509 17.7021C41.1509 17.8113 41.1111 17.9007 41.0317 17.9702C40.9572 18.0348 40.853 18.0819 40.7189 18.1117C40.5849 18.1415 40.431 18.1564 40.2572 18.1564ZM37.6656 15.4456C37.8542 15.4456 38.0106 15.4034 38.1348 15.319C38.2589 15.2346 38.3532 15.1204 38.4178 14.9764C38.4823 14.8275 38.5146 14.6587 38.5146 14.47C38.5146 14.2417 38.4848 14.0505 38.4252 13.8966C38.3656 13.7427 38.2763 13.6285 38.1571 13.554C38.0379 13.4746 37.884 13.4349 37.6954 13.4349C37.5861 13.4349 37.5067 13.4796 37.4571 13.5689C37.4124 13.6533 37.39 13.837 37.39 14.12C37.3851 14.2342 37.3826 14.3782 37.3826 14.552C37.3826 14.7257 37.3826 14.9318 37.3826 15.1701C37.3826 15.2694 37.4074 15.3414 37.4571 15.386C37.5117 15.4258 37.5812 15.4456 37.6656 15.4456Z" fill="#3B3634"/>
<path d="M42.0229 18.0372C41.9683 18.0372 41.9211 18.0273 41.8814 18.0074C41.8466 17.9926 41.8292 17.9628 41.8292 17.9181C41.8292 17.8684 41.8441 17.8337 41.8739 17.8138C41.9087 17.789 41.9534 17.7691 42.008 17.7542C42.1519 17.7145 42.2761 17.6525 42.3803 17.5681C42.4896 17.4837 42.5715 17.3794 42.6261 17.2553C42.7502 16.9773 42.8669 16.7042 42.9761 16.4361C43.0853 16.163 43.1921 15.8949 43.2963 15.6318C43.4006 15.3637 43.5049 15.0931 43.6091 14.8201C43.7134 14.542 43.8176 14.2615 43.9219 13.9785C43.9964 13.775 44.0435 13.6285 44.0634 13.5391C44.0833 13.4448 44.0981 13.3902 44.1081 13.3753C44.1974 13.3505 44.2818 13.3281 44.3613 13.3083C44.4407 13.2884 44.5251 13.2611 44.6145 13.2264C44.7038 13.1916 44.7783 13.1469 44.8379 13.0923C44.9024 13.0377 44.9496 12.9955 44.9794 12.9657C44.9993 12.9508 45.0191 12.9434 45.039 12.9434C45.0588 12.9384 45.0787 12.9533 45.0985 12.988C45.1134 13.0178 45.1259 13.0501 45.1358 13.0849C45.1507 13.1146 45.1631 13.1494 45.173 13.1891C45.2773 13.5218 45.384 13.8618 45.4933 14.2094C45.6025 14.552 45.7117 14.8945 45.8209 15.2371C45.9351 15.5797 46.0468 15.9198 46.1561 16.2574C46.2653 16.59 46.372 16.9152 46.4763 17.2329C46.5061 17.3322 46.5508 17.4166 46.6103 17.4861C46.6749 17.5557 46.7469 17.6103 46.8263 17.65C46.9057 17.6897 46.9951 17.7245 47.0944 17.7542C47.149 17.7691 47.1912 17.789 47.221 17.8138C47.2558 17.8337 47.2731 17.8659 47.2731 17.9106C47.2731 17.9454 47.2582 17.9727 47.2284 17.9926C47.1987 18.0124 47.1639 18.0223 47.1242 18.0223C47.0249 18.0223 46.9008 18.0174 46.7518 18.0074C46.6078 18.0025 46.4614 17.9975 46.3124 17.9926C46.1635 17.9876 46.0319 17.9851 45.9177 17.9851C45.8234 17.9851 45.7067 17.9876 45.5677 17.9926C45.4337 17.9975 45.2971 18.0025 45.1581 18.0074C45.0191 18.0124 44.9 18.0149 44.8007 18.0149C44.756 18.0149 44.7163 18.0074 44.6815 17.9926C44.6517 17.9727 44.6368 17.9454 44.6368 17.9106C44.6368 17.8659 44.6542 17.8312 44.689 17.8064C44.7237 17.7815 44.7659 17.7642 44.8156 17.7542C44.9993 17.7145 45.1333 17.6624 45.2177 17.5979C45.3021 17.5333 45.3294 17.4365 45.2996 17.3074C45.2798 17.2131 45.2549 17.1138 45.2252 17.0095C45.1954 16.9053 45.1656 16.801 45.1358 16.6967C45.111 16.5875 45.0837 16.4833 45.0539 16.384C45.0439 16.3442 45.0315 16.3145 45.0166 16.2946C45.0017 16.2747 44.9719 16.2648 44.9273 16.2648H43.6091C43.5744 16.2648 43.5471 16.2747 43.5272 16.2946C43.5073 16.3145 43.4924 16.3467 43.4825 16.3914C43.4627 16.4609 43.4403 16.5304 43.4155 16.5999C43.3907 16.6694 43.3658 16.7389 43.341 16.8085C43.3212 16.878 43.3013 16.9475 43.2814 17.017C43.2616 17.0865 43.2417 17.1535 43.2219 17.218C43.1871 17.367 43.202 17.4812 43.2665 17.5606C43.3311 17.6401 43.4701 17.7046 43.6836 17.7542C43.8027 17.7791 43.8623 17.8312 43.8623 17.9106C43.8623 17.9454 43.8474 17.9727 43.8176 17.9926C43.7928 18.0074 43.7506 18.0149 43.691 18.0149C43.5471 18.0149 43.413 18.0099 43.2889 18C43.1648 17.995 43.0282 17.9926 42.8793 17.9926C42.7303 17.9926 42.5888 18 42.4548 18.0149C42.3208 18.0298 42.1768 18.0372 42.0229 18.0372ZM43.8176 15.8627H44.7858C44.8602 15.8627 44.8975 15.8453 44.8975 15.8105C44.8975 15.7956 44.895 15.7832 44.89 15.7733C44.89 15.7634 44.8875 15.751 44.8826 15.7361L44.3836 14.053C44.3687 13.9984 44.3538 13.9711 44.3389 13.9711C44.329 13.9711 44.3116 13.9984 44.2868 14.053L43.6985 15.7361C43.6885 15.7559 43.6836 15.7758 43.6836 15.7956C43.6836 15.8205 43.696 15.8378 43.7208 15.8478C43.7506 15.8577 43.7829 15.8627 43.8176 15.8627Z" fill="#3B3634"/>
<path d="M50.7064 18.0223C50.6468 18.0223 50.6021 18.0149 50.5723 18C50.5425 17.9801 50.5276 17.9528 50.5276 17.9181C50.5276 17.8734 50.5475 17.8461 50.5872 17.8362C50.6319 17.8213 50.6815 17.8039 50.7361 17.784C50.8503 17.7443 50.9496 17.6748 51.034 17.5755C51.1234 17.4762 51.178 17.3496 51.1979 17.1957C51.2277 16.9673 51.2574 16.6868 51.2872 16.3542C51.322 16.0166 51.3567 15.6566 51.3915 15.2743C51.4262 14.892 51.456 14.5147 51.4809 14.1424C51.4858 14.1126 51.4883 14.0753 51.4883 14.0307C51.4883 13.986 51.4883 13.9388 51.4883 13.8892C51.4883 13.7998 51.4734 13.7303 51.4436 13.6806C51.4188 13.626 51.3741 13.5813 51.3096 13.5466C51.25 13.5069 51.1855 13.4746 51.1159 13.4498C51.0464 13.42 50.972 13.3952 50.8925 13.3753C50.833 13.3604 50.7858 13.3405 50.751 13.3157C50.7163 13.2909 50.6989 13.2586 50.6989 13.2189C50.6989 13.1742 50.7188 13.1444 50.7585 13.1295C50.7982 13.1146 50.8454 13.1072 50.9 13.1072C50.9745 13.1072 51.0663 13.1097 51.1755 13.1146C51.2848 13.1196 51.4039 13.1246 51.533 13.1295C51.667 13.1295 51.8011 13.132 51.9351 13.137C52.0742 13.142 52.2008 13.1444 52.3149 13.1444C52.3547 13.1444 52.3919 13.1593 52.4267 13.1891C52.4614 13.2139 52.4837 13.2437 52.4937 13.2785C52.5284 13.3728 52.5607 13.4647 52.5905 13.554C52.6203 13.6384 52.6526 13.7278 52.6873 13.8221L53.782 16.4361C53.792 16.456 53.8044 16.4684 53.8193 16.4733C53.8391 16.4733 53.854 16.4609 53.864 16.4361L54.9289 13.9636C54.9637 13.7899 54.991 13.6484 55.0108 13.5391C55.0357 13.4299 55.058 13.343 55.0779 13.2785C55.0977 13.2139 55.1374 13.1817 55.197 13.1817H55.5172C55.7258 13.1717 55.9417 13.1568 56.1651 13.137C56.3935 13.1122 56.5723 13.0998 56.7013 13.0998C56.751 13.0998 56.7932 13.1097 56.8279 13.1295C56.8677 13.1444 56.8875 13.1717 56.8875 13.2115C56.8875 13.2561 56.8701 13.2884 56.8354 13.3083C56.8056 13.3281 56.7659 13.3455 56.7162 13.3604C56.6864 13.3703 56.6517 13.3852 56.612 13.4051C56.5723 13.42 56.5375 13.4349 56.5077 13.4498C56.3786 13.5093 56.2818 13.5789 56.2173 13.6583C56.1577 13.7328 56.1329 13.8544 56.1428 14.0232C56.1527 14.3807 56.1651 14.6935 56.18 14.9615C56.1949 15.2296 56.2073 15.4779 56.2173 15.7063C56.2322 15.9346 56.2471 16.173 56.262 16.4212C56.2818 16.6645 56.3017 16.9499 56.3215 17.2776C56.3315 17.4067 56.3836 17.511 56.4779 17.5904C56.5772 17.6649 56.7063 17.722 56.8652 17.7617C56.9148 17.7766 56.957 17.794 56.9918 17.8138C57.0265 17.8337 57.0439 17.8659 57.0439 17.9106C57.0439 17.9454 57.029 17.9727 56.9992 17.9926C56.9694 18.0124 56.9322 18.0223 56.8875 18.0223C56.7783 18.0223 56.6517 18.0174 56.5077 18.0074C56.3687 18.0025 56.2297 17.9975 56.0907 17.9926C55.9566 17.9876 55.8399 17.9851 55.7407 17.9851C55.6414 17.9851 55.5296 17.9876 55.4055 17.9926C55.2864 17.9975 55.1647 18.0025 55.0406 18.0074C54.9165 18.0174 54.7973 18.0223 54.6831 18.0223C54.6385 18.0223 54.5987 18.0149 54.564 18C54.5292 17.9801 54.5119 17.9528 54.5119 17.9181C54.5119 17.8734 54.5292 17.8386 54.564 17.8138C54.5987 17.789 54.6409 17.7716 54.6906 17.7617C54.8743 17.7269 55.0009 17.6773 55.0704 17.6127C55.1399 17.5432 55.1722 17.4315 55.1672 17.2776C55.1523 16.9698 55.1399 16.6645 55.13 16.3616C55.12 16.0538 55.1101 15.7534 55.1002 15.4605C55.0952 15.1626 55.0853 14.8747 55.0704 14.5966C55.0704 14.5619 55.0605 14.547 55.0406 14.552C55.0257 14.552 55.0108 14.5693 54.9959 14.6041L53.5735 17.9851C53.5487 18.0546 53.5115 18.0844 53.4618 18.0745C53.4122 18.0645 53.3774 18.0397 53.3576 18C53.1143 17.4241 52.8586 16.8556 52.5905 16.2946C52.3274 15.7336 52.0841 15.1775 51.8607 14.6264C51.8458 14.5817 51.8209 14.5668 51.7862 14.5817C51.7564 14.5917 51.739 14.6239 51.7341 14.6786C51.7192 14.9268 51.7068 15.1999 51.6968 15.4977C51.6869 15.7907 51.6819 16.0886 51.6819 16.3914C51.6819 16.6893 51.6819 16.9673 51.6819 17.2255C51.6819 17.3645 51.7266 17.4787 51.816 17.5681C51.9053 17.6525 52.0468 17.717 52.2405 17.7617C52.2901 17.7716 52.3373 17.789 52.382 17.8138C52.4267 17.8337 52.449 17.8659 52.449 17.9106C52.449 17.9454 52.4291 17.9727 52.3894 17.9926C52.3497 18.0124 52.3075 18.0223 52.2628 18.0223C52.1288 18.0223 52.0245 18.0174 51.95 18.0074C51.8756 18.0025 51.8085 18 51.749 18C51.6894 17.995 51.6075 17.9926 51.5032 17.9926C51.394 17.9926 51.2823 17.995 51.1681 18C51.0539 18.005 50.9546 18.0099 50.8702 18.0149C50.7858 18.0199 50.7312 18.0223 50.7064 18.0223Z" fill="#3B3634"/>
<path d="M58.0678 18.0372C58.0131 18.0372 57.966 18.0273 57.9263 18.0074C57.8915 17.9926 57.8741 17.9628 57.8741 17.9181C57.8741 17.8684 57.889 17.8337 57.9188 17.8138C57.9536 17.789 57.9983 17.7691 58.0529 17.7542C58.1968 17.7145 58.321 17.6525 58.4252 17.5681C58.5344 17.4837 58.6164 17.3794 58.671 17.2553C58.7951 16.9773 58.9118 16.7042 59.021 16.4361C59.1302 16.163 59.237 15.8949 59.3412 15.6318C59.4455 15.3637 59.5497 15.0931 59.654 14.8201C59.7583 14.542 59.8625 14.2615 59.9668 13.9785C60.0413 13.775 60.0884 13.6285 60.1083 13.5391C60.1281 13.4448 60.143 13.3902 60.153 13.3753C60.2423 13.3505 60.3267 13.3281 60.4062 13.3083C60.4856 13.2884 60.57 13.2611 60.6594 13.2264C60.7487 13.1916 60.8232 13.1469 60.8828 13.0923C60.9473 13.0377 60.9945 12.9955 61.0243 12.9657C61.0441 12.9508 61.064 12.9434 61.0839 12.9434C61.1037 12.9384 61.1236 12.9533 61.1434 12.988C61.1583 13.0178 61.1707 13.0501 61.1807 13.0849C61.1956 13.1146 61.208 13.1494 61.2179 13.1891C61.3222 13.5218 61.4289 13.8618 61.5381 14.2094C61.6474 14.552 61.7566 14.8945 61.8658 15.2371C61.98 15.5797 62.0917 15.9198 62.2009 16.2574C62.3102 16.59 62.4169 16.9152 62.5212 17.2329C62.551 17.3322 62.5956 17.4166 62.6552 17.4861C62.7198 17.5557 62.7918 17.6103 62.8712 17.65C62.9506 17.6897 63.04 17.7245 63.1393 17.7542C63.1939 17.7691 63.2361 17.789 63.2659 17.8138C63.3006 17.8337 63.318 17.8659 63.318 17.9106C63.318 17.9454 63.3031 17.9727 63.2733 17.9926C63.2435 18.0124 63.2088 18.0223 63.1691 18.0223C63.0698 18.0223 62.9457 18.0174 62.7967 18.0074C62.6527 18.0025 62.5063 17.9975 62.3573 17.9926C62.2084 17.9876 62.0768 17.9851 61.9626 17.9851C61.8683 17.9851 61.7516 17.9876 61.6126 17.9926C61.4786 17.9975 61.342 18.0025 61.203 18.0074C61.064 18.0124 60.9449 18.0149 60.8456 18.0149C60.8009 18.0149 60.7612 18.0074 60.7264 17.9926C60.6966 17.9727 60.6817 17.9454 60.6817 17.9106C60.6817 17.8659 60.6991 17.8312 60.7338 17.8064C60.7686 17.7815 60.8108 17.7642 60.8605 17.7542C61.0441 17.7145 61.1782 17.6624 61.2626 17.5979C61.347 17.5333 61.3743 17.4365 61.3445 17.3074C61.3247 17.2131 61.2998 17.1138 61.27 17.0095C61.2403 16.9053 61.2105 16.801 61.1807 16.6967C61.1559 16.5875 61.1285 16.4833 61.0988 16.384C61.0888 16.3442 61.0764 16.3145 61.0615 16.2946C61.0466 16.2747 61.0168 16.2648 60.9722 16.2648H59.654C59.6193 16.2648 59.5919 16.2747 59.5721 16.2946C59.5522 16.3145 59.5373 16.3467 59.5274 16.3914C59.5075 16.4609 59.4852 16.5304 59.4604 16.5999C59.4356 16.6694 59.4107 16.7389 59.3859 16.8085C59.3661 16.878 59.3462 16.9475 59.3263 17.017C59.3065 17.0865 59.2866 17.1535 59.2668 17.218C59.232 17.367 59.2469 17.4812 59.3114 17.5606C59.376 17.6401 59.515 17.7046 59.7285 17.7542C59.8476 17.7791 59.9072 17.8312 59.9072 17.9106C59.9072 17.9454 59.8923 17.9727 59.8625 17.9926C59.8377 18.0074 59.7955 18.0149 59.7359 18.0149C59.5919 18.0149 59.4579 18.0099 59.3338 18C59.2097 17.995 59.0731 17.9926 58.9242 17.9926C58.7752 17.9926 58.6337 18 58.4997 18.0149C58.3656 18.0298 58.2217 18.0372 58.0678 18.0372ZM59.8625 15.8627H60.8307C60.9051 15.8627 60.9424 15.8453 60.9424 15.8105C60.9424 15.7956 60.9399 15.7832 60.9349 15.7733C60.9349 15.7634 60.9324 15.751 60.9275 15.7361L60.4285 14.053C60.4136 13.9984 60.3987 13.9711 60.3838 13.9711C60.3739 13.9711 60.3565 13.9984 60.3317 14.053L59.7434 15.7361C59.7334 15.7559 59.7285 15.7758 59.7285 15.7956C59.7285 15.8205 59.7409 15.8378 59.7657 15.8478C59.7955 15.8577 59.8278 15.8627 59.8625 15.8627Z" fill="#3B3634"/>
<path d="M64.1463 18.0521C64.0867 18.0521 64.0346 18.0422 63.9899 18.0223C63.9452 18.0074 63.9229 17.9777 63.9229 17.933C63.9229 17.8833 63.9427 17.8511 63.9824 17.8362C64.0271 17.8163 64.0743 17.7964 64.1239 17.7766C64.2232 17.7518 64.32 17.712 64.4144 17.6574C64.5137 17.6028 64.6154 17.5283 64.7197 17.434C64.824 17.3397 64.9332 17.2205 65.0474 17.0765L65.9485 15.9073C66.013 15.8279 66.0453 15.746 66.0453 15.6616C66.0503 15.5772 66.018 15.4878 65.9485 15.3935L64.891 13.904C64.8314 13.8196 64.7718 13.7452 64.7122 13.6806C64.6576 13.6111 64.5931 13.5515 64.5186 13.5019C64.4491 13.4523 64.3672 13.415 64.2729 13.3902C64.2232 13.3753 64.181 13.3579 64.1463 13.3381C64.1115 13.3182 64.0941 13.2835 64.0941 13.2338C64.0941 13.1941 64.109 13.1668 64.1388 13.1519C64.1736 13.137 64.2108 13.1295 64.2505 13.1295C64.4739 13.1295 64.7048 13.137 64.9431 13.1519C65.1864 13.1668 65.4247 13.1742 65.658 13.1742C65.8169 13.1742 65.9733 13.1668 66.1272 13.1519C66.2861 13.137 66.445 13.1295 66.6038 13.1295C66.6485 13.1295 66.6932 13.1395 66.7379 13.1593C66.7875 13.1742 66.8124 13.1991 66.8124 13.2338C66.8124 13.2735 66.7875 13.3083 66.7379 13.3381C66.6932 13.3629 66.646 13.3803 66.5964 13.3902C66.4474 13.4249 66.3357 13.4647 66.2613 13.5093C66.1918 13.5491 66.157 13.6086 66.157 13.6881C66.157 13.7477 66.1967 13.8345 66.2762 13.9487L66.9836 14.9169C67.0333 14.9814 67.0755 15.0162 67.1102 15.0211C67.15 15.0261 67.1922 14.9963 67.2368 14.9318L67.855 14.0828C67.9245 13.9934 67.9716 13.9165 67.9965 13.8519C68.0213 13.7824 68.0337 13.7228 68.0337 13.6732C68.0337 13.6086 68.0089 13.554 67.9592 13.5093C67.9096 13.4647 67.8252 13.4274 67.706 13.3976C67.6564 13.3827 67.6067 13.3629 67.5571 13.3381C67.5074 13.3132 67.4826 13.2785 67.4826 13.2338C67.4826 13.1991 67.5049 13.1742 67.5496 13.1593C67.5943 13.1444 67.6489 13.137 67.7135 13.137C67.8128 13.137 67.8947 13.1395 67.9592 13.1444C68.0238 13.1444 68.0883 13.1469 68.1528 13.1519C68.2174 13.1568 68.2968 13.1593 68.3912 13.1593C68.5351 13.1593 68.6617 13.1519 68.771 13.137C68.8802 13.1171 69.0068 13.1072 69.1508 13.1072C69.2054 13.1072 69.2575 13.1171 69.3072 13.137C69.3618 13.1519 69.3891 13.1817 69.3891 13.2264C69.3891 13.276 69.3643 13.3108 69.3146 13.3306C69.2699 13.3455 69.2203 13.3604 69.1657 13.3753C69.0564 13.4101 68.9398 13.4746 68.8157 13.5689C68.6915 13.6583 68.5823 13.7601 68.488 13.8743L67.4677 15.1328C67.4131 15.2023 67.3833 15.2644 67.3783 15.319C67.3734 15.3736 67.4007 15.4431 67.4603 15.5275L68.7039 17.2925C68.7834 17.4017 68.8678 17.4986 68.9571 17.583C69.0515 17.6624 69.1458 17.717 69.2401 17.7468C69.2948 17.7567 69.3518 17.7791 69.4114 17.8138C69.476 17.8436 69.5082 17.8833 69.5082 17.933C69.5082 17.9677 69.4909 17.9926 69.4561 18.0074C69.4214 18.0273 69.3742 18.0372 69.3146 18.0372C69.1309 18.0372 68.9571 18.0323 68.7933 18.0223C68.6295 18.0174 68.4706 18.0099 68.3167 18C68.1677 17.9901 68.0138 17.9876 67.855 17.9926C67.706 17.9926 67.5571 17.995 67.4081 18C67.2642 18.0099 67.1177 18.0149 66.9688 18.0149C66.9241 18.0149 66.8794 18.005 66.8347 17.9851C66.79 17.9652 66.7677 17.9379 66.7677 17.9032C66.7677 17.8635 66.7925 17.8312 66.8421 17.8064C66.8918 17.7766 66.939 17.7567 66.9836 17.7468C67.078 17.722 67.1723 17.6872 67.2666 17.6425C67.361 17.5979 67.4081 17.5333 67.4081 17.4489C67.4081 17.4241 67.4032 17.3968 67.3932 17.367C67.3833 17.3372 67.3659 17.3074 67.3411 17.2776L66.5294 16.1308C66.4698 16.0414 66.4152 15.9917 66.3655 15.9818C66.3208 15.9669 66.2662 16.0091 66.2017 16.1084L65.5017 17.1138C65.4371 17.2081 65.3974 17.2876 65.3825 17.3521C65.3726 17.4166 65.3701 17.4638 65.3751 17.4936C65.385 17.5631 65.4173 17.6227 65.4719 17.6723C65.5314 17.717 65.6134 17.7468 65.7176 17.7617C65.7722 17.7716 65.8219 17.7915 65.8666 17.8213C65.9162 17.8461 65.941 17.8808 65.941 17.9255C65.941 17.9603 65.9187 17.9851 65.874 18C65.8343 18.0149 65.7846 18.0223 65.7251 18.0223C65.5811 18.0223 65.4396 18.0199 65.3006 18.0149C65.1665 18.0099 65.0548 18.0074 64.9655 18.0074C64.8165 18.0074 64.68 18.0149 64.5559 18.0298C64.4367 18.0447 64.3002 18.0521 64.1463 18.0521Z" fill="#3B3634"/>
<path d="M72.9972 18.1266C72.9574 18.1266 72.9277 18.1067 72.9078 18.067C72.8879 18.0273 72.8656 17.9826 72.8408 17.933L70.9641 13.8743C70.9095 13.7551 70.8474 13.6558 70.7779 13.5764C70.7084 13.492 70.6017 13.4324 70.4577 13.3976C70.408 13.3778 70.3584 13.3579 70.3087 13.3381C70.264 13.3182 70.2417 13.2835 70.2417 13.2338C70.2417 13.1991 70.264 13.1742 70.3087 13.1593C70.3534 13.1395 70.3956 13.1295 70.4353 13.1295C70.5843 13.1295 70.7506 13.1345 70.9343 13.1444C71.123 13.1544 71.2868 13.1593 71.4258 13.1593C71.5748 13.1593 71.7262 13.1544 71.8801 13.1444C72.034 13.1345 72.1854 13.1295 72.3344 13.1295C72.3989 13.1295 72.451 13.1395 72.4908 13.1593C72.5354 13.1742 72.5578 13.1991 72.5578 13.2338C72.5578 13.2785 72.5379 13.3132 72.4982 13.3381C72.4585 13.3579 72.3989 13.3753 72.3195 13.3902C72.24 13.4101 72.1929 13.4398 72.178 13.4796C72.1631 13.5193 72.1556 13.5664 72.1556 13.6211C72.1556 13.6508 72.1606 13.6906 72.1705 13.7402C72.1805 13.7899 72.1879 13.8221 72.1929 13.837C72.2922 14.0704 72.3915 14.3012 72.4908 14.5296C72.59 14.753 72.6869 14.9789 72.7812 15.2073C72.8755 15.4307 72.9723 15.6566 73.0716 15.885C73.1709 16.1084 73.2677 16.3393 73.3621 16.5776C73.3869 16.6322 73.4068 16.662 73.4217 16.667C73.4365 16.6719 73.4589 16.6446 73.4887 16.585L73.8983 15.8105C73.9132 15.7807 73.9231 15.7559 73.9281 15.7361C73.938 15.7112 73.943 15.6889 73.943 15.669C73.943 15.6492 73.938 15.6293 73.9281 15.6095C73.9231 15.5846 73.9157 15.5573 73.9057 15.5275L73.1387 13.8966C73.089 13.7725 73.0145 13.6682 72.9152 13.5838C72.8159 13.4945 72.6918 13.4324 72.5429 13.3976C72.4932 13.3778 72.451 13.3579 72.4163 13.3381C72.3865 13.3182 72.3716 13.2835 72.3716 13.2338C72.3716 13.1991 72.3865 13.1742 72.4163 13.1593C72.4461 13.1395 72.4808 13.1295 72.5205 13.1295C72.6198 13.1295 72.734 13.132 72.8631 13.137C72.9922 13.142 73.1188 13.1469 73.2429 13.1519C73.372 13.1568 73.4837 13.1593 73.578 13.1593C73.722 13.1593 73.8685 13.1544 74.0174 13.1444C74.1713 13.1345 74.3228 13.1295 74.4717 13.1295C74.5462 13.1295 74.6058 13.1395 74.6504 13.1593C74.6951 13.1742 74.7175 13.1991 74.7175 13.2338C74.7175 13.2636 74.7051 13.2909 74.6802 13.3157C74.6554 13.3356 74.6206 13.353 74.576 13.3679C74.5362 13.3827 74.494 13.4001 74.4494 13.42C74.36 13.4398 74.3079 13.4746 74.293 13.5242C74.283 13.5739 74.288 13.6285 74.3079 13.6881C74.3277 13.7328 74.3501 13.7973 74.3749 13.8817C74.4047 13.9611 74.4369 14.048 74.4717 14.1424C74.5114 14.2317 74.5462 14.3186 74.576 14.403C74.6107 14.4874 74.638 14.5544 74.6579 14.6041C74.6926 14.6786 74.7175 14.7083 74.7324 14.6935C74.7522 14.6786 74.7721 14.6488 74.7919 14.6041C74.8267 14.5346 74.8664 14.4452 74.9111 14.336C74.9558 14.2218 74.998 14.1101 75.0377 14.0009C75.0774 13.8916 75.1072 13.8097 75.1271 13.7551C75.1519 13.7154 75.1643 13.6682 75.1643 13.6136C75.1643 13.5391 75.132 13.487 75.0675 13.4572C75.0079 13.4225 74.9483 13.3927 74.8887 13.3679C74.8292 13.3381 74.7994 13.2959 74.7994 13.2413C74.7994 13.2115 74.8068 13.1866 74.8217 13.1668C74.8416 13.1469 74.8912 13.137 74.9707 13.137C75.1047 13.137 75.1916 13.142 75.2313 13.1519C75.276 13.1568 75.3331 13.1593 75.4026 13.1593C75.482 13.1544 75.5565 13.1469 75.626 13.137C75.6955 13.1271 75.8023 13.1221 75.9463 13.1221C76.0058 13.1221 76.058 13.132 76.1026 13.1519C76.1473 13.1668 76.1697 13.1966 76.1697 13.2413C76.1697 13.2909 76.1473 13.3257 76.1026 13.3455C76.0629 13.3604 76.0182 13.3753 75.9686 13.3902C75.8147 13.4299 75.703 13.4895 75.6335 13.5689C75.564 13.6484 75.4994 13.7452 75.4398 13.8594C75.3902 13.9537 75.3356 14.0604 75.276 14.1796C75.2164 14.2988 75.1568 14.4204 75.0973 14.5445C75.0427 14.6686 74.988 14.7853 74.9334 14.8945C74.9086 14.9541 74.8987 15.0162 74.9036 15.0807C74.9086 15.1403 74.9235 15.2023 74.9483 15.2669L75.5218 16.585C75.5367 16.6297 75.5515 16.6471 75.5664 16.6372C75.5863 16.6223 75.6012 16.5999 75.6111 16.5701C75.7998 16.1481 75.986 15.7087 76.1697 15.252C76.3534 14.7952 76.5172 14.3732 76.6612 13.986C76.7108 13.8618 76.7381 13.7774 76.7431 13.7328C76.753 13.6831 76.7555 13.6459 76.7505 13.6211C76.7456 13.5664 76.7257 13.5193 76.691 13.4796C76.6562 13.4398 76.6066 13.4125 76.542 13.3976C76.4924 13.3827 76.4402 13.3629 76.3856 13.3381C76.336 13.3132 76.3112 13.2785 76.3112 13.2338C76.3112 13.1991 76.3335 13.1742 76.3782 13.1593C76.4229 13.1444 76.4725 13.137 76.5271 13.137C76.6761 13.137 76.7803 13.142 76.8399 13.1519C76.9045 13.1568 76.974 13.1568 77.0484 13.1519C77.1279 13.1469 77.2098 13.1395 77.2942 13.1295C77.3786 13.1196 77.4903 13.1146 77.6293 13.1146C77.6988 13.1146 77.7584 13.1221 77.808 13.137C77.8577 13.1519 77.8825 13.1842 77.8825 13.2338C77.8825 13.2785 77.8552 13.3108 77.8006 13.3306C77.7509 13.3455 77.7013 13.3629 77.6516 13.3827C77.5474 13.4076 77.4605 13.4473 77.391 13.5019C77.3215 13.5565 77.2644 13.6186 77.2197 13.6881C77.175 13.7526 77.1353 13.8246 77.1006 13.904L75.3654 17.9702C75.3505 18.0099 75.3306 18.0422 75.3058 18.067C75.281 18.0918 75.2512 18.1043 75.2164 18.1043C75.1767 18.1043 75.142 18.0918 75.1122 18.067C75.0873 18.0472 75.0625 18.0124 75.0377 17.9628C74.9831 17.8386 74.9161 17.6947 74.8366 17.5308C74.7572 17.367 74.6653 17.1734 74.5611 16.9499C74.4568 16.7216 74.3352 16.4535 74.1962 16.1457C74.1813 16.1109 74.1639 16.096 74.144 16.101C74.1242 16.1059 74.1068 16.1233 74.0919 16.1531C73.9926 16.3517 73.8908 16.5503 73.7866 16.7489C73.6823 16.9475 73.578 17.1485 73.4738 17.3521C73.3695 17.5507 73.2653 17.7493 73.161 17.9479C73.1411 17.9975 73.1188 18.0397 73.094 18.0745C73.0741 18.1092 73.0418 18.1266 72.9972 18.1266Z" fill="#3B3634"/>
<path d="M78.8359 18.0372C78.7863 18.0372 78.7465 18.0248 78.7168 18C78.6919 17.9801 78.6795 17.9553 78.6795 17.9255C78.6795 17.8511 78.7341 17.7989 78.8434 17.7691C79.0122 17.7245 79.1313 17.6723 79.2008 17.6127C79.2753 17.5532 79.3125 17.4439 79.3125 17.2851V13.8966C79.3125 13.7377 79.2803 13.6235 79.2157 13.554C79.1512 13.4845 79.0295 13.4299 78.8508 13.3902C78.7863 13.3753 78.7416 13.3554 78.7168 13.3306C78.6919 13.3008 78.6795 13.2686 78.6795 13.2338C78.6795 13.204 78.6944 13.1792 78.7242 13.1593C78.754 13.1345 78.7937 13.1221 78.8434 13.1221C78.9675 13.1221 79.0941 13.1246 79.2232 13.1295C79.3522 13.1345 79.4788 13.142 79.603 13.1519C79.7271 13.1568 79.8462 13.1593 79.9604 13.1593C80.2186 13.1593 80.4941 13.1568 80.7871 13.1519C81.08 13.1469 81.3406 13.142 81.569 13.137C81.7279 13.137 81.8595 13.1295 81.9637 13.1146C82.068 13.0948 82.13 13.0849 82.1499 13.0849C82.1847 13.0849 82.2219 13.0973 82.2616 13.1221C82.3063 13.142 82.3311 13.1767 82.3361 13.2264C82.3559 13.4051 82.3808 13.5789 82.4106 13.7477C82.4403 13.9165 82.4552 14.0654 82.4552 14.1945C82.4552 14.2392 82.4453 14.2739 82.4254 14.2988C82.4056 14.3236 82.3832 14.336 82.3584 14.336C82.3336 14.336 82.3063 14.3261 82.2765 14.3062C82.2517 14.2863 82.2318 14.2565 82.2169 14.2168C82.1673 14.0927 82.1226 13.986 82.0829 13.8966C82.0432 13.8072 81.9985 13.7352 81.9488 13.6806C81.8893 13.626 81.8173 13.5739 81.7329 13.5242C81.6485 13.4746 81.5417 13.4498 81.4126 13.4498H80.8541C80.7449 13.4498 80.6505 13.4796 80.5711 13.5391C80.4917 13.5938 80.4519 13.6732 80.4519 13.7774V15.185C80.4519 15.2445 80.4693 15.2892 80.5041 15.319C80.5388 15.3488 80.5835 15.3637 80.6381 15.3637H81.2935C81.4226 15.3637 81.5144 15.3215 81.569 15.2371C81.6286 15.1477 81.6807 15.041 81.7254 14.9169C81.7602 14.8225 81.8098 14.7754 81.8744 14.7754C81.8992 14.7754 81.9215 14.7903 81.9414 14.8201C81.9612 14.8449 81.9687 14.8846 81.9637 14.9392C81.9588 14.9988 81.9538 15.0633 81.9488 15.1328C81.9439 15.2023 81.9389 15.2718 81.9339 15.3414C81.9339 15.4109 81.9339 15.4779 81.9339 15.5424C81.9339 15.602 81.9339 15.6665 81.9339 15.7361C81.9389 15.8056 81.9414 15.8751 81.9414 15.9446C81.9463 16.0141 81.9513 16.0811 81.9563 16.1457C81.9662 16.2152 81.9637 16.2673 81.9488 16.302C81.9339 16.3318 81.9116 16.3467 81.8818 16.3467C81.8024 16.3467 81.7453 16.2822 81.7105 16.1531C81.6658 16.0042 81.6162 15.89 81.5616 15.8105C81.507 15.7311 81.43 15.6914 81.3307 15.6914H80.6381C80.5785 15.6914 80.5314 15.7063 80.4966 15.7361C80.4668 15.7609 80.4519 15.8031 80.4519 15.8627V17.2776C80.4519 17.4266 80.4842 17.5308 80.5488 17.5904C80.6133 17.65 80.7126 17.6798 80.8466 17.6798H81.4871C81.5963 17.6798 81.7006 17.6674 81.7999 17.6425C81.8992 17.6177 81.9836 17.5755 82.0531 17.5159C82.1375 17.4464 82.2144 17.3595 82.284 17.2553C82.3535 17.151 82.418 17.0393 82.4776 16.9202C82.4974 16.8854 82.5173 16.8631 82.5372 16.8531C82.562 16.8382 82.5893 16.8308 82.6191 16.8308C82.6439 16.8308 82.6613 16.8457 82.6712 16.8755C82.6861 16.9053 82.6935 16.9375 82.6935 16.9723C82.6935 17.0567 82.6811 17.151 82.6563 17.2553C82.6315 17.3595 82.5992 17.4712 82.5595 17.5904C82.5247 17.7046 82.49 17.8188 82.4552 17.933C82.4453 17.9677 82.423 17.9926 82.3882 18.0074C82.3584 18.0223 82.3262 18.0298 82.2914 18.0298C82.2269 18.0298 82.1052 18.0273 81.9265 18.0223C81.7527 18.0223 81.5467 18.0199 81.3084 18.0149C81.0701 18.0099 80.8243 18.005 80.5711 18C80.3179 18 80.0821 18 79.8636 18C79.7643 18 79.6551 18.0025 79.5359 18.0074C79.4168 18.0124 79.2951 18.0174 79.171 18.0223C79.0519 18.0323 78.9402 18.0372 78.8359 18.0372Z" fill="#3B3634"/>
<path d="M83.8232 18.0372C83.7735 18.0372 83.7338 18.0248 83.704 18C83.6792 17.9801 83.6668 17.9553 83.6668 17.9255C83.6668 17.8908 83.6817 17.861 83.7115 17.8362C83.7413 17.8064 83.7785 17.784 83.8232 17.7691C83.992 17.7245 84.1111 17.6723 84.1806 17.6127C84.2551 17.5532 84.2923 17.4464 84.2923 17.2925V13.8817C84.2923 13.7725 84.2799 13.6881 84.2551 13.6285C84.2303 13.5689 84.1831 13.5218 84.1136 13.487C84.0441 13.4523 83.9423 13.42 83.8083 13.3902C83.704 13.3654 83.6519 13.3132 83.6519 13.2338C83.6519 13.1991 83.6668 13.1717 83.6966 13.1519C83.7264 13.132 83.7611 13.1221 83.8008 13.1221C83.915 13.1221 84.0342 13.1246 84.1583 13.1295C84.2874 13.1345 84.4115 13.142 84.5307 13.1519C84.6548 13.1568 84.7665 13.1593 84.8658 13.1593C84.97 13.1593 85.0867 13.1568 85.2158 13.1519C85.3449 13.1469 85.4764 13.142 85.6105 13.137C85.7495 13.132 85.8736 13.1295 85.9829 13.1295C86.0275 13.1295 86.0598 13.1395 86.0797 13.1593C86.1045 13.1742 86.1169 13.1991 86.1169 13.2338C86.1169 13.2835 86.102 13.3182 86.0722 13.3381C86.0474 13.3579 86.0102 13.3753 85.9605 13.3902C85.757 13.4448 85.6179 13.5044 85.5435 13.5689C85.474 13.6285 85.4392 13.7328 85.4392 13.8817V17.2329C85.4392 17.372 85.469 17.4713 85.5286 17.5308C85.5931 17.5904 85.6974 17.6202 85.8414 17.6202H86.601C86.7102 17.6202 86.807 17.6028 86.8914 17.5681C86.9808 17.5283 87.0602 17.4787 87.1297 17.4191C87.2141 17.3397 87.2886 17.2503 87.3531 17.151C87.4177 17.0468 87.4748 16.94 87.5244 16.8308C87.5741 16.7315 87.6113 16.667 87.6361 16.6372C87.6659 16.6074 87.6957 16.5925 87.7255 16.5925C87.7652 16.5925 87.7925 16.6099 87.8074 16.6446C87.8223 16.6794 87.8298 16.7116 87.8298 16.7414C87.8298 16.7514 87.8248 16.7737 87.8149 16.8085C87.8049 16.8432 87.8 16.8705 87.8 16.8904C87.7652 17.0343 87.7329 17.161 87.7032 17.2702C87.6734 17.3744 87.6485 17.4762 87.6287 17.5755C87.6138 17.6698 87.5989 17.7766 87.584 17.8957C87.579 17.9305 87.5666 17.9628 87.5468 17.9926C87.5319 18.0223 87.5046 18.0372 87.4648 18.0372C87.3606 18.0372 87.2092 18.0348 87.0106 18.0298C86.812 18.0248 86.5886 18.0199 86.3403 18.0149C86.097 18.0149 85.8463 18.0124 85.5882 18.0074C85.335 18.0025 85.0991 18 84.8807 18C84.7764 18 84.6573 18.0025 84.5232 18.0074C84.3892 18.0124 84.2576 18.0174 84.1285 18.0223C84.0044 18.0323 83.9026 18.0372 83.8232 18.0372Z" fill="#3B3634"/>
<path d="M88.883 18.0372C88.8333 18.0372 88.7936 18.0248 88.7638 18C88.739 17.9801 88.7266 17.9553 88.7266 17.9255C88.7266 17.8908 88.7415 17.861 88.7713 17.8362C88.8011 17.8064 88.8383 17.784 88.883 17.7691C89.0518 17.7245 89.1709 17.6723 89.2405 17.6127C89.3149 17.5532 89.3522 17.4464 89.3522 17.2925V13.8817C89.3522 13.7725 89.3398 13.6881 89.3149 13.6285C89.2901 13.5689 89.2429 13.5218 89.1734 13.487C89.1039 13.4523 89.0021 13.42 88.8681 13.3902C88.7638 13.3654 88.7117 13.3132 88.7117 13.2338C88.7117 13.1991 88.7266 13.1717 88.7564 13.1519C88.7862 13.132 88.8209 13.1221 88.8606 13.1221C88.9748 13.1221 89.094 13.1246 89.2181 13.1295C89.3472 13.1345 89.4713 13.142 89.5905 13.1519C89.7146 13.1568 89.8263 13.1593 89.9256 13.1593C90.0299 13.1593 90.1465 13.1568 90.2756 13.1519C90.4047 13.1469 90.5363 13.142 90.6703 13.137C90.8093 13.132 90.9334 13.1295 91.0427 13.1295C91.0874 13.1295 91.1196 13.1395 91.1395 13.1593C91.1643 13.1742 91.1767 13.1991 91.1767 13.2338C91.1767 13.2835 91.1618 13.3182 91.132 13.3381C91.1072 13.3579 91.07 13.3753 91.0203 13.3902C90.8168 13.4448 90.6778 13.5044 90.6033 13.5689C90.5338 13.6285 90.499 13.7328 90.499 13.8817V17.2329C90.499 17.372 90.5288 17.4713 90.5884 17.5308C90.6529 17.5904 90.7572 17.6202 90.9012 17.6202H91.6608C91.77 17.6202 91.8668 17.6028 91.9512 17.5681C92.0406 17.5283 92.12 17.4787 92.1895 17.4191C92.2739 17.3397 92.3484 17.2503 92.4129 17.151C92.4775 17.0468 92.5346 16.94 92.5842 16.8308C92.6339 16.7315 92.6711 16.667 92.6959 16.6372C92.7257 16.6074 92.7555 16.5925 92.7853 16.5925C92.825 16.5925 92.8523 16.6099 92.8672 16.6446C92.8821 16.6794 92.8896 16.7116 92.8896 16.7414C92.8896 16.7514 92.8846 16.7737 92.8747 16.8085C92.8648 16.8432 92.8598 16.8705 92.8598 16.8904C92.825 17.0343 92.7928 17.161 92.763 17.2702C92.7332 17.3744 92.7084 17.4762 92.6885 17.5755C92.6736 17.6698 92.6587 17.7766 92.6438 17.8957C92.6388 17.9305 92.6264 17.9628 92.6066 17.9926C92.5917 18.0223 92.5644 18.0372 92.5247 18.0372C92.4204 18.0372 92.269 18.0348 92.0704 18.0298C91.8718 18.0248 91.6484 18.0199 91.4001 18.0149C91.1569 18.0149 90.9061 18.0124 90.648 18.0074C90.3948 18.0025 90.1589 18 89.9405 18C89.8362 18 89.7171 18.0025 89.583 18.0074C89.449 18.0124 89.3174 18.0174 89.1883 18.0223C89.0642 18.0323 88.9624 18.0372 88.883 18.0372Z" fill="#3B3634"/>
</svg>
