<svg width="166" height="235" viewBox="0 0 166 235" fill="none" xmlns="http://www.w3.org/2000/svg">
<g opacity="0.6">
<path d="M0 4.22485C0 1.89153 1.89153 0 4.22485 0H161.601C163.934 0 165.825 1.89153 165.825 4.22485V230.254C165.825 232.588 163.934 234.479 161.601 234.479H4.22486C1.89154 234.479 0 232.588 0 230.254V4.22485Z" fill="white"/>
<path d="M72 56C72 55.4477 72.4477 55 73 55H97C97.5523 55 98 55.4477 98 56C98 56.5523 97.5523 57 97 57H73C72.4477 57 72 56.5523 72 56Z" fill="#D9D9D9"/>
<path d="M72 143C72 142.448 72.4477 142 73 142H97C97.5523 142 98 142.448 98 143C98 143.552 97.5523 144 97 144H73C72.4477 144 72 143.552 72 143Z" fill="#D9D9D9"/>
<path d="M72 153C72 152.448 72.4477 152 73 152H97C97.5523 152 98 152.448 98 153C98 153.552 97.5523 154 97 154H73C72.4477 154 72 153.552 72 153Z" fill="#D9D9D9"/>
<path d="M72 61C72 60.4477 72.4477 60 73 60H145C145.552 60 146 60.4477 146 61C146 61.5523 145.552 62 145 62H73C72.4477 62 72 61.5523 72 61Z" fill="#D9D9D9"/>
<path d="M72 71C72 70.4477 72.4477 70 73 70H134C134.552 70 135 70.4477 135 71C135 71.5523 134.552 72 134 72H73C72.4477 72 72 71.5523 72 71Z" fill="#D9D9D9"/>
<path d="M72 79C72 78.4477 72.4477 78 73 78H134C134.552 78 135 78.4477 135 79C135 79.5523 134.552 80 134 80H73C72.4477 80 72 79.5523 72 79Z" fill="#D9D9D9"/>
<path d="M72 89C72 88.4477 72.4477 88 73 88H134C134.552 88 135 88.4477 135 89C135 89.5523 134.552 90 134 90H73C72.4477 90 72 89.5523 72 89Z" fill="#D9D9D9"/>
<path d="M72 99C72 98.4477 72.4477 98 73 98H134C134.552 98 135 98.4477 135 99C135 99.5523 134.552 100 134 100H73C72.4477 100 72 99.5523 72 99Z" fill="#D9D9D9"/>
<path d="M72 109C72 108.448 72.4477 108 73 108H134C134.552 108 135 108.448 135 109C135 109.552 134.552 110 134 110H73C72.4477 110 72 109.552 72 109Z" fill="#D9D9D9"/>
<path d="M72 119C72 118.448 72.4477 118 73 118H134C134.552 118 135 118.448 135 119C135 119.552 134.552 120 134 120H73C72.4477 120 72 119.552 72 119Z" fill="#D9D9D9"/>
<path d="M72 133C72 132.448 72.4477 132 73 132H134C134.552 132 135 132.448 135 133C135 133.552 134.552 134 134 134H73C72.4477 134 72 133.552 72 133Z" fill="#D9D9D9"/>
<path d="M72 84C72 83.4477 72.4477 83 73 83H151C151.552 83 152 83.4477 152 84C152 84.5523 151.552 85 151 85H73C72.4477 85 72 84.5523 72 84Z" fill="#D9D9D9"/>
<path d="M72 66C72 65.4477 72.4477 65 73 65H151C151.552 65 152 65.4477 152 66C152 66.5523 151.552 67 151 67H73C72.4477 67 72 66.5523 72 66Z" fill="#D9D9D9"/>
<path d="M72 104C72 103.448 72.4477 103 73 103H151C151.552 103 152 103.448 152 104C152 104.552 151.552 105 151 105H73C72.4477 105 72 104.552 72 104Z" fill="#D9D9D9"/>
<path d="M72 114C72 113.448 72.4477 113 73 113H151C151.552 113 152 113.448 152 114C152 114.552 151.552 115 151 115H73C72.4477 115 72 114.552 72 114Z" fill="#D9D9D9"/>
<path d="M72 94C72 93.4477 72.4477 93 73 93H151C151.552 93 152 93.4477 152 94C152 94.5523 151.552 95 151 95H73C72.4477 95 72 94.5523 72 94Z" fill="#D9D9D9"/>
<path d="M72 124C72 123.448 72.4477 123 73 123H151C151.552 123 152 123.448 152 124C152 124.552 151.552 125 151 125H73C72.4477 125 72 124.552 72 124Z" fill="#D9D9D9"/>
<path d="M72 138C72 137.448 72.4477 137 73 137H151C151.552 137 152 137.448 152 138C152 138.552 151.552 139 151 139H73C72.4477 139 72 138.552 72 138Z" fill="#D9D9D9"/>
<path d="M72 158C72 157.448 72.4477 157 73 157H96C96.5523 157 97 157.448 97 158C97 158.552 96.5523 159 96 159H73C72.4477 159 72 158.552 72 158Z" fill="#D9D9D9"/>
<path d="M72 163C72 162.448 72.4477 162 73 162H100C100.552 162 101 162.448 101 163C101 163.552 100.552 164 100 164H73C72.4477 164 72 163.552 72 163Z" fill="#D9D9D9"/>
<path d="M72 168C72 167.448 72.4477 167 73 167H96C96.5523 167 97 167.448 97 168C97 168.552 96.5523 169 96 169H73C72.4477 169 72 168.552 72 168Z" fill="#D9D9D9"/>
<path d="M14 56C14 55.4477 14.4477 55 15 55H42C42.5523 55 43 55.4477 43 56C43 56.5523 42.5523 57 42 57H15C14.4477 57 14 56.5523 14 56Z" fill="#D9D9D9"/>
<path d="M14 67C14 66.4477 14.4477 66 15 66H38C38.5523 66 39 66.4477 39 67C39 67.5523 38.5523 68 38 68H15C14.4477 68 14 67.5523 14 67Z" fill="#D9D9D9"/>
<path d="M14 72C14 71.4477 14.4477 71 15 71H42C42.5523 71 43 71.4477 43 72C43 72.5523 42.5523 73 42 73H15C14.4477 73 14 72.5523 14 72Z" fill="#D9D9D9"/>
<path d="M14 82C14 81.4477 14.4477 81 15 81H42C42.5523 81 43 81.4477 43 82C43 82.5523 42.5523 83 42 83H15C14.4477 83 14 82.5523 14 82Z" fill="#D9D9D9"/>
<path d="M14 77C14 76.4477 14.4477 76 15 76H38C38.5523 76 39 76.4477 39 77C39 77.5523 38.5523 78 38 78H15C14.4477 78 14 77.5523 14 77Z" fill="#D9D9D9"/>
<path d="M123 15C123 14.4477 123.448 14 124 14H147C147.552 14 148 14.4477 148 15C148 15.5523 147.552 16 147 16H124C123.448 16 123 15.5523 123 15Z" fill="#D9D9D9"/>
<path d="M123 20C123 19.4477 123.448 19 124 19H151C151.552 19 152 19.4477 152 20C152 20.5523 151.552 21 151 21H124C123.448 21 123 20.5523 123 20Z" fill="#D9D9D9"/>
<path d="M123 33C123 32.4477 123.448 32 124 32H151C151.552 32 152 32.4477 152 33C152 33.5523 151.552 34 151 34H124C123.448 34 123 33.5523 123 33Z" fill="#D9D9D9"/>
<path d="M123 28C123 27.4477 123.448 27 124 27H147C147.552 27 148 27.4477 148 28C148 28.5523 147.552 29 147 29H124C123.448 29 123 28.5523 123 28Z" fill="#D9D9D9"/>
<path d="M14 102C14 101.448 14.4477 101 15 101H38C38.5523 101 39 101.448 39 102C39 102.552 38.5523 103 38 103H15C14.4477 103 14 102.552 14 102Z" fill="#D9D9D9"/>
<path d="M62 45H63V221H62V45Z" fill="#D9D9D9"/>
<path d="M152 45V46L14 46V45L152 45Z" fill="#D9D9D9"/>
<path d="M57 92V93H14V92H57Z" fill="#D9D9D9"/>
<path d="M69.8639 26.7904C69.8639 26.8594 69.7777 26.8904 69.6053 26.8835L69.3777 26.8732H69.1916C69.0812 26.8732 69.0157 26.8939 68.995 26.9353C68.9743 26.9697 68.964 27.0835 68.964 27.2766V33.2344C68.964 33.5999 68.9606 33.8137 68.9537 33.8757C68.9468 33.9378 68.9261 33.9688 68.8916 33.9688C68.8502 33.9688 68.802 33.9309 68.7468 33.855L67.4228 31.9208C66.6574 30.7968 65.7265 29.3936 64.6301 27.711L64.6404 33.4827C64.6473 33.5723 64.699 33.6309 64.7956 33.6585C64.8921 33.6792 65.1231 33.693 65.4886 33.6999C65.5782 33.6999 65.6231 33.7275 65.6231 33.7826C65.6231 33.8516 65.5334 33.8861 65.3541 33.8861C65.2921 33.8861 65.0955 33.8757 64.7646 33.855C64.6542 33.8482 64.5473 33.8447 64.4439 33.8447C64.4508 33.8447 64.3887 33.8516 64.2577 33.8654C64.1336 33.8792 63.9405 33.8861 63.6785 33.8861H63.5751C63.4165 33.8861 63.3372 33.855 63.3372 33.793C63.3372 33.7309 63.4061 33.6999 63.544 33.6999C63.9509 33.693 64.1853 33.6689 64.2474 33.6275C64.3163 33.5792 64.3508 33.431 64.3508 33.1827V28.0834C64.3508 27.511 64.2336 27.1525 63.9991 27.0077C63.8888 26.9387 63.6923 26.9042 63.4096 26.9042C63.2303 26.9042 63.1406 26.8697 63.1406 26.8008C63.1406 26.7387 63.1923 26.7077 63.2958 26.7077C63.4337 26.7077 63.6095 26.7111 63.8233 26.718C64.0371 26.7249 64.1508 26.7284 64.1646 26.7284C64.1853 26.7284 64.2819 26.7249 64.4542 26.718C64.6818 26.718 64.9025 26.7146 65.1162 26.7077L68.6847 32.0139V27.4111C68.6847 27.1973 68.6813 27.0697 68.6744 27.0283C68.6675 26.9801 68.6399 26.9456 68.5916 26.9249C68.5434 26.8973 68.3779 26.8835 68.0952 26.8835C67.8469 26.8835 67.7228 26.8525 67.7228 26.7904C67.7228 26.7215 67.8055 26.687 67.971 26.687H68.3331C68.4227 26.687 68.5192 26.687 68.6227 26.687C68.733 26.6939 68.7985 26.6974 68.8192 26.6974C68.8261 26.6974 68.8882 26.6939 69.0054 26.687C69.1157 26.687 69.2191 26.687 69.3157 26.687H69.6363C69.788 26.687 69.8639 26.7215 69.8639 26.7904Z" fill="#3D4042"/>
<path d="M61.9666 30.3278C61.9666 31.3553 61.6562 32.2241 61.0356 32.9344C60.4219 33.6447 59.6668 33.9998 58.7704 33.9998C57.8188 33.9998 57.0189 33.6412 56.3707 32.9241C55.7225 32.2 55.3984 31.3105 55.3984 30.2554C55.3984 29.1797 55.7087 28.3005 56.3293 27.6178C56.9569 26.9283 57.7568 26.5835 58.729 26.5835C59.6462 26.5835 60.415 26.9421 61.0356 27.6592C61.6562 28.3764 61.9666 29.2659 61.9666 30.3278ZM60.8081 30.3796C60.8081 29.1176 60.5495 28.135 60.0323 27.4317C59.7082 26.9903 59.2566 26.7697 58.6773 26.7697C58.1257 26.7697 57.6981 26.9386 57.3947 27.2765C56.8362 27.8971 56.5569 28.9073 56.5569 30.3072C56.5569 31.4174 56.75 32.2793 57.1361 32.893C57.5292 33.5067 58.0774 33.8136 58.7808 33.8136C59.4358 33.8136 59.9289 33.524 60.2599 32.9447C60.6253 32.3034 60.8081 31.4484 60.8081 30.3796Z" fill="#3D4042"/>
<path d="M53.949 28.5281C53.949 28.6177 53.9077 28.6626 53.8249 28.6626C53.7422 28.6626 53.6836 28.5729 53.6491 28.3936C53.6353 28.2695 53.6215 28.1454 53.6077 28.0213C53.5594 27.773 53.4801 27.5627 53.3698 27.3903C53.225 27.1627 52.9871 27.0179 52.6561 26.9559C52.4423 26.9145 52.27 26.8973 52.1389 26.9042C51.8148 26.918 51.6183 26.9283 51.5494 26.9352V33.1723C51.5494 33.4206 51.6149 33.5757 51.7459 33.6378C51.8148 33.6723 52.0079 33.6929 52.3251 33.6998C52.4079 33.7067 52.4492 33.7378 52.4492 33.7929C52.4492 33.855 52.3941 33.886 52.2837 33.886C52.2286 33.886 52.1803 33.8826 52.1389 33.8757C51.7252 33.8619 51.4321 33.855 51.2597 33.855C51.0322 33.855 50.8184 33.8584 50.6184 33.8653C50.4185 33.8722 50.1633 33.8757 49.853 33.8757C49.6944 33.8757 49.6151 33.8481 49.6151 33.7929C49.6151 33.7309 49.7634 33.6964 50.0599 33.6895C50.2737 33.6895 50.4116 33.6447 50.4736 33.555C50.5081 33.4999 50.5253 33.3585 50.5253 33.1309V26.9352C49.8427 26.9421 49.4186 26.9766 49.2531 27.0386C48.8187 27.1972 48.5635 27.6213 48.4877 28.3109C48.467 28.5177 48.4187 28.6212 48.3429 28.6212C48.2601 28.6212 48.2188 28.5488 48.2188 28.404C48.2188 28.3281 48.2222 28.2523 48.2291 28.1764L48.2498 27.9385C48.2705 27.6213 48.3015 27.2041 48.3429 26.6869H48.8083L50.9184 26.718C51.1666 26.7249 51.5528 26.7214 52.0769 26.7076L53.7939 26.6766C53.8077 27.0628 53.8525 27.6351 53.9284 28.3936C53.9284 28.4143 53.9318 28.4419 53.9387 28.4764C53.9456 28.504 53.949 28.5212 53.949 28.5281Z" fill="#3D4042"/>
<path d="M47.5238 33.0585C47.5238 33.2378 47.5134 33.5343 47.4927 33.9481H47.379C47.3376 33.9481 47.2376 33.9412 47.079 33.9274C46.9204 33.9136 46.7411 33.9067 46.5411 33.9067L42.2382 33.8757C42.121 33.8757 42.0624 33.8446 42.0624 33.7826C42.0624 33.7343 42.1555 33.7033 42.3417 33.6895C42.6037 33.6757 42.7589 33.6481 42.8071 33.6067C42.8623 33.5585 42.8899 33.4275 42.8899 33.2137V27.4007C42.8899 27.1455 42.8623 26.9973 42.8071 26.9559C42.7589 26.9145 42.5761 26.8938 42.2589 26.8938C42.1279 26.8938 42.0624 26.8559 42.0624 26.78C42.0624 26.718 42.1038 26.687 42.1865 26.687H42.2796C42.5072 26.7076 42.9588 26.718 43.6346 26.718C43.6967 26.718 43.8174 26.7145 43.9966 26.7076C44.1759 26.6939 44.3242 26.687 44.4414 26.687H44.5552C44.6793 26.687 44.7414 26.7214 44.7414 26.7904C44.7414 26.8318 44.7207 26.8593 44.6793 26.8731C44.6448 26.88 44.5276 26.8869 44.3276 26.8938C44.1277 26.9007 44.007 26.9352 43.9656 26.9973C43.9311 27.0524 43.9139 27.2317 43.9139 27.5351V33.6378C44.1001 33.6447 44.3587 33.6481 44.6897 33.6481C45.4964 33.6481 46.0653 33.6067 46.3963 33.524C46.7273 33.4413 46.9514 33.2861 47.0687 33.0585C47.1859 32.831 47.2548 32.5241 47.2755 32.138C47.2824 32.0483 47.3238 32.0035 47.3996 32.0035C47.4893 32.0035 47.5307 32.0552 47.5238 32.1587L47.5134 32.4172C47.5134 32.431 47.5134 32.4621 47.5134 32.5103C47.5203 32.5586 47.5238 32.6069 47.5238 32.6551V33.0585Z" fill="#3D4042"/>
<path d="M40.684 33.793C40.684 33.8482 40.6427 33.8757 40.5599 33.8757H40.4565C40.4151 33.855 39.9462 33.8447 39.0498 33.8447C38.8774 33.8447 38.705 33.8516 38.5326 33.8654C38.4429 33.8723 38.305 33.8757 38.1188 33.8757C38.0292 33.8757 37.9844 33.8447 37.9844 33.7826C37.9844 33.7275 38.074 33.6964 38.2533 33.6896C38.5291 33.6827 38.6912 33.6516 38.7394 33.5965C38.7877 33.5344 38.8119 33.3344 38.8119 32.9965V27.5559C38.8119 27.218 38.7946 27.0283 38.7601 26.987C38.7188 26.918 38.5291 26.8766 38.1912 26.8629C38.0602 26.856 37.9947 26.8284 37.9947 26.7801C37.9947 26.718 38.0361 26.687 38.1188 26.687L39.5152 26.7077C39.6186 26.7077 39.8186 26.7042 40.1151 26.6974L40.5082 26.687C40.6185 26.687 40.6737 26.718 40.6737 26.7801C40.6737 26.8353 40.522 26.8697 40.2186 26.8835C40.0462 26.8904 39.9393 26.9215 39.8979 26.9766C39.8634 27.0318 39.8462 27.1766 39.8462 27.4111V32.9345C39.8462 33.3275 39.8634 33.5413 39.8979 33.5758C39.9738 33.6516 40.1979 33.6964 40.5702 33.7102C40.6461 33.7102 40.684 33.7378 40.684 33.793Z" fill="#3D4042"/>
<path d="M36.7904 33.7931C36.7904 33.862 36.718 33.8965 36.5732 33.8965H36.4594C36.3629 33.8965 36.187 33.8931 35.9319 33.8862C35.6768 33.8793 35.4802 33.8758 35.3423 33.8758C35.1354 33.8758 34.8941 33.8793 34.6183 33.8862C34.3355 33.8862 34.1494 33.8862 34.0597 33.8862H33.9873C33.8425 33.8862 33.7701 33.8551 33.7701 33.7931C33.7701 33.7241 33.8701 33.6896 34.0701 33.6896C34.4217 33.6896 34.6355 33.6517 34.7114 33.5759C34.7458 33.5414 34.7631 33.3104 34.7631 32.8829V27.5249C34.7631 27.5318 34.7252 27.6525 34.6493 27.8869C34.3735 28.7213 33.9735 29.9763 33.4495 31.652L32.9633 33.2966C32.8668 33.6207 32.7978 33.7827 32.7564 33.7827C32.7082 33.7827 32.6565 33.7 32.6013 33.5345C32.4013 32.907 31.8359 31.3417 30.905 28.8385L30.4912 27.7318C30.4981 27.8628 30.5016 28.0421 30.5016 28.2697V31.6313C30.5016 32.8932 30.5119 33.531 30.5326 33.5448C30.5809 33.6345 30.7464 33.6793 31.0291 33.6793C31.2566 33.6793 31.3704 33.7103 31.3704 33.7724C31.3704 33.8413 31.298 33.8758 31.1532 33.8758C31.0636 33.8758 30.9808 33.8724 30.905 33.8655C30.8084 33.8586 30.7222 33.8551 30.6464 33.8551L29.4569 33.8862C29.3327 33.8862 29.2707 33.8551 29.2707 33.7931C29.2707 33.7241 29.4672 33.6862 29.8603 33.6793C30.0258 33.6793 30.1223 33.6517 30.1499 33.5965C30.1775 33.5414 30.1913 33.3621 30.1913 33.0587V28.1042C30.1913 27.5318 30.1844 27.2215 30.1706 27.1732C30.143 27.0767 30.0844 27.0112 29.9947 26.9767C29.9051 26.9422 29.712 26.9147 29.4155 26.894C29.3052 26.8871 29.25 26.856 29.25 26.8009C29.25 26.725 29.35 26.6871 29.55 26.6871C29.5775 26.6871 29.6362 26.6905 29.7258 26.6974H30.2637C30.6705 26.6974 30.9567 26.694 31.1222 26.6871C31.1566 26.7767 31.3601 27.3181 31.7324 28.311C31.891 28.7248 32.3358 29.9315 33.0667 31.9312C33.1978 31.483 33.3322 31.0417 33.4701 30.6073L34.5666 27.1836C34.6286 26.9836 34.6838 26.8181 34.732 26.6871L36.2836 26.6768C36.5111 26.6768 36.6421 26.6871 36.6766 26.7078C36.7111 26.7285 36.7283 26.7595 36.7283 26.8009C36.7283 26.8698 36.6697 26.9043 36.5525 26.9043C36.3594 26.9043 36.2284 26.9112 36.1595 26.925C35.994 26.9526 35.8802 27.0077 35.8181 27.0905C35.7836 27.1388 35.7664 27.5422 35.7664 28.3007V33.1104C35.7664 33.3862 35.794 33.5483 35.8491 33.5965C35.9388 33.6586 36.1629 33.6896 36.5215 33.6896H36.5835C36.7214 33.6896 36.7904 33.7241 36.7904 33.7931Z" fill="#3D4042"/>
<path d="M28.7061 33.803C28.7061 33.8651 28.6544 33.8961 28.551 33.8961C28.482 33.8961 28.4199 33.8927 28.3648 33.8858L27.0511 33.8651L25.7375 33.8858C25.6893 33.8927 25.6375 33.8961 25.5824 33.8961C25.4445 33.8961 25.3755 33.8616 25.3755 33.7927C25.3755 33.7168 25.4686 33.6789 25.6548 33.6789C26.2616 33.672 26.565 33.61 26.565 33.4927C26.565 33.4858 26.5581 33.4582 26.5443 33.41L26.4616 33.1307L26.4099 32.9859C26.3478 32.7721 26.1961 32.2998 25.9547 31.5688H23.7412C23.3275 32.6721 23.1206 33.3065 23.1206 33.472C23.1206 33.5686 23.162 33.6272 23.2447 33.6479C23.2654 33.6548 23.4378 33.6686 23.7619 33.6893C23.9619 33.6961 24.0619 33.7306 24.0619 33.7927C24.0619 33.8616 23.9722 33.8961 23.7929 33.8961C23.4757 33.8961 23.1068 33.8823 22.6862 33.8547C22.5828 33.8479 22.4759 33.8444 22.3655 33.8444C22.2552 33.8444 22.1483 33.8513 22.0449 33.8651C21.9897 33.872 21.9449 33.8754 21.9104 33.8754C21.8139 33.8754 21.7656 33.8444 21.7656 33.7823C21.7656 33.7203 21.8725 33.6858 22.0863 33.6789C22.3069 33.672 22.4655 33.641 22.5621 33.5858C22.6586 33.5238 22.7345 33.41 22.7896 33.2445C23.6792 30.7069 24.4032 28.6692 24.9618 27.1315C24.9756 27.0487 25.0031 26.9556 25.0445 26.8522L25.0962 26.666C25.1169 26.5902 25.1445 26.5522 25.179 26.5522C25.1997 26.5522 25.2169 26.5729 25.2307 26.6143C25.3203 26.8832 25.5238 27.4452 25.841 28.3003C26.0892 28.9692 26.7064 30.6483 27.6924 33.3376C27.7476 33.4893 27.8166 33.5858 27.8993 33.6272C27.989 33.6686 28.1682 33.6927 28.4372 33.6996C28.6165 33.7065 28.7061 33.741 28.7061 33.803ZM25.8927 31.3309C25.7823 31.0206 25.5996 30.5069 25.3445 29.7898L24.848 28.3727C24.5584 29.1312 24.2101 30.1173 23.8033 31.3309H25.8927Z" fill="#3D4042"/>
<path d="M20.8947 33.7826C20.8947 33.8447 20.8292 33.8757 20.6982 33.8757L19.2708 33.8654C19.1742 33.8654 19.0329 33.8688 18.8467 33.8757C18.6605 33.8826 18.5226 33.8861 18.433 33.8861C18.295 33.8861 18.2261 33.8585 18.2261 33.8033C18.2261 33.7482 18.3881 33.7102 18.7122 33.6896C18.8846 33.6758 18.9846 33.6482 19.0122 33.6068C19.0398 33.5585 19.0536 33.3965 19.0536 33.1207V30.1004H15.9402V33.0276C15.9402 33.3379 15.9643 33.5206 16.0126 33.5758C16.0608 33.6309 16.2229 33.6689 16.4987 33.6896C16.678 33.7033 16.7677 33.7344 16.7677 33.7826C16.7677 33.8447 16.6987 33.8757 16.5608 33.8757H16.4677C16.3022 33.8757 16.1264 33.8723 15.9402 33.8654C15.7609 33.8585 15.654 33.855 15.6195 33.855C15.523 33.855 15.3782 33.8585 15.1851 33.8654C14.992 33.8723 14.7024 33.8757 14.3162 33.8757C14.1783 33.8757 14.1094 33.8482 14.1094 33.793C14.1094 33.7378 14.1783 33.7033 14.3162 33.6896C14.4059 33.6827 14.499 33.6758 14.5955 33.6689C14.7472 33.6551 14.8438 33.6206 14.8851 33.5654C14.9058 33.531 14.9162 33.3379 14.9162 32.9862V27.5248C14.9162 27.2145 14.8989 27.0318 14.8644 26.9766C14.8369 26.9215 14.73 26.8904 14.5438 26.8835C14.33 26.8697 14.2025 26.8594 14.1611 26.8525C14.1266 26.8456 14.1094 26.818 14.1094 26.7698C14.1094 26.7146 14.1542 26.687 14.2438 26.687C14.2714 26.687 14.33 26.6905 14.4197 26.6974C14.5921 26.7111 14.9989 26.718 15.6402 26.718C15.9919 26.718 16.2367 26.7146 16.3746 26.7077C16.4229 26.7008 16.4849 26.6974 16.5608 26.6974C16.6849 26.6974 16.747 26.7318 16.747 26.8008C16.747 26.8628 16.6332 26.8939 16.4056 26.8939C16.185 26.8939 16.0505 26.9215 16.0022 26.9766C15.9609 27.0249 15.9402 27.1869 15.9402 27.4628V29.8418H19.0536V27.6179C19.0536 27.2525 19.026 27.0387 18.9708 26.9766C18.9156 26.9077 18.7226 26.8766 18.3916 26.8835C18.2881 26.8835 18.2364 26.8525 18.2364 26.7904C18.2364 26.7284 18.295 26.6974 18.4123 26.6974H18.464C18.5605 26.6974 18.7295 26.6974 18.9708 26.6974C19.2191 26.7042 19.4052 26.7077 19.5294 26.7077C19.95 26.7077 20.2327 26.7042 20.3775 26.6974C20.5292 26.6905 20.6258 26.687 20.6671 26.687C20.812 26.687 20.8844 26.718 20.8844 26.7801C20.8844 26.8422 20.7327 26.8766 20.4292 26.8835C20.3396 26.8835 20.2741 26.8904 20.2327 26.9042C20.1638 26.9249 20.1189 26.9628 20.0983 27.018C20.0845 27.0732 20.0776 27.2352 20.0776 27.5041V33.0069C20.0776 33.3379 20.0948 33.531 20.1293 33.5861C20.1982 33.662 20.3982 33.6999 20.7292 33.6999C20.8395 33.6861 20.8947 33.7137 20.8947 33.7826Z" fill="#3D4042"/>
<path d="M57.7114 19.3322C57.7114 19.9252 57.4839 20.432 57.0288 20.8527C56.5806 21.2664 56.0393 21.4733 55.4049 21.4733C55.0325 21.4733 54.5877 21.3595 54.0705 21.1319C53.9326 21.0699 53.8292 21.0389 53.7602 21.0389C53.6775 21.0389 53.6258 21.1388 53.6051 21.3388C53.5982 21.4422 53.5534 21.494 53.4706 21.494C53.4017 21.494 53.3672 21.4526 53.3672 21.3698C53.3672 21.3147 53.3706 21.2733 53.3775 21.2457C53.4327 20.8251 53.4603 20.4355 53.4603 20.0769C53.4603 20.008 53.4534 19.8149 53.4396 19.4977C53.4327 19.4563 53.4292 19.4011 53.4292 19.3322C53.4292 19.2287 53.4706 19.177 53.5534 19.177C53.6223 19.177 53.6706 19.2598 53.6982 19.4253C53.8775 20.6527 54.4601 21.2664 55.4462 21.2664C55.8669 21.2664 56.191 21.1492 56.4185 20.9147C56.653 20.6734 56.7702 20.3355 56.7702 19.9011C56.7702 19.5149 56.6564 19.1874 56.4289 18.9184C56.2082 18.6426 55.8255 18.3702 55.2807 18.1013C54.6256 17.7772 54.1705 17.4635 53.9154 17.16C53.6603 16.8566 53.5327 16.4808 53.5327 16.0326C53.5327 15.4603 53.7154 14.9879 54.0809 14.6155C54.4533 14.2432 54.9222 14.057 55.4876 14.057C55.7221 14.057 56.0461 14.1363 56.4599 14.2949C56.6047 14.3501 56.7116 14.3776 56.7805 14.3776C56.8564 14.3776 56.9047 14.3639 56.9253 14.3363C56.9529 14.3087 56.9771 14.2363 56.9978 14.1191C57.0115 14.0501 57.0495 14.0156 57.1115 14.0156C57.1805 14.0156 57.215 14.057 57.215 14.1397C57.215 14.1949 57.2115 14.2363 57.2046 14.2639C57.1839 14.4294 57.1736 14.6293 57.1736 14.8638C57.1736 15.1948 57.1908 15.4568 57.2253 15.6499L57.2356 15.8154C57.2425 15.8912 57.2115 15.9292 57.1426 15.9292C57.0667 15.9292 57.015 15.8499 56.9874 15.6913C56.9116 15.2844 56.7323 14.9465 56.4495 14.6776C56.1668 14.4018 55.8496 14.2639 55.4979 14.2639C55.1532 14.2639 54.8773 14.3742 54.6705 14.5949C54.4705 14.8155 54.3705 15.1155 54.3705 15.4947C54.3705 15.9361 54.5188 16.2912 54.8153 16.5601C54.9808 16.7118 55.3393 16.9256 55.891 17.2014C56.5392 17.5255 57.0046 17.8565 57.2874 18.1944C57.5701 18.5254 57.7114 18.9046 57.7114 19.3322Z" fill="#3D4042"/>
<path d="M52.4952 21.2767C52.4952 21.3388 52.4434 21.3698 52.34 21.3698C52.2711 21.3698 52.209 21.3664 52.1538 21.3595L50.8402 21.3388L49.5266 21.3595C49.4783 21.3664 49.4266 21.3698 49.3714 21.3698C49.2335 21.3698 49.1646 21.3354 49.1646 21.2664C49.1646 21.1905 49.2577 21.1526 49.4438 21.1526C50.0507 21.1457 50.3541 21.0837 50.3541 20.9664C50.3541 20.9595 50.3472 20.932 50.3334 20.8837L50.2506 20.6044L50.1989 20.4596C50.1369 20.2458 49.9851 19.7735 49.7438 19.0425H47.5303C47.1166 20.1459 46.9097 20.7803 46.9097 20.9457C46.9097 21.0423 46.9511 21.1009 47.0338 21.1216C47.0545 21.1285 47.2269 21.1423 47.551 21.163C47.751 21.1699 47.8509 21.2043 47.8509 21.2664C47.8509 21.3354 47.7613 21.3698 47.582 21.3698C47.2648 21.3698 46.8959 21.356 46.4753 21.3285C46.3718 21.3216 46.2649 21.3181 46.1546 21.3181C46.0443 21.3181 45.9374 21.325 45.834 21.3388C45.7788 21.3457 45.734 21.3491 45.6995 21.3491C45.603 21.3491 45.5547 21.3181 45.5547 21.2561C45.5547 21.194 45.6616 21.1595 45.8753 21.1526C46.096 21.1457 46.2546 21.1147 46.3511 21.0595C46.4477 20.9975 46.5235 20.8837 46.5787 20.7182C47.4682 18.1806 48.1923 16.1429 48.7508 14.6052C48.7646 14.5224 48.7922 14.4294 48.8336 14.3259L48.8853 14.1397C48.906 14.0639 48.9336 14.026 48.968 14.026C48.9887 14.026 49.006 14.0466 49.0198 14.088C49.1094 14.3569 49.3128 14.9189 49.63 15.774C49.8783 16.4429 50.4954 18.122 51.4815 20.8113C51.5367 20.963 51.6056 21.0595 51.6884 21.1009C51.778 21.1423 51.9573 21.1664 52.2262 21.1733C52.4055 21.1802 52.4952 21.2147 52.4952 21.2767ZM49.6817 18.8046C49.5714 18.4943 49.3887 17.9806 49.1335 17.2635L48.637 15.8464C48.3474 16.6049 47.9992 17.591 47.5924 18.8046H49.6817Z" fill="#3D4042"/>
<path d="M44.8998 21.2662C44.8998 21.3352 44.8274 21.3697 44.6826 21.3697H44.5688C44.4722 21.3697 44.2964 21.3662 44.0413 21.3593C43.7861 21.3524 43.5896 21.349 43.4517 21.349C43.2448 21.349 43.0035 21.3524 42.7276 21.3593C42.4449 21.3593 42.2587 21.3593 42.1691 21.3593H42.0967C41.9519 21.3593 41.8795 21.3283 41.8795 21.2662C41.8795 21.1973 41.9795 21.1628 42.1794 21.1628C42.5311 21.1628 42.7449 21.1249 42.8207 21.049C42.8552 21.0145 42.8725 20.7835 42.8725 20.356V14.9981C42.8725 15.005 42.8345 15.1256 42.7587 15.3601C42.4828 16.1945 42.0829 17.4495 41.5588 19.1251L41.0727 20.7697C40.9761 21.0938 40.9072 21.2559 40.8658 21.2559C40.8175 21.2559 40.7658 21.1731 40.7107 21.0076C40.5107 20.3801 39.9452 18.8148 39.0143 16.3117L38.6006 15.2049C38.6075 15.336 38.6109 15.5152 38.6109 15.7428V19.1044C38.6109 20.3663 38.6213 21.0042 38.642 21.018C38.6902 21.1076 38.8557 21.1524 39.1385 21.1524C39.366 21.1524 39.4798 21.1835 39.4798 21.2455C39.4798 21.3145 39.4074 21.349 39.2626 21.349C39.1729 21.349 39.0902 21.3455 39.0143 21.3386C38.9178 21.3317 38.8316 21.3283 38.7557 21.3283L37.5662 21.3593C37.4421 21.3593 37.3801 21.3283 37.3801 21.2662C37.3801 21.1973 37.5766 21.1593 37.9696 21.1524C38.1351 21.1524 38.2317 21.1249 38.2593 21.0697C38.2868 21.0145 38.3006 20.8352 38.3006 20.5318V15.5773C38.3006 15.005 38.2937 14.6947 38.2799 14.6464C38.2524 14.5499 38.1938 14.4843 38.1041 14.4499C38.0145 14.4154 37.8214 14.3878 37.5249 14.3671C37.4145 14.3602 37.3594 14.3292 37.3594 14.274C37.3594 14.1982 37.4594 14.1602 37.6593 14.1602C37.6869 14.1602 37.7455 14.1637 37.8352 14.1706H38.373C38.7799 14.1706 39.0661 14.1671 39.2315 14.1602C39.266 14.2499 39.4694 14.7912 39.8418 15.7842C40.0004 16.1979 40.4452 17.4047 41.1761 19.4044C41.3071 18.9562 41.4416 18.5149 41.5795 18.0804L42.6759 14.6567C42.738 14.4568 42.7932 14.2913 42.8414 14.1602L44.3929 14.1499C44.6205 14.1499 44.7515 14.1602 44.786 14.1809C44.8205 14.2016 44.8377 14.2326 44.8377 14.274C44.8377 14.343 44.7791 14.3775 44.6619 14.3775C44.4688 14.3775 44.3378 14.3844 44.2688 14.3981C44.1033 14.4257 43.9896 14.4809 43.9275 14.5636C43.893 14.6119 43.8758 15.0153 43.8758 15.7738V20.5836C43.8758 20.8594 43.9034 21.0214 43.9585 21.0697C44.0482 21.1318 44.2723 21.1628 44.6308 21.1628H44.6929C44.8308 21.1628 44.8998 21.1973 44.8998 21.2662Z" fill="#3D4042"/>
<path d="M35.9197 17.8015C35.9197 18.8289 35.6094 19.6978 34.9888 20.408C34.375 21.1183 33.62 21.4734 32.7235 21.4734C31.7719 21.4734 30.972 21.1148 30.3238 20.3977C29.6757 19.6736 29.3516 18.7841 29.3516 17.7291C29.3516 16.6533 29.6619 15.7741 30.2825 15.0915C30.91 14.4019 31.7099 14.0571 32.6822 14.0571C33.5993 14.0571 34.3682 14.4157 34.9888 15.1329C35.6094 15.85 35.9197 16.7395 35.9197 17.8015ZM34.7612 17.8532C34.7612 16.5913 34.5026 15.6087 33.9854 14.9053C33.6613 14.464 33.2097 14.2433 32.6304 14.2433C32.0788 14.2433 31.6513 14.4123 31.3479 14.7501C30.7893 15.3708 30.51 16.381 30.51 17.7808C30.51 18.891 30.7031 19.7529 31.0893 20.3667C31.4823 20.9804 32.0305 21.2872 32.7339 21.2872C33.389 21.2872 33.882 20.9976 34.213 20.4184C34.5785 19.7771 34.7612 18.922 34.7612 17.8532Z" fill="#3D4042"/>
<path d="M27.7931 21.2561C27.7931 21.3181 27.7276 21.3492 27.5966 21.3492L26.1692 21.3388C26.0727 21.3388 25.9313 21.3423 25.7451 21.3492C25.5589 21.3561 25.421 21.3595 25.3314 21.3595C25.1935 21.3595 25.1245 21.3319 25.1245 21.2768C25.1245 21.2216 25.2866 21.1837 25.6107 21.163C25.7831 21.1492 25.883 21.1216 25.9106 21.0802C25.9382 21.032 25.952 20.8699 25.952 20.5941V17.5738H22.8386V20.501C22.8386 20.8113 22.8627 20.994 22.911 21.0492C22.9593 21.1044 23.1213 21.1423 23.3972 21.163C23.5764 21.1768 23.6661 21.2078 23.6661 21.2561C23.6661 21.3181 23.5971 21.3492 23.4592 21.3492H23.3661C23.2006 21.3492 23.0248 21.3457 22.8386 21.3388C22.6593 21.3319 22.5524 21.3285 22.518 21.3285C22.4214 21.3285 22.2766 21.3319 22.0835 21.3388C21.8905 21.3457 21.6008 21.3492 21.2147 21.3492C21.0768 21.3492 21.0078 21.3216 21.0078 21.2664C21.0078 21.2112 21.0768 21.1768 21.2147 21.163C21.3043 21.1561 21.3974 21.1492 21.494 21.1423C21.6457 21.1285 21.7422 21.094 21.7836 21.0389C21.8043 21.0044 21.8146 20.8113 21.8146 20.4596V14.9983C21.8146 14.688 21.7974 14.5052 21.7629 14.4501C21.7353 14.3949 21.6284 14.3639 21.4422 14.357C21.2285 14.3432 21.1009 14.3328 21.0595 14.3259C21.0251 14.319 21.0078 14.2915 21.0078 14.2432C21.0078 14.188 21.0526 14.1604 21.1423 14.1604C21.1699 14.1604 21.2285 14.1639 21.3181 14.1708C21.4905 14.1846 21.8974 14.1915 22.5386 14.1915C22.8903 14.1915 23.1351 14.188 23.273 14.1811C23.3213 14.1742 23.3834 14.1708 23.4592 14.1708C23.5833 14.1708 23.6454 14.2053 23.6454 14.2742C23.6454 14.3363 23.5316 14.3673 23.3041 14.3673C23.0834 14.3673 22.9489 14.3949 22.9007 14.4501C22.8593 14.4983 22.8386 14.6604 22.8386 14.9362V17.3152H25.952V15.0914C25.952 14.7259 25.9244 14.5121 25.8693 14.4501C25.8141 14.3811 25.621 14.3501 25.29 14.357C25.1866 14.357 25.1349 14.3259 25.1349 14.2639C25.1349 14.2018 25.1935 14.1708 25.3107 14.1708H25.3624C25.459 14.1708 25.6279 14.1708 25.8693 14.1708C26.1175 14.1777 26.3037 14.1811 26.4278 14.1811C26.8484 14.1811 27.1312 14.1777 27.276 14.1708C27.4277 14.1639 27.5242 14.1604 27.5656 14.1604C27.7104 14.1604 27.7828 14.1915 27.7828 14.2535C27.7828 14.3156 27.6311 14.3501 27.3277 14.357C27.238 14.357 27.1725 14.3639 27.1312 14.3777C27.0622 14.3983 27.0174 14.4363 26.9967 14.4914C26.9829 14.5466 26.976 14.7086 26.976 14.9776V20.4803C26.976 20.8113 26.9932 21.0044 27.0277 21.0595C27.0967 21.1354 27.2967 21.1733 27.6276 21.1733C27.738 21.1595 27.7931 21.1871 27.7931 21.2561Z" fill="#3D4042"/>
<path d="M19.7303 16.0014C19.7303 16.091 19.6889 16.1359 19.6062 16.1359C19.5234 16.1359 19.4648 16.0462 19.4303 15.8669C19.4165 15.7428 19.4027 15.6187 19.389 15.4946C19.3407 15.2463 19.2614 15.036 19.1511 14.8636C19.0062 14.6361 18.7683 14.4912 18.4374 14.4292C18.2236 14.3878 18.0512 14.3706 17.9202 14.3775C17.5961 14.3913 17.3996 14.4016 17.3306 14.4085V20.6456C17.3306 20.8939 17.3961 21.049 17.5271 21.1111C17.5961 21.1456 17.7892 21.1662 18.1064 21.1731C18.1891 21.18 18.2305 21.2111 18.2305 21.2662C18.2305 21.3283 18.1753 21.3593 18.065 21.3593C18.0098 21.3593 17.9616 21.3559 17.9202 21.349C17.5064 21.3352 17.2134 21.3283 17.041 21.3283C16.8134 21.3283 16.5997 21.3317 16.3997 21.3386C16.1997 21.3455 15.9446 21.349 15.6343 21.349C15.4757 21.349 15.3964 21.3214 15.3964 21.2662C15.3964 21.2042 15.5446 21.1697 15.8411 21.1628C16.0549 21.1628 16.1928 21.118 16.2549 21.0283C16.2894 20.9732 16.3066 20.8318 16.3066 20.6043V14.4085C15.6239 14.4154 15.1998 14.4499 15.0343 14.5119C14.5999 14.6705 14.3448 15.0946 14.2689 15.7842C14.2482 15.9911 14.2 16.0945 14.1241 16.0945C14.0414 16.0945 14 16.0221 14 15.8773C14 15.8014 14.0034 15.7256 14.0103 15.6497L14.031 15.4118C14.0517 15.0946 14.0827 14.6774 14.1241 14.1603H14.5896L16.6996 14.1913C16.9479 14.1982 17.3341 14.1947 17.8581 14.1809L19.5751 14.1499C19.5889 14.5361 19.6338 15.1084 19.7096 15.8669C19.7096 15.8876 19.7131 15.9152 19.7199 15.9497C19.7268 15.9773 19.7303 15.9945 19.7303 16.0014Z" fill="#3D4042"/>
</g>
</svg>
