<svg xmlns="http://www.w3.org/2000/svg" width="20" height="20" viewBox="0 0 20 20">
    <g fill="none" fill-rule="evenodd">
        <g fill="#FFF">
            <g>
                <g>
                    <path d="M17.594 9.408L14.86 7.222v2.084h-4.167V5.139h2.084l-2.186-2.733c-.262-.327-.739-.38-1.065-.118-.044.035-.084.074-.119.118L7.222 5.14h2.084v4.167H5.139V7.222L2.406 9.408c-.327.262-.38.739-.118 1.065.035.044.074.084.118.119l2.733 2.186v-2.084h4.167v4.167H7.222l2.186 2.733c.262.327.739.38 1.065.118.044-.035.084-.074.119-.118l2.186-2.733h-2.084v-4.167h4.167v2.084l2.733-2.186c.327-.262.38-.739.118-1.065-.035-.044-.074-.084-.118-.119z" transform="translate(-1005.000000, -661.000000) translate(1005.000000, 661.000000) translate(0.000000, -0.000000)"/>
                </g>
            </g>
        </g>
    </g>
</svg>
