<svg xmlns="http://www.w3.org/2000/svg" width="24" height="24" viewBox="0 0 24 24">
    <g fill="none" fill-rule="evenodd">
        <g fill="#6D7275">
            <g>
                <g>
                    <g>
                        <path d="M15.5 1h-11c-1.1 0-2 .9-2 2v13c0 .55.45 1 1 1s1-.45 1-1V4c0-.55.45-1 1-1h10c.55 0 1-.45 1-1s-.45-1-1-1zm4 4h-11c-1.1 0-2 .9-2 2v14c0 1.1.9 2 2 2h11c1.1 0 2-.9 2-2V7c0-1.1-.9-2-2-2zm-1 16h-9c-.55 0-1-.45-1-1V8c0-.55.45-1 1-1h9c.55 0 1 .45 1 1v12c0 .55-.45 1-1 1z" transform="translate(-977 -646) translate(142 302) translate(811 292) translate(24 52)"/>
                    </g>
                </g>
            </g>
        </g>
    </g>
</svg>
