<svg width="20" height="20" viewBox="0 0 20 20" fill="none" xmlns="http://www.w3.org/2000/svg">
<path fill-rule="evenodd" clip-rule="evenodd" d="M9.98253 18.3335C9.98836 18.3336 9.99419 18.3337 10 18.3337C10.0058 18.3337 10.0117 18.3336 10.0175 18.3335C14.6118 18.3241 18.3334 14.5967 18.3334 10.0002C18.3334 5.40364 14.6118 1.67631 10.0175 1.66688C10.0117 1.66675 10.0058 1.66668 10 1.66669C9.9942 1.66668 9.98837 1.66675 9.98255 1.66688C5.38821 1.67631 1.66669 5.40364 1.66669 10.0002C1.66669 14.5967 5.3882 18.3241 9.98253 18.3335ZM12.9354 16.1559C15.0151 15.1624 16.5126 13.146 16.7766 10.7578H14.8667C14.7373 12.858 14.0674 14.7253 12.9354 16.1559ZM16.7766 9.24262C16.5126 6.85441 15.0151 4.83796 12.9353 3.84446C14.0674 5.27512 14.7373 7.14236 14.8667 9.24262H16.7766ZM7.06469 16.1559C5.93262 14.7253 5.26276 12.858 5.13333 10.7578H3.22345C3.48745 13.146 4.98492 15.1624 7.06469 16.1559ZM3.22345 9.24262H5.13333C5.26276 7.14236 5.93263 5.27512 7.06469 3.84446C4.98493 4.83796 3.48745 6.85441 3.22345 9.24262ZM10.7576 3.79211C12.266 4.99116 13.185 6.92054 13.3484 9.24262H10.7576V3.79211ZM13.3484 10.7578H10.7576V16.2083C12.266 15.0092 13.185 13.0798 13.3484 10.7578ZM9.24244 16.2083C7.73404 15.0092 6.81507 13.0799 6.65166 10.7578H9.24244V16.2083ZM6.65166 9.24262H9.24244V3.79211C7.73404 4.99116 6.81507 6.92054 6.65166 9.24262Z" fill="#969B9E"/>
</svg>
