<svg width="20" height="20" viewBox="0 0 20 20" fill="none" xmlns="http://www.w3.org/2000/svg">
<path fill-rule="evenodd" clip-rule="evenodd" d="M6.66665 11.6667H7.49998C7.95831 11.6667 8.33331 11.2917 8.33331 10.8333V9.99999C8.33331 9.54166 7.95831 9.16666 7.49998 9.16666H5.83331V13.3333H6.66665V11.6667ZM11.6666 9.99999V12.5C11.6666 12.9583 11.2916 13.3333 10.8333 13.3333H9.16665V9.16666H10.8333C11.2916 9.16666 11.6666 9.54166 11.6666 9.99999ZM14.1666 11.6667H13.3333V13.3333H12.5V9.16666H14.1666V9.99999H13.3333V10.8333H14.1666V11.6667ZM6.66664 10H7.49997V10.8333H6.66664V10ZM9.99997 10H10.8333V12.5H9.99997V10Z" fill="#969B9E"/>
<path fill-rule="evenodd" clip-rule="evenodd" d="M5.53032 1.81818C4.40064 1.81818 3.48486 2.73396 3.48486 3.86363V16.1364C3.48486 17.266 4.40064 18.1818 5.53032 18.1818H14.4697C15.5994 18.1818 16.5152 17.266 16.5152 16.1364V6.5909V6.31854L16.3275 6.12114L12.4386 2.03023L12.237 1.81818H11.9445H5.53032ZM4.8485 3.86363C4.8485 3.48707 5.15376 3.18181 5.53032 3.18181H11.2626V6.42045C11.2626 6.89115 11.6442 7.27272 12.1149 7.27272H15.1515V16.1364C15.1515 16.5129 14.8463 16.8182 14.4697 16.8182H5.53032C5.15376 16.8182 4.8485 16.5129 4.8485 16.1364V3.86363Z" fill="#969B9E"/>
</svg>
