<svg width="33" height="22" viewBox="0 0 33 22" xmlns="http://www.w3.org/2000/svg">
    <title>
        Path
    </title>
    <path d="M10.458 21.03C4.683 21.03 0 16.29 0 10.508 0 4.723 4.683 0 10.458 0c2.71 0 5.18 1.028 7.033 2.717-2.184 2.072-2.11 2.186-2.975 3.05-1.07-.897-2.244-1.54-4.055-1.54-3.435 0-6.11 2.79-6.11 6.223 0 3.435 2.675 6.306 6.11 6.306 3.385 0 4.764-1.63 5.653-4.08h-5.53V8.6h9.92c.692 4.895-1.413 12.433-10.044 12.433zm22.332-9.32h-3.264v4.08H27.08v-4.08H23V9.264h4.08V6h2.446v3.263h3.263" fill="#FFF" fill-rule="evenodd"/>
</svg>