<?xml version="1.0" encoding="UTF-8"?>
<svg width="245px" height="47px" viewBox="0 0 245 47" version="1.1" xmlns="http://www.w3.org/2000/svg" xmlns:xlink="http://www.w3.org/1999/xlink">
    <!-- Generator: Sketch 60 (88103) - https://sketch.com -->
    <title>LOGO RI Copy</title>
    <desc>Created with Sketch.</desc>
    <g id="LOGO-RI-Copy" stroke="none" stroke-width="1" fill="none" fill-rule="evenodd">
        <g id="Logo-RI-01">
            <polygon id="Fill-1" fill="#FFFFFF" points="3.14915961 0 0.717486443 46.053 35.1214596 42.131 31.8663034 3.533"></polygon>
            <g id="Group-3-Copy-3" transform="translate(10.122551, 9.000000)" fill-rule="nonzero">
                <g id="Group-3-Copy-2">
                    <g id="Naming-logo-Copy" transform="translate(0.215111, 0.656329)">
                        <path d="M10.0463086,1.59757813 C12.5860609,1.59757813 14.5778932,2.17874256 16.0218652,3.34108887 C17.4658373,4.50343517 18.1878125,6.10867791 18.1878125,8.15686523 C18.1878125,9.28336826 17.8857094,10.261363 17.2814941,11.0908789 C16.6772789,11.9203948 15.7914511,12.5911661 14.6239844,13.1032129 C15.9450652,13.4923685 16.8948978,14.140098 17.4735107,15.0464209 C18.0521237,15.9527438 18.3414258,17.0766697 18.3414258,18.4182324 L18.3414258,19.5549707 C18.3414258,20.0465357 18.4387132,20.4280048 18.633291,20.6993896 C18.8278688,20.9707745 19.1504535,21.1320668 19.6010547,21.1832715 L20.1540625,21.2600781 L20.1540625,23.9636719 L17.834502,23.9636719 C16.370048,23.9636719 15.3408493,23.5694017 14.746875,22.7808496 C14.1529007,21.9922975 13.855918,20.9733396 13.855918,19.7239453 L13.855918,18.4489551 C13.855918,17.3634158 13.5666158,16.5108706 12.9880029,15.8912939 C12.40939,15.2717173 11.5926876,14.9465724 10.5378711,14.9158496 L6.86651367,14.9158496 L6.86651367,20.8145996 L9.26288086,21.2754395 L9.26288086,23.9636719 L1.42108547e-14,23.9636719 L1.42108547e-14,21.2754395 L2.38100586,20.8145996 L2.38100586,4.76201172 L1.42108547e-14,4.30117188 L1.42108547e-14,1.59757813 L10.0463086,1.59757813 Z M6.86651367,11.4595508 L9.96950195,11.4595508 C11.2188962,11.4595508 12.1559279,11.1932904 12.780625,10.6607617 C13.4053221,10.128233 13.717666,9.36017429 13.717666,8.3565625 C13.717666,7.35295071 13.4078823,6.55160944 12.7883057,5.95251465 C12.168729,5.35341986 11.2547391,5.05387695 10.0463086,5.05387695 L6.86651367,5.05387695 L6.86651367,11.4595508 Z M29.0934472,24.2862598 C26.6970681,24.2862598 24.7820416,23.518201 23.3483105,21.9820605 C21.9145794,20.4459201 21.1977246,18.4950509 21.1977246,16.1293945 L21.1977246,15.5149414 C21.1977246,13.0468757 21.8761765,11.0140803 23.2331006,9.41649414 C24.5900247,7.81890803 26.4103238,7.02524734 28.6940527,7.03539044 C30.9368178,7.03539044 32.6777509,7.71137996 33.9169043,9.06318359 C35.1560576,10.4149872 35.775625,12.242967 35.775625,14.5471777 L35.775625,16.9896289 L25.852207,16.9896289 L25.8214844,17.0817969 C25.9034118,18.1775771 26.2695198,19.078766 26.9198193,19.7853906 C27.5701188,20.4920153 28.4533863,20.8453223 29.5696484,20.8453223 C30.5630193,20.8453223 31.3874023,20.7454746 32.0428222,20.5457764 C32.6982422,20.3460781 33.415097,20.031174 34.1934082,19.6010547 L35.4069531,22.3660938 C34.7208103,22.9088634 33.8324224,23.3645782 32.7417627,23.733252 C31.6511029,24.1019257 30.4350099,24.2862598 29.0934472,24.2862598 Z M28.6940527,10.4917871 C27.8645368,10.4917871 27.2091267,10.8092514 26.7278027,11.4441895 C26.2464787,12.0791275 25.949496,12.9137513 25.8368457,13.9480859 L25.8829297,14.0248926 L31.3822851,14.0248926 L31.3822851,13.625498 C31.3822851,12.6730909 31.1595481,11.9127128 30.7140674,11.3443408 C30.2685866,10.7759688 29.5952551,10.4917871 28.6940527,10.4917871 Z M50.859541,13.0571289 L47.8487207,13.0571289 L47.3725195,10.9833496 C47.0652914,10.7375671 46.6787018,10.5327515 46.2127392,10.3688965 C45.7467766,10.2050415 45.2321772,10.1231152 44.6689257,10.1231152 C43.8803736,10.1231152 43.2556859,10.2997687 42.7948437,10.6530811 C42.3340016,11.0063934 42.1035839,11.4493072 42.1035839,11.9818359 C42.1035839,12.4836418 42.3237608,12.9009537 42.764121,13.2337842 C43.2044813,13.5666146 44.0851887,13.8610371 45.4062695,14.1170605 C47.4646977,14.526698 48.9905744,15.128344 49.9839453,15.9220166 C50.9773161,16.7156892 51.4739941,17.8088928 51.4739941,19.2016602 C51.4739941,20.6968369 50.831385,21.9180503 49.5461474,22.8653369 C48.2609099,23.8126236 46.5686205,24.2862598 44.4692285,24.2862598 C43.1891114,24.2862598 42.0139815,24.0993655 40.9438037,23.7255713 C39.8736258,23.3517771 38.9237932,22.8166962 38.0942773,22.1203125 L38.0481933,18.3875098 L41.1819042,18.3875098 L41.7963574,20.553457 C42.0626217,20.7787576 42.4261695,20.9451704 42.8870117,21.0527002 C43.3478538,21.16023 43.8291706,21.2139941 44.3309765,21.2139941 C45.2424199,21.2139941 45.9362329,21.0501416 46.4124365,20.7224316 C46.88864,20.3947217 47.1267382,19.9492476 47.1267382,19.3859961 C47.1267382,18.8944311 46.8860798,18.4694386 46.4047558,18.1110059 C45.9234318,17.7525731 45.0376041,17.4351088 43.747246,17.1586035 C41.7912272,16.759207 40.3139942,16.1678018 39.3155029,15.3843701 C38.3170116,14.6009385 37.8177734,13.5333368 37.8177734,12.1815332 C37.8177734,10.7887658 38.3912572,9.58803401 39.5382421,8.57930176 C40.685227,7.5705695 42.3186319,7.06621094 44.4385058,7.06621094 C45.7288638,7.06621094 46.9500772,7.24030425 48.1021826,7.58849609 C49.2542879,7.93668794 50.158037,8.382162 50.813457,8.92493164 L50.859541,13.0571289 Z M64.5148534,21.8591699 C63.9823247,22.6374811 63.3243544,23.2365669 62.5409228,23.6564453 C61.7574911,24.0763237 60.8639828,24.2862598 59.860371,24.2862598 C58.1091709,24.2862598 56.7369059,23.7255769 55.7435351,22.6041943 C54.7501642,21.4828118 54.2534863,19.7393185 54.2534863,17.3736621 L54.2534863,10.5071484 L52.4254882,10.0463086 L52.4254882,7.34271484 L58.7389941,7.34271484 L58.7389941,17.4043848 C58.7389941,18.6128153 58.9412495,19.4807216 59.3457665,20.0081299 C59.7502835,20.5355381 60.3519295,20.7992383 61.1507226,20.7992383 C61.8573472,20.7992383 62.469234,20.6840295 62.9864013,20.4536084 C63.5035686,20.2231873 63.9260009,19.8929221 64.2537109,19.4628027 L64.2537109,10.5071484 L62.2874609,10.0463086 L62.2874609,7.34271484 L68.7392187,7.34271484 L68.7392187,20.8145996 L70.7515527,21.2754395 L70.7515527,23.9636719 L64.8067187,23.9636719 L64.5148534,21.8591699 Z M71.3958202,10.0463086 L71.3958202,7.34271484 L77.9551073,7.34271484 L78.1394433,9.53938477 C78.671972,8.74059171 79.3401831,8.12358453 80.1440966,7.68834473 C80.9480101,7.25310492 81.8773612,7.03548828 82.9321776,7.03548828 C83.997235,7.03548828 84.9086647,7.27102629 85.666494,7.74210938 C86.4243234,8.21319246 86.9978072,8.92492688 87.3869628,9.87733398 C87.8990096,8.9863725 88.5646605,8.28999925 89.3839355,7.78819336 C90.2032104,7.28638746 91.165844,7.03548828 92.2718651,7.03548828 C93.910415,7.03548828 95.2033139,7.60129154 96.1506005,8.73291504 C97.0978871,9.86453854 97.5715233,11.5875503 97.5715233,13.902002 L97.5715233,20.8145996 L99.7374706,21.2754395 L99.7374706,23.9636719 L91.1504882,23.9636719 L91.1504882,21.2754395 L93.0860155,20.8145996 L93.0860155,13.8866406 C93.0860155,12.6270054 92.8811999,11.7514185 92.4715624,11.2598535 C92.0619249,10.7682886 91.4525984,10.5225098 90.6435644,10.5225098 C90.0086263,10.5225098 89.4581842,10.6633205 88.9922216,10.9449463 C88.526259,11.226572 88.1550306,11.618282 87.8785253,12.1200879 C87.8785253,12.3146657 87.8836457,12.4810784 87.8938866,12.6193311 C87.9041276,12.7575837 87.909248,12.8983945 87.909248,13.0417676 L87.909248,20.8145996 L89.7218847,21.2754395 L89.7218847,23.9636719 L81.6264647,23.9636719 L81.6264647,21.2754395 L83.4391015,20.8145996 L83.4391015,13.8866406 C83.4391015,12.6577282 83.2342858,11.7898219 82.8246483,11.2828955 C82.4150109,10.7759691 81.8005639,10.5225098 80.981289,10.5225098 C80.3770737,10.5225098 79.8471132,10.6377186 79.3913915,10.8681396 C78.9356698,11.0985607 78.5593211,11.4237056 78.2623339,11.843584 L78.2623339,20.8145996 L80.1978612,21.2754395 L80.1978612,23.9636719 L71.6262401,23.9636719 L71.6262401,21.2754395 L73.7921874,20.8145996 L73.7921874,10.5071484 L71.3958202,10.0463086 Z M108.38499,24.2862598 C105.988611,24.2862598 104.073585,23.518201 102.639853,21.9820605 C101.206122,20.4459201 100.489267,18.4950509 100.489267,16.1293945 L100.489267,15.5149414 C100.489267,13.0468757 101.167719,11.0140803 102.524643,9.41649414 C103.881568,7.81890803 105.701867,7.02524734 107.985596,7.03539044 C110.228361,7.03539044 111.969294,7.71137996 113.208447,9.06318359 C114.4476,10.4149872 115.067168,12.242967 115.067168,14.5471777 L115.067168,16.9896289 L105.14375,16.9896289 L105.113027,17.0817969 C105.194955,18.1775771 105.561063,19.078766 106.211362,19.7853906 C106.861662,20.4920153 107.744929,20.8453223 108.861191,20.8453223 C109.854562,20.8453223 110.678945,20.7454746 111.334365,20.5457764 C111.989785,20.3460781 112.70664,20.031174 113.484951,19.6010547 L114.698496,22.3660938 C114.012353,22.9088634 113.123965,23.3645782 112.033306,23.733252 C110.942646,24.1019257 109.726553,24.2862598 108.38499,24.2862598 Z M107.985596,10.4917871 C107.15608,10.4917871 106.50067,10.8092514 106.019346,11.4441895 C105.538022,12.0791275 105.241039,12.9137513 105.128389,13.9480859 L105.174473,14.0248926 L110.673828,14.0248926 L110.673828,13.625498 C110.673828,12.6730909 110.451091,11.9127128 110.00561,11.3443408 C109.560129,10.7759688 108.886798,10.4917871 107.985596,10.4917871 Z" id="Resume" fill="#16324F"></path>
                        <path d="M117.017148,2.96473633 L117.017148,1.59757813 L123.868301,1.59757813 L123.868301,2.96473633 L121.364404,3.16443359 L121.364404,22.4121777 L123.868301,22.611875 L123.868301,23.9636719 L117.017148,23.9636719 L117.017148,22.611875 L119.521045,22.4121777 L119.521045,3.16443359 L117.017148,2.96473633 Z M125.80292,22.611875 L128.306816,22.4121777 L128.306816,8.90957031 L125.80292,8.70987305 L125.80292,7.34271484 L129.935117,7.34271484 L130.104092,10.2460059 C130.63662,9.2219122 131.356035,8.43081171 132.262358,7.87268066 C133.168681,7.31454962 134.241403,7.03548828 135.480556,7.03548828 C137.282961,7.03548828 138.655226,7.58593037 139.597392,8.68683105 C140.539559,9.78773174 141.010635,11.5056231 141.010635,13.8405566 L141.010635,22.4121777 L143.514531,22.611875 L143.514531,23.9636719 L136.663379,23.9636719 L136.663379,22.611875 L139.167275,22.4121777 L139.167275,13.855918 C139.167275,11.9511038 138.811408,10.6044408 138.099663,9.81588867 C137.387918,9.02733655 136.376641,8.63306641 135.065801,8.63306641 C133.775443,8.63306641 132.723202,8.97357244 131.909048,9.65459473 C131.094893,10.335617 130.508608,11.2393661 130.150176,12.3658691 L130.150176,22.4121777 L132.654072,22.611875 L132.654072,23.9636719 L125.80292,23.9636719 L125.80292,22.611875 Z M157.861103,12.4733984 L156.355693,12.4733984 L156.140635,10.1231152 C155.679792,9.64179121 155.098628,9.26800263 154.397124,9.00173828 C153.69562,8.73547393 152.889158,8.60234375 151.977715,8.60234375 C150.636152,8.60234375 149.629995,8.89164587 148.959214,9.47025879 C148.288432,10.0488717 147.953047,10.7273236 147.953047,11.5056348 C147.953047,12.273705 148.242349,12.9086336 148.820962,13.4104395 C149.399575,13.9122453 150.554223,14.352599 152.284941,14.7315137 C154.261442,15.1718739 155.741235,15.7735199 156.724365,16.5364697 C157.707495,17.2994195 158.199053,18.3362988 158.199053,19.6471387 C158.199053,21.0296651 157.63837,22.1484707 156.516987,23.0035889 C155.395605,23.8587071 153.913251,24.2862598 152.069883,24.2862598 C150.84097,24.2862598 149.722165,24.1147267 148.713432,23.7716553 C147.7047,23.4285839 146.831673,22.9447069 146.094326,22.3200098 L146.094326,18.9712402 L147.584375,18.9712402 L147.845517,21.3368848 C148.337082,21.8284497 148.95921,22.1843169 149.711919,22.4044971 C150.464628,22.6246772 151.250608,22.7347656 152.069883,22.7347656 C153.401204,22.7347656 154.450885,22.4429033 155.218955,21.8591699 C155.987025,21.2754365 156.371054,20.5688225 156.371054,19.7393066 C156.371054,18.9609955 156.05103,18.2799834 155.410971,17.69625 C154.770913,17.1125166 153.616265,16.6363202 151.946992,16.2676465 C149.970491,15.8375271 148.503499,15.2666035 147.545971,14.5548584 C146.588444,13.8431133 146.109687,12.8471972 146.109687,11.5670801 C146.109687,10.2972039 146.647328,9.22448192 147.722627,8.34888184 C148.797925,7.47328175 150.216274,7.03548828 151.977715,7.03548828 C153.196386,7.03548828 154.310071,7.22238257 155.318804,7.59617676 C156.327536,7.96997094 157.149359,8.47432951 157.784297,9.10926758 L157.861103,12.4733984 Z M165.172187,3.08762695 L165.172187,7.34271484 L168.828183,7.34271484 L168.828183,8.848125 L165.172187,8.848125 L165.172187,19.6778613 C165.172187,20.7634006 165.369322,21.5340195 165.763598,21.9897412 C166.157874,22.4454629 166.682715,22.6733203 167.338135,22.6733203 C167.635122,22.6733203 167.924424,22.6605193 168.20605,22.634917 C168.487675,22.6093147 168.81282,22.5657913 169.181494,22.5043457 L169.457998,23.8715039 C169.15077,24.0046361 168.776981,24.1070439 168.336621,24.1787305 C167.896261,24.250417 167.455907,24.2862598 167.015547,24.2862598 C165.84808,24.2862598 164.93921,23.9175916 164.288911,23.1802441 C163.638611,22.4428967 163.313467,21.2754474 163.313467,19.6778613 L163.313467,8.848125 L160.45626,8.848125 L160.45626,7.34271484 L163.313467,7.34271484 L163.313467,3.08762695 L165.172187,3.08762695 Z M171.484785,22.611875 L173.988681,22.4121777 L173.988681,8.90957031 L171.484785,8.70987305 L171.484785,7.34271484 L175.816679,7.34271484 L175.816679,22.4121777 L178.320576,22.611875 L178.320576,23.9636719 L171.484785,23.9636719 L171.484785,22.611875 Z M175.816679,2.58070313 L173.988681,2.58070313 L173.988681,5.86197757e-14 L175.816679,5.86197757e-14 L175.816679,2.58070313 Z M185.032568,3.08762695 L185.032568,7.34271484 L188.688564,7.34271484 L188.688564,8.848125 L185.032568,8.848125 L185.032568,19.6778613 C185.032568,20.7634006 185.229703,21.5340195 185.623979,21.9897412 C186.018255,22.4454629 186.543095,22.6733203 187.198515,22.6733203 C187.495503,22.6733203 187.784805,22.6605193 188.06643,22.634917 C188.348056,22.6093147 188.673201,22.5657913 189.041875,22.5043457 L189.318379,23.8715039 C189.011151,24.0046361 188.637362,24.1070439 188.197002,24.1787305 C187.756641,24.250417 187.316288,24.2862598 186.875927,24.2862598 C185.708461,24.2862598 184.799591,23.9175916 184.149292,23.1802441 C183.498992,22.4428967 183.173847,21.2754474 183.173847,19.6778613 L183.173847,8.848125 L180.31664,8.848125 L180.31664,7.34271484 L183.173847,7.34271484 L183.173847,3.08762695 L185.032568,3.08762695 Z M203.680312,21.2293555 C203.158024,22.2022444 202.44373,22.954942 201.537407,23.4874707 C200.631084,24.0199994 199.563482,24.2862598 198.33457,24.2862598 C196.58337,24.2862598 195.213665,23.6922944 194.225415,22.5043457 C193.237164,21.3163971 192.743047,19.4730561 192.743047,16.9742676 L192.743047,8.90957031 L190.684629,8.70987305 L190.684629,7.34271484 L194.571045,7.34271484 L194.571045,17.0049902 C194.571045,19.0326957 194.916671,20.4868869 195.607934,21.3676074 C196.299198,22.248328 197.279752,22.6886816 198.549629,22.6886816 C199.942396,22.6886816 201.050961,22.3814582 201.875356,21.767002 C202.699752,21.1525458 203.280916,20.3025608 203.618867,19.2170215 L203.618867,8.90957031 L201.253222,8.70987305 L201.253222,7.34271484 L205.462226,7.34271484 L205.462226,22.4121777 L207.689619,22.611875 L207.689619,23.9636719 L203.849287,23.9636719 L203.680312,21.2293555 Z M214.017578,3.08762695 L214.017578,7.34271484 L217.673574,7.34271484 L217.673574,8.848125 L214.017578,8.848125 L214.017578,19.6778613 C214.017578,20.7634006 214.214713,21.5340195 214.608989,21.9897412 C215.003265,22.4454629 215.528105,22.6733203 216.183525,22.6733203 C216.480512,22.6733203 216.769814,22.6605193 217.05144,22.634917 C217.333066,22.6093147 217.658211,22.5657913 218.026884,22.5043457 L218.303388,23.8715039 C217.99616,24.0046361 217.622372,24.1070439 217.182011,24.1787305 C216.741651,24.250417 216.301297,24.2862598 215.860937,24.2862598 C214.69347,24.2862598 213.784601,23.9175916 213.134301,23.1802441 C212.484002,22.4428967 212.158857,21.2754474 212.158857,19.6778613 L212.158857,8.848125 L209.30165,8.848125 L209.30165,7.34271484 L212.158857,7.34271484 L212.158857,3.08762695 L214.017578,3.08762695 Z M227.78042,24.2862598 C225.691269,24.2862598 223.960576,23.5207612 222.588291,21.9897412 C221.216005,20.4587212 220.529873,18.5104122 220.529873,16.1447559 L220.529873,15.2998828 C220.529873,12.9239855 221.213445,10.9526348 222.58061,9.38577148 C223.947775,7.81890818 225.599101,7.03548828 227.534638,7.03548828 C229.572585,7.03548828 231.175267,7.68065761 232.342734,8.97101563 C233.510201,10.2613736 234.093925,11.9818252 234.093925,14.1324219 L234.093925,15.6992773 L222.357871,15.6992773 L222.357871,16.1447559 C222.357871,18.0086063 222.857109,19.5728859 223.8556,20.8376416 C224.854092,22.1023973 226.162352,22.7347656 227.78042,22.7347656 C228.917164,22.7347656 229.890038,22.5760335 230.699072,22.2585645 C231.508106,21.9410954 232.199359,21.4853806 232.772851,20.8914063 L233.556279,22.1510352 C232.931582,22.8064551 232.143042,23.3261748 231.190634,23.71021 C230.238227,24.0942451 229.1015,24.2862598 227.78042,24.2862598 Z M227.534638,8.60234375 C226.182835,8.60234375 225.043548,9.12206349 224.116743,10.1615186 C223.189938,11.2009736 222.649737,12.5041133 222.496123,14.0709766 L222.526845,14.1477832 L232.265927,14.1477832 L232.265927,13.6869434 C232.265927,12.2429713 231.840935,11.0345589 230.990937,10.0616699 C230.140939,9.08878094 228.988851,8.60234375 227.534638,8.60234375 Z" id="Institute" fill="#FFFFFF"></path>
                    </g>
                </g>
            </g>
        </g>
    </g>
</svg>