<svg width="100" height="100" viewBox="0 0 100 100" xmlns="http://www.w3.org/2000/svg" xmlns:xlink="http://www.w3.org/1999/xlink">
    <defs>
        <circle id="a" cx="50" cy="50" r="43.22"/>
        <mask id="b" maskContentUnits="userSpaceOnUse" maskUnits="objectBoundingBox" x="0" y="0" width="86.441" height="86.441" fill="#fff">
            <use xlink:href="#a"/>
        </mask>
    </defs>
    <g fill="none" fill-rule="evenodd">
        <g fill-rule="nonzero">
            <path d="M29.928 49.491V25.096c0-3.24 2.637-5.865 5.89-5.865h17.668l17.668 17.596v35.192c0 3.24-2.637 5.866-5.89 5.866H35.817c-3.252 0-5.89-2.626-5.89-5.866v-7.588" stroke="#5A5E61" stroke-width=".962"/>
            <path d="M71.154 36.827H59.375c-3.253 0-5.89-2.626-5.89-5.865V19.23" stroke="#5A5E61" stroke-width=".962"/>
            <path d="M56.495 48.558a2.88 2.88 0 0 1 2.88 2.88v11.836a2.88 2.88 0 0 1-2.88 2.88H26.919a2.88 2.88 0 0 1-2.88-2.88V51.438a2.88 2.88 0 0 1 2.88-2.88h29.576zm-24.668 3.68h-3.4a1 1 0 0 0-.987.997v8.27a.98.98 0 0 0 .986 1.012.93.93 0 0 0 .7-.295.921.921 0 0 0 .242-.716V59.57h2.46a3.673 3.673 0 0 0 3.68-3.666 3.673 3.673 0 0 0-3.68-3.666zm23.26.112-.13.006H49.79a.945.945 0 0 0-1.045.909v8.329c.006.262.123.51.322.683a.945.945 0 0 0 .723.226.87.87 0 0 0 .883-.91v-3.079h3.853c.481-.028.884-.393.947-.88a1.131 1.131 0 0 0-1.06-1.04h-3.74v-2.332h4.285c.555 0 1.008-.444 1.016-.997a.908.908 0 0 0-.303-.682.915.915 0 0 0-.713-.227zm-13.38.02H38.35a1 1 0 0 0-1.016.895v8.329a.93.93 0 0 0 1.016.91v-.001h3.49c6.448 0 6.595-10.133-.133-10.133zm0 1.774c4.152 0 3.975 6.57 0 6.57h-2.43v-6.57zm-9.88-.073a1.836 1.836 0 0 1 1.676 1.826c0 .949-.727 1.74-1.676 1.825h-2.459v-3.65z" fill="#5A5E61"/>
        </g>
        <use stroke="#5A5E61" mask="url(#b)" stroke-width="1.923" stroke-linejoin="round" stroke-dasharray="3.846153865257899,1.92307693262895" xlink:href="#a"/>
        <circle stroke="#5A5E61" stroke-width=".962" cx="50" cy="50" r="49.519"/>
    </g>
</svg>
