<svg width="255" height="362" viewBox="0 0 255 362" fill="none" xmlns="http://www.w3.org/2000/svg">
<path d="M0 4.00001C0 1.79087 1.79086 0 4 0H251C253.209 0 255 1.79086 255 4V357.837C255 360.136 253.136 362 250.837 362H4.16331C1.86398 362 0 360.136 0 357.837V4.00001Z" fill="white"/>
<g opacity="0.8" clip-path="url(#clip0_112_171)">
<g clip-path="url(#clip1_112_171)">
<rect x="32.1758" y="32.1758" width="97" height="8" rx="4" fill="#DEE1E3"/>
<rect x="32.1758" y="44.1978" width="65" height="8" rx="4" fill="#DEE1E3"/>
</g>
<g clip-path="url(#clip2_112_171)">
<rect x="171.249" y="32.1758" width="48.2637" height="4.02198" rx="2.01099" fill="#DEE1E3"/>
<rect x="171.249" y="40.3611" width="48.2637" height="4.02198" rx="2.01099" fill="#DEE1E3"/>
<rect x="171.249" y="48.5464" width="48.2637" height="4.02198" rx="2.01099" fill="#DEE1E3"/>
</g>
<rect x="32.1758" y="68.6562" width="189" height="2" rx="1" fill="#DEE1E3"/>
<rect x="32.1758" y="86.7441" width="100" height="8" rx="4" fill="#DEE1E3"/>
<g clip-path="url(#clip3_112_171)">
<rect x="32.1758" y="110.832" width="189.033" height="4.02198" rx="2.01099" fill="#DEE1E3"/>
<rect x="32.1758" y="119.017" width="189.033" height="4.02198" rx="2.01099" fill="#DEE1E3"/>
<rect x="32.1758" y="127.203" width="87" height="4" rx="2" fill="#DEE1E3"/>
</g>
<g clip-path="url(#clip4_112_171)">
<rect x="32.1758" y="147.291" width="189.033" height="4.02198" rx="2.01099" fill="#DEE1E3"/>
<rect x="32.1758" y="155.476" width="189.033" height="4.02198" rx="2.01099" fill="#DEE1E3"/>
<rect x="32.1758" y="163.661" width="152" height="4" rx="2" fill="#DEE1E3"/>
<rect x="32.1758" y="171.824" width="189.033" height="4.02198" rx="2.01099" fill="#DEE1E3"/>
<rect x="32.1758" y="180.01" width="189.033" height="4.02198" rx="2.01099" fill="#DEE1E3"/>
<rect x="32.1758" y="188.195" width="112.615" height="4.02198" rx="2.01099" fill="#DEE1E3"/>
</g>
<g clip-path="url(#clip5_112_171)">
<rect x="32.1758" y="208.305" width="189.033" height="4.02198" rx="2.01099" fill="#DEE1E3"/>
<rect x="32.1758" y="216.49" width="189.033" height="4.02198" rx="2.01099" fill="#DEE1E3"/>
<rect x="32.1758" y="224.676" width="189.033" height="4.02198" rx="2.01099" fill="#DEE1E3"/>
<rect x="32.1758" y="232.861" width="152" height="4" rx="2" fill="#DEE1E3"/>
<rect x="32.1758" y="241.024" width="189.033" height="4.02198" rx="2.01099" fill="#DEE1E3"/>
<rect x="32.1758" y="249.209" width="112.615" height="4.02198" rx="2.01099" fill="#DEE1E3"/>
</g>
<g clip-path="url(#clip6_112_171)">
<rect x="32.1758" y="269.319" width="189.033" height="4.02198" rx="2.01099" fill="#DEE1E3"/>
<rect x="32.1758" y="277.505" width="189.033" height="4.02198" rx="2.01099" fill="#DEE1E3"/>
<rect x="32.1758" y="285.69" width="189.033" height="4.02198" rx="2.01099" fill="#DEE1E3"/>
</g>
<g clip-path="url(#clip7_112_171)">
<rect x="32.1758" y="305.8" width="189.033" height="4.02198" rx="2.01099" fill="#DEE1E3"/>
<rect x="32.1758" y="313.985" width="189.033" height="4.02198" rx="2.01099" fill="#DEE1E3"/>
<rect x="32.1758" y="322.17" width="87" height="4" rx="2" fill="#DEE1E3"/>
</g>
</g>
<defs>
<clipPath id="clip0_112_171">
<rect width="189.033" height="293.994" fill="white" transform="translate(32.1758 32.1758)"/>
</clipPath>
<clipPath id="clip1_112_171">
<rect width="96.5275" height="20.022" fill="white" transform="translate(32.1758 32.1758)"/>
</clipPath>
<clipPath id="clip2_112_171">
<rect width="49.9597" height="20.3925" fill="white" transform="translate(171.249 32.1758)"/>
</clipPath>
<clipPath id="clip3_112_171">
<rect width="189.033" height="20.3706" fill="white" transform="translate(32.1758 110.832)"/>
</clipPath>
<clipPath id="clip4_112_171">
<rect width="189.033" height="44.9264" fill="white" transform="translate(32.1758 147.291)"/>
</clipPath>
<clipPath id="clip5_112_171">
<rect width="189.033" height="44.9264" fill="white" transform="translate(32.1758 208.305)"/>
</clipPath>
<clipPath id="clip6_112_171">
<rect width="189.033" height="20.3926" fill="white" transform="translate(32.1758 269.319)"/>
</clipPath>
<clipPath id="clip7_112_171">
<rect width="189.033" height="20.3706" fill="white" transform="translate(32.1758 305.8)"/>
</clipPath>
</defs>
</svg>
