<svg xmlns="http://www.w3.org/2000/svg" width="18" height="18" viewBox="0 0 18 18">
    <g fill="none" fill-rule="evenodd">
        <g fill="#6D7275">
            <g>
                <g>
                    <path d="M13.5 1.5c1.657 0 3 1.343 3 3v9c0 1.657-1.343 3-3 3h-9c-1.657 0-3-1.343-3-3v-9c0-1.657 1.343-3 3-3zm0 1.5h-9C3.672 3 3 3.672 3 4.5v9c0 .828.672 1.5 1.5 1.5h9c.828 0 1.5-.672 1.5-1.5v-9c0-.828-.672-1.5-1.5-1.5zm-3.214 4.5l.102.008c.205.031.38.152.473.324l2.571 4.8c.1.186.09.407-.028.584-.117.177-.324.284-.547.284H5.143c-.26 0-.495-.146-.594-.37-.1-.225-.045-.483.14-.654l5.142-4.8c.145-.137.353-.2.557-.168zM6 5.25c.828 0 1.5.672 1.5 1.5s-.672 1.5-1.5 1.5-1.5-.672-1.5-1.5.672-1.5 1.5-1.5z" transform="translate(-969.000000, -712.000000) translate(895.000000, 693.000000) translate(74.000000, 19.000000)"/>
                </g>
            </g>
        </g>
    </g>
</svg>
