<svg xmlns="http://www.w3.org/2000/svg" xmlns:xlink="http://www.w3.org/1999/xlink" width="24" height="24" viewBox="0 0 24 24">
    <defs>
        <path id="5lf1yjg0na" d="M17.642 6.351c-1.63-1.63-3.94-2.57-6.48-2.31-3.67.37-6.69 3.35-7.1 7.02-.55 4.85 3.2 8.94 7.93 8.94 3.19 0 5.93-1.87 7.21-4.56.32-.67-.16-1.44-.9-1.44-.37 0-.72.2-.88.53-1.13 2.43-3.84 3.97-6.8 3.31-2.22-.49-4.01-2.3-4.48-4.52-.84-3.88 2.11-7.32 5.85-7.32 1.66 0 3.14.69 4.22 1.78l-1.51 1.51c-.63.63-.19 1.71.7 1.71h3.59c.55 0 1-.45 1-1v-3.59c0-.89-1.08-1.34-1.71-.71l-.64.65z"/>
    </defs>
    <g fill="none" fill-rule="evenodd">
        <g>
            <g>
                <g transform="translate(-911.000000, -709.000000) translate(895.000000, 693.000000) translate(16.000000, 16.000000)">
                    <mask id="jzlr8nb96b" fill="#fff">
                        <use xlink:href="#5lf1yjg0na"/>
                    </mask>
                    <g fill="#6D7275" mask="url(#jzlr8nb96b)">
                        <path d="M0 0H24V24H0z"/>
                    </g>
                </g>
            </g>
        </g>
    </g>
</svg>
