<svg width="16" height="16" viewBox="0 0 16 16" fill="none" xmlns="http://www.w3.org/2000/svg">
<path fill-rule="evenodd" clip-rule="evenodd" d="M7.99992 1.33325C4.31802 1.33325 1.33325 4.31802 1.33325 7.99992C1.33325 11.6818 4.31802 14.6666 7.99992 14.6666C11.6818 14.6666 14.6666 11.6818 14.6666 7.99992C14.6666 6.23181 13.9642 4.53612 12.714 3.28587C11.4637 2.03563 9.76805 1.33325 7.99992 1.33325ZM7.99992 13.3333C5.0544 13.3333 2.66659 10.9455 2.66659 7.99992C2.66659 5.0544 5.0544 2.66659 7.99992 2.66659C10.9455 2.66659 13.3333 5.0544 13.3333 7.99992C13.3333 9.41439 12.7713 10.771 11.7712 11.7712C10.771 12.7713 9.41439 13.3333 7.99992 13.3333ZM8.58659 4.33325V7.75992L11.0066 10.1799C11.1345 10.3118 11.1345 10.5214 11.0066 10.6533L10.6533 11.0066C10.5214 11.1345 10.3118 11.1345 10.1799 11.0066L7.51325 8.33992C7.45219 8.27719 7.41652 8.19405 7.41325 8.10659V4.33325C7.41325 4.14916 7.56252 3.99992 7.74659 3.99992H8.25325C8.43732 3.99992 8.58659 4.14916 8.58659 4.33325Z" fill="#B5BABD"/>
</svg>
