<?xml version="1.0" encoding="UTF-8"?>
<svg width="255px" height="59px" viewBox="0 0 255 59" version="1.1" xmlns="http://www.w3.org/2000/svg" xmlns:xlink="http://www.w3.org/1999/xlink">
    <!-- Generator: Sketch 51.1 (57501) - http://www.bohemiancoding.com/sketch -->
    <title>logo_topjianli_white</title>
    <desc>Created with Sketch.</desc>
    <defs></defs>
    <g id="logo_topjianli_white" stroke="none" stroke-width="1" fill="none" fill-rule="evenodd">
        <path d="M187.970041,39.6306975 C189.338641,39.6306975 190.546211,39.2396748 191.592787,38.4576178 C192.639364,37.6755608 193.162644,36.5887478 193.162644,35.1971463 L194.991268,35.1971463 L195.025771,35.3006534 C195.083275,37.0257792 194.39611,38.4691128 192.964256,39.6306975 C191.532401,40.7922822 189.86768,41.3730658 187.970041,41.3730658 C185.439857,41.3730658 183.478993,40.5018903 182.087392,38.7595133 C180.69579,37.0171362 180,34.7773815 180,32.0401819 L180,31.3156327 C180,28.6014348 180.69579,26.3703056 182.087392,24.6221781 C183.478993,22.8740506 185.434106,22 187.95279,22 C189.390395,22 190.707221,22.2702657 191.903308,22.8108051 C193.099396,23.3513445 194.071202,24.0873871 194.818756,25.018955 L194.905012,29.0902316 L193.145393,29.0902316 L192.817621,25.7780066 C192.26558,25.1569613 191.578416,24.6653078 190.756106,24.3030314 C189.933796,23.940755 188.999366,23.7596195 187.95279,23.7596195 C185.951644,23.7596195 184.470933,24.475536 183.510613,25.9073904 C182.550293,27.3392448 182.070141,29.1419742 182.070141,31.3156327 L182.070141,32.0401819 C182.070141,34.2483429 182.547418,36.0654482 183.501988,37.4915522 C184.456557,38.9176562 185.945894,39.6306975 187.970041,39.6306975 Z M198.872782,31.4018886 C198.872782,28.6531881 199.626075,26.3990576 201.132685,24.6394293 C202.639295,22.879801 204.634661,22 207.118842,22 C209.614524,22 211.61564,22.879801 213.12225,24.6394293 C214.62886,26.3990576 215.382153,28.6531881 215.382153,31.4018886 L215.382153,31.9711772 C215.382153,34.7313785 214.631735,36.9883842 213.130875,38.7422621 C211.630016,40.49614 209.637525,41.3730658 207.153344,41.3730658 C204.646161,41.3730658 202.639295,40.49614 201.132685,38.7422621 C199.626075,36.9883842 198.872782,34.7313785 198.872782,31.9711772 L198.872782,31.4018886 Z M200.942922,31.9711772 C200.942922,34.1333349 201.489204,35.9504401 202.581784,37.4225475 C203.674363,38.8946548 205.198202,39.6306975 207.153344,39.6306975 C209.073984,39.6306975 210.580572,38.8946548 211.673151,37.4225475 C212.765731,35.9504401 213.312013,34.1333349 213.312013,31.9711772 L213.312013,31.4018886 C213.312013,29.2742334 212.762856,27.4686288 211.664526,25.9850207 C210.566196,24.5014125 209.050983,23.7596195 207.118842,23.7596195 C205.186701,23.7596195 203.674363,24.5014125 202.581784,25.9850207 C201.489204,27.4686288 200.942922,29.2742334 200.942922,31.4018886 L200.942922,31.9711772 Z M218.297601,23.8803777 L218.297601,22.3450234 L222.938166,22.3450234 L223.127929,25.4329832 C223.725973,24.3404035 224.525269,23.4951045 225.525842,22.8970609 C226.526415,22.2990173 227.716734,22 229.096835,22 C230.522939,22 231.713258,22.3478952 232.667827,23.0436959 C233.622397,23.7394966 234.306686,24.8004331 234.720717,26.2265371 C235.284258,24.9154415 236.086429,23.8832567 237.127255,23.1299517 C238.168081,22.3766468 239.436029,22 240.931138,22 C242.920783,22 244.458998,22.6612883 245.545827,23.9838847 C246.632656,25.3064812 247.176063,27.3535998 247.176063,30.1253019 L247.176063,39.2511717 L249.988004,39.4926881 L249.988004,41.0107912 L242.27673,41.0107912 L242.27673,39.4926881 L245.088671,39.2511717 L245.088671,30.0907995 C245.088671,27.7906318 244.683272,26.1661627 243.872463,25.2173435 C243.061654,24.2685243 241.931714,23.7941219 240.482608,23.7941219 C238.872491,23.7941219 237.633294,24.3059015 236.76498,25.3294761 C235.896667,26.3530508 235.359011,27.6583764 235.151996,29.2454921 C235.151996,29.3374988 235.154871,29.4237538 235.160621,29.5042597 C235.166372,29.5847656 235.169247,29.6882715 235.169247,29.8147808 L235.169247,39.2684229 L237.981188,39.4926881 L237.981188,41.0107912 L230.287165,41.0107912 L230.287165,39.4926881 L233.099106,39.2684229 L233.099106,30.0907995 C233.099106,27.8366352 232.687958,26.2236667 231.865648,25.2518459 C231.043338,24.280025 229.913397,23.7941219 228.475792,23.7941219 C227.003685,23.7941219 225.839243,24.1650183 224.98243,24.9068224 C224.125618,25.6486265 223.524708,26.6463093 223.179683,27.8999007 L223.179683,39.2684229 L225.991624,39.4926881 L225.991624,41.0107912 L218.297601,41.0107912 L218.297601,39.4926881 L221.109542,39.2684229 L221.109542,24.1046429 L218.297601,23.8803777 Z" id="Topjianli.com-Copy" fill="#FFFFFF"></path>
        <polygon id="Rectangle-3-Copy-2" fill="#FFFFFF" points="5.98572443 1 44.0042999 5.37334913 48 53.1448492 3 58"></polygon>
        <path d="M41.3920209,15.7941219 L41.3920209,22.4875765 L37.5277584,22.4875765 L37.3207443,19.6756355 L32.6974303,19.6756355 L32.6974303,37.3753376 L35.3886131,37.8928728 L35.3886131,40.9118278 L24.9689054,40.9118278 L24.9689054,37.8928728 L27.6600882,37.3753376 L27.6600882,19.6756355 L23.0540253,19.6756355 L22.8470113,22.4875765 L19,22.4875765 L19,15.7941219 L41.3920209,15.7941219 Z M43.1516404,31.4064322 C43.1516404,28.6232293 43.9308105,26.3432222 45.4891741,24.5663427 C47.0475378,22.7894631 49.2010375,21.9010366 51.9497379,21.9010366 C54.7099392,21.9010366 56.8691893,22.7865879 58.4275529,24.5577171 C59.9859165,26.3288462 60.7650867,28.6117284 60.7650867,31.4064322 L60.7650867,31.7687068 C60.7650867,34.5749115 59.9859165,36.8606689 58.4275529,38.6260476 C56.8691893,40.3914263 54.7214399,41.2741024 51.9842403,41.2741024 C49.2125382,41.2741024 47.0475378,40.3914263 45.4891741,38.6260476 C43.9308105,36.8606689 43.1516404,34.5749115 43.1516404,31.7687068 L43.1516404,31.4064322 Z M48.1889825,31.7687068 C48.1889825,33.470831 48.4879998,34.8365351 49.0860434,35.8658601 C49.684087,36.8951852 50.650143,37.40984 51.9842403,37.40984 C53.283835,37.40984 54.2355152,36.89231 54.8393092,35.8572345 C55.4431032,34.8221591 55.7449957,33.4593301 55.7449957,31.7687068 L55.7449957,31.4064322 C55.7449957,29.7503115 55.440228,28.3989832 54.8306836,27.3524069 C54.2211391,26.3058306 53.2608335,25.7825503 51.9497379,25.7825503 C50.6386423,25.7825503 49.684087,26.3058306 49.0860434,27.3524069 C48.4879998,28.3989832 48.1889825,29.7503115 48.1889825,31.4064322 L48.1889825,31.7687068 Z M62.5764597,25.2822663 L62.5764597,22.2460601 L69.8909565,22.2460601 L70.1324729,24.4197077 C70.6845131,23.614649 71.3458014,22.993613 72.1163576,22.5565812 C72.8869138,22.1195493 73.7839658,21.9010366 74.8075404,21.9010366 C77.119209,21.9010366 78.9133129,22.8038389 80.189906,24.6094706 C81.4664991,26.4151023 82.104786,28.7899898 82.104786,31.7342045 L82.104786,32.0964791 C82.104786,34.8566804 81.4664991,37.0763089 80.189906,38.7554314 C78.9133129,40.4345538 77.1307096,41.2741024 74.8420428,41.2741024 C73.8644715,41.2741024 72.9961712,41.0929669 72.2371158,40.7306905 C71.4780605,40.3684141 70.8282728,39.8365083 70.2877334,39.1349571 L70.2877334,44.5345739 L72.7201486,45.052109 L72.7201486,48.0883153 L62.8352273,48.0883153 L62.8352273,45.052109 L65.2676425,44.5345739 L65.2676425,25.7998014 L62.5764597,25.2822663 Z M77.0674439,31.7342045 C77.0674439,29.9745762 76.7741769,28.5484936 76.1876341,27.4559139 C75.6010914,26.3633342 74.7040394,25.8170526 73.4964514,25.8170526 C72.737396,25.8170526 72.0904835,25.9723116 71.5556945,26.2828342 C71.0209055,26.5933569 70.5982561,27.0361325 70.2877334,27.6111745 L70.2877334,35.7882298 C70.5982561,36.3172684 71.0209055,36.7197917 71.5556945,36.9958119 C72.0904835,37.271832 72.7488967,37.40984 73.5309537,37.40984 C74.7500426,37.40984 75.6442194,36.9325623 76.2135109,35.9779927 C76.7828024,35.0234231 77.0674439,33.7295982 77.0674439,32.0964791 L77.0674439,31.7342045 Z M91.748191,41.6018747 C91.748191,43.787034 91.1674074,45.4747568 90.0058227,46.6650936 C88.844238,47.8554304 87.2341447,48.4505899 85.1754946,48.4505899 C84.7039602,48.4505899 84.2755604,48.4275885 83.8902823,48.3815852 C83.5050042,48.3355818 83.1053561,48.2608275 82.6913259,48.1573199 L82.9328423,44.3103087 C83.1858607,44.3793137 83.4446257,44.4310667 83.709145,44.4655692 C83.9736643,44.5000717 84.2611809,44.5173227 84.5717036,44.5173227 C85.2502531,44.5173227 85.7764085,44.2786839 86.1501858,43.8013991 C86.523963,43.3241143 86.7108489,42.5909468 86.7108489,41.6018747 L86.7108489,25.7998014 L84.0196661,25.2822663 L84.0196661,22.2460601 L91.748191,22.2460601 L91.748191,41.6018747 Z M91.644684,17.7435043 L86.6073418,17.7435043 L86.6073418,14 L91.644684,14 L91.644684,17.7435043 Z M94.5256296,37.8928728 L96.9580449,37.3753376 L96.9580449,25.7998014 L94.2668621,25.2822663 L94.2668621,22.2460601 L101.995387,22.2460601 L101.995387,37.3753376 L104.410551,37.8928728 L104.410551,40.9118278 L94.5256296,40.9118278 L94.5256296,37.8928728 Z M101.995387,17.7780066 L96.9580449,17.7780066 L96.9580449,14 L101.995387,14 L101.995387,17.7780066 Z M117.952721,40.9118278 C117.814711,40.6013052 117.693954,40.2821617 117.590446,39.9543878 C117.486939,39.6266139 117.406434,39.2959698 117.34893,38.9624454 C116.750886,39.6524957 116.023469,40.2102781 115.166657,40.6358091 C114.309844,41.0613401 113.329412,41.2741024 112.225332,41.2741024 C110.396698,41.2741024 108.944739,40.7766986 107.869411,39.7818761 C106.794083,38.7870535 106.256426,37.4328501 106.256426,35.7192252 C106.256426,33.9710977 106.957967,32.6197694 108.361069,31.6651998 C109.764172,30.7106302 111.822791,30.2333526 114.536989,30.2333526 L117.107413,30.2333526 L117.107413,28.4047284 C117.107413,27.5076629 116.848648,26.8118726 116.331111,26.3173366 C115.813573,25.8228005 115.048779,25.5755362 114.036705,25.5755362 C113.461663,25.5755362 112.949883,25.641665 112.501351,25.7739247 C112.052818,25.9061843 111.690547,26.0643185 111.414527,26.2483319 L111.086754,28.2494678 L107.291497,28.2494678 L107.308748,24.1091866 C108.228815,23.4881413 109.284001,22.964861 110.474338,22.53933 C111.664675,22.113799 112.961375,21.9010366 114.364477,21.9010366 C116.676146,21.9010366 118.553629,22.4674444 119.996985,23.600277 C121.44034,24.7331096 122.162007,26.3460781 122.162007,28.4392307 L122.162007,36.1505044 C122.162007,36.4380254 122.164882,36.7082911 122.170632,36.9613095 C122.176383,37.214328 122.196509,37.455842 122.231011,37.6858587 L123.766366,37.8928728 L123.766366,40.9118278 L117.952721,40.9118278 Z M113.588174,37.5478494 C114.34723,37.5478494 115.03727,37.3839649 115.658315,37.056191 C116.27936,36.7284171 116.762388,36.3172682 117.107413,35.8227322 L117.107413,32.9762889 L114.536989,32.9762889 C113.467411,32.9762889 112.656614,33.2264283 112.104574,33.7267148 C111.552533,34.2270013 111.276517,34.8279111 111.276517,35.5294623 C111.276517,36.1620084 111.480654,36.656537 111.888934,37.013063 C112.297214,37.369589 112.863622,37.5478494 113.588174,37.5478494 Z M125.198213,37.8928728 L127.613377,37.3753376 L127.613377,25.7998014 L124.939445,25.2822663 L124.939445,22.2460601 L132.305696,22.2460601 L132.529961,24.9199917 C133.151006,23.9654221 133.9158,23.2236291 134.824367,22.6945905 C135.732933,22.165552 136.750742,21.9010366 137.877824,21.9010366 C139.763962,21.9010366 141.236047,22.4933209 142.294124,23.6779073 C143.352201,24.8624937 143.881232,26.7198513 143.881232,29.2500358 L143.881232,37.3753376 L146.296396,37.8928728 L146.296396,40.9118278 L136.670242,40.9118278 L136.670242,37.8928728 L138.826639,37.3753376 L138.826639,29.2672869 C138.826639,28.0136955 138.573624,27.1252691 138.067587,26.6019809 C137.56155,26.0786928 136.796756,25.8170526 135.773181,25.8170526 C135.106133,25.8170526 134.508098,25.9521854 133.979059,26.2224551 C133.450021,26.4927248 133.007245,26.875122 132.650719,27.3696581 L132.650719,37.3753376 L134.686357,37.8928728 L134.686357,40.9118278 L125.198213,40.9118278 L125.198213,37.8928728 Z M147.365969,17.0362062 L147.365969,14 L155.094493,14 L155.094493,37.3753376 L157.526909,37.8928728 L157.526909,40.9118278 L147.624736,40.9118278 L147.624736,37.8928728 L150.057151,37.3753376 L150.057151,17.5537414 L147.365969,17.0362062 Z M159.010509,37.8928728 L161.442925,37.3753376 L161.442925,25.7998014 L158.751742,25.2822663 L158.751742,22.2460601 L166.480267,22.2460601 L166.480267,37.3753376 L168.895431,37.8928728 L168.895431,40.9118278 L159.010509,40.9118278 L159.010509,37.8928728 Z M166.480267,17.7780066 L161.442925,17.7780066 L161.442925,14 L166.480267,14 L166.480267,17.7780066 Z M176.710212,40.9118278 L171.690121,40.9118278 L171.690121,36.4955279 L176.710212,36.4955279 L176.710212,40.9118278 Z" id="Topjianli.com" fill="#193651"></path>
    </g>
</svg>