<svg width="20" height="20" viewBox="0 0 20 20" fill="none" xmlns="http://www.w3.org/2000/svg">
<path fill-rule="evenodd" clip-rule="evenodd" d="M10 20C15.5228 20 20 15.5228 20 10C20 4.47715 15.5228 0 10 0C4.47715 0 0 4.47715 0 10C0 15.5228 4.47715 20 10 20ZM10 18.1818C5.48131 18.1818 1.81818 14.5187 1.81818 10C1.81818 5.48131 5.48131 1.81818 10 1.81818C14.5187 1.81818 18.1818 5.48131 18.1818 10C18.1818 14.5187 14.5187 18.1818 10 18.1818ZM10 15.7851C6.77686 15.7851 4.21488 13.2231 4.21488 10C4.21488 6.77686 6.77686 4.21488 10 4.21488C13.2231 4.21488 15.7851 6.77686 15.7851 10C15.7851 13.2231 13.2231 15.7851 10 15.7851ZM10 14.1322C12.314 14.1322 14.1322 12.314 14.1322 10C14.1322 7.68595 12.314 5.86777 10 5.86777C7.68595 5.86777 5.86777 7.68595 5.86777 10C5.86777 12.314 7.68595 14.1322 10 14.1322ZM11.6529 10C11.6529 10.9129 10.9129 11.6529 10 11.6529C9.08713 11.6529 8.34711 10.9129 8.34711 10C8.34711 9.08713 9.08713 8.34711 10 8.34711C10.9129 8.34711 11.6529 9.08713 11.6529 10Z" fill="white"/>
</svg>
