<?xml version="1.0" encoding="UTF-8"?>
<svg width="364px" height="55px" viewBox="0 0 364 55" version="1.1" xmlns="http://www.w3.org/2000/svg" xmlns:xlink="http://www.w3.org/1999/xlink">
    <!-- Generator: Sketch 53.2 (72643) - https://sketchapp.com -->
    <title>Group 2@2x</title>
    <desc>Created with Sketch.</desc>
    <defs>
        <linearGradient x1="80.5619835%" y1="100%" x2="19.4380165%" y2="0%" id="linearGradient-1">
            <stop stop-color="#FF4B1F" offset="0%"></stop>
            <stop stop-color="#F06B3B" offset="100%"></stop>
        </linearGradient>
    </defs>
    <g id="Page-1" stroke="none" stroke-width="1" fill="none" fill-rule="evenodd">
        <g id="Artboard" transform="translate(-4.000000, -6.000000)">
            <g id="Group-2" transform="translate(4.000000, 6.000000)">
                <polygon id="Rectangle-3-Copy" fill="url(#linearGradient-1)" points="2.85302557 0 39.1818866 4.21989828 43 50.3152054 0 55"></polygon>
                <g id="Onlinelebenslauf.com" transform="translate(15.000000, 11.000000)" fill-rule="nonzero">
                    <path d="M21.6252226,14.5161851 C21.6252226,18.1004462 20.6258852,21.0630176 18.6271804,23.4039882 C16.6284756,25.7449587 14.0127235,26.9154265 10.7798458,26.9154265 C7.55788996,26.9154265 4.95579009,25.7449587 2.97346811,23.4039882 C0.991146123,21.0630176 -4.26325641e-14,18.1004462 -4.26325641e-14,14.5161851 L-4.26325641e-14,14.14656 C-4.26325641e-14,10.5847005 0.988415693,7.62772938 2.96527673,5.275558 C4.94213777,2.92338662 7.54150722,1.74731857 10.7634631,1.74731857 C13.9963408,1.74731857 16.6148232,2.92338662 18.618989,5.275558 C20.6231547,7.62772938 21.6252226,10.5847005 21.6252226,14.14656 L21.6252226,14.5161851 Z M16.857844,14.1129577 C16.857844,11.5815733 16.3445231,9.52625434 15.317866,7.94693928 C14.2912089,6.36762421 12.7730898,5.57797852 10.7634631,5.57797852 C8.75383637,5.57797852 7.25483025,6.36202389 6.26639973,7.93013814 C5.27796921,9.49825239 4.78376136,11.5591716 4.78376136,14.1129577 L4.78376136,14.5161851 C4.78376136,17.0923728 5.28343007,19.1672928 6.28278247,20.7410075 C7.28213487,22.3147221 8.78114099,23.1015677 10.7798458,23.1015677 C12.8003944,23.1015677 14.3185135,22.3147221 15.3342487,20.7410075 C16.349984,19.1672928 16.857844,17.0923728 16.857844,14.5161851 L16.857844,14.1129577 Z M23.394559,23.622403 L25.6881432,23.1183688 L25.6881432,11.8448038 L23.1488178,11.3407696 L23.1488178,8.38376892 L30.1442497,8.38376892 L30.3572253,10.9879456 C30.9470071,10.0582779 31.6733015,9.3358361 32.5361303,8.82059856 C33.3989592,8.30536102 34.3655314,8.04774612 35.4358761,8.04774612 C37.2270651,8.04774612 38.6250453,8.62457949 39.6298587,9.77826355 C40.634672,10.9319476 41.1370711,12.7408523 41.1370711,15.2050318 L41.1370711,23.1183688 L43.4306554,23.622403 L43.4306554,26.5626025 L34.289084,26.5626025 L34.289084,23.622403 L36.336927,23.1183688 L36.336927,15.2218329 C36.336927,14.000944 36.0966492,13.1356939 35.6160863,12.6260568 C35.1355234,12.1164197 34.409229,11.8616049 33.4371813,11.8616049 C32.803712,11.8616049 32.2357825,11.9932125 31.7333759,12.2564317 C31.2309692,12.5196509 30.810483,12.8920724 30.4719045,13.3737075 L30.4719045,23.1183688 L32.4050684,23.622403 L32.4050684,26.5626025 L23.394559,26.5626025 L23.394559,23.622403 Z M44.4463855,3.3098246 L44.4463855,0.352823943 L51.785855,0.352823943 L51.785855,23.1183688 L54.0958219,23.622403 L54.0958219,26.5626025 L44.6921267,26.5626025 L44.6921267,23.622403 L47.0020936,23.1183688 L47.0020936,3.81385881 L44.4463855,3.3098246 Z M55.504738,23.622403 L57.8147049,23.1183688 L57.8147049,11.8448038 L55.2589968,11.3407696 L55.2589968,8.38376892 L62.5984663,8.38376892 L62.5984663,23.1183688 L64.8920505,23.622403 L64.8920505,26.5626025 L55.504738,26.5626025 L55.504738,23.622403 Z M62.5984663,4.03227363 L57.8147049,4.03227363 L57.8147049,0.352823943 L62.5984663,0.352823943 L62.5984663,4.03227363 Z M66.20267,23.622403 L68.4962543,23.1183688 L68.4962543,11.8448038 L65.9569289,11.3407696 L65.9569289,8.38376892 L72.9523607,8.38376892 L73.1653364,10.9879456 C73.7551182,10.0582779 74.4814126,9.3358361 75.3442414,8.82059856 C76.2070703,8.30536102 77.1736425,8.04774612 78.2439872,8.04774612 C80.0351762,8.04774612 81.4331564,8.62457949 82.4379697,9.77826355 C83.4427831,10.9319476 83.9451822,12.7408523 83.9451822,15.2050318 L83.9451822,23.1183688 L86.2387664,23.622403 L86.2387664,26.5626025 L77.0971951,26.5626025 L77.0971951,23.622403 L79.1450381,23.1183688 L79.1450381,15.2218329 C79.1450381,14.000944 78.9047603,13.1356939 78.4241974,12.6260568 C77.9436344,12.1164197 77.21734,11.8616049 76.2452923,11.8616049 C75.6118231,11.8616049 75.0438936,11.9932125 74.5414869,12.2564317 C74.0390803,12.5196509 73.618594,12.8920724 73.2800156,13.3737075 L73.2800156,23.1183688 L75.2131795,23.622403 L75.2131795,26.5626025 L66.20267,26.5626025 L66.20267,23.622403 Z M96.2486232,26.9154265 C93.6929023,26.9154265 91.6505406,26.0753779 90.1214768,24.3952555 C88.5924131,22.715133 87.8278926,20.5814096 87.8278926,17.9940211 L87.8278926,17.3219755 C87.8278926,14.6225788 88.5514566,12.3992501 89.9986063,10.6519228 C91.4457559,8.90459553 93.3870917,8.0365453 95.8226719,8.04774612 C98.2145645,8.04774612 100.071257,8.78698889 101.392805,10.2654966 C102.714353,11.7440043 103.375117,13.74332 103.375117,16.2635036 L103.375117,18.9348849 L92.7918642,18.9348849 L92.7590987,19.0356918 C92.8464738,20.2341791 93.2369253,21.2198361 93.9304649,21.9926924 C94.6240046,22.7655487 95.5660029,23.1519711 96.7564883,23.1519711 C97.8159111,23.1519711 98.6951096,23.0427648 99.3941102,22.8243489 C100.093111,22.6059329 100.857631,22.261513 101.687694,21.7910787 L102.981931,24.815284 C102.250165,25.4089272 101.302706,25.907356 100.139525,26.3105854 C98.9763444,26.7138148 97.6793901,26.9154265 96.2486232,26.9154265 Z M95.8226719,11.8280026 C94.9379993,11.8280026 94.2390092,12.1752227 93.7256806,12.8696733 C93.212352,13.5641239 92.8956222,14.4769767 92.7754814,15.6082592 L92.8246297,15.6922649 L98.6896522,15.6922649 L98.6896522,15.2554352 C98.6896522,14.2137593 98.4521047,13.3821112 97.9770028,12.7604659 C97.5019008,12.1388206 96.7837977,11.8280026 95.8226719,11.8280026 Z M105.128071,3.3098246 L105.128071,0.352823943 L112.46754,0.352823943 L112.46754,23.1183688 L114.777507,23.622403 L114.777507,26.5626025 L105.373812,26.5626025 L105.373812,23.622403 L107.683779,23.1183688 L107.683779,3.81385881 L105.128071,3.3098246 Z M124.820129,26.9154265 C122.264409,26.9154265 120.222047,26.0753779 118.692983,24.3952555 C117.163919,22.715133 116.399399,20.5814096 116.399399,17.9940211 L116.399399,17.3219755 C116.399399,14.6225788 117.122963,12.3992501 118.570112,10.6519228 C120.017262,8.90459553 121.958598,8.0365453 124.394178,8.04774612 C126.786071,8.04774612 128.642763,8.78698889 129.964311,10.2654966 C131.285859,11.7440043 131.946623,13.74332 131.946623,16.2635036 L131.946623,18.9348849 L121.36337,18.9348849 L121.330605,19.0356918 C121.41798,20.2341791 121.808431,21.2198361 122.501971,21.9926924 C123.195511,22.7655487 124.137509,23.1519711 125.327995,23.1519711 C126.387417,23.1519711 127.266616,23.0427648 127.965616,22.8243489 C128.664617,22.6059329 129.429137,22.261513 130.259201,21.7910787 L131.553437,24.815284 C130.821671,25.4089272 129.874212,25.907356 128.711031,26.3105854 C127.547851,26.7138148 126.250896,26.9154265 124.820129,26.9154265 Z M124.394178,11.8280026 C123.509505,11.8280026 122.810515,12.1752227 122.297187,12.8696733 C121.783858,13.5641239 121.467128,14.4769767 121.346988,15.6082592 L121.396136,15.6922649 L127.261158,15.6922649 L127.261158,15.2554352 C127.261158,14.2137593 127.023611,13.3821112 126.548509,12.7604659 C126.073407,12.1388206 125.355304,11.8280026 124.394178,11.8280026 Z M151.343793,17.9772199 C151.343793,20.6878174 150.75402,22.8551428 149.574456,24.4792612 C148.394893,26.1033795 146.691104,26.9154265 144.46304,26.9154265 C143.425461,26.9154265 142.524419,26.6942137 141.759887,26.2517814 C140.995355,25.8093492 140.350974,25.1681121 139.826723,24.3280509 L139.482686,26.5626025 L135.354234,26.5626025 L135.354234,3.81385881 L132.814909,3.3098246 L132.814909,0.352823943 L140.121613,0.352823943 L140.121613,10.3159 C140.634941,9.58784699 141.249288,9.02781458 141.964671,8.63578602 C142.680055,8.24375746 143.501914,8.04774612 144.430274,8.04774612 C146.680183,8.04774612 148.394893,8.91859651 149.574456,10.6603234 C150.75402,12.4020503 151.343793,14.7233846 151.343793,17.624396 L151.343793,17.9772199 Z M146.576414,17.624396 C146.576414,15.854667 146.322484,14.4517859 145.814616,13.4157104 C145.306749,12.3796349 144.441202,11.8616049 143.217951,11.8616049 C142.475263,11.8616049 141.847264,12.0212142 141.333936,12.3404374 C140.820607,12.6596607 140.416504,13.1160871 140.121613,13.7097303 L140.121613,21.3878514 C140.416504,21.9478922 140.823338,22.3735168 141.342127,22.664738 C141.860917,22.9559592 142.497107,23.1015677 143.250717,23.1015677 C144.48489,23.1015677 145.347706,22.6563419 145.83919,21.765877 C146.330675,20.8754121 146.576414,19.6125391 146.576414,17.9772199 L146.576414,17.624396 Z M162.041725,26.9154265 C159.486004,26.9154265 157.443642,26.0753779 155.914578,24.3952555 C154.385514,22.715133 153.620994,20.5814096 153.620994,17.9940211 L153.620994,17.3219755 C153.620994,14.6225788 154.344558,12.3992501 155.791708,10.6519228 C157.238857,8.90459553 159.180193,8.0365453 161.615773,8.04774612 C164.007666,8.04774612 165.864358,8.78698889 167.185906,10.2654966 C168.507454,11.7440043 169.168218,13.74332 169.168218,16.2635036 L169.168218,18.9348849 L158.584966,18.9348849 L158.5522,19.0356918 C158.639575,20.2341791 159.030027,21.2198361 159.723566,21.9926924 C160.417106,22.7655487 161.359104,23.1519711 162.54959,23.1519711 C163.609013,23.1519711 164.488211,23.0427648 165.187212,22.8243489 C165.886212,22.6059329 166.650733,22.261513 167.480796,21.7910787 L168.775033,24.815284 C168.043266,25.4089272 167.095807,25.907356 165.932626,26.3105854 C164.769446,26.7138148 163.472492,26.9154265 162.041725,26.9154265 Z M161.615773,11.8280026 C160.731101,11.8280026 160.032111,12.1752227 159.518782,12.8696733 C159.005453,13.5641239 158.688724,14.4769767 158.568583,15.6082592 L158.617731,15.6922649 L164.482754,15.6922649 L164.482754,15.2554352 C164.482754,14.2137593 164.245206,13.3821112 163.770104,12.7604659 C163.295002,12.1388206 162.576899,11.8280026 161.615773,11.8280026 Z M171.166913,23.622403 L173.460498,23.1183688 L173.460498,11.8448038 L170.921172,11.3407696 L170.921172,8.38376892 L177.916604,8.38376892 L178.12958,10.9879456 C178.719361,10.0582779 179.445656,9.3358361 180.308485,8.82059856 C181.171314,8.30536102 182.137886,8.04774612 183.20823,8.04774612 C184.999419,8.04774612 186.3974,8.62457949 187.402213,9.77826355 C188.407026,10.9319476 188.909425,12.7408523 188.909425,15.2050318 L188.909425,23.1183688 L191.20301,23.622403 L191.20301,26.5626025 L182.061438,26.5626025 L182.061438,23.622403 L184.109281,23.1183688 L184.109281,15.2218329 C184.109281,14.000944 183.869004,13.1356939 183.388441,12.6260568 C182.907878,12.1164197 182.181583,11.8616049 181.209536,11.8616049 C180.576066,11.8616049 180.008137,11.9932125 179.50573,12.2564317 C179.003324,12.5196509 178.582837,12.8920724 178.244259,13.3737075 L178.244259,23.1183688 L180.177423,23.622403 L180.177423,26.5626025 L171.166913,26.5626025 L171.166913,23.622403 Z M207.192568,14.633793 L203.98155,14.633793 L203.473685,12.3656391 C203.146029,12.0968195 202.733734,11.8728066 202.236788,11.6935935 C201.739842,11.5143805 201.191026,11.4247753 200.590322,11.4247753 C199.749337,11.4247753 199.083112,11.6179865 198.591627,12.0044146 C198.100143,12.3908428 197.854404,12.8752708 197.854404,13.4577132 C197.854404,14.0065532 198.089221,14.4629796 198.558862,14.8270062 C199.028503,15.1910327 199.967771,15.5130513 201.376694,15.7930717 C203.571993,16.2411044 205.199329,16.8991424 206.258752,17.7672057 C207.318175,18.6352689 207.847878,19.8309381 207.847878,21.3542491 C207.847878,22.9895682 207.16254,24.3252455 205.791844,25.361321 C204.421147,26.3973965 202.616333,26.9154265 200.377347,26.9154265 C199.012111,26.9154265 197.758844,26.7110146 196.617507,26.3021849 C195.47617,25.8933551 194.46318,25.3081212 193.578508,24.5464657 L193.529359,20.4637887 L196.871439,20.4637887 L197.526749,22.8327494 C197.810718,23.0791674 198.198439,23.2611779 198.689924,23.3787865 C199.181409,23.496395 199.69473,23.5551984 200.229902,23.5551984 C201.20195,23.5551984 201.941896,23.3759881 202.449764,23.017562 C202.957631,22.6591359 203.211561,22.1719077 203.211561,21.5558628 C203.211561,21.0182236 202.954901,20.5533967 202.441572,20.1613681 C201.928244,19.7693396 200.983515,19.4221195 199.607358,19.1196975 C197.521278,18.6828656 195.945819,18.0360282 194.880936,17.1791658 C193.816052,16.3223033 193.283618,15.1546358 193.283618,13.6761281 C193.283618,12.1528171 193.895235,10.8395411 195.118486,9.7362607 C196.341737,8.63298032 198.083751,8.0813484 200.344581,8.0813484 C201.720738,8.0813484 203.023154,8.27175942 204.251866,8.65258716 C205.480578,9.03341491 206.444419,9.5206431 207.14342,10.1142864 L207.192568,14.633793 Z M209.486152,3.3098246 L209.486152,0.352823943 L216.825622,0.352823943 L216.825622,23.1183688 L219.135589,23.622403 L219.135589,26.5626025 L209.731894,26.5626025 L209.731894,23.622403 L212.041861,23.1183688 L212.041861,3.81385881 L209.486152,3.3098246 Z M231.97966,26.5626025 C231.848598,26.2601805 231.73392,25.9493625 231.635623,25.6301393 C231.537326,25.310916 231.460874,24.9888974 231.406264,24.6640737 C230.838326,25.3361227 230.147528,25.8793541 229.333847,26.2937843 C228.520167,26.7082145 227.58909,26.9154265 226.540589,26.9154265 C224.80401,26.9154265 223.425143,26.4309984 222.403946,25.4621279 C221.38275,24.4932573 220.87216,23.174381 220.87216,21.5054594 C220.87216,19.8029353 221.538385,18.4868592 222.870855,17.5571914 C224.203324,16.6275237 226.158312,16.1626968 228.735877,16.1626968 L231.176906,16.1626968 L231.176906,14.3817759 C231.176906,13.5081123 230.931167,12.8304731 230.439682,12.348838 C229.948198,11.8672029 229.221903,11.626389 228.260777,11.626389 C227.714683,11.626389 227.228667,11.6907927 226.802713,11.8196021 C226.37676,11.9484115 226.032726,12.1024204 225.7706,12.2816334 L225.459328,14.2305657 L221.855124,14.2305657 L221.871507,10.1982921 C222.745258,9.59344798 223.747326,9.0838185 224.877741,8.6693883 C226.008156,8.25495811 227.23958,8.04774612 228.57205,8.04774612 C230.767348,8.04774612 232.550319,8.59937804 233.921016,9.70265842 C235.291712,10.8059388 235.97705,12.3768297 235.97705,14.4153782 L235.97705,21.9254879 C235.97705,22.2055083 235.97978,22.4687235 235.985241,22.7151414 C235.990702,22.9615594 236.009815,23.196773 236.042581,23.4207893 L237.500645,23.622403 L237.500645,26.5626025 L231.97966,26.5626025 Z M227.834826,23.2863802 C228.55567,23.2863802 229.210974,23.126771 229.800755,22.8075477 C230.390537,22.4883245 230.849249,22.0879013 231.176906,21.6062662 L231.176906,18.8340781 L228.735877,18.8340781 C227.720142,18.8340781 226.950161,19.0776922 226.42591,19.5649277 C225.90166,20.0521632 225.639538,20.637397 225.639538,21.3206468 C225.639538,21.9366917 225.833399,22.4183196 226.221126,22.7655449 C226.608853,23.1127702 227.146747,23.2863802 227.834826,23.2863802 Z M251.524274,24.2608463 C250.956337,25.1121084 250.254616,25.7673463 249.419092,26.2265797 C248.583568,26.6858132 247.630648,26.9154265 246.560303,26.9154265 C244.692661,26.9154265 243.22915,26.302191 242.169727,25.0757016 C241.110305,23.8492123 240.580601,21.9423019 240.580601,19.3549134 L240.580601,11.8448038 L238.631055,11.3407696 L238.631055,8.38376892 L245.364363,8.38376892 L245.364363,19.3885157 C245.364363,20.710212 245.580067,21.6594669 246.011481,22.2363089 C246.442895,22.813151 247.084546,23.1015677 247.936453,23.1015677 C248.690063,23.1015677 249.342636,22.9755604 249.894191,22.723542 C250.445747,22.4715237 250.896268,22.1103028 251.245768,21.6398685 L251.245768,11.8448038 L249.148777,11.3407696 L249.148777,8.38376892 L256.029529,8.38376892 L256.029529,23.1183688 L258.175669,23.622403 L258.175669,26.5626025 L251.835547,26.5626025 L251.524274,24.2608463 Z M260.321808,23.622403 L262.631775,23.1183688 L262.631775,11.8280026 L259.994153,11.8280026 L259.994153,8.38376892 L262.631775,8.38376892 L262.631775,6.36763211 C262.631775,4.32908358 263.205165,2.75819269 264.351963,1.6549123 C265.498761,0.551631918 267.109715,-8.70414851e-14 269.184873,-8.70414851e-14 C269.588983,-8.70414851e-14 270.001278,0.0308017822 270.42177,0.0924062707 C270.842263,0.154010759 271.303705,0.240815782 271.806112,0.352823943 L271.396543,3.99867135 C271.134418,3.95386808 270.880488,3.91466582 270.634746,3.88106337 C270.389003,3.84746092 270.102308,3.83065995 269.774652,3.83065995 C268.999198,3.83065995 268.412155,4.04907258 268.013507,4.48590441 C267.614858,4.92273624 267.415537,5.54997253 267.415537,6.36763211 L267.415537,8.38376892 L270.937827,8.38376892 L270.937827,11.8280026 L267.415537,11.8280026 L267.415537,23.1183688 L269.725503,23.622403 L269.725503,26.5626025 L260.321808,26.5626025 L260.321808,23.622403 Z M278.391975,26.5626025 L273.624597,26.5626025 L273.624597,22.2615107 L278.391975,22.2615107 L278.391975,26.5626025 Z" id="Onlinelebenslauf." fill="#232930"></path>
                    <path d="M289.220969,25.2185113 C290.520674,25.2185113 291.667454,24.8376893 292.661346,24.0760338 C293.655237,23.3143783 294.152175,22.2559171 294.152175,20.9006183 L295.888746,20.9006183 L295.921512,21.0014252 C295.976121,22.6815476 295.323548,24.0872289 293.963774,25.2185113 C292.603999,26.3497937 291.02308,26.9154265 289.220969,26.9154265 C286.818155,26.9154265 284.956001,26.0669774 283.634453,24.3700537 C282.312905,22.6731301 281.652141,20.4918039 281.652141,17.8260097 L281.652141,17.1203618 C281.652141,14.4769692 282.312905,12.3040435 283.634453,10.6015194 C284.956001,8.89899537 286.812694,8.04774612 289.204587,8.04774612 C290.569822,8.04774612 291.820359,8.31096135 292.956235,8.8373997 C294.092111,9.36383806 295.014996,10.0806795 295.724919,10.9879456 L295.806833,14.9530147 L294.135793,14.9530147 L293.82452,11.7271958 C293.30027,11.1223517 292.647697,10.643524 291.866783,10.2906983 C291.085868,9.93787262 290.198478,9.76146241 289.204587,9.76146241 C287.304179,9.76146241 285.898007,10.4587028 284.98603,11.8532044 C284.074053,13.247706 283.618071,15.0034075 283.618071,17.1203618 L283.618071,17.8260097 C283.618071,19.9765664 284.071322,21.7462688 284.977839,23.1351699 C285.884355,24.5240711 287.298718,25.2185113 289.220969,25.2185113 Z M299.574864,17.2043675 C299.574864,14.5273724 300.290236,12.3320454 301.721003,10.6183206 C303.15177,8.9045957 305.046689,8.04774612 307.405816,8.04774612 C309.775864,8.04774612 311.676244,8.9045957 313.107011,10.6183206 C314.537777,12.3320454 315.25315,14.5273724 315.25315,17.2043675 L315.25315,17.7588051 C315.25315,20.447001 314.540508,22.6451282 313.115202,24.3532526 C311.689896,26.0613771 309.797708,26.9154265 307.438581,26.9154265 C305.05761,26.9154265 303.15177,26.0613771 301.721003,24.3532526 C300.290236,22.6451282 299.574864,20.447001 299.574864,17.7588051 L299.574864,17.2043675 Z M301.540793,17.7588051 C301.540793,19.8645585 302.059575,21.6342609 303.097154,23.0679654 C304.134733,24.5016698 305.581861,25.2185113 307.438581,25.2185113 C309.262536,25.2185113 310.693281,24.5016698 311.73086,23.0679654 C312.768439,21.6342609 313.287221,19.8645585 313.287221,17.7588051 L313.287221,17.2043675 C313.287221,15.1322165 312.765709,13.3737148 311.722669,11.9288095 C310.679629,10.4839042 309.240692,9.76146241 307.405816,9.76146241 C305.570939,9.76146241 304.134733,10.4839042 303.097154,11.9288095 C302.059575,13.3737148 301.540793,15.1322165 301.540793,17.2043675 L301.540793,17.7588051 Z M318.021834,9.87907039 L318.021834,8.38376892 L322.428792,8.38376892 L322.609002,11.391173 C323.17694,10.3270955 323.936,9.50384784 324.886204,8.9214054 C325.836408,8.33896297 326.966806,8.04774612 328.277432,8.04774612 C329.631746,8.04774612 330.762144,8.38656572 331.66866,9.06421509 C332.575176,9.74186447 333.225019,10.7751243 333.618207,12.1640254 C334.153379,10.8871324 334.915169,9.88187425 335.903599,9.1482208 C336.89203,8.41456734 338.09615,8.04774612 339.515995,8.04774612 C341.405481,8.04774612 342.866261,8.69178338 343.898379,9.97987723 C344.930497,11.2679711 345.446548,13.2616864 345.446548,15.9610831 L345.446548,24.8488862 L348.116935,25.0841022 L348.116935,26.5626025 L340.793849,26.5626025 L340.793849,25.0841022 L343.464236,24.8488862 L343.464236,15.9274808 C343.464236,13.6873176 343.079245,12.1052261 342.309252,11.1811588 C341.53926,10.2570914 340.466201,9.79506469 339.090043,9.79506469 C337.560979,9.79506469 336.384164,10.2934935 335.559562,11.2903662 C334.73496,12.2872388 334.224369,13.5585123 334.027775,15.104225 C334.027775,15.1938315 334.030506,15.2778364 334.035967,15.3562421 C334.041428,15.4346478 334.044158,15.5354536 334.044158,15.6586626 L334.044158,24.8656874 L336.714545,25.0841022 L336.714545,26.5626025 L329.407841,26.5626025 L329.407841,25.0841022 L332.078229,24.8656874 L332.078229,15.9274808 C332.078229,13.7321209 331.687777,12.16123 330.906862,11.214761 C330.125948,10.2682921 329.052889,9.79506469 327.687653,9.79506469 C326.289652,9.79506469 325.183828,10.1562856 324.370147,10.8787382 C323.556467,11.6011909 322.985807,12.5728471 322.658151,13.793736 L322.658151,24.8656874 L325.328538,25.0841022 L325.328538,26.5626025 L318.021834,26.5626025 L318.021834,25.0841022 L320.692221,24.8656874 L320.692221,10.0974852 L318.021834,9.87907039 Z" id="com" fill="#FF6767"></path>
                </g>
            </g>
        </g>
    </g>
</svg>