<?xml version="1.0" encoding="UTF-8"?>
<svg width="364px" height="55px" viewBox="0 0 364 55" version="1.1" xmlns="http://www.w3.org/2000/svg" xmlns:xlink="http://www.w3.org/1999/xlink">
    <!-- Generator: Sketch 53.2 (72643) - https://sketchapp.com -->
    <title>Group</title>
    <desc>Created with Sketch.</desc>
    <g id="Page-1" stroke="none" stroke-width="1" fill="none" fill-rule="evenodd">
        <g id="Artboard" transform="translate(-57.000000, -31.000000)" fill-rule="nonzero">
            <g id="Group" transform="translate(57.000000, 31.000000)">
                <polygon id="Rectangle-3-Copy" fill="#FFFFFF" points="2.85302557 0 39.1818866 4.21989828 43 50.3152054 0 55"></polygon>
                <path d="M36.6252226,25.5161851 C36.6252226,29.1004462 35.6258852,32.0630176 33.6271804,34.4039882 C31.6284756,36.7449587 29.0127235,37.9154265 25.7798458,37.9154265 C22.55789,37.9154265 19.9557901,36.7449587 17.9734681,34.4039882 C15.9911461,32.0630176 15,29.1004462 15,25.5161851 L15,25.14656 C15,21.5847005 15.9884157,18.6277294 17.9652767,16.275558 C19.9421378,13.9233866 22.5415072,12.7473186 25.7634631,12.7473186 C28.9963408,12.7473186 31.6148232,13.9233866 33.618989,16.275558 C35.6231547,18.6277294 36.6252226,21.5847005 36.6252226,25.14656 L36.6252226,25.5161851 Z M31.857844,25.1129577 C31.857844,22.5815733 31.3445231,20.5262543 30.317866,18.9469393 C29.2912089,17.3676242 27.7730898,16.5779785 25.7634631,16.5779785 C23.7538364,16.5779785 22.2548303,17.3620239 21.2663997,18.9301381 C20.2779692,20.4982524 19.7837614,22.5591716 19.7837614,25.1129577 L19.7837614,25.5161851 C19.7837614,28.0923728 20.2834301,30.1672928 21.2827825,31.7410075 C22.2821349,33.3147221 23.781141,34.1015677 25.7798458,34.1015677 C27.8003944,34.1015677 29.3185135,33.3147221 30.3342487,31.7410075 C31.349984,30.1672928 31.857844,28.0923728 31.857844,25.5161851 L31.857844,25.1129577 Z M38.394559,34.622403 L40.6881432,34.1183688 L40.6881432,22.8448038 L38.1488178,22.3407696 L38.1488178,19.3837689 L45.1442497,19.3837689 L45.3572253,21.9879456 C45.9470071,21.0582779 46.6733015,20.3358361 47.5361303,19.8205986 C48.3989592,19.305361 49.3655314,19.0477461 50.4358761,19.0477461 C52.2270651,19.0477461 53.6250453,19.6245795 54.6298587,20.7782635 C55.634672,21.9319476 56.1370711,23.7408523 56.1370711,26.2050318 L56.1370711,34.1183688 L58.4306554,34.622403 L58.4306554,37.5626025 L49.289084,37.5626025 L49.289084,34.622403 L51.336927,34.1183688 L51.336927,26.2218329 C51.336927,25.000944 51.0966492,24.1356939 50.6160863,23.6260568 C50.1355234,23.1164197 49.409229,22.8616049 48.4371813,22.8616049 C47.803712,22.8616049 47.2357825,22.9932125 46.7333759,23.2564317 C46.2309692,23.5196509 45.810483,23.8920724 45.4719045,24.3737075 L45.4719045,34.1183688 L47.4050684,34.622403 L47.4050684,37.5626025 L38.394559,37.5626025 L38.394559,34.622403 Z M59.4463855,14.3098246 L59.4463855,11.3528239 L66.785855,11.3528239 L66.785855,34.1183688 L69.0958219,34.622403 L69.0958219,37.5626025 L59.6921267,37.5626025 L59.6921267,34.622403 L62.0020936,34.1183688 L62.0020936,14.8138588 L59.4463855,14.3098246 Z M70.504738,34.622403 L72.8147049,34.1183688 L72.8147049,22.8448038 L70.2589968,22.3407696 L70.2589968,19.3837689 L77.5984663,19.3837689 L77.5984663,34.1183688 L79.8920505,34.622403 L79.8920505,37.5626025 L70.504738,37.5626025 L70.504738,34.622403 Z M77.5984663,15.0322736 L72.8147049,15.0322736 L72.8147049,11.3528239 L77.5984663,11.3528239 L77.5984663,15.0322736 Z M81.20267,34.622403 L83.4962543,34.1183688 L83.4962543,22.8448038 L80.9569289,22.3407696 L80.9569289,19.3837689 L87.9523607,19.3837689 L88.1653364,21.9879456 C88.7551182,21.0582779 89.4814126,20.3358361 90.3442414,19.8205986 C91.2070703,19.305361 92.1736425,19.0477461 93.2439872,19.0477461 C95.0351762,19.0477461 96.4331564,19.6245795 97.4379697,20.7782635 C98.4427831,21.9319476 98.9451822,23.7408523 98.9451822,26.2050318 L98.9451822,34.1183688 L101.238766,34.622403 L101.238766,37.5626025 L92.0971951,37.5626025 L92.0971951,34.622403 L94.1450381,34.1183688 L94.1450381,26.2218329 C94.1450381,25.000944 93.9047603,24.1356939 93.4241974,23.6260568 C92.9436344,23.1164197 92.21734,22.8616049 91.2452923,22.8616049 C90.6118231,22.8616049 90.0438936,22.9932125 89.5414869,23.2564317 C89.0390803,23.5196509 88.618594,23.8920724 88.2800156,24.3737075 L88.2800156,34.1183688 L90.2131795,34.622403 L90.2131795,37.5626025 L81.20267,37.5626025 L81.20267,34.622403 Z M111.248623,37.9154265 C108.692902,37.9154265 106.650541,37.0753779 105.121477,35.3952555 C103.592413,33.715133 102.827893,31.5814096 102.827893,28.9940211 L102.827893,28.3219755 C102.827893,25.6225788 103.551457,23.3992501 104.998606,21.6519228 C106.445756,19.9045955 108.387092,19.0365453 110.822672,19.0477461 C113.214565,19.0477461 115.071257,19.7869889 116.392805,21.2654966 C117.714353,22.7440043 118.375117,24.74332 118.375117,27.2635036 L118.375117,29.9348849 L107.791864,29.9348849 L107.759099,30.0356918 C107.846474,31.2341791 108.236925,32.2198361 108.930465,32.9926924 C109.624005,33.7655487 110.566003,34.1519711 111.756488,34.1519711 C112.815911,34.1519711 113.69511,34.0427648 114.39411,33.8243489 C115.093111,33.6059329 115.857631,33.261513 116.687694,32.7910787 L117.981931,35.815284 C117.250165,36.4089272 116.302706,36.907356 115.139525,37.3105854 C113.976344,37.7138148 112.67939,37.9154265 111.248623,37.9154265 Z M110.822672,22.8280026 C109.937999,22.8280026 109.239009,23.1752227 108.725681,23.8696733 C108.212352,24.5641239 107.895622,25.4769767 107.775481,26.6082592 L107.82463,26.6922649 L113.689652,26.6922649 L113.689652,26.2554352 C113.689652,25.2137593 113.452105,24.3821112 112.977003,23.7604659 C112.501901,23.1388206 111.783798,22.8280026 110.822672,22.8280026 Z M120.128071,14.3098246 L120.128071,11.3528239 L127.46754,11.3528239 L127.46754,34.1183688 L129.777507,34.622403 L129.777507,37.5626025 L120.373812,37.5626025 L120.373812,34.622403 L122.683779,34.1183688 L122.683779,14.8138588 L120.128071,14.3098246 Z M139.820129,37.9154265 C137.264409,37.9154265 135.222047,37.0753779 133.692983,35.3952555 C132.163919,33.715133 131.399399,31.5814096 131.399399,28.9940211 L131.399399,28.3219755 C131.399399,25.6225788 132.122963,23.3992501 133.570112,21.6519228 C135.017262,19.9045955 136.958598,19.0365453 139.394178,19.0477461 C141.786071,19.0477461 143.642763,19.7869889 144.964311,21.2654966 C146.285859,22.7440043 146.946623,24.74332 146.946623,27.2635036 L146.946623,29.9348849 L136.36337,29.9348849 L136.330605,30.0356918 C136.41798,31.2341791 136.808431,32.2198361 137.501971,32.9926924 C138.195511,33.7655487 139.137509,34.1519711 140.327995,34.1519711 C141.387417,34.1519711 142.266616,34.0427648 142.965616,33.8243489 C143.664617,33.6059329 144.429137,33.261513 145.259201,32.7910787 L146.553437,35.815284 C145.821671,36.4089272 144.874212,36.907356 143.711031,37.3105854 C142.547851,37.7138148 141.250896,37.9154265 139.820129,37.9154265 Z M139.394178,22.8280026 C138.509505,22.8280026 137.810515,23.1752227 137.297187,23.8696733 C136.783858,24.5641239 136.467128,25.4769767 136.346988,26.6082592 L136.396136,26.6922649 L142.261158,26.6922649 L142.261158,26.2554352 C142.261158,25.2137593 142.023611,24.3821112 141.548509,23.7604659 C141.073407,23.1388206 140.355304,22.8280026 139.394178,22.8280026 Z M166.343793,28.9772199 C166.343793,31.6878174 165.75402,33.8551428 164.574456,35.4792612 C163.394893,37.1033795 161.691104,37.9154265 159.46304,37.9154265 C158.425461,37.9154265 157.524419,37.6942137 156.759887,37.2517814 C155.995355,36.8093492 155.350974,36.1681121 154.826723,35.3280509 L154.482686,37.5626025 L150.354234,37.5626025 L150.354234,14.8138588 L147.814909,14.3098246 L147.814909,11.3528239 L155.121613,11.3528239 L155.121613,21.3159 C155.634941,20.587847 156.249288,20.0278146 156.964671,19.635786 C157.680055,19.2437575 158.501914,19.0477461 159.430274,19.0477461 C161.680183,19.0477461 163.394893,19.9185965 164.574456,21.6603234 C165.75402,23.4020503 166.343793,25.7233846 166.343793,28.624396 L166.343793,28.9772199 Z M161.576414,28.624396 C161.576414,26.854667 161.322484,25.4517859 160.814616,24.4157104 C160.306749,23.3796349 159.441202,22.8616049 158.217951,22.8616049 C157.475263,22.8616049 156.847264,23.0212142 156.333936,23.3404374 C155.820607,23.6596607 155.416504,24.1160871 155.121613,24.7097303 L155.121613,32.3878514 C155.416504,32.9478922 155.823338,33.3735168 156.342127,33.664738 C156.860917,33.9559592 157.497107,34.1015677 158.250717,34.1015677 C159.48489,34.1015677 160.347706,33.6563419 160.83919,32.765877 C161.330675,31.8754121 161.576414,30.6125391 161.576414,28.9772199 L161.576414,28.624396 Z M177.041725,37.9154265 C174.486004,37.9154265 172.443642,37.0753779 170.914578,35.3952555 C169.385514,33.715133 168.620994,31.5814096 168.620994,28.9940211 L168.620994,28.3219755 C168.620994,25.6225788 169.344558,23.3992501 170.791708,21.6519228 C172.238857,19.9045955 174.180193,19.0365453 176.615773,19.0477461 C179.007666,19.0477461 180.864358,19.7869889 182.185906,21.2654966 C183.507454,22.7440043 184.168218,24.74332 184.168218,27.2635036 L184.168218,29.9348849 L173.584966,29.9348849 L173.5522,30.0356918 C173.639575,31.2341791 174.030027,32.2198361 174.723566,32.9926924 C175.417106,33.7655487 176.359104,34.1519711 177.54959,34.1519711 C178.609013,34.1519711 179.488211,34.0427648 180.187212,33.8243489 C180.886212,33.6059329 181.650733,33.261513 182.480796,32.7910787 L183.775033,35.815284 C183.043266,36.4089272 182.095807,36.907356 180.932626,37.3105854 C179.769446,37.7138148 178.472492,37.9154265 177.041725,37.9154265 Z M176.615773,22.8280026 C175.731101,22.8280026 175.032111,23.1752227 174.518782,23.8696733 C174.005453,24.5641239 173.688724,25.4769767 173.568583,26.6082592 L173.617731,26.6922649 L179.482754,26.6922649 L179.482754,26.2554352 C179.482754,25.2137593 179.245206,24.3821112 178.770104,23.7604659 C178.295002,23.1388206 177.576899,22.8280026 176.615773,22.8280026 Z M186.166913,34.622403 L188.460498,34.1183688 L188.460498,22.8448038 L185.921172,22.3407696 L185.921172,19.3837689 L192.916604,19.3837689 L193.12958,21.9879456 C193.719361,21.0582779 194.445656,20.3358361 195.308485,19.8205986 C196.171314,19.305361 197.137886,19.0477461 198.20823,19.0477461 C199.999419,19.0477461 201.3974,19.6245795 202.402213,20.7782635 C203.407026,21.9319476 203.909425,23.7408523 203.909425,26.2050318 L203.909425,34.1183688 L206.20301,34.622403 L206.20301,37.5626025 L197.061438,37.5626025 L197.061438,34.622403 L199.109281,34.1183688 L199.109281,26.2218329 C199.109281,25.000944 198.869004,24.1356939 198.388441,23.6260568 C197.907878,23.1164197 197.181583,22.8616049 196.209536,22.8616049 C195.576066,22.8616049 195.008137,22.9932125 194.50573,23.2564317 C194.003324,23.5196509 193.582837,23.8920724 193.244259,24.3737075 L193.244259,34.1183688 L195.177423,34.622403 L195.177423,37.5626025 L186.166913,37.5626025 L186.166913,34.622403 Z M222.192568,25.633793 L218.98155,25.633793 L218.473685,23.3656391 C218.146029,23.0968195 217.733734,22.8728066 217.236788,22.6935935 C216.739842,22.5143805 216.191026,22.4247753 215.590322,22.4247753 C214.749337,22.4247753 214.083112,22.6179865 213.591627,23.0044146 C213.100143,23.3908428 212.854404,23.8752708 212.854404,24.4577132 C212.854404,25.0065532 213.089221,25.4629796 213.558862,25.8270062 C214.028503,26.1910327 214.967771,26.5130513 216.376694,26.7930717 C218.571993,27.2411044 220.199329,27.8991424 221.258752,28.7672057 C222.318175,29.6352689 222.847878,30.8309381 222.847878,32.3542491 C222.847878,33.9895682 222.16254,35.3252455 220.791844,36.361321 C219.421147,37.3973965 217.616333,37.9154265 215.377347,37.9154265 C214.012111,37.9154265 212.758844,37.7110146 211.617507,37.3021849 C210.47617,36.8933551 209.46318,36.3081212 208.578508,35.5464657 L208.529359,31.4637887 L211.871439,31.4637887 L212.526749,33.8327494 C212.810718,34.0791674 213.198439,34.2611779 213.689924,34.3787865 C214.181409,34.496395 214.69473,34.5551984 215.229902,34.5551984 C216.20195,34.5551984 216.941896,34.3759881 217.449764,34.017562 C217.957631,33.6591359 218.211561,33.1719077 218.211561,32.5558628 C218.211561,32.0182236 217.954901,31.5533967 217.441572,31.1613681 C216.928244,30.7693396 215.983515,30.4221195 214.607358,30.1196975 C212.521278,29.6828656 210.945819,29.0360282 209.880936,28.1791658 C208.816052,27.3223033 208.283618,26.1546358 208.283618,24.6761281 C208.283618,23.1528171 208.895235,21.8395411 210.118486,20.7362607 C211.341737,19.6329803 213.083751,19.0813484 215.344581,19.0813484 C216.720738,19.0813484 218.023154,19.2717594 219.251866,19.6525872 C220.480578,20.0334149 221.444419,20.5206431 222.14342,21.1142864 L222.192568,25.633793 Z M224.486152,14.3098246 L224.486152,11.3528239 L231.825622,11.3528239 L231.825622,34.1183688 L234.135589,34.622403 L234.135589,37.5626025 L224.731894,37.5626025 L224.731894,34.622403 L227.041861,34.1183688 L227.041861,14.8138588 L224.486152,14.3098246 Z M246.97966,37.5626025 C246.848598,37.2601805 246.73392,36.9493625 246.635623,36.6301393 C246.537326,36.310916 246.460874,35.9888974 246.406264,35.6640737 C245.838326,36.3361227 245.147528,36.8793541 244.333847,37.2937843 C243.520167,37.7082145 242.58909,37.9154265 241.540589,37.9154265 C239.80401,37.9154265 238.425143,37.4309984 237.403946,36.4621279 C236.38275,35.4932573 235.87216,34.174381 235.87216,32.5054594 C235.87216,30.8029353 236.538385,29.4868592 237.870855,28.5571914 C239.203324,27.6275237 241.158312,27.1626968 243.735877,27.1626968 L246.176906,27.1626968 L246.176906,25.3817759 C246.176906,24.5081123 245.931167,23.8304731 245.439682,23.348838 C244.948198,22.8672029 244.221903,22.626389 243.260777,22.626389 C242.714683,22.626389 242.228667,22.6907927 241.802713,22.8196021 C241.37676,22.9484115 241.032726,23.1024204 240.7706,23.2816334 L240.459328,25.2305657 L236.855124,25.2305657 L236.871507,21.1982921 C237.745258,20.593448 238.747326,20.0838185 239.877741,19.6693883 C241.008156,19.2549581 242.23958,19.0477461 243.57205,19.0477461 C245.767348,19.0477461 247.550319,19.599378 248.921016,20.7026584 C250.291712,21.8059388 250.97705,23.3768297 250.97705,25.4153782 L250.97705,32.9254879 C250.97705,33.2055083 250.97978,33.4687235 250.985241,33.7151414 C250.990702,33.9615594 251.009815,34.196773 251.042581,34.4207893 L252.500645,34.622403 L252.500645,37.5626025 L246.97966,37.5626025 Z M242.834826,34.2863802 C243.55567,34.2863802 244.210974,34.126771 244.800755,33.8075477 C245.390537,33.4883245 245.849249,33.0879013 246.176906,32.6062662 L246.176906,29.8340781 L243.735877,29.8340781 C242.720142,29.8340781 241.950161,30.0776922 241.42591,30.5649277 C240.90166,31.0521632 240.639538,31.637397 240.639538,32.3206468 C240.639538,32.9366917 240.833399,33.4183196 241.221126,33.7655449 C241.608853,34.1127702 242.146747,34.2863802 242.834826,34.2863802 Z M266.524274,35.2608463 C265.956337,36.1121084 265.254616,36.7673463 264.419092,37.2265797 C263.583568,37.6858132 262.630648,37.9154265 261.560303,37.9154265 C259.692661,37.9154265 258.22915,37.302191 257.169727,36.0757016 C256.110305,34.8492123 255.580601,32.9423019 255.580601,30.3549134 L255.580601,22.8448038 L253.631055,22.3407696 L253.631055,19.3837689 L260.364363,19.3837689 L260.364363,30.3885157 C260.364363,31.710212 260.580067,32.6594669 261.011481,33.2363089 C261.442895,33.813151 262.084546,34.1015677 262.936453,34.1015677 C263.690063,34.1015677 264.342636,33.9755604 264.894191,33.723542 C265.445747,33.4715237 265.896268,33.1103028 266.245768,32.6398685 L266.245768,22.8448038 L264.148777,22.3407696 L264.148777,19.3837689 L271.029529,19.3837689 L271.029529,34.1183688 L273.175669,34.622403 L273.175669,37.5626025 L266.835547,37.5626025 L266.524274,35.2608463 Z M275.321808,34.622403 L277.631775,34.1183688 L277.631775,22.8280026 L274.994153,22.8280026 L274.994153,19.3837689 L277.631775,19.3837689 L277.631775,17.3676321 C277.631775,15.3290836 278.205165,13.7581927 279.351963,12.6549123 C280.498761,11.5516319 282.109715,11 284.184873,11 C284.588983,11 285.001278,11.0308018 285.42177,11.0924063 C285.842263,11.1540108 286.303705,11.2408158 286.806112,11.3528239 L286.396543,14.9986713 C286.134418,14.9538681 285.880488,14.9146658 285.634746,14.8810634 C285.389003,14.8474609 285.102308,14.8306599 284.774652,14.8306599 C283.999198,14.8306599 283.412155,15.0490726 283.013507,15.4859044 C282.614858,15.9227362 282.415537,16.5499725 282.415537,17.3676321 L282.415537,19.3837689 L285.937827,19.3837689 L285.937827,22.8280026 L282.415537,22.8280026 L282.415537,34.1183688 L284.725503,34.622403 L284.725503,37.5626025 L275.321808,37.5626025 L275.321808,34.622403 Z M293.391975,37.5626025 L288.624597,37.5626025 L288.624597,33.2615107 L293.391975,33.2615107 L293.391975,37.5626025 Z" id="Onlinelebenslauf." fill="#17324E"></path>
                <path d="M304.220969,36.2185113 C305.520674,36.2185113 306.667454,35.8376893 307.661346,35.0760338 C308.655237,34.3143783 309.152175,33.2559171 309.152175,31.9006183 L310.888746,31.9006183 L310.921512,32.0014252 C310.976121,33.6815476 310.323548,35.0872289 308.963774,36.2185113 C307.603999,37.3497937 306.02308,37.9154265 304.220969,37.9154265 C301.818155,37.9154265 299.956001,37.0669774 298.634453,35.3700537 C297.312905,33.6731301 296.652141,31.4918039 296.652141,28.8260097 L296.652141,28.1203618 C296.652141,25.4769692 297.312905,23.3040435 298.634453,21.6015194 C299.956001,19.8989954 301.812694,19.0477461 304.204587,19.0477461 C305.569822,19.0477461 306.820359,19.3109613 307.956235,19.8373997 C309.092111,20.3638381 310.014996,21.0806795 310.724919,21.9879456 L310.806833,25.9530147 L309.135793,25.9530147 L308.82452,22.7271958 C308.30027,22.1223517 307.647697,21.643524 306.866783,21.2906983 C306.085868,20.9378726 305.198478,20.7614624 304.204587,20.7614624 C302.304179,20.7614624 300.898007,21.4587028 299.98603,22.8532044 C299.074053,24.247706 298.618071,26.0034075 298.618071,28.1203618 L298.618071,28.8260097 C298.618071,30.9765664 299.071322,32.7462688 299.977839,34.1351699 C300.884355,35.5240711 302.298718,36.2185113 304.220969,36.2185113 Z M314.574864,28.2043675 C314.574864,25.5273724 315.290236,23.3320454 316.721003,21.6183206 C318.15177,19.9045957 320.046689,19.0477461 322.405816,19.0477461 C324.775864,19.0477461 326.676244,19.9045957 328.107011,21.6183206 C329.537777,23.3320454 330.25315,25.5273724 330.25315,28.2043675 L330.25315,28.7588051 C330.25315,31.447001 329.540508,33.6451282 328.115202,35.3532526 C326.689896,37.0613771 324.797708,37.9154265 322.438581,37.9154265 C320.05761,37.9154265 318.15177,37.0613771 316.721003,35.3532526 C315.290236,33.6451282 314.574864,31.447001 314.574864,28.7588051 L314.574864,28.2043675 Z M316.540793,28.7588051 C316.540793,30.8645585 317.059575,32.6342609 318.097154,34.0679654 C319.134733,35.5016698 320.581861,36.2185113 322.438581,36.2185113 C324.262536,36.2185113 325.693281,35.5016698 326.73086,34.0679654 C327.768439,32.6342609 328.287221,30.8645585 328.287221,28.7588051 L328.287221,28.2043675 C328.287221,26.1322165 327.765709,24.3737148 326.722669,22.9288095 C325.679629,21.4839042 324.240692,20.7614624 322.405816,20.7614624 C320.570939,20.7614624 319.134733,21.4839042 318.097154,22.9288095 C317.059575,24.3737148 316.540793,26.1322165 316.540793,28.2043675 L316.540793,28.7588051 Z M333.021834,20.8790704 L333.021834,19.3837689 L337.428792,19.3837689 L337.609002,22.391173 C338.17694,21.3270955 338.936,20.5038478 339.886204,19.9214054 C340.836408,19.338963 341.966806,19.0477461 343.277432,19.0477461 C344.631746,19.0477461 345.762144,19.3865657 346.66866,20.0642151 C347.575176,20.7418645 348.225019,21.7751243 348.618207,23.1640254 C349.153379,21.8871324 349.915169,20.8818742 350.903599,20.1482208 C351.89203,19.4145673 353.09615,19.0477461 354.515995,19.0477461 C356.405481,19.0477461 357.866261,19.6917834 358.898379,20.9798772 C359.930497,22.2679711 360.446548,24.2616864 360.446548,26.9610831 L360.446548,35.8488862 L363.116935,36.0841022 L363.116935,37.5626025 L355.793849,37.5626025 L355.793849,36.0841022 L358.464236,35.8488862 L358.464236,26.9274808 C358.464236,24.6873176 358.079245,23.1052261 357.309252,22.1811588 C356.53926,21.2570914 355.466201,20.7950647 354.090043,20.7950647 C352.560979,20.7950647 351.384164,21.2934935 350.559562,22.2903662 C349.73496,23.2872388 349.224369,24.5585123 349.027775,26.104225 C349.027775,26.1938315 349.030506,26.2778364 349.035967,26.3562421 C349.041428,26.4346478 349.044158,26.5354536 349.044158,26.6586626 L349.044158,35.8656874 L351.714545,36.0841022 L351.714545,37.5626025 L344.407841,37.5626025 L344.407841,36.0841022 L347.078229,35.8656874 L347.078229,26.9274808 C347.078229,24.7321209 346.687777,23.16123 345.906862,22.214761 C345.125948,21.2682921 344.052889,20.7950647 342.687653,20.7950647 C341.289652,20.7950647 340.183828,21.1562856 339.370147,21.8787382 C338.556467,22.6011909 337.985807,23.5728471 337.658151,24.793736 L337.658151,35.8656874 L340.328538,36.0841022 L340.328538,37.5626025 L333.021834,37.5626025 L333.021834,36.0841022 L335.692221,35.8656874 L335.692221,21.0974852 L333.021834,20.8790704 Z" id="com" fill="#FFFFFF"></path>
            </g>
        </g>
    </g>
</svg>