<?xml version="1.0" encoding="UTF-8"?>
<svg width="84px" height="10px" viewBox="0 0 84 10" version="1.1" xmlns="http://www.w3.org/2000/svg" xmlns:xlink="http://www.w3.org/1999/xlink">
    <!-- Generator: Sketch 43.2 (39069) - http://www.bohemiancoding.com/sketch -->
    <title>leadcareer</title>
    <desc>Created with Sketch.</desc>
    <defs></defs>
    <g id="Page-1" stroke="none" stroke-width="1" fill="none" fill-rule="evenodd">
        <g fill="#9E9E9E">
            <path d="M2.12109375,8.08007812 L6.1640625,8.08007812 L6.1640625,9 L0.990234375,9 L0.990234375,0.46875 L2.12109375,0.46875 L2.12109375,8.08007812 Z M9.90820312,9.1171875 C9.04882383,9.1171875 8.34961207,8.83496376 7.81054688,8.27050781 C7.27148168,7.70605187 7.00195312,6.9511766 7.00195312,6.00585938 L7.00195312,5.80664062 C7.00195312,5.17773123 7.12206911,4.61621341 7.36230469,4.12207031 C7.60254026,3.62792722 7.9384744,3.24121233 8.37011719,2.96191406 C8.80175997,2.68261579 9.26952873,2.54296875 9.7734375,2.54296875 C10.5976604,2.54296875 11.238279,2.81445041 11.6953125,3.35742187 C12.152346,3.90039334 12.3808594,4.67772932 12.3808594,5.68945312 L12.3808594,6.140625 L8.0859375,6.140625 C8.10156258,6.76562812 8.28417794,7.27050589 8.63378906,7.65527344 C8.98340019,8.04004099 9.42773168,8.23242188 9.96679688,8.23242188 C10.3496113,8.23242188 10.6738268,8.15429766 10.9394531,7.99804688 C11.2050795,7.84179609 11.437499,7.63476691 11.6367188,7.37695312 L12.2988281,7.89257812 C11.7675755,8.70898846 10.9707084,9.1171875 9.90820312,9.1171875 Z M9.7734375,3.43359375 C9.33593531,3.43359375 8.96875148,3.59277185 8.671875,3.91113281 C8.37499852,4.22949378 8.1914066,4.67577838 8.12109375,5.25 L11.296875,5.25 L11.296875,5.16796875 C11.2656248,4.61718475 11.1171888,4.1904312 10.8515625,3.88769531 C10.5859362,3.58495942 10.2265648,3.43359375 9.7734375,3.43359375 Z M17.5488281,9 C17.4863278,8.87499938 17.4355471,8.65234535 17.3964844,8.33203125 C16.8925756,8.85547137 16.2910191,9.1171875 15.5917969,9.1171875 C14.9667937,9.1171875 14.4541036,8.94043146 14.0537109,8.58691406 C13.6533183,8.23339667 13.453125,7.78515896 13.453125,7.2421875 C13.453125,6.58202795 13.7040991,6.06933776 14.2060547,5.70410156 C14.7080103,5.33886536 15.4140579,5.15625 16.3242188,5.15625 L17.3789062,5.15625 L17.3789062,4.65820312 C17.3789062,4.27929498 17.2656261,3.97754019 17.0390625,3.75292969 C16.8124989,3.52831919 16.4785178,3.41601562 16.0371094,3.41601562 C15.6503887,3.41601562 15.3261732,3.5136709 15.0644531,3.70898438 C14.8027331,3.90429785 14.671875,4.14062361 14.671875,4.41796875 L13.5820312,4.41796875 C13.5820312,4.10156092 13.6943348,3.79589991 13.9189453,3.50097656 C14.1435558,3.20605321 14.4482403,2.97265711 14.8330078,2.80078125 C15.2177754,2.62890539 15.6406227,2.54296875 16.1015625,2.54296875 C16.8320349,2.54296875 17.4042948,2.72558411 17.8183594,3.09082031 C18.2324239,3.45605651 18.4472655,3.95898117 18.4628906,4.59960938 L18.4628906,7.51757812 C18.4628906,8.09961229 18.5371086,8.56249828 18.6855469,8.90625 L18.6855469,9 L17.5488281,9 Z M15.75,8.17382812 C16.0898454,8.17382812 16.4121079,8.08593838 16.7167969,7.91015625 C17.0214859,7.73437412 17.2421868,7.50586078 17.3789062,7.22460938 L17.3789062,5.92382812 L16.5292969,5.92382812 C15.2011652,5.92382812 14.5371094,6.31249611 14.5371094,7.08984375 C14.5371094,7.4296892 14.6503895,7.69531154 14.8769531,7.88671875 C15.1035168,8.07812596 15.3945295,8.17382812 15.75,8.17382812 Z M19.8984375,5.77734375 C19.8984375,4.80468264 20.1289039,4.0224639 20.5898438,3.43066406 C21.0507836,2.83886423 21.6542931,2.54296875 22.4003906,2.54296875 C23.1425818,2.54296875 23.7304666,2.79687246 24.1640625,3.3046875 L24.1640625,0 L25.2480469,0 L25.2480469,9 L24.2519531,9 L24.1992188,8.3203125 C23.7656228,8.85156516 23.1621132,9.1171875 22.3886719,9.1171875 C21.6542932,9.1171875 21.0556664,8.81640926 20.5927734,8.21484375 C20.1298805,7.61327824 19.8984375,6.82812984 19.8984375,5.859375 L19.8984375,5.77734375 Z M20.9824219,5.90039062 C20.9824219,6.61914422 21.1308579,7.18163859 21.4277344,7.58789062 C21.7246109,7.99414266 22.134763,8.19726562 22.6582031,8.19726562 C23.3457066,8.19726562 23.8476547,7.88867496 24.1640625,7.27148438 L24.1640625,4.359375 C23.8398421,3.76171576 23.3418002,3.46289062 22.6699219,3.46289062 C22.1386692,3.46289062 21.7246109,3.6679667 21.4277344,4.078125 C21.1308579,4.4882833 20.9824219,5.0956991 20.9824219,5.90039062 Z M36.3457031,6.29296875 C36.2402338,7.19531701 35.9072294,7.89159911 35.3466797,8.38183594 C34.78613,8.87207276 34.0410203,9.1171875 33.1113281,9.1171875 C32.1035106,9.1171875 31.2959015,8.75586299 30.6884766,8.03320312 C30.0810517,7.31054326 29.7773438,6.34375605 29.7773438,5.1328125 L29.7773438,4.3125 C29.7773438,3.51952729 29.9189439,2.82226863 30.2021484,2.22070312 C30.485353,1.61913762 30.8867162,1.15722817 31.40625,0.834960938 C31.9257838,0.512693701 32.5273403,0.3515625 33.2109375,0.3515625 C34.117192,0.3515625 34.8437473,0.604489658 35.390625,1.11035156 C35.9375027,1.61621347 36.2558589,2.31640178 36.3457031,3.2109375 L35.2148438,3.2109375 C35.117187,2.5312466 34.9052751,2.03906402 34.5791016,1.734375 C34.2529281,1.42968598 33.7968779,1.27734375 33.2109375,1.27734375 C32.4921839,1.27734375 31.928713,1.54296609 31.5205078,2.07421875 C31.1123026,2.60547141 30.9082031,3.36132322 30.9082031,4.34179688 L30.9082031,5.16796875 C30.9082031,6.09375463 31.1015606,6.83007539 31.4882812,7.37695312 C31.8750019,7.92383086 32.4160121,8.19726562 33.1113281,8.19726562 C33.7363313,8.19726562 34.2158186,8.05566548 34.5498047,7.77246094 C34.8837907,7.4892564 35.1054682,6.99609727 35.2148438,6.29296875 L36.3457031,6.29296875 Z M41.625,9 C41.5624997,8.87499938 41.5117189,8.65234535 41.4726562,8.33203125 C40.9687475,8.85547137 40.367191,9.1171875 39.6679688,9.1171875 C39.0429656,9.1171875 38.5302754,8.94043146 38.1298828,8.58691406 C37.7294902,8.23339667 37.5292969,7.78515896 37.5292969,7.2421875 C37.5292969,6.58202795 37.7802709,6.06933776 38.2822266,5.70410156 C38.7841822,5.33886536 39.4902298,5.15625 40.4003906,5.15625 L41.4550781,5.15625 L41.4550781,4.65820312 C41.4550781,4.27929498 41.341798,3.97754019 41.1152344,3.75292969 C40.8886707,3.52831919 40.5546897,3.41601562 40.1132812,3.41601562 C39.7265606,3.41601562 39.4023451,3.5136709 39.140625,3.70898438 C38.8789049,3.90429785 38.7480469,4.14062361 38.7480469,4.41796875 L37.6582031,4.41796875 C37.6582031,4.10156092 37.7705067,3.79589991 37.9951172,3.50097656 C38.2197277,3.20605321 38.5244121,2.97265711 38.9091797,2.80078125 C39.2939472,2.62890539 39.7167946,2.54296875 40.1777344,2.54296875 C40.9082068,2.54296875 41.4804667,2.72558411 41.8945312,3.09082031 C42.3085958,3.45605651 42.5234374,3.95898117 42.5390625,4.59960938 L42.5390625,7.51757812 C42.5390625,8.09961229 42.6132805,8.56249828 42.7617188,8.90625 L42.7617188,9 L41.625,9 Z M39.8261719,8.17382812 C40.1660173,8.17382812 40.4882797,8.08593838 40.7929688,7.91015625 C41.0976578,7.73437412 41.3183587,7.50586078 41.4550781,7.22460938 L41.4550781,5.92382812 L40.6054688,5.92382812 C39.2773371,5.92382812 38.6132812,6.31249611 38.6132812,7.08984375 C38.6132812,7.4296892 38.7265614,7.69531154 38.953125,7.88671875 C39.1796886,8.07812596 39.4707013,8.17382812 39.8261719,8.17382812 Z M47.3027344,3.6328125 C47.1386711,3.60546861 46.9609385,3.59179687 46.7695312,3.59179687 C46.0585902,3.59179687 45.5761731,3.89452822 45.3222656,4.5 L45.3222656,9 L44.2382812,9 L44.2382812,2.66015625 L45.2929688,2.66015625 L45.3105469,3.39257812 C45.6660174,2.82616904 46.1699186,2.54296875 46.8222656,2.54296875 C47.0332042,2.54296875 47.1933588,2.57031223 47.3027344,2.625 L47.3027344,3.6328125 Z M50.8183594,9.1171875 C49.9589801,9.1171875 49.2597683,8.83496376 48.7207031,8.27050781 C48.1816379,7.70605187 47.9121094,6.9511766 47.9121094,6.00585938 L47.9121094,5.80664062 C47.9121094,5.17773123 48.0322254,4.61621341 48.2724609,4.12207031 C48.5126965,3.62792722 48.8486307,3.24121233 49.2802734,2.96191406 C49.7119162,2.68261579 50.179685,2.54296875 50.6835938,2.54296875 C51.5078166,2.54296875 52.1484352,2.81445041 52.6054688,3.35742187 C53.0625023,3.90039334 53.2910156,4.67772932 53.2910156,5.68945312 L53.2910156,6.140625 L48.9960938,6.140625 C49.0117188,6.76562812 49.1943342,7.27050589 49.5439453,7.65527344 C49.8935564,8.04004099 50.3378879,8.23242188 50.8769531,8.23242188 C51.2597675,8.23242188 51.583983,8.15429766 51.8496094,7.99804688 C52.1152357,7.84179609 52.3476553,7.63476691 52.546875,7.37695312 L53.2089844,7.89257812 C52.6777317,8.70898846 51.8808647,9.1171875 50.8183594,9.1171875 Z M50.6835938,3.43359375 C50.2460916,3.43359375 49.8789077,3.59277185 49.5820312,3.91113281 C49.2851548,4.22949378 49.1015629,4.67577838 49.03125,5.25 L52.2070312,5.25 L52.2070312,5.16796875 C52.1757811,4.61718475 52.0273451,4.1904312 51.7617188,3.88769531 C51.4960924,3.58495942 51.136721,3.43359375 50.6835938,3.43359375 Z M57.1757812,9.1171875 C56.316402,9.1171875 55.6171902,8.83496376 55.078125,8.27050781 C54.5390598,7.70605187 54.2695312,6.9511766 54.2695312,6.00585938 L54.2695312,5.80664062 C54.2695312,5.17773123 54.3896472,4.61621341 54.6298828,4.12207031 C54.8701184,3.62792722 55.2060525,3.24121233 55.6376953,2.96191406 C56.0693381,2.68261579 56.5371069,2.54296875 57.0410156,2.54296875 C57.8652385,2.54296875 58.5058571,2.81445041 58.9628906,3.35742187 C59.4199242,3.90039334 59.6484375,4.67772932 59.6484375,5.68945312 L59.6484375,6.140625 L55.3535156,6.140625 C55.3691407,6.76562812 55.5517561,7.27050589 55.9013672,7.65527344 C56.2509783,8.04004099 56.6953098,8.23242188 57.234375,8.23242188 C57.6171894,8.23242188 57.9414049,8.15429766 58.2070312,7.99804688 C58.4726576,7.84179609 58.7050771,7.63476691 58.9042969,7.37695312 L59.5664062,7.89257812 C59.0351536,8.70898846 58.2382866,9.1171875 57.1757812,9.1171875 Z M57.0410156,3.43359375 C56.6035134,3.43359375 56.2363296,3.59277185 55.9394531,3.91113281 C55.6425766,4.22949378 55.4589847,4.67577838 55.3886719,5.25 L58.5644531,5.25 L58.5644531,5.16796875 C58.533203,4.61718475 58.384767,4.1904312 58.1191406,3.88769531 C57.8535143,3.58495942 57.4941429,3.43359375 57.0410156,3.43359375 Z M63.9667969,3.6328125 C63.8027336,3.60546861 63.625001,3.59179687 63.4335938,3.59179687 C62.7226527,3.59179687 62.2402356,3.89452822 61.9863281,4.5 L61.9863281,9 L60.9023438,9 L60.9023438,2.66015625 L61.9570312,2.66015625 L61.9746094,3.39257812 C62.3300799,2.82616904 62.8339811,2.54296875 63.4863281,2.54296875 C63.6972667,2.54296875 63.8574213,2.57031223 63.9667969,2.625 L63.9667969,3.6328125 Z M70.6171875,5.19726562 C69.6523389,4.91992049 68.9501975,4.57910358 68.5107422,4.17480469 C68.0712869,3.77050579 67.8515625,3.27148734 67.8515625,2.67773438 C67.8515625,2.00585602 68.1201145,1.45019751 68.6572266,1.01074219 C69.1943386,0.571286865 69.8925738,0.3515625 70.7519531,0.3515625 C71.3378936,0.3515625 71.8603493,0.464842617 72.3193359,0.69140625 C72.7783226,0.917969883 73.1337878,1.23046676 73.3857422,1.62890625 C73.6376966,2.02734574 73.7636719,2.46288826 73.7636719,2.93554688 L72.6328125,2.93554688 C72.6328125,2.4199193 72.4687516,2.01464991 72.140625,1.71972656 C71.8124984,1.42480321 71.3496124,1.27734375 70.7519531,1.27734375 C70.1972629,1.27734375 69.76465,1.39941284 69.4541016,1.64355469 C69.1435531,1.88769653 68.9882812,2.22656033 68.9882812,2.66015625 C68.9882812,3.00781424 69.1357407,3.30175661 69.4306641,3.54199219 C69.7255874,3.78222776 70.2275355,4.00195213 70.9365234,4.20117188 C71.6455114,4.40039162 72.2001933,4.62011599 72.6005859,4.86035156 C73.0009786,5.10058714 73.2978506,5.38085777 73.4912109,5.70117188 C73.6845713,6.02148598 73.78125,6.39843533 73.78125,6.83203125 C73.78125,7.52344096 73.5117214,8.07714636 72.9726562,8.49316406 C72.4335911,8.90918177 71.7128951,9.1171875 70.8105469,9.1171875 C70.2246064,9.1171875 69.6777369,9.00488394 69.1699219,8.78027344 C68.6621068,8.55566294 68.2705092,8.24804883 67.9951172,7.85742188 C67.7197252,7.46679492 67.5820312,7.02343998 67.5820312,6.52734375 L68.7128906,6.52734375 C68.7128906,7.04297133 68.9033184,7.45019382 69.2841797,7.74902344 C69.665041,8.04785306 70.1738249,8.19726562 70.8105469,8.19726562 C71.4042998,8.19726562 71.8593734,8.07617309 72.1757812,7.83398438 C72.4921891,7.59179566 72.6503906,7.26172084 72.6503906,6.84375 C72.6503906,6.42577916 72.5039077,6.10254021 72.2109375,5.87402344 C71.9179673,5.64550667 71.3867226,5.41992299 70.6171875,5.19726562 Z M75.0761719,8.43164062 C75.0761719,8.24413969 75.1318354,8.08789125 75.2431641,7.96289062 C75.3544927,7.83789 75.5214833,7.77539062 75.7441406,7.77539062 C75.966798,7.77539062 76.1357416,7.83789 76.2509766,7.96289062 C76.3662115,8.08789125 76.4238281,8.24413969 76.4238281,8.43164062 C76.4238281,8.61132902 76.3662115,8.76171814 76.2509766,8.8828125 C76.1357416,9.00390686 75.966798,9.06445312 75.7441406,9.06445312 C75.5214833,9.06445312 75.3544927,9.00390686 75.2431641,8.8828125 C75.1318354,8.76171814 75.0761719,8.61132902 75.0761719,8.43164062 Z M79.5117188,8.08007812 L83.5546875,8.08007812 L83.5546875,9 L78.3808594,9 L78.3808594,0.46875 L79.5117188,0.46875 L79.5117188,8.08007812 Z"></path>
        </g>
    </g>
</svg>