<svg xmlns="http://www.w3.org/2000/svg" width="24" height="24" viewBox="0 0 24 24">
    <g fill="none" fill-rule="evenodd">
        <g fill="#26A0F4">
            <g>
                <g>
                    <g>
                        <g>
                            <path d="M12.704 9.204h-10c-.55 0-1 .45-1 1s.45 1 1 1h10c.55 0 1-.45 1-1s-.45-1-1-1zm0-4h-10c-.55 0-1 .45-1 1s.45 1 1 1h10c.55 0 1-.45 1-1s-.45-1-1-1zm-10 10h6c.55 0 1-.45 1-1s-.45-1-1-1h-6c-.55 0-1 .45-1 1s.45 1 1 1zm19.21-3.79l.09.09c.39.39.39 1.02 0 1.41l-5.58 5.59c-.39.39-1.02.39-1.41 0l-3.09-3.09c-.188-.187-.293-.44-.293-.705 0-.265.105-.518.293-.705l.09-.09c.39-.39 1.02-.39 1.41 0l2.3 2.3 4.78-4.79c.38-.4 1.02-.4 1.41-.01z" transform="translate(-761 -738) translate(761 262) translate(0 236) translate(0 80) translate(0 160)"/>
                        </g>
                    </g>
                </g>
            </g>
        </g>
    </g>
</svg>
