<svg xmlns="http://www.w3.org/2000/svg" width="24" height="24" viewBox="0 0 24 24">
    <g fill="none" fill-rule="evenodd">
        <g fill="#26A0F4">
            <g>
                <g>
                    <g>
                        <g>
                            <path d="M19 13v5c0 .55-.45 1-1 1H6c-.55 0-1-.45-1-1v-5c0-.55-.45-1-1-1s-1 .45-1 1v6c0 1.1.9 2 2 2h14c1.1 0 2-.9 2-2v-6c0-.55-.45-1-1-1s-1 .45-1 1zm-6-.33l1.88-1.88c.39-.39 1.02-.39 1.41 0 .39.39.39 1.02 0 1.41l-3.59 3.59c-.39.39-1.02.39-1.41 0L7.7 12.2c-.187-.187-.292-.44-.292-.705 0-.265.105-.518.292-.705.39-.39 1.02-.39 1.41 0L11 12.67V4c0-.55.45-1 1-1s1 .45 1 1v8.67z" transform="translate(-761 -618) translate(761 262) translate(0 236) translate(0 80) translate(0 40)"/>
                        </g>
                    </g>
                </g>
            </g>
        </g>
    </g>
</svg>
