<svg xmlns="http://www.w3.org/2000/svg" width="24" height="24" viewBox="0 0 24 24">
    <g fill="none" fill-rule="evenodd">
        <g fill="#6D7275">
            <path d="M8 7c.552 0 1 .448 1 1 0 .513-.386.936-.883.993L8 9H6v-.007C3.593 9 3 10.026 3 12c0 .653.041 1.063.199 1.506.324.908 1.052 1.442 2.568 1.49L6 15h4c2.114 0 3-.886 3-3 0-.552.448-1 1-1s1 .448 1 1c0 3.134-1.689 4.905-4.749 4.996L10 17H6c-2.512 0-4.058-1.064-4.685-2.823C1.06 13.46 1 12.867 1 12c0-1.12.135-1.978.654-2.874.748-1.295 2.105-2.055 4.062-2.121L6 7h2zm10 0c2.512 0 4.058 1.064 4.685 2.823.255.717.315 1.31.315 2.177 0 1.12-.135 1.978-.654 2.874-.748 1.295-2.105 2.055-4.062 2.121L18 17h-2c-.552 0-1-.448-1-1 0-.513.386-.936.883-.993L16 15h2v.007C20.407 15 21 13.974 21 12c0-.653-.041-1.063-.199-1.506-.324-.908-1.052-1.442-2.568-1.49L18 9h-4c-2.114 0-3 .886-3 3 0 .552-.448 1-1 1s-1-.448-1-1c0-3.134 1.689-4.905 4.749-4.996L14 7h4z"/>
        </g>
    </g>
</svg>
