<?xml version="1.0" encoding="UTF-8"?>
<svg width="177px" height="13px" viewBox="0 0 177 13" version="1.1" xmlns="http://www.w3.org/2000/svg" xmlns:xlink="http://www.w3.org/1999/xlink">
    <title>01</title>
    <g id="01" stroke="none" stroke-width="1" fill="none" fill-rule="evenodd">
        <path d="M3.90820312,11 C4.91992188,11 5.72086589,10.7596029 6.31103516,10.2788086 C6.90120443,9.79801432 7.19628906,9.10188802 7.19628906,8.19042969 C7.19628906,7.5797526 7.0242513,7.04427083 6.68017578,6.58398438 C6.33610026,6.12369792 5.86328125,5.8297526 5.26171875,5.70214844 C5.72200521,5.53352865 6.09342448,5.27490234 6.37597656,4.92626953 C6.65852865,4.57763672 6.79980469,4.18229167 6.79980469,3.74023438 C6.79980469,2.84244792 6.50585938,2.16910807 5.91796875,1.72021484 C5.33007812,1.27132161 4.51660156,1.046875 3.47753906,1.046875 L3.47753906,1.046875 L0.23046875,1.046875 L0.23046875,11 L3.90820312,11 Z M3.7578125,5.27832031 L1.57714844,5.27832031 L1.57714844,2.10644531 L3.47753906,2.10644531 C4.1155599,2.10644531 4.60432943,2.23974609 4.94384766,2.50634766 C5.28336589,2.77294922 5.453125,3.17513021 5.453125,3.71289062 C5.453125,4.20507812 5.29589844,4.58902995 4.98144531,4.86474609 C4.66699219,5.14046224 4.25911458,5.27832031 3.7578125,5.27832031 L3.7578125,5.27832031 Z M3.90820312,9.94726562 L1.57714844,9.94726562 L1.57714844,6.33105469 L4.10644531,6.33105469 C4.69889323,6.33105469 5.13753255,6.49739583 5.42236328,6.83007812 C5.70719401,7.16276042 5.84960938,7.62076823 5.84960938,8.20410156 C5.84960938,8.76009115 5.67871094,9.18961589 5.33691406,9.49267578 C4.99511719,9.79573568 4.51888021,9.94726562 3.90820312,9.94726562 L3.90820312,9.94726562 Z M11.9951172,11.1435547 C12.6103516,11.1435547 13.1344401,11.0569661 13.5673828,10.8837891 C14.0003255,10.710612 14.3489583,10.4941406 14.6132812,10.234375 L14.6132812,10.234375 L14.0869141,9.359375 C13.836263,9.58723958 13.5388997,9.76611328 13.1948242,9.89599609 C12.8507487,10.0258789 12.4508464,10.0908203 11.9951172,10.0908203 C11.3707682,10.0908203 10.8854167,9.86181641 10.5390625,9.40380859 C10.1927083,8.94580078 10.0126953,8.36132812 9.99902344,7.65039062 L9.99902344,7.65039062 L10.0195312,7.61621094 L14.8183594,7.61621094 L14.8183594,6.77539062 C14.8183594,5.77278646 14.563151,4.97070312 14.0527344,4.36914062 C13.5423177,3.76757812 12.7880859,3.46679688 11.7900391,3.46679688 C10.9332682,3.46679688 10.191569,3.81656901 9.56494141,4.51611328 C8.9383138,5.21565755 8.625,6.09179688 8.625,7.14453125 L8.625,7.14453125 L8.625,7.4453125 C8.625,8.5390625 8.92919922,9.4288737 9.53759766,10.1147461 C10.1459961,10.8006185 10.9651693,11.1435547 11.9951172,11.1435547 Z M13.4716797,6.56347656 L10.0605469,6.56347656 L10.046875,6.52929688 C10.1197917,5.95507812 10.3157552,5.47770182 10.6347656,5.09716797 C10.953776,4.71663411 11.3388672,4.52636719 11.7900391,4.52636719 C12.3460286,4.52636719 12.7652995,4.70410156 13.0478516,5.05957031 C13.3304036,5.41503906 13.4716797,5.85709635 13.4716797,6.38574219 L13.4716797,6.38574219 L13.4716797,6.56347656 Z M18.8925781,11 L20.3007812,6.49511719 L20.5947266,5.24414062 L20.6357422,5.23730469 L20.9433594,6.49511719 L22.3720703,11 L23.4589844,11 L25.6054688,3.60351562 L24.265625,3.60351562 L23.1035156,8.30664062 L22.9052734,9.3046875 L22.8642578,9.3046875 L22.6523438,8.30664062 L21.1689453,3.60351562 L20.0888672,3.60351562 L18.6123047,8.30664062 L18.4208984,9.20214844 L18.3798828,9.20214844 L18.2226562,8.30664062 L16.9990234,3.60351562 L15.6591797,3.60351562 L17.8056641,11 L18.8925781,11 Z M29.0371094,11.1435547 C29.5019531,11.1435547 29.9360352,11.0239258 30.3393555,10.784668 C30.7426758,10.5454102 31.0696615,10.2480469 31.3203125,9.89257812 C31.3248698,10.0657552 31.339681,10.237793 31.3647461,10.4086914 C31.3898112,10.5795898 31.4251302,10.7766927 31.4707031,11 L31.4707031,11 L32.8583984,11 C32.7854818,10.7630208 32.7353516,10.5214844 32.7080078,10.2753906 C32.6806641,10.0292969 32.6669922,9.77408854 32.6669922,9.50976562 L32.6669922,9.50976562 L32.6669922,5.94824219 C32.6669922,5.14615885 32.4117839,4.5320638 31.9013672,4.10595703 C31.3909505,3.67985026 30.7164714,3.46679688 29.8779297,3.46679688 C29.0302734,3.46679688 28.3387044,3.69010417 27.8032227,4.13671875 C27.2677409,4.58333333 27.0136719,5.07552083 27.0410156,5.61328125 L27.0410156,5.61328125 L27.0546875,5.65429688 L28.3398438,5.65429688 C28.3398438,5.34440104 28.4754232,5.0789388 28.746582,4.85791016 C29.0177409,4.63688151 29.3697917,4.52636719 29.8027344,4.52636719 C30.2858073,4.52636719 30.6595052,4.65283203 30.9238281,4.90576172 C31.188151,5.15869141 31.3203125,5.5016276 31.3203125,5.93457031 L31.3203125,5.93457031 L31.3203125,6.66601562 L29.8574219,6.66601562 C28.8776042,6.66601562 28.1017253,6.86539714 27.5297852,7.26416016 C26.9578451,7.66292318 26.671875,8.21549479 26.671875,8.921875 C26.671875,9.61458333 26.8735352,10.1580404 27.2768555,10.5522461 C27.6801758,10.9464518 28.2669271,11.1435547 29.0371094,11.1435547 Z M29.2353516,10.015625 C28.8343099,10.015625 28.53125,9.91992188 28.3261719,9.72851562 C28.1210938,9.53710938 28.0185547,9.27734375 28.0185547,8.94921875 C28.0185547,8.58007812 28.1814779,8.25878906 28.5073242,7.98535156 C28.8331706,7.71191406 29.2672526,7.57519531 29.8095703,7.57519531 L29.8095703,7.57519531 L31.3203125,7.57519531 L31.3203125,8.77832031 C31.2018229,9.10188802 30.9466146,9.3889974 30.5546875,9.63964844 C30.1627604,9.89029948 29.7229818,10.015625 29.2353516,10.015625 Z M36.078125,1.70996094 L36.078125,0.3359375 L34.7314453,0.3359375 L34.7314453,1.70996094 L36.078125,1.70996094 Z M36.078125,11 L36.078125,3.60351562 L34.7314453,3.60351562 L34.7314453,11 L36.078125,11 Z M43.3037109,11 L43.3037109,1.046875 L41.9501953,1.046875 L41.9501953,11 L43.3037109,11 Z M46.9335938,11 L46.9335938,5.60644531 C47.1113281,5.2828776 47.3494466,5.02766927 47.6479492,4.84082031 C47.9464518,4.65397135 48.289388,4.56054688 48.6767578,4.56054688 C49.2054036,4.56054688 49.5984701,4.69726562 49.855957,4.97070312 C50.113444,5.24414062 50.2421875,5.70670573 50.2421875,6.35839844 L50.2421875,6.35839844 L50.2421875,11 L51.5888672,11 L51.5888672,6.33105469 C51.5888672,5.35579427 51.3701172,4.63460286 50.9326172,4.16748047 C50.4951172,3.70035807 49.8776042,3.46679688 49.0800781,3.46679688 C48.6061198,3.46679688 48.183431,3.57503255 47.8120117,3.79150391 C47.4405924,4.00797526 47.1318359,4.31217448 46.8857422,4.70410156 L46.8857422,4.70410156 L46.7900391,3.60351562 L45.5869141,3.60351562 L45.5869141,11 L46.9335938,11 Z M55.765625,11.1435547 C55.9615885,11.1435547 56.1564128,11.1173503 56.3500977,11.0649414 C56.5437826,11.0125326 56.6907552,10.9453125 56.7910156,10.8632812 L56.7910156,10.8632812 L56.6132812,9.94042969 C56.5403646,9.96777344 56.457194,9.9905599 56.3637695,10.0087891 C56.2703451,10.0270182 56.1848958,10.0361328 56.1074219,10.0361328 C55.8704427,10.0361328 55.6801758,9.96549479 55.5366211,9.82421875 C55.3930664,9.68294271 55.3212891,9.4391276 55.3212891,9.09277344 L55.3212891,9.09277344 L55.3212891,4.6015625 L56.7226562,4.6015625 L56.7226562,3.60351562 L55.3212891,3.60351562 L55.3212891,1.81933594 L53.9746094,1.81933594 L53.9746094,3.60351562 L52.7988281,3.60351562 L52.7988281,4.6015625 L53.9746094,4.6015625 L53.9746094,9.09277344 C53.9746094,9.79915365 54.1363932,10.3175456 54.4599609,10.6479492 C54.7835286,10.9783529 55.21875,11.1435547 55.765625,11.1435547 Z M61.453125,11.1435547 C62.0683594,11.1435547 62.5924479,11.0569661 63.0253906,10.8837891 C63.4583333,10.710612 63.8069661,10.4941406 64.0712891,10.234375 L64.0712891,10.234375 L63.5449219,9.359375 C63.2942708,9.58723958 62.9969076,9.76611328 62.652832,9.89599609 C62.3087565,10.0258789 61.9088542,10.0908203 61.453125,10.0908203 C60.828776,10.0908203 60.3434245,9.86181641 59.9970703,9.40380859 C59.6507161,8.94580078 59.4707031,8.36132812 59.4570312,7.65039062 L59.4570312,7.65039062 L59.4775391,7.61621094 L64.2763672,7.61621094 L64.2763672,6.77539062 C64.2763672,5.77278646 64.0211589,4.97070312 63.5107422,4.36914062 C63.0003255,3.76757812 62.2460938,3.46679688 61.2480469,3.46679688 C60.391276,3.46679688 59.6495768,3.81656901 59.0229492,4.51611328 C58.3963216,5.21565755 58.0830078,6.09179688 58.0830078,7.14453125 L58.0830078,7.14453125 L58.0830078,7.4453125 C58.0830078,8.5390625 58.387207,9.4288737 58.9956055,10.1147461 C59.6040039,10.8006185 60.4231771,11.1435547 61.453125,11.1435547 Z M62.9296875,6.56347656 L59.5185547,6.56347656 L59.5048828,6.52929688 C59.5777995,5.95507812 59.773763,5.47770182 60.0927734,5.09716797 C60.4117839,4.71663411 60.796875,4.52636719 61.2480469,4.52636719 C61.8040365,4.52636719 62.2233073,4.70410156 62.5058594,5.05957031 C62.7884115,5.41503906 62.9296875,5.85709635 62.9296875,6.38574219 L62.9296875,6.38574219 L62.9296875,6.56347656 Z M67.1337891,11 L67.1337891,5.71582031 C67.2659505,5.41048177 67.4539388,5.1735026 67.6977539,5.00488281 C67.941569,4.83626302 68.2412109,4.75195312 68.5966797,4.75195312 L68.5966797,4.75195312 L69.2871094,4.79296875 L69.4716797,3.54199219 C69.4124349,3.52376302 69.3372396,3.50667318 69.2460938,3.49072266 C69.1549479,3.47477214 69.0592448,3.46679688 68.9589844,3.46679688 C68.5579427,3.46679688 68.2036133,3.57389323 67.8959961,3.78808594 C67.5883789,4.00227865 67.3297526,4.30078125 67.1201172,4.68359375 L67.1201172,4.68359375 L66.9902344,3.60351562 L65.7871094,3.60351562 L65.7871094,11 L67.1337891,11 Z M71.9326172,11 L71.9326172,5.60644531 C72.1103516,5.2828776 72.3484701,5.02766927 72.6469727,4.84082031 C72.9454753,4.65397135 73.2884115,4.56054688 73.6757812,4.56054688 C74.2044271,4.56054688 74.5974935,4.69726562 74.8549805,4.97070312 C75.1124674,5.24414062 75.2412109,5.70670573 75.2412109,6.35839844 L75.2412109,6.35839844 L75.2412109,11 L76.5878906,11 L76.5878906,6.33105469 C76.5878906,5.35579427 76.3691406,4.63460286 75.9316406,4.16748047 C75.4941406,3.70035807 74.8766276,3.46679688 74.0791016,3.46679688 C73.6051432,3.46679688 73.1824544,3.57503255 72.8110352,3.79150391 C72.4396159,4.00797526 72.1308594,4.31217448 71.8847656,4.70410156 L71.8847656,4.70410156 L71.7890625,3.60351562 L70.5859375,3.60351562 L70.5859375,11 L71.9326172,11 Z M81.6123047,11.1435547 C82.2275391,11.1435547 82.7516276,11.0569661 83.1845703,10.8837891 C83.617513,10.710612 83.9661458,10.4941406 84.2304688,10.234375 L84.2304688,10.234375 L83.7041016,9.359375 C83.4534505,9.58723958 83.1560872,9.76611328 82.8120117,9.89599609 C82.4679362,10.0258789 82.0680339,10.0908203 81.6123047,10.0908203 C80.9879557,10.0908203 80.5026042,9.86181641 80.15625,9.40380859 C79.8098958,8.94580078 79.6298828,8.36132812 79.6162109,7.65039062 L79.6162109,7.65039062 L79.6367188,7.61621094 L84.4355469,7.61621094 L84.4355469,6.77539062 C84.4355469,5.77278646 84.1803385,4.97070312 83.6699219,4.36914062 C83.1595052,3.76757812 82.4052734,3.46679688 81.4072266,3.46679688 C80.5504557,3.46679688 79.8087565,3.81656901 79.1821289,4.51611328 C78.5555013,5.21565755 78.2421875,6.09179688 78.2421875,7.14453125 L78.2421875,7.14453125 L78.2421875,7.4453125 C78.2421875,8.5390625 78.5463867,9.4288737 79.1547852,10.1147461 C79.7631836,10.8006185 80.5823568,11.1435547 81.6123047,11.1435547 Z M83.0888672,6.56347656 L79.6777344,6.56347656 L79.6640625,6.52929688 C79.7369792,5.95507812 79.9329427,5.47770182 80.2519531,5.09716797 C80.5709635,4.71663411 80.9560547,4.52636719 81.4072266,4.52636719 C81.9632161,4.52636719 82.382487,4.70410156 82.6650391,5.05957031 C82.9475911,5.41503906 83.0888672,5.85709635 83.0888672,6.38574219 L83.0888672,6.38574219 L83.0888672,6.56347656 Z M88.1679688,11.1435547 C88.3639323,11.1435547 88.5587565,11.1173503 88.7524414,11.0649414 C88.9461263,11.0125326 89.093099,10.9453125 89.1933594,10.8632812 L89.1933594,10.8632812 L89.015625,9.94042969 C88.9427083,9.96777344 88.8595378,9.9905599 88.7661133,10.0087891 C88.6726888,10.0270182 88.5872396,10.0361328 88.5097656,10.0361328 C88.2727865,10.0361328 88.0825195,9.96549479 87.9389648,9.82421875 C87.7954102,9.68294271 87.7236328,9.4391276 87.7236328,9.09277344 L87.7236328,9.09277344 L87.7236328,4.6015625 L89.125,4.6015625 L89.125,3.60351562 L87.7236328,3.60351562 L87.7236328,1.81933594 L86.3769531,1.81933594 L86.3769531,3.60351562 L85.2011719,3.60351562 L85.2011719,4.6015625 L86.3769531,4.6015625 L86.3769531,9.09277344 C86.3769531,9.79915365 86.538737,10.3175456 86.8623047,10.6479492 C87.1858724,10.9783529 87.6210938,11.1435547 88.1679688,11.1435547 Z M97.7314453,11.1435547 C98.788737,11.1435547 99.6455078,10.8997396 100.301758,10.4121094 C100.958008,9.92447917 101.286133,9.2796224 101.286133,8.47753906 C101.286133,7.73014323 101.012695,7.10351563 100.46582,6.59765625 C99.9189453,6.09179688 99.1214193,5.70898438 98.0732422,5.44921875 C97.2027995,5.23046875 96.5738932,4.97639974 96.1865234,4.68701172 C95.7991536,4.3976237 95.6054688,4.03645833 95.6054688,3.60351562 C95.6054688,3.11588542 95.7843424,2.72054036 96.1420898,2.41748047 C96.4998372,2.11442057 97.0136719,1.96289062 97.6835938,1.96289062 C98.4036458,1.96289062 98.9562174,2.14290365 99.3413086,2.50292969 C99.7263997,2.86295573 99.9189453,3.33463542 99.9189453,3.91796875 L99.9189453,3.91796875 L101.204102,3.91796875 L101.217773,3.87695312 C101.24056,3.08854167 100.929525,2.39583333 100.284668,1.79882812 C99.6398112,1.20182292 98.7727865,0.903320312 97.6835938,0.903320312 C96.671875,0.903320312 95.8481445,1.16308594 95.2124023,1.68261719 C94.5766602,2.20214844 94.2587891,2.84928385 94.2587891,3.62402344 C94.2587891,4.36230469 94.5538737,4.97526042 95.144043,5.46289062 C95.7342122,5.95052083 96.5556641,6.31966146 97.6083984,6.5703125 C98.4788411,6.77994792 99.0849609,7.03857422 99.4267578,7.34619141 C99.7685547,7.65380859 99.9394531,8.03548177 99.9394531,8.49121094 C99.9394531,8.98339844 99.7412109,9.37304688 99.3447266,9.66015625 C98.9482422,9.94726562 98.4104818,10.0908203 97.7314453,10.0908203 C97.038737,10.0908203 96.4576823,9.92447917 95.9882813,9.59179688 C95.5188802,9.25911458 95.2841797,8.77376302 95.2841797,8.13574219 L95.2841797,8.13574219 L93.9990234,8.13574219 L93.9853516,8.17675781 C93.9625651,9.07910156 94.3328451,9.79915365 95.0961914,10.3369141 C95.8595378,10.8746745 96.7379557,11.1435547 97.7314453,11.1435547 Z M106.064453,11.1435547 C106.679688,11.1435547 107.203776,11.0569661 107.636719,10.8837891 C108.069661,10.710612 108.418294,10.4941406 108.682617,10.234375 L108.682617,10.234375 L108.15625,9.359375 C107.905599,9.58723958 107.608236,9.76611328 107.26416,9.89599609 C106.920085,10.0258789 106.520182,10.0908203 106.064453,10.0908203 C105.440104,10.0908203 104.954753,9.86181641 104.608398,9.40380859 C104.262044,8.94580078 104.082031,8.36132812 104.068359,7.65039062 L104.068359,7.65039062 L104.088867,7.61621094 L108.887695,7.61621094 L108.887695,6.77539062 C108.887695,5.77278646 108.632487,4.97070312 108.12207,4.36914062 C107.611654,3.76757812 106.857422,3.46679688 105.859375,3.46679688 C105.002604,3.46679688 104.260905,3.81656901 103.634277,4.51611328 C103.00765,5.21565755 102.694336,6.09179688 102.694336,7.14453125 L102.694336,7.14453125 L102.694336,7.4453125 C102.694336,8.5390625 102.998535,9.4288737 103.606934,10.1147461 C104.215332,10.8006185 105.034505,11.1435547 106.064453,11.1435547 Z M107.541016,6.56347656 L104.129883,6.56347656 L104.116211,6.52929688 C104.189128,5.95507812 104.385091,5.47770182 104.704102,5.09716797 C105.023112,4.71663411 105.408203,4.52636719 105.859375,4.52636719 C106.415365,4.52636719 106.834635,4.70410156 107.117188,5.05957031 C107.39974,5.41503906 107.541016,5.85709635 107.541016,6.38574219 L107.541016,6.38574219 L107.541016,6.56347656 Z M111.745117,11 L111.745117,5.71582031 C111.877279,5.41048177 112.065267,5.1735026 112.309082,5.00488281 C112.552897,4.83626302 112.852539,4.75195312 113.208008,4.75195312 L113.208008,4.75195312 L113.898438,4.79296875 L114.083008,3.54199219 C114.023763,3.52376302 113.948568,3.50667318 113.857422,3.49072266 C113.766276,3.47477214 113.670573,3.46679688 113.570312,3.46679688 C113.169271,3.46679688 112.814941,3.57389323 112.507324,3.78808594 C112.199707,4.00227865 111.941081,4.30078125 111.731445,4.68359375 L111.731445,4.68359375 L111.601562,3.60351562 L110.398438,3.60351562 L110.398438,11 L111.745117,11 Z M118.430664,11 L121.151367,3.60351562 L119.777344,3.60351562 L118.075195,8.81933594 L117.945312,9.33886719 L117.904297,9.33886719 L117.788086,8.81933594 L116.038086,3.60351562 L114.657227,3.60351562 L117.412109,11 L118.430664,11 Z M123.817383,1.70996094 L123.817383,0.3359375 L122.470703,0.3359375 L122.470703,1.70996094 L123.817383,1.70996094 Z M123.817383,11 L123.817383,3.60351562 L122.470703,3.60351562 L122.470703,11 L123.817383,11 Z M128.896484,11.1435547 C129.680339,11.1435547 130.36735,10.8963216 130.95752,10.4018555 C131.547689,9.90738932 131.83138,9.34114583 131.808594,8.703125 L131.808594,8.703125 L131.794922,8.66210938 L130.584961,8.66210938 C130.584961,9.06315104 130.415202,9.40152995 130.075684,9.67724609 C129.736165,9.95296224 129.343099,10.0908203 128.896484,10.0908203 C128.185547,10.0908203 127.679688,9.83902995 127.378906,9.33544922 C127.078125,8.83186849 126.927734,8.20182292 126.927734,7.4453125 L126.927734,7.4453125 L126.927734,7.15820312 C126.927734,6.41992188 127.079264,5.79671224 127.382324,5.28857422 C127.685384,4.7804362 128.190104,4.52636719 128.896484,4.52636719 C129.384115,4.52636719 129.787435,4.68473307 130.106445,5.00146484 C130.425456,5.31819661 130.584961,5.70214844 130.584961,6.15332031 L130.584961,6.15332031 L131.801758,6.15332031 L131.81543,6.11230469 C131.833659,5.36946615 131.568197,4.74283854 131.019043,4.23242188 C130.469889,3.72200521 129.76237,3.46679688 128.896484,3.46679688 C127.825521,3.46679688 127.004069,3.81884766 126.432129,4.52294922 C125.860189,5.22705078 125.574219,6.10546875 125.574219,7.15820312 L125.574219,7.15820312 L125.574219,7.4453125 C125.574219,8.50716146 125.859049,9.3889974 126.428711,10.0908203 C126.998372,10.7926432 127.820964,11.1435547 128.896484,11.1435547 Z M136.388672,11.1435547 C137.003906,11.1435547 137.527995,11.0569661 137.960938,10.8837891 C138.39388,10.710612 138.742513,10.4941406 139.006836,10.234375 L139.006836,10.234375 L138.480469,9.359375 C138.229818,9.58723958 137.932454,9.76611328 137.588379,9.89599609 C137.244303,10.0258789 136.844401,10.0908203 136.388672,10.0908203 C135.764323,10.0908203 135.278971,9.86181641 134.932617,9.40380859 C134.586263,8.94580078 134.40625,8.36132812 134.392578,7.65039062 L134.392578,7.65039062 L134.413086,7.61621094 L139.211914,7.61621094 L139.211914,6.77539062 C139.211914,5.77278646 138.956706,4.97070312 138.446289,4.36914062 C137.935872,3.76757812 137.181641,3.46679688 136.183594,3.46679688 C135.326823,3.46679688 134.585124,3.81656901 133.958496,4.51611328 C133.331868,5.21565755 133.018555,6.09179688 133.018555,7.14453125 L133.018555,7.14453125 L133.018555,7.4453125 C133.018555,8.5390625 133.322754,9.4288737 133.931152,10.1147461 C134.539551,10.8006185 135.358724,11.1435547 136.388672,11.1435547 Z M137.865234,6.56347656 L134.454102,6.56347656 L134.44043,6.52929688 C134.513346,5.95507812 134.70931,5.47770182 135.02832,5.09716797 C135.347331,4.71663411 135.732422,4.52636719 136.183594,4.52636719 C136.739583,4.52636719 137.158854,4.70410156 137.441406,5.05957031 C137.723958,5.41503906 137.865234,5.85709635 137.865234,6.38574219 L137.865234,6.38574219 L137.865234,6.56347656 Z M143.491211,11.1435547 C144.347982,11.1435547 145.041829,10.9407552 145.572754,10.5351562 C146.103678,10.1295573 146.369141,9.59863281 146.369141,8.94238281 C146.369141,8.36360677 146.141276,7.90218099 145.685547,7.55810547 C145.229818,7.21402995 144.534831,6.94173177 143.600586,6.74121094 C142.97168,6.60904948 142.554688,6.45865885 142.349609,6.29003906 C142.144531,6.12141927 142.041992,5.89127604 142.041992,5.59960938 C142.041992,5.30338542 142.158203,5.05045573 142.390625,4.84082031 C142.623047,4.6311849 142.978516,4.52636719 143.457031,4.52636719 C143.903646,4.52636719 144.262533,4.65511068 144.533691,4.91259766 C144.80485,5.17008464 144.94043,5.46061198 144.94043,5.78417969 L144.94043,5.78417969 L146.225586,5.78417969 L146.239258,5.74316406 C146.262044,5.10970052 146.019368,4.5719401 145.51123,4.12988281 C145.003092,3.68782552 144.318359,3.46679688 143.457031,3.46679688 C142.636719,3.46679688 141.971354,3.67871094 141.460938,4.10253906 C140.950521,4.52636719 140.695312,5.0390625 140.695312,5.640625 C140.695312,6.21940104 140.922038,6.67626953 141.375488,7.01123047 C141.828939,7.34619141 142.504557,7.61165365 143.402344,7.80761719 C144.03125,7.94889323 144.458496,8.11523438 144.684082,8.30664062 C144.909668,8.49804688 145.022461,8.74186198 145.022461,9.03808594 C145.022461,9.35253906 144.886882,9.60660807 144.615723,9.80029297 C144.344564,9.99397786 143.969727,10.0908203 143.491211,10.0908203 C143.044596,10.0908203 142.654948,9.98030599 142.322266,9.75927734 C141.989583,9.5382487 141.811849,9.18847656 141.789062,8.70996094 L141.789062,8.70996094 L140.503906,8.70996094 L140.490234,8.75097656 C140.462891,9.3889974 140.720378,9.94726562 141.262695,10.4257812 C141.805013,10.9042969 142.547852,11.1435547 143.491211,11.1435547 Z M157.833008,11 L157.833008,9.94726562 L153.123047,9.94726562 L153.123047,1.046875 L151.776367,1.046875 L151.776367,11 L157.833008,11 Z M165.393555,11 L165.393555,9.94726562 L160.683594,9.94726562 L160.683594,1.046875 L159.336914,1.046875 L159.336914,11 L165.393555,11 Z M170.117188,11.1435547 C171.224609,11.1435547 172.11556,10.8291016 172.790039,10.2001953 C173.464518,9.57128906 173.792643,8.78971354 173.774414,7.85546875 L173.774414,7.85546875 L173.760742,7.81445312 L172.46875,7.81445312 C172.46875,8.52539062 172.263672,9.08251953 171.853516,9.48583984 C171.443359,9.88916016 170.864583,10.0908203 170.117188,10.0908203 C169.365234,10.0908203 168.765951,9.78776042 168.319336,9.18164062 C167.872721,8.57552083 167.649414,7.81901042 167.649414,6.91210938 L167.649414,6.91210938 L167.649414,5.12792969 C167.649414,4.23014323 167.872721,3.4781901 168.319336,2.87207031 C168.765951,2.26595052 169.365234,1.96289062 170.117188,1.96289062 C170.864583,1.96289062 171.443359,2.1656901 171.853516,2.57128906 C172.263672,2.97688802 172.46875,3.52832031 172.46875,4.22558594 L172.46875,4.22558594 L173.760742,4.22558594 L173.774414,4.18457031 C173.792643,3.19563802 173.469076,2.40152995 172.803711,1.80224609 C172.138346,1.20296224 171.242839,0.903320312 170.117188,0.903320312 C168.991536,0.903320312 168.074382,1.30322266 167.365723,2.10302734 C166.657064,2.90283203 166.302734,3.9156901 166.302734,5.14160156 L166.302734,5.14160156 L166.302734,6.91210938 C166.302734,8.13802083 166.657064,9.14973958 167.365723,9.94726562 C168.074382,10.7447917 168.991536,11.1435547 170.117188,11.1435547 Z M175.490234,12.7636719 L176.515625,10.671875 L176.515625,9.48925781 L175.168945,9.48925781 L175.168945,10.6035156 L174.69043,12.7636719 L175.490234,12.7636719 Z" id="BewaiInternetServicesLLC," fill="#AEB6C7" fill-rule="nonzero"></path>
    </g>
</svg>