<?xml version="1.0" encoding="UTF-8"?>
<svg width="248px" height="13px" viewBox="0 0 248 13" version="1.1" xmlns="http://www.w3.org/2000/svg" xmlns:xlink="http://www.w3.org/1999/xlink">
    <title>03</title>
    <g id="03" stroke="none" stroke-width="1" fill="none" fill-rule="evenodd">
        <path d="M4.44335938,11.1435547 C5.50065104,11.1435547 6.35742188,10.8997396 7.01367188,10.4121094 C7.66992188,9.92447917 7.99804688,9.2796224 7.99804688,8.47753906 C7.99804688,7.73014323 7.72460938,7.10351563 7.17773438,6.59765625 C6.63085938,6.09179688 5.83333333,5.70898438 4.78515625,5.44921875 C3.91471354,5.23046875 3.28580729,4.97639974 2.8984375,4.68701172 C2.51106771,4.3976237 2.31738281,4.03645833 2.31738281,3.60351562 C2.31738281,3.11588542 2.49625651,2.72054036 2.85400391,2.41748047 C3.2117513,2.11442057 3.72558594,1.96289062 4.39550781,1.96289062 C5.1155599,1.96289062 5.66813151,2.14290365 6.05322266,2.50292969 C6.4383138,2.86295573 6.63085938,3.33463542 6.63085938,3.91796875 L6.63085938,3.91796875 L7.91601563,3.91796875 L7.9296875,3.87695312 C7.95247396,3.08854167 7.6414388,2.39583333 6.99658203,1.79882812 C6.35172526,1.20182292 5.48470052,0.903320312 4.39550781,0.903320312 C3.38378906,0.903320312 2.56005859,1.16308594 1.92431641,1.68261719 C1.28857422,2.20214844 0.970703125,2.84928385 0.970703125,3.62402344 C0.970703125,4.36230469 1.26578776,4.97526042 1.85595703,5.46289062 C2.4461263,5.95052083 3.26757813,6.31966146 4.3203125,6.5703125 C5.19075521,6.77994792 5.796875,7.03857422 6.13867188,7.34619141 C6.48046875,7.65380859 6.65136719,8.03548177 6.65136719,8.49121094 C6.65136719,8.98339844 6.453125,9.37304688 6.05664063,9.66015625 C5.66015625,9.94726562 5.12239583,10.0908203 4.44335938,10.0908203 C3.75065104,10.0908203 3.16959635,9.92447917 2.70019531,9.59179688 C2.23079427,9.25911458 1.99609375,8.77376302 1.99609375,8.13574219 L1.99609375,8.13574219 L0.7109375,8.13574219 L0.697265625,8.17675781 C0.674479167,9.07910156 1.04475911,9.79915365 1.80810547,10.3369141 C2.57145182,10.8746745 3.44986979,11.1435547 4.44335938,11.1435547 Z M13.5009766,11 L13.5009766,2.10644531 L16.7001953,2.10644531 L16.7001953,1.046875 L8.96191406,1.046875 L8.96191406,2.10644531 L12.1542969,2.10644531 L12.1542969,11 L13.5009766,11 Z M24.7666016,11 L24.7666016,9.94726562 L19.5097656,9.94726562 L19.5097656,6.38574219 L24.0693359,6.38574219 L24.0693359,5.32617188 L19.5097656,5.32617188 L19.5097656,2.10644531 L24.6914062,2.10644531 L24.6914062,1.046875 L18.1630859,1.046875 L18.1630859,11 L24.7666016,11 Z M32.3955078,11 L32.5048828,9.92675781 C32.6917318,8.35449219 32.995931,7.01578776 33.4174805,5.91064453 C33.8390299,4.8055013 34.6513672,3.5374349 35.8544922,2.10644531 L35.8544922,2.10644531 L35.8544922,1.046875 L29.1210938,1.046875 L29.1210938,2.10644531 L34.5351562,2.10644531 C33.578125,3.28222656 32.8238932,4.48763021 32.2724609,5.72265625 C31.7210286,6.95768229 31.3496094,8.35904948 31.1582031,9.92675781 L31.1582031,9.92675781 L31.0488281,11 L32.3955078,11 Z M41.1318359,11 L41.1318359,1.046875 L37.7480469,1.41601562 L37.7480469,2.38671875 L39.7851562,2.359375 L39.7851562,11 L41.1318359,11 Z M48.6376953,11.1435547 C49.5764974,11.1435547 50.3273112,10.8188477 50.8901367,10.1694336 C51.4529622,9.52001953 51.734375,8.68033854 51.734375,7.65039062 C51.734375,6.70703125 51.4700521,5.92773438 50.9414062,5.3125 C50.4127604,4.69726562 49.7041016,4.38964844 48.8154297,4.38964844 C48.382487,4.38964844 47.9780273,4.46142578 47.6020508,4.60498047 C47.2260742,4.74853516 46.8922526,4.94791667 46.6005859,5.203125 L46.6005859,5.203125 L46.6005859,5.04589844 C46.6005859,4.12988281 46.8181966,3.38704427 47.253418,2.81738281 C47.6886393,2.24772135 48.2617188,1.96289062 48.9726562,1.96289062 C49.3007812,1.96289062 49.5867513,1.99820964 49.8305664,2.06884766 C50.0743815,2.13948568 50.3079427,2.23177083 50.53125,2.34570312 L50.53125,2.34570312 L50.8183594,1.31347656 C50.5996094,1.19498698 50.3227539,1.09700521 49.987793,1.01953125 C49.652832,0.942057292 49.3144531,0.903320312 48.9726562,0.903320312 C47.9199219,0.903320312 47.0380859,1.29980469 46.3271484,2.09277344 C45.6162109,2.88574219 45.2607422,3.9202474 45.2607422,5.19628906 L45.2607422,5.19628906 L45.2607422,7.09667969 C45.2607422,8.38183594 45.5797526,9.37760417 46.2177734,10.0839844 C46.8557943,10.7903646 47.6624349,11.1435547 48.6376953,11.1435547 Z M48.6376953,10.0908203 C48.054362,10.0908203 47.5690104,9.84244792 47.1816406,9.34570312 C46.7942708,8.84895833 46.6005859,8.14257812 46.6005859,7.2265625 L46.6005859,7.2265625 L46.6005859,6.41992188 C46.7692057,6.11002604 47.0152995,5.86165365 47.3388672,5.67480469 C47.6624349,5.48795573 48.054362,5.39453125 48.5146484,5.39453125 C49.1025391,5.39453125 49.5616862,5.60644531 49.8920898,6.03027344 C50.2224935,6.45410156 50.3876953,6.99414062 50.3876953,7.65039062 C50.3876953,8.34309896 50.2338867,8.92301432 49.9262695,9.39013672 C49.6186523,9.85725911 49.1891276,10.0908203 48.6376953,10.0908203 Z M60.3408203,11.1435547 C61.4482422,11.1435547 62.3391927,10.8291016 63.0136719,10.2001953 C63.688151,9.57128906 64.016276,8.78971354 63.9980469,7.85546875 L63.9980469,7.85546875 L63.984375,7.81445312 L62.6923828,7.81445312 C62.6923828,8.52539062 62.4873047,9.08251953 62.0771484,9.48583984 C61.6669922,9.88916016 61.0882161,10.0908203 60.3408203,10.0908203 C59.5888672,10.0908203 58.9895833,9.78776042 58.5429688,9.18164062 C58.0963542,8.57552083 57.8730469,7.81901042 57.8730469,6.91210938 L57.8730469,6.91210938 L57.8730469,5.12792969 C57.8730469,4.23014323 58.0963542,3.4781901 58.5429688,2.87207031 C58.9895833,2.26595052 59.5888672,1.96289062 60.3408203,1.96289062 C61.0882161,1.96289062 61.6669922,2.1656901 62.0771484,2.57128906 C62.4873047,2.97688802 62.6923828,3.52832031 62.6923828,4.22558594 L62.6923828,4.22558594 L63.984375,4.22558594 L63.9980469,4.18457031 C64.016276,3.19563802 63.6927083,2.40152995 63.0273438,1.80224609 C62.3619792,1.20296224 61.4664714,0.903320312 60.3408203,0.903320312 C59.2151693,0.903320312 58.2980143,1.30322266 57.5893555,2.10302734 C56.8806966,2.90283203 56.5263672,3.9156901 56.5263672,5.14160156 L56.5263672,5.14160156 L56.5263672,6.91210938 C56.5263672,8.13802083 56.8806966,9.14973958 57.5893555,9.94726562 C58.2980143,10.7447917 59.2151693,11.1435547 60.3408203,11.1435547 Z M68.5644531,11.1435547 C69.5852865,11.1435547 70.3919271,10.7926432 70.984375,10.0908203 C71.5768229,9.3889974 71.8730469,8.48665365 71.8730469,7.38378906 L71.8730469,7.38378906 L71.8730469,7.23339844 C71.8730469,6.13509115 71.5756836,5.2327474 70.980957,4.52636719 C70.3862305,3.81998698 69.5761719,3.46679688 68.5507812,3.46679688 C67.5345052,3.46679688 66.7301432,3.8211263 66.1376953,4.52978516 C65.5452474,5.23844401 65.2490234,6.13964844 65.2490234,7.23339844 L65.2490234,7.23339844 L65.2490234,7.38378906 C65.2490234,8.48209635 65.5463867,9.38330078 66.1411133,10.0874023 C66.7358398,10.7915039 67.5436198,11.1435547 68.5644531,11.1435547 Z M68.5644531,10.0908203 C67.9127604,10.0908203 67.4217122,9.83561198 67.0913086,9.32519531 C66.7609049,8.81477865 66.5957031,8.16764323 66.5957031,7.38378906 L66.5957031,7.38378906 L66.5957031,7.23339844 C66.5957031,6.45865885 66.7609049,5.81380208 67.0913086,5.29882812 C67.4217122,4.78385417 67.9082031,4.52636719 68.5507812,4.52636719 C69.1979167,4.52636719 69.6889648,4.78385417 70.0239258,5.29882812 C70.3588867,5.81380208 70.5263672,6.45865885 70.5263672,7.23339844 L70.5263672,7.23339844 L70.5263672,7.38378906 C70.5263672,8.16764323 70.360026,8.81477865 70.0273438,9.32519531 C69.6946615,9.83561198 69.2070312,10.0908203 68.5644531,10.0908203 Z M74.8671875,11 L74.8671875,5.71582031 C74.999349,5.41048177 75.1873372,5.1735026 75.4311523,5.00488281 C75.6749674,4.83626302 75.9746094,4.75195312 76.3300781,4.75195312 L76.3300781,4.75195312 L77.0205078,4.79296875 L77.2050781,3.54199219 C77.1458333,3.52376302 77.070638,3.50667318 76.9794922,3.49072266 C76.8883464,3.47477214 76.7926432,3.46679688 76.6923828,3.46679688 C76.2913411,3.46679688 75.9370117,3.57389323 75.6293945,3.78808594 C75.3217773,4.00227865 75.063151,4.30078125 74.8535156,4.68359375 L74.8535156,4.68359375 L74.7236328,3.60351562 L73.5205078,3.60351562 L73.5205078,11 L74.8671875,11 Z M80.4316406,11.1435547 C80.8964844,11.1435547 81.3305664,11.0239258 81.7338867,10.784668 C82.137207,10.5454102 82.4641927,10.2480469 82.7148438,9.89257812 C82.719401,10.0657552 82.7342122,10.237793 82.7592773,10.4086914 C82.7843424,10.5795898 82.8196615,10.7766927 82.8652344,11 L82.8652344,11 L84.2529297,11 C84.180013,10.7630208 84.1298828,10.5214844 84.1025391,10.2753906 C84.0751953,10.0292969 84.0615234,9.77408854 84.0615234,9.50976562 L84.0615234,9.50976562 L84.0615234,5.94824219 C84.0615234,5.14615885 83.8063151,4.5320638 83.2958984,4.10595703 C82.7854818,3.67985026 82.1110026,3.46679688 81.2724609,3.46679688 C80.4248047,3.46679688 79.7332357,3.69010417 79.1977539,4.13671875 C78.6622721,4.58333333 78.4082031,5.07552083 78.4355469,5.61328125 L78.4355469,5.61328125 L78.4492188,5.65429688 L79.734375,5.65429688 C79.734375,5.34440104 79.8699544,5.0789388 80.1411133,4.85791016 C80.4122721,4.63688151 80.7643229,4.52636719 81.1972656,4.52636719 C81.6803385,4.52636719 82.0540365,4.65283203 82.3183594,4.90576172 C82.5826823,5.15869141 82.7148438,5.5016276 82.7148438,5.93457031 L82.7148438,5.93457031 L82.7148438,6.66601562 L81.2519531,6.66601562 C80.2721354,6.66601562 79.4962565,6.86539714 78.9243164,7.26416016 C78.3523763,7.66292318 78.0664062,8.21549479 78.0664062,8.921875 C78.0664062,9.61458333 78.2680664,10.1580404 78.6713867,10.5522461 C79.074707,10.9464518 79.6614583,11.1435547 80.4316406,11.1435547 Z M80.6298828,10.015625 C80.2288411,10.015625 79.9257812,9.91992188 79.7207031,9.72851562 C79.515625,9.53710938 79.4130859,9.27734375 79.4130859,8.94921875 C79.4130859,8.58007812 79.5760091,8.25878906 79.9018555,7.98535156 C80.2277018,7.71191406 80.6617839,7.57519531 81.2041016,7.57519531 L81.2041016,7.57519531 L82.7148438,7.57519531 L82.7148438,8.77832031 C82.5963542,9.10188802 82.3411458,9.3889974 81.9492188,9.63964844 C81.5572917,9.89029948 81.117513,10.015625 80.6298828,10.015625 Z M87.4726562,11 L87.4726562,0.3359375 L86.1259766,0.3359375 L86.1259766,11 L87.4726562,11 Z M96.9814453,11.1435547 C97.9111328,11.1435547 98.6687826,10.9908854 99.2543945,10.6855469 C99.8400065,10.3802083 100.251302,10.0452474 100.488281,9.68066406 L100.488281,9.68066406 L100.488281,6.03027344 L96.9609375,6.03027344 L96.9609375,7.08984375 L99.1416016,7.08984375 L99.1416016,9.35253906 C98.9866536,9.54394531 98.7291667,9.71484375 98.3691406,9.86523438 C98.0091146,10.015625 97.5465495,10.0908203 96.9814453,10.0908203 C96.179362,10.0908203 95.5185547,9.80485026 94.9990234,9.23291016 C94.4794922,8.66097005 94.2197266,7.93294271 94.2197266,7.04882812 L94.2197266,7.04882812 L94.2197266,4.984375 C94.2197266,4.109375 94.4521484,3.38704427 94.9169922,2.81738281 C95.3818359,2.24772135 95.9947917,1.96289062 96.7558594,1.96289062 C97.5078125,1.96289062 98.0831706,2.14973958 98.4819336,2.5234375 C98.8806966,2.89713542 99.1005859,3.3733724 99.1416016,3.95214844 L99.1416016,3.95214844 L100.426758,3.95214844 L100.44043,3.91113281 C100.426758,3.02701823 100.094076,2.3046875 99.4423828,1.74414062 C98.7906901,1.18359375 97.8951823,0.903320312 96.7558594,0.903320312 C95.6119792,0.903320312 94.6777344,1.28385417 93.953125,2.04492188 C93.2285156,2.80598958 92.8662109,3.79036458 92.8662109,4.99804688 L92.8662109,4.99804688 L92.8662109,7.04882812 C92.8662109,8.25651042 93.2547201,9.24088542 94.0317383,10.0019531 C94.8087565,10.7630208 95.7919922,11.1435547 96.9814453,11.1435547 Z M104.678711,11.1435547 C105.143555,11.1435547 105.577637,11.0239258 105.980957,10.784668 C106.384277,10.5454102 106.711263,10.2480469 106.961914,9.89257812 C106.966471,10.0657552 106.981283,10.237793 107.006348,10.4086914 C107.031413,10.5795898 107.066732,10.7766927 107.112305,11 L107.112305,11 L108.5,11 C108.427083,10.7630208 108.376953,10.5214844 108.349609,10.2753906 C108.322266,10.0292969 108.308594,9.77408854 108.308594,9.50976562 L108.308594,9.50976562 L108.308594,5.94824219 C108.308594,5.14615885 108.053385,4.5320638 107.542969,4.10595703 C107.032552,3.67985026 106.358073,3.46679688 105.519531,3.46679688 C104.671875,3.46679688 103.980306,3.69010417 103.444824,4.13671875 C102.909342,4.58333333 102.655273,5.07552083 102.682617,5.61328125 L102.682617,5.61328125 L102.696289,5.65429688 L103.981445,5.65429688 C103.981445,5.34440104 104.117025,5.0789388 104.388184,4.85791016 C104.659342,4.63688151 105.011393,4.52636719 105.444336,4.52636719 C105.927409,4.52636719 106.301107,4.65283203 106.56543,4.90576172 C106.829753,5.15869141 106.961914,5.5016276 106.961914,5.93457031 L106.961914,5.93457031 L106.961914,6.66601562 L105.499023,6.66601562 C104.519206,6.66601562 103.743327,6.86539714 103.171387,7.26416016 C102.599447,7.66292318 102.313477,8.21549479 102.313477,8.921875 C102.313477,9.61458333 102.515137,10.1580404 102.918457,10.5522461 C103.321777,10.9464518 103.908529,11.1435547 104.678711,11.1435547 Z M104.876953,10.015625 C104.475911,10.015625 104.172852,9.91992188 103.967773,9.72851562 C103.762695,9.53710938 103.660156,9.27734375 103.660156,8.94921875 C103.660156,8.58007812 103.823079,8.25878906 104.148926,7.98535156 C104.474772,7.71191406 104.908854,7.57519531 105.451172,7.57519531 L105.451172,7.57519531 L106.961914,7.57519531 L106.961914,8.77832031 C106.843424,9.10188802 106.588216,9.3889974 106.196289,9.63964844 C105.804362,9.89029948 105.364583,10.015625 104.876953,10.015625 Z M113.695312,11.1435547 C114.593099,11.1435547 115.29834,10.816569 115.811035,10.1625977 C116.32373,9.5086263 116.580078,8.6484375 116.580078,7.58203125 L116.580078,7.58203125 L116.580078,7.43847656 C116.580078,6.24902344 116.32487,5.28971354 115.814453,4.56054688 C115.304036,3.83138021 114.593099,3.46679688 113.681641,3.46679688 C113.221354,3.46679688 112.819173,3.55338542 112.475098,3.7265625 C112.131022,3.89973958 111.842773,4.15039062 111.610352,4.47851562 L111.610352,4.47851562 L111.610352,0.3359375 L110.263672,0.3359375 L110.263672,11 L111.364258,11 L111.52832,10.0224609 C111.765299,10.3916016 112.063802,10.6707357 112.423828,10.8598633 C112.783854,11.0489909 113.207682,11.1435547 113.695312,11.1435547 Z M113.353516,10.0498047 C112.92513,10.0498047 112.570801,9.94726562 112.290527,9.7421875 C112.010254,9.53710938 111.783529,9.25227865 111.610352,8.88769531 L111.610352,8.88769531 L111.610352,5.68164062 C111.778971,5.33984375 112.005697,5.06754557 112.290527,4.86474609 C112.575358,4.66194661 112.92513,4.56054688 113.339844,4.56054688 C113.977865,4.56054688 114.452962,4.82828776 114.765137,5.36376953 C115.077311,5.8992513 115.233398,6.59082031 115.233398,7.43847656 L115.233398,7.43847656 L115.233398,7.58203125 C115.233398,8.32486979 115.078451,8.921875 114.768555,9.37304688 C114.458659,9.82421875 113.986979,10.0498047 113.353516,10.0498047 Z M119.676758,11 L119.676758,0.3359375 L118.330078,0.3359375 L118.330078,11 L119.676758,11 Z M124.817383,11.1435547 C125.432617,11.1435547 125.956706,11.0569661 126.389648,10.8837891 C126.822591,10.710612 127.171224,10.4941406 127.435547,10.234375 L127.435547,10.234375 L126.90918,9.359375 C126.658529,9.58723958 126.361165,9.76611328 126.01709,9.89599609 C125.673014,10.0258789 125.273112,10.0908203 124.817383,10.0908203 C124.193034,10.0908203 123.707682,9.86181641 123.361328,9.40380859 C123.014974,8.94580078 122.834961,8.36132812 122.821289,7.65039062 L122.821289,7.65039062 L122.841797,7.61621094 L127.640625,7.61621094 L127.640625,6.77539062 C127.640625,5.77278646 127.385417,4.97070312 126.875,4.36914062 C126.364583,3.76757812 125.610352,3.46679688 124.612305,3.46679688 C123.755534,3.46679688 123.013835,3.81656901 122.387207,4.51611328 C121.760579,5.21565755 121.447266,6.09179688 121.447266,7.14453125 L121.447266,7.14453125 L121.447266,7.4453125 C121.447266,8.5390625 121.751465,9.4288737 122.359863,10.1147461 C122.968262,10.8006185 123.787435,11.1435547 124.817383,11.1435547 Z M126.293945,6.56347656 L122.882812,6.56347656 L122.869141,6.52929688 C122.942057,5.95507812 123.138021,5.47770182 123.457031,5.09716797 C123.776042,4.71663411 124.161133,4.52636719 124.612305,4.52636719 C125.168294,4.52636719 125.587565,4.70410156 125.870117,5.05957031 C126.152669,5.41503906 126.293945,5.85709635 126.293945,6.38574219 L126.293945,6.38574219 L126.293945,6.56347656 Z M131.919922,11.1435547 C132.776693,11.1435547 133.47054,10.9407552 134.001465,10.5351562 C134.532389,10.1295573 134.797852,9.59863281 134.797852,8.94238281 C134.797852,8.36360677 134.569987,7.90218099 134.114258,7.55810547 C133.658529,7.21402995 132.963542,6.94173177 132.029297,6.74121094 C131.400391,6.60904948 130.983398,6.45865885 130.77832,6.29003906 C130.573242,6.12141927 130.470703,5.89127604 130.470703,5.59960938 C130.470703,5.30338542 130.586914,5.05045573 130.819336,4.84082031 C131.051758,4.6311849 131.407227,4.52636719 131.885742,4.52636719 C132.332357,4.52636719 132.691243,4.65511068 132.962402,4.91259766 C133.233561,5.17008464 133.369141,5.46061198 133.369141,5.78417969 L133.369141,5.78417969 L134.654297,5.78417969 L134.667969,5.74316406 C134.690755,5.10970052 134.448079,4.5719401 133.939941,4.12988281 C133.431803,3.68782552 132.74707,3.46679688 131.885742,3.46679688 C131.06543,3.46679688 130.400065,3.67871094 129.889648,4.10253906 C129.379232,4.52636719 129.124023,5.0390625 129.124023,5.640625 C129.124023,6.21940104 129.350749,6.67626953 129.804199,7.01123047 C130.25765,7.34619141 130.933268,7.61165365 131.831055,7.80761719 C132.459961,7.94889323 132.887207,8.11523438 133.112793,8.30664062 C133.338379,8.49804688 133.451172,8.74186198 133.451172,9.03808594 C133.451172,9.35253906 133.315592,9.60660807 133.044434,9.80029297 C132.773275,9.99397786 132.398438,10.0908203 131.919922,10.0908203 C131.473307,10.0908203 131.083659,9.98030599 130.750977,9.75927734 C130.418294,9.5382487 130.24056,9.18847656 130.217773,8.70996094 L130.217773,8.70996094 L128.932617,8.70996094 L128.918945,8.75097656 C128.891602,9.3889974 129.149089,9.94726562 129.691406,10.4257812 C130.233724,10.9042969 130.976562,11.1435547 131.919922,11.1435547 Z M142.768555,11.1435547 C143.693685,11.1435547 144.453613,10.8837891 145.04834,10.3642578 C145.643066,9.84472656 145.94043,9.13151042 145.94043,8.22460938 C145.94043,7.70507812 145.816243,7.23567708 145.567871,6.81640625 C145.319499,6.39713542 144.89681,6.08951823 144.299805,5.89355469 C144.796549,5.67936198 145.169108,5.36832682 145.41748,4.96044922 C145.665853,4.55257161 145.790039,4.14355469 145.790039,3.73339844 C145.790039,2.8264974 145.516602,2.12809245 144.969727,1.63818359 C144.422852,1.14827474 143.689128,0.903320312 142.768555,0.903320312 C141.852539,0.903320312 141.11084,1.16650391 140.543457,1.69287109 C139.976074,2.21923828 139.703776,2.85839844 139.726562,3.61035156 L139.726562,3.61035156 L139.740234,3.65136719 L141.032227,3.65136719 C141.032227,3.14095052 141.190592,2.73193359 141.507324,2.42431641 C141.824056,2.11669922 142.244466,1.96289062 142.768555,1.96289062 C143.319987,1.96289062 143.736979,2.1110026 144.019531,2.40722656 C144.302083,2.70345052 144.443359,3.13639323 144.443359,3.70605469 C144.443359,4.23925781 144.319173,4.65511068 144.070801,4.95361328 C143.822428,5.25211589 143.39974,5.40136719 142.802734,5.40136719 L142.802734,5.40136719 L141.626953,5.40136719 L141.626953,6.45410156 L142.802734,6.45410156 C143.422526,6.45410156 143.875977,6.5999349 144.163086,6.89160156 C144.450195,7.18326823 144.59375,7.63671875 144.59375,8.25195312 C144.59375,8.85807292 144.431966,9.31608073 144.108398,9.62597656 C143.784831,9.9358724 143.338216,10.0908203 142.768555,10.0908203 C142.208008,10.0908203 141.76709,9.9358724 141.445801,9.62597656 C141.124512,9.31608073 140.963867,8.89908854 140.963867,8.375 L140.963867,8.375 L139.678711,8.375 L139.658203,8.41601562 C139.635417,9.25455729 139.921387,9.91878255 140.516113,10.4086914 C141.11084,10.8986003 141.861654,11.1435547 142.768555,11.1435547 Z M150.650391,11.1435547 C151.575521,11.1435547 152.335449,10.8837891 152.930176,10.3642578 C153.524902,9.84472656 153.822266,9.13151042 153.822266,8.22460938 C153.822266,7.70507812 153.698079,7.23567708 153.449707,6.81640625 C153.201335,6.39713542 152.778646,6.08951823 152.181641,5.89355469 C152.678385,5.67936198 153.050944,5.36832682 153.299316,4.96044922 C153.547689,4.55257161 153.671875,4.14355469 153.671875,3.73339844 C153.671875,2.8264974 153.398438,2.12809245 152.851562,1.63818359 C152.304688,1.14827474 151.570964,0.903320312 150.650391,0.903320312 C149.734375,0.903320312 148.992676,1.16650391 148.425293,1.69287109 C147.85791,2.21923828 147.585612,2.85839844 147.608398,3.61035156 L147.608398,3.61035156 L147.62207,3.65136719 L148.914062,3.65136719 C148.914062,3.14095052 149.072428,2.73193359 149.38916,2.42431641 C149.705892,2.11669922 150.126302,1.96289062 150.650391,1.96289062 C151.201823,1.96289062 151.618815,2.1110026 151.901367,2.40722656 C152.183919,2.70345052 152.325195,3.13639323 152.325195,3.70605469 C152.325195,4.23925781 152.201009,4.65511068 151.952637,4.95361328 C151.704264,5.25211589 151.281576,5.40136719 150.68457,5.40136719 L150.68457,5.40136719 L149.508789,5.40136719 L149.508789,6.45410156 L150.68457,6.45410156 C151.304362,6.45410156 151.757812,6.5999349 152.044922,6.89160156 C152.332031,7.18326823 152.475586,7.63671875 152.475586,8.25195312 C152.475586,8.85807292 152.313802,9.31608073 151.990234,9.62597656 C151.666667,9.9358724 151.220052,10.0908203 150.650391,10.0908203 C150.089844,10.0908203 149.648926,9.9358724 149.327637,9.62597656 C149.006348,9.31608073 148.845703,8.89908854 148.845703,8.375 L148.845703,8.375 L147.560547,8.375 L147.540039,8.41601562 C147.517253,9.25455729 147.803223,9.91878255 148.397949,10.4086914 C148.992676,10.8986003 149.74349,11.1435547 150.650391,11.1435547 Z M159.393555,11 L159.393555,1.046875 L156.009766,1.41601562 L156.009766,2.38671875 L158.046875,2.359375 L158.046875,11 L159.393555,11 Z M166.414062,11.1435547 C167.339193,11.1435547 168.099121,10.8837891 168.693848,10.3642578 C169.288574,9.84472656 169.585938,9.13151042 169.585938,8.22460938 C169.585938,7.70507812 169.461751,7.23567708 169.213379,6.81640625 C168.965007,6.39713542 168.542318,6.08951823 167.945312,5.89355469 C168.442057,5.67936198 168.814616,5.36832682 169.062988,4.96044922 C169.311361,4.55257161 169.435547,4.14355469 169.435547,3.73339844 C169.435547,2.8264974 169.162109,2.12809245 168.615234,1.63818359 C168.068359,1.14827474 167.334635,0.903320312 166.414062,0.903320312 C165.498047,0.903320312 164.756348,1.16650391 164.188965,1.69287109 C163.621582,2.21923828 163.349284,2.85839844 163.37207,3.61035156 L163.37207,3.61035156 L163.385742,3.65136719 L164.677734,3.65136719 C164.677734,3.14095052 164.8361,2.73193359 165.152832,2.42431641 C165.469564,2.11669922 165.889974,1.96289062 166.414062,1.96289062 C166.965495,1.96289062 167.382487,2.1110026 167.665039,2.40722656 C167.947591,2.70345052 168.088867,3.13639323 168.088867,3.70605469 C168.088867,4.23925781 167.964681,4.65511068 167.716309,4.95361328 C167.467936,5.25211589 167.045247,5.40136719 166.448242,5.40136719 L166.448242,5.40136719 L165.272461,5.40136719 L165.272461,6.45410156 L166.448242,6.45410156 C167.068034,6.45410156 167.521484,6.5999349 167.808594,6.89160156 C168.095703,7.18326823 168.239258,7.63671875 168.239258,8.25195312 C168.239258,8.85807292 168.077474,9.31608073 167.753906,9.62597656 C167.430339,9.9358724 166.983724,10.0908203 166.414062,10.0908203 C165.853516,10.0908203 165.412598,9.9358724 165.091309,9.62597656 C164.77002,9.31608073 164.609375,8.89908854 164.609375,8.375 L164.609375,8.375 L163.324219,8.375 L163.303711,8.41601562 C163.280924,9.25455729 163.566895,9.91878255 164.161621,10.4086914 C164.756348,10.8986003 165.507161,11.1435547 166.414062,11.1435547 Z M176.688477,11 L176.688477,8.703125 L178.0625,8.703125 L178.0625,7.65039062 L176.688477,7.65039062 L176.688477,1.046875 L175.266602,1.046875 L170.87793,7.94433594 L170.87793,8.703125 L175.348633,8.703125 L175.348633,11 L176.688477,11 Z M175.348633,7.65039062 L172.313477,7.65039062 L175.177734,3.31640625 L175.307617,2.97460938 L175.348633,2.98144531 L175.348633,7.65039062 Z M184.44043,11 L184.44043,6.59765625 L188.979492,6.59765625 L188.979492,5.53808594 L184.44043,5.53808594 L184.44043,2.10644531 L189.676758,2.10644531 L189.676758,1.046875 L183.09375,1.046875 L183.09375,11 L184.44043,11 Z M192.452148,11 L192.452148,0.3359375 L191.105469,0.3359375 L191.105469,11 L192.452148,11 Z M197.524414,11.1435547 C198.545247,11.1435547 199.351888,10.7926432 199.944336,10.0908203 C200.536784,9.3889974 200.833008,8.48665365 200.833008,7.38378906 L200.833008,7.38378906 L200.833008,7.23339844 C200.833008,6.13509115 200.535645,5.2327474 199.940918,4.52636719 C199.346191,3.81998698 198.536133,3.46679688 197.510742,3.46679688 C196.494466,3.46679688 195.690104,3.8211263 195.097656,4.52978516 C194.505208,5.23844401 194.208984,6.13964844 194.208984,7.23339844 L194.208984,7.23339844 L194.208984,7.38378906 C194.208984,8.48209635 194.506348,9.38330078 195.101074,10.0874023 C195.695801,10.7915039 196.503581,11.1435547 197.524414,11.1435547 Z M197.524414,10.0908203 C196.872721,10.0908203 196.381673,9.83561198 196.05127,9.32519531 C195.720866,8.81477865 195.555664,8.16764323 195.555664,7.38378906 L195.555664,7.38378906 L195.555664,7.23339844 C195.555664,6.45865885 195.720866,5.81380208 196.05127,5.29882812 C196.381673,4.78385417 196.868164,4.52636719 197.510742,4.52636719 C198.157878,4.52636719 198.648926,4.78385417 198.983887,5.29882812 C199.318848,5.81380208 199.486328,6.45865885 199.486328,7.23339844 L199.486328,7.23339844 L199.486328,7.38378906 C199.486328,8.16764323 199.319987,8.81477865 198.987305,9.32519531 C198.654622,9.83561198 198.166992,10.0908203 197.524414,10.0908203 Z M203.827148,11 L203.827148,5.71582031 C203.95931,5.41048177 204.147298,5.1735026 204.391113,5.00488281 C204.634928,4.83626302 204.93457,4.75195312 205.290039,4.75195312 L205.290039,4.75195312 L205.980469,4.79296875 L206.165039,3.54199219 C206.105794,3.52376302 206.030599,3.50667318 205.939453,3.49072266 C205.848307,3.47477214 205.752604,3.46679688 205.652344,3.46679688 C205.251302,3.46679688 204.896973,3.57389323 204.589355,3.78808594 C204.281738,4.00227865 204.023112,4.30078125 203.813477,4.68359375 L203.813477,4.68359375 L203.683594,3.60351562 L202.480469,3.60351562 L202.480469,11 L203.827148,11 Z M208.735352,1.70996094 L208.735352,0.3359375 L207.388672,0.3359375 L207.388672,1.70996094 L208.735352,1.70996094 Z M208.735352,11 L208.735352,3.60351562 L207.388672,3.60351562 L207.388672,11 L208.735352,11 Z M213.383789,11.1435547 C213.848633,11.1435547 214.25651,11.0546875 214.607422,10.8769531 C214.958333,10.6992188 215.254557,10.4371745 215.496094,10.0908203 L215.496094,10.0908203 L215.65332,11 L216.753906,11 L216.753906,0.3359375 L215.407227,0.3359375 L215.407227,4.40332031 C215.170247,4.09798177 214.884277,3.8655599 214.549316,3.70605469 C214.214355,3.54654948 213.830404,3.46679688 213.397461,3.46679688 C212.481445,3.46679688 211.769368,3.83138021 211.26123,4.56054688 C210.753092,5.28971354 210.499023,6.24902344 210.499023,7.43847656 L210.499023,7.43847656 L210.499023,7.58203125 C210.499023,8.6484375 210.754232,9.5086263 211.264648,10.1625977 C211.775065,10.816569 212.481445,11.1435547 213.383789,11.1435547 Z M213.725586,10.0498047 C213.083008,10.0498047 212.609049,9.82535807 212.303711,9.37646484 C211.998372,8.92757161 211.845703,8.32942708 211.845703,7.58203125 L211.845703,7.58203125 L211.845703,7.43847656 C211.845703,6.58626302 211.999512,5.89355469 212.307129,5.36035156 C212.614746,4.82714844 213.092122,4.56054688 213.739258,4.56054688 C214.126628,4.56054688 214.458171,4.65055339 214.733887,4.83056641 C215.009603,5.01057943 215.234049,5.25325521 215.407227,5.55859375 L215.407227,5.55859375 L215.407227,9.01074219 C215.234049,9.33886719 215.010742,9.59407552 214.737305,9.77636719 C214.463867,9.95865885 214.126628,10.0498047 213.725586,10.0498047 Z M220.875977,11.1435547 C221.34082,11.1435547 221.774902,11.0239258 222.178223,10.784668 C222.581543,10.5454102 222.908529,10.2480469 223.15918,9.89257812 C223.163737,10.0657552 223.178548,10.237793 223.203613,10.4086914 C223.228678,10.5795898 223.263997,10.7766927 223.30957,11 L223.30957,11 L224.697266,11 C224.624349,10.7630208 224.574219,10.5214844 224.546875,10.2753906 C224.519531,10.0292969 224.505859,9.77408854 224.505859,9.50976562 L224.505859,9.50976562 L224.505859,5.94824219 C224.505859,5.14615885 224.250651,4.5320638 223.740234,4.10595703 C223.229818,3.67985026 222.555339,3.46679688 221.716797,3.46679688 C220.869141,3.46679688 220.177572,3.69010417 219.64209,4.13671875 C219.106608,4.58333333 218.852539,5.07552083 218.879883,5.61328125 L218.879883,5.61328125 L218.893555,5.65429688 L220.178711,5.65429688 C220.178711,5.34440104 220.31429,5.0789388 220.585449,4.85791016 C220.856608,4.63688151 221.208659,4.52636719 221.641602,4.52636719 C222.124674,4.52636719 222.498372,4.65283203 222.762695,4.90576172 C223.027018,5.15869141 223.15918,5.5016276 223.15918,5.93457031 L223.15918,5.93457031 L223.15918,6.66601562 L221.696289,6.66601562 C220.716471,6.66601562 219.940592,6.86539714 219.368652,7.26416016 C218.796712,7.66292318 218.510742,8.21549479 218.510742,8.921875 C218.510742,9.61458333 218.712402,10.1580404 219.115723,10.5522461 C219.519043,10.9464518 220.105794,11.1435547 220.875977,11.1435547 Z M221.074219,10.015625 C220.673177,10.015625 220.370117,9.91992188 220.165039,9.72851562 C219.959961,9.53710938 219.857422,9.27734375 219.857422,8.94921875 C219.857422,8.58007812 220.020345,8.25878906 220.346191,7.98535156 C220.672038,7.71191406 221.10612,7.57519531 221.648438,7.57519531 L221.648438,7.57519531 L223.15918,7.57519531 L223.15918,8.77832031 C223.04069,9.10188802 222.785482,9.3889974 222.393555,9.63964844 C222.001628,9.89029948 221.561849,10.015625 221.074219,10.015625 Z M233.652344,11.1435547 C234.787109,11.1435547 235.706543,10.8564453 236.410645,10.2822266 C237.114746,9.70800781 237.466797,8.87858073 237.466797,7.79394531 L237.466797,7.79394531 L237.466797,1.046875 L236.120117,1.046875 L236.120117,7.79394531 C236.120117,8.54589844 235.893392,9.11669922 235.439941,9.50634766 C234.986491,9.89599609 234.390625,10.0908203 233.652344,10.0908203 C232.950521,10.0908203 232.385417,9.89599609 231.957031,9.50634766 C231.528646,9.11669922 231.314453,8.54589844 231.314453,7.79394531 L231.314453,7.79394531 L231.314453,1.046875 L229.967773,1.046875 L229.967773,7.79394531 C229.967773,8.87402344 230.308431,9.7023112 230.989746,10.2788086 C231.671061,10.855306 232.558594,11.1435547 233.652344,11.1435547 Z M242.880859,11.1435547 C243.938151,11.1435547 244.794922,10.8997396 245.451172,10.4121094 C246.107422,9.92447917 246.435547,9.2796224 246.435547,8.47753906 C246.435547,7.73014323 246.162109,7.10351563 245.615234,6.59765625 C245.068359,6.09179688 244.270833,5.70898438 243.222656,5.44921875 C242.352214,5.23046875 241.723307,4.97639974 241.335938,4.68701172 C240.948568,4.3976237 240.754883,4.03645833 240.754883,3.60351562 C240.754883,3.11588542 240.933757,2.72054036 241.291504,2.41748047 C241.649251,2.11442057 242.163086,1.96289062 242.833008,1.96289062 C243.55306,1.96289062 244.105632,2.14290365 244.490723,2.50292969 C244.875814,2.86295573 245.068359,3.33463542 245.068359,3.91796875 L245.068359,3.91796875 L246.353516,3.91796875 L246.367188,3.87695312 C246.389974,3.08854167 246.078939,2.39583333 245.434082,1.79882812 C244.789225,1.20182292 243.922201,0.903320312 242.833008,0.903320312 C241.821289,0.903320312 240.997559,1.16308594 240.361816,1.68261719 C239.726074,2.20214844 239.408203,2.84928385 239.408203,3.62402344 C239.408203,4.36230469 239.703288,4.97526042 240.293457,5.46289062 C240.883626,5.95052083 241.705078,6.31966146 242.757813,6.5703125 C243.628255,6.77994792 244.234375,7.03857422 244.576172,7.34619141 C244.917969,7.65380859 245.088867,8.03548177 245.088867,8.49121094 C245.088867,8.98339844 244.890625,9.37304688 244.494141,9.66015625 C244.097656,9.94726562 243.559896,10.0908203 242.880859,10.0908203 C242.188151,10.0908203 241.607096,9.92447917 241.137695,9.59179688 C240.668294,9.25911458 240.433594,8.77376302 240.433594,8.13574219 L240.433594,8.13574219 L239.148438,8.13574219 L239.134766,8.17675781 C239.111979,9.07910156 239.482259,9.79915365 240.245605,10.3369141 C241.008952,10.8746745 241.88737,11.1435547 242.880859,11.1435547 Z" id="STE716CoralGables33134FloridaUS," fill="#AEB6C7" fill-rule="nonzero"></path>
    </g>
</svg>