<?xml version="1.0" encoding="UTF-8"?>
<svg width="189px" height="14px" viewBox="0 0 189 14" version="1.1" xmlns="http://www.w3.org/2000/svg" xmlns:xlink="http://www.w3.org/1999/xlink">
    <!-- Generator: Sketch 60.1 (88133) - https://sketch.com -->
    <title>AvingudaLitoral12-5ªplanta;</title>
    <desc>Created with Sketch.</desc>
    <g id="UI-INTERFACE" stroke="none" stroke-width="1" fill="none" fill-rule="evenodd">
        <path d="M1.54492188,11 L2.48144531,8.40234375 L6.65136719,8.40234375 L7.6015625,11 L8.94824219,11 L5.140625,1.046875 L3.9921875,1.046875 L0.19140625,11 L1.54492188,11 Z M6.26171875,7.32226562 L2.87792969,7.32226562 L4.56640625,2.66699219 L6.26171875,7.32226562 Z M12.6601562,11 L15.3125,3.60351562 L14.0205078,3.60351562 L12.1884766,9.28417969 L10.3085938,3.60351562 L9.01660156,3.60351562 L11.6962891,11 L12.6601562,11 Z M17.28125,2.359375 C17.5273438,2.359375 17.7141927,2.29101562 17.8417969,2.15429688 C17.969401,2.01757812 18.0332031,1.84667969 18.0332031,1.64160156 C18.0332031,1.43652344 17.969401,1.26334635 17.8417969,1.12207031 C17.7141927,0.980794271 17.5273438,0.91015625 17.28125,0.91015625 C17.0351562,0.91015625 16.8494466,0.980794271 16.7241211,1.12207031 C16.5987956,1.26334635 16.5361328,1.43652344 16.5361328,1.64160156 C16.5361328,1.84667969 16.5987956,2.01757812 16.7241211,2.15429688 C16.8494466,2.29101562 17.0351562,2.359375 17.28125,2.359375 Z M17.9033203,11 L17.9033203,3.60351562 L16.6386719,3.60351562 L16.6386719,11 L17.9033203,11 Z M21.1914062,11 L21.1914062,5.72949219 C21.3645833,5.37402344 21.6061198,5.08691406 21.9160156,4.86816406 C22.2259115,4.64941406 22.5859375,4.54003906 22.9960938,4.54003906 C23.5019531,4.54003906 23.8745117,4.66764323 24.1137695,4.92285156 C24.3530273,5.1780599 24.4749349,5.57226562 24.4794922,6.10546875 L24.4794922,6.10546875 L24.4794922,11 L25.7441406,11 L25.7441406,6.11230469 C25.7304688,4.34863281 24.9420573,3.46679688 23.3789062,3.46679688 C22.4674479,3.46679688 21.7291667,3.82226562 21.1640625,4.53320312 L21.1640625,4.53320312 L21.1230469,3.60351562 L19.9267578,3.60351562 L19.9267578,11 L21.1914062,11 Z M30.4609375,13.9121094 C31.4179688,13.9121094 32.1801758,13.6363932 32.7475586,13.0849609 C33.3149414,12.5335286 33.5986328,11.7792969 33.5986328,10.8222656 L33.5986328,10.8222656 L33.5986328,3.60351562 L32.4433594,3.60351562 L32.3818359,4.42382812 C31.8759766,3.78580729 31.171875,3.46679688 30.2695312,3.46679688 C29.389974,3.46679688 28.6835938,3.80745443 28.1503906,4.48876953 C27.6171875,5.17008464 27.3505859,6.08723958 27.3505859,7.24023438 C27.3505859,8.44335938 27.6183268,9.39355469 28.1538086,10.0908203 C28.6892904,10.7880859 29.389974,11.1367188 30.2558594,11.1367188 C31.1308594,11.1367188 31.8212891,10.8450521 32.3271484,10.2617188 L32.3271484,10.2617188 L32.3271484,10.8974609 C32.3271484,11.5263672 32.1551107,12.0139974 31.8110352,12.3603516 C31.4669596,12.7067057 30.9873047,12.8798828 30.3720703,12.8798828 C29.5882161,12.8798828 28.9251302,12.5449219 28.3828125,11.875 L28.3828125,11.875 L27.7265625,12.6337891 C27.9954427,13.0302734 28.3850911,13.3424479 28.8955078,13.5703125 C29.4059245,13.7981771 29.9277344,13.9121094 30.4609375,13.9121094 Z M30.5703125,10.0634766 C29.9550781,10.0634766 29.4765625,9.82535807 29.1347656,9.34912109 C28.7929688,8.87288411 28.6220703,8.21777344 28.6220703,7.38378906 C28.6220703,6.44498698 28.7952474,5.73632812 29.1416016,5.2578125 C29.4879557,4.77929688 29.96875,4.54003906 30.5839844,4.54003906 C31.358724,4.54003906 31.9397786,4.89322917 32.3271484,5.59960938 L32.3271484,5.59960938 L32.3271484,8.9765625 C31.9534505,9.70117188 31.3678385,10.0634766 30.5703125,10.0634766 Z M37.9052734,11.1367188 C38.8577474,11.1367188 39.5800781,10.8473307 40.0722656,10.2685547 L40.0722656,10.2685547 L40.0996094,11 L41.3027344,11 L41.3027344,3.60351562 L40.0380859,3.60351562 L40.0380859,8.98339844 C39.7190755,9.70345052 39.0764974,10.0634766 38.1103516,10.0634766 C37.1988932,10.0634766 36.7431641,9.50292969 36.7431641,8.38183594 L36.7431641,8.38183594 L36.7431641,3.60351562 L35.4785156,3.60351562 L35.4785156,8.41601562 C35.4830729,9.31380208 35.691569,9.99169922 36.1040039,10.449707 C36.5164388,10.9077148 37.116862,11.1367188 37.9052734,11.1367188 Z M45.8212891,11.1367188 C46.7236328,11.1367188 47.4277344,10.8268229 47.9335938,10.2070312 L47.9335938,10.2070312 L47.9951172,11 L49.1572266,11 L49.1572266,0.5 L47.8925781,0.5 L47.8925781,4.35546875 C47.3867188,3.76302083 46.7008464,3.46679688 45.8349609,3.46679688 C44.9645182,3.46679688 44.2604167,3.81201172 43.7226562,4.50244141 C43.1848958,5.19287109 42.9160156,6.10546875 42.9160156,7.24023438 L42.9160156,7.24023438 L42.9160156,7.3359375 C42.9160156,8.46614583 43.1860352,9.38216146 43.7260742,10.0839844 C44.2661133,10.7858073 44.9645182,11.1367188 45.8212891,11.1367188 Z M46.1357422,10.0634766 C45.5250651,10.0634766 45.0465495,9.8264974 44.7001953,9.35253906 C44.3538411,8.87858073 44.1806641,8.22233073 44.1806641,7.38378906 C44.1806641,6.44498698 44.3538411,5.73632812 44.7001953,5.2578125 C45.0465495,4.77929688 45.5296224,4.54003906 46.1494141,4.54003906 C46.9332682,4.54003906 47.5143229,4.88867188 47.8925781,5.5859375 L47.8925781,5.5859375 L47.8925781,8.98339844 C47.5234375,9.70345052 46.9378255,10.0634766 46.1357422,10.0634766 Z M53.4023438,11.1367188 C54.218099,11.1367188 54.9199219,10.8313802 55.5078125,10.2207031 C55.5533854,10.594401 55.6126302,10.8541667 55.6855469,11 L55.6855469,11 L57.0117188,11 L57.0117188,10.890625 C56.8385417,10.4895833 56.7519531,9.94954427 56.7519531,9.27050781 L56.7519531,9.27050781 L56.7519531,5.86621094 C56.733724,5.1188151 56.4830729,4.5320638 56,4.10595703 C55.5169271,3.67985026 54.8492839,3.46679688 53.9970703,3.46679688 C53.4593099,3.46679688 52.9659831,3.56705729 52.5170898,3.76757812 C52.0681966,3.96809896 51.7127279,4.24039714 51.4506836,4.58447266 C51.1886393,4.92854818 51.0576172,5.28515625 51.0576172,5.65429688 L51.0576172,5.65429688 L52.3291016,5.65429688 C52.3291016,5.33072917 52.4817708,5.05501302 52.7871094,4.82714844 C53.0924479,4.59928385 53.4707031,4.48535156 53.921875,4.48535156 C54.436849,4.48535156 54.8264974,4.6163737 55.0908203,4.87841797 C55.3551432,5.14046224 55.4873047,5.49251302 55.4873047,5.93457031 L55.4873047,5.93457031 L55.4873047,6.515625 L54.2568359,6.515625 C53.194987,6.515625 52.3712565,6.72867839 51.7856445,7.15478516 C51.2000326,7.58089193 50.9072266,8.17903646 50.9072266,8.94921875 C50.9072266,9.58268229 51.1407878,10.1056315 51.6079102,10.5180664 C52.0750326,10.9305013 52.6731771,11.1367188 53.4023438,11.1367188 Z M53.5869141,10.0361328 C53.1722005,10.0361328 52.8326823,9.92447917 52.5683594,9.70117188 C52.3040365,9.47786458 52.171875,9.16796875 52.171875,8.77148438 C52.171875,7.86458333 52.9466146,7.41113281 54.4960938,7.41113281 L54.4960938,7.41113281 L55.4873047,7.41113281 L55.4873047,8.92871094 C55.3277995,9.25683594 55.0703125,9.5234375 54.7148438,9.72851562 C54.359375,9.93359375 53.9833984,10.0361328 53.5869141,10.0361328 Z M68.4345703,11 L68.4345703,9.92675781 L63.7177734,9.92675781 L63.7177734,1.046875 L62.3984375,1.046875 L62.3984375,11 L68.4345703,11 Z M70.4853516,2.359375 C70.7314453,2.359375 70.9182943,2.29101562 71.0458984,2.15429688 C71.1735026,2.01757812 71.2373047,1.84667969 71.2373047,1.64160156 C71.2373047,1.43652344 71.1735026,1.26334635 71.0458984,1.12207031 C70.9182943,0.980794271 70.7314453,0.91015625 70.4853516,0.91015625 C70.2392578,0.91015625 70.0535482,0.980794271 69.9282227,1.12207031 C69.8028971,1.26334635 69.7402344,1.43652344 69.7402344,1.64160156 C69.7402344,1.84667969 69.8028971,2.01757812 69.9282227,2.15429688 C70.0535482,2.29101562 70.2392578,2.359375 70.4853516,2.359375 Z M71.1074219,11 L71.1074219,3.60351562 L69.8427734,3.60351562 L69.8427734,11 L71.1074219,11 Z M75.2910156,11.1367188 C75.6054688,11.1367188 75.9290365,11.0911458 76.2617188,11 L76.2617188,11 L76.2617188,9.97460938 C76.0065104,10.0292969 75.8059896,10.0566406 75.6601562,10.0566406 C75.3639323,10.0566406 75.1542969,9.98258464 75.03125,9.83447266 C74.9082031,9.68636068 74.8466797,9.46419271 74.8466797,9.16796875 L74.8466797,9.16796875 L74.8466797,4.58105469 L76.2275391,4.58105469 L76.2275391,3.60351562 L74.8466797,3.60351562 L74.8466797,1.8125 L73.5820312,1.8125 L73.5820312,3.60351562 L72.2353516,3.60351562 L72.2353516,4.58105469 L73.5820312,4.58105469 L73.5820312,9.16796875 C73.5820312,9.796875 73.7255859,10.2822266 74.0126953,10.6240234 C74.2998047,10.9658203 74.7259115,11.1367188 75.2910156,11.1367188 Z M80.6025391,11.1367188 C81.2679036,11.1367188 81.8569336,10.9772135 82.3696289,10.6582031 C82.8823242,10.3391927 83.2765299,9.89371745 83.5522461,9.32177734 C83.8279622,8.74983724 83.9658203,8.10384115 83.9658203,7.38378906 L83.9658203,7.38378906 L83.9658203,7.29492188 C83.9658203,6.13736979 83.6547852,5.20996094 83.0327148,4.51269531 C82.4106445,3.81542969 81.5960286,3.46679688 80.5888672,3.46679688 C79.9371745,3.46679688 79.3572591,3.62402344 78.8491211,3.93847656 C78.3409831,4.25292969 77.9444987,4.69954427 77.659668,5.27832031 C77.3748372,5.85709635 77.2324219,6.50878906 77.2324219,7.23339844 L77.2324219,7.23339844 L77.2324219,7.32226562 C77.2324219,8.47070312 77.543457,9.39355469 78.1655273,10.0908203 C78.7875977,10.7880859 79.5999349,11.1367188 80.6025391,11.1367188 Z M80.6025391,10.1044922 C79.9645182,10.1044922 79.4552409,9.85611979 79.074707,9.359375 C78.6941732,8.86263021 78.5039062,8.20410156 78.5039062,7.38378906 C78.5039062,6.45865885 78.6953125,5.74772135 79.078125,5.25097656 C79.4609375,4.75423177 79.9645182,4.50585938 80.5888672,4.50585938 C81.226888,4.50585938 81.738444,4.75764974 82.1235352,5.26123047 C82.5086263,5.7648112 82.7011719,6.42220052 82.7011719,7.23339844 C82.7011719,8.14029948 82.5120443,8.84554036 82.1337891,9.34912109 C81.7555339,9.85270182 81.2451172,10.1044922 80.6025391,10.1044922 Z M86.8164062,11 L86.8164062,5.75 C87.1126302,5.04361979 87.6754557,4.69042969 88.5048828,4.69042969 C88.7281901,4.69042969 88.9355469,4.70638021 89.1269531,4.73828125 L89.1269531,4.73828125 L89.1269531,3.5625 C88.999349,3.49869792 88.8125,3.46679688 88.5664062,3.46679688 C87.8053385,3.46679688 87.2174479,3.79720052 86.8027344,4.45800781 L86.8027344,4.45800781 L86.7822266,3.60351562 L85.5517578,3.60351562 L85.5517578,11 L86.8164062,11 Z M92.2988281,11.1367188 C93.1145833,11.1367188 93.8164062,10.8313802 94.4042969,10.2207031 C94.4498698,10.594401 94.5091146,10.8541667 94.5820312,11 L94.5820312,11 L95.9082031,11 L95.9082031,10.890625 C95.735026,10.4895833 95.6484375,9.94954427 95.6484375,9.27050781 L95.6484375,9.27050781 L95.6484375,5.86621094 C95.6302083,5.1188151 95.3795573,4.5320638 94.8964844,4.10595703 C94.4134115,3.67985026 93.7457682,3.46679688 92.8935547,3.46679688 C92.3557943,3.46679688 91.8624674,3.56705729 91.4135742,3.76757812 C90.964681,3.96809896 90.6092122,4.24039714 90.347168,4.58447266 C90.0851237,4.92854818 89.9541016,5.28515625 89.9541016,5.65429688 L89.9541016,5.65429688 L91.2255859,5.65429688 C91.2255859,5.33072917 91.3782552,5.05501302 91.6835938,4.82714844 C91.9889323,4.59928385 92.3671875,4.48535156 92.8183594,4.48535156 C93.3333333,4.48535156 93.7229818,4.6163737 93.9873047,4.87841797 C94.2516276,5.14046224 94.3837891,5.49251302 94.3837891,5.93457031 L94.3837891,5.93457031 L94.3837891,6.515625 L93.1533203,6.515625 C92.0914714,6.515625 91.2677409,6.72867839 90.6821289,7.15478516 C90.0965169,7.58089193 89.8037109,8.17903646 89.8037109,8.94921875 C89.8037109,9.58268229 90.0372721,10.1056315 90.5043945,10.5180664 C90.9715169,10.9305013 91.5696615,11.1367188 92.2988281,11.1367188 Z M92.4833984,10.0361328 C92.0686849,10.0361328 91.7291667,9.92447917 91.4648438,9.70117188 C91.2005208,9.47786458 91.0683594,9.16796875 91.0683594,8.77148438 C91.0683594,7.86458333 91.843099,7.41113281 93.3925781,7.41113281 L93.3925781,7.41113281 L94.3837891,7.41113281 L94.3837891,8.92871094 C94.2242839,9.25683594 93.9667969,9.5234375 93.6113281,9.72851562 C93.2558594,9.93359375 92.8798828,10.0361328 92.4833984,10.0361328 Z M99.0048828,11 L99.0048828,0.5 L97.7402344,0.5 L97.7402344,11 L99.0048828,11 Z M108.520508,11 L108.520508,0.999023438 L108.322266,0.999023438 L104.699219,2.359375 L104.699219,3.5078125 L107.249023,2.57128906 L107.249023,11 L108.520508,11 Z M118.74707,11 L118.74707,9.96777344 L113.75,9.96777344 L116.416016,7.07617188 C117.664714,5.72265625 118.289062,4.55598958 118.289062,3.57617188 C118.289062,2.76953125 118.020182,2.12353516 117.482422,1.63818359 C116.944661,1.15283203 116.213216,0.91015625 115.288086,0.91015625 C114.299154,0.91015625 113.509603,1.19270833 112.919434,1.7578125 C112.329264,2.32291667 112.03418,3.06347656 112.03418,3.97949219 L112.03418,3.97949219 L113.298828,3.97949219 C113.298828,3.34147135 113.473145,2.84358724 113.821777,2.48583984 C114.17041,2.12809245 114.65918,1.94921875 115.288086,1.94921875 C115.812174,1.94921875 116.231445,2.1155599 116.545898,2.44824219 C116.860352,2.78092448 117.017578,3.20703125 117.017578,3.7265625 C117.017578,4.11393229 116.920736,4.48876953 116.727051,4.85107422 C116.533366,5.21337891 116.181315,5.68391927 115.670898,6.26269531 L115.670898,6.26269531 L112.225586,10.0908203 L112.225586,11 L118.74707,11 Z M126.314453,7.28808594 L126.314453,6.25585938 L122.978516,6.25585938 L122.978516,7.28808594 L126.314453,7.28808594 Z M134.209961,11.1367188 C135.203451,11.1367188 135.977051,10.8416341 136.530762,10.2514648 C137.084473,9.66129557 137.361328,8.85351562 137.361328,7.828125 C137.361328,6.80729167 137.094727,5.99723307 136.561523,5.39794922 C136.02832,4.79866536 135.308268,4.49902344 134.401367,4.49902344 C133.781576,4.49902344 133.227865,4.64257812 132.740234,4.9296875 L132.740234,4.9296875 L133.041016,2.21582031 L137.067383,2.21582031 L137.067383,1.046875 L131.967773,1.046875 L131.461914,6.00976562 L132.473633,6.26953125 L132.808594,5.99609375 C133.123047,5.75455729 133.55599,5.63378906 134.107422,5.63378906 C134.708984,5.63378906 135.190918,5.83544922 135.553223,6.23876953 C135.915527,6.64208984 136.09668,7.17643229 136.09668,7.84179688 C136.09668,8.54817708 135.929199,9.10188802 135.594238,9.50292969 C135.259277,9.90397135 134.797852,10.1044922 134.209961,10.1044922 C133.672201,10.1044922 133.239258,9.95979818 132.911133,9.67041016 C132.583008,9.38102214 132.380208,8.9514974 132.302734,8.38183594 L132.302734,8.38183594 L131.106445,8.38183594 C131.183919,9.24316406 131.500651,9.91764323 132.056641,10.4052734 C132.61263,10.8929036 133.330404,11.1367188 134.209961,11.1367188 Z M140.62207,6.27636719 C141.205404,6.27636719 141.670247,6.08040365 142.016602,5.68847656 C142.043945,5.86165365 142.084961,6.02571615 142.139648,6.18066406 L142.139648,6.18066406 L143.267578,6.18066406 C143.149089,5.81152344 143.089844,5.40592448 143.089844,4.96386719 L143.089844,4.96386719 L143.089844,2.80371094 C143.089844,2.19303385 142.914388,1.72477214 142.563477,1.39892578 C142.212565,1.07307943 141.734049,0.91015625 141.12793,0.91015625 C140.503581,0.91015625 139.995443,1.05826823 139.603516,1.35449219 C139.211589,1.65071615 139.015625,2.03352865 139.015625,2.50292969 L139.015625,2.50292969 L140.116211,2.58496094 C140.116211,2.35253906 140.206217,2.17480469 140.38623,2.05175781 C140.566243,1.92871094 140.813477,1.8671875 141.12793,1.8671875 C141.693034,1.8671875 141.975586,2.17480469 141.975586,2.79003906 L141.975586,2.79003906 L141.975586,3.14550781 L141.237305,3.14550781 C140.453451,3.14550781 139.871257,3.28222656 139.490723,3.55566406 C139.110189,3.82910156 138.919922,4.21875 138.919922,4.72460938 C138.919922,5.19401042 139.068034,5.56998698 139.364258,5.85253906 C139.660482,6.13509115 140.079753,6.27636719 140.62207,6.27636719 Z M140.888672,5.33984375 C140.31901,5.33984375 140.03418,5.12565104 140.03418,4.69726562 C140.03418,4.46484375 140.135579,4.27685547 140.338379,4.13330078 C140.541178,3.98974609 140.831706,3.9156901 141.209961,3.91113281 L141.209961,3.91113281 L141.975586,3.91113281 L141.975586,4.88183594 C141.847982,5.00488281 141.683919,5.11197917 141.483398,5.203125 C141.282878,5.29427083 141.084635,5.33984375 140.888672,5.33984375 Z M149.857422,13.84375 L149.857422,10.2822266 C150.372396,10.851888 151.078776,11.1367188 151.976562,11.1367188 C152.85612,11.1367188 153.553385,10.7926432 154.068359,10.1044922 C154.583333,9.41634115 154.84082,8.5094401 154.84082,7.38378906 L154.84082,7.38378906 L154.84082,7.26757812 C154.84082,6.07356771 154.582194,5.14160156 154.064941,4.47167969 C153.547689,3.80175781 152.844727,3.46679688 151.956055,3.46679688 C151.040039,3.46679688 150.324544,3.78580729 149.80957,4.42382812 L149.80957,4.42382812 L149.748047,3.60351562 L148.592773,3.60351562 L148.592773,13.84375 L149.857422,13.84375 Z M151.59375,10.1044922 C150.814453,10.1044922 150.235677,9.7672526 149.857422,9.09277344 L149.857422,9.09277344 L149.857422,5.55859375 C150.240234,4.87955729 150.814453,4.54003906 151.580078,4.54003906 C152.19987,4.54003906 152.6875,4.78157552 153.042969,5.26464844 C153.398438,5.74772135 153.576172,6.40625 153.576172,7.24023438 C153.576172,8.18815104 153.397298,8.90250651 153.039551,9.38330078 C152.681803,9.86409505 152.19987,10.1044922 151.59375,10.1044922 Z M157.821289,11 L157.821289,0.5 L156.556641,0.5 L156.556641,11 L157.821289,11 Z M162.12793,11.1367188 C162.943685,11.1367188 163.645508,10.8313802 164.233398,10.2207031 C164.278971,10.594401 164.338216,10.8541667 164.411133,11 L164.411133,11 L165.737305,11 L165.737305,10.890625 C165.564128,10.4895833 165.477539,9.94954427 165.477539,9.27050781 L165.477539,9.27050781 L165.477539,5.86621094 C165.45931,5.1188151 165.208659,4.5320638 164.725586,4.10595703 C164.242513,3.67985026 163.57487,3.46679688 162.722656,3.46679688 C162.184896,3.46679688 161.691569,3.56705729 161.242676,3.76757812 C160.793783,3.96809896 160.438314,4.24039714 160.17627,4.58447266 C159.914225,4.92854818 159.783203,5.28515625 159.783203,5.65429688 L159.783203,5.65429688 L161.054688,5.65429688 C161.054688,5.33072917 161.207357,5.05501302 161.512695,4.82714844 C161.818034,4.59928385 162.196289,4.48535156 162.647461,4.48535156 C163.162435,4.48535156 163.552083,4.6163737 163.816406,4.87841797 C164.080729,5.14046224 164.212891,5.49251302 164.212891,5.93457031 L164.212891,5.93457031 L164.212891,6.515625 L162.982422,6.515625 C161.920573,6.515625 161.096842,6.72867839 160.51123,7.15478516 C159.925618,7.58089193 159.632812,8.17903646 159.632812,8.94921875 C159.632812,9.58268229 159.866374,10.1056315 160.333496,10.5180664 C160.800618,10.9305013 161.398763,11.1367188 162.12793,11.1367188 Z M162.3125,10.0361328 C161.897786,10.0361328 161.558268,9.92447917 161.293945,9.70117188 C161.029622,9.47786458 160.897461,9.16796875 160.897461,8.77148438 C160.897461,7.86458333 161.672201,7.41113281 163.22168,7.41113281 L163.22168,7.41113281 L164.212891,7.41113281 L164.212891,8.92871094 C164.053385,9.25683594 163.795898,9.5234375 163.44043,9.72851562 C163.084961,9.93359375 162.708984,10.0361328 162.3125,10.0361328 Z M168.724609,11 L168.724609,5.72949219 C168.897786,5.37402344 169.139323,5.08691406 169.449219,4.86816406 C169.759115,4.64941406 170.119141,4.54003906 170.529297,4.54003906 C171.035156,4.54003906 171.407715,4.66764323 171.646973,4.92285156 C171.88623,5.1780599 172.008138,5.57226562 172.012695,6.10546875 L172.012695,6.10546875 L172.012695,11 L173.277344,11 L173.277344,6.11230469 C173.263672,4.34863281 172.47526,3.46679688 170.912109,3.46679688 C170.000651,3.46679688 169.26237,3.82226562 168.697266,4.53320312 L168.697266,4.53320312 L168.65625,3.60351562 L167.459961,3.60351562 L167.459961,11 L168.724609,11 Z M177.344727,11.1367188 C177.65918,11.1367188 177.982747,11.0911458 178.31543,11 L178.31543,11 L178.31543,9.97460938 C178.060221,10.0292969 177.859701,10.0566406 177.713867,10.0566406 C177.417643,10.0566406 177.208008,9.98258464 177.084961,9.83447266 C176.961914,9.68636068 176.900391,9.46419271 176.900391,9.16796875 L176.900391,9.16796875 L176.900391,4.58105469 L178.28125,4.58105469 L178.28125,3.60351562 L176.900391,3.60351562 L176.900391,1.8125 L175.635742,1.8125 L175.635742,3.60351562 L174.289062,3.60351562 L174.289062,4.58105469 L175.635742,4.58105469 L175.635742,9.16796875 C175.635742,9.796875 175.779297,10.2822266 176.066406,10.6240234 C176.353516,10.9658203 176.779622,11.1367188 177.344727,11.1367188 Z M182.041016,11.1367188 C182.856771,11.1367188 183.558594,10.8313802 184.146484,10.2207031 C184.192057,10.594401 184.251302,10.8541667 184.324219,11 L184.324219,11 L185.650391,11 L185.650391,10.890625 C185.477214,10.4895833 185.390625,9.94954427 185.390625,9.27050781 L185.390625,9.27050781 L185.390625,5.86621094 C185.372396,5.1188151 185.121745,4.5320638 184.638672,4.10595703 C184.155599,3.67985026 183.487956,3.46679688 182.635742,3.46679688 C182.097982,3.46679688 181.604655,3.56705729 181.155762,3.76757812 C180.706868,3.96809896 180.3514,4.24039714 180.089355,4.58447266 C179.827311,4.92854818 179.696289,5.28515625 179.696289,5.65429688 L179.696289,5.65429688 L180.967773,5.65429688 C180.967773,5.33072917 181.120443,5.05501302 181.425781,4.82714844 C181.73112,4.59928385 182.109375,4.48535156 182.560547,4.48535156 C183.075521,4.48535156 183.465169,4.6163737 183.729492,4.87841797 C183.993815,5.14046224 184.125977,5.49251302 184.125977,5.93457031 L184.125977,5.93457031 L184.125977,6.515625 L182.895508,6.515625 C181.833659,6.515625 181.009928,6.72867839 180.424316,7.15478516 C179.838704,7.58089193 179.545898,8.17903646 179.545898,8.94921875 C179.545898,9.58268229 179.77946,10.1056315 180.246582,10.5180664 C180.713704,10.9305013 181.311849,11.1367188 182.041016,11.1367188 Z M182.225586,10.0361328 C181.810872,10.0361328 181.471354,9.92447917 181.207031,9.70117188 C180.942708,9.47786458 180.810547,9.16796875 180.810547,8.77148438 C180.810547,7.86458333 181.585286,7.41113281 183.134766,7.41113281 L183.134766,7.41113281 L184.125977,7.41113281 L184.125977,8.92871094 C183.966471,9.25683594 183.708984,9.5234375 183.353516,9.72851562 C182.998047,9.93359375 182.62207,10.0361328 182.225586,10.0361328 Z M187.954102,5.0390625 C188.213867,5.0390625 188.41097,4.96842448 188.54541,4.82714844 C188.67985,4.6858724 188.74707,4.51041667 188.74707,4.30078125 C188.74707,4.08203125 188.67985,3.89973958 188.54541,3.75390625 C188.41097,3.60807292 188.213867,3.53515625 187.954102,3.53515625 C187.694336,3.53515625 187.499512,3.60807292 187.369629,3.75390625 C187.239746,3.89973958 187.174805,4.08203125 187.174805,4.30078125 C187.174805,4.51041667 187.239746,4.6858724 187.369629,4.82714844 C187.499512,4.96842448 187.694336,5.0390625 187.954102,5.0390625 Z M187.414062,12.9824219 C187.755859,12.7044271 188.039551,12.3352865 188.265137,11.875 C188.490723,11.4147135 188.603516,10.9544271 188.603516,10.4941406 L188.603516,10.4941406 L188.603516,9.50292969 L187.366211,9.50292969 L187.366211,10.6445312 C187.347982,11.2779948 187.124674,11.8932292 186.696289,12.4902344 L186.696289,12.4902344 L187.414062,12.9824219 Z" id="AvingudaLitoral12-5ªplanta;" fill="#AEB6C7" fill-rule="nonzero"></path>
    </g>
</svg>