<?xml version="1.0" encoding="UTF-8"?>
<svg width="160px" height="14px" viewBox="0 0 160 14" version="1.1" xmlns="http://www.w3.org/2000/svg" xmlns:xlink="http://www.w3.org/1999/xlink">
    <!-- Generator: Sketch 60.1 (88133) - https://sketch.com -->
    <title>08005,Barcelona,España</title>
    <desc>Created with Sketch.</desc>
    <g id="UI-INTERFACE" stroke="none" stroke-width="1" fill="none" fill-rule="evenodd">
        <path d="M3.9375,11.1367188 C5.01302083,11.1367188 5.80371094,10.7766927 6.30957031,10.0566406 C6.81542969,9.33658854 7.06835938,8.2360026 7.06835938,6.75488281 L7.06835938,6.75488281 L7.06835938,5.11425781 C7.0546875,3.68326823 6.79492188,2.62483724 6.2890625,1.93896484 C5.78320312,1.25309245 4.99479167,0.91015625 3.92382812,0.91015625 C2.84375,0.91015625 2.05078125,1.265625 1.54492188,1.9765625 C1.0390625,2.6875 0.786132812,3.77441406 0.786132812,5.23730469 L0.786132812,5.23730469 L0.786132812,6.92578125 C0.804361979,8.32486979 1.0686849,9.37646484 1.57910156,10.0805664 C2.08951823,10.784668 2.87565104,11.1367188 3.9375,11.1367188 Z M3.9375,10.1044922 C3.30403646,10.1044922 2.83121745,9.84814453 2.51904297,9.33544922 C2.20686849,8.82275391 2.05078125,8.02864583 2.05078125,6.953125 L2.05078125,6.953125 L2.05078125,4.9296875 C2.05989583,3.91796875 2.2125651,3.16829427 2.50878906,2.68066406 C2.80501302,2.19303385 3.27669271,1.94921875 3.92382812,1.94921875 C4.57552083,1.94921875 5.05175781,2.19417318 5.35253906,2.68408203 C5.65332031,3.17399089 5.80371094,3.95442708 5.80371094,5.02539062 L5.80371094,5.02539062 L5.80371094,7.09667969 C5.79003906,8.13574219 5.63167318,8.8968099 5.32861328,9.37988281 C5.02555339,9.86295573 4.56184896,10.1044922 3.9375,10.1044922 Z M11.7919922,11.1367188 C12.7399089,11.1367188 13.5043945,10.8815104 14.0854492,10.3710938 C14.6665039,9.86067708 14.9570312,9.17480469 14.9570312,8.31347656 C14.9570312,7.77115885 14.8055013,7.28580729 14.5024414,6.85742188 C14.1993815,6.42903646 13.7880859,6.1031901 13.2685547,5.87988281 C13.7151693,5.66113281 14.0694987,5.35807292 14.331543,4.97070312 C14.5935872,4.58333333 14.7246094,4.14127604 14.7246094,3.64453125 C14.7246094,2.80598958 14.4545898,2.140625 13.9145508,1.6484375 C13.3745117,1.15625 12.6669922,0.91015625 11.7919922,0.91015625 C10.9124349,0.91015625 10.203776,1.15625 9.66601562,1.6484375 C9.12825521,2.140625 8.859375,2.80598958 8.859375,3.64453125 C8.859375,4.13671875 8.98697917,4.5764974 9.2421875,4.96386719 C9.49739583,5.35123698 9.84602865,5.65429688 10.2880859,5.87304688 C9.76855469,6.09635417 9.36181641,6.42447917 9.06787109,6.85742188 C8.77392578,7.29036458 8.62695312,7.77571615 8.62695312,8.31347656 C8.62695312,9.1702474 8.91520182,9.85498047 9.49169922,10.3676758 C10.0681966,10.8803711 10.8349609,11.1367188 11.7919922,11.1367188 Z M11.7919922,5.36035156 C11.2861328,5.36035156 10.8816732,5.20426432 10.5786133,4.89208984 C10.2755534,4.57991536 10.1240234,4.17089844 10.1240234,3.66503906 C10.1240234,3.13639323 10.277832,2.71826172 10.5854492,2.41064453 C10.8930664,2.10302734 11.2952474,1.94921875 11.7919922,1.94921875 C12.2750651,1.94921875 12.6738281,2.10872396 12.9882812,2.42773438 C13.3027344,2.74674479 13.4599609,3.15917969 13.4599609,3.66503906 C13.4599609,4.17089844 13.308431,4.57991536 13.0053711,4.89208984 C12.7023112,5.20426432 12.2978516,5.36035156 11.7919922,5.36035156 Z M11.7919922,10.1044922 C11.194987,10.1044922 10.7290039,9.94270833 10.394043,9.61914062 C10.059082,9.29557292 9.89160156,8.85123698 9.89160156,8.28613281 C9.89160156,7.72102865 10.0636393,7.26529948 10.4077148,6.91894531 C10.7517904,6.57259115 11.2086589,6.39941406 11.7783203,6.39941406 C12.3479818,6.39941406 12.8094076,6.57486979 13.1625977,6.92578125 C13.5157878,7.27669271 13.6923828,7.73014323 13.6923828,8.28613281 C13.6923828,8.84667969 13.523763,9.2898763 13.1865234,9.61572266 C12.8492839,9.94156901 12.3844401,10.1044922 11.7919922,10.1044922 Z M19.6601562,11.1367188 C20.7356771,11.1367188 21.5263672,10.7766927 22.0322266,10.0566406 C22.5380859,9.33658854 22.7910156,8.2360026 22.7910156,6.75488281 L22.7910156,6.75488281 L22.7910156,5.11425781 C22.7773438,3.68326823 22.5175781,2.62483724 22.0117188,1.93896484 C21.5058594,1.25309245 20.7174479,0.91015625 19.6464844,0.91015625 C18.5664062,0.91015625 17.7734375,1.265625 17.2675781,1.9765625 C16.7617188,2.6875 16.5087891,3.77441406 16.5087891,5.23730469 L16.5087891,5.23730469 L16.5087891,6.92578125 C16.5270182,8.32486979 16.7913411,9.37646484 17.3017578,10.0805664 C17.8121745,10.784668 18.5983073,11.1367188 19.6601562,11.1367188 Z M19.6601562,10.1044922 C19.0266927,10.1044922 18.5538737,9.84814453 18.2416992,9.33544922 C17.9295247,8.82275391 17.7734375,8.02864583 17.7734375,6.953125 L17.7734375,6.953125 L17.7734375,4.9296875 C17.7825521,3.91796875 17.9352214,3.16829427 18.2314453,2.68066406 C18.5276693,2.19303385 18.999349,1.94921875 19.6464844,1.94921875 C20.2981771,1.94921875 20.7744141,2.19417318 21.0751953,2.68408203 C21.3759766,3.17399089 21.5263672,3.95442708 21.5263672,5.02539062 L21.5263672,5.02539062 L21.5263672,7.09667969 C21.5126953,8.13574219 21.3543294,8.8968099 21.0512695,9.37988281 C20.7482096,9.86295573 20.2845052,10.1044922 19.6601562,10.1044922 Z M27.5214844,11.1367188 C28.5970052,11.1367188 29.3876953,10.7766927 29.8935547,10.0566406 C30.3994141,9.33658854 30.6523438,8.2360026 30.6523438,6.75488281 L30.6523438,6.75488281 L30.6523438,5.11425781 C30.6386719,3.68326823 30.3789062,2.62483724 29.8730469,1.93896484 C29.3671875,1.25309245 28.578776,0.91015625 27.5078125,0.91015625 C26.4277344,0.91015625 25.6347656,1.265625 25.1289062,1.9765625 C24.6230469,2.6875 24.3701172,3.77441406 24.3701172,5.23730469 L24.3701172,5.23730469 L24.3701172,6.92578125 C24.3883464,8.32486979 24.6526693,9.37646484 25.1630859,10.0805664 C25.6735026,10.784668 26.4596354,11.1367188 27.5214844,11.1367188 Z M27.5214844,10.1044922 C26.8880208,10.1044922 26.4152018,9.84814453 26.1030273,9.33544922 C25.7908529,8.82275391 25.6347656,8.02864583 25.6347656,6.953125 L25.6347656,6.953125 L25.6347656,4.9296875 C25.6438802,3.91796875 25.7965495,3.16829427 26.0927734,2.68066406 C26.3889974,2.19303385 26.8606771,1.94921875 27.5078125,1.94921875 C28.1595052,1.94921875 28.6357422,2.19417318 28.9365234,2.68408203 C29.2373047,3.17399089 29.3876953,3.95442708 29.3876953,5.02539062 L29.3876953,5.02539062 L29.3876953,7.09667969 C29.3740234,8.13574219 29.2156576,8.8968099 28.9125977,9.37988281 C28.6095378,9.86295573 28.1458333,10.1044922 27.5214844,10.1044922 Z M35.6015625,11.1367188 C36.5950521,11.1367188 37.3686523,10.8416341 37.9223633,10.2514648 C38.4760742,9.66129557 38.7529297,8.85351562 38.7529297,7.828125 C38.7529297,6.80729167 38.4863281,5.99723307 37.953125,5.39794922 C37.4199219,4.79866536 36.6998698,4.49902344 35.7929688,4.49902344 C35.1731771,4.49902344 34.6194661,4.64257812 34.1318359,4.9296875 L34.1318359,4.9296875 L34.4326172,2.21582031 L38.4589844,2.21582031 L38.4589844,1.046875 L33.359375,1.046875 L32.8535156,6.00976562 L33.8652344,6.26953125 L34.2001953,5.99609375 C34.5146484,5.75455729 34.9475911,5.63378906 35.4990234,5.63378906 C36.1005859,5.63378906 36.5825195,5.83544922 36.9448242,6.23876953 C37.3071289,6.64208984 37.4882812,7.17643229 37.4882812,7.84179688 C37.4882812,8.54817708 37.3208008,9.10188802 36.9858398,9.50292969 C36.6508789,9.90397135 36.1894531,10.1044922 35.6015625,10.1044922 C35.0638021,10.1044922 34.6308594,9.95979818 34.3027344,9.67041016 C33.9746094,9.38102214 33.7718099,8.9514974 33.6943359,8.38183594 L33.6943359,8.38183594 L32.4980469,8.38183594 C32.5755208,9.24316406 32.8922526,9.91764323 33.4482422,10.4052734 C34.0042318,10.8929036 34.7220052,11.1367188 35.6015625,11.1367188 Z M40.2226562,12.9824219 C40.5644531,12.7044271 40.8481445,12.3352865 41.0737305,11.875 C41.2993164,11.4147135 41.4121094,10.9544271 41.4121094,10.4941406 L41.4121094,10.4941406 L41.4121094,9.50292969 L40.1748047,9.50292969 L40.1748047,10.6445312 C40.1565755,11.2779948 39.9332682,11.8932292 39.5048828,12.4902344 L39.5048828,12.4902344 L40.2226562,12.9824219 Z M50.1279297,11 C51.1852214,11 52.0032552,10.7447917 52.5820312,10.234375 C53.1608073,9.72395833 53.4501953,9.02213542 53.4501953,8.12890625 C53.4501953,7.54557292 53.2941081,7.04313151 52.9819336,6.62158203 C52.6697591,6.20003255 52.2447917,5.9140625 51.7070312,5.76367188 C52.1627604,5.56770833 52.5227865,5.29085286 52.7871094,4.93310547 C53.0514323,4.57535807 53.1835938,4.1640625 53.1835938,3.69921875 C53.1835938,2.82421875 52.9112956,2.16341146 52.3666992,1.71679688 C51.8221029,1.27018229 51.0097656,1.046875 49.9296875,1.046875 L49.9296875,1.046875 L46.6757812,1.046875 L46.6757812,11 L50.1279297,11 Z M49.9707031,5.29199219 L47.9882812,5.29199219 L47.9882812,2.12695312 L49.9296875,2.12695312 C50.5813802,2.12695312 51.0667318,2.25113932 51.3857422,2.49951172 C51.7047526,2.74788411 51.8642578,3.14550781 51.8642578,3.69238281 C51.8642578,4.18457031 51.6922201,4.57421875 51.3481445,4.86132812 C51.004069,5.1484375 50.5449219,5.29199219 49.9707031,5.29199219 L49.9707031,5.29199219 Z M50.1552734,9.92675781 L47.9882812,9.92675781 L47.9882812,6.34472656 L50.1757812,6.34472656 C51.4791667,6.34472656 52.1308594,6.94401042 52.1308594,8.14257812 C52.1308594,8.69856771 51.9542643,9.13492839 51.6010742,9.45166016 C51.2478841,9.76839193 50.7659505,9.92675781 50.1552734,9.92675781 L50.1552734,9.92675781 Z M57.4765625,11.1367188 C58.2923177,11.1367188 58.9941406,10.8313802 59.5820312,10.2207031 C59.6276042,10.594401 59.686849,10.8541667 59.7597656,11 L59.7597656,11 L61.0859375,11 L61.0859375,10.890625 C60.9127604,10.4895833 60.8261719,9.94954427 60.8261719,9.27050781 L60.8261719,9.27050781 L60.8261719,5.86621094 C60.8079427,5.1188151 60.5572917,4.5320638 60.0742188,4.10595703 C59.5911458,3.67985026 58.9235026,3.46679688 58.0712891,3.46679688 C57.5335286,3.46679688 57.0402018,3.56705729 56.5913086,3.76757812 C56.1424154,3.96809896 55.7869466,4.24039714 55.5249023,4.58447266 C55.2628581,4.92854818 55.1318359,5.28515625 55.1318359,5.65429688 L55.1318359,5.65429688 L56.4033203,5.65429688 C56.4033203,5.33072917 56.5559896,5.05501302 56.8613281,4.82714844 C57.1666667,4.59928385 57.5449219,4.48535156 57.9960938,4.48535156 C58.5110677,4.48535156 58.9007161,4.6163737 59.1650391,4.87841797 C59.429362,5.14046224 59.5615234,5.49251302 59.5615234,5.93457031 L59.5615234,5.93457031 L59.5615234,6.515625 L58.3310547,6.515625 C57.2692057,6.515625 56.4454753,6.72867839 55.8598633,7.15478516 C55.2742513,7.58089193 54.9814453,8.17903646 54.9814453,8.94921875 C54.9814453,9.58268229 55.2150065,10.1056315 55.6821289,10.5180664 C56.1492513,10.9305013 56.7473958,11.1367188 57.4765625,11.1367188 Z M57.6611328,10.0361328 C57.2464193,10.0361328 56.906901,9.92447917 56.6425781,9.70117188 C56.3782552,9.47786458 56.2460938,9.16796875 56.2460938,8.77148438 C56.2460938,7.86458333 57.0208333,7.41113281 58.5703125,7.41113281 L58.5703125,7.41113281 L59.5615234,7.41113281 L59.5615234,8.92871094 C59.4020182,9.25683594 59.1445312,9.5234375 58.7890625,9.72851562 C58.4335938,9.93359375 58.0576172,10.0361328 57.6611328,10.0361328 Z M64.0732422,11 L64.0732422,5.75 C64.3694661,5.04361979 64.9322917,4.69042969 65.7617188,4.69042969 C65.985026,4.69042969 66.1923828,4.70638021 66.3837891,4.73828125 L66.3837891,4.73828125 L66.3837891,3.5625 C66.2561849,3.49869792 66.0693359,3.46679688 65.8232422,3.46679688 C65.0621745,3.46679688 64.4742839,3.79720052 64.0595703,4.45800781 L64.0595703,4.45800781 L64.0390625,3.60351562 L62.8085938,3.60351562 L62.8085938,11 L64.0732422,11 Z M70.3828125,11.1367188 C70.8841146,11.1367188 71.3592122,11.0227865 71.8081055,10.7949219 C72.2569987,10.5670573 72.6158854,10.2617188 72.8847656,9.87890625 C73.1536458,9.49609375 73.2994792,9.09277344 73.3222656,8.66894531 L73.3222656,8.66894531 L72.1259766,8.66894531 C72.0895182,9.07910156 71.9026693,9.42089844 71.5654297,9.69433594 C71.2281901,9.96777344 70.8339844,10.1044922 70.3828125,10.1044922 C69.7311198,10.1044922 69.2298177,9.87434896 68.8789062,9.4140625 C68.5279948,8.95377604 68.3525391,8.29752604 68.3525391,7.4453125 L68.3525391,7.4453125 L68.3525391,7.20605469 C68.3525391,6.33105469 68.5291341,5.66227214 68.8823242,5.19970703 C69.2355143,4.73714193 69.7333984,4.50585938 70.3759766,4.50585938 C70.8544922,4.50585938 71.2566732,4.65966797 71.5825195,4.96728516 C71.9083659,5.27490234 72.0895182,5.66796875 72.1259766,6.14648438 L72.1259766,6.14648438 L73.3222656,6.14648438 C73.2858073,5.35351562 72.9930013,4.70865885 72.4438477,4.21191406 C71.894694,3.71516927 71.2054036,3.46679688 70.3759766,3.46679688 C69.7014974,3.46679688 69.1170247,3.62174479 68.6225586,3.93164062 C68.1280924,4.24153646 67.7486979,4.67675781 67.484375,5.23730469 C67.2200521,5.79785156 67.0878906,6.43815104 67.0878906,7.15820312 L67.0878906,7.15820312 L67.0878906,7.37011719 C67.0878906,8.53678385 67.3852539,9.45621745 67.9799805,10.128418 C68.574707,10.8006185 69.375651,11.1367188 70.3828125,11.1367188 Z M77.8134766,11.1367188 C79.0530599,11.1367188 79.9827474,10.6604818 80.6025391,9.70800781 L80.6025391,9.70800781 L79.8300781,9.10644531 C79.5976562,9.40722656 79.3264974,9.64876302 79.0166016,9.83105469 C78.7067057,10.0133464 78.3284505,10.1044922 77.8818359,10.1044922 C77.2529297,10.1044922 76.7345378,9.88004557 76.3266602,9.43115234 C75.9187826,8.98225911 75.7057292,8.39322917 75.6875,7.6640625 L75.6875,7.6640625 L80.6982422,7.6640625 L80.6982422,7.13769531 C80.6982422,5.95735677 80.4316406,5.05045573 79.8984375,4.41699219 C79.3652344,3.78352865 78.6178385,3.46679688 77.65625,3.46679688 C77.0683594,3.46679688 76.5226237,3.62972005 76.019043,3.95556641 C75.5154622,4.28141276 75.1235352,4.73258464 74.8432617,5.30908203 C74.5629883,5.88557943 74.4228516,6.5406901 74.4228516,7.27441406 L74.4228516,7.27441406 L74.4228516,7.50683594 C74.4228516,8.60970052 74.7373047,9.49039714 75.3662109,10.1489258 C75.9951172,10.8074544 76.8108724,11.1367188 77.8134766,11.1367188 Z M79.4335938,6.625 L75.7285156,6.625 C75.8105469,5.95507812 76.0247396,5.43440755 76.3710938,5.06298828 C76.7174479,4.69156901 77.1458333,4.50585938 77.65625,4.50585938 C78.1848958,4.50585938 78.6041667,4.68245443 78.9140625,5.03564453 C79.2239583,5.38883464 79.3971354,5.88671875 79.4335938,6.52929688 L79.4335938,6.52929688 L79.4335938,6.625 Z M83.5351562,11 L83.5351562,0.5 L82.2705078,0.5 L82.2705078,11 L83.5351562,11 Z M88.59375,11.1367188 C89.2591146,11.1367188 89.8481445,10.9772135 90.3608398,10.6582031 C90.8735352,10.3391927 91.2677409,9.89371745 91.543457,9.32177734 C91.8191732,8.74983724 91.9570312,8.10384115 91.9570312,7.38378906 L91.9570312,7.38378906 L91.9570312,7.29492188 C91.9570312,6.13736979 91.6459961,5.20996094 91.0239258,4.51269531 C90.4018555,3.81542969 89.5872396,3.46679688 88.5800781,3.46679688 C87.9283854,3.46679688 87.3484701,3.62402344 86.840332,3.93847656 C86.332194,4.25292969 85.9357096,4.69954427 85.6508789,5.27832031 C85.3660482,5.85709635 85.2236328,6.50878906 85.2236328,7.23339844 L85.2236328,7.23339844 L85.2236328,7.32226562 C85.2236328,8.47070312 85.534668,9.39355469 86.1567383,10.0908203 C86.7788086,10.7880859 87.5911458,11.1367188 88.59375,11.1367188 Z M88.59375,10.1044922 C87.9557292,10.1044922 87.4464518,9.85611979 87.065918,9.359375 C86.6853841,8.86263021 86.4951172,8.20410156 86.4951172,7.38378906 C86.4951172,6.45865885 86.6865234,5.74772135 87.0693359,5.25097656 C87.4521484,4.75423177 87.9557292,4.50585938 88.5800781,4.50585938 C89.218099,4.50585938 89.7296549,4.75764974 90.1147461,5.26123047 C90.4998372,5.7648112 90.6923828,6.42220052 90.6923828,7.23339844 C90.6923828,8.14029948 90.5032552,8.84554036 90.125,9.34912109 C89.7467448,9.85270182 89.2363281,10.1044922 88.59375,10.1044922 Z M94.8076172,11 L94.8076172,5.72949219 C94.9807943,5.37402344 95.2223307,5.08691406 95.5322266,4.86816406 C95.8421224,4.64941406 96.2021484,4.54003906 96.6123047,4.54003906 C97.1181641,4.54003906 97.4907227,4.66764323 97.7299805,4.92285156 C97.9692383,5.1780599 98.0911458,5.57226562 98.0957031,6.10546875 L98.0957031,6.10546875 L98.0957031,11 L99.3603516,11 L99.3603516,6.11230469 C99.3466797,4.34863281 98.5582682,3.46679688 96.9951172,3.46679688 C96.0836589,3.46679688 95.3453776,3.82226562 94.7802734,4.53320312 L94.7802734,4.53320312 L94.7392578,3.60351562 L93.5429688,3.60351562 L93.5429688,11 L94.8076172,11 Z M103.550781,11.1367188 C104.366536,11.1367188 105.068359,10.8313802 105.65625,10.2207031 C105.701823,10.594401 105.761068,10.8541667 105.833984,11 L105.833984,11 L107.160156,11 L107.160156,10.890625 C106.986979,10.4895833 106.900391,9.94954427 106.900391,9.27050781 L106.900391,9.27050781 L106.900391,5.86621094 C106.882161,5.1188151 106.63151,4.5320638 106.148438,4.10595703 C105.665365,3.67985026 104.997721,3.46679688 104.145508,3.46679688 C103.607747,3.46679688 103.114421,3.56705729 102.665527,3.76757812 C102.216634,3.96809896 101.861165,4.24039714 101.599121,4.58447266 C101.337077,4.92854818 101.206055,5.28515625 101.206055,5.65429688 L101.206055,5.65429688 L102.477539,5.65429688 C102.477539,5.33072917 102.630208,5.05501302 102.935547,4.82714844 C103.240885,4.59928385 103.619141,4.48535156 104.070312,4.48535156 C104.585286,4.48535156 104.974935,4.6163737 105.239258,4.87841797 C105.503581,5.14046224 105.635742,5.49251302 105.635742,5.93457031 L105.635742,5.93457031 L105.635742,6.515625 L104.405273,6.515625 C103.343424,6.515625 102.519694,6.72867839 101.934082,7.15478516 C101.34847,7.58089193 101.055664,8.17903646 101.055664,8.94921875 C101.055664,9.58268229 101.289225,10.1056315 101.756348,10.5180664 C102.22347,10.9305013 102.821615,11.1367188 103.550781,11.1367188 Z M103.735352,10.0361328 C103.320638,10.0361328 102.98112,9.92447917 102.716797,9.70117188 C102.452474,9.47786458 102.320312,9.16796875 102.320312,8.77148438 C102.320312,7.86458333 103.095052,7.41113281 104.644531,7.41113281 L104.644531,7.41113281 L105.635742,7.41113281 L105.635742,8.92871094 C105.476237,9.25683594 105.21875,9.5234375 104.863281,9.72851562 C104.507812,9.93359375 104.131836,10.0361328 103.735352,10.0361328 Z M108.841797,12.9824219 C109.183594,12.7044271 109.467285,12.3352865 109.692871,11.875 C109.918457,11.4147135 110.03125,10.9544271 110.03125,10.4941406 L110.03125,10.4941406 L110.03125,9.50292969 L108.793945,9.50292969 L108.793945,10.6445312 C108.775716,11.2779948 108.552409,11.8932292 108.124023,12.4902344 L108.124023,12.4902344 L108.841797,12.9824219 Z M121.618164,11 L121.618164,9.92675781 L116.607422,9.92675781 L116.607422,6.39941406 L120.920898,6.39941406 L120.920898,5.32617188 L116.607422,5.32617188 L116.607422,2.12695312 L121.549805,2.12695312 L121.549805,1.046875 L115.294922,1.046875 L115.294922,11 L121.618164,11 Z M125.774414,11.1367188 C126.617513,11.1367188 127.303385,10.9373372 127.832031,10.5385742 C128.360677,10.1398112 128.625,9.61002604 128.625,8.94921875 C128.625,8.55273438 128.530436,8.21663411 128.341309,7.94091797 C128.152181,7.66520182 127.861654,7.42936198 127.469727,7.23339844 C127.077799,7.0374349 126.566243,6.8688151 125.935059,6.72753906 C125.303874,6.58626302 124.867513,6.43815104 124.625977,6.28320312 C124.38444,6.12825521 124.263672,5.89811198 124.263672,5.59277344 C124.263672,5.26920573 124.393555,5.00716146 124.65332,4.80664062 C124.913086,4.60611979 125.273112,4.50585938 125.733398,4.50585938 C126.180013,4.50585938 126.550293,4.6311849 126.844238,4.88183594 C127.138184,5.13248698 127.285156,5.43098958 127.285156,5.77734375 L127.285156,5.77734375 L128.556641,5.77734375 C128.556641,5.10286458 128.295736,4.54915365 127.773926,4.11621094 C127.252116,3.68326823 126.57194,3.46679688 125.733398,3.46679688 C124.935872,3.46679688 124.280762,3.67643229 123.768066,4.09570312 C123.255371,4.51497396 122.999023,5.02766927 122.999023,5.63378906 C122.999023,5.9983724 123.08903,6.31282552 123.269043,6.57714844 C123.449056,6.84147135 123.727051,7.06933594 124.103027,7.26074219 C124.479004,7.45214844 124.987142,7.61621094 125.627441,7.75292969 C126.267741,7.88964844 126.716634,8.05257161 126.974121,8.24169922 C127.231608,8.43082682 127.360352,8.69628906 127.360352,9.03808594 C127.360352,9.36165365 127.215658,9.62027995 126.92627,9.81396484 C126.636882,10.0076497 126.25293,10.1044922 125.774414,10.1044922 C125.254883,10.1044922 124.836751,9.98030599 124.52002,9.73193359 C124.203288,9.4835612 124.033529,9.14746094 124.010742,8.72363281 L124.010742,8.72363281 L122.746094,8.72363281 C122.746094,9.16113281 122.874837,9.56787109 123.132324,9.94384766 C123.389811,10.3198242 123.746419,10.6126302 124.202148,10.8222656 C124.657878,11.031901 125.181966,11.1367188 125.774414,11.1367188 Z M131.537109,13.84375 L131.537109,10.2822266 C132.052083,10.851888 132.758464,11.1367188 133.65625,11.1367188 C134.535807,11.1367188 135.233073,10.7926432 135.748047,10.1044922 C136.263021,9.41634115 136.520508,8.5094401 136.520508,7.38378906 L136.520508,7.38378906 L136.520508,7.26757812 C136.520508,6.07356771 136.261882,5.14160156 135.744629,4.47167969 C135.227376,3.80175781 134.524414,3.46679688 133.635742,3.46679688 C132.719727,3.46679688 132.004232,3.78580729 131.489258,4.42382812 L131.489258,4.42382812 L131.427734,3.60351562 L130.272461,3.60351562 L130.272461,13.84375 L131.537109,13.84375 Z M133.273438,10.1044922 C132.494141,10.1044922 131.915365,9.7672526 131.537109,9.09277344 L131.537109,9.09277344 L131.537109,5.55859375 C131.919922,4.87955729 132.494141,4.54003906 133.259766,4.54003906 C133.879557,4.54003906 134.367188,4.78157552 134.722656,5.26464844 C135.078125,5.74772135 135.255859,6.40625 135.255859,7.24023438 C135.255859,8.18815104 135.076986,8.90250651 134.719238,9.38330078 C134.361491,9.86409505 133.879557,10.1044922 133.273438,10.1044922 Z M140.410156,11.1367188 C141.225911,11.1367188 141.927734,10.8313802 142.515625,10.2207031 C142.561198,10.594401 142.620443,10.8541667 142.693359,11 L142.693359,11 L144.019531,11 L144.019531,10.890625 C143.846354,10.4895833 143.759766,9.94954427 143.759766,9.27050781 L143.759766,9.27050781 L143.759766,5.86621094 C143.741536,5.1188151 143.490885,4.5320638 143.007812,4.10595703 C142.52474,3.67985026 141.857096,3.46679688 141.004883,3.46679688 C140.467122,3.46679688 139.973796,3.56705729 139.524902,3.76757812 C139.076009,3.96809896 138.72054,4.24039714 138.458496,4.58447266 C138.196452,4.92854818 138.06543,5.28515625 138.06543,5.65429688 L138.06543,5.65429688 L139.336914,5.65429688 C139.336914,5.33072917 139.489583,5.05501302 139.794922,4.82714844 C140.10026,4.59928385 140.478516,4.48535156 140.929688,4.48535156 C141.444661,4.48535156 141.83431,4.6163737 142.098633,4.87841797 C142.362956,5.14046224 142.495117,5.49251302 142.495117,5.93457031 L142.495117,5.93457031 L142.495117,6.515625 L141.264648,6.515625 C140.202799,6.515625 139.379069,6.72867839 138.793457,7.15478516 C138.207845,7.58089193 137.915039,8.17903646 137.915039,8.94921875 C137.915039,9.58268229 138.1486,10.1056315 138.615723,10.5180664 C139.082845,10.9305013 139.68099,11.1367188 140.410156,11.1367188 Z M140.594727,10.0361328 C140.180013,10.0361328 139.840495,9.92447917 139.576172,9.70117188 C139.311849,9.47786458 139.179688,9.16796875 139.179688,8.77148438 C139.179688,7.86458333 139.954427,7.41113281 141.503906,7.41113281 L141.503906,7.41113281 L142.495117,7.41113281 L142.495117,8.92871094 C142.335612,9.25683594 142.078125,9.5234375 141.722656,9.72851562 C141.367188,9.93359375 140.991211,10.0361328 140.594727,10.0361328 Z M147.136719,2.48925781 C147.136719,2.26595052 147.202799,2.08251953 147.334961,1.93896484 C147.467122,1.79541016 147.626628,1.72363281 147.813477,1.72363281 C147.941081,1.72363281 148.053874,1.73844401 148.151855,1.76806641 C148.249837,1.7976888 148.409342,1.88313802 148.630371,2.02441406 C148.8514,2.1656901 149.030273,2.25911458 149.166992,2.3046875 C149.303711,2.35026042 149.465495,2.37304688 149.652344,2.37304688 C150.071615,2.37304688 150.421387,2.2203776 150.70166,1.91503906 C150.981934,1.60970052 151.12207,1.2109375 151.12207,0.71875 L151.12207,0.71875 L150.274414,0.63671875 C150.274414,0.841796875 150.209473,1.0218099 150.07959,1.17675781 C149.949707,1.33170573 149.786784,1.40917969 149.59082,1.40917969 C149.449544,1.40917969 149.320801,1.38867188 149.20459,1.34765625 C149.088379,1.30664062 148.920898,1.22005208 148.702148,1.08789062 C148.483398,0.955729167 148.310221,0.866861979 148.182617,0.821289062 C148.055013,0.775716146 147.911458,0.752929688 147.751953,0.752929688 C147.328125,0.752929688 146.978353,0.912434896 146.702637,1.23144531 C146.426921,1.55045573 146.289062,1.95377604 146.289062,2.44140625 L146.289062,2.44140625 L147.136719,2.48925781 Z M147.006836,11 L147.006836,5.72949219 C147.180013,5.37402344 147.421549,5.08691406 147.731445,4.86816406 C148.041341,4.64941406 148.401367,4.54003906 148.811523,4.54003906 C149.317383,4.54003906 149.689941,4.66764323 149.929199,4.92285156 C150.168457,5.1780599 150.290365,5.57226562 150.294922,6.10546875 L150.294922,6.10546875 L150.294922,11 L151.55957,11 L151.55957,6.11230469 C151.545898,4.34863281 150.757487,3.46679688 149.194336,3.46679688 C148.282878,3.46679688 147.544596,3.82226562 146.979492,4.53320312 L146.979492,4.53320312 L146.938477,3.60351562 L145.742188,3.60351562 L145.742188,11 L147.006836,11 Z M155.75,11.1367188 C156.565755,11.1367188 157.267578,10.8313802 157.855469,10.2207031 C157.901042,10.594401 157.960286,10.8541667 158.033203,11 L158.033203,11 L159.359375,11 L159.359375,10.890625 C159.186198,10.4895833 159.099609,9.94954427 159.099609,9.27050781 L159.099609,9.27050781 L159.099609,5.86621094 C159.08138,5.1188151 158.830729,4.5320638 158.347656,4.10595703 C157.864583,3.67985026 157.19694,3.46679688 156.344727,3.46679688 C155.806966,3.46679688 155.313639,3.56705729 154.864746,3.76757812 C154.415853,3.96809896 154.060384,4.24039714 153.79834,4.58447266 C153.536296,4.92854818 153.405273,5.28515625 153.405273,5.65429688 L153.405273,5.65429688 L154.676758,5.65429688 C154.676758,5.33072917 154.829427,5.05501302 155.134766,4.82714844 C155.440104,4.59928385 155.818359,4.48535156 156.269531,4.48535156 C156.784505,4.48535156 157.174154,4.6163737 157.438477,4.87841797 C157.702799,5.14046224 157.834961,5.49251302 157.834961,5.93457031 L157.834961,5.93457031 L157.834961,6.515625 L156.604492,6.515625 C155.542643,6.515625 154.718913,6.72867839 154.133301,7.15478516 C153.547689,7.58089193 153.254883,8.17903646 153.254883,8.94921875 C153.254883,9.58268229 153.488444,10.1056315 153.955566,10.5180664 C154.422689,10.9305013 155.020833,11.1367188 155.75,11.1367188 Z M155.93457,10.0361328 C155.519857,10.0361328 155.180339,9.92447917 154.916016,9.70117188 C154.651693,9.47786458 154.519531,9.16796875 154.519531,8.77148438 C154.519531,7.86458333 155.294271,7.41113281 156.84375,7.41113281 L156.84375,7.41113281 L157.834961,7.41113281 L157.834961,8.92871094 C157.675456,9.25683594 157.417969,9.5234375 157.0625,9.72851562 C156.707031,9.93359375 156.331055,10.0361328 155.93457,10.0361328 Z" id="08005,Barcelona,España" fill="#AEB6C7" fill-rule="nonzero"></path>
    </g>
</svg>