<?xml version="1.0" encoding="UTF-8"?>
<svg width="229px" height="295px" viewBox="0 0 229 295" version="1.1" xmlns="http://www.w3.org/2000/svg" xmlns:xlink="http://www.w3.org/1999/xlink">
    <!-- Generator: Sketch 52.2 (67145) - http://www.bohemiancoding.com/sketch -->
    <g id="CL-295X229" stroke="none" stroke-width="1" fill="none" fill-rule="evenodd">
        <rect fill="#FFFFFF" x="0" y="0" width="229" height="295"></rect>
        <g id="Group-41" transform="translate(8.000000, 17.000000)">
            <polygon id="Fill-4" fill="#CDCCCB" points="0 53 48 53 48 45 0 45"></polygon>
            <polygon id="Fill-5" fill="#CDCCCB" points="0 72.968 130 72.968 130 65 0 65"></polygon>
            <polygon id="Fill-6" fill="#CDCCCB" points="1 97.968 131 97.968 131 90 1 90"></polygon>
            <polygon id="Fill-6-Copy" fill="#CDCCCB" points="1 122.968 131 122.968 131 115 1 115"></polygon>
            <polygon id="Fill-6-Copy-2" fill="#CDCCCB" points="1 147.968 131 147.968 131 140 1 140"></polygon>
            <polygon id="Fill-6-Copy-3" fill="#CDCCCB" points="1 172.968 131 172.968 131 165 1 165"></polygon>
            <polygon id="Fill-6-Copy-4" fill="#CDCCCB" points="1 217 92 217 92 209 1 209"></polygon>
            <polygon id="Fill-6-Copy-5" fill="#CDCCCB" points="1 241 62 241 62 233 1 233"></polygon>
            <polygon id="Fill-11" fill="#818181" points="147 28 213 28 213 0 147 0"></polygon>
        </g>
    </g>
</svg>