<svg width="20" height="20" viewBox="0 0 20 20" fill="none" xmlns="http://www.w3.org/2000/svg">
<path d="M13.3333 10.8333H10.8792C10.8539 10.8333 10.8333 10.8128 10.8333 10.7874V3.33333C10.8333 2.8731 10.4602 2.5 9.99998 2.5C9.53974 2.5 9.16665 2.8731 9.16665 3.33333V10.7874C9.16665 10.8128 9.14609 10.8333 9.12073 10.8333H6.66665L9.41072 13.5774C9.73616 13.9028 10.2638 13.9028 10.5892 13.5774L13.3333 10.8333ZM4.16665 15.8333C3.70641 15.8333 3.33331 16.2064 3.33331 16.6667C3.33331 17.1269 3.70641 17.5 4.16665 17.5H15.8333C16.2935 17.5 16.6666 17.1269 16.6666 16.6667C16.6666 16.2064 16.2935 15.8333 15.8333 15.8333H4.16665Z" fill="#969B9E"/>
</svg>
