<svg width="20" height="20" viewBox="0 0 20 20" fill="none" xmlns="http://www.w3.org/2000/svg">
<path fill-rule="evenodd" clip-rule="evenodd" d="M15.8334 3.33332V15.8333C15.8334 16.2936 16.2064 16.6667 16.6667 16.6667C17.1269 16.6667 17.5 16.2936 17.5 15.8333V2.49999C17.5 2.03975 17.1269 1.66666 16.6667 1.66666H5.33335C4.87312 1.66666 4.50002 2.03975 4.50002 2.49999C4.50002 2.96023 4.87312 3.33332 5.33335 3.33332H15.8334ZM3.33333 4.33332C2.8731 4.33332 2.5 4.70642 2.5 5.16666V17.1667C2.5 17.6269 2.8731 18 3.33333 18H14C14.4602 18 14.8333 17.6269 14.8333 17.1667V5.16666C14.8333 4.70642 14.4602 4.33332 14 4.33332H3.33333ZM4.16667 16.3333V5.99999H13.1667V16.3333H4.16667ZM11.3333 9.33332H6.00001C5.53977 9.33332 5.16668 8.96023 5.16668 8.49999C5.16668 8.03975 5.53977 7.66665 6.00001 7.66665H11.3333C11.7936 7.66665 12.1667 8.03975 12.1667 8.49999C12.1667 8.96023 11.7936 9.33332 11.3333 9.33332ZM6.00001 12H11.3333C11.7936 12 12.1667 11.6269 12.1667 11.1667C12.1667 10.7064 11.7936 10.3333 11.3333 10.3333H6.00001C5.53977 10.3333 5.16668 10.7064 5.16668 11.1667C5.16668 11.6269 5.53977 12 6.00001 12ZM8.66668 14.6667H6.00001C5.53977 14.6667 5.16668 14.2936 5.16668 13.8333C5.16668 13.3731 5.53977 13 6.00001 13H8.66668C9.12691 13 9.50001 13.3731 9.50001 13.8333C9.50001 14.2936 9.12691 14.6667 8.66668 14.6667Z" fill="#969B9E"/>
</svg>
