<svg width="326" height="328" viewBox="0 0 326 328" xmlns="http://www.w3.org/2000/svg" xmlns:xlink="http://www.w3.org/1999/xlink">
    <defs>
        <filter x="-3.9%" y="-3.8%" width="107.7%" height="107.7%" filterUnits="objectBoundingBox" id="a">
            <feOffset in="SourceAlpha" result="shadowOffsetOuter1"/>
            <feGaussianBlur stdDeviation="4" in="shadowOffsetOuter1" result="shadowBlurOuter1"/>
            <feColorMatrix values="0 0 0 0 0.711529412 0 0 0 0 0.729317647 0 0 0 0 0.741176471 0 0 0 0.5 0" in="shadowBlurOuter1"/>
        </filter>
        <path d="M4 0h302a4 4 0 0 1 4 4v308H0V4a4 4 0 0 1 4-4z" id="b"/>
    </defs>
    <g fill="none" fill-rule="evenodd">
        <g transform="translate(8 8)">
            <use fill="#000" filter="url(#a)" xlink:href="#b"/>
            <use fill="#FFF" xlink:href="#b"/>
        </g>
        <path d="M12 8h302a4 4 0 0 1 4 4v68H8V12a4 4 0 0 1 4-4z" fill="#E1F1FD" opacity=".561"/>
        <path d="M108 48a4 4 0 1 1 0 8H36a4 4 0 1 1 0-8h72zm30-16a4 4 0 1 1 0 8H36a4 4 0 1 1 0-8h102z" fill="#B7DCFA" opacity=".746"/>
        <path d="M274 23.09c11.548 0 20.91 9.362 20.91 20.91S285.547 64.91 274 64.91 253.09 55.547 253.09 44s9.362-20.91 20.91-20.91zm4.657 28.245c-1.268 1.033-2.79 1.687-4.408 1.751l-.249.005c-1.709 0-3.323-.666-4.66-1.754l-4.867 2.79a4.547 4.547 0 0 0-2.285 3.715l-.006.233v.919A19.01 19.01 0 0 0 274 63.09a19.01 19.01 0 0 0 11.819-4.097v-.92a4.546 4.546 0 0 0-2.093-3.826l-.2-.12zM274 24.909c-10.544 0-19.09 8.547-19.09 19.091a19.03 19.03 0 0 0 5.492 13.4 6.357 6.357 0 0 1 2.95-4.72l.217-.13 4.44-2.548c-1.35-1.655-2.19-3.802-2.19-6.002v-3.636c0-4.418 3.507-8.035 7.926-8.178l.255-.004a8.182 8.182 0 0 1 8.182 8.182V44c0 2.195-.84 4.344-2.194 6.002l4.442 2.548a6.364 6.364 0 0 1 3.17 4.848A19.03 19.03 0 0 0 293.09 44c0-10.544-8.546-19.09-19.09-19.09zm.006 9.09-.217.004a6.364 6.364 0 0 0-6.153 6.36V44c0 3.717 3.033 7.273 6.346 7.273l.213-.004c3.258-.13 6.169-3.637 6.169-7.269v-3.636a6.364 6.364 0 0 0-6.358-6.365z" fill="#B7DCFA" fill-rule="nonzero" opacity=".75"/>
        <path d="M290 284a4 4 0 1 1 0 8H132a4 4 0 1 1 0-8h158zm0-16a4 4 0 1 1 0 8H132a4 4 0 1 1 0-8h158zm0-16a4 4 0 1 1 0 8H132a4 4 0 1 1 0-8h158zm-182 0a4 4 0 1 1 0 8H36a4 4 0 1 1 0-8h72zm186-18v2H32v-2h262zm-4-24a4 4 0 1 1 0 8H132a4 4 0 1 1 0-8h158zm0-16a4 4 0 1 1 0 8H132a4 4 0 1 1 0-8h158zm0-16a4 4 0 1 1 0 8H132a4 4 0 1 1 0-8h158zm-182 0a4 4 0 1 1 0 8H36a4 4 0 1 1 0-8h72zm186-18v2H32v-2h262zm-4-24a4 4 0 1 1 0 8H132a4 4 0 1 1 0-8h158zm0-16a4 4 0 1 1 0 8H132a4 4 0 1 1 0-8h158zm0-16a4 4 0 1 1 0 8H132a4 4 0 1 1 0-8h158zm-182 0a4 4 0 1 1 0 8H36a4 4 0 1 1 0-8h72z" fill="#D9DDE0" opacity=".647"/>
    </g>
</svg>
