<svg xmlns="http://www.w3.org/2000/svg" width="24" height="24" viewBox="0 0 24 24">
    <g fill="none" fill-rule="evenodd">
        <g fill="#B5BABD">
            <g>
                <g>
                    <g>
                        <path d="M7.857 0c4.25 0 7.857 3.249 7.857 7.857 0 1.31-.523 2.812-1.465 4.496-.583 1.042-1.317 2.134-2.166 3.255-.769 1.013-1.59 1.995-2.41 2.91l-.212.234-.398.432-.494.519c-.392.396-1.032.396-1.423 0l-.69-.729-.415-.457c-.82-.914-1.641-1.896-2.41-2.91-.85-1.12-1.583-2.212-2.165-3.254C.523 10.67 0 9.168 0 7.857 0 3.25 3.606 0 7.857 0zm0 2C4.667 2 2 4.403 2 7.857c0 .9.42 2.107 1.211 3.52.533.953 1.216 1.97 2.014 3.022.732.966 1.519 1.906 2.305 2.783l.327.36.327-.36c.787-.877 1.573-1.817 2.305-2.783.798-1.052 1.481-2.069 2.014-3.022.79-1.413 1.211-2.62 1.211-3.52C13.714 4.403 11.047 2 7.857 2zm0 2.286c1.973 0 3.572 1.599 3.572 3.571 0 1.973-1.6 3.572-3.572 3.572s-3.571-1.6-3.571-3.572 1.599-3.571 3.571-3.571zm0 2c-.868 0-1.571.703-1.571 1.571S6.989 9.43 7.857 9.43 9.43 8.725 9.43 7.857c0-.868-.704-1.571-1.572-1.571z" transform="translate(-543 -260) translate(142 240) translate(401 20) translate(4 2)"/>
                    </g>
                </g>
            </g>
        </g>
    </g>
</svg>
