<svg xmlns="http://www.w3.org/2000/svg" width="24" height="24" viewBox="0 0 24 24">
    <g fill="none" fill-rule="evenodd">
        <g fill="#B5BABD">
            <g>
                <g>
                    <g>
                        <path d="M9 0c4.97 0 9 4.03 9 9s-4.03 9-9 9-9-4.03-9-9 4.03-9 9-9zm0 2C5.134 2 2 5.134 2 9s3.134 7 7 7 7-3.134 7-7-3.134-7-7-7zm-.371 2c.513 0 .935.386.993.883L9.629 5l-.001 3.848 2.97 1.49c.455.239.65.777.469 1.244l-.049.106c-.238.454-.777.649-1.244.468l-.106-.048-3.505-1.77c-.292-.154-.487-.44-.527-.763l-.007-.122V5c0-.552.447-1 1-1z" transform="translate(-166 -568) translate(142 404) translate(24 164) translate(3 3)"/>
                    </g>
                </g>
            </g>
        </g>
    </g>
</svg>
