<svg xmlns="http://www.w3.org/2000/svg" width="24" height="24" viewBox="0 0 24 24">
    <g fill="none" fill-rule="evenodd">
        <g fill="#B5BABD">
            <g>
                <path d="M12 8c-2.21 0-4 1.79-4 4s1.79 4 4 4 4-1.79 4-4-1.79-4-4-4zm9 3c-.52-4.17-3.83-7.48-8-8V2c0-.55-.45-1-1-1s-1 .45-1 1v1c-4.17.52-7.48 3.83-8 8H2c-.55 0-1 .45-1 1s.45 1 1 1h1c.52 4.17 3.83 7.48 8 8v1c0 .55.45 1 1 1s1-.45 1-1v-1c4.17-.52 7.48-3.83 8-8h1c.55 0 1-.45 1-1s-.45-1-1-1h-1zm-9 8c-3.87 0-7-3.13-7-7s3.13-7 7-7 7 3.13 7 7-3.13 7-7 7z" transform="translate(-166 -260) translate(166 260)"/>
            </g>
        </g>
    </g>
</svg>
