<?xml version="1.0" encoding="UTF-8"?>
<svg width="54px" height="15px" viewBox="0 0 54 15" version="1.1" xmlns="http://www.w3.org/2000/svg" xmlns:xlink="http://www.w3.org/1999/xlink">
    <title>Shape</title>
    <g id="UI" stroke="none" stroke-width="1" fill="none" fill-rule="evenodd">
        <g id="02---Jobs" transform="translate(-1250.000000, -360.000000)" fill="#969B9E">
            <path d="M1256.49925,360.002109 C1255.90127,360.018203 1255.29943,360.144886 1254.72731,360.353878 C1252.51159,361.29147 1250.97072,363.337249 1250.27364,365.791816 C1250.15595,366.252564 1250.06048,366.713773 1250.00923,367.189696 C1250.00923,367.2051 1249.9725,367.673666 1250.03849,367.547213 C1250.10447,367.435934 1250.13373,367.272005 1250.17046,367.145322 C1250.50789,365.992531 1250.91924,364.943431 1251.5501,363.946752 C1253.06172,361.692441 1255.49014,360.24214 1258.0578,361.045691 C1258.53492,361.20893 1258.96033,361.447352 1259.38574,361.729917 C1259.46624,361.789465 1260.06059,362.265617 1259.92862,361.834068 C1259.81863,361.492415 1259.53994,361.201573 1259.29753,360.970969 C1258.48163,360.255015 1257.49611,359.975209 1256.49925,360.002109 Z M1275.23979,362.25757 C1274.89511,362.25757 1274.63115,362.377126 1274.44747,362.622675 C1274.25654,362.860406 1274.16878,363.217693 1274.16878,363.686489 L1274.16878,367.078647 C1273.74314,366.602724 1273.30322,366.260152 1272.85581,366.029088 C1272.54784,365.878366 1272.21828,365.778031 1271.87936,365.731808 C1271.65583,365.70134 1271.4305,365.686514 1271.20496,365.687435 C1270.08247,365.687435 1269.16521,366.088635 1268.47584,366.891727 C1267.7858,367.695278 1267.44111,368.811513 1267.44111,370.247099 C1267.44111,370.924197 1267.52955,371.556002 1267.69804,372.136306 C1267.87446,372.71661 1268.13093,373.222192 1268.46836,373.653741 C1268.79289,374.070943 1269.20338,374.411251 1269.67112,374.650881 C1270.1335,374.880795 1270.63215,375.000351 1271.17525,375.000351 C1271.41767,375.000351 1271.65237,374.977359 1271.87936,374.932986 C1272.02373,374.909917 1272.16605,374.875243 1272.305,374.829294 C1272.64862,374.710508 1272.97266,374.539996 1273.26625,374.323482 C1273.5674,374.100006 1273.8606,373.810083 1274.16878,373.460613 L1274.16878,373.683171 C1274.16878,374.107823 1274.27173,374.427634 1274.46947,374.658008 C1274.66743,374.881025 1274.93207,375.000351 1275.23979,375.000351 C1275.54048,375.000351 1275.80466,374.888842 1276.00285,374.672952 C1276.20105,374.449705 1276.29606,374.122767 1276.29606,373.683171 L1276.29606,363.566933 C1276.29606,363.143201 1276.2083,362.815803 1276.02462,362.592556 C1275.83437,362.369539 1275.56996,362.25757 1275.23979,362.25757 L1275.23979,362.25757 Z M1302.9278,362.25757 C1302.58312,362.25757 1302.31893,362.377126 1302.13571,362.622675 C1301.95203,362.860406 1301.85679,363.217693 1301.85679,363.686489 L1301.85679,367.078647 C1301.43138,366.602724 1300.991,366.260152 1300.54382,366.029088 C1300.2649,365.88769 1299.93495,365.784229 1299.56782,365.731808 C1299.34407,365.70131 1299.11851,365.686484 1298.89274,365.687435 C1297.77071,365.687435 1296.86093,366.088635 1296.16363,366.891727 C1295.47426,367.695278 1295.12912,368.811513 1295.12912,370.247099 C1295.12912,370.924197 1295.21711,371.556002 1295.39308,372.136306 C1295.56905,372.71661 1295.81849,373.222192 1296.15614,373.653741 C1296.48078,374.07111 1296.89153,374.411441 1297.35958,374.650881 C1297.8215,374.880795 1298.32084,375.000351 1298.86372,375.000351 C1299.1127,375.000351 1299.34763,374.977359 1299.56782,374.932986 C1299.71477,374.910914 1299.85355,374.873898 1299.99301,374.829294 C1300.33657,374.710548 1300.66055,374.540033 1300.95404,374.323482 C1301.25518,374.100006 1301.5561,373.810083 1301.85656,373.460613 L1301.85656,373.683171 C1301.85656,374.107823 1301.95929,374.427634 1302.15748,374.658008 C1302.36293,374.881025 1302.61963,375.000351 1302.92757,375.000351 C1303.24346,375.000351 1303.4997,374.888842 1303.69835,374.672952 C1303.89654,374.449705 1303.99904,374.122767 1303.99904,373.683171 L1303.99904,363.566933 C1303.99904,363.143201 1303.9038,362.815803 1303.72057,362.592556 C1303.52963,362.369539 1303.27294,362.25757 1302.92757,362.25757 L1302.9278,362.25757 Z M1255.921,362.87719 C1255.61086,362.868963 1255.30368,362.940046 1255.02777,363.083883 C1254.11073,363.552219 1253.7436,364.690296 1254.21323,365.62007 C1254.67538,366.550074 1255.79741,366.922305 1256.71467,366.446382 C1257.63171,365.977587 1257.99862,364.83951 1257.52921,363.910196 C1257.22198,363.291579 1256.60391,362.894576 1255.921,362.87719 Z M1281.48331,365.657316 C1280.83023,365.664903 1280.2361,365.776412 1279.69323,365.984254 C1279.13539,366.207961 1278.66621,366.528002 1278.28479,366.93725 C1277.90292,367.353395 1277.60948,367.852309 1277.41129,368.432154 C1277.2131,369.012688 1277.1106,369.644953 1277.1106,370.321591 C1277.1106,371.764764 1277.5215,372.895024 1278.32833,373.735361 C1279.09139,374.531785 1280.14086,374.94793 1281.48331,374.992304 C1281.56381,375.000121 1281.63728,375.000351 1281.71801,375.000351 C1282.35636,375.000351 1282.91397,374.918271 1283.4056,374.747445 C1283.897,374.575928 1284.30041,374.368086 1284.6231,374.11472 C1284.9535,373.854917 1285.1882,373.586836 1285.34988,373.311399 C1285.51134,373.036421 1285.59161,372.791102 1285.59161,372.590387 C1285.59161,372.359783 1285.51859,372.173782 1285.37913,372.046869 C1285.23287,371.920876 1285.04148,371.853511 1284.81404,371.853511 C1284.59407,371.853511 1284.43307,371.905932 1284.31515,372.002496 C1284.08951,372.220327 1283.85968,372.433652 1283.62579,372.642348 C1283.44103,372.799814 1283.24743,372.946286 1283.04595,373.081025 C1282.83279,373.214835 1282.62054,373.319446 1282.39287,373.378764 C1282.1729,373.445439 1281.92346,373.475328 1281.65202,373.475328 C1281.59307,373.475328 1281.53456,373.475328 1281.48331,373.467741 C1281.14611,373.445439 1280.83023,373.348875 1280.5445,373.170001 C1280.21411,372.969516 1279.94244,372.672237 1279.74493,372.285291 C1279.53925,371.88363 1279.4363,371.422421 1279.42905,370.901895 L1283.86026,370.901895 C1284.44758,370.901895 1284.9095,370.812688 1285.23945,370.648989 C1285.56259,370.470576 1285.72404,370.098344 1285.72404,369.525627 C1285.72404,368.900719 1285.56984,368.290986 1285.25419,367.68861 C1284.93876,367.093132 1284.4621,366.602724 1283.83124,366.222676 C1283.19992,365.843776 1282.43663,365.657316 1281.55678,365.657316 L1281.48331,365.657316 Z M1290.54416,365.657316 C1289.89108,365.664903 1289.28947,365.776412 1288.75408,365.984254 C1288.19624,366.207961 1287.72683,366.528002 1287.33748,366.93725 C1286.96331,367.353395 1286.67033,367.852309 1286.4726,368.432154 C1286.27418,369.012688 1286.17145,369.644953 1286.17145,370.321591 C1286.17145,371.764764 1286.57487,372.895024 1287.38192,373.735361 C1288.14453,374.531785 1289.20149,374.94793 1290.54416,374.992304 C1290.61786,375.000121 1290.69768,375.000351 1290.77841,375.000351 C1291.40972,375.000351 1291.97459,374.918271 1292.46599,374.747445 C1292.95739,374.575928 1293.36104,374.368086 1293.68372,374.11472 C1294.00709,373.854917 1294.24859,373.586836 1294.41028,373.311399 C1294.57151,373.036421 1294.65246,372.791102 1294.65246,372.590387 C1294.65246,372.359783 1294.57876,372.173782 1294.43205,372.046869 C1294.29281,371.920876 1294.10233,371.853511 1293.8674,371.853511 C1293.65424,371.853511 1293.49301,371.905932 1293.37555,372.002496 C1293.08937,372.270346 1292.86261,372.486006 1292.68641,372.642348 C1292.4991,372.799872 1292.303,372.94634 1292.09909,373.081025 C1291.89432,373.214835 1291.67368,373.319446 1291.45394,373.378764 C1291.22604,373.445439 1290.98454,373.475328 1290.71287,373.475328 C1290.65392,373.475328 1290.59541,373.475328 1290.54416,373.467741 C1290.20651,373.445439 1289.89085,373.348875 1289.60467,373.170001 C1289.26725,372.969516 1289.00307,372.672237 1288.79784,372.285291 C1288.59965,371.88363 1288.4967,371.422421 1288.48944,370.901895 L1292.91318,370.901895 C1293.50775,370.901895 1293.9699,370.812688 1294.29281,370.648989 C1294.62321,370.470576 1294.78399,370.098344 1294.78399,369.525627 C1294.78399,368.900719 1294.62321,368.290986 1294.30755,367.68861 C1293.99212,367.093132 1293.52227,366.602724 1292.88392,366.222676 C1292.25284,365.843776 1291.49771,365.657316 1290.6097,365.657316 L1290.54416,365.657316 Z M1259.73065,365.67272 C1259.40048,365.67272 1259.14333,365.783999 1258.9601,365.999658 C1258.76939,366.207961 1258.67392,366.535359 1258.67392,366.974036 L1258.67392,373.601551 C1258.67392,374.047585 1258.77665,374.397515 1258.98913,374.635706 C1259.20229,374.880795 1259.46601,375.000351 1259.79641,375.000351 C1260.13384,375.000351 1260.40505,374.880795 1260.61821,374.650881 C1260.83091,374.412689 1260.94112,374.069887 1260.94112,373.601551 L1260.94112,370.737966 C1260.94112,369.793018 1260.99237,369.160983 1261.10235,368.81864 C1261.25632,368.38755 1261.50622,368.053025 1261.83616,367.807476 C1262.16656,367.569285 1262.53324,367.442832 1262.93688,367.442832 C1263.55255,367.442832 1263.97093,367.643777 1264.1766,368.044978 C1264.38183,368.447098 1264.48501,369.026713 1264.48501,369.78589 L1264.48501,373.601551 C1264.48501,374.047585 1264.58728,374.397515 1264.80021,374.635706 C1265.01269,374.880795 1265.28435,375.000351 1265.62178,375.000351 C1265.95172,375.000351 1266.22316,374.880795 1266.42861,374.642834 C1266.63428,374.412689 1266.74404,374.062529 1266.74404,373.601551 L1266.74404,369.339626 C1266.74404,368.834044 1266.72227,368.416979 1266.67805,368.097168 C1266.63406,367.76977 1266.53904,367.465363 1266.38484,367.182339 C1266.15014,366.699058 1265.80523,366.327057 1265.3356,366.066564 C1264.86597,365.80607 1264.3308,365.67272 1263.73623,365.67272 C1263.11988,365.67272 1262.577,365.798713 1262.10012,366.044492 C1261.63071,366.297168 1261.19805,366.684114 1260.79395,367.219355 L1260.79395,366.93725 C1260.79395,366.669399 1260.75019,366.438795 1260.65494,366.245207 C1260.5597,366.052079 1260.4275,365.910452 1260.26627,365.813658 C1260.10436,365.716864 1259.92839,365.67272 1259.73065,365.67272 L1259.73065,365.67272 Z M1281.47628,367.256831 L1281.48331,367.256831 C1282.06973,367.256831 1282.54684,367.450189 1282.90626,367.837135 C1283.27362,368.223621 1283.47862,368.811513 1283.53712,369.600119 L1279.42882,369.600119 C1279.50978,368.826687 1279.72974,368.238796 1280.08916,367.844722 C1280.44858,367.450419 1280.91073,367.256831 1281.47605,367.256831 L1281.47628,367.256831 Z M1290.53668,367.256831 L1290.54416,367.256831 C1291.13103,367.256831 1291.60724,367.450189 1291.96666,367.837135 C1292.32653,368.223621 1292.53924,368.811513 1292.59072,369.600119 L1288.48967,369.600119 C1288.56292,368.826687 1288.7831,368.238796 1289.15001,367.844722 C1289.50966,367.450419 1289.97181,367.256831 1290.53668,367.256831 Z M1271.85079,367.390641 L1271.87936,367.390641 C1272.26826,367.390641 1272.62791,367.509737 1272.95082,367.740571 C1273.28825,367.970945 1273.55288,368.305701 1273.75062,368.744607 C1273.94179,369.183514 1274.04428,369.711628 1274.04428,370.321821 C1274.04428,370.976157 1273.94179,371.518986 1273.75062,371.950305 C1273.55288,372.381855 1273.28825,372.701436 1272.95831,372.909508 C1272.63517,373.117811 1272.26826,373.222652 1271.87936,373.222652 L1271.87256,373.222652 C1271.4764,373.222652 1271.11652,373.110913 1270.78635,372.895254 C1270.44938,372.672237 1270.19223,372.344838 1270.00174,371.913519 C1269.81081,371.474612 1269.71557,370.946498 1269.71557,370.321591 C1269.71557,369.73393 1269.80401,369.213173 1269.97998,368.774266 C1270.1632,368.328232 1270.41264,367.98566 1270.74259,367.747698 C1271.0655,367.50192 1271.43966,367.390641 1271.85079,367.390641 L1271.85079,367.390641 Z M1299.5456,367.390641 L1299.56782,367.390641 C1299.95672,367.390641 1300.31615,367.509737 1300.64632,367.740571 C1300.97649,367.970945 1301.24089,368.305701 1301.43863,368.744607 C1301.63683,369.183514 1301.73229,369.711628 1301.73229,370.321821 C1301.73229,370.976157 1301.63683,371.518986 1301.43863,371.950305 C1301.24089,372.381855 1300.97603,372.701436 1300.65335,372.909508 C1300.32846,373.116939 1299.95175,373.225611 1299.56782,373.222652 L1299.56079,373.222652 C1299.16486,373.222652 1298.80476,373.110913 1298.47459,372.895254 C1298.14487,372.672237 1297.88069,372.344838 1297.68998,371.913519 C1297.49927,371.474612 1297.4038,370.946498 1297.4038,370.321591 C1297.4038,369.73393 1297.49111,369.213403 1297.67479,368.774266 C1297.85098,368.328232 1298.10791,367.98566 1298.43082,367.747698 C1298.76145,367.50192 1299.12767,367.390641 1299.5456,367.390641 L1299.5456,367.390641 Z M1257.17728,367.465363 C1256.58995,367.821731 1255.90059,368.022906 1255.167,368.022906 C1255.01326,368.022906 1254.86631,368.015779 1254.71211,368.000604 L1254.71211,373.475328 C1254.71211,373.98114 1254.82958,374.360499 1255.05725,374.613634 C1255.29195,374.873898 1255.57836,375.000351 1255.93778,375.000351 C1256.30423,375.000351 1256.6056,374.873898 1256.83237,374.620992 C1257.06026,374.368086 1257.17728,373.988727 1257.17728,373.475328 L1257.17728,367.465593 L1257.17728,367.465363 Z" id="Shape"></path>
        </g>
    </g>
</svg>