<svg xmlns="http://www.w3.org/2000/svg" xmlns:xlink="http://www.w3.org/1999/xlink" width="24" height="24" viewBox="0 0 24 24">
    <defs>
        <path id="07588931qa" d="M1.954 4.38c.28-1.47 1.66-2.48 3.16-2.48h2.93c.52 0 .95-.43.95-.95S8.564 0 8.044 0h-2.83C2.604 0 .274 1.91.024 4.51-.266 7.49 2.074 10 4.994 10h3.05c.52 0 .95-.43.95-.95s-.43-.95-.95-.95h-3.05c-1.91 0-3.42-1.74-3.04-3.72zM6.994 6h6c.55 0 1-.45 1-1s-.45-1-1-1h-6c-.55 0-1 .45-1 1s.45 1 1 1zm7.78-6h-2.83c-.52 0-.95.43-.95.95s.43.95.95.95h2.93c1.5 0 2.88 1.01 3.16 2.48.38 1.98-1.13 3.72-3.04 3.72h-3.05c-.52 0-.95.43-.95.95s.43.95.95.95h3.05c2.92 0 5.26-2.51 4.98-5.49-.25-2.6-2.59-4.51-5.2-4.51z"/>
    </defs>
    <g fill="none" fill-rule="evenodd">
        <g>
            <g>
                <g>
                    <g>
                        <g>
                            <g transform="translate(-761 -658) translate(761 262) translate(0 236) translate(0 80) translate(0 80) translate(2 7)">
                                <mask id="fpy4zw2xyb" fill="#fff">
                                    <use xlink:href="#07588931qa"/>
                                </mask>
                                <use fill="#000" fill-rule="nonzero" xlink:href="#07588931qa"/>
                                <path fill="#26A0F4" d="M-2 -7H22V17H-2z" mask="url(#fpy4zw2xyb)"/>
                            </g>
                        </g>
                    </g>
                </g>
            </g>
        </g>
    </g>
</svg>
