<svg width="20" height="20" viewBox="0 0 20 20" fill="none" xmlns="http://www.w3.org/2000/svg">
<path d="M16.6667 1.66666H6.66669C5.75002 1.66666 5.00002 2.41666 5.00002 3.33332V13.3333C5.00002 14.25 5.75002 15 6.66669 15H16.6667C17.5834 15 18.3334 14.25 18.3334 13.3333V3.33332C18.3334 2.41666 17.5834 1.66666 16.6667 1.66666ZM16.6667 13.3333H6.66669V3.33332H16.6667V13.3333ZM3.33335 4.99999H1.66669V16.6667C1.66669 17.5833 2.41669 18.3333 3.33335 18.3333H15V16.6667H3.33335V4.99999ZM13.3334 9.99999V7.49999C13.3334 7.04166 12.9584 6.66666 12.5 6.66666H10.8334V10.8333H12.5C12.9584 10.8333 13.3334 10.4583 13.3334 9.99999ZM11.6667 7.49999H12.5V9.99999H11.6667V7.49999ZM15 9.16666H15.8334V8.33332H15V7.49999H15.8334V6.66666H14.1667V10.8333H15V9.16666ZM8.33335 9.16666H9.16669C9.62502 9.16666 10 8.79166 10 8.33332V7.49999C10 7.04166 9.62502 6.66666 9.16669 6.66666H7.50002V10.8333H8.33335V9.16666ZM8.33335 7.49999H9.16669V8.33332H8.33335V7.49999Z" fill="#969B9E"/>
</svg>
