<?xml version="1.0" encoding="UTF-8"?>
<svg width="229px" height="295px" viewBox="0 0 229 295" version="1.1" xmlns="http://www.w3.org/2000/svg" xmlns:xlink="http://www.w3.org/1999/xlink">
    <!-- Generator: Sketch 52.2 (67145) - http://www.bohemiancoding.com/sketch -->
    <g id="CV-295X229" stroke="none" stroke-width="1" fill="none" fill-rule="evenodd">
        <rect fill="#FFFFFF" x="0" y="0" width="229" height="295"></rect>
        <polygon id="Fill-2" fill="#969696" points="22.8555756 98.5822145 79.452766 98.5822145 79.452766 91 22.8555756 91"></polygon>
        <polygon id="Fill-3" fill="#969696" points="22.8555756 33.2698962 121.210388 33.2698962 121.210388 20 22.8555756 20"></polygon>
        <polygon id="Fill-3-Copy" fill="#CDCDCD" points="127.771377 33.2698962 205.19052 33.2698962 205.19052 20 127.771377 20"></polygon>
        <polygon id="Fill-4" fill="#CDCDCD" points="94.9189546 98.5822145 205.326669 98.5822145 205.326669 91 94.9189546 91"></polygon>
        <polygon id="Fill-5" fill="#CDCDCD" points="22.8555756 54.5822145 194.81796 54.5822145 194.81796 47 22.8555756 47"></polygon>
        <polygon id="Fill-6" fill="#CDCDCD" points="22.8555756 70.5822145 147.671748 70.5822145 147.671748 63 22.8555756 63"></polygon>
        <polygon id="Fill-7" fill="#CDCDCD" points="94.9189546 116.582215 205.326669 116.582215 205.326669 109 94.9189546 109"></polygon>
        <polygon id="Fill-8" fill="#969696" points="22.8555756 191.582215 79.452766 191.582215 79.452766 184 22.8555756 184"></polygon>
        <polygon id="Fill-9" fill="#CDCDCD" points="94.9189546 191.582215 205.326669 191.582215 205.326669 184 94.9189546 184"></polygon>
        <polygon id="Fill-10" fill="#CDCDCD" points="94.9189546 208.582215 205.326669 208.582215 205.326669 201 94.9189546 201"></polygon>
        <polygon id="Fill-11" fill="#969696" points="22.8555756 261.582215 79.452766 261.582215 79.452766 254 22.8555756 254"></polygon>
        <polygon id="Fill-12" fill="#CDCDCD" points="94.9189546 224.582215 205.326669 224.582215 205.326669 217 94.9189546 217"></polygon>
        <polygon id="Fill-13" fill="#CDCDCD" points="94.9189546 241.582215 205.326669 241.582215 205.326669 234 94.9189546 234"></polygon>
        <polygon id="Fill-13-Copy" fill="#CDCDCD" points="22.8555756 275.582215 205.172763 275.582215 205.172763 268 22.8555756 268"></polygon>
        <polygon id="Fill-14" fill="#969696" points="22.8555756 136.582215 79.452766 136.582215 79.452766 129 22.8555756 129"></polygon>
        <polygon id="Fill-15" fill="#CDCDCD" points="94.9189546 136.582215 205.326669 136.582215 205.326669 129 94.9189546 129"></polygon>
        <polygon id="Fill-16" fill="#CDCDCD" points="94.9189546 153.582215 205.326669 153.582215 205.326669 146 94.9189546 146"></polygon>
        <path d="M23.066151,41.5 L204.142466,41.5" id="Line-Copy-8" stroke="#969696" stroke-linecap="square"></path>
        <path d="M23.066151,82.5 L204.142466,82.5" id="Line-Copy-12" stroke="#969696" stroke-linecap="square"></path>
        <path d="M23.066151,172.5 L204.142466,172.5" id="Line-Copy-13" stroke="#969696" stroke-linecap="square"></path>
        <path d="M23.066151,249.5 L204.142466,249.5" id="Line-Copy-14" stroke="#969696" stroke-linecap="square"></path>
    </g>
</svg>