<svg width="269" height="267" viewBox="0 0 269 267" xmlns="http://www.w3.org/2000/svg" xmlns:xlink="http://www.w3.org/1999/xlink">
    <defs>
        <ellipse id="uy79qsj7ta" cx="133.661" cy="133.5" rx="133.661" ry="133.5"/>
    </defs>
    <g transform="translate(.965)" fill="none" fill-rule="evenodd">
        <mask id="ngb3c4cxwb" fill="#fff">
            <use xlink:href="#uy79qsj7ta"/>
        </mask>
        <use fill="#F1F1F1" xlink:href="#uy79qsj7ta"/>
        <g mask="url(#ngb3c4cxwb)">
            <path d="m193.633 190.514 7.055 1.89-24.094 89.921a.907.907 0 0 1-1.111.641l-5.303-1.42a.907.907 0 0 1-.641-1.111l24.094-89.921z" fill="#E2E2E2"/>
            <path d="m191.571 180.57 15.875 4.253-2.583 9.64a.907.907 0 0 1-1.11.64l-14.123-3.783a.907.907 0 0 1-.642-1.111l2.583-9.64z" fill="#CACACA"/>
            <path d="m195.666 130.01 33.514 8.98-6.059 22.609a3.81 3.81 0 0 1-4.665 2.693l-26.154-7.008a3.81 3.81 0 0 1-2.694-4.665l6.058-22.61z" fill="#E2E2E2"/>
            <path d="m220.563 136.752 1.764.473-6.808 25.407a.913.913 0 1 1-1.764-.473l6.808-25.407zM203.285 132.123l1.764.472-6.808 25.408a.913.913 0 0 1-1.763-.473l6.807-25.407zM211.201 134.172l1.764.472-6.808 25.408a.913.913 0 0 1-1.764-.473l6.808-25.407z" fill="#D6D6D6"/>
            <path stroke="#D6D6D6" stroke-width="1.512" d="m209.263 144.326 4.404 1.18-1.04 3.882-4.404-1.18z"/>
            <path fill="#E2E2E2" d="m208.338 144.858 2.666.714-.651 2.429-2.666-.715z"/>
            <path d="m185.799 152.724 40.569 10.87-6.528 24.363a3.81 3.81 0 0 1-4.666 2.693l-33.21-8.898a3.81 3.81 0 0 1-2.693-4.666l6.528-24.362z" fill="#D6D6D6"/>
            <path d="m190.449 167.12 1.878-7.011 23.818 6.382c.484.13.771.627.642 1.111l-1.41 5.258a.907.907 0 0 1-1.11.641l-23.818-6.382zM188.57 174.13l.94-3.505 23.817 6.382c.484.13.772.627.642 1.11l-.47 1.753a.907.907 0 0 1-1.11.642l-23.819-6.382z" fill="#E2E2E2"/>
        </g>
        <g mask="url(#ngb3c4cxwb)">
            <path d="m105.777 222.137 13.943 3.736-11.699 43.66a1.8 1.8 0 0 1-2.204 1.272l-10.466-2.804a1.8 1.8 0 0 1-1.273-2.204l11.699-43.66zM125.555 205.271l-13.943-3.736 11.699-43.66a1.8 1.8 0 0 1 2.204-1.272l10.466 2.804a1.8 1.8 0 0 1 1.273 2.204l-11.699 43.66z" fill="#B7DCFA"/>
            <g fill="#D3D3D3">
                <path d="m107.123 199.962-5.96-10.33a1.537 1.537 0 0 0-2.098-.563l-.8.461a1.536 1.536 0 0 0-.563 2.098l5.96 10.33a1.537 1.537 0 0 0 2.098.563l.8-.461a1.536 1.536 0 0 0 .563-2.098zM88.46 224.277l10.327-5.966a1.537 1.537 0 0 1 2.098.561l.463.8a1.536 1.536 0 0 1-.562 2.098l-10.326 5.966a1.537 1.537 0 0 1-2.1-.561l-.461-.8a1.536 1.536 0 0 1 .561-2.098z"/>
            </g>
            <g fill="#D3D3D3">
                <path d="m129.992 206.715 10.326-5.967a1.537 1.537 0 0 1 2.099.562l.462.8a1.536 1.536 0 0 1-.561 2.098l-10.327 5.966a1.537 1.537 0 0 1-2.099-.561l-.462-.8a1.536 1.536 0 0 1 .562-2.098zM131.256 215.76l17.91 4.796a1.73 1.73 0 0 1 1.224 2.116l-.14.521a1.727 1.727 0 0 1-2.115 1.223l-17.91-4.796a1.73 1.73 0 0 1-1.224-2.116l.14-.521a1.727 1.727 0 0 1 2.115-1.223zM82.653 203.149l17.91 4.795a1.73 1.73 0 0 1 1.224 2.116l-.14.522a1.727 1.727 0 0 1-2.115 1.222l-17.91-4.795a1.73 1.73 0 0 1-1.224-2.116l.14-.522a1.727 1.727 0 0 1 2.115-1.222zM134.286 235.913l-5.96-10.33a1.537 1.537 0 0 0-2.098-.563l-.8.461a1.536 1.536 0 0 0-.563 2.098l5.96 10.33a1.537 1.537 0 0 0 2.098.563l.8-.461a1.536 1.536 0 0 0 .564-2.098z"/>
            </g>
            <path d="m116.814 146.624 31.372 8.406-5.138 19.173a1.8 1.8 0 0 1-2.204 1.273l-27.895-7.474a1.8 1.8 0 0 1-1.272-2.205l5.137-19.173z" fill="#26A0F4"/>
            <path d="m125.067 46.108 66.229 17.746-12.052 44.98a7.558 7.558 0 0 1-9.257 5.344l-51.627-13.834a7.558 7.558 0 0 1-5.345-9.257l12.052-44.979z" fill="#B7DCFA"/>
            <path d="m174.267 59.435 3.486.934-13.541 50.536a1.804 1.804 0 1 1-3.486-.934l13.541-50.536zM140.124 50.286l3.486.934-13.542 50.537a1.804 1.804 0 1 1-3.485-.934l13.54-50.537zM155.767 54.334l3.485.934-13.54 50.537a1.804 1.804 0 1 1-3.487-.934l13.542-50.537z" fill="#9CCFF7"/>
            <path stroke="#9CCFF7" stroke-width="3" d="m151.91 74.524 8.693 2.33-2.07 7.727-8.694-2.33z"/>
            <path fill="#B7DCFA" d="m150.073 75.585 5.269 1.412-1.294 4.83-5.27-1.413z"/>
            <path d="m105.488 91.292 80.172 21.482-12.986 48.464a7.558 7.558 0 0 1-9.257 5.345l-65.57-17.57a7.558 7.558 0 0 1-5.345-9.257l12.986-48.464z" fill="#88C7F8"/>
            <path d="m114.637 119.892 3.735-13.941 47.062 12.61a1.8 1.8 0 0 1 1.273 2.205l-2.804 10.463a1.8 1.8 0 0 1-2.205 1.273l-47.061-12.61zM110.901 133.833l1.868-6.97 47.062 12.61a1.8 1.8 0 0 1 1.272 2.204l-.936 3.494a1.8 1.8 0 0 1-2.204 1.272l-47.062-12.61z" fill="#B7DCFA"/>
        </g>
        <g mask="url(#ngb3c4cxwb)">
            <path d="m44.824 179.903 8.736 2.341-30.247 112.884a1.134 1.134 0 0 1-1.39.802l-6.544-1.754a1.134 1.134 0 0 1-.802-1.389l30.247-112.884z" fill="#E2E2E2"/>
            <path d="m42.3 167.487 19.654 5.266-3.228 12.05a1.134 1.134 0 0 1-1.39.801l-17.463-4.68a1.134 1.134 0 0 1-.802-1.388l3.229-12.05z" fill="#CACACA"/>
            <path d="m47.524 104.315 41.492 11.118-7.572 28.262a4.762 4.762 0 0 1-5.832 3.367l-32.294-8.653a4.762 4.762 0 0 1-3.367-5.832l7.573-28.262z" fill="#E2E2E2"/>
            <path d="m78.348 112.664 2.183.586-8.512 31.769a1.13 1.13 0 0 1-2.184-.585l8.513-31.77zM56.957 106.933l2.183.585-8.512 31.77a1.13 1.13 0 0 1-2.184-.586l8.513-31.77zM66.757 109.469l2.184.585-8.513 31.77a1.13 1.13 0 1 1-2.184-.586l8.513-31.77z" fill="#D6D6D6"/>
            <path stroke="#D6D6D6" stroke-width="1.89" d="m64.334 122.162 5.436 1.457-1.3 4.853-5.436-1.457z"/>
            <path fill="#E2E2E2" d="m63.178 122.826 3.3.885-.813 3.036-3.3-.885z"/>
            <path d="m35.231 132.72 50.228 13.459-8.16 30.452a4.762 4.762 0 0 1-5.831 3.367l-41.03-10.993a4.762 4.762 0 0 1-3.367-5.832l8.16-30.453z" fill="#D6D6D6"/>
            <path d="m40.95 150.689 2.347-8.763 29.479 7.898c.605.162.964.784.802 1.39l-1.761 6.571a1.134 1.134 0 0 1-1.39.802L40.95 150.69zM38.601 159.452l1.174-4.382 29.479 7.899c.605.162.964.784.801 1.389l-.587 2.19a1.134 1.134 0 0 1-1.388.802L38.6 159.452z" fill="#E2E2E2"/>
        </g>
    </g>
</svg>
