<?xml version="1.0" encoding="UTF-8"?>
<svg width="140px" height="13px" viewBox="0 0 140 13" version="1.1" xmlns="http://www.w3.org/2000/svg" xmlns:xlink="http://www.w3.org/1999/xlink">
    <title>02</title>
    <g id="02" stroke="none" stroke-width="1" fill="none" fill-rule="evenodd">
        <path d="M7.25976562,11 L7.25976562,9.94726562 L2.47460938,9.94726562 L2.4609375,9.91308594 L5.07910156,7.0625 C5.6578776,6.43815104 6.10791016,5.85367839 6.42919922,5.30908203 C6.75048828,4.76448568 6.91113281,4.22102865 6.91113281,3.67871094 C6.91113281,2.87207031 6.64567057,2.20784505 6.11474609,1.68603516 C5.58382161,1.16422526 4.87174479,0.903320312 3.97851562,0.903320312 C2.93033854,0.903320312 2.11002604,1.19498698 1.51757812,1.77832031 C0.925130208,2.36165365 0.640299479,3.08170573 0.663085938,3.93847656 L0.663085938,3.93847656 L0.676757812,3.97949219 L1.96875,3.97949219 C1.96875,3.34147135 2.13167318,2.84586589 2.45751953,2.49267578 C2.78336589,2.13948568 3.29036458,1.96289062 3.97851562,1.96289062 C4.45703125,1.96289062 4.84098307,2.13264974 5.13037109,2.47216797 C5.41975911,2.8116862 5.56445312,3.22981771 5.56445312,3.7265625 C5.56445312,4.12760417 5.46077474,4.51953125 5.25341797,4.90234375 C5.0460612,5.28515625 4.65071615,5.80240885 4.06738281,6.45410156 L4.06738281,6.45410156 L0.806640625,10.0771484 L0.806640625,11 L7.25976562,11 Z M12.1611328,11.1435547 C13.0999349,11.1435547 13.8507487,10.8188477 14.4135742,10.1694336 C14.9763997,9.52001953 15.2578125,8.68033854 15.2578125,7.65039062 C15.2578125,6.70703125 14.9934896,5.92773438 14.4648438,5.3125 C13.9361979,4.69726562 13.2275391,4.38964844 12.3388672,4.38964844 C11.9059245,4.38964844 11.5014648,4.46142578 11.1254883,4.60498047 C10.7495117,4.74853516 10.4156901,4.94791667 10.1240234,5.203125 L10.1240234,5.203125 L10.1240234,5.04589844 C10.1240234,4.12988281 10.3416341,3.38704427 10.7768555,2.81738281 C11.2120768,2.24772135 11.7851562,1.96289062 12.4960938,1.96289062 C12.8242188,1.96289062 13.1101888,1.99820964 13.3540039,2.06884766 C13.597819,2.13948568 13.8313802,2.23177083 14.0546875,2.34570312 L14.0546875,2.34570312 L14.3417969,1.31347656 C14.1230469,1.19498698 13.8461914,1.09700521 13.5112305,1.01953125 C13.1762695,0.942057292 12.8378906,0.903320312 12.4960938,0.903320312 C11.4433594,0.903320312 10.5615234,1.29980469 9.85058594,2.09277344 C9.13964844,2.88574219 8.78417969,3.9202474 8.78417969,5.19628906 L8.78417969,5.19628906 L8.78417969,7.09667969 C8.78417969,8.38183594 9.1031901,9.37760417 9.74121094,10.0839844 C10.3792318,10.7903646 11.1858724,11.1435547 12.1611328,11.1435547 Z M12.1611328,10.0908203 C11.5777995,10.0908203 11.0924479,9.84244792 10.7050781,9.34570312 C10.3177083,8.84895833 10.1240234,8.14257812 10.1240234,7.2265625 L10.1240234,7.2265625 L10.1240234,6.41992188 C10.2926432,6.11002604 10.538737,5.86165365 10.8623047,5.67480469 C11.1858724,5.48795573 11.5777995,5.39453125 12.0380859,5.39453125 C12.6259766,5.39453125 13.0851237,5.60644531 13.4155273,6.03027344 C13.745931,6.45410156 13.9111328,6.99414062 13.9111328,7.65039062 C13.9111328,8.34309896 13.7573242,8.92301432 13.449707,9.39013672 C13.1420898,9.85725911 12.7125651,10.0908203 12.1611328,10.0908203 Z M19.7490234,11.1435547 C20.7744141,11.1435547 21.5548503,10.8404948 22.090332,10.234375 C22.6258138,9.62825521 22.8935547,8.82617188 22.8935547,7.828125 C22.8935547,6.80273438 22.6303711,5.98697917 22.1040039,5.38085938 C21.5776367,4.77473958 20.8564453,4.47623698 19.9404297,4.48535156 C19.6031901,4.49446615 19.3058268,4.55029297 19.0483398,4.65283203 C18.7908529,4.75537109 18.5572917,4.88411458 18.3476562,5.0390625 L18.3476562,5.0390625 L18.6757812,2.24316406 L22.5175781,2.24316406 L22.5175781,1.046875 L17.5341797,1.046875 L16.9599609,6.50878906 L18.0810547,6.625 C18.1904297,6.296875 18.3636068,6.0530599 18.6005859,5.89355469 C18.8375651,5.73404948 19.2203776,5.65429688 19.7490234,5.65429688 C20.3095703,5.65429688 20.749349,5.859375 21.0683594,6.26953125 C21.3873698,6.6796875 21.546875,7.20377604 21.546875,7.84179687 C21.546875,8.5390625 21.3896484,9.08821615 21.0751953,9.48925781 C20.7607422,9.89029948 20.3186849,10.0908203 19.7490234,10.0908203 C19.2522786,10.0908203 18.847819,9.94156901 18.5356445,9.64306641 C18.2234701,9.3445638 18.0673828,8.92415365 18.0673828,8.38183594 L18.0673828,8.38183594 L16.8505859,8.38183594 L16.8369141,8.42285156 C16.8141276,9.31608073 17.0830078,9.99283854 17.6435547,10.453125 C18.2041016,10.9134115 18.9059245,11.1435547 19.7490234,11.1435547 Z M27.6308594,11.1435547 C28.65625,11.1435547 29.4366862,10.8404948 29.972168,10.234375 C30.5076497,9.62825521 30.7753906,8.82617188 30.7753906,7.828125 C30.7753906,6.80273438 30.512207,5.98697917 29.9858398,5.38085938 C29.4594727,4.77473958 28.7382812,4.47623698 27.8222656,4.48535156 C27.485026,4.49446615 27.1876628,4.55029297 26.9301758,4.65283203 C26.6726888,4.75537109 26.4391276,4.88411458 26.2294922,5.0390625 L26.2294922,5.0390625 L26.5576172,2.24316406 L30.3994141,2.24316406 L30.3994141,1.046875 L25.4160156,1.046875 L24.8417969,6.50878906 L25.9628906,6.625 C26.0722656,6.296875 26.2454427,6.0530599 26.4824219,5.89355469 C26.719401,5.73404948 27.1022135,5.65429688 27.6308594,5.65429688 C28.1914062,5.65429688 28.6311849,5.859375 28.9501953,6.26953125 C29.2692057,6.6796875 29.4287109,7.20377604 29.4287109,7.84179687 C29.4287109,8.5390625 29.2714844,9.08821615 28.9570312,9.48925781 C28.6425781,9.89029948 28.2005208,10.0908203 27.6308594,10.0908203 C27.1341146,10.0908203 26.7296549,9.94156901 26.4174805,9.64306641 C26.105306,9.3445638 25.9492188,8.92415365 25.9492188,8.38183594 L25.9492188,8.38183594 L24.7324219,8.38183594 L24.71875,8.42285156 C24.6959635,9.31608073 24.9648438,9.99283854 25.5253906,10.453125 C26.0859375,10.9134115 26.7877604,11.1435547 27.6308594,11.1435547 Z M42.2939453,11 L42.2939453,9.94726562 L37.5839844,9.94726562 L37.5839844,1.046875 L36.2373047,1.046875 L36.2373047,11 L42.2939453,11 Z M50.4013672,11 L50.4013672,9.94726562 L45.1445312,9.94726562 L45.1445312,6.38574219 L49.7041016,6.38574219 L49.7041016,5.32617188 L45.1445312,5.32617188 L45.1445312,2.10644531 L50.3261719,2.10644531 L50.3261719,1.046875 L43.7978516,1.046875 L43.7978516,11 L50.4013672,11 Z M57.7773438,11.1435547 C58.6751302,11.1435547 59.4054362,10.8826497 59.9682617,10.3608398 C60.5310872,9.83902995 60.8125,9.13378906 60.8125,8.24511719 L60.8125,8.24511719 L60.8125,1.046875 L59.4658203,1.046875 L59.4658203,8.24511719 C59.4658203,8.80566406 59.3085938,9.25341797 58.9941406,9.58837891 C58.6796875,9.92333984 58.2740885,10.0908203 57.7773438,10.0908203 C57.2076823,10.0908203 56.7667643,9.93929036 56.4545898,9.63623047 C56.1424154,9.33317057 55.9863281,8.87402344 55.9863281,8.25878906 L55.9863281,8.25878906 L54.6943359,8.25878906 L54.6806641,8.29980469 C54.6578776,9.2249349 54.9290365,9.93017578 55.4941406,10.4155273 C56.0592448,10.9008789 56.8203125,11.1435547 57.7773438,11.1435547 Z M69.7880859,11 L69.7880859,9.94726562 L64.53125,9.94726562 L64.53125,6.38574219 L69.0908203,6.38574219 L69.0908203,5.32617188 L64.53125,5.32617188 L64.53125,2.10644531 L69.7128906,2.10644531 L69.7128906,1.046875 L63.1845703,1.046875 L63.1845703,11 L69.7880859,11 Z M74.8261719,11.1435547 C75.9609375,11.1435547 76.8803711,10.8564453 77.5844727,10.2822266 C78.2885742,9.70800781 78.640625,8.87858073 78.640625,7.79394531 L78.640625,7.79394531 L78.640625,1.046875 L77.2939453,1.046875 L77.2939453,7.79394531 C77.2939453,8.54589844 77.0672201,9.11669922 76.6137695,9.50634766 C76.160319,9.89599609 75.5644531,10.0908203 74.8261719,10.0908203 C74.124349,10.0908203 73.5592448,9.89599609 73.1308594,9.50634766 C72.702474,9.11669922 72.4882812,8.54589844 72.4882812,7.79394531 L72.4882812,7.79394531 L72.4882812,1.046875 L71.1416016,1.046875 L71.1416016,7.79394531 C71.1416016,8.87402344 71.4822591,9.7023112 72.1635742,10.2788086 C72.8448893,10.855306 73.7324219,11.1435547 74.8261719,11.1435547 Z M82.1884766,11 L82.1884766,3.31640625 L82.2294922,3.30273438 L87.0214844,11 L88.3681641,11 L88.3681641,1.046875 L87.0214844,1.046875 L87.0214844,8.71679688 L86.9804688,8.73046875 L82.1884766,1.046875 L80.8417969,1.046875 L80.8417969,11 L82.1884766,11 Z M97.4326172,11 L97.4326172,9.94726562 L92.1757812,9.94726562 L92.1757812,6.38574219 L96.7353516,6.38574219 L96.7353516,5.32617188 L92.1757812,5.32617188 L92.1757812,2.10644531 L97.3574219,2.10644531 L97.3574219,1.046875 L90.8291016,1.046875 L90.8291016,11 L97.4326172,11 Z M103.837891,11 L103.837891,6.68652344 L106.339844,6.68652344 C106.86849,6.68652344 107.290039,6.85058594 107.604492,7.17871094 C107.918945,7.50683594 108.076172,7.93977865 108.076172,8.47753906 L108.076172,8.47753906 L108.076172,9.38671875 C108.076172,9.70572917 108.101237,10.015625 108.151367,10.3164062 C108.201497,10.6171875 108.31543,10.8450521 108.493164,11 L108.493164,11 L109.880859,11 L109.880859,10.8359375 C109.71224,10.6809896 109.59375,10.4804688 109.525391,10.234375 C109.457031,9.98828125 109.422852,9.71028646 109.422852,9.40039062 L109.422852,9.40039062 L109.422852,8.46386719 C109.422852,7.87597656 109.303223,7.38264974 109.063965,6.98388672 C108.824707,6.5851237 108.431641,6.296875 107.884766,6.11914062 C108.395182,5.89583333 108.783691,5.59505208 109.050293,5.21679688 C109.316895,4.83854167 109.450195,4.39420573 109.450195,3.88378906 C109.450195,2.96321615 109.163086,2.26139323 108.588867,1.77832031 C108.014648,1.2952474 107.182943,1.05371094 106.09375,1.05371094 L106.09375,1.05371094 L102.491211,1.05371094 L102.491211,11 L103.837891,11 Z M105.957031,5.62695312 L103.837891,5.62695312 L103.837891,2.10644531 L106.09375,2.10644531 C106.781901,2.10644531 107.2889,2.26025391 107.614746,2.56787109 C107.940592,2.87548828 108.103516,3.30957031 108.103516,3.87011719 C108.103516,4.4625651 107.936035,4.90348307 107.601074,5.19287109 C107.266113,5.48225911 106.718099,5.62695312 105.957031,5.62695312 L105.957031,5.62695312 Z M115.233398,11.1435547 C116.436523,11.1435547 117.415202,10.742513 118.169434,9.94042969 C118.923665,9.13834635 119.300781,8.12890625 119.300781,6.91210938 L119.300781,6.91210938 L119.300781,5.14160156 C119.300781,3.92480469 118.923665,2.91422526 118.169434,2.10986328 C117.415202,1.3055013 116.436523,0.903320312 115.233398,0.903320312 C114.071289,0.903320312 113.12679,1.30664062 112.399902,2.11328125 C111.673014,2.91992188 111.30957,3.92936198 111.30957,5.14160156 L111.30957,5.14160156 L111.30957,6.91210938 C111.30957,8.12890625 111.673014,9.13834635 112.399902,9.94042969 C113.12679,10.742513 114.071289,11.1435547 115.233398,11.1435547 Z M115.233398,10.0429688 C114.449544,10.0429688 113.824056,9.75130208 113.356934,9.16796875 C112.889811,8.58463542 112.65625,7.83268229 112.65625,6.91210938 L112.65625,6.91210938 L112.65625,5.12792969 C112.65625,4.21647135 112.889811,3.46907552 113.356934,2.88574219 C113.824056,2.30240885 114.449544,2.01074219 115.233398,2.01074219 C116.062826,2.01074219 116.723633,2.30240885 117.21582,2.88574219 C117.708008,3.46907552 117.954102,4.21647135 117.954102,5.12792969 L117.954102,5.12792969 L117.954102,6.91210938 C117.954102,7.83723958 117.709147,8.59033203 117.219238,9.17138672 C116.729329,9.75244141 116.067383,10.0429688 115.233398,10.0429688 Z M121.447266,11 L122.390625,8.43652344 L126.560547,8.43652344 L127.490234,11 L128.864258,11 L125.077148,1.046875 L123.921875,1.046875 L120.073242,11 L121.447266,11 Z M126.157227,7.30859375 L122.807617,7.30859375 L124.475586,2.77636719 L124.516602,2.77636719 L126.157227,7.30859375 Z M133.287109,11 C134.590495,11 135.636393,10.6023763 136.424805,9.80712891 C137.213216,9.01188151 137.607422,7.97851562 137.607422,6.70703125 L137.607422,6.70703125 L137.607422,5.34667969 C137.607422,4.0797526 137.213216,3.04638672 136.424805,2.24658203 C135.636393,1.44677734 134.590495,1.046875 133.287109,1.046875 L133.287109,1.046875 L130.231445,1.046875 L130.231445,11 L133.287109,11 Z M133.287109,9.94726562 L131.578125,9.94726562 L131.578125,2.10644531 L133.287109,2.10644531 C134.207682,2.10644531 134.933431,2.40950521 135.464355,3.015625 C135.99528,3.62174479 136.260742,4.39420573 136.260742,5.33300781 L136.260742,5.33300781 L136.260742,6.70703125 C136.260742,7.65494792 135.99528,8.43196615 135.464355,9.03808594 C134.933431,9.64420573 134.207682,9.94726562 133.287109,9.94726562 L133.287109,9.94726562 Z M138.523438,12.7636719 L139.548828,10.671875 L139.548828,9.48925781 L138.202148,9.48925781 L138.202148,10.6035156 L137.723633,12.7636719 L138.523438,12.7636719 Z" id="2655LEJEUNEROAD," fill="#AEB6C7" fill-rule="nonzero"></path>
    </g>
</svg>