<?xml version="1.0" encoding="UTF-8"?>
<svg width="224px" height="19px" viewBox="0 0 224 19" version="1.1" xmlns="http://www.w3.org/2000/svg" xmlns:xlink="http://www.w3.org/1999/xlink">
    <!-- Generator: Sketch 61.2 (89653) - https://sketch.com -->
    <title>Group 32</title>
    <desc>Created with Sketch.</desc>
    <defs>
        <polygon id="path-1" points="0.310394863 0.20991833 13.9062511 0.20991833 13.9062511 18.2216763 0.310394863 18.2216763"></polygon>
        <polygon id="path-3" points="0.357043381 0.20991833 13.953009 0.20991833 13.953009 18.2216763 0.357043381 18.2216763"></polygon>
        <polygon id="path-5" points="0 0.118990164 14.3151181 0.118990164 14.3151181 17.6839793 0 17.6839793"></polygon>
        <polygon id="path-7" points="0.0538280161 0.118880832 15.1380635 0.118880832 15.1380635 17.8576357 0.0538280161 17.8576357"></polygon>
    </defs>
    <g id="Style-Guide" stroke="none" stroke-width="1" fill="none" fill-rule="evenodd">
        <g id="Navbar-app-logo" transform="translate(-20.000000, -21.000000)">
            <g id="Group-32" transform="translate(20.000000, 21.000000)">
                <polygon id="Fill-1" fill="#0E1B47" points="122.937358 0.712082333 118.744458 12.0750052 114.427648 0.712082333 108.44862 0.712082333 108.44862 18.2023609 113.336145 18.2023609 113.336145 8.27898212 116.586235 18.2023609 120.77877 18.2023609 124.029225 8.27898212 124.029225 18.2023609 128.866822 18.2023609 128.866822 0.712082333"></polygon>
                <polygon id="Fill-2" fill="#0E1B47" points="136.756216 0.712082333 130.330747 18.2023609 135.465728 18.2023609 136.433685 15.2755309 137.649462 11.6034179 139.5595 5.89699218 141.445121 11.6034179 142.660898 15.2755309 143.628125 18.2023609 148.788982 18.2023609 142.387931 0.712082333"></polygon>
                <g id="Group-31" transform="translate(0.000000, 0.154633)">
                    <g id="Group-5" transform="translate(149.421033, 0.000000)">
                        <mask id="mask-2" fill="white">
                            <use xlink:href="#path-1"></use>
                        </mask>
                        <g id="Clip-4"></g>
                        <path d="M13.1620615,15.6417946 C12.6660565,16.4355483 11.9379023,17.06421 10.9786922,17.5274152 C10.019482,17.9902559 8.87003341,18.2216763 7.5303463,18.2216763 C5.49566916,18.2216763 3.82106026,17.7340535 2.50651961,16.7580791 C1.19125008,15.7824691 0.475486883,14.3928535 0.360323355,12.5899611 L5.54559765,12.5899611 C5.59479726,13.2025874 5.78503574,13.6566815 6.11594866,13.9544303 C6.44649714,14.252179 6.85212058,14.4012356 7.33172566,14.4012356 C7.76176668,14.4012356 8.0970529,14.2937254 8.33649099,14.0787049 C8.57592909,13.8636843 8.6961948,13.5575534 8.6961948,13.1603122 C8.6961948,12.631143 8.45639226,12.2218752 7.97642275,11.9325086 C7.49681768,11.6435065 6.73622817,11.3246201 5.69465424,10.9773073 C4.5863875,10.5968303 3.67236811,10.2251 2.95259606,9.86102286 C2.23318845,9.4973102 1.61290894,8.95174121 1.09212198,8.223587 C0.570970567,7.49579724 0.310394863,6.56136912 0.310394863,5.4199382 C0.310394863,4.32843578 0.591743736,3.3899988 1.15407704,2.60426283 C1.7160459,1.81852686 2.485382,1.22339382 3.46135646,0.817770381 C4.43733091,0.412875826 5.54559765,0.209881885 6.78579222,0.209881885 C8.80370505,0.209881885 10.4116211,0.685478101 11.6113627,1.63630609 C12.8103754,2.58786296 13.4681924,3.92354122 13.5837203,5.64334087 L8.34888201,5.64334087 C8.2821892,5.09704299 8.11308833,4.69214844 7.84012161,4.42756388 C7.56715489,4.16334376 7.20781553,4.03068704 6.76137464,4.03068704 C6.38053323,4.03068704 6.08278448,4.13017958 5.86776397,4.32843578 C5.6531079,4.52669198 5.54559765,4.82444072 5.54559765,5.22131756 C5.54559765,5.71768694 5.78102689,6.10654607 6.2522498,6.38716606 C6.72383716,6.66924382 7.4636535,6.98266354 8.47315657,7.33034078 C9.58105887,7.72721762 10.4987227,8.11607675 11.2265124,8.49655372 C11.9543022,8.87703069 12.5829639,9.43098184 13.112133,10.1587716 C13.6413021,10.8865614 13.9062511,11.8293716 13.9062511,12.9872024 C13.9062511,13.9631769 13.6584309,14.8473121 13.1620615,15.6417946" id="Fill-3" fill="#0E1B47" mask="url(#mask-2)"></path>
                    </g>
                    <polygon id="Fill-6" fill="#0E1B47" points="178.684377 0.482957935 178.684377 4.37810916 173.945908 4.37810916 173.945908 18.047947 169.083165 18.047947 169.083165 4.37810916 164.393895 4.37810916 164.393895 0.482957935"></polygon>
                    <polygon id="Fill-8" fill="#0E1B47" points="185.184156 4.37829138 185.184156 7.28070384 190.865435 7.28070384 190.865435 10.9772344 185.184156 10.9772344 185.184156 14.152978 191.609989 14.152978 191.609989 18.0481293 180.29663 18.0481293 180.29663 0.483140155 191.609989 0.483140155 191.609989 4.37829138"></polygon>
                    <path d="M198.730448,8.29782375 L201.136855,8.29782375 C202.492578,8.29782375 203.171168,7.68592639 203.171168,6.46213169 C203.171168,5.88303407 203.001338,5.42857547 202.662408,5.0972981 C202.323113,4.76711406 201.814717,4.60129316 201.136855,4.60129316 L198.730448,4.60129316 L198.730448,8.29782375 Z M202.773927,18.0480928 L199.226088,11.5726955 L198.730448,11.5726955 L198.730448,18.0480928 L193.842922,18.0480928 L193.842922,0.483103711 L201.558514,0.483103711 C202.963801,0.483103711 204.159169,0.727643987 205.143526,1.21490233 C206.127518,1.70288956 206.867699,2.37710642 207.363704,3.23682402 C207.860437,4.09690606 208.108258,5.06449836 208.108258,6.13960092 C208.108258,7.36376007 207.768963,8.42647161 207.090737,9.32737111 C206.412511,10.2289995 205.436901,10.8620345 204.163542,11.2253827 L208.157822,18.0480928 L202.773927,18.0480928 Z" id="Fill-10" fill="#0E1B47"></path>
                    <g id="Group-14" transform="translate(209.189446, 0.000000)">
                        <mask id="mask-4" fill="white">
                            <use xlink:href="#path-3"></use>
                        </mask>
                        <g id="Clip-13"></g>
                        <path d="M13.20871,15.6417946 C12.7127051,16.4355483 11.9845509,17.06421 11.0253407,17.5274152 C10.0661306,17.9902559 8.91668193,18.2216763 7.57699482,18.2216763 C5.54231767,18.2216763 3.86770878,17.7340535 2.55316813,16.7580791 C1.23789859,15.7824691 0.522135401,14.3928535 0.406971873,12.5899611 L5.59224617,12.5899611 C5.64181022,13.2025874 5.83168426,13.6566815 6.16259718,13.9544303 C6.49314566,14.252179 6.8987691,14.4012356 7.37837417,14.4012356 C7.8084152,14.4012356 8.14370142,14.2937254 8.38313951,14.0787049 C8.62257761,13.8636843 8.74320776,13.5575534 8.74320776,13.1603122 C8.74320776,12.631143 8.50304078,12.2218752 8.02343571,11.9325086 C7.54346619,11.6435065 6.78287669,11.3246201 5.74130276,10.9773073 C4.63303602,10.5968303 3.71901663,10.2251 2.99924458,9.86102286 C2.27983697,9.4973102 1.6599219,8.95174121 1.13877049,8.223587 C0.617983527,7.49579724 0.357043381,6.56136912 0.357043381,5.4199382 C0.357043381,4.32843578 0.638756695,3.3899988 1.20072556,2.60426283 C1.76305886,1.81852686 2.53203052,1.22339382 3.50836941,0.817770381 C4.48397943,0.412875826 5.59224617,0.209881885 6.83280518,0.209881885 C8.85035357,0.209881885 10.4586341,0.685478101 11.6580112,1.63630609 C12.8570239,2.58786296 13.5148409,3.92354122 13.6303689,5.64334087 L8.39553052,5.64334087 C8.32883772,5.09704299 8.15973684,4.69214844 7.88677013,4.42756388 C7.61416785,4.16334376 7.25446405,4.03068704 6.80802316,4.03068704 C6.42718174,4.03068704 6.129433,4.13017958 5.91441249,4.32843578 C5.69975642,4.52669198 5.59224617,4.82444072 5.59224617,5.22131756 C5.59224617,5.71768694 5.82803984,6.10654607 6.29926276,6.38716606 C6.77085012,6.66924382 7.51030201,6.98266354 8.51980509,7.33034078 C9.62770739,7.72721762 10.5457356,8.11607675 11.273161,8.49655372 C12.0013152,8.87703069 12.6296124,9.43098184 13.1587815,10.1587716 C13.6879506,10.8865614 13.9532641,11.8293716 13.9532641,12.9872024 C13.9532641,13.9631769 13.7050794,14.8473121 13.20871,15.6417946" id="Fill-12" fill="#0E1B47" mask="url(#mask-4)"></path>
                    </g>
                    <g id="Group-17" transform="translate(0.000000, 0.364442)">
                        <mask id="mask-6" fill="white">
                            <use xlink:href="#path-5"></use>
                        </mask>
                        <g id="Clip-16"></g>
                        <path d="M4.88737977,7.9337102 L7.29415173,7.9337102 C8.64987428,7.9337102 9.32846443,7.32181285 9.32846443,6.09801814 C9.32846443,5.51892053 9.15863467,5.06446192 8.81970404,4.733549 C8.48040896,4.40300052 7.97201301,4.23681517 7.29415173,4.23681517 L4.88737977,4.23681517 L4.88737977,7.9337102 Z M8.93122315,17.6839793 L5.38374916,11.2085819 L4.88737977,11.2085819 L4.88737977,17.6839793 L-0.000145776618,17.6839793 L-0.000145776618,0.118990164 L7.7158106,0.118990164 C9.12146164,0.118990164 10.3164655,0.363165999 11.3008221,0.850424344 C12.2844498,1.33841157 13.024995,2.01299287 13.521,2.87234603 C14.0173693,3.73279252 14.265554,4.70038482 14.265554,5.77512293 C14.265554,6.99964652 13.926259,8.06235806 13.2480332,8.96325756 C12.5698075,9.86525038 11.5941975,10.4975565 10.3208388,10.8612691 L14.3151181,17.6839793 L8.93122315,17.6839793 Z" id="Fill-15" fill="#0E1B47" mask="url(#mask-6)"></path>
                    </g>
                    <polygon id="Fill-18" fill="#0E1B47" points="21.0881549 4.37829138 21.0881549 7.28106828 26.7694341 7.28106828 26.7694341 10.9775989 21.0881549 10.9775989 21.0881549 14.1533425 27.5139882 14.1533425 27.5139882 18.0484937 16.2006293 18.0484937 16.2006293 0.483140155 27.5139882 0.483140155 27.5139882 4.37829138"></polygon>
                    <path d="M42.1015263,15.6417946 C41.6055214,16.4359128 40.8773672,17.0645744 39.918157,17.5274152 C38.9589469,17.9906204 37.8094982,18.2220408 36.4698111,18.2220408 C34.4354984,18.2220408 32.7608895,17.734418 31.4459844,16.7580791 C30.1310793,15.7828335 29.4153161,14.3932179 29.2997882,12.5903256 L34.4850625,12.5903256 C34.5346265,13.2025874 34.7245006,13.657046 35.0557779,13.9547947 C35.3863264,14.252179 35.7915854,14.4016001 36.2711905,14.4016001 C36.7012315,14.4016001 37.0361533,14.2940898 37.2759558,14.0787049 C37.5157583,13.8640488 37.6360241,13.5579179 37.6360241,13.1606766 C37.6360241,12.6315075 37.3958571,12.2222396 36.916252,11.932873 C36.4366469,11.6435065 35.6760574,11.3249845 34.6337546,10.9776718 C33.5254879,10.5971948 32.6118329,10.2254644 31.8924253,9.8613873 C31.1730177,9.49767464 30.5527382,8.95210565 30.0315868,8.22395144 C29.5107998,7.49616168 29.2502241,6.56136912 29.2502241,5.42030264 C29.2502241,4.32880022 29.5312086,3.39036324 30.0935419,2.60462727 C30.6558752,1.8188913 31.4248468,1.22339382 32.4008213,0.818134823 C33.3767957,0.413240267 34.4850625,0.210246327 35.7256215,0.210246327 C37.7431699,0.210246327 39.3518148,0.685842542 40.551192,1.63667053 C41.7498402,2.5882274 42.4072928,3.92354122 42.5231852,5.64334087 L37.2883468,5.64334087 C37.2223829,5.09777188 37.0529176,4.69251288 36.7799509,4.42756388 C36.5069842,4.1637082 36.1472803,4.03105148 35.7008395,4.03105148 C35.319998,4.03105148 35.0222493,4.13017958 34.8075932,4.32880022 C34.5925727,4.52705642 34.4850625,4.82480516 34.4850625,5.221682 C34.4850625,5.71805139 34.7208561,6.10691051 35.1920791,6.38789494 C35.663302,6.66924382 36.4034828,6.98339243 37.4126214,7.33034078 C38.5205237,7.72758206 39.4385519,8.11644119 40.1663417,8.49691816 C40.8941315,8.87703069 41.5224287,9.43134628 42.0519623,10.1587716 C42.5811314,10.8869258 42.8457159,11.8297361 42.8457159,12.9872024 C42.8457159,13.9635413 42.5978957,14.8476765 42.1015263,15.6417946" id="Fill-20" fill="#0E1B47"></path>
                    <g id="Group-24" transform="translate(44.826310, 0.364442)">
                        <mask id="mask-8" fill="white">
                            <use xlink:href="#path-7"></use>
                        </mask>
                        <g id="Clip-23"></g>
                        <path d="M4.91657154,0.118880832 L4.91657154,10.1417522 C4.91657154,11.134491 5.13560091,11.8994538 5.57402409,12.4366406 C6.01208282,12.9741919 6.67791753,13.2431497 7.57116375,13.2431497 C8.46440998,13.2431497 9.13789795,12.970183 9.59344988,12.424614 C10.0479085,11.8786806 10.2756845,11.1180911 10.2756845,10.1417522 L10.2756845,0.118880832 L15.1380635,0.118880832 L15.1380635,10.1417522 C15.1380635,11.7959524 14.8031418,13.2019678 14.1332982,14.3594342 C13.4634546,15.517265 12.5494352,16.389738 11.3919689,16.9768533 C10.2341381,17.5639687 8.92725074,17.8577086 7.47203565,17.8577086 C6.01645612,17.8577086 4.73034191,17.568342 3.61405746,16.9892444 C2.49777301,16.4105112 1.62493551,15.542047 0.996638291,14.3845806 C0.367976627,13.2267499 0.0538280161,11.8127167 0.0538280161,10.1417522 L0.0538280161,0.118880832 L4.91657154,0.118880832 Z" id="Fill-22" fill="#0E1B47" mask="url(#mask-8)"></path>
                    </g>
                    <polygon id="Fill-25" fill="#0E1B47" points="82.9627851 0.557704895 82.9627851 18.0483479 78.1251881 18.0483479 78.1251881 8.12460468 74.8750984 18.0483479 70.6821984 18.0483479 67.4321087 8.12460468 67.4321087 18.0483479 62.5445832 18.0483479 62.5445832 0.557704895 68.5236112 0.557704895 72.8407857 11.9206278 77.0333212 0.557704895"></polygon>
                    <polygon id="Fill-27" fill="#0E1B47" points="90.5542847 4.37829138 90.5542847 7.28106828 96.235564 7.28106828 96.235564 10.9775989 90.5542847 10.9775989 90.5542847 14.1533425 96.980118 14.1533425 96.980118 18.0484937 85.6667592 18.0484937 85.6667592 0.483140155 96.980118 0.483140155 96.980118 4.37829138"></polygon>
                    <polygon id="Fill-29" fill="#ECE4E2" points="139.559573 5.74243253 141.153276 10.4426351 146.029504 10.4426351 142.086246 13.364363 143.628198 18.0481657 139.559573 15.1432022 135.466166 18.0481657 137.033629 13.308239 133.090007 10.4426351 137.986279 10.4426351"></polygon>
                </g>
            </g>
        </g>
    </g>
</svg>