<?xml version="1.0" encoding="utf-8"?>
<!-- Generator: Adobe Illustrator 19.2.1, SVG Export Plug-In . SVG Version: 6.00 Build 0)  -->
<svg version="1.1" id="Capa_1" xmlns="http://www.w3.org/2000/svg" xmlns:xlink="http://www.w3.org/1999/xlink" x="0px" y="0px"
	 viewBox="0 0 170.5 37.8" style="enable-background:new 0 0 170.5 37.8;" xml:space="preserve">
<style type="text/css">
	.st0{fill:#FFFFFF;}
	.st1{filter:url(#Adobe_OpacityMaskFilter);}
	.st2{mask:url(#mask-2);fill:#FFFFFF;}
</style>
<title>Artboard Copy 3</title>
<desc>Created with Sketch.</desc>
<g id="Artboard-Copy-3">
	<g id="nlinecv" transform="translate(7.000000, 7.000000)">
		<path class="st0" d="M54,28.4h-5.2V17.1c0-1.7,0-2.6-0.2-3.4c-0.6-2.6-2.6-2.9-3.7-2.9c-0.6,0-1.7,0.1-2.8,1
			c-1.6,1.3-2.1,3.2-2.1,7v9.6h-5.4V6.3H40v2.6c0.1-0.1,0.5-0.7,1-1.2c2.1-2,5.1-2.1,5.9-2.1c3.3,0,5.2,1.7,5.9,2.7
			c1.4,2,1.3,4.8,1.3,7.1V28.4z M63.1,28.4h-5.4V-2.9h5.4V28.4z M72.1,2.8h-5.3v-5.4h5.3V2.8z M72.1,28.4h-5.3V6.3h5.3V28.4z
			 M95.2,28.4H90V17.1c0-1.7,0-2.6-0.2-3.4c-0.6-2.6-2.6-2.9-3.7-2.9c-0.6,0-1.7,0.1-2.8,1c-1.6,1.3-2.1,3.2-2.1,7v9.6h-5.4V6.3h5.4
			v2.6c0.1-0.1,0.5-0.7,1-1.2c2.1-2,5.1-2.1,5.9-2.1c3.3,0,5.2,1.7,5.9,2.7c1.4,2,1.3,4.8,1.3,7.1V28.4z M119.7,23.5
			c-0.4,0.5-1,1.3-2,2.3c-1.2,1.2-4.2,3.3-8.8,3.3c-1.4,0-4.9-0.2-7.9-3c-2.5-2.4-3.5-5.5-3.5-8.9c0-1.9,0.3-3.6,1-5.3
			c1-2.2,3.7-6.3,10.2-6.3c5,0,7.6,2.6,8.7,4.3c1,1.6,2,4.3,2.2,8.6h-16.4c0.1,0.7,0.3,2,1.4,3.4c0.8,0.9,2.1,2.1,4.8,2.1
			c2.7,0,4.3-1.3,5.1-2c0.2-0.2,0.4-0.5,0.8-1L119.7,23.5z M113.7,14.5c0,0-0.1-1.1-0.4-1.8c-0.5-1.1-1.6-2.8-4.5-2.8
			c-1.2,0-1.8,0.2-2.2,0.4c-2.5,1-3.1,3.5-3.2,4.3H113.7z M142.9,13.4l-2.6,0.6c-0.5-3.4-2.2-4.9-5.4-4.9c-4.7,0-8.2,4.8-8.2,11
			c0,4.2,2.3,6.8,5.9,6.8c3,0,5.4-1.9,6.6-5.1l2.6,0.4c-1.8,4.5-5.1,6.8-9.4,6.8c-5.3,0-8.4-3.2-8.4-8.7c0-7.5,4.8-13.3,11.1-13.3
			C139.5,7,142.5,9.4,142.9,13.4z M163.4,7.6l-12.7,20.9h-3l-2-20.9h2.8l1.5,17.9l10.5-17.9H163.4z"/>
		<g id="Group-5" transform="translate(0.540000, 0.617978)">
			<g id="Clip-4">
			</g>
			<defs>
				<filter id="Adobe_OpacityMaskFilter" filterUnits="userSpaceOnUse" x="-7" y="-7" width="37" height="37.2">
					<feColorMatrix  type="matrix" values="1 0 0 0 0  0 1 0 0 0  0 0 1 0 0  0 0 0 1 0"/>
				</filter>
			</defs>
			<mask maskUnits="userSpaceOnUse" x="-7" y="-7" width="37" height="37.2" id="mask-2">
				<g class="st1">
					<polygon id="path-1" class="st0" points="-7,-7 11.5,-7 30,-7 30,30.2 -7,30.2 					"/>
				</g>
			</mask>
			<path id="Fill-3" class="st2" d="M11.5,24.8c-7.3,0-13.2-5.9-13.2-13.2c0-7.3,5.9-13.2,13.2-13.2c3.6,0,6.9,1.5,9.3,3.9l-9.4,9.4
				L7,7.3l-4.6,4.6l9.1,9.2L24.2,8.3c0.3,1.1,0.4,2.2,0.4,3.3C24.7,18.9,18.8,24.8,11.5,24.8 M11.5-7C1.3-7-7,1.3-7,11.6
				s8.3,18.6,18.5,18.6S30,21.9,30,11.6S21.7-7,11.5-7"/>
		</g>
	</g>
</g>
</svg>
