<svg width="292" height="13" viewBox="0 0 292 13" fill="none" xmlns="http://www.w3.org/2000/svg">
<path d="M8.39844 10.8125V12H0.953125V10.9609L4.67969 6.8125C5.13802 6.30208 5.49219 5.86979 5.74219 5.51562C5.9974 5.15625 6.17448 4.83594 6.27344 4.55469C6.3776 4.26823 6.42969 3.97656 6.42969 3.67969C6.42969 3.30469 6.35156 2.96615 6.19531 2.66406C6.04427 2.35677 5.82031 2.11198 5.52344 1.92969C5.22656 1.7474 4.86719 1.65625 4.44531 1.65625C3.9401 1.65625 3.51823 1.75521 3.17969 1.95312C2.84635 2.14583 2.59635 2.41667 2.42969 2.76562C2.26302 3.11458 2.17969 3.51562 2.17969 3.96875H0.734375C0.734375 3.32812 0.875 2.74219 1.15625 2.21094C1.4375 1.67969 1.85417 1.25781 2.40625 0.945312C2.95833 0.627604 3.63802 0.46875 4.44531 0.46875C5.16406 0.46875 5.77865 0.596354 6.28906 0.851562C6.79948 1.10156 7.1901 1.45573 7.46094 1.91406C7.73698 2.36719 7.875 2.89844 7.875 3.50781C7.875 3.84115 7.81771 4.17969 7.70312 4.52344C7.59375 4.86198 7.4401 5.20052 7.24219 5.53906C7.04948 5.8776 6.82292 6.21094 6.5625 6.53906C6.30729 6.86719 6.03385 7.1901 5.74219 7.50781L2.69531 10.8125H8.39844ZM11.7734 6.58594L10.6172 6.28906L11.1875 0.625H17.0234V1.96094H12.4141L12.0703 5.05469C12.2786 4.9349 12.5417 4.82292 12.8594 4.71875C13.1823 4.61458 13.5521 4.5625 13.9688 4.5625C14.4948 4.5625 14.9661 4.65365 15.3828 4.83594C15.7995 5.01302 16.1536 5.26823 16.4453 5.60156C16.7422 5.9349 16.9688 6.33594 17.125 6.80469C17.2812 7.27344 17.3594 7.79688 17.3594 8.375C17.3594 8.92188 17.2839 9.42448 17.1328 9.88281C16.987 10.3411 16.7656 10.7422 16.4688 11.0859C16.1719 11.4245 15.7969 11.6875 15.3438 11.875C14.8958 12.0625 14.3672 12.1562 13.7578 12.1562C13.2995 12.1562 12.8646 12.0938 12.4531 11.9688C12.0469 11.8385 11.6823 11.6432 11.3594 11.3828C11.0417 11.1172 10.7812 10.7891 10.5781 10.3984C10.3802 10.0026 10.2552 9.53906 10.2031 9.00781H11.5781C11.6406 9.4349 11.7656 9.79427 11.9531 10.0859C12.1406 10.3776 12.3854 10.599 12.6875 10.75C12.9948 10.8958 13.3516 10.9688 13.7578 10.9688C14.1016 10.9688 14.4062 10.9089 14.6719 10.7891C14.9375 10.6693 15.1615 10.4974 15.3438 10.2734C15.526 10.0495 15.6641 9.77865 15.7578 9.46094C15.8568 9.14323 15.9062 8.78646 15.9062 8.39062C15.9062 8.03125 15.8568 7.69792 15.7578 7.39062C15.6589 7.08333 15.5104 6.8151 15.3125 6.58594C15.1198 6.35677 14.8828 6.17969 14.6016 6.05469C14.3203 5.92448 13.9974 5.85938 13.6328 5.85938C13.1484 5.85938 12.7812 5.92448 12.5312 6.05469C12.2865 6.1849 12.0339 6.36198 11.7734 6.58594ZM20.7734 6.58594L19.6172 6.28906L20.1875 0.625H26.0234V1.96094H21.4141L21.0703 5.05469C21.2786 4.9349 21.5417 4.82292 21.8594 4.71875C22.1823 4.61458 22.5521 4.5625 22.9688 4.5625C23.4948 4.5625 23.9661 4.65365 24.3828 4.83594C24.7995 5.01302 25.1536 5.26823 25.4453 5.60156C25.7422 5.9349 25.9688 6.33594 26.125 6.80469C26.2812 7.27344 26.3594 7.79688 26.3594 8.375C26.3594 8.92188 26.2839 9.42448 26.1328 9.88281C25.987 10.3411 25.7656 10.7422 25.4688 11.0859C25.1719 11.4245 24.7969 11.6875 24.3438 11.875C23.8958 12.0625 23.3672 12.1562 22.7578 12.1562C22.2995 12.1562 21.8646 12.0938 21.4531 11.9688C21.0469 11.8385 20.6823 11.6432 20.3594 11.3828C20.0417 11.1172 19.7812 10.7891 19.5781 10.3984C19.3802 10.0026 19.2552 9.53906 19.2031 9.00781H20.5781C20.6406 9.4349 20.7656 9.79427 20.9531 10.0859C21.1406 10.3776 21.3854 10.599 21.6875 10.75C21.9948 10.8958 22.3516 10.9688 22.7578 10.9688C23.1016 10.9688 23.4062 10.9089 23.6719 10.7891C23.9375 10.6693 24.1615 10.4974 24.3438 10.2734C24.526 10.0495 24.6641 9.77865 24.7578 9.46094C24.8568 9.14323 24.9062 8.78646 24.9062 8.39062C24.9062 8.03125 24.8568 7.69792 24.7578 7.39062C24.6589 7.08333 24.5104 6.8151 24.3125 6.58594C24.1198 6.35677 23.8828 6.17969 23.6016 6.05469C23.3203 5.92448 22.9974 5.85938 22.6328 5.85938C22.1484 5.85938 21.7812 5.92448 21.5312 6.05469C21.2865 6.1849 21.0339 6.36198 20.7734 6.58594ZM36.5 1.63281L32.7344 12H31.1953L35.5312 0.625H36.5234L36.5 1.63281ZM39.6562 12L35.8828 1.63281L35.8594 0.625H36.8516L41.2031 12H39.6562ZM39.4609 7.78906V9.02344H33.0703V7.78906H39.4609ZM44.0781 0V12H42.625V0H44.0781ZM47.8438 0V12H46.3984V0H47.8438ZM47.5 7.45312L46.8984 7.42969C46.9036 6.85156 46.9896 6.31771 47.1562 5.82812C47.3229 5.33333 47.5573 4.90365 47.8594 4.53906C48.1615 4.17448 48.5208 3.89323 48.9375 3.69531C49.3594 3.49219 49.8255 3.39062 50.3359 3.39062C50.7526 3.39062 51.1276 3.44792 51.4609 3.5625C51.7943 3.67188 52.0781 3.84896 52.3125 4.09375C52.5521 4.33854 52.7344 4.65625 52.8594 5.04688C52.9844 5.43229 53.0469 5.90365 53.0469 6.46094V12H51.5938V6.44531C51.5938 6.0026 51.5286 5.64844 51.3984 5.38281C51.2682 5.11198 51.0781 4.91667 50.8281 4.79688C50.5781 4.67188 50.2708 4.60938 49.9062 4.60938C49.5469 4.60938 49.2188 4.6849 48.9219 4.83594C48.6302 4.98698 48.3776 5.19531 48.1641 5.46094C47.9557 5.72656 47.7917 6.03125 47.6719 6.375C47.5573 6.71354 47.5 7.07292 47.5 7.45312ZM60.1953 10.5547V6.20312C60.1953 5.86979 60.1276 5.58073 59.9922 5.33594C59.862 5.08594 59.6641 4.89323 59.3984 4.75781C59.1328 4.6224 58.8047 4.55469 58.4141 4.55469C58.0495 4.55469 57.7292 4.61719 57.4531 4.74219C57.1823 4.86719 56.9688 5.03125 56.8125 5.23438C56.6615 5.4375 56.5859 5.65625 56.5859 5.89062H55.1406C55.1406 5.58854 55.2188 5.28906 55.375 4.99219C55.5312 4.69531 55.7552 4.42708 56.0469 4.1875C56.3438 3.94271 56.6979 3.75 57.1094 3.60938C57.526 3.46354 57.9896 3.39062 58.5 3.39062C59.1146 3.39062 59.6562 3.49479 60.125 3.70312C60.599 3.91146 60.9688 4.22656 61.2344 4.64844C61.5052 5.0651 61.6406 5.58854 61.6406 6.21875V10.1562C61.6406 10.4375 61.6641 10.737 61.7109 11.0547C61.763 11.3724 61.8385 11.6458 61.9375 11.875V12H60.4297C60.3568 11.8333 60.2995 11.612 60.2578 11.3359C60.2161 11.0547 60.1953 10.7943 60.1953 10.5547ZM60.4453 6.875L60.4609 7.89062H59C58.5885 7.89062 58.2214 7.92448 57.8984 7.99219C57.5755 8.05469 57.3047 8.15104 57.0859 8.28125C56.8672 8.41146 56.7005 8.57552 56.5859 8.77344C56.4714 8.96615 56.4141 9.19271 56.4141 9.45312C56.4141 9.71875 56.474 9.96094 56.5938 10.1797C56.7135 10.3984 56.8932 10.5729 57.1328 10.7031C57.3776 10.8281 57.6771 10.8906 58.0312 10.8906C58.474 10.8906 58.8646 10.7969 59.2031 10.6094C59.5417 10.4219 59.8099 10.1927 60.0078 9.92188C60.2109 9.65104 60.3203 9.38802 60.3359 9.13281L60.9531 9.82812C60.9167 10.0469 60.8177 10.2891 60.6562 10.5547C60.4948 10.8203 60.2786 11.0755 60.0078 11.3203C59.7422 11.5599 59.4245 11.7604 59.0547 11.9219C58.6901 12.0781 58.2786 12.1562 57.8203 12.1562C57.2474 12.1562 56.7448 12.0443 56.3125 11.8203C55.8854 11.5964 55.5521 11.2969 55.3125 10.9219C55.0781 10.5417 54.9609 10.1172 54.9609 9.64844C54.9609 9.19531 55.0495 8.79688 55.2266 8.45312C55.4036 8.10417 55.6589 7.8151 55.9922 7.58594C56.3255 7.35156 56.7266 7.17448 57.1953 7.05469C57.6641 6.9349 58.1875 6.875 58.7656 6.875H60.4453ZM65.3516 5.22656V12H63.8984V3.54688H65.2734L65.3516 5.22656ZM65.0547 7.45312L64.3828 7.42969C64.388 6.85156 64.4635 6.31771 64.6094 5.82812C64.7552 5.33333 64.9714 4.90365 65.2578 4.53906C65.5443 4.17448 65.901 3.89323 66.3281 3.69531C66.7552 3.49219 67.25 3.39062 67.8125 3.39062C68.2083 3.39062 68.5729 3.44792 68.9062 3.5625C69.2396 3.67188 69.5286 3.84635 69.7734 4.08594C70.0182 4.32552 70.2083 4.63281 70.3438 5.00781C70.4792 5.38281 70.5469 5.83594 70.5469 6.36719V12H69.1016V6.4375C69.1016 5.99479 69.026 5.64062 68.875 5.375C68.7292 5.10938 68.5208 4.91667 68.25 4.79688C67.9792 4.67188 67.6615 4.60938 67.2969 4.60938C66.8698 4.60938 66.513 4.6849 66.2266 4.83594C65.9401 4.98698 65.7109 5.19531 65.5391 5.46094C65.3672 5.72656 65.2422 6.03125 65.1641 6.375C65.0911 6.71354 65.0547 7.07292 65.0547 7.45312ZM70.5312 6.65625L69.5625 6.95312C69.5677 6.48958 69.6432 6.04427 69.7891 5.61719C69.9401 5.1901 70.1562 4.8099 70.4375 4.47656C70.724 4.14323 71.0755 3.88021 71.4922 3.6875C71.9089 3.48958 72.3854 3.39062 72.9219 3.39062C73.375 3.39062 73.776 3.45052 74.125 3.57031C74.4792 3.6901 74.776 3.875 75.0156 4.125C75.2604 4.36979 75.4453 4.6849 75.5703 5.07031C75.6953 5.45573 75.7578 5.91406 75.7578 6.44531V12H74.3047V6.42969C74.3047 5.95573 74.2292 5.58854 74.0781 5.32812C73.9323 5.0625 73.724 4.8776 73.4531 4.77344C73.1875 4.66406 72.8698 4.60938 72.5 4.60938C72.1823 4.60938 71.901 4.66406 71.6562 4.77344C71.4115 4.88281 71.2057 5.03385 71.0391 5.22656C70.8724 5.41406 70.7448 5.63021 70.6562 5.875C70.5729 6.11979 70.5312 6.38021 70.5312 6.65625ZM77.9375 0H79.3906V10.3594L79.2656 12H77.9375V0ZM85.1016 7.70312V7.86719C85.1016 8.48177 85.0286 9.05208 84.8828 9.57812C84.737 10.099 84.5234 10.5521 84.2422 10.9375C83.9609 11.3229 83.6172 11.6224 83.2109 11.8359C82.8047 12.0495 82.3385 12.1562 81.8125 12.1562C81.276 12.1562 80.8047 12.0651 80.3984 11.8828C79.9974 11.6953 79.6589 11.4271 79.3828 11.0781C79.1068 10.7292 78.8854 10.3073 78.7188 9.8125C78.5573 9.31771 78.4453 8.76042 78.3828 8.14062V7.42188C78.4453 6.79688 78.5573 6.23698 78.7188 5.74219C78.8854 5.2474 79.1068 4.82552 79.3828 4.47656C79.6589 4.1224 79.9974 3.85417 80.3984 3.67188C80.7995 3.48438 81.2656 3.39062 81.7969 3.39062C82.3281 3.39062 82.7995 3.49479 83.2109 3.70312C83.6224 3.90625 83.9661 4.19792 84.2422 4.57812C84.5234 4.95833 84.737 5.41406 84.8828 5.94531C85.0286 6.47135 85.1016 7.05729 85.1016 7.70312ZM83.6484 7.86719V7.70312C83.6484 7.28125 83.6094 6.88542 83.5312 6.51562C83.4531 6.14062 83.3281 5.8125 83.1562 5.53125C82.9844 5.24479 82.7578 5.02083 82.4766 4.85938C82.1953 4.69271 81.849 4.60938 81.4375 4.60938C81.0729 4.60938 80.7552 4.67188 80.4844 4.79688C80.2188 4.92188 79.9922 5.09115 79.8047 5.30469C79.6172 5.51302 79.4635 5.7526 79.3438 6.02344C79.2292 6.28906 79.1432 6.5651 79.0859 6.85156V8.73438C79.1693 9.09896 79.3047 9.45052 79.4922 9.78906C79.6849 10.1224 79.9401 10.3958 80.2578 10.6094C80.5807 10.8229 80.9792 10.9297 81.4531 10.9297C81.8438 10.9297 82.1771 10.8516 82.4531 10.6953C82.7344 10.5339 82.9609 10.3125 83.1328 10.0312C83.3099 9.75 83.4401 9.42448 83.5234 9.05469C83.6068 8.6849 83.6484 8.28906 83.6484 7.86719ZM88.375 4.875V12H86.9297V3.54688H88.3359L88.375 4.875ZM91.0156 3.5L91.0078 4.84375C90.888 4.81771 90.7734 4.80208 90.6641 4.79688C90.5599 4.78646 90.4401 4.78125 90.3047 4.78125C89.9714 4.78125 89.6771 4.83333 89.4219 4.9375C89.1667 5.04167 88.9505 5.1875 88.7734 5.375C88.5964 5.5625 88.4557 5.78646 88.3516 6.04688C88.2526 6.30208 88.1875 6.58333 88.1562 6.89062L87.75 7.125C87.75 6.61458 87.7995 6.13542 87.8984 5.6875C88.0026 5.23958 88.1615 4.84375 88.375 4.5C88.5885 4.15104 88.8594 3.88021 89.1875 3.6875C89.5208 3.48958 89.9167 3.39062 90.375 3.39062C90.4792 3.39062 90.599 3.40365 90.7344 3.42969C90.8698 3.45052 90.9635 3.47396 91.0156 3.5ZM97.0234 10.5547V6.20312C97.0234 5.86979 96.9557 5.58073 96.8203 5.33594C96.6901 5.08594 96.4922 4.89323 96.2266 4.75781C95.9609 4.6224 95.6328 4.55469 95.2422 4.55469C94.8776 4.55469 94.5573 4.61719 94.2812 4.74219C94.0104 4.86719 93.7969 5.03125 93.6406 5.23438C93.4896 5.4375 93.4141 5.65625 93.4141 5.89062H91.9688C91.9688 5.58854 92.0469 5.28906 92.2031 4.99219C92.3594 4.69531 92.5833 4.42708 92.875 4.1875C93.1719 3.94271 93.526 3.75 93.9375 3.60938C94.3542 3.46354 94.8177 3.39062 95.3281 3.39062C95.9427 3.39062 96.4844 3.49479 96.9531 3.70312C97.4271 3.91146 97.7969 4.22656 98.0625 4.64844C98.3333 5.0651 98.4688 5.58854 98.4688 6.21875V10.1562C98.4688 10.4375 98.4922 10.737 98.5391 11.0547C98.5911 11.3724 98.6667 11.6458 98.7656 11.875V12H97.2578C97.1849 11.8333 97.1276 11.612 97.0859 11.3359C97.0443 11.0547 97.0234 10.7943 97.0234 10.5547ZM97.2734 6.875L97.2891 7.89062H95.8281C95.4167 7.89062 95.0495 7.92448 94.7266 7.99219C94.4036 8.05469 94.1328 8.15104 93.9141 8.28125C93.6953 8.41146 93.5286 8.57552 93.4141 8.77344C93.2995 8.96615 93.2422 9.19271 93.2422 9.45312C93.2422 9.71875 93.3021 9.96094 93.4219 10.1797C93.5417 10.3984 93.7214 10.5729 93.9609 10.7031C94.2057 10.8281 94.5052 10.8906 94.8594 10.8906C95.3021 10.8906 95.6927 10.7969 96.0312 10.6094C96.3698 10.4219 96.638 10.1927 96.8359 9.92188C97.0391 9.65104 97.1484 9.38802 97.1641 9.13281L97.7812 9.82812C97.7448 10.0469 97.6458 10.2891 97.4844 10.5547C97.3229 10.8203 97.1068 11.0755 96.8359 11.3203C96.5703 11.5599 96.2526 11.7604 95.8828 11.9219C95.5182 12.0781 95.1068 12.1562 94.6484 12.1562C94.0755 12.1562 93.5729 12.0443 93.1406 11.8203C92.7135 11.5964 92.3802 11.2969 92.1406 10.9219C91.9062 10.5417 91.7891 10.1172 91.7891 9.64844C91.7891 9.19531 91.8776 8.79688 92.0547 8.45312C92.2318 8.10417 92.487 7.8151 92.8203 7.58594C93.1536 7.35156 93.5547 7.17448 94.0234 7.05469C94.4922 6.9349 95.0156 6.875 95.5938 6.875H97.2734ZM111.797 8.38281H113.297C113.219 9.10156 113.013 9.74479 112.68 10.3125C112.346 10.8802 111.875 11.3307 111.266 11.6641C110.656 11.9922 109.896 12.1562 108.984 12.1562C108.318 12.1562 107.711 12.0312 107.164 11.7812C106.622 11.5312 106.156 11.1771 105.766 10.7188C105.375 10.2552 105.073 9.70052 104.859 9.05469C104.651 8.40365 104.547 7.67969 104.547 6.88281V5.75C104.547 4.95312 104.651 4.23177 104.859 3.58594C105.073 2.9349 105.378 2.3776 105.773 1.91406C106.174 1.45052 106.656 1.09375 107.219 0.84375C107.781 0.59375 108.414 0.46875 109.117 0.46875C109.977 0.46875 110.703 0.630208 111.297 0.953125C111.891 1.27604 112.352 1.72396 112.68 2.29688C113.013 2.86458 113.219 3.52344 113.297 4.27344H111.797C111.724 3.74219 111.589 3.28646 111.391 2.90625C111.193 2.52083 110.911 2.22396 110.547 2.01562C110.182 1.80729 109.706 1.70312 109.117 1.70312C108.612 1.70312 108.167 1.79948 107.781 1.99219C107.401 2.1849 107.081 2.45833 106.82 2.8125C106.565 3.16667 106.372 3.59115 106.242 4.08594C106.112 4.58073 106.047 5.13021 106.047 5.73438V6.88281C106.047 7.4401 106.104 7.96354 106.219 8.45312C106.339 8.94271 106.518 9.3724 106.758 9.74219C106.997 10.112 107.302 10.4036 107.672 10.6172C108.042 10.8255 108.479 10.9297 108.984 10.9297C109.625 10.9297 110.135 10.8281 110.516 10.625C110.896 10.4219 111.182 10.1302 111.375 9.75C111.573 9.36979 111.714 8.91406 111.797 8.38281ZM116.703 3.54688V12H115.25V3.54688H116.703ZM115.141 1.30469C115.141 1.07031 115.211 0.872396 115.352 0.710938C115.497 0.549479 115.711 0.46875 115.992 0.46875C116.268 0.46875 116.479 0.549479 116.625 0.710938C116.776 0.872396 116.852 1.07031 116.852 1.30469C116.852 1.52865 116.776 1.72135 116.625 1.88281C116.479 2.03906 116.268 2.11719 115.992 2.11719C115.711 2.11719 115.497 2.03906 115.352 1.88281C115.211 1.72135 115.141 1.52865 115.141 1.30469ZM120.469 4.875V12H119.023V3.54688H120.43L120.469 4.875ZM123.109 3.5L123.102 4.84375C122.982 4.81771 122.867 4.80208 122.758 4.79688C122.654 4.78646 122.534 4.78125 122.398 4.78125C122.065 4.78125 121.771 4.83333 121.516 4.9375C121.26 5.04167 121.044 5.1875 120.867 5.375C120.69 5.5625 120.549 5.78646 120.445 6.04688C120.346 6.30208 120.281 6.58333 120.25 6.89062L119.844 7.125C119.844 6.61458 119.893 6.13542 119.992 5.6875C120.096 5.23958 120.255 4.84375 120.469 4.5C120.682 4.15104 120.953 3.88021 121.281 3.6875C121.615 3.48958 122.01 3.39062 122.469 3.39062C122.573 3.39062 122.693 3.40365 122.828 3.42969C122.964 3.45052 123.057 3.47396 123.109 3.5ZM127.672 10.9688C128.016 10.9688 128.333 10.8984 128.625 10.7578C128.917 10.6172 129.156 10.4245 129.344 10.1797C129.531 9.92969 129.638 9.64583 129.664 9.32812H131.039C131.013 9.82812 130.844 10.2943 130.531 10.7266C130.224 11.1536 129.82 11.5 129.32 11.7656C128.82 12.026 128.271 12.1562 127.672 12.1562C127.036 12.1562 126.482 12.0443 126.008 11.8203C125.539 11.5964 125.148 11.2891 124.836 10.8984C124.529 10.5078 124.297 10.0599 124.141 9.55469C123.99 9.04427 123.914 8.50521 123.914 7.9375V7.60938C123.914 7.04167 123.99 6.50521 124.141 6C124.297 5.48958 124.529 5.03906 124.836 4.64844C125.148 4.25781 125.539 3.95052 126.008 3.72656C126.482 3.5026 127.036 3.39062 127.672 3.39062C128.333 3.39062 128.911 3.52604 129.406 3.79688C129.901 4.0625 130.289 4.42708 130.57 4.89062C130.857 5.34896 131.013 5.86979 131.039 6.45312H129.664C129.638 6.10417 129.539 5.78906 129.367 5.50781C129.201 5.22656 128.971 5.0026 128.68 4.83594C128.393 4.66406 128.057 4.57812 127.672 4.57812C127.229 4.57812 126.857 4.66667 126.555 4.84375C126.258 5.01562 126.021 5.25 125.844 5.54688C125.672 5.83854 125.547 6.16406 125.469 6.52344C125.396 6.8776 125.359 7.23958 125.359 7.60938V7.9375C125.359 8.30729 125.396 8.67188 125.469 9.03125C125.542 9.39062 125.664 9.71615 125.836 10.0078C126.013 10.2995 126.25 10.5339 126.547 10.7109C126.849 10.8828 127.224 10.9688 127.672 10.9688ZM134.234 0V12H132.781V0H134.234ZM140.062 12.1562C139.474 12.1562 138.94 12.0573 138.461 11.8594C137.987 11.6562 137.578 11.3724 137.234 11.0078C136.896 10.6432 136.635 10.2109 136.453 9.71094C136.271 9.21094 136.18 8.66406 136.18 8.07031V7.74219C136.18 7.05469 136.281 6.44271 136.484 5.90625C136.688 5.36458 136.964 4.90625 137.312 4.53125C137.661 4.15625 138.057 3.8724 138.5 3.67969C138.943 3.48698 139.401 3.39062 139.875 3.39062C140.479 3.39062 141 3.49479 141.438 3.70312C141.88 3.91146 142.242 4.20312 142.523 4.57812C142.805 4.94792 143.013 5.38542 143.148 5.89062C143.284 6.39062 143.352 6.9375 143.352 7.53125V8.17969H137.039V7H141.906V6.89062C141.885 6.51562 141.807 6.15104 141.672 5.79688C141.542 5.44271 141.333 5.15104 141.047 4.92188C140.76 4.69271 140.37 4.57812 139.875 4.57812C139.547 4.57812 139.245 4.64844 138.969 4.78906C138.693 4.92448 138.456 5.1276 138.258 5.39844C138.06 5.66927 137.906 6 137.797 6.39062C137.688 6.78125 137.633 7.23177 137.633 7.74219V8.07031C137.633 8.47135 137.688 8.84896 137.797 9.20312C137.911 9.55208 138.076 9.85938 138.289 10.125C138.508 10.3906 138.771 10.599 139.078 10.75C139.391 10.901 139.745 10.9766 140.141 10.9766C140.651 10.9766 141.083 10.8724 141.438 10.6641C141.792 10.4557 142.102 10.1771 142.367 9.82812L143.242 10.5234C143.06 10.7995 142.828 11.0625 142.547 11.3125C142.266 11.5625 141.919 11.7656 141.508 11.9219C141.102 12.0781 140.62 12.1562 140.062 12.1562ZM150.68 6.58594L149.523 6.28906L150.094 0.625H155.93V1.96094H151.32L150.977 5.05469C151.185 4.9349 151.448 4.82292 151.766 4.71875C152.089 4.61458 152.458 4.5625 152.875 4.5625C153.401 4.5625 153.872 4.65365 154.289 4.83594C154.706 5.01302 155.06 5.26823 155.352 5.60156C155.648 5.9349 155.875 6.33594 156.031 6.80469C156.188 7.27344 156.266 7.79688 156.266 8.375C156.266 8.92188 156.19 9.42448 156.039 9.88281C155.893 10.3411 155.672 10.7422 155.375 11.0859C155.078 11.4245 154.703 11.6875 154.25 11.875C153.802 12.0625 153.273 12.1562 152.664 12.1562C152.206 12.1562 151.771 12.0938 151.359 11.9688C150.953 11.8385 150.589 11.6432 150.266 11.3828C149.948 11.1172 149.688 10.7891 149.484 10.3984C149.286 10.0026 149.161 9.53906 149.109 9.00781H150.484C150.547 9.4349 150.672 9.79427 150.859 10.0859C151.047 10.3776 151.292 10.599 151.594 10.75C151.901 10.8958 152.258 10.9688 152.664 10.9688C153.008 10.9688 153.312 10.9089 153.578 10.7891C153.844 10.6693 154.068 10.4974 154.25 10.2734C154.432 10.0495 154.57 9.77865 154.664 9.46094C154.763 9.14323 154.812 8.78646 154.812 8.39062C154.812 8.03125 154.763 7.69792 154.664 7.39062C154.565 7.08333 154.417 6.8151 154.219 6.58594C154.026 6.35677 153.789 6.17969 153.508 6.05469C153.227 5.92448 152.904 5.85938 152.539 5.85938C152.055 5.85938 151.688 5.92448 151.438 6.05469C151.193 6.1849 150.94 6.36198 150.68 6.58594ZM164.992 5.40625V7.14062C164.992 8.07292 164.909 8.85938 164.742 9.5C164.576 10.1406 164.336 10.6562 164.023 11.0469C163.711 11.4375 163.333 11.7214 162.891 11.8984C162.453 12.0703 161.958 12.1562 161.406 12.1562C160.969 12.1562 160.565 12.1016 160.195 11.9922C159.826 11.8828 159.492 11.7083 159.195 11.4688C158.904 11.224 158.654 10.9062 158.445 10.5156C158.237 10.125 158.078 9.65104 157.969 9.09375C157.859 8.53646 157.805 7.88542 157.805 7.14062V5.40625C157.805 4.47396 157.888 3.69271 158.055 3.0625C158.227 2.43229 158.469 1.92708 158.781 1.54688C159.094 1.16146 159.469 0.885417 159.906 0.71875C160.349 0.552083 160.844 0.46875 161.391 0.46875C161.833 0.46875 162.24 0.523438 162.609 0.632812C162.984 0.736979 163.318 0.90625 163.609 1.14062C163.901 1.36979 164.148 1.67708 164.352 2.0625C164.56 2.44271 164.719 2.90885 164.828 3.46094C164.938 4.01302 164.992 4.66146 164.992 5.40625ZM163.539 7.375V5.16406C163.539 4.65365 163.508 4.20573 163.445 3.82031C163.388 3.42969 163.302 3.09635 163.188 2.82031C163.073 2.54427 162.927 2.32031 162.75 2.14844C162.578 1.97656 162.378 1.85156 162.148 1.77344C161.924 1.6901 161.672 1.64844 161.391 1.64844C161.047 1.64844 160.742 1.71354 160.477 1.84375C160.211 1.96875 159.987 2.16927 159.805 2.44531C159.628 2.72135 159.492 3.08333 159.398 3.53125C159.305 3.97917 159.258 4.52344 159.258 5.16406V7.375C159.258 7.88542 159.286 8.33594 159.344 8.72656C159.406 9.11719 159.497 9.45573 159.617 9.74219C159.737 10.0234 159.883 10.2552 160.055 10.4375C160.227 10.6198 160.424 10.7552 160.648 10.8438C160.878 10.9271 161.13 10.9688 161.406 10.9688C161.76 10.9688 162.07 10.901 162.336 10.7656C162.602 10.6302 162.823 10.4193 163 10.1328C163.182 9.84115 163.318 9.46875 163.406 9.01562C163.495 8.55729 163.539 8.01042 163.539 7.375ZM173.992 5.40625V7.14062C173.992 8.07292 173.909 8.85938 173.742 9.5C173.576 10.1406 173.336 10.6562 173.023 11.0469C172.711 11.4375 172.333 11.7214 171.891 11.8984C171.453 12.0703 170.958 12.1562 170.406 12.1562C169.969 12.1562 169.565 12.1016 169.195 11.9922C168.826 11.8828 168.492 11.7083 168.195 11.4688C167.904 11.224 167.654 10.9062 167.445 10.5156C167.237 10.125 167.078 9.65104 166.969 9.09375C166.859 8.53646 166.805 7.88542 166.805 7.14062V5.40625C166.805 4.47396 166.888 3.69271 167.055 3.0625C167.227 2.43229 167.469 1.92708 167.781 1.54688C168.094 1.16146 168.469 0.885417 168.906 0.71875C169.349 0.552083 169.844 0.46875 170.391 0.46875C170.833 0.46875 171.24 0.523438 171.609 0.632812C171.984 0.736979 172.318 0.90625 172.609 1.14062C172.901 1.36979 173.148 1.67708 173.352 2.0625C173.56 2.44271 173.719 2.90885 173.828 3.46094C173.938 4.01302 173.992 4.66146 173.992 5.40625ZM172.539 7.375V5.16406C172.539 4.65365 172.508 4.20573 172.445 3.82031C172.388 3.42969 172.302 3.09635 172.188 2.82031C172.073 2.54427 171.927 2.32031 171.75 2.14844C171.578 1.97656 171.378 1.85156 171.148 1.77344C170.924 1.6901 170.672 1.64844 170.391 1.64844C170.047 1.64844 169.742 1.71354 169.477 1.84375C169.211 1.96875 168.987 2.16927 168.805 2.44531C168.628 2.72135 168.492 3.08333 168.398 3.53125C168.305 3.97917 168.258 4.52344 168.258 5.16406V7.375C168.258 7.88542 168.286 8.33594 168.344 8.72656C168.406 9.11719 168.497 9.45573 168.617 9.74219C168.737 10.0234 168.883 10.2552 169.055 10.4375C169.227 10.6198 169.424 10.7552 169.648 10.8438C169.878 10.9271 170.13 10.9688 170.406 10.9688C170.76 10.9688 171.07 10.901 171.336 10.7656C171.602 10.6302 171.823 10.4193 172 10.1328C172.182 9.84115 172.318 9.46875 172.406 9.01562C172.495 8.55729 172.539 8.01042 172.539 7.375ZM187.062 8.38281H188.562C188.484 9.10156 188.279 9.74479 187.945 10.3125C187.612 10.8802 187.141 11.3307 186.531 11.6641C185.922 11.9922 185.161 12.1562 184.25 12.1562C183.583 12.1562 182.977 12.0312 182.43 11.7812C181.888 11.5312 181.422 11.1771 181.031 10.7188C180.641 10.2552 180.339 9.70052 180.125 9.05469C179.917 8.40365 179.812 7.67969 179.812 6.88281V5.75C179.812 4.95312 179.917 4.23177 180.125 3.58594C180.339 2.9349 180.643 2.3776 181.039 1.91406C181.44 1.45052 181.922 1.09375 182.484 0.84375C183.047 0.59375 183.68 0.46875 184.383 0.46875C185.242 0.46875 185.969 0.630208 186.562 0.953125C187.156 1.27604 187.617 1.72396 187.945 2.29688C188.279 2.86458 188.484 3.52344 188.562 4.27344H187.062C186.99 3.74219 186.854 3.28646 186.656 2.90625C186.458 2.52083 186.177 2.22396 185.812 2.01562C185.448 1.80729 184.971 1.70312 184.383 1.70312C183.878 1.70312 183.432 1.79948 183.047 1.99219C182.667 2.1849 182.346 2.45833 182.086 2.8125C181.831 3.16667 181.638 3.59115 181.508 4.08594C181.378 4.58073 181.312 5.13021 181.312 5.73438V6.88281C181.312 7.4401 181.37 7.96354 181.484 8.45312C181.604 8.94271 181.784 9.3724 182.023 9.74219C182.263 10.112 182.568 10.4036 182.938 10.6172C183.307 10.8255 183.745 10.9297 184.25 10.9297C184.891 10.9297 185.401 10.8281 185.781 10.625C186.161 10.4219 186.448 10.1302 186.641 9.75C186.839 9.36979 186.979 8.91406 187.062 8.38281ZM199.375 5.95312V6.67188C199.375 7.52604 199.268 8.29167 199.055 8.96875C198.841 9.64583 198.534 10.2214 198.133 10.6953C197.732 11.1693 197.25 11.5312 196.688 11.7812C196.13 12.0312 195.505 12.1562 194.812 12.1562C194.141 12.1562 193.523 12.0312 192.961 11.7812C192.404 11.5312 191.919 11.1693 191.508 10.6953C191.102 10.2214 190.786 9.64583 190.562 8.96875C190.339 8.29167 190.227 7.52604 190.227 6.67188V5.95312C190.227 5.09896 190.336 4.33594 190.555 3.66406C190.779 2.98698 191.094 2.41146 191.5 1.9375C191.906 1.45833 192.388 1.09375 192.945 0.84375C193.508 0.59375 194.125 0.46875 194.797 0.46875C195.49 0.46875 196.115 0.59375 196.672 0.84375C197.234 1.09375 197.716 1.45833 198.117 1.9375C198.523 2.41146 198.833 2.98698 199.047 3.66406C199.266 4.33594 199.375 5.09896 199.375 5.95312ZM197.883 6.67188V5.9375C197.883 5.26042 197.812 4.66146 197.672 4.14062C197.536 3.61979 197.336 3.18229 197.07 2.82812C196.805 2.47396 196.479 2.20573 196.094 2.02344C195.714 1.84115 195.281 1.75 194.797 1.75C194.328 1.75 193.904 1.84115 193.523 2.02344C193.148 2.20573 192.826 2.47396 192.555 2.82812C192.289 3.18229 192.083 3.61979 191.938 4.14062C191.792 4.66146 191.719 5.26042 191.719 5.9375V6.67188C191.719 7.35417 191.792 7.95833 191.938 8.48438C192.083 9.00521 192.292 9.44531 192.562 9.80469C192.839 10.1589 193.164 10.4271 193.539 10.6094C193.919 10.7917 194.344 10.8828 194.812 10.8828C195.302 10.8828 195.737 10.7917 196.117 10.6094C196.497 10.4271 196.818 10.1589 197.078 9.80469C197.344 9.44531 197.544 9.00521 197.68 8.48438C197.815 7.95833 197.883 7.35417 197.883 6.67188ZM201.633 0.625H205.398C206.253 0.625 206.974 0.755208 207.562 1.01562C208.156 1.27604 208.607 1.66146 208.914 2.17188C209.227 2.67708 209.383 3.29948 209.383 4.03906C209.383 4.5599 209.276 5.03646 209.062 5.46875C208.854 5.89583 208.552 6.26042 208.156 6.5625C207.766 6.85938 207.297 7.08073 206.75 7.22656L206.328 7.39062H202.789L202.773 6.16406H205.445C205.987 6.16406 206.438 6.07031 206.797 5.88281C207.156 5.6901 207.427 5.43229 207.609 5.10938C207.792 4.78646 207.883 4.42969 207.883 4.03906C207.883 3.60156 207.797 3.21875 207.625 2.89062C207.453 2.5625 207.182 2.3099 206.812 2.13281C206.448 1.95052 205.977 1.85938 205.398 1.85938H203.141V12H201.633V0.625ZM208.281 12L205.516 6.84375L207.086 6.83594L209.891 11.9062V12H208.281ZM215.703 1.63281L211.938 12H210.398L214.734 0.625H215.727L215.703 1.63281ZM218.859 12L215.086 1.63281L215.062 0.625H216.055L220.406 12H218.859ZM218.664 7.78906V9.02344H212.273V7.78906H218.664ZM228.828 10.7734V12H223.141V10.7734H228.828ZM223.438 0.625V12H221.93V0.625H223.438ZM242.93 6.33594V10.5C242.789 10.7083 242.565 10.9427 242.258 11.2031C241.951 11.4583 241.526 11.6823 240.984 11.875C240.448 12.0625 239.755 12.1562 238.906 12.1562C238.214 12.1562 237.576 12.0365 236.992 11.7969C236.414 11.5521 235.911 11.1979 235.484 10.7344C235.062 10.2656 234.734 9.69792 234.5 9.03125C234.271 8.35938 234.156 7.59896 234.156 6.75V5.86719C234.156 5.01823 234.255 4.26042 234.453 3.59375C234.656 2.92708 234.953 2.36198 235.344 1.89844C235.734 1.42969 236.214 1.07552 236.781 0.835938C237.349 0.591146 238 0.46875 238.734 0.46875C239.604 0.46875 240.331 0.619792 240.914 0.921875C241.503 1.21875 241.961 1.63021 242.289 2.15625C242.622 2.68229 242.836 3.28125 242.93 3.95312H241.422C241.354 3.54167 241.219 3.16667 241.016 2.82812C240.818 2.48958 240.534 2.21875 240.164 2.01562C239.794 1.80729 239.318 1.70312 238.734 1.70312C238.208 1.70312 237.753 1.79948 237.367 1.99219C236.982 2.1849 236.664 2.46094 236.414 2.82031C236.164 3.17969 235.977 3.61458 235.852 4.125C235.732 4.63542 235.672 5.21094 235.672 5.85156V6.75C235.672 7.40625 235.747 7.99219 235.898 8.50781C236.055 9.02344 236.276 9.46354 236.562 9.82812C236.849 10.1875 237.19 10.4609 237.586 10.6484C237.987 10.8359 238.43 10.9297 238.914 10.9297C239.451 10.9297 239.885 10.8854 240.219 10.7969C240.552 10.7031 240.812 10.5938 241 10.4688C241.188 10.3385 241.331 10.2161 241.43 10.1016V7.55469H238.797V6.33594H242.93ZM249.641 1.63281L245.875 12H244.336L248.672 0.625H249.664L249.641 1.63281ZM252.797 12L249.023 1.63281L249 0.625H249.992L254.344 12H252.797ZM252.602 7.78906V9.02344H246.211V7.78906H252.602ZM259.922 6.67969H257.039L257.023 5.46875H259.641C260.073 5.46875 260.451 5.39583 260.773 5.25C261.096 5.10417 261.346 4.89583 261.523 4.625C261.706 4.34896 261.797 4.02083 261.797 3.64062C261.797 3.22396 261.716 2.88542 261.555 2.625C261.398 2.35938 261.156 2.16667 260.828 2.04688C260.505 1.92188 260.094 1.85938 259.594 1.85938H257.375V12H255.867V0.625H259.594C260.177 0.625 260.698 0.684896 261.156 0.804688C261.615 0.919271 262.003 1.10156 262.32 1.35156C262.643 1.59635 262.888 1.90885 263.055 2.28906C263.221 2.66927 263.305 3.125 263.305 3.65625C263.305 4.125 263.185 4.54948 262.945 4.92969C262.706 5.30469 262.372 5.61198 261.945 5.85156C261.523 6.09115 261.029 6.24479 260.461 6.3125L259.922 6.67969ZM259.852 12H256.445L257.297 10.7734H259.852C260.331 10.7734 260.737 10.6901 261.07 10.5234C261.409 10.3568 261.667 10.1224 261.844 9.82031C262.021 9.51302 262.109 9.15104 262.109 8.73438C262.109 8.3125 262.034 7.94792 261.883 7.64062C261.732 7.33333 261.495 7.09635 261.172 6.92969C260.849 6.76302 260.432 6.67969 259.922 6.67969H257.773L257.789 5.46875H260.727L261.047 5.90625C261.594 5.95312 262.057 6.10938 262.438 6.375C262.818 6.63542 263.107 6.96875 263.305 7.375C263.508 7.78125 263.609 8.22917 263.609 8.71875C263.609 9.42708 263.453 10.026 263.141 10.5156C262.833 11 262.398 11.3698 261.836 11.625C261.273 11.875 260.612 12 259.852 12ZM272.734 10.7734V12H267.047V10.7734H272.734ZM267.344 0.625V12H265.836V0.625H267.344ZM281.688 10.7734V12H275.664V10.7734H281.688ZM275.969 0.625V12H274.461V0.625H275.969ZM280.891 5.51562V6.74219H275.664V5.51562H280.891ZM281.609 0.625V1.85938H275.664V0.625H281.609ZM289.617 9.125C289.617 8.85938 289.576 8.625 289.492 8.42188C289.414 8.21354 289.273 8.02604 289.07 7.85938C288.872 7.69271 288.596 7.53385 288.242 7.38281C287.893 7.23177 287.451 7.07812 286.914 6.92188C286.352 6.75521 285.844 6.57031 285.391 6.36719C284.938 6.15885 284.549 5.92188 284.227 5.65625C283.904 5.39062 283.656 5.08594 283.484 4.74219C283.312 4.39844 283.227 4.00521 283.227 3.5625C283.227 3.11979 283.318 2.71094 283.5 2.33594C283.682 1.96094 283.943 1.63542 284.281 1.35938C284.625 1.07812 285.034 0.859375 285.508 0.703125C285.982 0.546875 286.51 0.46875 287.094 0.46875C287.948 0.46875 288.672 0.632812 289.266 0.960938C289.865 1.28385 290.32 1.70833 290.633 2.23438C290.945 2.75521 291.102 3.3125 291.102 3.90625H289.602C289.602 3.47917 289.51 3.10156 289.328 2.77344C289.146 2.4401 288.87 2.17969 288.5 1.99219C288.13 1.79948 287.661 1.70312 287.094 1.70312C286.557 1.70312 286.115 1.78385 285.766 1.94531C285.417 2.10677 285.156 2.32552 284.984 2.60156C284.818 2.8776 284.734 3.19271 284.734 3.54688C284.734 3.78646 284.784 4.00521 284.883 4.20312C284.987 4.39583 285.146 4.57552 285.359 4.74219C285.578 4.90885 285.854 5.0625 286.188 5.20312C286.526 5.34375 286.93 5.47917 287.398 5.60938C288.044 5.79167 288.602 5.99479 289.07 6.21875C289.539 6.44271 289.924 6.69531 290.227 6.97656C290.534 7.2526 290.76 7.56771 290.906 7.92188C291.057 8.27083 291.133 8.66667 291.133 9.10938C291.133 9.57292 291.039 9.99219 290.852 10.3672C290.664 10.7422 290.396 11.0625 290.047 11.3281C289.698 11.5938 289.279 11.7995 288.789 11.9453C288.305 12.0859 287.763 12.1562 287.164 12.1562C286.638 12.1562 286.12 12.0833 285.609 11.9375C285.104 11.7917 284.643 11.5729 284.227 11.2812C283.815 10.9896 283.484 10.6302 283.234 10.2031C282.99 9.77083 282.867 9.27083 282.867 8.70312H284.367C284.367 9.09375 284.443 9.42969 284.594 9.71094C284.745 9.98698 284.951 10.2161 285.211 10.3984C285.477 10.5807 285.776 10.7161 286.109 10.8047C286.448 10.888 286.799 10.9297 287.164 10.9297C287.69 10.9297 288.135 10.8568 288.5 10.7109C288.865 10.5651 289.141 10.3568 289.328 10.0859C289.521 9.8151 289.617 9.49479 289.617 9.125Z" fill="#AEB6C7"/>
</svg>
