<svg width="89" height="13" viewBox="0 0 89 13" fill="none" xmlns="http://www.w3.org/2000/svg">
<path d="M1.55664 0.712036V12.087H0.0488281V0.712036H1.55664ZM6.32227 5.82922V7.0636H1.22852V5.82922H6.32227ZM7.0957 0.712036V1.94641H1.22852V0.712036H7.0957ZM15.791 10.8605V12.087H10.1035V10.8605H15.791ZM10.4004 0.712036V12.087H8.89258V0.712036H10.4004ZM23.2207 5.6886H24.252C24.7572 5.6886 25.1738 5.60527 25.502 5.4386C25.8353 5.26672 26.0827 5.03495 26.2441 4.74329C26.4108 4.44641 26.4941 4.11308 26.4941 3.74329C26.4941 3.30579 26.4212 2.9386 26.2754 2.64172C26.1296 2.34485 25.9108 2.12089 25.6191 1.96985C25.3275 1.81881 24.9577 1.74329 24.5098 1.74329C24.1035 1.74329 23.7441 1.82402 23.4316 1.98547C23.1243 2.14172 22.8822 2.36568 22.7051 2.65735C22.5332 2.94902 22.4473 3.29277 22.4473 3.6886H21.002C21.002 3.11047 21.1478 2.58443 21.4395 2.11047C21.7311 1.63652 22.14 1.25891 22.666 0.977661C23.1973 0.696411 23.8118 0.555786 24.5098 0.555786C25.1973 0.555786 25.7988 0.678182 26.3145 0.922974C26.8301 1.16256 27.2311 1.52193 27.5176 2.0011C27.804 2.47506 27.9473 3.0662 27.9473 3.77454C27.9473 4.06099 27.8796 4.36829 27.7441 4.69641C27.6139 5.01933 27.4082 5.32141 27.127 5.60266C26.8509 5.88391 26.4915 6.11568 26.0488 6.29797C25.6061 6.47506 25.0749 6.5636 24.4551 6.5636H23.2207V5.6886ZM23.2207 6.8761V6.00891H24.4551C25.179 6.00891 25.778 6.09485 26.252 6.26672C26.7259 6.4386 27.0983 6.66777 27.3691 6.95422C27.6452 7.24068 27.8379 7.55579 27.9473 7.89954C28.0618 8.23808 28.1191 8.57662 28.1191 8.91516C28.1191 9.44641 28.028 9.91777 27.8457 10.3292C27.6686 10.7407 27.416 11.0896 27.0879 11.3761C26.765 11.6626 26.3848 11.8787 25.9473 12.0245C25.5098 12.1704 25.0332 12.2433 24.5176 12.2433C24.0228 12.2433 23.5566 12.173 23.1191 12.0323C22.6868 11.8917 22.304 11.6886 21.9707 11.423C21.6374 11.1521 21.377 10.8214 21.1895 10.4308C21.002 10.035 20.9082 9.58443 20.9082 9.07922H22.3535C22.3535 9.47506 22.4395 9.82141 22.6113 10.1183C22.7884 10.4152 23.0384 10.6469 23.3613 10.8136C23.6895 10.9751 24.0749 11.0558 24.5176 11.0558C24.9603 11.0558 25.3405 10.9803 25.6582 10.8292C25.9811 10.673 26.2285 10.4386 26.4004 10.1261C26.5775 9.8136 26.666 9.42037 26.666 8.94641C26.666 8.47245 26.5671 8.08443 26.3691 7.78235C26.1712 7.47506 25.89 7.24849 25.5254 7.10266C25.166 6.95162 24.7415 6.8761 24.252 6.8761H23.2207ZM32.2207 5.6886H33.252C33.7572 5.6886 34.1738 5.60527 34.502 5.4386C34.8353 5.26672 35.0827 5.03495 35.2441 4.74329C35.4108 4.44641 35.4941 4.11308 35.4941 3.74329C35.4941 3.30579 35.4212 2.9386 35.2754 2.64172C35.1296 2.34485 34.9108 2.12089 34.6191 1.96985C34.3275 1.81881 33.9577 1.74329 33.5098 1.74329C33.1035 1.74329 32.7441 1.82402 32.4316 1.98547C32.1243 2.14172 31.8822 2.36568 31.7051 2.65735C31.5332 2.94902 31.4473 3.29277 31.4473 3.6886H30.002C30.002 3.11047 30.1478 2.58443 30.4395 2.11047C30.7311 1.63652 31.14 1.25891 31.666 0.977661C32.1973 0.696411 32.8118 0.555786 33.5098 0.555786C34.1973 0.555786 34.7988 0.678182 35.3145 0.922974C35.8301 1.16256 36.2311 1.52193 36.5176 2.0011C36.804 2.47506 36.9473 3.0662 36.9473 3.77454C36.9473 4.06099 36.8796 4.36829 36.7441 4.69641C36.6139 5.01933 36.4082 5.32141 36.127 5.60266C35.8509 5.88391 35.4915 6.11568 35.0488 6.29797C34.6061 6.47506 34.0749 6.5636 33.4551 6.5636H32.2207V5.6886ZM32.2207 6.8761V6.00891H33.4551C34.179 6.00891 34.778 6.09485 35.252 6.26672C35.7259 6.4386 36.0983 6.66777 36.3691 6.95422C36.6452 7.24068 36.8379 7.55579 36.9473 7.89954C37.0618 8.23808 37.1191 8.57662 37.1191 8.91516C37.1191 9.44641 37.028 9.91777 36.8457 10.3292C36.6686 10.7407 36.416 11.0896 36.0879 11.3761C35.765 11.6626 35.3848 11.8787 34.9473 12.0245C34.5098 12.1704 34.0332 12.2433 33.5176 12.2433C33.0228 12.2433 32.5566 12.173 32.1191 12.0323C31.6868 11.8917 31.304 11.6886 30.9707 11.423C30.6374 11.1521 30.377 10.8214 30.1895 10.4308C30.002 10.035 29.9082 9.58443 29.9082 9.07922H31.3535C31.3535 9.47506 31.4395 9.82141 31.6113 10.1183C31.7884 10.4152 32.0384 10.6469 32.3613 10.8136C32.6895 10.9751 33.0749 11.0558 33.5176 11.0558C33.9603 11.0558 34.3405 10.9803 34.6582 10.8292C34.9811 10.673 35.2285 10.4386 35.4004 10.1261C35.5775 9.8136 35.666 9.42037 35.666 8.94641C35.666 8.47245 35.5671 8.08443 35.3691 7.78235C35.1712 7.47506 34.89 7.24849 34.5254 7.10266C34.166 6.95162 33.7415 6.8761 33.252 6.8761H32.2207ZM43.8613 0.649536V12.087H42.416V2.45422L39.502 3.51672V2.21204L43.6348 0.649536H43.8613ZM50.2207 5.6886H51.252C51.7572 5.6886 52.1738 5.60527 52.502 5.4386C52.8353 5.26672 53.0827 5.03495 53.2441 4.74329C53.4108 4.44641 53.4941 4.11308 53.4941 3.74329C53.4941 3.30579 53.4212 2.9386 53.2754 2.64172C53.1296 2.34485 52.9108 2.12089 52.6191 1.96985C52.3275 1.81881 51.9577 1.74329 51.5098 1.74329C51.1035 1.74329 50.7441 1.82402 50.4316 1.98547C50.1243 2.14172 49.8822 2.36568 49.7051 2.65735C49.5332 2.94902 49.4473 3.29277 49.4473 3.6886H48.002C48.002 3.11047 48.1478 2.58443 48.4395 2.11047C48.7311 1.63652 49.14 1.25891 49.666 0.977661C50.1973 0.696411 50.8118 0.555786 51.5098 0.555786C52.1973 0.555786 52.7988 0.678182 53.3145 0.922974C53.8301 1.16256 54.2311 1.52193 54.5176 2.0011C54.804 2.47506 54.9473 3.0662 54.9473 3.77454C54.9473 4.06099 54.8796 4.36829 54.7441 4.69641C54.6139 5.01933 54.4082 5.32141 54.127 5.60266C53.8509 5.88391 53.4915 6.11568 53.0488 6.29797C52.6061 6.47506 52.0749 6.5636 51.4551 6.5636H50.2207V5.6886ZM50.2207 6.8761V6.00891H51.4551C52.179 6.00891 52.778 6.09485 53.252 6.26672C53.7259 6.4386 54.0983 6.66777 54.3691 6.95422C54.6452 7.24068 54.8379 7.55579 54.9473 7.89954C55.0618 8.23808 55.1191 8.57662 55.1191 8.91516C55.1191 9.44641 55.028 9.91777 54.8457 10.3292C54.6686 10.7407 54.416 11.0896 54.0879 11.3761C53.765 11.6626 53.3848 11.8787 52.9473 12.0245C52.5098 12.1704 52.0332 12.2433 51.5176 12.2433C51.0228 12.2433 50.5566 12.173 50.1191 12.0323C49.6868 11.8917 49.304 11.6886 48.9707 11.423C48.6374 11.1521 48.377 10.8214 48.1895 10.4308C48.002 10.035 47.9082 9.58443 47.9082 9.07922H49.3535C49.3535 9.47506 49.4395 9.82141 49.6113 10.1183C49.7884 10.4152 50.0384 10.6469 50.3613 10.8136C50.6895 10.9751 51.0749 11.0558 51.5176 11.0558C51.9603 11.0558 52.3405 10.9803 52.6582 10.8292C52.9811 10.673 53.2285 10.4386 53.4004 10.1261C53.5775 9.8136 53.666 9.42037 53.666 8.94641C53.666 8.47245 53.5671 8.08443 53.3691 7.78235C53.1712 7.47506 52.89 7.24849 52.5254 7.10266C52.166 6.95162 51.7415 6.8761 51.252 6.8761H50.2207ZM64.7988 8.25891V9.44641H56.5801V8.59485L61.6738 0.712036H62.8535L61.5879 2.99329L58.2207 8.25891H64.7988ZM63.2129 0.712036V12.087H61.7676V0.712036H63.2129ZM76.9629 0.712036H78.4629V8.40735C78.4629 9.26152 78.2728 9.97245 77.8926 10.5402C77.5124 11.1079 77.0072 11.535 76.377 11.8214C75.752 12.1027 75.0723 12.2433 74.3379 12.2433C73.5671 12.2433 72.8691 12.1027 72.2441 11.8214C71.6243 11.535 71.1322 11.1079 70.7676 10.5402C70.4082 9.97245 70.2285 9.26152 70.2285 8.40735V0.712036H71.7207V8.40735C71.7207 9.0011 71.8301 9.49068 72.0488 9.8761C72.2676 10.2615 72.5723 10.548 72.9629 10.7355C73.3587 10.923 73.8171 11.0167 74.3379 11.0167C74.8639 11.0167 75.3223 10.923 75.7129 10.7355C76.1087 10.548 76.416 10.2615 76.6348 9.8761C76.8535 9.49068 76.9629 9.0011 76.9629 8.40735V0.712036ZM86.8926 9.21204C86.8926 8.94641 86.8509 8.71204 86.7676 8.50891C86.6895 8.30058 86.5488 8.11308 86.3457 7.94641C86.1478 7.77974 85.8717 7.62089 85.5176 7.46985C85.1686 7.31881 84.7259 7.16516 84.1895 7.00891C83.627 6.84224 83.1191 6.65735 82.666 6.45422C82.2129 6.24589 81.8249 6.00891 81.502 5.74329C81.179 5.47766 80.9316 5.17297 80.7598 4.82922C80.5879 4.48547 80.502 4.09224 80.502 3.64954C80.502 3.20683 80.5931 2.79797 80.7754 2.42297C80.9577 2.04797 81.2181 1.72245 81.5566 1.44641C81.9004 1.16516 82.3092 0.946411 82.7832 0.790161C83.2572 0.633911 83.7858 0.555786 84.3691 0.555786C85.2233 0.555786 85.9473 0.719849 86.541 1.04797C87.14 1.37089 87.5957 1.79537 87.9082 2.32141C88.2207 2.84224 88.377 3.39954 88.377 3.99329H86.877C86.877 3.5662 86.7858 3.1886 86.6035 2.86047C86.4212 2.52714 86.1452 2.26672 85.7754 2.07922C85.4056 1.88652 84.9368 1.79016 84.3691 1.79016C83.8327 1.79016 83.39 1.87089 83.041 2.03235C82.6921 2.19381 82.4316 2.41256 82.2598 2.6886C82.0931 2.96464 82.0098 3.27974 82.0098 3.63391C82.0098 3.87349 82.0592 4.09224 82.1582 4.29016C82.2624 4.48287 82.4212 4.66256 82.6348 4.82922C82.8535 4.99589 83.1296 5.14954 83.4629 5.29016C83.8014 5.43079 84.2051 5.5662 84.6738 5.69641C85.3197 5.8787 85.877 6.08183 86.3457 6.30579C86.8145 6.52974 87.1999 6.78235 87.502 7.0636C87.8092 7.33964 88.0358 7.65474 88.1816 8.00891C88.3327 8.35787 88.4082 8.7537 88.4082 9.19641C88.4082 9.65995 88.3145 10.0792 88.127 10.4542C87.9395 10.8292 87.6712 11.1495 87.3223 11.4152C86.9733 11.6808 86.554 11.8865 86.0645 12.0323C85.5801 12.173 85.0384 12.2433 84.4395 12.2433C83.9134 12.2433 83.3952 12.1704 82.8848 12.0245C82.3796 11.8787 81.9186 11.66 81.502 11.3683C81.0905 11.0766 80.7598 10.7172 80.5098 10.2902C80.265 9.85787 80.1426 9.35787 80.1426 8.79016H81.6426C81.6426 9.18079 81.7181 9.51672 81.8691 9.79797C82.0202 10.074 82.2259 10.3032 82.4863 10.4855C82.752 10.6678 83.0514 10.8032 83.3848 10.8917C83.7233 10.9751 84.0749 11.0167 84.4395 11.0167C84.9655 11.0167 85.4108 10.9438 85.7754 10.798C86.14 10.6521 86.416 10.4438 86.6035 10.173C86.7962 9.90214 86.8926 9.58183 86.8926 9.21204Z" fill="#AEB6C7"/>
</svg>
