<svg width="73" height="13" viewBox="0 0 73 13" fill="none" xmlns="http://www.w3.org/2000/svg">
<path d="M4.375 6.67969H1.49219L1.47656 5.46875H4.09375C4.52604 5.46875 4.90365 5.39583 5.22656 5.25C5.54948 5.10417 5.79948 4.89583 5.97656 4.625C6.15885 4.34896 6.25 4.02083 6.25 3.64062C6.25 3.22396 6.16927 2.88542 6.00781 2.625C5.85156 2.35938 5.60938 2.16667 5.28125 2.04688C4.95833 1.92188 4.54688 1.85938 4.04688 1.85938H1.82812V12H0.320312V0.625H4.04688C4.63021 0.625 5.15104 0.684896 5.60938 0.804688C6.06771 0.919271 6.45573 1.10156 6.77344 1.35156C7.09635 1.59635 7.34115 1.90885 7.50781 2.28906C7.67448 2.66927 7.75781 3.125 7.75781 3.65625C7.75781 4.125 7.63802 4.54948 7.39844 4.92969C7.15885 5.30469 6.82552 5.61198 6.39844 5.85156C5.97656 6.09115 5.48177 6.24479 4.91406 6.3125L4.375 6.67969ZM4.30469 12H0.898438L1.75 10.7734H4.30469C4.78385 10.7734 5.1901 10.6901 5.52344 10.5234C5.86198 10.3568 6.11979 10.1224 6.29688 9.82031C6.47396 9.51302 6.5625 9.15104 6.5625 8.73438C6.5625 8.3125 6.48698 7.94792 6.33594 7.64062C6.1849 7.33333 5.94792 7.09635 5.625 6.92969C5.30208 6.76302 4.88542 6.67969 4.375 6.67969H2.22656L2.24219 5.46875H5.17969L5.5 5.90625C6.04688 5.95312 6.51042 6.10938 6.89062 6.375C7.27083 6.63542 7.5599 6.96875 7.75781 7.375C7.96094 7.78125 8.0625 8.22917 8.0625 8.71875C8.0625 9.42708 7.90625 10.026 7.59375 10.5156C7.28646 11 6.85156 11.3698 6.28906 11.625C5.72656 11.875 5.0651 12 4.30469 12ZM13.5781 12.1562C12.9896 12.1562 12.4557 12.0573 11.9766 11.8594C11.5026 11.6562 11.0938 11.3724 10.75 11.0078C10.4115 10.6432 10.151 10.2109 9.96875 9.71094C9.78646 9.21094 9.69531 8.66406 9.69531 8.07031V7.74219C9.69531 7.05469 9.79688 6.44271 10 5.90625C10.2031 5.36458 10.4792 4.90625 10.8281 4.53125C11.1771 4.15625 11.5729 3.8724 12.0156 3.67969C12.4583 3.48698 12.9167 3.39062 13.3906 3.39062C13.9948 3.39062 14.5156 3.49479 14.9531 3.70312C15.3958 3.91146 15.7578 4.20312 16.0391 4.57812C16.3203 4.94792 16.5286 5.38542 16.6641 5.89062C16.7995 6.39062 16.8672 6.9375 16.8672 7.53125V8.17969H10.5547V7H15.4219V6.89062C15.401 6.51562 15.3229 6.15104 15.1875 5.79688C15.0573 5.44271 14.849 5.15104 14.5625 4.92188C14.276 4.69271 13.8854 4.57812 13.3906 4.57812C13.0625 4.57812 12.7604 4.64844 12.4844 4.78906C12.2083 4.92448 11.9714 5.1276 11.7734 5.39844C11.5755 5.66927 11.4219 6 11.3125 6.39062C11.2031 6.78125 11.1484 7.23177 11.1484 7.74219V8.07031C11.1484 8.47135 11.2031 8.84896 11.3125 9.20312C11.4271 9.55208 11.5911 9.85938 11.8047 10.125C12.0234 10.3906 12.2865 10.599 12.5938 10.75C12.9062 10.901 13.2604 10.9766 13.6562 10.9766C14.1667 10.9766 14.599 10.8724 14.9531 10.6641C15.3073 10.4557 15.6172 10.1771 15.8828 9.82812L16.7578 10.5234C16.5755 10.7995 16.3438 11.0625 16.0625 11.3125C15.7812 11.5625 15.4349 11.7656 15.0234 11.9219C14.6172 12.0781 14.1354 12.1562 13.5781 12.1562ZM20.6953 10.5L22.8672 3.54688H23.8203L23.6328 4.92969L21.4219 12H20.4922L20.6953 10.5ZM19.2344 3.54688L21.0859 10.5781L21.2188 12H20.2422L17.7891 3.54688H19.2344ZM25.8984 10.5234L27.6641 3.54688H29.1016L26.6484 12H25.6797L25.8984 10.5234ZM24.0312 3.54688L26.1562 10.3828L26.3984 12H25.4766L23.2031 4.91406L23.0156 3.54688H24.0312ZM35.5703 10.5547V6.20312C35.5703 5.86979 35.5026 5.58073 35.3672 5.33594C35.237 5.08594 35.0391 4.89323 34.7734 4.75781C34.5078 4.6224 34.1797 4.55469 33.7891 4.55469C33.4245 4.55469 33.1042 4.61719 32.8281 4.74219C32.5573 4.86719 32.3438 5.03125 32.1875 5.23438C32.0365 5.4375 31.9609 5.65625 31.9609 5.89062H30.5156C30.5156 5.58854 30.5938 5.28906 30.75 4.99219C30.9062 4.69531 31.1302 4.42708 31.4219 4.1875C31.7188 3.94271 32.0729 3.75 32.4844 3.60938C32.901 3.46354 33.3646 3.39062 33.875 3.39062C34.4896 3.39062 35.0312 3.49479 35.5 3.70312C35.974 3.91146 36.3438 4.22656 36.6094 4.64844C36.8802 5.0651 37.0156 5.58854 37.0156 6.21875V10.1562C37.0156 10.4375 37.0391 10.737 37.0859 11.0547C37.138 11.3724 37.2135 11.6458 37.3125 11.875V12H35.8047C35.7318 11.8333 35.6745 11.612 35.6328 11.3359C35.5911 11.0547 35.5703 10.7943 35.5703 10.5547ZM35.8203 6.875L35.8359 7.89062H34.375C33.9635 7.89062 33.5964 7.92448 33.2734 7.99219C32.9505 8.05469 32.6797 8.15104 32.4609 8.28125C32.2422 8.41146 32.0755 8.57552 31.9609 8.77344C31.8464 8.96615 31.7891 9.19271 31.7891 9.45312C31.7891 9.71875 31.849 9.96094 31.9688 10.1797C32.0885 10.3984 32.2682 10.5729 32.5078 10.7031C32.7526 10.8281 33.0521 10.8906 33.4062 10.8906C33.849 10.8906 34.2396 10.7969 34.5781 10.6094C34.9167 10.4219 35.1849 10.1927 35.3828 9.92188C35.5859 9.65104 35.6953 9.38802 35.7109 9.13281L36.3281 9.82812C36.2917 10.0469 36.1927 10.2891 36.0312 10.5547C35.8698 10.8203 35.6536 11.0755 35.3828 11.3203C35.1172 11.5599 34.7995 11.7604 34.4297 11.9219C34.0651 12.0781 33.6536 12.1562 33.1953 12.1562C32.6224 12.1562 32.1198 12.0443 31.6875 11.8203C31.2604 11.5964 30.9271 11.2969 30.6875 10.9219C30.4531 10.5417 30.3359 10.1172 30.3359 9.64844C30.3359 9.19531 30.4245 8.79688 30.6016 8.45312C30.7786 8.10417 31.0339 7.8151 31.3672 7.58594C31.7005 7.35156 32.1016 7.17448 32.5703 7.05469C33.0391 6.9349 33.5625 6.875 34.1406 6.875H35.8203ZM40.8594 3.54688V12H39.4062V3.54688H40.8594ZM39.2969 1.30469C39.2969 1.07031 39.3672 0.872396 39.5078 0.710938C39.6536 0.549479 39.8672 0.46875 40.1484 0.46875C40.4245 0.46875 40.6354 0.549479 40.7812 0.710938C40.9323 0.872396 41.0078 1.07031 41.0078 1.30469C41.0078 1.52865 40.9323 1.72135 40.7812 1.88281C40.6354 2.03906 40.4245 2.11719 40.1484 2.11719C39.8672 2.11719 39.6536 2.03906 39.5078 1.88281C39.3672 1.72135 39.2969 1.52865 39.2969 1.30469ZM54.2656 10.7734V12H48.5781V10.7734H54.2656ZM48.875 0.625V12H47.3672V0.625H48.875ZM62.8906 10.7734V12H57.2031V10.7734H62.8906ZM57.5 0.625V12H55.9922V0.625H57.5ZM70.9688 8.38281H72.4688C72.3906 9.10156 72.1849 9.74479 71.8516 10.3125C71.5182 10.8802 71.0469 11.3307 70.4375 11.6641C69.8281 11.9922 69.0677 12.1562 68.1562 12.1562C67.4896 12.1562 66.8828 12.0312 66.3359 11.7812C65.7943 11.5312 65.3281 11.1771 64.9375 10.7188C64.5469 10.2552 64.2448 9.70052 64.0312 9.05469C63.8229 8.40365 63.7188 7.67969 63.7188 6.88281V5.75C63.7188 4.95312 63.8229 4.23177 64.0312 3.58594C64.2448 2.9349 64.5495 2.3776 64.9453 1.91406C65.3464 1.45052 65.8281 1.09375 66.3906 0.84375C66.9531 0.59375 67.5859 0.46875 68.2891 0.46875C69.1484 0.46875 69.875 0.630208 70.4688 0.953125C71.0625 1.27604 71.5234 1.72396 71.8516 2.29688C72.1849 2.86458 72.3906 3.52344 72.4688 4.27344H70.9688C70.8958 3.74219 70.7604 3.28646 70.5625 2.90625C70.3646 2.52083 70.0833 2.22396 69.7188 2.01562C69.3542 1.80729 68.8776 1.70312 68.2891 1.70312C67.7839 1.70312 67.3385 1.79948 66.9531 1.99219C66.5729 2.1849 66.2526 2.45833 65.9922 2.8125C65.737 3.16667 65.5443 3.59115 65.4141 4.08594C65.2839 4.58073 65.2188 5.13021 65.2188 5.73438V6.88281C65.2188 7.4401 65.276 7.96354 65.3906 8.45312C65.5104 8.94271 65.6901 9.3724 65.9297 9.74219C66.1693 10.112 66.474 10.4036 66.8438 10.6172C67.2135 10.8255 67.651 10.9297 68.1562 10.9297C68.7969 10.9297 69.3073 10.8281 69.6875 10.625C70.0677 10.4219 70.3542 10.1302 70.5469 9.75C70.7448 9.36979 70.8854 8.91406 70.9688 8.38281Z" fill="#AEB6C7"/>
</svg>
