<svg width="22" height="22" viewBox="0 0 22 22" fill="none" xmlns="http://www.w3.org/2000/svg">
<circle cx="11" cy="11" r="10" stroke="#26A0F4"/>
<path fill-rule="evenodd" clip-rule="evenodd" d="M10.4444 10.4444V6.55556C10.4444 6.24873 10.6932 6 11 6C11.3068 6 11.5555 6.24873 11.5555 6.55556V10.4444H15.4444C15.7513 10.4444 16 10.6932 16 11C16 11.3068 15.7513 11.5555 15.4444 11.5555H11.5555V15.4444C11.5555 15.7513 11.3068 16 11 16C10.6932 16 10.4444 15.7513 10.4444 15.4444V11.5555H6.55556C6.24873 11.5555 6 11.3068 6 11C6 10.6932 6.24873 10.4444 6.55556 10.4444H10.4444Z" fill="#26A0F4"/>
</svg>
