<svg xmlns="http://www.w3.org/2000/svg" width="24" height="24" viewBox="0 0 24 24">
    <g fill="none" fill-rule="evenodd">
        <g fill="#1e2021">
            <path d="M23 11.998c.513 0 .936.386.993.883l.007.117v6c0 1.597-1.249 2.903-2.824 2.995l-.176.005H3c-1.598 0-2.904-1.25-2.995-2.824L0 18.998v-6c0-.553.448-1 1-1 .513 0 .936.386.993.883l.007.117v6c0 .512.386.935.883.993l.117.007h18c.513 0 .936-.386.993-.884l.007-.116v-6c0-.553.448-1 1-1zm-2-10c1.657 0 3 1.343 3 3v3c0 .366-.2.702-.521.878l-11 6c-.299.162-.66.162-.958 0l-11-6C.2 8.7 0 8.364 0 7.998v-3c0-1.657 1.343-3 3-3zm0 2H3c-.552 0-1 .447-1 1v2.406l10 5.454 10-5.455V4.998c0-.513-.386-.936-.883-.994L21 3.998z"/>
        </g>
    </g>
</svg>
