<svg xmlns="http://www.w3.org/2000/svg" xmlns:xlink="http://www.w3.org/1999/xlink" width="80" height="80" viewBox="0 0 80 80">
    <defs>
        <filter id="n4wzdp4lka" width="137.5%" height="137.5%" x="-18.8%" y="-18.8%" filterUnits="objectBoundingBox">
            <feOffset in="SourceAlpha" result="shadowOffsetOuter1"/>
            <feGaussianBlur in="shadowOffsetOuter1" result="shadowBlurOuter1" stdDeviation="5"/>
            <feColorMatrix in="shadowBlurOuter1" values="0 0 0 0 0.852078431 0 0 0 0 0.867890196 0 0 0 0 0.878431373 0 0 0 1 0"/>
        </filter>
        <path id="92qs6044wb" d="M74.286 0H5.714C2.558 0 0 2.558 0 5.714v68.572C0 77.442 2.558 80 5.714 80h68.572C77.442 80 80 77.442 80 74.286V5.714C80 2.558 77.442 0 74.286 0z"/>
    </defs>
    <g fill="none" fill-rule="evenodd">
        <g fill-rule="nonzero">
            <g>
                <g>
                    <g transform="translate(-466 -238) translate(434 204) translate(32 34)">
                        <use fill="#000" filter="url(#n4wzdp4lka)" xlink:href="#92qs6044wb"/>
                        <use fill="#FFF" xlink:href="#92qs6044wb"/>
                    </g>
                    <g transform="translate(-466 -238) translate(434 204) translate(32 34) rotate(45 13.186 52.52)">
                        <rect width="16" height="48" x="16" fill="#92CFF9" rx="2"/>
                        <rect width="16" height="48" x="16" fill="#26A0F4" rx="2" transform="rotate(90 24 24)"/>
                        <path fill="#D4ECFD" d="M16 16H32V32H16z" transform="rotate(90 24 24)"/>
                    </g>
                </g>
            </g>
        </g>
    </g>
</svg>
