<svg xmlns="http://www.w3.org/2000/svg" width="120" height="126" viewBox="0 0 120 126">
    <g fill="none" fill-rule="evenodd">
        <g>
            <g>
                <g>
                    <g>
                        <path fill="#26A0F4" fill-rule="nonzero" d="M64.832 0c5.89 0 10.67 4.778 10.67 10.676 0 5.897-4.78 10.674-10.67 10.674-2.94 0-5.392-.83-8.491-2.91l-.554-.38-.569-.407-.29-.213-.593-.447-.612-.475-.632-.503-.652-.532-.675-.562-.699-.59-.724-.622-.724.621-.699.591-.675.561-.653.532-.631.504-.612.475-.3.227-.584.433-.286.207-.562.393c-3.23 2.217-5.74 3.097-8.767 3.097-5.89 0-10.67-4.777-10.67-10.674C25.178 4.778 29.958 0 35.848 0c2.508 0 4.66.604 7.163 2.073l.523.316c.176.11.354.223.534.341l.547.367c.185.127.371.258.561.394l.577.42.593.447.304.234.621.489.642.517.329.27.675.561.699.59.724.622.724-.622.699-.59c.114-.097.227-.191.34-.285l.661-.545.323-.262.629-.501.609-.473.59-.445.288-.212.565-.404c3.064-2.148 5.447-3.09 8.266-3.274l.312-.017.486-.011zm.055 4.576l-.393.01-.159.01c-1.659.114-3.262.713-5.305 2.043l-.48.32-.246.17-.505.36-.26.19-.535.402-.555.43-.578.46-.601.49-.627.52-.653.552-.166.142.522.443.645.54.62.51.302.242.584.464.562.434.54.405c.355.26.695.502 1.025.726l.486.322c2.07 1.337 3.695 1.929 5.354 2.004l.191.006.177.002c3.376 0 6.11-2.732 6.11-6.097 0-3.293-2.616-5.98-5.84-6.096l-.215-.004zm-29.039.001c-3.376 0-6.11 2.733-6.11 6.099 0 3.365 2.734 6.097 6.11 6.097 1.664 0 3.26-.498 5.26-1.722l.47-.295c.08-.051.16-.104.24-.157l.494-.336.511-.362.53-.39.55-.419.284-.22.583-.463.607-.493.631-.523.847-.718-.187-.16-.659-.556-.633-.525-.307-.25-.596-.48c-.097-.077-.193-.153-.289-.227l-.562-.434-.54-.405c-.09-.066-.177-.13-.264-.192l-.512-.363-.494-.335c-2.186-1.45-3.873-2.085-5.596-2.163l-.191-.006-.177-.002z" transform="translate(-502.000000, -450.000000) translate(502.000000, 449.998560) translate(0.000000, 0.000000)"/>
                        <path fill="#B7DCFA" d="M91.528 19.66v77.765H13.729c-2.527 0-4.576-2.048-4.576-4.574v-73.19h82.375z" transform="translate(-502.000000, -450.000000) translate(502.000000, 449.998560) translate(0.000000, 0.000000)"/>
                        <path fill="#B7DCFA" d="M96.104 33.383H4.576C2.05 33.383 0 31.335 0 28.81v-4.574c0-2.527 2.05-4.575 4.576-4.575h91.528c2.527 0 4.576 2.048 4.576 4.575v4.574c0 2.526-2.049 4.574-4.576 4.574" transform="translate(-502.000000, -450.000000) translate(502.000000, 449.998560) translate(0.000000, 0.000000)"/>
                        <path fill="#88C7F8" d="M36.611 97.425L64.069 97.425 64.069 19.66 36.611 19.66z" transform="translate(-502.000000, -450.000000) translate(502.000000, 449.998560) translate(0.000000, 0.000000)"/>
                        <path fill="#26A0F4" d="M9.153 42.532L91.528 42.532 91.528 33.383 9.153 33.383z" opacity=".239" transform="translate(-502.000000, -450.000000) translate(502.000000, 449.998560) translate(0.000000, 0.000000)"/>
                    </g>
                    <g fill-rule="nonzero" transform="translate(-502.000000, -450.000000) translate(502.000000, 449.998560) translate(0.000000, 0.000000) translate(60.923077, 66.706510)">
                        <g>
                            <ellipse cx="29.538" cy="29.647" fill="#FFF" rx="26.97" ry="27.069"/>
                            <path fill="#26A0F4" d="M29.538 59.293C13.25 59.293 0 45.993 0 29.647 0 13.3 13.25 0 29.538 0c16.289 0 29.539 13.3 29.539 29.647 0 16.347-13.25 29.646-29.539 29.646zm0-54.137c-13.454 0-24.4 10.987-24.4 24.49 0 13.505 10.946 24.492 24.4 24.492 13.455 0 24.402-10.987 24.402-24.491S42.993 5.156 29.538 5.156z"/>
                        </g>
                        <path fill="#FF514E" d="M29.538 11.6c.71 0 1.285.578 1.285 1.29v15.467H44.95c.71 0 1.284.578 1.284 1.29 0 .712-.574 1.289-1.284 1.289H29.538c-.71 0-1.284-.577-1.284-1.29V12.89c0-.712.575-1.29 1.284-1.29z"/>
                        <ellipse cx="29.538" cy="29.647" fill="#002C6B" rx="3.853" ry="3.867"/>
                    </g>
                </g>
            </g>
        </g>
    </g>
</svg>
