<?xml version="1.0" encoding="UTF-8"?>
<svg width="309px" height="58px" viewBox="0 0 309 58" version="1.1" xmlns="http://www.w3.org/2000/svg" xmlns:xlink="http://www.w3.org/1999/xlink">
    <!-- Generator: Sketch 52.5 (67469) - http://www.bohemiancoding.com/sketch -->
    <title>LOGO TOPRIREKSHO</title>
    <desc>Created with Sketch.</desc>
    <g id="Page-1" stroke="none" stroke-width="1" fill="none" fill-rule="evenodd">
        <g id="LOGO-TOPRIREKSHO">
            <polygon id="Rectangle-3-Copy-2" fill="#C10319" points="3.1184233 0 42.8267132 4.45007455 47 53.0596711 0 58"></polygon>
            <path d="M245.199162,39.2012467 C246.607106,39.2012467 247.849391,38.7975701 248.926054,37.9902048 C250.002717,37.1828395 250.54104,36.0608561 250.54104,34.6242208 L252.422233,34.6242208 L252.457727,34.7310775 C252.516885,36.5120303 251.809965,38.0020718 250.336948,39.2012467 C248.863932,40.4004215 247.151353,41 245.199162,41 C242.59624,41 240.579006,40.1006323 239.1474,38.30187 C237.715793,36.5031077 237,34.190872 237,31.3650935 L237,30.6170971 C237,27.8150646 237.715793,25.5117336 239.1474,23.7070347 C240.579006,21.9023359 242.590325,21 245.181415,21 C246.660348,21 248.01503,21.2790118 249.245502,21.8370436 C250.475974,22.3950755 251.475717,23.1549373 252.244762,24.1166518 L252.333498,28.3196794 L250.523293,28.3196794 L250.186098,24.9002671 C249.618188,24.2591241 248.911269,23.7515602 248.065319,23.3775601 C247.21937,23.00356 246.258078,22.8165628 245.181415,22.8165628 C243.122741,22.8165628 241.599463,23.5556471 240.611536,25.0338379 C239.623609,26.5120288 239.129652,28.3730965 239.129652,30.6170971 L239.129652,31.3650935 C239.129652,33.6447131 239.620651,35.5206219 240.602662,36.9928762 C241.584673,38.4651305 243.116825,39.2012467 245.199162,39.2012467 Z M256.415332,30.7061443 C256.415332,27.8684928 257.190281,25.541416 258.740202,23.7248442 C260.290124,21.9082723 262.342851,21 264.898447,21 C267.465874,21 269.524518,21.9082723 271.074439,23.7248442 C272.624361,25.541416 273.39931,27.8684928 273.39931,30.7061443 L273.39931,31.2938557 C273.39931,34.1433802 272.627319,36.4734252 271.083313,38.2840606 C269.539307,40.0946959 267.489537,41 264.933941,41 C262.354683,41 260.290124,40.0946959 258.740202,38.2840606 C257.190281,36.4734252 256.415332,34.1433802 256.415332,31.2938557 L256.415332,30.7061443 Z M258.544984,31.2938557 C258.544984,33.5259833 259.10697,35.4018921 260.230959,36.9216385 C261.354948,38.4413849 262.922593,39.2012467 264.933941,39.2012467 C266.909795,39.2012467 268.459694,38.4413849 269.583683,36.9216385 C270.707671,35.4018921 271.269657,33.5259833 271.269657,31.2938557 L271.269657,30.7061443 C271.269657,28.5096358 270.704714,26.6455998 269.574809,25.1139804 C268.444904,23.582361 266.886133,22.8165628 264.898447,22.8165628 C262.910762,22.8165628 261.354948,23.582361 260.230959,25.1139804 C259.10697,26.6455998 258.544984,28.5096358 258.544984,30.7061443 L258.544984,31.2938557 Z M276.39857,22.9412289 L276.39857,21.3561888 L281.172541,21.3561888 L281.367759,24.5440784 C281.982995,23.4161416 282.80527,22.5434878 283.834607,21.9260908 C284.863944,21.3086939 286.088482,21 287.508257,21 C288.975359,21 290.199896,21.3591534 291.181908,22.0774711 C292.163919,22.7957887 292.867881,23.8910582 293.293813,25.3633126 C293.873555,24.0097884 294.698787,22.944201 295.769534,22.1665183 C296.840281,21.3888355 298.144681,21 299.682771,21 C301.729613,21 303.312048,21.6826883 304.430121,23.0480855 C305.548194,24.4134826 306.107222,26.5268483 306.107222,29.3882458 L306.107222,38.809439 L309,39.0587711 L309,40.6260018 L301.067045,40.6260018 L301.067045,39.0587711 L303.959823,38.809439 L303.959823,29.3526269 C303.959823,26.9780232 303.54277,25.3009844 302.708652,24.3214604 C301.874534,23.3419363 300.71211,22.8521817 299.221346,22.8521817 C297.564941,22.8521817 296.29012,23.3805231 295.396845,24.4372217 C294.50357,25.4939204 293.950457,26.8414878 293.737491,28.4799644 C293.737491,28.5749485 293.740449,28.6639948 293.746364,28.747106 C293.75228,28.8302171 293.755238,28.9370727 293.755238,29.0676759 L293.755238,38.8272484 L296.648016,39.0587711 L296.648016,40.6260018 L288.732807,40.6260018 L288.732807,39.0587711 L291.625585,38.8272484 L291.625585,29.3526269 C291.625585,27.0255152 291.202617,25.3603493 290.356667,24.3570793 C289.510718,23.3538092 288.348294,22.8521817 286.869362,22.8521817 C285.354935,22.8521817 284.157017,23.2350808 283.275573,24.0008905 C282.394129,24.7667002 281.775945,25.7966691 281.421001,27.0908281 L281.421001,38.8272484 L284.313779,39.0587711 L284.313779,40.6260018 L276.39857,40.6260018 L276.39857,39.0587711 L279.291348,38.8272484 L279.291348,23.1727516 L276.39857,22.9412289 Z" id="Topjianli.com-Copy" fill="#C10319"></path>
            <path d="M35.7097168,15.1171875 L35.7097168,21.7480469 L31.8815918,21.7480469 L31.6765137,18.9624023 L27.0964355,18.9624023 L27.0964355,36.496582 L29.7624512,37.0092773 L29.7624512,40 L19.4401855,40 L19.4401855,37.0092773 L22.1062012,36.496582 L22.1062012,18.9624023 L17.5432129,18.9624023 L17.3381348,21.7480469 L13.5270996,21.7480469 L13.5270996,15.1171875 L35.7097168,15.1171875 Z M36.1027832,30.5834961 C36.1027832,27.8263208 36.8746668,25.5676358 38.418457,23.807373 C39.9622473,22.0471103 42.0956081,21.1669922 44.8186035,21.1669922 C47.5529922,21.1669922 49.6920496,22.0442621 51.2358398,23.7988281 C52.7796301,25.5533942 53.5515137,27.8149276 53.5515137,30.5834961 L53.5515137,30.9423828 C53.5515137,33.7223446 52.7796301,35.9867263 51.2358398,37.7355957 C49.6920496,39.4844651 47.5643853,40.3588867 44.8527832,40.3588867 C42.1070012,40.3588867 39.9622473,39.4844651 38.418457,37.7355957 C36.8746668,35.9867263 36.1027832,33.7223446 36.1027832,30.9423828 L36.1027832,30.5834961 Z M41.0930176,30.9423828 C41.0930176,32.6285892 41.3892386,33.9815216 41.9816895,35.0012207 C42.5741403,36.0209198 43.531162,36.5307617 44.8527832,36.5307617 C46.1402245,36.5307617 47.0830048,36.0180715 47.6811523,34.9926758 C48.2792999,33.96728 48.5783691,32.6171959 48.5783691,30.9423828 L48.5783691,30.5834961 C48.5783691,28.9428629 48.2764516,27.6041719 47.6726074,26.5673828 C47.0687633,25.5305938 46.1174381,25.012207 44.8186035,25.012207 C43.5197689,25.012207 42.5741403,25.5305938 41.9816895,26.5673828 C41.3892386,27.6041719 41.0930176,28.9428629 41.0930176,30.5834961 L41.0930176,30.9423828 Z M55.3459473,24.5166016 L55.3459473,21.5087891 L62.592041,21.5087891 L62.8312988,23.6621094 C63.3781766,22.8645793 64.0332807,22.2493511 64.7966309,21.8164062 C65.559981,21.3834614 66.448644,21.1669922 67.4626465,21.1669922 C69.752697,21.1669922 71.530023,22.0613517 72.7946777,23.8500977 C74.0593325,25.6388436 74.6916504,27.9915219 74.6916504,30.9082031 L74.6916504,31.2670898 C74.6916504,34.0014785 74.0593325,36.2003498 72.7946777,37.8637695 C71.530023,39.5271893 69.7640901,40.3588867 67.4968262,40.3588867 C66.5283969,40.3588867 65.6682167,40.1794452 64.9162598,39.8205566 C64.1643029,39.4616681 63.5205919,38.9347365 62.9851074,38.2397461 L62.9851074,43.5888672 L65.3947754,44.1015625 L65.3947754,47.109375 L55.6022949,47.109375 L55.6022949,44.1015625 L58.0119629,43.5888672 L58.0119629,25.0292969 L55.3459473,24.5166016 Z M69.701416,30.9082031 C69.701416,29.1650303 69.4108916,27.7522841 68.829834,26.6699219 C68.2487764,25.5875597 67.3601134,25.0463867 66.1638184,25.0463867 C65.4118615,25.0463867 64.7709987,25.2001938 64.2412109,25.5078125 C63.7114231,25.8154312 63.2927261,26.2540662 62.9851074,26.8237305 L62.9851074,34.9243164 C63.2927261,35.4484076 63.7114231,35.8471666 64.2412109,36.1206055 C64.7709987,36.3940443 65.4232546,36.5307617 66.197998,36.5307617 C67.4056864,36.5307617 68.2915011,36.0579474 68.8554688,35.1123047 C69.4194364,34.1666619 69.701416,32.8849365 69.701416,31.2670898 L69.701416,30.9082031 Z M77.2893066,37.0092773 L79.6818848,36.496582 L79.6818848,25.0292969 L77.032959,24.5166016 L77.032959,21.5087891 L84.3303223,21.5087891 L84.5524902,24.2089844 C84.9854351,23.2519483 85.5436978,22.5056993 86.2272949,21.9702148 C86.9108921,21.4347304 87.7027136,21.1669922 88.6027832,21.1669922 C88.8648288,21.1669922 89.1411118,21.1869301 89.4316406,21.2268066 C89.7221694,21.2666831 89.9642731,21.3151039 90.157959,21.3720703 L89.6281738,25.9179688 L87.5773926,25.8666992 C86.8482223,25.8666992 86.2443872,26.0091132 85.7658691,26.2939453 C85.2873511,26.5787775 84.9227714,26.9832331 84.6721191,27.5073242 L84.6721191,36.496582 L87.0646973,37.0092773 L87.0646973,40 L77.2893066,40 L77.2893066,37.0092773 Z M91.4909668,37.0092773 L93.9006348,36.496582 L93.9006348,25.0292969 L91.2346191,24.5166016 L91.2346191,21.5087891 L98.8908691,21.5087891 L98.8908691,36.496582 L101.283447,37.0092773 L101.283447,40 L91.4909668,40 L91.4909668,37.0092773 Z M98.8908691,17.0825195 L93.9006348,17.0825195 L93.9006348,13.3398438 L98.8908691,13.3398438 L98.8908691,17.0825195 Z M103.300049,37.0092773 L105.692627,36.496582 L105.692627,25.0292969 L103.043701,24.5166016 L103.043701,21.5087891 L110.341064,21.5087891 L110.563232,24.2089844 C110.996177,23.2519483 111.55444,22.5056993 112.238037,21.9702148 C112.921634,21.4347304 113.713456,21.1669922 114.613525,21.1669922 C114.875571,21.1669922 115.151854,21.1869301 115.442383,21.2268066 C115.732912,21.2666831 115.975015,21.3151039 116.168701,21.3720703 L115.638916,25.9179688 L113.588135,25.8666992 C112.858964,25.8666992 112.255129,26.0091132 111.776611,26.2939453 C111.298093,26.5787775 110.933514,26.9832331 110.682861,27.5073242 L110.682861,36.496582 L113.075439,37.0092773 L113.075439,40 L103.300049,40 L103.300049,37.0092773 Z M126.18335,40.3588867 C123.517321,40.3588867 121.386808,39.5044031 119.791748,37.7954102 C118.196688,36.0864172 117.39917,33.9160288 117.39917,31.2841797 L117.39917,30.6005859 C117.39917,27.854804 118.153964,25.5932706 119.663574,23.815918 C121.173185,22.0385653 123.198311,21.1555989 125.739014,21.1669922 C128.234143,21.1669922 130.170973,21.9189378 131.549561,23.4228516 C132.928148,24.9267653 133.617432,26.9604364 133.617432,29.5239258 L133.617432,32.2412109 L122.577393,32.2412109 L122.543213,32.34375 C122.634359,33.5628316 123.041663,34.5654258 123.765137,35.3515625 C124.48861,36.1376992 125.471267,36.5307617 126.713135,36.5307617 C127.818284,36.5307617 128.735429,36.4196788 129.4646,36.1975098 C130.19377,35.9753407 130.991288,35.6250024 131.857178,35.1464844 L133.207275,38.2226562 C132.443925,38.8265004 131.455572,39.333494 130.242188,39.7436523 C129.028803,40.1538106 127.67587,40.3588867 126.18335,40.3588867 Z M125.739014,25.012207 C124.816157,25.012207 124.086998,25.3653936 123.551514,26.0717773 C123.016029,26.7781611 122.685629,27.7067 122.560303,28.8574219 L122.611572,28.9428711 L128.729736,28.9428711 L128.729736,28.4985352 C128.729736,27.4389595 128.481936,26.5930207 127.986328,25.9606934 C127.49072,25.328366 126.741623,25.012207 125.739014,25.012207 Z M135.446045,16.3476562 L135.446045,13.3398438 L143.085205,13.3398438 L143.085205,28.7890625 L144.196045,28.7890625 L147.067139,24.7387695 L145.443604,24.5166016 L145.443604,21.5087891 L154.5354,21.5087891 L154.5354,24.5166016 L152.3479,25.012207 L149.015381,29.5922852 L153.680908,36.6162109 L155.577881,37.0092773 L155.577881,40 L147.032959,40 L147.032959,37.0092773 L148.05835,36.8383789 L145.221436,32.2583008 L143.085205,32.2583008 L143.085205,36.496582 L145.238525,37.0092773 L145.238525,40 L135.702393,40 L135.702393,37.0092773 L138.112061,36.496582 L138.112061,16.8603516 L135.446045,16.3476562 Z M157.167236,37.0092773 L159.576904,36.496582 L159.576904,25.0292969 L156.910889,24.5166016 L156.910889,21.5087891 L164.567139,21.5087891 L164.567139,36.496582 L166.959717,37.0092773 L166.959717,40 L157.167236,40 L157.167236,37.0092773 Z M164.567139,17.0825195 L159.576904,17.0825195 L159.576904,13.3398438 L164.567139,13.3398438 L164.567139,17.0825195 Z M183.690674,27.8662109 L180.341064,27.8662109 L179.811279,25.559082 C179.469481,25.2856432 179.039391,25.0577809 178.520996,24.8754883 C178.002602,24.6931957 177.430098,24.6020508 176.803467,24.6020508 C175.926184,24.6020508 175.231204,24.798582 174.718506,25.1916504 C174.205808,25.5847188 173.949463,26.077471 173.949463,26.6699219 C173.949463,27.2281929 174.194415,27.6924623 174.684326,28.0627441 C175.174237,28.4330259 176.154045,28.760578 177.623779,29.0454102 C179.91383,29.5011416 181.611404,30.1704871 182.716553,31.0534668 C183.821701,31.9364465 184.374268,33.1526615 184.374268,34.7021484 C184.374268,36.3655682 183.65935,37.7241972 182.229492,38.7780762 C180.799635,39.8319551 178.916922,40.3588867 176.581299,40.3588867 C175.157138,40.3588867 173.849778,40.1509624 172.65918,39.7351074 C171.468581,39.3192525 170.41187,38.7239622 169.489014,37.9492188 L169.437744,33.7963867 L172.924072,33.7963867 L173.607666,36.2060547 C173.903891,36.456707 174.308347,36.6418451 174.821045,36.7614746 C175.333743,36.8811041 175.869219,36.940918 176.42749,36.940918 C177.441493,36.940918 178.213376,36.7586281 178.743164,36.394043 C179.272952,36.0294578 179.537842,35.5338573 179.537842,34.9072266 C179.537842,34.3603488 179.270104,33.8875345 178.734619,33.4887695 C178.199135,33.0900045 177.21363,32.7368179 175.778076,32.4291992 C173.601959,31.9848611 171.958502,31.3269087 170.847656,30.4553223 C169.736811,29.5837359 169.181396,28.3960036 169.181396,26.8920898 C169.181396,25.3426029 169.819411,24.0067602 171.095459,22.8845215 C172.371507,21.7622828 174.188709,21.2011719 176.547119,21.2011719 C177.982673,21.2011719 179.341302,21.3948548 180.623047,21.7822266 C181.904792,22.1695983 182.910234,22.6651988 183.639404,23.269043 L183.690674,27.8662109 Z M186.3396,37.0092773 L188.749268,36.496582 L188.749268,16.8603516 L186.083252,16.3476562 L186.083252,13.3398438 L193.722412,13.3398438 L193.722412,23.8671875 C194.30347,23.012691 195.015539,22.3490421 195.858643,21.8762207 C196.701746,21.4033993 197.635981,21.1669922 198.661377,21.1669922 C200.598236,21.1669922 202.116368,21.8078549 203.21582,23.0895996 C204.315272,24.3713443 204.86499,26.3508981 204.86499,29.0283203 L204.86499,36.496582 L207.257568,37.0092773 L207.257568,40 L197.721436,40 L197.721436,37.0092773 L199.874756,36.496582 L199.874756,28.9941406 C199.874756,27.5585866 199.621259,26.541751 199.114258,25.9436035 C198.607257,25.345456 197.852463,25.0463867 196.849854,25.0463867 C196.154863,25.0463867 195.54818,25.171711 195.029785,25.4223633 C194.511391,25.6730156 194.075604,26.0262021 193.722412,26.4819336 L193.722412,36.496582 L195.875732,37.0092773 L195.875732,40 L186.3396,40 L186.3396,37.0092773 Z M208.693115,30.5834961 C208.693115,27.8263208 209.464999,25.5676358 211.008789,23.807373 C212.552579,22.0471103 214.68594,21.1669922 217.408936,21.1669922 C220.143324,21.1669922 222.282382,22.0442621 223.826172,23.7988281 C225.369962,25.5533942 226.141846,27.8149276 226.141846,30.5834961 L226.141846,30.9423828 C226.141846,33.7223446 225.369962,35.9867263 223.826172,37.7355957 C222.282382,39.4844651 220.154717,40.3588867 217.443115,40.3588867 C214.697333,40.3588867 212.552579,39.4844651 211.008789,37.7355957 C209.464999,35.9867263 208.693115,33.7223446 208.693115,30.9423828 L208.693115,30.5834961 Z M213.68335,30.9423828 C213.68335,32.6285892 213.979571,33.9815216 214.572021,35.0012207 C215.164472,36.0209198 216.121494,36.5307617 217.443115,36.5307617 C218.730557,36.5307617 219.673337,36.0180715 220.271484,34.9926758 C220.869632,33.96728 221.168701,32.6171959 221.168701,30.9423828 L221.168701,30.5834961 C221.168701,28.9428629 220.866784,27.6041719 220.262939,26.5673828 C219.659095,25.5305938 218.70777,25.012207 217.408936,25.012207 C216.110101,25.012207 215.164472,25.5305938 214.572021,26.5673828 C213.979571,27.6041719 213.68335,28.9428629 213.68335,30.5834961 L213.68335,30.9423828 Z M234.41333,40 L229.440186,40 L229.440186,35.625 L234.41333,35.625 L234.41333,40 Z" id="Toprirekisho." fill="#FFFFFF"></path>
        </g>
    </g>
</svg>