<?xml version="1.0" encoding="UTF-8" standalone="no"?>
<svg width="204px" height="64px" viewBox="0 0 204 64" version="1.1" xmlns="http://www.w3.org/2000/svg" xmlns:xlink="http://www.w3.org/1999/xlink">
    <!-- Generator: Sketch 43.2 (39069) - http://www.bohemiancoding.com/sketch -->
    <title>coach</title>
    <desc>Created with Sketch.</desc>
    <defs></defs>
    <g id="Page-1" stroke="none" stroke-width="1" fill="none" fill-rule="evenodd">
        <g id="coach" fill="#FFFFFF">
            <path d="M32.8539838,27.6248236 L31.4813655,27.6248236 L31.2304568,24.3630102 C30.6597596,23.6840774 29.9168804,23.1355275 29.001797,22.7173442 C28.0867136,22.2991609 27.0289717,22.0900724 25.8285397,22.0900724 C23.4276756,22.0900724 21.5188205,22.9633244 20.1019171,24.7098546 C18.6850137,26.4563848 17.9765727,28.7120809 17.9765727,31.4770104 L17.9765727,31.7869565 C17.9765727,34.551886 18.6776342,36.8125017 20.0797781,38.5688715 C21.4819221,40.3252414 23.3243608,41.2034131 25.6071496,41.2034131 C26.8174213,41.2034131 27.9169808,40.9918647 28.9058613,40.5687616 C29.8947418,40.1456585 30.6695992,39.5995685 31.2304568,38.9304753 L31.4813655,35.6686619 L32.8539838,35.6686619 L32.8539838,39.4470521 C32.1848905,40.3719751 31.2083242,41.1443726 29.9242555,41.7642679 C28.6401868,42.3841631 27.2011659,42.6941061 25.6071496,42.6941061 C22.8520597,42.6941061 20.5988235,41.6732622 18.8473735,39.6315438 C17.0959235,37.5898253 16.2202117,34.9749891 16.2202117,31.7869565 L16.2202117,31.5065291 C16.2202117,28.3086568 17.0934637,25.6889008 18.8399939,23.6471824 C20.5865241,21.605464 22.8717385,20.5846201 25.6957056,20.5846201 C27.2897219,20.5846201 28.7139837,20.8970229 29.9685335,21.521838 C31.2230834,22.146653 32.1848905,22.9215104 32.8539838,23.8464335 L32.8539838,27.6248236 Z M35.9720005,34.1632096 C35.9720005,31.8115436 36.616485,29.8830096 37.9054735,28.3775497 C39.194462,26.8720899 40.9016082,26.1193713 43.0269633,26.1193713 C45.1621579,26.1193713 46.8742239,26.8720899 48.1632123,28.3775497 C49.4522008,29.8830096 50.0966854,31.8115436 50.0966854,34.1632096 L50.0966854,34.6502677 C50.0966854,37.0117734 49.4546607,38.9427672 48.170592,40.4433073 C46.8865233,41.9438473 45.181837,42.6941061 43.0564819,42.6941061 C40.9114477,42.6941061 39.194462,41.9438473 37.9054735,40.4433073 C36.616485,38.9427672 35.9720005,37.0117734 35.9720005,34.6502677 L35.9720005,34.1632096 Z M37.7431208,34.6502677 C37.7431208,36.5001138 38.2104951,38.0547484 39.1452578,39.314218 C40.0800204,40.5736877 41.3837488,41.2034131 43.0564819,41.2034131 C44.6996963,41.2034131 45.9886654,40.5736877 46.9234281,39.314218 C47.8581907,38.0547484 48.325565,36.5001138 48.325565,34.6502677 L48.325565,34.1632096 C48.325565,32.3428824 47.8557309,30.7980873 46.9160484,29.528778 C45.976366,28.2594687 44.6800172,27.6248236 43.0269633,27.6248236 C41.3739093,27.6248236 40.0800204,28.2594687 39.1452578,29.528778 C38.2104951,30.7980873 37.7431208,32.3428824 37.7431208,34.1632096 L37.7431208,34.6502677 Z M63.9299803,42.38416 C63.811905,41.8429816 63.7282696,41.3756073 63.6790716,40.982023 C63.6298736,40.5884388 63.6052749,40.1899407 63.6052749,39.7865168 C63.0148985,40.6228834 62.2277418,41.3165652 61.2437811,41.8675832 C60.2598204,42.4186012 59.1528813,42.6941061 57.9229304,42.6941061 C56.3584329,42.6941061 55.1481794,42.2906882 54.2921336,41.4838405 C53.4360878,40.6769927 53.0080714,39.5848127 53.0080714,38.2072678 C53.0080714,36.7313268 53.6427165,35.5604311 54.9120258,34.6945457 C56.181335,33.8286603 57.9032404,33.3957241 60.0777935,33.3957241 L63.6052749,33.3957241 L63.6052749,31.285139 C63.6052749,30.1437446 63.2387551,29.2483538 62.5057044,28.5989398 C61.7726537,27.9495257 60.74689,27.6248236 59.4283827,27.6248236 C58.5428181,27.6248236 57.7335226,27.745357 57.0004719,27.9864273 C56.2674212,28.2274977 55.6549148,28.5546597 55.1629345,28.9679232 L55.0153411,31.108027 L53.5541668,31.108027 L53.5689262,28.038085 C54.3068967,27.4673878 55.1899881,27.0049332 56.218227,26.6507074 C57.246466,26.2964815 58.3411058,26.1193713 59.5021794,26.1193713 C61.263469,26.1193713 62.6803511,26.5670667 63.7528683,27.4624709 C64.8253854,28.3578751 65.361636,29.6419245 65.361636,31.3146577 L65.361636,39.1666247 C65.361636,39.4913317 65.3690156,39.8037345 65.383775,40.1038425 C65.3985344,40.4039505 65.4305126,40.6966744 65.4797106,40.982023 L67.073719,41.0853384 L67.073719,42.38416 L63.9299803,42.38416 Z M58.1148018,41.1296164 C59.3939507,41.1296164 60.5205687,40.8344326 61.4946898,40.2440562 C62.4688109,39.6536798 63.1723322,38.8911217 63.6052749,37.9563591 L63.6052749,34.7535831 L60.0482748,34.7535831 C58.4444189,34.7535831 57.1628294,35.0856648 56.2034677,35.7498383 C55.244106,36.4140117 54.7644324,37.2528256 54.7644324,38.2663051 C54.7644324,39.1223509 55.062076,39.8135729 55.6573723,40.3399919 C56.2526685,40.8664109 57.0718035,41.1296164 58.1148018,41.1296164 Z M76.3316196,41.2034131 C77.5025328,41.2034131 78.535676,40.8688715 79.4310802,40.1997782 C80.3264845,39.5306849 80.7741799,38.6008561 80.7741799,37.4102636 L82.3386695,37.4102636 L82.3681882,37.4988196 C82.4173862,38.9747607 81.8294785,40.2096128 80.6044475,41.2034131 C79.3794164,42.1972134 77.9551547,42.6941061 76.3316196,42.6941061 C74.1669061,42.6941061 72.4892783,41.948767 71.2986859,40.4580666 C70.1080935,38.9673662 69.5128062,37.0511315 69.5128062,34.7093051 L69.5128062,34.0894129 C69.5128062,31.7672657 70.1080935,29.8584106 71.2986859,28.3627904 C72.4892783,26.8671702 74.1619864,26.1193713 76.3168603,26.1193713 C77.5468111,26.1193713 78.6734292,26.3505986 79.6967483,26.8130601 C80.7200674,27.2755216 81.5515017,27.905247 82.1910762,28.7022551 L82.2648728,32.1854585 L80.7594205,32.1854585 L80.4789931,29.3516659 C80.006692,28.8203272 79.4187843,28.3996903 78.7152524,28.0897427 C78.0117205,27.7797951 77.2122645,27.6248236 76.3168603,27.6248236 C74.6047687,27.6248236 73.3379383,28.2373299 72.5163311,29.462361 C71.694724,30.687392 71.2839265,32.2297272 71.2839265,34.0894129 L71.2839265,34.7093051 C71.2839265,36.5985096 71.6922641,38.1531441 72.5089515,39.3732554 C73.3256388,40.5933666 74.5998488,41.2034131 76.3316196,41.2034131 Z M85.0729434,20.6731761 L85.0729434,19.3595952 L89.2350763,19.3595952 L89.2350763,29.1450352 C89.7664151,28.1905934 90.4748561,27.4477142 91.3604208,26.9163754 C92.2459854,26.3850367 93.2791286,26.1193713 94.4598814,26.1193713 C96.1424542,26.1193713 97.4338832,26.6408626 98.3342072,27.6838609 C99.2345312,28.7268592 99.6846865,30.3454503 99.6846865,32.5396826 L99.6846865,40.893467 L102.090458,41.0853384 L102.090458,42.38416 L95.5077943,42.38416 L95.5077943,41.0853384 L97.9135661,40.893467 L97.9135661,32.5101639 C97.9135661,30.7783931 97.5716449,29.5361614 96.8877922,28.7834315 C96.2039396,28.0307016 95.2618114,27.6543423 94.0613793,27.6543423 C92.8511077,27.6543423 91.8401032,27.9716648 91.0283357,28.6063195 C90.2165681,29.2409741 89.618821,30.0847077 89.2350763,31.1375456 L89.2350763,40.893467 L91.6408481,41.0853384 L91.6408481,42.38416 L85.0729434,42.38416 L85.0729434,41.0853384 L87.4787153,40.893467 L87.4787153,20.8650475 L85.0729434,20.6731761 Z" id="Coach"></path>
        </g>
    </g>
</svg>