<?xml version="1.0" encoding="UTF-8" standalone="no"?>
<svg width="204px" height="64px" viewBox="0 0 204 64" version="1.1" xmlns="http://www.w3.org/2000/svg" xmlns:xlink="http://www.w3.org/1999/xlink">
    <!-- Generator: Sketch 43.2 (39069) - http://www.bohemiancoding.com/sketch -->
    <title>cocver letters</title>
    <desc>Created with Sketch.</desc>
    <defs></defs>
    <g id="Page-1" stroke="none" stroke-width="1" fill="none" fill-rule="evenodd">
        <g id="cocver-letters" fill="#FFFFFF">
            <path d="M32.8539838,27.6248236 L31.4813655,27.6248236 L31.2304568,24.3630102 C30.6597596,23.6840774 29.9168804,23.1355275 29.001797,22.7173442 C28.0867136,22.2991609 27.0289717,22.0900724 25.8285397,22.0900724 C23.4276756,22.0900724 21.5188205,22.9633244 20.1019171,24.7098546 C18.6850137,26.4563848 17.9765727,28.7120809 17.9765727,31.4770104 L17.9765727,31.7869565 C17.9765727,34.551886 18.6776342,36.8125017 20.0797781,38.5688715 C21.4819221,40.3252414 23.3243608,41.2034131 25.6071496,41.2034131 C26.8174213,41.2034131 27.9169808,40.9918647 28.9058613,40.5687616 C29.8947418,40.1456585 30.6695992,39.5995685 31.2304568,38.9304753 L31.4813655,35.6686619 L32.8539838,35.6686619 L32.8539838,39.4470521 C32.1848905,40.3719751 31.2083242,41.1443726 29.9242555,41.7642679 C28.6401868,42.3841631 27.2011659,42.6941061 25.6071496,42.6941061 C22.8520597,42.6941061 20.5988235,41.6732622 18.8473735,39.6315438 C17.0959235,37.5898253 16.2202117,34.9749891 16.2202117,31.7869565 L16.2202117,31.5065291 C16.2202117,28.3086568 17.0934637,25.6889008 18.8399939,23.6471824 C20.5865241,21.605464 22.8717385,20.5846201 25.6957056,20.5846201 C27.2897219,20.5846201 28.7139837,20.8970229 29.9685335,21.521838 C31.2230834,22.146653 32.1848905,22.9215104 32.8539838,23.8464335 L32.8539838,27.6248236 Z M35.9720005,34.1632096 C35.9720005,31.8115436 36.616485,29.8830096 37.9054735,28.3775497 C39.194462,26.8720899 40.9016082,26.1193713 43.0269633,26.1193713 C45.1621579,26.1193713 46.8742239,26.8720899 48.1632123,28.3775497 C49.4522008,29.8830096 50.0966854,31.8115436 50.0966854,34.1632096 L50.0966854,34.6502677 C50.0966854,37.0117734 49.4546607,38.9427672 48.170592,40.4433073 C46.8865233,41.9438473 45.181837,42.6941061 43.0564819,42.6941061 C40.9114477,42.6941061 39.194462,41.9438473 37.9054735,40.4433073 C36.616485,38.9427672 35.9720005,37.0117734 35.9720005,34.6502677 L35.9720005,34.1632096 Z M37.7431208,34.6502677 C37.7431208,36.5001138 38.2104951,38.0547484 39.1452578,39.314218 C40.0800204,40.5736877 41.3837488,41.2034131 43.0564819,41.2034131 C44.6996963,41.2034131 45.9886654,40.5736877 46.9234281,39.314218 C47.8581907,38.0547484 48.325565,36.5001138 48.325565,34.6502677 L48.325565,34.1632096 C48.325565,32.3428824 47.8557309,30.7980873 46.9160484,29.528778 C45.976366,28.2594687 44.6800172,27.6248236 43.0269633,27.6248236 C41.3739093,27.6248236 40.0800204,28.2594687 39.1452578,29.528778 C38.2104951,30.7980873 37.7431208,32.3428824 37.7431208,34.1632096 L37.7431208,34.6502677 Z M57.3177976,27.7281389 L55.3252872,27.8757323 L59.310308,38.3843798 L59.8268848,40.2588156 L59.9154408,40.2588156 L60.4762956,38.3843798 L64.4022791,27.8757323 L62.4097687,27.7281389 L62.4097687,26.414558 L67.7821671,26.414558 L67.7821671,27.7281389 L66.2176775,27.860973 L60.579611,42.38416 L59.1627147,42.38416 L53.5098888,27.860973 L51.9453992,27.7281389 L51.9453992,26.414558 L57.3177976,26.414558 L57.3177976,27.7281389 Z M76.5087316,42.6941061 C74.5014518,42.6941061 72.8385832,41.9586065 71.5200759,40.4875853 C70.2015686,39.0165641 69.5423248,37.1446069 69.5423248,34.8716578 L69.5423248,34.0598943 C69.5423248,31.7771055 70.1991087,29.8830096 71.5126963,28.3775497 C72.8262838,26.8720899 74.4128966,26.1193713 76.2725823,26.1193713 C78.230664,26.1193713 79.7705394,26.7392572 80.8922546,27.9790477 C82.0139697,29.2188381 82.5748189,30.8718673 82.5748189,32.9381847 L82.5748189,34.443637 L71.2986859,34.443637 L71.2986859,34.8716578 C71.2986859,36.6624662 71.7783595,38.1654436 72.7377212,39.380635 C73.6970828,40.5958265 74.9540738,41.2034131 76.5087316,41.2034131 C77.600928,41.2034131 78.5356766,41.0509015 79.3130056,40.7458737 C80.0903345,40.4408458 80.754498,40.0029899 81.305516,39.4322927 L82.0582421,40.6425583 C81.4580261,41.2722931 80.7003878,41.7716457 79.7853043,42.1406309 C78.8702209,42.5096162 77.7780409,42.6941061 76.5087316,42.6941061 Z M76.2725823,27.6248236 C74.9737542,27.6248236 73.8791143,28.1241761 72.9886299,29.1228962 C72.0981455,30.1216163 71.579114,31.3736875 71.4315199,32.8791473 L71.4610386,32.952944 L80.8184579,32.952944 L80.8184579,32.5101639 C80.8184579,31.1227794 80.4101203,29.9617232 79.5934329,29.0269605 C78.7767456,28.0921979 77.6698064,27.6248236 76.2725823,27.6248236 Z M89.485985,26.414558 L89.7073751,29.0712385 L89.7073751,29.2631099 C90.159997,28.2791492 90.7774231,27.5092116 91.5596718,26.9532738 C92.3419205,26.397336 93.2692896,26.1193713 94.3418067,26.1193713 C94.5681177,26.1193713 94.7870456,26.1365903 94.9985972,26.1710289 C95.2101487,26.2054676 95.3847991,26.2423655 95.5225536,26.281724 L95.2864042,27.9347696 L93.9728233,27.8462136 C92.8609477,27.8462136 91.9483379,28.1586165 91.2349664,28.7834315 C90.5215949,29.4082465 90.0124029,30.2667393 89.7073751,31.3589357 L89.7073751,40.893467 L92.1131469,41.0853384 L92.1131469,42.38416 L85.5452422,42.38416 L85.5452422,41.0853384 L87.951014,40.893467 L87.951014,27.9200103 L85.5452422,27.7281389 L85.5452422,26.414558 L89.485985,26.414558 Z M104.666176,20.6731761 L104.666176,19.3595952 L108.828309,19.3595952 L108.828309,40.893467 L111.234081,41.0853384 L111.234081,42.38416 L104.666176,42.38416 L104.666176,41.0853384 L107.071948,40.893467 L107.071948,20.8650475 L104.666176,20.6731761 Z M120.993799,42.6941061 C118.986519,42.6941061 117.323651,41.9586065 116.005143,40.4875853 C114.686636,39.0165641 114.027392,37.1446069 114.027392,34.8716578 L114.027392,34.0598943 C114.027392,31.7771055 114.684176,29.8830096 115.997764,28.3775497 C117.311351,26.8720899 118.897964,26.1193713 120.75765,26.1193713 C122.715731,26.1193713 124.255607,26.7392572 125.377322,27.9790477 C126.499037,29.2188381 127.059886,30.8718673 127.059886,32.9381847 L127.059886,34.443637 L115.783753,34.443637 L115.783753,34.8716578 C115.783753,36.6624662 116.263427,38.1654436 117.222789,39.380635 C118.18215,40.5958265 119.439141,41.2034131 120.993799,41.2034131 C122.085995,41.2034131 123.020744,41.0509015 123.798073,40.7458737 C124.575402,40.4408458 125.239565,40.0029899 125.790583,39.4322927 L126.543309,40.6425583 C125.943093,41.2722931 125.185455,41.7716457 124.270372,42.1406309 C123.355288,42.5096162 122.263108,42.6941061 120.993799,42.6941061 Z M120.75765,27.6248236 C119.458822,27.6248236 118.364182,28.1241761 117.473697,29.1228962 C116.583213,30.1216163 116.064181,31.3736875 115.916587,32.8791473 L115.946106,32.952944 L125.303525,32.952944 L125.303525,32.5101639 C125.303525,31.1227794 124.895188,29.9617232 124.0785,29.0269605 C123.261813,28.0921979 122.154874,27.6248236 120.75765,27.6248236 Z M134.207202,22.3262218 L134.207202,26.414558 L137.719924,26.414558 L137.719924,27.860973 L134.207202,27.860973 L134.207202,38.2663051 C134.207202,39.3093035 134.396611,40.0497228 134.775436,40.4875853 C135.154261,40.9254478 135.658533,41.1443757 136.288268,41.1443757 C136.573617,41.1443757 136.851582,41.1320764 137.122171,41.1074774 C137.39276,41.0828784 137.705163,41.0410607 138.059389,40.982023 L138.325057,42.295604 C138.029868,42.4235189 137.670728,42.5219135 137.247625,42.5907907 C136.824522,42.659668 136.401425,42.6941061 135.978322,42.6941061 C134.856607,42.6941061 133.983355,42.3398855 133.35854,41.6314338 C132.733725,40.9229822 132.421322,39.8012838 132.421322,38.2663051 L132.421322,27.860973 L129.676085,27.860973 L129.676085,26.414558 L132.421322,26.414558 L132.421322,22.3262218 L134.207202,22.3262218 Z M144.955795,22.3262218 L144.955795,26.414558 L148.468517,26.414558 L148.468517,27.860973 L144.955795,27.860973 L144.955795,38.2663051 C144.955795,39.3093035 145.145205,40.0497228 145.52403,40.4875853 C145.902855,40.9254478 146.407127,41.1443757 147.036862,41.1443757 C147.32221,41.1443757 147.600175,41.1320764 147.870764,41.1074774 C148.141353,41.0828784 148.453756,41.0410607 148.807982,40.982023 L149.07365,42.295604 C148.778462,42.4235189 148.419322,42.5219135 147.996219,42.5907907 C147.573116,42.659668 147.150019,42.6941061 146.726916,42.6941061 C145.605201,42.6941061 144.731949,42.3398855 144.107134,41.6314338 C143.482318,40.9229822 143.169916,39.8012838 143.169916,38.2663051 L143.169916,27.860973 L140.424679,27.860973 L140.424679,26.414558 L143.169916,26.414558 L143.169916,22.3262218 L144.955795,22.3262218 Z M158.685775,42.6941061 C156.678495,42.6941061 155.015627,41.9586065 153.697119,40.4875853 C152.378612,39.0165641 151.719368,37.1446069 151.719368,34.8716578 L151.719368,34.0598943 C151.719368,31.7771055 152.376152,29.8830096 153.68974,28.3775497 C155.003327,26.8720899 156.58994,26.1193713 158.449626,26.1193713 C160.407707,26.1193713 161.947583,26.7392572 163.069298,27.9790477 C164.191013,29.2188381 164.751862,30.8718673 164.751862,32.9381847 L164.751862,34.443637 L153.475729,34.443637 L153.475729,34.8716578 C153.475729,36.6624662 153.955403,38.1654436 154.914764,39.380635 C155.874126,40.5958265 157.131117,41.2034131 158.685775,41.2034131 C159.777971,41.2034131 160.71272,41.0509015 161.490049,40.7458737 C162.267378,40.4408458 162.931541,40.0029899 163.482559,39.4322927 L164.235285,40.6425583 C163.635069,41.2722931 162.877431,41.7716457 161.962348,42.1406309 C161.047264,42.5096162 159.955084,42.6941061 158.685775,42.6941061 Z M158.449626,27.6248236 C157.150797,27.6248236 156.056158,28.1241761 155.165673,29.1228962 C154.275189,30.1216163 153.756157,31.3736875 153.608563,32.8791473 L153.638082,32.952944 L162.995501,32.952944 L162.995501,32.5101639 C162.995501,31.1227794 162.587164,29.9617232 161.770476,29.0269605 C160.953789,28.0921979 159.84685,27.6248236 158.449626,27.6248236 Z M171.663028,26.414558 L171.884418,29.0712385 L171.884418,29.2631099 C172.33704,28.2791492 172.954466,27.5092116 173.736715,26.9532738 C174.518964,26.397336 175.446333,26.1193713 176.51885,26.1193713 C176.745161,26.1193713 176.964089,26.1365903 177.17564,26.1710289 C177.387192,26.2054676 177.561842,26.2423655 177.699597,26.281724 L177.463448,27.9347696 L176.149867,27.8462136 C175.037991,27.8462136 174.125381,28.1586165 173.41201,28.7834315 C172.698638,29.4082465 172.189446,30.2667393 171.884418,31.3589357 L171.884418,40.893467 L174.29019,41.0853384 L174.29019,42.38416 L167.722285,42.38416 L167.722285,41.0853384 L170.128057,40.893467 L170.128057,27.9200103 L167.722285,27.7281389 L167.722285,26.414558 L171.663028,26.414558 Z M191.503373,31.3441764 L190.056958,31.3441764 L189.850327,29.0859979 C189.407545,28.6235364 188.849156,28.2643961 188.175143,28.0085663 C187.50113,27.7527366 186.726272,27.6248236 185.850547,27.6248236 C184.561559,27.6248236 183.594832,27.9027883 182.950338,28.4587261 C182.305843,29.0146639 181.983601,29.666528 181.983601,30.4143382 C181.983601,31.1523087 182.261566,31.7623551 182.817504,32.2444959 C183.373441,32.7266366 184.48284,33.1497334 186.145734,33.5137988 C188.044778,33.9369019 189.46658,34.5149701 190.411182,35.2480208 C191.355785,35.9810715 191.828079,36.9773168 191.828079,38.2367865 C191.828079,39.5651334 191.289368,40.6400943 190.211931,41.4617015 C189.134494,42.2833086 187.710233,42.6941061 185.939103,42.6941061 C184.75835,42.6941061 183.68339,42.5292951 182.714188,42.1996683 C181.744987,41.8700415 180.906173,41.405127 180.197721,40.804911 L180.197721,37.5873757 L181.629377,37.5873757 L181.880286,39.8603135 C182.352587,40.3326146 182.950334,40.6745358 183.673545,40.8860874 C184.396756,41.0976389 185.151935,41.2034131 185.939103,41.2034131 C187.218252,41.2034131 188.226797,40.9229885 188.964767,40.3621309 C189.702738,39.8012733 190.071718,39.1223506 190.071718,38.3253425 C190.071718,37.5775324 189.764234,36.9232083 189.149259,36.3623507 C188.534284,35.8014932 187.424885,35.3439583 185.821029,34.9897325 C183.921985,34.576469 182.512482,34.0279191 181.592479,33.3440664 C180.672476,32.6602138 180.212481,31.7033264 180.212481,30.4733755 C180.212481,29.2532643 180.729052,28.2225809 181.762211,27.3812945 C182.79537,26.5400081 184.158135,26.1193713 185.850547,26.1193713 C187.021461,26.1193713 188.091502,26.2989414 189.060703,26.658087 C190.029904,27.0172327 190.819521,27.5018261 191.429576,28.1118817 L191.503373,31.3441764 Z" id="Cover-letters"></path>
        </g>
    </g>
</svg>