<?xml version="1.0" encoding="UTF-8" standalone="no"?>
<svg width="204px" height="64px" viewBox="0 0 204 64" version="1.1" xmlns="http://www.w3.org/2000/svg" xmlns:xlink="http://www.w3.org/1999/xlink">
    <!-- Generator: Sketch 43.2 (39069) - http://www.bohemiancoding.com/sketch -->
    <title>Examples</title>
    <desc>Created with Sketch.</desc>
    <defs></defs>
    <g id="Page-1" stroke="none" stroke-width="1" fill="none" fill-rule="evenodd">
        <g id="Examples" fill="#FFFFFF">
            <path d="M28.7213696,31.9788278 L19.9100458,31.9788278 L19.9100458,40.893467 L30.0644692,40.893467 L30.1973032,37.6759317 L31.7617929,37.6759317 L31.7617929,42.38416 L15.7479129,42.38416 L15.7479129,41.0853384 L18.1536847,40.893467 L18.1536847,22.4000185 L15.7479129,22.2081471 L15.7479129,20.8945662 L31.6879962,20.8945662 L31.6879962,25.6175538 L30.1235066,25.6175538 L29.9906725,22.4000185 L19.9100458,22.4000185 L19.9100458,30.4733755 L28.7213696,30.4733755 L28.7213696,31.9788278 Z M34.6879382,41.0853384 L36.4738179,40.9229857 L41.521511,34.2517656 L36.7099673,27.8904916 L34.9093282,27.7281389 L34.9093282,26.414558 L40.3260047,26.414558 L40.3260047,27.7281389 L38.672959,27.816695 L42.4808678,32.9381847 L46.303536,27.8019356 L44.6652496,27.7281389 L44.6652496,26.414558 L50.0819261,26.414558 L50.0819261,27.7281389 L48.2960464,27.8904916 L43.4845027,34.2517656 L48.5174364,40.9229857 L50.3180755,41.0853384 L50.3180755,42.38416 L44.9161583,42.38416 L44.9161583,41.0853384 L46.5544447,41.0115417 L42.4956272,35.5801059 L38.451569,41.0115417 L40.0898553,41.0853384 L40.0898553,42.38416 L34.6879382,42.38416 L34.6879382,41.0853384 Z M63.5905156,42.38416 C63.4724403,41.8429816 63.3888049,41.3756073 63.3396069,40.982023 C63.2904088,40.5884388 63.2658102,40.1899407 63.2658102,39.7865168 C62.6754338,40.6228834 61.888277,41.3165652 60.9043164,41.8675832 C59.9203557,42.4186012 58.8134165,42.6941061 57.5834657,42.6941061 C56.0189682,42.6941061 54.8087147,42.2906882 53.9526689,41.4838405 C53.0966231,40.6769927 52.6686066,39.5848127 52.6686066,38.2072678 C52.6686066,36.7313268 53.3032518,35.5604311 54.572561,34.6945457 C55.8418703,33.8286603 57.5637757,33.3957241 59.7383288,33.3957241 L63.2658102,33.3957241 L63.2658102,31.285139 C63.2658102,30.1437446 62.8992903,29.2483538 62.1662396,28.5989398 C61.4331889,27.9495257 60.4074253,27.6248236 59.088918,27.6248236 C58.2033534,27.6248236 57.3940578,27.745357 56.6610071,27.9864273 C55.9279564,28.2274977 55.3154501,28.5546597 54.8234698,28.9679232 L54.6758764,31.108027 L53.2147021,31.108027 L53.2294614,28.038085 C53.9674319,27.4673878 54.8505234,27.0049332 55.8787623,26.6507074 C56.9070012,26.2964815 58.0016411,26.1193713 59.1627147,26.1193713 C60.9240043,26.1193713 62.3408864,26.5670667 63.4134035,27.4624709 C64.4859207,28.3578751 65.0221712,29.6419245 65.0221712,31.3146577 L65.0221712,39.1666247 C65.0221712,39.4913317 65.0295508,39.8037345 65.0443102,40.1038425 C65.0590696,40.4039505 65.0910479,40.6966744 65.1402459,40.982023 L66.7342542,41.0853384 L66.7342542,42.38416 L63.5905156,42.38416 Z M57.775337,41.1296164 C59.0544859,41.1296164 60.181104,40.8344326 61.1552251,40.2440562 C62.1293462,39.6536798 62.8328675,38.8911217 63.2658102,37.9563591 L63.2658102,34.7535831 L59.7088101,34.7535831 C58.1049542,34.7535831 56.8233646,35.0856648 55.864003,35.7498383 C54.9046413,36.4140117 54.4249677,37.2528256 54.4249677,38.2663051 C54.4249677,39.1223509 54.7226113,39.8135729 55.3179075,40.3399919 C55.9132037,40.8664109 56.7323387,41.1296164 57.775337,41.1296164 Z M68.7895987,27.7281389 L68.7895987,26.414558 L72.7598602,26.414558 L72.9222129,29.0564792 C73.4338724,28.1217166 74.1177149,27.3985163 74.9737606,26.8868568 C75.8298064,26.3751972 76.8481905,26.1193713 78.0289433,26.1193713 C79.2490545,26.1193713 80.2674386,26.4170149 81.0841259,27.0123111 C81.9008133,27.6076073 82.4862611,28.5152974 82.840487,29.7354087 C83.3226277,28.6136935 84.00893,27.730602 84.8994144,27.0861078 C85.7898988,26.4416136 86.8746992,26.1193713 88.1538481,26.1193713 C89.8561,26.1193713 91.1721277,26.6851402 92.1019706,27.816695 C93.0318134,28.9482497 93.4967279,30.6996735 93.4967279,33.0710187 L93.4967279,40.8787077 L95.9024997,41.0853384 L95.9024997,42.38416 L89.3050763,42.38416 L89.3050763,41.0853384 L91.7108481,40.8787077 L91.7108481,33.0415 C91.7108481,31.0735787 91.3640072,29.6837551 90.6703149,28.8719875 C89.9766226,28.0602199 89.0098958,27.6543423 87.7701053,27.6543423 C86.3925604,27.6543423 85.3323586,28.0921982 84.5894683,28.9679232 C83.846578,29.8436482 83.3865833,30.9604268 83.2094704,32.3182926 C83.2094704,32.3970094 83.2119302,32.4708054 83.21685,32.5396826 C83.2217698,32.6085599 83.2242297,32.697115 83.2242297,32.8053507 L83.2242297,40.893467 L85.6300015,41.0853384 L85.6300015,42.38416 L79.0473375,42.38416 L79.0473375,41.0853384 L81.4531093,40.893467 L81.4531093,33.0415 C81.4531093,31.1129371 81.1013487,29.732953 80.3978168,28.9015062 C79.6942849,28.0700594 78.727558,27.6543423 77.4976072,27.6543423 C76.2381375,27.6543423 75.2418923,27.9716648 74.5088415,28.6063195 C73.7757908,29.2409741 73.2616791,30.0945472 72.9664909,31.1670643 L72.9664909,40.893467 L75.3722627,41.0853384 L75.3722627,42.38416 L68.7895987,42.38416 L68.7895987,41.0853384 L71.1953705,40.893467 L71.1953705,27.9200103 L68.7895987,27.7281389 Z M97.5445827,27.7281389 L97.5445827,26.414558 L101.426288,26.414558 L101.647678,28.8941265 C102.188857,28.0085619 102.880079,27.3247195 103.721365,26.8425788 C104.562651,26.360438 105.549057,26.1193713 106.680612,26.1193713 C108.599335,26.1193713 110.099853,26.8843892 111.18221,28.4144481 C112.264566,29.9445069 112.805737,31.9837349 112.805737,34.532193 L112.805737,34.8421391 C112.805737,37.2331635 112.264566,39.1395588 111.18221,40.561382 C110.099853,41.9832051 108.609175,42.6941061 106.710131,42.6941061 C105.588415,42.6941061 104.606929,42.4800978 103.765643,42.0520749 C102.924357,41.624052 102.238054,41.0164654 101.706716,40.2292969 L101.706716,47.0185916 L104.112487,47.210463 L104.112487,48.524044 L97.5445827,48.524044 L97.5445827,47.210463 L99.9503546,47.0185916 L99.9503546,27.9200103 L97.5445827,27.7281389 Z M111.034616,34.532193 C111.034616,32.505234 110.631198,30.8522049 109.824351,29.573056 C109.017503,28.2939071 107.836768,27.6543423 106.28211,27.6543423 C105.091517,27.6543423 104.124791,27.9372267 103.3819,28.5030041 C102.63901,29.0687815 102.080621,29.8042811 101.706716,30.7095249 L101.706716,38.3843798 C102.110139,39.2601048 102.693127,39.948867 103.455697,40.4506869 C104.218266,40.9525069 105.170234,41.2034131 106.311629,41.2034131 C107.856447,41.2034131 109.029802,40.622885 109.83173,39.4618114 C110.633658,38.3007378 111.034616,36.7608624 111.034616,34.8421391 L111.034616,34.532193 Z M115.11199,20.6731761 L115.11199,19.3595952 L119.274123,19.3595952 L119.274123,40.893467 L121.679894,41.0853384 L121.679894,42.38416 L115.11199,42.38416 L115.11199,41.0853384 L117.517762,40.893467 L117.517762,20.8650475 L115.11199,20.6731761 Z M131.439612,42.6941061 C129.432333,42.6941061 127.769464,41.9586065 126.450957,40.4875853 C125.132449,39.0165641 124.473206,37.1446069 124.473206,34.8716578 L124.473206,34.0598943 C124.473206,31.7771055 125.12999,29.8830096 126.443577,28.3775497 C127.757165,26.8720899 129.343777,26.1193713 131.203463,26.1193713 C133.161545,26.1193713 134.70142,26.7392572 135.823135,27.9790477 C136.944851,29.2188381 137.5057,30.8718673 137.5057,32.9381847 L137.5057,34.443637 L126.229567,34.443637 L126.229567,34.8716578 C126.229567,36.6624662 126.70924,38.1654436 127.668602,39.380635 C128.627964,40.5958265 129.884955,41.2034131 131.439612,41.2034131 C132.531809,41.2034131 133.466557,41.0509015 134.243886,40.7458737 C135.021215,40.4408458 135.685379,40.0029899 136.236397,39.4322927 L136.989123,40.6425583 C136.388907,41.2722931 135.631269,41.7716457 134.716185,42.1406309 C133.801102,42.5096162 132.708922,42.6941061 131.439612,42.6941061 Z M131.203463,27.6248236 C129.904635,27.6248236 128.809995,28.1241761 127.919511,29.1228962 C127.029026,30.1216163 126.509995,31.3736875 126.362401,32.8791473 L126.391919,32.952944 L135.749339,32.952944 L135.749339,32.5101639 C135.749339,31.1227794 135.341001,29.9617232 134.524314,29.0269605 C133.707626,28.0921979 132.600687,27.6248236 131.203463,27.6248236 Z M152.180277,31.3441764 L150.733862,31.3441764 L150.527231,29.0859979 C150.084449,28.6235364 149.52606,28.2643961 148.852046,28.0085663 C148.178033,27.7527366 147.403176,27.6248236 146.527451,27.6248236 C145.238463,27.6248236 144.271736,27.9027883 143.627241,28.4587261 C142.982747,29.0146639 142.660505,29.666528 142.660505,30.4143382 C142.660505,31.1523087 142.93847,31.7623551 143.494407,32.2444959 C144.050345,32.7266366 145.159744,33.1497334 146.822638,33.5137988 C148.721682,33.9369019 150.143484,34.5149701 151.088086,35.2480208 C152.032688,35.9810715 152.504982,36.9773168 152.504982,38.2367865 C152.504982,39.5651334 151.966272,40.6400943 150.888835,41.4617015 C149.811398,42.2833086 148.387136,42.6941061 146.616007,42.6941061 C145.435254,42.6941061 144.360293,42.5292951 143.391092,42.1996683 C142.421891,41.8700415 141.583077,41.405127 140.874625,40.804911 L140.874625,37.5873757 L142.306281,37.5873757 L142.55719,39.8603135 C143.029491,40.3326146 143.627238,40.6745358 144.350449,40.8860874 C145.07366,41.0976389 145.828838,41.2034131 146.616007,41.2034131 C147.895156,41.2034131 148.9037,40.9229885 149.641671,40.3621309 C150.379641,39.8012733 150.748621,39.1223506 150.748621,38.3253425 C150.748621,37.5775324 150.441138,36.9232083 149.826163,36.3623507 C149.211187,35.8014932 148.101788,35.3439583 146.497932,34.9897325 C144.598888,34.576469 143.189386,34.0279191 142.269382,33.3440664 C141.349379,32.6602138 140.889384,31.7033264 140.889384,30.4733755 C140.889384,29.2532643 141.405956,28.2225809 142.439115,27.3812945 C143.472274,26.5400081 144.835039,26.1193713 146.527451,26.1193713 C147.698364,26.1193713 148.768405,26.2989414 149.737607,26.658087 C150.706808,27.0172327 151.496425,27.5018261 152.10648,28.1118817 L152.180277,31.3441764 Z"></path>
        </g>
    </g>
</svg>