<?xml version="1.0" encoding="UTF-8" standalone="no"?>
<svg width="318px" height="64px" viewBox="0 0 318 64" version="1.1" xmlns="http://www.w3.org/2000/svg" xmlns:xlink="http://www.w3.org/1999/xlink">
    <!-- Generator: Sketch 43.2 (39069) - http://www.bohemiancoding.com/sketch -->
    <title>resume</title>
    <desc>Created with Sketch.</desc>
    <defs></defs>
    <g id="Page-1" stroke="none" stroke-width="1" fill="none" fill-rule="evenodd">
        <g id="resume">
            <path d="M27.9701841,15.8493802 C31.4562162,15.8493802 34.1901802,16.6470793 36.1721582,18.2425012 C38.1541361,19.8379232 39.1451102,22.0412592 39.1451102,24.8525755 C39.1451102,26.3987994 38.7304473,27.7411828 37.901109,28.8797658 C37.0717707,30.0183489 35.8558947,30.9390412 34.2534444,31.6418702 C36.0667434,32.1760203 37.3704718,33.0650857 38.1646686,34.3090932 C38.9588654,35.5531006 39.3559579,37.0957872 39.3559579,38.9371994 L39.3559579,40.4974721 C39.3559579,41.172188 39.4894934,41.6957878 39.7565685,42.0682872 C40.0236435,42.4407866 40.4664192,42.6621744 41.0849087,42.7324573 L41.8439603,42.8378811 L41.8439603,46.5488 L38.6601606,46.5488 C36.6500695,46.5488 35.2374043,46.0076297 34.4221226,44.925273 C33.6068409,43.8429162 33.1992061,42.4443074 33.1992061,40.7294045 L33.1992061,38.9793689 C33.1992061,37.4893713 32.8021137,36.3191785 32.0079168,35.4687553 C31.21372,34.6183321 30.0927245,34.1720424 28.6448966,34.1298726 L23.6056375,34.1298726 L23.6056375,42.2264229 L26.894861,42.8589659 L26.894861,46.5488 L14.1807469,46.5488 L14.1807469,42.8589659 L17.4488857,42.2264229 L17.4488857,20.1928421 L14.1807469,19.5602991 L14.1807469,15.8493802 L27.9701841,15.8493802 Z M23.6056375,29.3858002 L27.8647603,29.3858002 C29.5796632,29.3858002 30.865821,29.0203346 31.7232725,28.2893924 C32.5807239,27.5584502 33.0094432,26.5042224 33.0094432,25.1266774 C33.0094432,23.7491325 32.584238,22.6492215 31.7338149,21.8269115 C30.8833917,21.0046015 29.6288607,20.5934527 27.9701841,20.5934527 L23.6056375,20.5934527 L23.6056375,29.3858002 Z M54.9376002,46.9915801 C51.6483602,46.9915801 49.019819,45.9373523 47.0518976,43.8288651 C45.0839762,41.720378 44.1000303,39.0426394 44.1000303,35.7955692 L44.1000303,34.9521785 C44.1000303,31.5645425 45.0312648,28.774353 46.8937618,26.5815263 C48.7562589,24.3886996 51.2547787,23.2993309 54.3893963,23.3133875 C57.4677875,23.3133875 59.8573705,24.241108 61.5582168,26.0965767 C63.2590631,27.9520454 64.1094735,30.4611075 64.1094735,33.6238382 L64.1094735,36.9763161 L50.4887145,36.9763161 L50.446545,37.1028247 C50.5589976,38.6068789 51.0615129,39.8438395 51.9541058,40.8137436 C52.8466987,41.7836477 54.0590606,42.2685924 55.591228,42.2685924 C56.9547163,42.2685924 58.0862541,42.1315428 58.9858753,41.8574395 C59.8854965,41.5833362 60.8694424,41.1511028 61.9377426,40.5607264 L63.6034392,44.3559843 C62.6616482,45.1009831 61.4422581,45.7264916 59.9452322,46.2325285 C58.4482063,46.7385654 56.7790123,46.9915801 54.9376002,46.9915801 Z M54.3893963,28.0574599 C53.2508132,28.0574599 52.3512055,28.4932074 51.6905462,29.3647155 C51.0298869,30.2362235 50.6222521,31.3818177 50.4676297,32.8015324 L50.530884,32.9069562 L58.0792304,32.9069562 L58.0792304,32.3587523 C58.0792304,31.0514902 57.7735043,30.0078047 57.162043,29.2276645 C56.5505818,28.4475242 55.6263754,28.0574599 54.3893963,28.0574599 Z M85.6370199,31.5786159 L81.5044058,31.5786159 L80.850778,28.7321725 C80.4290806,28.3948145 79.8984526,28.1136871 79.2588781,27.8887818 C78.6193037,27.6638765 77.9129711,27.5514256 77.1398591,27.5514256 C76.0575024,27.5514256 75.2000638,27.7938979 74.5675176,28.27885 C73.9349715,28.763802 73.6187032,29.3717401 73.6187032,30.1026823 C73.6187032,30.7914548 73.9209151,31.3642518 74.5253481,31.8210907 C75.1297811,32.2779296 76.3386289,32.6820503 78.1519279,33.0334648 C80.9773007,33.595728 83.0716999,34.4215398 84.4351883,35.5109248 C85.7986766,36.6003099 86.4804106,38.1008274 86.4804106,40.0125224 C86.4804106,42.0647833 85.5983734,43.7410055 83.8342724,45.0412392 C82.0701715,46.341473 79.7473563,46.9915801 76.8657572,46.9915801 C75.1086845,46.9915801 73.495716,46.7350513 72.0268033,46.2219861 C70.5578906,45.7089209 69.2541622,44.9744756 68.1155791,44.018628 L68.0523248,38.8950298 L72.3536172,38.8950298 L73.1970078,41.8679819 C73.5624789,42.1772267 74.0614801,42.4056427 74.6940262,42.5532368 C75.3265724,42.7008309 75.9872218,42.7746268 76.6759943,42.7746268 C77.92703,42.7746268 78.8793491,42.5497249 79.5329801,42.0999143 C80.1866111,41.6501037 80.5134217,41.0386516 80.5134217,40.2655396 C80.5134217,39.5908237 80.183097,39.0074844 79.5224377,38.515504 C78.8617784,38.0235237 77.6459024,37.5877762 75.8747731,37.2082485 C73.1899661,36.6600419 71.1623347,35.8482865 69.7918181,34.772958 C68.4213014,33.6976296 67.7360533,32.232253 67.7360533,30.3767842 C67.7360533,28.4650892 68.5232101,26.8169798 70.0975472,25.4324065 C71.6718843,24.0478333 73.9138753,23.3555571 76.8235876,23.3555571 C78.5947169,23.3555571 80.270939,23.5945154 81.8523044,24.0724391 C83.4336698,24.5503629 84.6741445,25.161815 85.5737657,25.9068138 L85.6370199,31.5786159 Z M105.203683,43.660187 C104.472741,44.7284872 103.569619,45.5507848 102.494291,46.1271047 C101.418962,46.7034245 100.192544,46.9915801 98.8149989,46.9915801 C96.4113235,46.9915801 94.5277699,46.2219938 93.1642815,44.6827982 C91.8007932,43.1436025 91.1190592,40.7505055 91.1190592,37.5034353 L91.1190592,28.0785447 L88.609972,27.4460017 L88.609972,23.7350828 L97.275811,23.7350828 L97.275811,37.5456048 C97.275811,39.2042814 97.5534243,40.3955587 98.1086592,41.1194727 C98.6638942,41.8433866 99.4897059,42.2053381 100.586119,42.2053381 C101.556023,42.2053381 102.395891,42.047204 103.105749,41.7309309 C103.815606,41.4146578 104.395431,40.9613399 104.845242,40.3709635 L104.845242,28.0785447 L102.146392,27.4460017 L102.146392,23.7350828 L111.001994,23.7350828 L111.001994,42.2264229 L113.764098,42.8589659 L113.764098,46.5488 L105.604294,46.5488 L105.203683,43.660187 Z M115.471964,27.4460017 L115.471964,23.7350828 L124.475159,23.7350828 L124.728177,26.7502044 C125.459119,25.6537911 126.376297,24.8068948 127.479739,24.2094901 C128.58318,23.6120854 129.858796,23.3133875 131.306624,23.3133875 C132.768508,23.3133875 134.019525,23.636684 135.059712,24.2832868 C136.099899,24.9298895 136.887056,25.9068072 137.421206,27.2140693 C138.124035,25.9911467 139.037699,25.0353135 140.162226,24.3465411 C141.286752,23.6577686 142.608051,23.3133875 144.126162,23.3133875 C146.375215,23.3133875 148.149831,24.090002 149.450065,25.6432542 C150.750299,27.1965064 151.400406,29.5614907 151.400406,32.7382781 L151.400406,42.2264229 L154.373358,42.8589659 L154.373358,46.5488 L142.586974,46.5488 L142.586974,42.8589659 L145.243654,42.2264229 L145.243654,32.7171933 C145.243654,30.9882338 144.962527,29.7864142 144.400264,29.1116983 C143.838,28.4369824 143.001646,28.0996295 141.891176,28.0996295 C141.019668,28.0996295 140.264139,28.2929046 139.624564,28.6794605 C138.98499,29.0660165 138.475446,29.6036727 138.095919,30.2924452 C138.095919,30.5595202 138.102947,30.7879362 138.117003,30.9777001 C138.13106,31.1674639 138.138088,31.360739 138.138088,31.5575312 L138.138088,42.2264229 L140.62609,42.8589659 L140.62609,46.5488 L129.514419,46.5488 L129.514419,42.8589659 L132.002421,42.2264229 L132.002421,32.7171933 C132.002421,31.0304036 131.721294,29.8391262 131.15903,29.1433254 C130.596767,28.4475246 129.753385,28.0996295 128.628858,28.0996295 C127.79952,28.0996295 127.072103,28.2577636 126.446585,28.5740367 C125.821067,28.8903098 125.304496,29.3365996 124.896855,29.9129194 L124.896855,42.2264229 L127.553535,42.8589659 L127.553535,46.5488 L115.788236,46.5488 L115.788236,42.8589659 L118.761188,42.2264229 L118.761188,28.0785447 L115.471964,27.4460017 Z M167.277235,46.9915801 C163.987995,46.9915801 161.359454,45.9373523 159.391533,43.8288651 C157.423611,41.720378 156.439665,39.0426394 156.439665,35.7955692 L156.439665,34.9521785 C156.439665,31.5645425 157.3709,28.774353 159.233397,26.5815263 C161.095894,24.3886996 163.594414,23.2993309 166.729031,23.3133875 C169.807422,23.3133875 172.197005,24.241108 173.897852,26.0965767 C175.598698,27.9520454 176.449108,30.4611075 176.449108,33.6238382 L176.449108,36.9763161 L162.828349,36.9763161 L162.78618,37.1028247 C162.898633,38.6068789 163.401148,39.8438395 164.293741,40.8137436 C165.186334,41.7836477 166.398696,42.2685924 167.930863,42.2685924 C169.294351,42.2685924 170.425889,42.1315428 171.32551,41.8574395 C172.225131,41.5833362 173.209077,41.1511028 174.277378,40.5607264 L175.943074,44.3559843 C175.001283,45.1009831 173.781893,45.7264916 172.284867,46.2325285 C170.787841,46.7385654 169.118647,46.9915801 167.277235,46.9915801 Z M166.729031,28.0574599 C165.590448,28.0574599 164.69084,28.4932074 164.030181,29.3647155 C163.369522,30.2362235 162.961887,31.3818177 162.807265,32.8015324 L162.870519,32.9069562 L170.418865,32.9069562 L170.418865,32.3587523 C170.418865,31.0514902 170.113139,30.0078047 169.501678,29.2276645 C168.890217,28.4475242 167.96601,28.0574599 166.729031,28.0574599 Z" id="Resume" fill="#193651"></path>
            <path d="M205.762532,25.8074691 L203.801648,25.8074691 L203.443207,21.1477358 C202.627926,20.1778317 201.56667,19.394189 200.259408,18.7967843 C198.952146,18.1993796 197.441086,17.9006818 195.726183,17.9006818 C192.296377,17.9006818 189.569441,19.1481846 187.545294,21.6432278 C185.521146,24.1382709 184.509087,27.3606938 184.509087,31.3105931 L184.509087,31.7533732 C184.509087,35.7032725 185.510604,38.9327236 187.513666,41.4418234 C189.516729,43.9509231 192.148785,45.2054541 195.409911,45.2054541 C197.138871,45.2054541 198.70967,44.9032422 200.122357,44.2988092 C201.535043,43.6943762 202.641982,42.9142477 203.443207,41.9584001 L203.801648,37.2986668 L205.762532,37.2986668 L205.762532,42.696367 C204.806684,44.0176856 203.411589,45.1211107 201.577206,46.0066753 C199.742822,46.8922399 197.687078,47.3350155 195.409911,47.3350155 C191.474069,47.3350155 188.25516,45.8766671 185.753088,42.9599265 C183.251017,40.0431859 182,36.3077055 182,31.7533732 L182,31.3527627 C182,26.7843738 183.247503,23.0418652 185.742546,20.1251246 C188.237589,17.208384 191.502181,15.7500356 195.53642,15.7500356 C197.813586,15.7500356 199.848246,16.1963254 201.64046,17.0889183 C203.432674,17.9815112 204.806684,19.0884503 205.762532,20.409769 L205.762532,25.8074691 Z M210.316841,35.1480206 C210.316841,31.7884977 211.237533,29.0334491 213.078946,26.8827922 C214.920358,24.7321353 217.359138,23.656823 220.395359,23.656823 C223.445638,23.656823 225.891446,24.7321353 227.732858,26.8827922 C229.57427,29.0334491 230.494963,31.7884977 230.494963,35.1480206 L230.494963,35.8438179 C230.494963,39.2173974 229.577784,41.9759601 227.743401,44.1195887 C225.909017,46.2632173 223.473751,47.3350155 220.437529,47.3350155 C217.373194,47.3350155 214.920358,46.2632173 213.078946,44.1195887 C211.237533,41.9759601 210.316841,39.2173974 210.316841,35.8438179 L210.316841,35.1480206 Z M212.847013,35.8438179 C212.847013,38.4864552 213.514691,40.7073617 214.850066,42.5066041 C216.185441,44.3058464 218.04791,45.2054541 220.437529,45.2054541 C222.784978,45.2054541 224.626363,44.3058464 225.961738,42.5066041 C227.297113,40.7073617 227.964791,38.4864552 227.964791,35.8438179 L227.964791,35.1480206 C227.964791,32.5475531 227.293599,30.340703 225.951195,28.527404 C224.608792,26.714105 222.756865,25.8074691 220.395359,25.8074691 C218.033854,25.8074691 216.185441,26.714105 214.850066,28.527404 C213.514691,30.340703 212.847013,32.5475531 212.847013,35.1480206 L212.847013,35.8438179 Z M250.356812,46.8922354 C250.188133,46.1191235 250.068654,45.4514459 249.998371,44.8891826 C249.928088,44.3269194 249.892948,43.7576364 249.892948,43.1813166 C249.049553,44.376126 247.925043,45.3671001 246.519385,46.1542686 C245.113727,46.9414372 243.532385,47.3350155 241.775312,47.3350155 C239.540316,47.3350155 237.811383,46.7587044 236.58846,45.6060647 C235.365537,44.453425 234.754085,42.8931679 234.754085,40.9252466 C234.754085,38.8167594 235.660721,37.1440513 237.47402,35.9070722 C239.287319,34.6700931 241.747184,34.0516128 244.853688,34.0516128 L249.892948,34.0516128 L249.892948,31.0364912 C249.892948,29.4059278 249.369348,28.1267981 248.322132,27.1990637 C247.274917,26.2713294 245.809541,25.8074691 243.925959,25.8074691 C242.660866,25.8074691 241.50473,25.9796597 240.457515,26.3240459 C239.410299,26.6684321 238.53529,27.1358065 237.832461,27.7261829 L237.621614,30.783474 L235.534222,30.783474 L235.555306,26.3978426 C236.60955,25.5825609 237.871109,24.9219115 239.340022,24.4158746 C240.808935,23.9098376 242.372706,23.656823 244.031382,23.656823 C246.547511,23.656823 248.571628,24.2963878 250.103795,25.5755367 C251.635963,26.8546856 252.402035,28.6890419 252.402035,31.0786607 L252.402035,42.2957564 C252.402035,42.7596236 252.412577,43.2059133 252.433662,43.6346391 C252.454747,44.0633648 252.50043,44.4815418 252.570713,44.8891826 L254.847868,45.036776 L254.847868,46.8922354 L250.356812,46.8922354 Z M242.049414,45.1000303 C243.87677,45.1000303 245.486224,44.6783392 246.877826,43.8349443 C248.269427,42.9915495 249.274458,41.9021808 249.892948,40.5668056 L249.892948,35.9914113 L244.811519,35.9914113 C242.520296,35.9914113 240.689454,36.4658138 239.318937,37.414633 C237.948421,38.3634522 237.263173,39.5617578 237.263173,41.0095856 C237.263173,42.2325082 237.688378,43.2199682 238.538801,43.9719953 C239.389224,44.7240224 240.559417,45.1000303 242.049414,45.1000303 Z M268.17344,45.2054541 C269.846173,45.2054541 271.322092,44.7275376 272.601241,43.77169 C273.88039,42.8158425 274.519955,41.4875155 274.519955,39.7866692 L276.75494,39.7866692 L276.797109,39.9131778 C276.867392,42.021665 276.027524,43.7857394 274.27748,45.2054541 C272.527435,46.6251688 270.492776,47.3350155 268.17344,47.3350155 C265.080992,47.3350155 262.684381,46.2702455 260.983535,44.1406734 C259.282688,42.0111014 258.432278,39.2736233 258.432278,35.928157 L258.432278,35.0425968 C258.432278,31.7252436 259.282688,28.9983078 260.983535,26.8617075 C262.684381,24.7251071 265.073964,23.656823 268.152355,23.656823 C269.909428,23.656823 271.518882,23.9871477 272.980767,24.647807 C274.442651,25.3084663 275.630414,26.208074 276.544092,27.3466571 L276.649516,32.3226619 L274.49887,32.3226619 L274.098259,28.2743868 C273.423543,27.5153314 272.583675,26.9144216 271.57863,26.4716393 C270.573584,26.028857 269.431504,25.8074691 268.152355,25.8074691 C265.70651,25.8074691 263.896752,26.6824782 262.723028,28.4325225 C261.549303,30.1825669 260.96245,32.3859029 260.96245,35.0425968 L260.96245,35.928157 C260.96245,38.6270205 261.545789,40.8479271 262.712485,42.5909431 C263.879182,44.3339592 265.699482,45.2054541 268.17344,45.2054541 Z M280.761045,15.8765442 L280.761045,14 L286.70695,14 L286.70695,27.9792001 C287.466005,26.6157117 288.478064,25.5544557 289.743156,24.7954004 C291.008248,24.036345 292.484167,23.656823 294.170957,23.656823 C296.574632,23.656823 298.419531,24.4018106 299.705708,25.8918082 C300.991885,27.3818058 301.634964,29.6940787 301.634964,32.8286963 L301.634964,44.7626741 L305.071781,45.036776 L305.071781,46.8922354 L295.667975,46.8922354 L295.667975,45.036776 L299.104792,44.7626741 L299.104792,32.7865268 C299.104792,30.3125685 298.616333,28.5379517 297.639401,27.4626233 C296.662468,26.3872948 295.316571,25.8496387 293.601668,25.8496387 C291.872709,25.8496387 290.428417,26.3029566 289.268749,27.2096061 C288.109081,28.1162556 287.255156,29.3215893 286.70695,30.8256435 L286.70695,44.7626741 L290.143766,45.036776 L290.143766,46.8922354 L280.761045,46.8922354 L280.761045,45.036776 L284.197862,44.7626741 L284.197862,16.1506462 L280.761045,15.8765442 Z" id="Coach" fill="#FFFFFF"></path>
        </g>
    </g>
</svg>