<?xml version="1.0" encoding="UTF-8" standalone="no"?>
<svg width="204px" height="64px" viewBox="0 0 204 64" version="1.1" xmlns="http://www.w3.org/2000/svg" xmlns:xlink="http://www.w3.org/1999/xlink">
    <!-- Generator: Sketch 43.2 (39069) - http://www.bohemiancoding.com/sketch -->
    <title>resume</title>
    <desc>Created with Sketch.</desc>
    <defs></defs>
    <g id="Page-1" stroke="none" stroke-width="1" fill="none" fill-rule="evenodd">
        <g id="resume" fill="#193651">
            <path d="M14.6791289,20.8945662 C17.1193513,20.8945662 19.0331262,21.4529555 20.4205107,22.5697509 C21.8078953,23.6865462 22.5015772,25.2288815 22.5015772,27.1968028 C22.5015772,28.2791596 22.2113131,29.2188279 21.6307763,30.0158361 C21.0502395,30.8128442 20.1991263,31.4573288 19.0774111,31.9493092 C20.3467204,32.3232142 21.2593302,32.94556 21.815268,33.8163652 C22.3712058,34.6871704 22.6491705,35.7670511 22.6491705,37.0560396 L22.6491705,38.1482304 C22.6491705,38.6205316 22.7426454,38.9870514 22.9295979,39.247801 C23.1165504,39.5085506 23.4264934,39.6635221 23.8594361,39.7127201 L24.3907722,39.7865168 L24.3907722,42.38416 L22.1621124,42.38416 C20.7550486,42.38416 19.766183,42.0053408 19.1954858,41.2476911 C18.6247886,40.4900414 18.3394443,39.5110152 18.3394443,38.3105831 L18.3394443,37.0855582 C18.3394443,36.0425599 18.0614796,35.2234249 17.5055418,34.6281287 C16.949604,34.0328325 16.1649071,33.7204297 15.1514276,33.6909108 L11.6239462,33.6909108 L11.6239462,39.358496 L13.9264027,39.8012761 L13.9264027,42.38416 L5.02652284,42.38416 L5.02652284,39.8012761 L7.31421998,39.358496 L7.31421998,23.9349895 L5.02652284,23.4922094 L5.02652284,20.8945662 L14.6791289,20.8945662 Z M11.6239462,30.3700602 L14.6053322,30.3700602 C15.8057642,30.3700602 16.7060747,30.1142342 17.3062907,29.6025747 C17.9065068,29.0909151 18.2066103,28.3529557 18.2066103,27.3886742 C18.2066103,26.4243927 17.9089666,25.654455 17.3136704,25.078838 C16.7183742,24.503221 15.8402025,24.2154169 14.6791289,24.2154169 L11.6239462,24.2154169 L11.6239462,30.3700602 Z M33.5563201,42.6941061 C31.2538521,42.6941061 29.4138733,41.9561466 28.0363283,40.4802056 C26.6587834,39.0042646 25.9700212,37.1298476 25.9700212,34.8568984 L25.9700212,34.266525 C25.9700212,31.8951797 26.6218854,29.9420471 27.9256333,28.4070684 C29.2293812,26.8720897 30.9783451,26.1095317 33.1725774,26.1193713 C35.3274513,26.1193713 37.0001593,26.7687756 38.1907518,28.0676037 C39.3813442,29.3664318 39.9766315,31.1227752 39.9766315,33.3366868 L39.9766315,35.6834213 L30.4421002,35.6834213 L30.4125815,35.7719773 C30.4912983,36.8248152 30.843059,37.6906876 31.467874,38.3696205 C32.0926891,39.0485534 32.9413424,39.3880147 34.0138596,39.3880147 C34.9683014,39.3880147 35.7603779,39.29208 36.3901127,39.1002076 C37.0198476,38.9083353 37.7086097,38.6057719 38.4564198,38.1925085 L39.6224074,40.849189 C38.9631538,41.3706882 38.1095807,41.8085441 37.0616625,42.16277 C36.0137444,42.5169958 34.8453086,42.6941061 33.5563201,42.6941061 Z M33.1725774,29.440222 C32.3755692,29.440222 31.7458438,29.7452452 31.2833823,30.3553008 C30.8209208,30.9653564 30.5355765,31.7672724 30.4273408,32.7610727 L30.4716188,32.8348693 L35.7554613,32.8348693 L35.7554613,32.4511266 C35.7554613,31.5360432 35.541453,30.8054633 35.1134301,30.2593651 C34.6854072,29.713267 34.0384628,29.440222 33.1725774,29.440222 Z M55.045914,31.9050311 L52.153084,31.9050311 L51.6955446,29.9125207 C51.4003564,29.6763702 51.0289168,29.479581 50.5812147,29.3221473 C50.1335126,29.1647136 49.6390798,29.0859979 49.0979014,29.0859979 C48.3402517,29.0859979 47.7400447,29.2557286 47.2972623,29.595195 C46.85448,29.9346614 46.6330922,30.360218 46.6330922,30.8718776 C46.6330922,31.3540183 46.8446406,31.7549763 47.2677437,32.0747635 C47.6908468,32.3945507 48.5370403,32.6774352 49.8063495,32.9234254 C51.7841105,33.3170096 53.2501899,33.8950779 54.2046318,34.6576474 C55.1590736,35.4202169 55.6362874,36.4705792 55.6362874,37.8087657 C55.6362874,39.2453483 55.0188614,40.4187038 53.7839907,41.3288674 C52.54912,42.2390311 50.9231494,42.6941061 48.90603,42.6941061 C47.6760792,42.6941061 46.5470012,42.5145359 45.5187623,42.1553903 C44.4905234,41.7962446 43.5779136,41.2821329 42.7809054,40.6130396 L42.7366274,37.0265209 L45.747532,37.0265209 L46.3379055,39.1075873 C46.5937353,39.3240587 46.9430361,39.4839499 47.3858184,39.5872657 C47.8286007,39.6905816 48.2910553,39.7422388 48.773196,39.7422388 C49.648921,39.7422388 50.3155444,39.5848074 50.7730861,39.26994 C51.2306278,38.9550726 51.4593952,38.5270561 51.4593952,37.9858777 C51.4593952,37.5135766 51.2281679,37.1052391 50.7657064,36.7608528 C50.3032449,36.4164666 49.4521317,36.1114434 48.2123412,35.845774 C46.3329763,35.4620293 44.9136343,34.8938005 43.9542726,34.1410706 C42.994911,33.3883407 42.5152373,32.3625771 42.5152373,31.063749 C42.5152373,29.7255624 43.0662471,28.5718858 44.168283,27.6026846 C45.270319,26.6334833 46.8397127,26.1488899 48.8765113,26.1488899 C50.1163018,26.1488899 51.2896573,26.3161607 52.3966131,26.6507074 C53.5035688,26.985254 54.3719011,27.4132705 55.001636,27.9347696 L55.045914,31.9050311 Z M68.7425782,40.3621309 C68.2309186,41.109941 67.5987334,41.6855494 66.8460034,42.0889733 C66.0932735,42.4923972 65.2347807,42.6941061 64.2704992,42.6941061 C62.5879265,42.6941061 61.2694389,42.1553957 60.3149971,41.0779587 C59.3605552,40.0005218 58.8833414,38.3253538 58.8833414,36.0524047 L58.8833414,29.4549813 L57.1269804,29.0122012 L57.1269804,26.414558 L63.1930677,26.414558 L63.1930677,36.0819233 C63.1930677,37.242997 63.387397,38.0768911 63.7760615,38.5836309 C64.1647259,39.0903706 64.7427942,39.3437367 65.5102835,39.3437367 C66.1892164,39.3437367 66.777124,39.2330428 67.2740242,39.0116516 C67.7709243,38.7902605 68.176802,38.4729379 68.4916694,38.0596744 L68.4916694,29.4549813 L66.6024744,29.0122012 L66.6024744,26.414558 L72.8013957,26.414558 L72.8013957,39.358496 L74.7348687,39.8012761 L74.7348687,42.38416 L69.0230056,42.38416 L68.7425782,40.3621309 Z M75.930375,29.0122012 L75.930375,26.414558 L82.2326116,26.414558 L82.4097237,28.5251431 C82.9213832,27.7576538 83.563408,27.1648264 84.3358171,26.7466431 C85.1082262,26.3284598 86.0011571,26.1193713 87.0146366,26.1193713 C88.0379558,26.1193713 88.9136676,26.3456788 89.6417985,26.7983007 C90.3699294,27.2509227 90.9209392,27.9347651 91.2948442,28.8498485 C91.7868246,27.9938027 92.4263894,27.3247195 93.2135579,26.8425788 C94.0007265,26.360438 94.9256357,26.1193713 95.9883132,26.1193713 C97.5626503,26.1193713 98.804882,26.6630014 99.7150456,27.7502779 C100.625209,28.8375545 101.080284,30.4930435 101.080284,32.7167946 L101.080284,39.358496 L103.161351,39.8012761 L103.161351,42.38416 L94.9108816,42.38416 L94.9108816,39.8012761 L96.770558,39.358496 L96.770558,32.7020353 C96.770558,31.4917637 96.5737688,30.6504899 96.1801846,30.1781888 C95.7866003,29.7058877 95.2011525,29.4697406 94.4238235,29.4697406 C93.8137679,29.4697406 93.284897,29.6050332 92.8371949,29.8756224 C92.3894928,30.1462116 92.0328124,30.5225709 91.767143,31.0047116 C91.767143,31.1916642 91.7720627,31.3515554 91.7819023,31.4843901 C91.7917419,31.6172247 91.7966616,31.7525173 91.7966616,31.8902718 L91.7966616,39.358496 L93.5382633,39.8012761 L93.5382633,42.38416 L85.7600931,42.38416 L85.7600931,39.8012761 L87.5016948,39.358496 L87.5016948,32.7020353 C87.5016948,31.5212825 87.3049056,30.6873883 86.9113213,30.2003278 C86.517737,29.7132672 85.9273695,29.4697406 85.1402009,29.4697406 C84.5596641,29.4697406 84.0504721,29.5804345 83.6126096,29.8018257 C83.1747471,30.0232169 82.813147,30.3356197 82.5277984,30.7390436 L82.5277984,39.358496 L84.3874748,39.8012761 L84.3874748,42.38416 L76.151765,42.38416 L76.151765,39.8012761 L78.2328315,39.358496 L78.2328315,29.4549813 L75.930375,29.0122012 Z M112.194065,42.6941061 C109.891597,42.6941061 108.051618,41.9561466 106.674073,40.4802056 C105.296528,39.0042646 104.607766,37.1298476 104.607766,34.8568984 L104.607766,34.266525 C104.607766,31.8951797 105.25963,29.9420471 106.563378,28.4070684 C107.867126,26.8720897 109.61609,26.1095317 111.810322,26.1193713 C113.965196,26.1193713 115.637904,26.7687756 116.828496,28.0676037 C118.019089,29.3664318 118.614376,31.1227752 118.614376,33.3366868 L118.614376,35.6834213 L109.079845,35.6834213 L109.050326,35.7719773 C109.129043,36.8248152 109.480803,37.6906876 110.105618,38.3696205 C110.730434,39.0485534 111.579087,39.3880147 112.651604,39.3880147 C113.606046,39.3880147 114.398122,39.29208 115.027857,39.1002076 C115.657592,38.9083353 116.346354,38.6057719 117.094164,38.1925085 L118.260152,40.849189 C117.600898,41.3706882 116.747325,41.8085441 115.699407,42.16277 C114.651489,42.5169958 113.483053,42.6941061 112.194065,42.6941061 Z M111.810322,29.440222 C111.013314,29.440222 110.383588,29.7452452 109.921127,30.3553008 C109.458665,30.9653564 109.173321,31.7672724 109.065085,32.7610727 L109.109363,32.8348693 L114.393206,32.8348693 L114.393206,32.4511266 C114.393206,31.5360432 114.179197,30.8054633 113.751175,30.2593651 C113.323152,29.713267 112.676207,29.440222 111.810322,29.440222 Z" id="Resume"></path>
        </g>
    </g>
</svg>