<?xml version="1.0" encoding="UTF-8" standalone="no"?>
<svg width="204px" height="64px" viewBox="0 0 204 64" version="1.1" xmlns="http://www.w3.org/2000/svg" xmlns:xlink="http://www.w3.org/1999/xlink">
    <!-- Generator: Sketch 43.2 (39069) - http://www.bohemiancoding.com/sketch -->
    <title>templates</title>
    <desc>Created with Sketch.</desc>
    <defs></defs>
    <g id="Page-1" stroke="none" stroke-width="1" fill="none" fill-rule="evenodd">
        <g id="templates" fill="#FFFFFF">
            <path d="M32.6768718,20.8945662 L32.6768718,25.4256825 L31.1123821,25.4256825 L30.9795481,22.4000185 L25.0167762,22.4000185 L25.0167762,40.893467 L27.422548,41.0853384 L27.422548,42.38416 L20.839884,42.38416 L20.839884,41.0853384 L23.2456558,40.893467 L23.2456558,22.4000185 L17.2828839,22.4000185 L17.1648092,25.4256825 L15.5855602,25.4256825 L15.5855602,20.8945662 L32.6768718,20.8945662 Z M40.5326354,42.6941061 C38.5253556,42.6941061 36.862487,41.9586065 35.5439797,40.4875853 C34.2254724,39.0165641 33.5662286,37.1446069 33.5662286,34.8716578 L33.5662286,34.0598943 C33.5662286,31.7771055 34.2230125,29.8830096 35.5366,28.3775497 C36.8501875,26.8720899 38.4368003,26.1193713 40.296486,26.1193713 C42.2545678,26.1193713 43.7944432,26.7392572 44.9161583,27.9790477 C46.0378735,29.2188381 46.5987227,30.8718673 46.5987227,32.9381847 L46.5987227,34.443637 L35.3225897,34.443637 L35.3225897,34.8716578 C35.3225897,36.6624662 35.8022633,38.1654436 36.761625,39.380635 C37.7209866,40.5958265 38.9779775,41.2034131 40.5326354,41.2034131 C41.6248318,41.2034131 42.5595804,41.0509015 43.3369093,40.7458737 C44.1142383,40.4408458 44.7784018,40.0029899 45.3294198,39.4322927 L46.0821459,40.6425583 C45.4819299,41.2722931 44.7242915,41.7716457 43.8092081,42.1406309 C42.8941247,42.5096162 41.8019447,42.6941061 40.5326354,42.6941061 Z M40.296486,27.6248236 C38.9976579,27.6248236 37.9030181,28.1241761 37.0125337,29.1228962 C36.1220493,30.1216163 35.6030178,31.3736875 35.4554237,32.8791473 L35.4849424,32.952944 L44.8423617,32.952944 L44.8423617,32.5101639 C44.8423617,31.1227794 44.4340241,29.9617232 43.6173367,29.0269605 C42.8006494,28.0921979 41.6937102,27.6248236 40.296486,27.6248236 Z M49.3034779,27.7281389 L49.3034779,26.414558 L53.2737394,26.414558 L53.4360921,29.0564792 C53.9477517,28.1217166 54.6315941,27.3985163 55.4876399,26.8868568 C56.3436857,26.3751972 57.3620697,26.1193713 58.5428225,26.1193713 C59.7629338,26.1193713 60.7813178,26.4170149 61.5980052,27.0123111 C62.4146925,27.6076073 63.0001404,28.5152974 63.3543662,29.7354087 C63.8365069,28.6136935 64.5228092,27.730602 65.4132936,27.0861078 C66.303778,26.4416136 67.3885784,26.1193713 68.6677273,26.1193713 C70.3699793,26.1193713 71.686007,26.6851402 72.6158498,27.816695 C73.5456926,28.9482497 74.0106071,30.6996735 74.0106071,33.0710187 L74.0106071,40.8787077 L76.4163789,41.0853384 L76.4163789,42.38416 L69.8189556,42.38416 L69.8189556,41.0853384 L72.2247274,40.8787077 L72.2247274,33.0415 C72.2247274,31.0735787 71.8778865,29.6837551 71.1841942,28.8719875 C70.4905019,28.0602199 69.523775,27.6543423 68.2839846,27.6543423 C66.9064396,27.6543423 65.8462379,28.0921982 65.1033476,28.9679232 C64.3604573,29.8436482 63.9004625,30.9604268 63.7233496,32.3182926 C63.7233496,32.3970094 63.7258095,32.4708054 63.7307293,32.5396826 C63.7356491,32.6085599 63.7381089,32.697115 63.7381089,32.8053507 L63.7381089,40.893467 L66.1438808,41.0853384 L66.1438808,42.38416 L59.5612167,42.38416 L59.5612167,41.0853384 L61.9669886,40.893467 L61.9669886,33.0415 C61.9669886,31.1129371 61.6152279,29.732953 60.911696,28.9015062 C60.2081641,28.0700594 59.2414373,27.6543423 58.0114864,27.6543423 C56.7520167,27.6543423 55.7557715,27.9716648 55.0227208,28.6063195 C54.2896701,29.2409741 53.7755583,30.0945472 53.4803701,31.1670643 L53.4803701,40.893467 L55.886142,41.0853384 L55.886142,42.38416 L49.3034779,42.38416 L49.3034779,41.0853384 L51.7092498,40.893467 L51.7092498,27.9200103 L49.3034779,27.7281389 Z M78.128462,27.7281389 L78.128462,26.414558 L82.0101674,26.414558 L82.2315575,28.8941265 C82.7727359,28.0085619 83.4639579,27.3247195 84.3052442,26.8425788 C85.1465306,26.360438 86.1329364,26.1193713 87.2644912,26.1193713 C89.1832145,26.1193713 90.6837321,26.8843892 91.7660888,28.4144481 C92.8484456,29.9445069 93.3896158,31.9837349 93.3896158,34.532193 L93.3896158,34.8421391 C93.3896158,37.2331635 92.8484456,39.1395588 91.7660888,40.561382 C90.6837321,41.9832051 89.193054,42.6941061 87.2940099,42.6941061 C86.1722947,42.6941061 85.1908086,42.4800978 84.3495223,42.0520749 C83.5082359,41.624052 82.8219336,41.0164654 82.2905948,40.2292969 L82.2905948,47.0185916 L84.6963667,47.210463 L84.6963667,48.524044 L78.128462,48.524044 L78.128462,47.210463 L80.5342338,47.0185916 L80.5342338,27.9200103 L78.128462,27.7281389 Z M91.6184954,34.532193 C91.6184954,32.505234 91.2150776,30.8522049 90.4082299,29.573056 C89.6013821,28.2939071 88.420647,27.6543423 86.8659891,27.6543423 C85.6753967,27.6543423 84.7086698,27.9372267 83.9657795,28.5030041 C83.2228892,29.0687815 82.6644999,29.8042811 82.2905948,30.7095249 L82.2905948,38.3843798 C82.6940187,39.2601048 83.2770067,39.948867 84.0395762,40.4506869 C84.8021457,40.9525069 85.7541134,41.2034131 86.8955078,41.2034131 C88.4403261,41.2034131 89.6136816,40.622885 90.4156095,39.4618114 C91.2175375,38.3007378 91.6184954,36.7608624 91.6184954,34.8421391 L91.6184954,34.532193 Z M95.9134623,20.6731761 L95.9134623,19.3595952 L100.075595,19.3595952 L100.075595,40.893467 L102.481367,41.0853384 L102.481367,42.38416 L95.9134623,42.38416 L95.9134623,41.0853384 L98.3192342,40.893467 L98.3192342,20.8650475 L95.9134623,20.6731761 Z M116.296106,42.38416 C116.178031,41.8429816 116.094395,41.3756073 116.045197,40.982023 C115.995999,40.5884388 115.971401,40.1899407 115.971401,39.7865168 C115.381024,40.6228834 114.593867,41.3165652 113.609907,41.8675832 C112.625946,42.4186012 111.519007,42.6941061 110.289056,42.6941061 C108.724559,42.6941061 107.514305,42.2906882 106.658259,41.4838405 C105.802213,40.6769927 105.374197,39.5848127 105.374197,38.2072678 C105.374197,36.7313268 106.008842,35.5604311 107.278151,34.6945457 C108.547461,33.8286603 110.269366,33.3957241 112.443919,33.3957241 L115.971401,33.3957241 L115.971401,31.285139 C115.971401,30.1437446 115.604881,29.2483538 114.87183,28.5989398 C114.138779,27.9495257 113.113016,27.6248236 111.794508,27.6248236 C110.908944,27.6248236 110.099648,27.745357 109.366597,27.9864273 C108.633547,28.2274977 108.02104,28.5546597 107.52906,28.9679232 L107.381467,31.108027 L105.920292,31.108027 L105.935052,28.038085 C106.673022,27.4673878 107.556114,27.0049332 108.584353,26.6507074 C109.612592,26.2964815 110.707231,26.1193713 111.868305,26.1193713 C113.629595,26.1193713 115.046477,26.5670667 116.118994,27.4624709 C117.191511,28.3578751 117.727762,29.6419245 117.727762,31.3146577 L117.727762,39.1666247 C117.727762,39.4913317 117.735141,39.8037345 117.749901,40.1038425 C117.76466,40.4039505 117.796638,40.6966744 117.845836,40.982023 L119.439845,41.0853384 L119.439845,42.38416 L116.296106,42.38416 Z M110.480927,41.1296164 C111.760076,41.1296164 112.886694,40.8344326 113.860815,40.2440562 C114.834937,39.6536798 115.538458,38.8911217 115.971401,37.9563591 L115.971401,34.7535831 L112.4144,34.7535831 C110.810545,34.7535831 109.528955,35.0856648 108.569593,35.7498383 C107.610232,36.4140117 107.130558,37.2528256 107.130558,38.2663051 C107.130558,39.1223509 107.428202,39.8135729 108.023498,40.3399919 C108.618794,40.8664109 109.437929,41.1296164 110.480927,41.1296164 Z M126.007749,22.3262218 L126.007749,26.414558 L129.520471,26.414558 L129.520471,27.860973 L126.007749,27.860973 L126.007749,38.2663051 C126.007749,39.3093035 126.197159,40.0497228 126.575984,40.4875853 C126.954809,40.9254478 127.459081,41.1443757 128.088816,41.1443757 C128.374164,41.1443757 128.652129,41.1320764 128.922718,41.1074774 C129.193307,41.0828784 129.50571,41.0410607 129.859936,40.982023 L130.125604,42.295604 C129.830416,42.4235189 129.471276,42.5219135 129.048173,42.5907907 C128.62507,42.659668 128.201973,42.6941061 127.77887,42.6941061 C126.657154,42.6941061 125.783902,42.3398855 125.159087,41.6314338 C124.534272,40.9229822 124.22187,39.8012838 124.22187,38.2663051 L124.22187,27.860973 L121.476633,27.860973 L121.476633,26.414558 L124.22187,26.414558 L124.22187,22.3262218 L126.007749,22.3262218 Z M139.807729,42.6941061 C137.800449,42.6941061 136.13758,41.9586065 134.819073,40.4875853 C133.500566,39.0165641 132.841322,37.1446069 132.841322,34.8716578 L132.841322,34.0598943 C132.841322,31.7771055 133.498106,29.8830096 134.811693,28.3775497 C136.125281,26.8720899 137.711894,26.1193713 139.571579,26.1193713 C141.529661,26.1193713 143.069537,26.7392572 144.191252,27.9790477 C145.312967,29.2188381 145.873816,30.8718673 145.873816,32.9381847 L145.873816,34.443637 L134.597683,34.443637 L134.597683,34.8716578 C134.597683,36.6624662 135.077357,38.1654436 136.036718,39.380635 C136.99608,40.5958265 138.253071,41.2034131 139.807729,41.2034131 C140.899925,41.2034131 141.834674,41.0509015 142.612003,40.7458737 C143.389332,40.4408458 144.053495,40.0029899 144.604513,39.4322927 L145.357239,40.6425583 C144.757023,41.2722931 143.999385,41.7716457 143.084302,42.1406309 C142.169218,42.5096162 141.077038,42.6941061 139.807729,42.6941061 Z M139.571579,27.6248236 C138.272751,27.6248236 137.178112,28.1241761 136.287627,29.1228962 C135.397143,30.1216163 134.878111,31.3736875 134.730517,32.8791473 L134.760036,32.952944 L144.117455,32.952944 L144.117455,32.5101639 C144.117455,31.1227794 143.709118,29.9617232 142.89243,29.0269605 C142.075743,28.0921979 140.968804,27.6248236 139.571579,27.6248236 Z M160.618393,31.3441764 L159.171978,31.3441764 L158.965348,29.0859979 C158.522565,28.6235364 157.964176,28.2643961 157.290163,28.0085663 C156.61615,27.7527366 155.841292,27.6248236 154.965567,27.6248236 C153.676579,27.6248236 152.709852,27.9027883 152.065358,28.4587261 C151.420864,29.0146639 151.098621,29.666528 151.098621,30.4143382 C151.098621,31.1523087 151.376586,31.7623551 151.932524,32.2444959 C152.488462,32.7266366 153.597861,33.1497334 155.260754,33.5137988 C157.159798,33.9369019 158.5816,34.5149701 159.526202,35.2480208 C160.470805,35.9810715 160.943099,36.9773168 160.943099,38.2367865 C160.943099,39.5651334 160.404388,40.6400943 159.326951,41.4617015 C158.249514,42.2833086 156.825253,42.6941061 155.054123,42.6941061 C153.873371,42.6941061 152.79841,42.5292951 151.829208,42.1996683 C150.860007,41.8700415 150.021193,41.405127 149.312742,40.804911 L149.312742,37.5873757 L150.744397,37.5873757 L150.995306,39.8603135 C151.467607,40.3326146 152.065354,40.6745358 152.788565,40.8860874 C153.511776,41.0976389 154.266955,41.2034131 155.054123,41.2034131 C156.333272,41.2034131 157.341817,40.9229885 158.079787,40.3621309 C158.817758,39.8012733 159.186738,39.1223506 159.186738,38.3253425 C159.186738,37.5775324 158.879254,36.9232083 158.264279,36.3623507 C157.649304,35.8014932 156.539905,35.3439583 154.936049,34.9897325 C153.037005,34.576469 151.627502,34.0279191 150.707499,33.3440664 C149.787496,32.6602138 149.327501,31.7033264 149.327501,30.4733755 C149.327501,29.2532643 149.844072,28.2225809 150.877231,27.3812945 C151.91039,26.5400081 153.273155,26.1193713 154.965567,26.1193713 C156.136481,26.1193713 157.206522,26.2989414 158.175723,26.658087 C159.144924,27.0172327 159.934541,27.5018261 160.544597,28.1118817 L160.618393,31.3441764 Z" id="Templates"></path>
        </g>
    </g>
</svg>