<?xml version="1.0" encoding="UTF-8" standalone="no"?>
<svg width="204px" height="64px" viewBox="0 0 204 64" version="1.1" xmlns="http://www.w3.org/2000/svg" xmlns:xlink="http://www.w3.org/1999/xlink">
    <!-- Generator: Sketch 43.2 (39069) - http://www.bohemiancoding.com/sketch -->
    <title>tips</title>
    <desc>Created with Sketch.</desc>
    <defs></defs>
    <g id="Page-1" stroke="none" stroke-width="1" fill="none" fill-rule="evenodd">
        <g id="tips" fill="#FFFFFF">
            <path d="M32.6768718,20.8945662 L32.6768718,25.4256825 L31.1123821,25.4256825 L30.9795481,22.4000185 L25.0167762,22.4000185 L25.0167762,40.893467 L27.422548,41.0853384 L27.422548,42.38416 L20.839884,42.38416 L20.839884,41.0853384 L23.2456558,40.893467 L23.2456558,22.4000185 L17.2828839,22.4000185 L17.1648092,25.4256825 L15.5855602,25.4256825 L15.5855602,20.8945662 L32.6768718,20.8945662 Z M34.8355316,41.0853384 L37.2413034,40.893467 L37.2413034,27.9200103 L34.8355316,27.7281389 L34.8355316,26.414558 L38.9976644,26.414558 L38.9976644,40.893467 L41.4034363,41.0853384 L41.4034363,42.38416 L34.8355316,42.38416 L34.8355316,41.0853384 Z M38.9976644,21.8391637 L37.2413034,21.8391637 L37.2413034,19.3595952 L38.9976644,19.3595952 L38.9976644,21.8391637 Z M43.8277641,27.7281389 L43.8277641,26.414558 L47.7094696,26.414558 L47.9308596,28.8941265 C48.472038,28.0085619 49.16326,27.3247195 50.0045464,26.8425788 C50.8458328,26.360438 51.8322386,26.1193713 52.9637934,26.1193713 C54.8825167,26.1193713 56.3830342,26.8843892 57.465391,28.4144481 C58.5477477,29.9445069 59.088918,31.9837349 59.088918,34.532193 L59.088918,34.8421391 C59.088918,37.2331635 58.5477477,39.1395588 57.465391,40.561382 C56.3830342,41.9832051 54.8923562,42.6941061 52.993312,42.6941061 C51.8715969,42.6941061 50.8901108,42.4800978 50.0488244,42.0520749 C49.207538,41.624052 48.5212358,41.0164654 47.989897,40.2292969 L47.989897,47.0185916 L50.3956688,47.210463 L50.3956688,48.524044 L43.8277641,48.524044 L43.8277641,47.210463 L46.233536,47.0185916 L46.233536,27.9200103 L43.8277641,27.7281389 Z M57.3177976,34.532193 C57.3177976,32.505234 56.9143798,30.8522049 56.107532,29.573056 C55.3006843,28.2939071 54.1199492,27.6543423 52.5652913,27.6543423 C51.3746989,27.6543423 50.407972,27.9372267 49.6650817,28.5030041 C48.9221914,29.0687815 48.363802,29.8042811 47.989897,30.7095249 L47.989897,38.3843798 C48.3933209,39.2601048 48.9763088,39.948867 49.7388784,40.4506869 C50.5014479,40.9525069 51.4534156,41.2034131 52.59481,41.2034131 C54.1396282,41.2034131 55.3129837,40.622885 56.1149117,39.4618114 C56.9168396,38.3007378 57.3177976,36.7608624 57.3177976,34.8421391 L57.3177976,34.532193 Z M73.4830677,31.3441764 L72.0366527,31.3441764 L71.830022,29.0859979 C71.3872397,28.6235364 70.8288504,28.2643961 70.1548373,28.0085663 C69.4808242,27.7527366 68.7059668,27.6248236 67.8302418,27.6248236 C66.5412533,27.6248236 65.5745265,27.9027883 64.9300322,28.4587261 C64.285538,29.0146639 63.9632957,29.666528 63.9632957,30.4143382 C63.9632957,31.1523087 64.2412604,31.7623551 64.7971982,32.2444959 C65.353136,32.7266366 66.462535,33.1497334 68.1254285,33.5137988 C70.0244727,33.9369019 71.4462745,34.5149701 72.3908768,35.2480208 C73.335479,35.9810715 73.8077731,36.9773168 73.8077731,38.2367865 C73.8077731,39.5651334 73.2690627,40.6400943 72.1916257,41.4617015 C71.1141888,42.2833086 69.6899271,42.6941061 67.9187978,42.6941061 C66.738045,42.6941061 65.6630841,42.5292951 64.6938828,42.1996683 C63.7246816,41.8700415 62.8858677,41.405127 62.177416,40.804911 L62.177416,37.5873757 L63.6090716,37.5873757 L63.8599803,39.8603135 C64.3322814,40.3326146 64.9300286,40.6745358 65.6532397,40.8860874 C66.3764508,41.0976389 67.1316293,41.2034131 67.9187978,41.2034131 C69.1979467,41.2034131 70.2064913,40.9229885 70.9444618,40.3621309 C71.6824323,39.8012733 72.051412,39.1223506 72.051412,38.3253425 C72.051412,37.5775324 71.7439289,36.9232083 71.1289535,36.3623507 C70.5139781,35.8014932 69.4045791,35.3439583 67.8007231,34.9897325 C65.901679,34.576469 64.4921765,34.0279191 63.5721733,33.3440664 C62.65217,32.6602138 62.1921753,31.7033264 62.1921753,30.4733755 C62.1921753,29.2532643 62.7087469,28.2225809 63.7419056,27.3812945 C64.7750643,26.5400081 66.1378294,26.1193713 67.8302418,26.1193713 C69.001155,26.1193713 70.0711962,26.2989414 71.0403975,26.658087 C72.0095988,27.0172327 72.7992154,27.5018261 73.409271,28.1118817 L73.4830677,31.3441764 Z" id="Tips"></path>
        </g>
    </g>
</svg>